<?xml version="1.0" standalone="no"?>
<!DOCTYPE svg PUBLIC "-//W3C//DTD SVG 1.1//EN" "http://www.w3.org/Graphics/SVG/1.1/DTD/svg11.dtd" >
<svg xmlns="http://www.w3.org/2000/svg" xmlns:xlink="http://www.w3.org/1999/xlink" version="1.1">
<metadata>
Created by FontForge 20170731 at Wed Dec  6 20:29:24 2017
 By Aleksey,,,
Copyright (c) 2018 by TypeType. Designer Ivan Gladkikh, technical designers Philipp Nurullin, Nadyr Rakhimov, Olexa Volochay, Vika Usmanova. All rights reserved.
</metadata>
<defs>
<font id="TTWellingtons-ExtraBoldItalic" horiz-adv-x="590" >
  <font-face 
    font-family="TT Wellingtons DemiBold"
    font-weight="800"
    font-style="italic"
    font-stretch="normal"
    units-per-em="1000"
    panose-1="2 0 9 3 0 0 0 9 0 4"
    ascent="800"
    descent="-200"
    x-height="530"
    cap-height="730"
    bbox="-260 -295 1518 1025"
    underline-thickness="50"
    underline-position="-250"
    unicode-range="U+000D-FB14"
  />
<missing-glyph horiz-adv-x="650" 
d="M150 730h400v-730h-400v730zM465 55l-115 245l-115 -245h230zM350 430l115 245h-230zM380 365l115 -245v490zM320 365l-115 245v-490z" />
    <glyph glyph-name="f_f" unicode="ff" horiz-adv-x="870" 
d="M568 530l13 60q45 210 242 210q40 0 77.5 -14t55.5 -28l18 -13l-76 -120q-15 25 -55 25q-73 0 -90 -75l-10 -45h160l-33 -155h-160l-80 -375h-175l80 375h-225l-80 -375h-175l80 375h-85l33 155h85l9 40q47 210 242 210q40 0 77.5 -14t55.5 -28l18 -13l-76 -120
q-15 25 -55 25q-72 0 -90 -75l-6 -25h225z" />
    <glyph glyph-name="f_i" unicode="fi" horiz-adv-x="745" 
d="M746 545l-116 -545h-175l80 375h-225l-80 -375h-175l80 375h-85l33 155h85l13 60q45 210 242 210q40 0 77.5 -14t55.5 -28l18 -13l-76 -120q-15 25 -55 25q-73 0 -90 -75l-10 -45h312q21 0 44 4t35 8zM588 668q0 47 35 77t85 30q37 0 58.5 -19.5t21.5 -53.5
q0 -47 -35 -77t-85 -30q-37 0 -58.5 19.5t-21.5 53.5z" />
    <glyph glyph-name="f_l" unicode="fl" horiz-adv-x="789" 
d="M796 780l-125 -590q-4 -20 -4 -26q0 -29 32 -29q9 0 17 2.5t12 4.5l3 3h15l-30 -140q-22 -20 -82 -20q-64 0 -104.5 37t-40.5 108q0 29 7 60l93 440q-31 0 -75 10t-71 10q-73 0 -90 -75l-10 -45h160l-33 -155h-160l-80 -375h-175l80 375h-85l33 155h85l13 60
q45 210 242 210q58 0 116 -10t82 -10h175z" />
    <glyph glyph-name="f_f_i" unicode="ffi" horiz-adv-x="1145" 
d="M1146 545l-116 -545h-175l80 375h-225l-80 -375h-175l80 375h-225l-80 -375h-175l80 375h-85l33 155h85l9 40q47 210 242 210q40 0 77.5 -14t55.5 -28l18 -13l-76 -120q-15 25 -55 25q-72 0 -90 -75l-6 -25h225l13 60q45 210 242 210q40 0 77.5 -14t55.5 -28l18 -13
l-76 -120q-15 25 -55 25q-73 0 -90 -75l-10 -45h312q21 0 44 4t35 8zM988 668q0 47 35 77t85 30q37 0 58.5 -19.5t21.5 -53.5q0 -47 -35 -77t-85 -30q-37 0 -58.5 19.5t-21.5 53.5z" />
    <glyph glyph-name="f_f_l" unicode="ffl" horiz-adv-x="1189" 
d="M1146 145l-30 -140q-22 -20 -82 -20q-64 0 -104.5 37t-40.5 108q0 29 7 60l93 440q-31 0 -75 10t-71 10q-73 0 -90 -75l-10 -45h160l-33 -155h-160l-80 -375h-175l80 375h-225l-80 -375h-175l80 375h-85l33 155h85l9 40q47 210 242 210q40 0 77.5 -14t55.5 -28l18 -13
l-76 -120q-15 25 -55 25q-72 0 -90 -75l-6 -25h225l13 60q45 210 242 210q58 0 116 -10t82 -10h175l-125 -590q-4 -20 -4 -26q0 -29 32 -29q9 0 17 2.5t12 4.5l3 3h15z" />
    <glyph glyph-name="f_f_b" unicode="ffb" horiz-adv-x="1525" 
d="M1196 780l-63 -290h5q6 6 17 15t47.5 24.5t76.5 15.5q100 0 161 -65t61 -172q0 -142 -99 -232.5t-258 -90.5q-71 0 -142 10.5t-106 20.5l-35 10l128 604q-31 0 -75 10t-71 10q-73 0 -90 -75l-10 -45h160l-33 -155h-160l-80 -375h-175l80 375h-225l-80 -375h-175l80 375
h-85l33 155h85l9 40q47 210 242 210q40 0 77.5 -14t55.5 -28l18 -13l-76 -120q-15 25 -55 25q-72 0 -90 -75l-6 -25h225l13 60q45 210 242 210q58 0 116 -10t82 -10h175zM1102 338l-40 -188q37 -15 92 -15q72 0 120 45.5t48 117.5q0 46 -27.5 71.5t-75.5 25.5
q-31 0 -60.5 -14.5t-42.5 -28.5z" />
    <glyph glyph-name="f_f_f" unicode="fff" horiz-adv-x="1266" 
d="M968 530l9 40q47 210 242 210q40 0 77.5 -14t55.5 -28l18 -13l-76 -120q-15 25 -55 25q-72 0 -90 -75l-6 -25h160l-33 -155h-160l-80 -375h-175l80 375h-225l-80 -375h-175l80 375h-225l-80 -375h-175l80 375h-85l33 155h85l9 40q47 210 242 210q40 0 77.5 -14t55.5 -28
l18 -13l-76 -120q-15 25 -55 25q-72 0 -90 -75l-6 -25h225l13 60q45 210 242 210q40 0 77.5 -14t55.5 -28l18 -13l-76 -120q-15 25 -55 25q-73 0 -90 -75l-10 -45h225z" />
    <glyph glyph-name="f_f_h" unicode="ffh" horiz-adv-x="1510" 
d="M1400 0h-175l65 307q3 13 3 25q0 30 -18.5 46.5t-50.5 16.5q-46 0 -85 -32t-50 -84l-59 -279h-175l133 630q-30 0 -74 10t-71 10q-73 0 -90 -75l-10 -45h160l-33 -155h-160l-80 -375h-175l80 375h-225l-80 -375h-175l80 375h-85l33 155h85l9 40q47 210 242 210
q40 0 77.5 -14t55.5 -28l18 -13l-76 -120q-15 25 -55 25q-72 0 -90 -75l-6 -25h225l13 60q45 210 242 210q58 0 116 -10t82 -10h175l-64 -300h5q6 7 18 18t51.5 29t82.5 18q82 0 134.5 -44t52.5 -121q0 -23 -6 -50z" />
    <glyph glyph-name="f_f_j" unicode="ffj" horiz-adv-x="1145" 
d="M1146 545l-116 -545q-25 -115 -88.5 -173t-191.5 -62l-3 150q91 7 108 85l80 375h-225l-80 -375h-175l80 375h-225l-80 -375h-175l80 375h-85l33 155h85l9 40q47 210 242 210q40 0 77.5 -14t55.5 -28l18 -13l-76 -120q-15 25 -55 25q-72 0 -90 -75l-6 -25h225l13 60
q45 210 242 210q40 0 77.5 -14t55.5 -28l18 -13l-76 -120q-15 25 -55 25q-73 0 -90 -75l-10 -45h312q21 0 44 4t35 8zM1188 702q0 -47 -35 -77t-85 -30q-37 0 -58.5 19.5t-21.5 53.5q0 47 35 77t85 30q37 0 58.5 -19.5t21.5 -53.5z" />
    <glyph glyph-name="f_f_k" unicode="ffk" horiz-adv-x="1465" 
d="M1056 120l-26 -120h-175l134 630q-31 0 -75 10t-71 10q-73 0 -90 -75l-10 -45h160l-33 -155h-160l-80 -375h-175l80 375h-225l-80 -375h-175l80 375h-85l33 155h85l9 40q47 210 242 210q40 0 77.5 -14t55.5 -28l18 -13l-76 -120q-15 25 -55 25q-72 0 -90 -75l-6 -25h225
l13 60q45 210 242 210q58 0 116 -10t82 -10h175l-93 -436l205 186h210l-248 -225l155 -305h-182l-100 202z" />
    <glyph glyph-name="f_h" unicode="fh" horiz-adv-x="1110" 
d="M796 780l-64 -300h5q6 7 18 18t51.5 29t82.5 18q82 0 134.5 -44t52.5 -121q0 -23 -6 -50l-70 -330h-175l65 307q3 13 3 25q0 30 -18.5 46.5t-50.5 16.5q-46 0 -85 -32t-50 -84l-59 -279h-175l133 630q-30 0 -74 10t-71 10q-73 0 -90 -75l-10 -45h160l-33 -155h-160
l-80 -375h-175l80 375h-85l33 155h85l13 60q45 210 242 210q58 0 116 -10t82 -10h175z" />
    <glyph glyph-name="f_j" unicode="fj" horiz-adv-x="745" 
d="M746 545l-116 -545q-25 -115 -88.5 -173t-191.5 -62l-3 150q91 7 108 85l80 375h-225l-80 -375h-175l80 375h-85l33 155h85l13 60q45 210 242 210q40 0 77.5 -14t55.5 -28l18 -13l-76 -120q-15 25 -55 25q-73 0 -90 -75l-10 -45h312q21 0 44 4t35 8zM788 702
q0 -47 -35 -77t-85 -30q-37 0 -58.5 19.5t-21.5 53.5q0 47 35 77t85 30q37 0 58.5 -19.5t21.5 -53.5z" />
    <glyph glyph-name="f_k" unicode="fk" horiz-adv-x="1065" 
d="M796 780l-93 -436l205 186h210l-248 -225l155 -305h-182l-100 202l-87 -82l-26 -120h-175l134 630q-31 0 -75 10t-71 10q-73 0 -90 -75l-10 -45h160l-33 -155h-160l-80 -375h-175l80 375h-85l33 155h85l13 60q45 210 242 210q58 0 116 -10t82 -10h175z" />
    <glyph glyph-name="f_t" unicode="ft" horiz-adv-x="900" 
d="M495 190l40 185h-225l-80 -375h-175l80 375h-85l33 155h85l13 60q45 210 242 210q40 0 77.5 -14t55.5 -28l18 -13l-76 -120q-15 25 -55 25q-73 0 -90 -75l-10 -45h260l163 130h5l-28 -130h160l-33 -155h-160l-35 -162q-3 -13 -3 -25q0 -53 62 -53q22 0 44 8.5t32 17.5
l11 9h15l-29 -140q-6 -5 -17 -12.5t-47 -20t-74 -12.5q-80 0 -130 40.5t-50 114.5q0 23 6 50z" />
    <glyph glyph-name="f_b" unicode="fb" horiz-adv-x="1125" 
d="M796 780l-64 -290h5q6 6 17 15t48 24.5t77 15.5q100 0 161 -65t61 -172q0 -142 -99 -232.5t-258 -90.5q-71 0 -142 10.5t-106 20.5l-35 10l128 604q-31 0 -75 10t-71 10q-73 0 -90 -75l-10 -45h160l-33 -155h-160l-80 -375h-175l80 375h-85l33 155h85l13 60
q45 210 242 210q58 0 116 -10t82 -10h175zM702 338l-40 -188q37 -15 92 -15q72 0 120 45.5t48 117.5q0 46 -27.5 71.5t-75.5 25.5q-31 0 -60.5 -14.5t-42.5 -28.5z" />
    <glyph glyph-name=".notdef" horiz-adv-x="650" 
d="M150 730h400v-730h-400v730zM465 55l-115 245l-115 -245h230zM350 430l115 245h-230zM380 365l115 -245v490zM320 365l-115 245v-490z" />
    <glyph glyph-name=".null" horiz-adv-x="0" 
 />
    <glyph glyph-name=".null" horiz-adv-x="0" 
 />
    <glyph glyph-name="nonmarkingreturn" horiz-adv-x="333" 
 />
    <glyph glyph-name="CR" unicode="&#xd;" horiz-adv-x="0" 
 />
    <glyph glyph-name="space" unicode=" " horiz-adv-x="275" 
 />
    <glyph glyph-name="exclam" unicode="!" horiz-adv-x="320" 
d="M335 635l-106 -380h-130l56 380l35 165h180zM30 65q0 51 34.5 83t83.5 32q36 0 57 -20t21 -55q0 -51 -34.5 -83t-83.5 -32q-36 0 -57 20t-21 55z" />
    <glyph glyph-name="quotedbl" unicode="&#x22;" horiz-adv-x="475" 
d="M126 500l25 190l24 110h150l-24 -110l-55 -190h-120zM341 500l25 190l24 110h150l-24 -110l-55 -190h-120z" />
    <glyph glyph-name="numbersign" unicode="#" horiz-adv-x="740" 
d="M605 730h150l-69 -160h95l-27 -130h-120l-62 -150h110l-28 -130h-135l-64 -160h-150l64 160h-110l-64 -160h-150l64 160h-95l28 130h120l62 150h-110l27 130h135l69 160h150l-69 -160h110zM374 440l-62 -150h110l62 150h-110z" />
    <glyph glyph-name="dollar" unicode="$" horiz-adv-x="605" 
d="M505 825l-20 -95q37 -10 71 -26.5t50 -27.5l15 -11l-91 -145q-1 3 -4.5 7t-15 15.5t-26.5 20t-40.5 15.5t-54.5 7q-37 0 -62 -15.5t-25 -45.5q0 -17 19.5 -33.5t48.5 -30.5t63.5 -35.5t63.5 -46t48.5 -65t19.5 -90.5q0 -88 -57 -151.5t-165 -80.5l-18 -86h-175l19 92
q-46 12 -86.5 34t-57.5 38l-17 16l90 140q2 -3 6.5 -8.5t19.5 -19.5t32 -24.5t45.5 -19t59.5 -8.5q58 0 86.5 20t28.5 53q0 20 -19.5 38.5t-48.5 33t-63 36.5t-63 47t-48.5 66t-19.5 92q0 79 60 137.5t153 72.5l18 84h160z" />
    <glyph glyph-name="percent" unicode="%" horiz-adv-x="970" 
d="M223 547q0 -24 15 -38t38 -14q31 0 55.5 22t24.5 56q0 24 -14.5 38t-38.5 14q-31 0 -55.5 -22t-24.5 -56zM275 0h-155l631 730h155zM484 573q0 -82 -63.5 -140t-144.5 -58q-84 0 -132.5 48.5t-48.5 123.5q0 82 63.5 140t144.5 58q85 0 133 -48.5t48 -123.5zM670 157
q0 -24 15 -38t38 -14q31 0 55.5 22t24.5 56q0 24 -14.5 38t-38.5 14q-31 0 -55.5 -22t-24.5 -56zM931 183q0 -82 -63.5 -140t-144.5 -58q-84 0 -132.5 48.5t-48.5 123.5q0 82 63.5 140t144.5 58q85 0 133 -48.5t48 -123.5z" />
    <glyph glyph-name="ampersand" unicode="&#x26;" horiz-adv-x="760" 
d="M610 153l135 -153h-197l-58 66q-3 -3 -9.5 -8.5t-30.5 -19.5t-51 -24.5t-72.5 -19.5t-94.5 -9q-106 0 -169.5 52t-63.5 131q0 44 20 84t49 65.5t58 44t49 26.5l20 9q-30 36 -30 127q0 96 70 158.5t178 62.5q91 0 143.5 -48t52.5 -121q0 -40 -19 -76.5t-46 -60.5
t-54 -42.5t-46 -26.5l-19 -9l81 -92l251 191l-49 -233zM387 181l-101 115q-4 -1 -10 -3t-22.5 -10.5t-29 -19.5t-22.5 -29.5t-10 -40.5q0 -58 74 -58q29 0 59.5 11.5t46.5 23.5zM458 561q0 21 -12.5 32.5t-32.5 11.5q-36 0 -58.5 -21t-22.5 -60q0 -18 5.5 -33.5t10.5 -22.5
l6 -6q4 1 11 3.5t25 12t32 20t25 27.5t11 36z" />
    <glyph glyph-name="quotesingle" unicode="'" horiz-adv-x="260" 
d="M126 500l25 190l24 110h150l-24 -110l-55 -190h-120z" />
    <glyph glyph-name="parenleft" unicode="(" horiz-adv-x="385" 
d="M206 129q0 -92 15.5 -179.5t30.5 -128.5l16 -41h-130q-4 6 -10 16.5t-21 46t-27 74t-21.5 96.5t-9.5 116q0 111 30.5 221t74 187.5t87 139.5t73.5 93l31 30h140q-11 -11 -30 -32t-67 -89.5t-85 -142t-67 -185t-30 -222.5z" />
    <glyph glyph-name="parenright" unicode=")" horiz-adv-x="385" 
d="M202 451q0 92 -15.5 179.5t-30.5 128.5l-16 41h130q4 -6 10 -16.5t21 -46t27 -74t21.5 -96.5t9.5 -116q0 -111 -30.5 -221t-74 -187.5t-87 -139.5t-73.5 -93l-31 -30h-140q11 11 30 32t67 89.5t85 142t67 185t30 222.5z" />
    <glyph glyph-name="asterisk" unicode="*" horiz-adv-x="460" 
d="M290 485l-98 -100l-73 72l95 83l-109 50l53 85l106 -45l25 120h100l-24 -113l120 44l19 -97l-127 -48l67 -92l-85 -59z" />
    <glyph glyph-name="plus" unicode="+" horiz-adv-x="560" 
d="M43 250l32 150h165l34 160h150l-34 -160h165l-32 -150h-165l-34 -160h-150l34 160h-165z" />
    <glyph glyph-name="comma" unicode="," horiz-adv-x="250" 
d="M-5 65q0 51 34.5 83t83.5 32q36 0 57 -20t21 -55q0 -57 -46 -127.5t-108 -107.5h-65q75 75 85 120q-28 3 -45 22.5t-17 52.5z" />
    <glyph glyph-name="hyphen" unicode="-" horiz-adv-x="430" 
d="M43 250l32 150h350l-32 -150h-350z" />
    <glyph glyph-name="period" unicode="." horiz-adv-x="250" 
d="M-5 65q0 51 34.5 83t83.5 32q36 0 57 -20t21 -55q0 -51 -34.5 -83t-83.5 -32q-36 0 -57 20t-21 55z" />
    <glyph glyph-name="slash" unicode="/" horiz-adv-x="545" 
d="M-97 -220l597 1020h165l-597 -1020h-165z" />
    <glyph glyph-name="zero" unicode="0" horiz-adv-x="670" 
d="M456 287q0 44 -26 71t-69 27q-62 0 -98.5 -39t-36.5 -103q0 -44 26 -71t69 -27q62 0 98.5 39t36.5 103zM643 297q0 -132 -92 -222t-235 -90q-123 0 -200 71t-77 177q0 132 92 222t235 90q123 0 200 -71t77 -177z" />
    <glyph glyph-name="one" unicode="1" horiz-adv-x="440" 
d="M43 250l37 175l203 105h145l-113 -530h-180l70 330z" />
    <glyph glyph-name="two" unicode="2" horiz-adv-x="570" 
d="M-22 15l287 220q77 61 77 106q0 21 -14.5 32.5t-40.5 11.5q-44 0 -94.5 -30t-78.5 -60l-28 -30h-20l35 165q4 5 11 12.5t30 27.5t47.5 35t62 27.5t75.5 12.5q95 0 151.5 -49t56.5 -125q0 -41 -23.5 -83t-44.5 -62.5t-42 -35.5l-41 -30h120l-34 -160h-495z" />
    <glyph glyph-name="three" unicode="3" horiz-adv-x="570" 
d="M224 140q-27 0 -50.5 -6t-33.5 -12l-11 -7l-39 75l161 180h-168l34 160h460l-3 -15l-243 -250l-1 -5q4 0 10 -1t24.5 -5.5t35.5 -12.5t37 -24t35 -37t25 -55t10 -75q0 -113 -87 -189t-227 -76q-43 0 -85 9.5t-70.5 22.5t-51 26t-32.5 23l-11 9l83 130q6 -7 17.5 -17
t52 -26.5t87.5 -16.5q67 0 103 32t36 88q0 75 -98 75z" />
    <glyph glyph-name="four" unicode="4" horiz-adv-x="645" 
d="M619 160l-34 -160h-100l-43 -200h-180l43 200h-350l3 15l375 515h200l-269 -370h80l57 125h145l-27 -125h100z" />
    <glyph glyph-name="five" unicode="5" horiz-adv-x="600" 
d="M342 64q0 37 -26.5 59t-73.5 22q-32 0 -60 -11t-40 -22l-11 -12l-87 60l133 370h410l-34 -160h-284l-36 -95q32 10 72 10q101 0 160.5 -61.5t59.5 -159.5q0 -126 -84 -202.5t-233 -76.5q-43 0 -85 9.5t-70.5 22.5t-51 26t-33.5 23l-10 9l78 130l6.5 -6.5t20 -14.5t33 -18
t45.5 -14.5t57 -6.5q66 0 105 32t39 87z" />
    <glyph glyph-name="six" unicode="6" horiz-adv-x="655" 
d="M400 730h215q-23 -15 -60 -40t-117 -95t-120 -130h5q22 15 92 15q95 0 153.5 -63t58.5 -164q0 -112 -91.5 -190t-225.5 -78q-132 0 -199.5 66t-67.5 176q0 79 37 160t89.5 140t104.5 106.5t89 72.5zM355 330q-56 0 -91.5 -32.5t-35.5 -80.5q0 -34 22 -55.5t60 -21.5
q56 0 91.5 32.5t35.5 80.5q0 34 -22 55.5t-60 21.5z" />
    <glyph glyph-name="seven" unicode="7" horiz-adv-x="565" 
d="M217 -200h-195l326 570h-290l34 160h525l-3 -15z" />
    <glyph glyph-name="eight" unicode="8" horiz-adv-x="650" 
d="M304 135q56 0 92 32.5t36 80.5q0 35 -23 56t-64 21q-55 0 -91.5 -32.5t-36.5 -80.5q0 -35 23 -56t64 -21zM372 455q39 0 65.5 24t26.5 59q0 25 -16.5 41t-45.5 16q-39 0 -65.5 -24t-26.5 -59q0 -25 16.5 -41t45.5 -16zM402 745q118 0 183 -55t65 -135q0 -32 -12 -61
t-29 -48t-34 -33.5t-29 -20.5l-12 -7l-1 -5q3 -2 8.5 -6t20 -18.5t25 -31t19.5 -42.5t9 -54q0 -103 -86 -173t-225 -70q-137 0 -208 58t-71 149q0 41 17 77.5t41 58t48 37.5t41 23l17 6l1 5q-6 5 -16 15t-26 43.5t-16 71.5q0 88 77.5 152t192.5 64z" />
    <glyph glyph-name="nine" unicode="9" horiz-adv-x="655" 
d="M267 -200h-215q23 15 60 40t117 95t120 130h-5q-22 -15 -92 -15q-95 0 -153.5 63t-58.5 164q0 112 91.5 190t225.5 78q132 0 199.5 -66t67.5 -176q0 -79 -37 -160t-89 -140t-104.5 -106.5t-89.5 -72.5zM312 200q56 0 91.5 32.5t35.5 80.5q0 34 -22 55.5t-60 21.5
q-56 0 -91.5 -32.5t-35.5 -80.5q0 -34 22 -55.5t60 -21.5z" />
    <glyph glyph-name="colon" unicode=":" horiz-adv-x="270" 
d="M5 65q0 51 34.5 83t83.5 32q36 0 57 -20t21 -55q0 -51 -34.5 -83t-83.5 -32q-36 0 -57 20t-21 55zM81 425q0 51 34.5 83t83.5 32q36 0 57 -20t21 -55q0 -51 -34.5 -83t-83.5 -32q-36 0 -57 20t-21 55z" />
    <glyph glyph-name="semicolon" unicode=";" horiz-adv-x="270" 
d="M5 65q0 51 34.5 83t83.5 32q36 0 57 -20t21 -55q0 -57 -46 -127.5t-108 -107.5h-65q75 75 85 120q-28 3 -45 22.5t-17 52.5zM81 425q0 51 34.5 83t83.5 32q36 0 57 -20t21 -55q0 -51 -34.5 -83t-83.5 -32q-36 0 -57 20t-21 55z" />
    <glyph glyph-name="less" unicode="&#x3c;" horiz-adv-x="560" 
d="M307 247l187 -111l-29 -136l-426 255l4 20l534 255l-33 -161l-235 -112z" />
    <glyph glyph-name="equal" unicode="=" horiz-adv-x="560" 
d="M34 135l30 140h450l-30 -140h-450zM84 370l30 140h450l-30 -140h-450z" />
    <glyph glyph-name="greater" unicode="&#x3e;" horiz-adv-x="560" 
d="M265 283l-187 111l29 136l426 -255l-4 -20l-534 -255l33 161l235 112z" />
    <glyph glyph-name="question" unicode="?" horiz-adv-x="525" 
d="M114 515l37 170q7 7 21 17t61.5 26.5t100.5 16.5q108 0 165 -52t57 -136q0 -45 -23 -83.5t-57 -67t-68.5 -54t-62.5 -56t-35 -61.5h-165q9 44 35.5 82t57.5 64t60.5 49.5t49 49t19.5 52.5q0 53 -68 53q-36 0 -77 -17.5t-64 -35.5l-24 -17h-20zM95 65q0 51 34.5 83
t83.5 32q36 0 57 -20t21 -55q0 -51 -34.5 -83t-83.5 -32q-36 0 -57 20t-21 55z" />
    <glyph glyph-name="at" unicode="@" horiz-adv-x="985" 
d="M983 398q0 -134 -69 -211t-176 -77q-40 0 -72 14t-44 28l-12 13h-10q-6 -6 -16.5 -15t-48.5 -24.5t-81 -15.5q-76 0 -129.5 52t-53.5 134q0 98 65.5 161t153.5 63q40 0 75 -12.5t50 -25.5l15 -12l28 40h106l-47 -220q-3 -16 -3 -27q0 -38 39 -38q43 0 70.5 43t27.5 130
q0 104 -70 168t-197 64q-169 0 -284.5 -108.5t-115.5 -268.5q0 -115 72 -184t194 -69q64 0 119 11t78 23l23 11l-27 -125q-5 -4 -17 -10t-62 -15.5t-114 -9.5q-177 0 -288 103.5t-111 264.5q0 211 149 351.5t384 140.5q191 0 295 -96t104 -251zM479 230q42 0 71.5 28.5
t29.5 75.5q0 31 -18 48.5t-47 17.5q-42 0 -71.5 -28.5t-29.5 -75.5q0 -31 18 -48.5t47 -17.5z" />
    <glyph glyph-name="A" unicode="A" horiz-adv-x="790" 
d="M463 485h-5l-127 -195h177zM541 140h-307l-91 -140h-203l490 730h145l180 -730h-182z" />
    <glyph glyph-name="B" unicode="B" horiz-adv-x="675" 
d="M190 730h218q261 0 261 -183q0 -35 -13.5 -65t-32.5 -47t-38.5 -29t-32.5 -16l-14 -5l-1 -5q4 -1 10.5 -4.5t23 -16t29 -29t23 -46t10.5 -64.5q0 -99 -77 -159.5t-219 -60.5h-302zM279 300l-32 -150h90q53 0 83 23.5t30 66.5q0 60 -81 60h-90zM408 580h-70l-27 -130h70
q43 0 69 21t26 56q0 53 -68 53z" />
    <glyph glyph-name="C" unicode="C" horiz-adv-x="735" 
d="M251 321q0 -79 49.5 -127.5t134.5 -48.5q56 0 110 25t81 50l26 25h20l-37 -170q-3 -4 -8 -10t-26 -21.5t-46 -27.5t-68 -21.5t-92 -9.5q-139 0 -235.5 97.5t-96.5 238.5q0 115 62 213t164.5 154.5t219.5 56.5q53 0 101 -10t78 -23.5t52.5 -27.5t32.5 -24l10 -10l-95 -140
q-2 3 -5 8t-16.5 18t-30 23t-45 18t-62.5 8q-118 0 -198 -76t-80 -188z" />
    <glyph glyph-name="D" unicode="D" horiz-adv-x="785" 
d="M416 730q166 0 263 -92t97 -233q0 -167 -132 -286t-315 -119h-294l155 730h226zM416 570h-80l-87 -410h80q108 0 183.5 71t75.5 174q0 74 -46.5 119.5t-125.5 45.5z" />
    <glyph glyph-name="E" unicode="E" horiz-adv-x="650" 
d="M35 0l155 730h505l-34 -160h-325l-26 -125h250l-34 -160h-250l-27 -125h325l-34 -160h-505z" />
    <glyph glyph-name="F" unicode="F" horiz-adv-x="630" 
d="M521 265h-250l-56 -265h-180l155 730h505l-34 -160h-325l-31 -145h250z" />
    <glyph glyph-name="G" unicode="G" horiz-adv-x="815" 
d="M509 745q56 0 105.5 -10.5t80.5 -25t54.5 -29t32.5 -24.5l10 -11l-96 -145q-2 3 -5 9t-16.5 20.5t-30.5 26t-48 20.5t-67 9q-118 0 -198 -76t-80 -188q0 -79 47 -127.5t127 -48.5q42 0 80 12.5t55 24.5l16 13l17 80h-185l73 155h310l-68 -320q-3 -5 -10 -13.5t-34 -30
t-60 -38t-90.5 -30t-123.5 -13.5q-147 0 -244.5 96.5t-97.5 239.5q0 115 62 213t164.5 154.5t219.5 56.5z" />
    <glyph glyph-name="H" unicode="H" horiz-adv-x="810" 
d="M830 730l-155 -730h-180l61 287h-280l-61 -287h-180l155 730h180l-60 -283h280l60 283h180z" />
    <glyph glyph-name="I" unicode="I" horiz-adv-x="350" 
d="M370 730l-155 -730h-180l155 730h180z" />
    <glyph glyph-name="J" unicode="J" horiz-adv-x="360" 
d="M56 50l145 680h180l-145 -680q-25 -119 -88.5 -176.5t-203.5 -68.5l9 160q47 4 70 22.5t33 62.5z" />
    <glyph glyph-name="K" unicode="K" horiz-adv-x="745" 
d="M513 415l192 -415h-194l-137 294l-122 -119l-37 -175h-180l155 730h180l-62 -293l306 293h227z" />
    <glyph glyph-name="L" unicode="L" horiz-adv-x="575" 
d="M370 730l-121 -570h280l-34 -160h-460l155 730h180z" />
    <glyph glyph-name="M" unicode="M" horiz-adv-x="990" 
d="M510 300l245 430h190l-50 -730h-185l41 430h-5l-241 -430h-115l-51 430h-5l-141 -430h-193l260 730h191l54 -430h5z" />
    <glyph glyph-name="N" unicode="N" horiz-adv-x="830" 
d="M850 730l-155 -730h-175l-210 453l-95 -453h-180l155 730h175l210 -453l95 453h180z" />
    <glyph glyph-name="O" unicode="O" horiz-adv-x="880" 
d="M251 321q0 -78 46.5 -127t122.5 -49q106 0 184.5 76.5t78.5 187.5q0 78 -46.5 127t-122.5 49q-106 0 -184.5 -76.5t-78.5 -187.5zM871 409q0 -115 -62.5 -213.5t-166.5 -154.5t-222 -56q-162 0 -259.5 95.5t-97.5 240.5q0 115 62.5 213.5t166.5 154.5t222 56
q162 0 259.5 -95.5t97.5 -240.5z" />
    <glyph glyph-name="P" unicode="P" horiz-adv-x="675" 
d="M258 200l-43 -200h-180l155 730h206q138 0 211.5 -67t73.5 -177q0 -124 -92.5 -205t-236.5 -81h-94zM336 570l-44 -210h60q62 0 101 35t39 91q0 39 -25.5 61.5t-70.5 22.5h-60z" />
    <glyph glyph-name="Q" unicode="Q" horiz-adv-x="885" 
d="M63 321q0 115 62.5 213.5t166.5 154.5t222 56q162 0 259.5 -95.5t97.5 -240.5q0 -66 -20.5 -126.5t-49.5 -99t-58.5 -68t-50.5 -42.5l-20 -13q2 -6 5.5 -14t20 -22t39.5 -14q13 0 26.5 3.5t20.5 7.5l6 4h20l-31 -145q-29 -20 -96 -20q-40 0 -73 13.5t-51.5 33t-31.5 39.5
t-17 34l-5 13q-37 -8 -85 -8q-162 0 -259.5 95.5t-97.5 240.5zM251 321q0 -28 6.5 -53t12.5 -36l7 -11q2 5 7 14.5t22 32.5t37 40.5t52 32t67 14.5q34 0 62 -12.5t44.5 -30t28 -35t15.5 -29.5l5 -13q3 3 7.5 8t15.5 22t20 35.5t16 48t7 60.5q0 78 -46.5 127t-122.5 49
q-106 0 -184.5 -76.5t-78.5 -187.5zM420 145l52 5l-2.5 7.5t-8 16.5t-14.5 21.5t-21.5 17t-28.5 7.5q-22 0 -41 -12t-26 -24l-8 -11q36 -28 98 -28z" />
    <glyph glyph-name="R" unicode="R" horiz-adv-x="690" 
d="M336 570l-42 -200h60q67 0 103 32.5t36 89.5q0 78 -97 78h-60zM516 255l109 -255h-185l-88 220h-90l-47 -220h-180l155 730h206q137 0 211.5 -66.5t74.5 -171.5q0 -45 -17 -85.5t-41 -66t-48.5 -44.5t-41.5 -28l-17 -8z" />
    <glyph glyph-name="S" unicode="S" horiz-adv-x="605" 
d="M379 745q64 0 124.5 -20t88.5 -40l29 -20l-91 -145q-1 3 -4.5 7t-15 15.5t-26.5 20t-40.5 15.5t-54.5 7q-37 0 -62 -15.5t-25 -45.5q0 -17 19.5 -33.5t48.5 -30.5t63.5 -35.5t63.5 -46t48.5 -65t19.5 -90.5q0 -104 -77.5 -171t-221.5 -67q-46 0 -89.5 10.5t-73 25t-52 29
t-33.5 24.5l-10 11l90 140q2 -3 6.5 -8.5t19.5 -19.5t32 -24.5t45.5 -19t59.5 -8.5q58 0 86.5 20t28.5 53q0 20 -19.5 38.5t-48.5 33t-63 36.5t-63 47t-48.5 66t-19.5 92q0 91 76.5 152.5t188.5 61.5z" />
    <glyph glyph-name="T" unicode="T" horiz-adv-x="670" 
d="M140 730h600l-34 -160h-210l-121 -570h-180l121 570h-210z" />
    <glyph glyph-name="U" unicode="U" horiz-adv-x="790" 
d="M366 -15q-131 0 -209 64.5t-78 174.5q0 31 8 71l92 435h180l-92 -435q-5 -25 -5 -43q0 -51 30 -79t84 -28q64 0 110 39.5t61 110.5l92 435h180l-92 -435q-31 -146 -122.5 -228t-238.5 -82z" />
    <glyph glyph-name="V" unicode="V" horiz-adv-x="785" 
d="M260 0l-155 730h181l95 -475h5l286 475h198l-465 -730h-145z" />
    <glyph glyph-name="W" unicode="W" horiz-adv-x="1105" 
d="M660 730l80 -455h5l245 455h200l-410 -730h-150l-57 331h-5l-213 -331h-150l-100 730h184l58 -455h5l293 455h15z" />
    <glyph glyph-name="X" unicode="X" horiz-adv-x="760" 
d="M830 730l-318 -365l178 -365h-195l-108 231l-192 -231h-225l336 387l-166 343h195l97 -209l173 209h225z" />
    <glyph glyph-name="Y" unicode="Y" horiz-adv-x="725" 
d="M459 300l-64 -300h-180l64 300l-174 430h187l105 -270l210 270h208z" />
    <glyph glyph-name="Z" unicode="Z" horiz-adv-x="710" 
d="M34 135l427 435h-315l34 160h570l-29 -135l-427 -435h345l-34 -160h-600z" />
    <glyph glyph-name="bracketleft" unicode="[" horiz-adv-x="430" 
d="M-11 -215l216 1015h310l-31 -145h-155l-154 -725h155l-31 -145h-310z" />
    <glyph glyph-name="backslash" unicode="\" horiz-adv-x="545" 
d="M265 800l183 -1020h-145l-183 1020h145z" />
    <glyph glyph-name="bracketright" unicode="]" horiz-adv-x="430" 
d="M465 800l-216 -1015h-310l31 145h155l154 725h-155l31 145h310z" />
    <glyph glyph-name="asciicircum" unicode="^" horiz-adv-x="545" 
d="M43 365l323 365h25l167 -365h-137l-69 157h-5l-139 -157h-165z" />
    <glyph glyph-name="underscore" unicode="_" horiz-adv-x="450" 
d="M-114 -205l32 150h490l-32 -150h-490z" />
    <glyph glyph-name="grave" unicode="`" horiz-adv-x="300" 
d="M332 785l14 -195h-95l-104 195h185z" />
    <glyph glyph-name="a" unicode="a" horiz-adv-x="665" 
d="M416 190l40 190h-85q-70 0 -112.5 -42t-42.5 -111q0 -42 26 -67t67 -25q27 0 53.5 13.5t39.5 27.5zM380 0l10 60h-5q-2 -3 -6.5 -8t-19.5 -18t-32 -23t-43.5 -18t-54.5 -8q-81 0 -136.5 61t-55.5 161q0 147 94 235t250 88h282l-113 -530h-170z" />
    <glyph glyph-name="b" unicode="b" horiz-adv-x="685" 
d="M262 338l-40 -188q37 -15 92 -15q72 0 120 45.5t48 117.5q0 46 -27.5 71.5t-75.5 25.5q-31 0 -60.5 -14.5t-42.5 -28.5zM352 760l-60 -280h5q6 7 17.5 18t51 29t83.5 18q94 0 153 -65.5t59 -171.5q0 -142 -99 -232.5t-258 -90.5q-71 0 -142 10.5t-106 20.5l-35 10
l156 734h175z" />
    <glyph glyph-name="c" unicode="c" horiz-adv-x="565" 
d="M222 235q0 -49 29 -74.5t82 -25.5q40 0 78 13.5t56 27.5l18 14h15l-31 -145q-6 -7 -18 -17t-57 -26.5t-101 -16.5q-112 0 -183 71.5t-71 178.5q0 130 96 220t234 90q60 0 113 -17.5t76 -35.5l23 -17l-92 -125q-3 5 -10 12.5t-33 20t-57 12.5q-77 0 -122 -43t-45 -117z
" />
    <glyph glyph-name="d" unicode="d" horiz-adv-x="705" 
d="M475 292q0 47 -28 75t-73 28q-63 0 -109.5 -44.5t-46.5 -112.5q0 -47 28 -75t74 -28q62 0 108.5 44.5t46.5 112.5zM513 465l63 295h175l-161 -760h-170l9 60h-5q-7 -8 -19 -20.5t-52.5 -33.5t-82.5 -21q-104 0 -168 72t-64 181q0 134 90.5 220.5t215.5 86.5q32 0 61 -8
t47 -20t31.5 -24t18.5 -20l6 -8h5z" />
    <glyph glyph-name="e" unicode="e" horiz-adv-x="630" 
d="M362 545q110 0 173.5 -59.5t63.5 -165.5q0 -38 -9 -85h-391q0 -15 3.5 -29t15.5 -33.5t41 -31t73 -11.5q53 0 100 14t67 28l20 13h15l-30 -140q-2 -2 -7 -6.5t-23 -14.5t-40 -18t-60.5 -14.5t-81.5 -6.5q-112 0 -182.5 71.5t-70.5 178.5q0 130 95 220t228 90zM372 410
q-52 0 -90 -23t-57 -57h225q1 4 1 12q0 28 -21.5 48t-57.5 20z" />
    <glyph glyph-name="f" unicode="f" horiz-adv-x="470" 
d="M168 530l13 60q45 210 242 210q40 0 77.5 -14t55.5 -28l18 -13l-76 -120q-15 25 -55 25q-73 0 -90 -75l-10 -45h160l-33 -155h-160l-80 -375h-175l80 375h-85l33 155h85z" />
    <glyph glyph-name="g" unicode="g" horiz-adv-x="685" 
d="M411 75l1 5h-5q-6 -7 -17 -18t-48 -29t-77 -18q-93 0 -158 69t-65 173q0 124 85 206t206 82q49 0 88.5 -17.5t54.5 -35.5l15 -17h5l16 55h170l-101 -475q-29 -139 -112.5 -214.5t-237.5 -75.5q-49 0 -97.5 8.5t-72.5 17.5l-24 9l5 165q8 -6 22.5 -14t61 -22t95.5 -14
q80 0 126.5 37.5t63.5 122.5zM226 257q0 -42 25 -67t64 -25q58 0 100 39t42 99q0 42 -26 67t-68 25q-54 0 -95.5 -39.5t-41.5 -98.5z" />
    <glyph glyph-name="h" unicode="h" horiz-adv-x="670" 
d="M560 0h-175l65 307q3 14 3 25q0 30 -18.5 46.5t-50.5 16.5q-46 0 -85 -32t-50 -84l-59 -279h-175l161 760h175l-59 -280h5q6 7 18 18t51.5 29t82.5 18q82 0 134.5 -44t52.5 -121q0 -23 -6 -50z" />
    <glyph glyph-name="i" unicode="i" horiz-adv-x="305" 
d="M304 535l-114 -535h-175l114 535q37 -15 84 -15q21 0 44 4t35 8zM148 668q0 47 35 77t85 30q37 0 58.5 -19.5t21.5 -53.5q0 -47 -35 -77t-85 -30q-37 0 -58.5 19.5t-21.5 53.5z" />
    <glyph glyph-name="j" unicode="j" horiz-adv-x="305" 
d="M304 535l-114 -535q-25 -115 -88.5 -173t-191.5 -62l-3 150q91 7 108 85l114 535q37 -15 84 -15q21 0 44 4t35 8zM348 702q0 -47 -35 -77t-85 -30q-37 0 -58.5 19.5t-21.5 53.5q0 47 35 77t85 30q37 0 58.5 -19.5t21.5 -53.5z" />
    <glyph glyph-name="k" unicode="k" horiz-adv-x="625" 
d="M216 120l-26 -120h-175l162 760h175l-89 -416l205 186h210l-248 -225l155 -305h-182l-100 201z" />
    <glyph glyph-name="l" unicode="l" horiz-adv-x="345" 
d="M306 145l-30 -140q-22 -20 -82 -20q-64 0 -104.5 37t-40.5 108q0 29 7 60l121 570h175l-121 -570q-4 -20 -4 -26q0 -29 32 -29q9 0 17 2.5t12 4.5l3 3h15z" />
    <glyph glyph-name="m" unicode="m" horiz-adv-x="1010" 
d="M900 0h-175l65 305q3 15 3 27q0 31 -17.5 47t-46.5 16q-43 0 -77.5 -30.5t-46.5 -84.5l-60 -280h-175l65 305q3 15 3 27q0 31 -17.5 47t-46.5 16q-43 0 -77.5 -30.5t-46.5 -84.5l-60 -280h-175l113 530h170l-10 -60h5q2 3 6.5 8t19.5 18t32 23t43.5 18t54.5 8
q32 0 59.5 -9t44 -21t28.5 -24.5t17 -21.5l4 -9h5q3 3 8 9t23 20.5t38 26t52 20.5t66 9q80 0 131 -44t51 -120q0 -24 -6 -51z" />
    <glyph glyph-name="n" unicode="n" horiz-adv-x="670" 
d="M560 0h-175l65 307q3 14 3 25q0 30 -18.5 46.5t-50.5 16.5q-46 0 -85 -32t-50 -84l-59 -279h-175l113 530h170l-10 -60h5q2 3 7 8t20.5 18t32.5 23t43 18t53 8q82 0 134.5 -44t52.5 -121q0 -23 -6 -50z" />
    <glyph glyph-name="o" unicode="o" horiz-adv-x="680" 
d="M373 545q132 0 206 -71t74 -182q0 -129 -98.5 -218t-235.5 -89q-132 0 -206 71t-74 182q0 129 98.5 218t235.5 89zM373 395q-59 0 -105 -44.5t-46 -112.5q0 -47 27 -75t70 -28q59 0 105 44.5t46 112.5q0 47 -27 75t-70 28z" />
    <glyph glyph-name="p" unicode="p" horiz-adv-x="705" 
d="M242 238q0 -47 28 -75t73 -28q63 0 109.5 44.5t46.5 112.5q0 47 -28 75t-74 28q-62 0 -108.5 -44.5t-46.5 -112.5zM201 55l-58 -275h-175l159 750h170l-9 -60h5q7 8 19 20.5t52.5 33.5t82.5 21q104 0 168 -72t64 -181q0 -134 -90.5 -220.5t-215.5 -86.5q-34 0 -63.5 7
t-47.5 17.5t-31.5 21t-18.5 17.5l-6 7h-5z" />
    <glyph glyph-name="q" unicode="q" horiz-adv-x="685" 
d="M436 190l40 190h-95q-77 0 -121 -41.5t-44 -111.5q0 -43 27.5 -67.5t75.5 -24.5q31 0 60.5 13.5t42.5 27.5zM349 -220l52 260h-5q-5 -6 -15.5 -15t-46 -24.5t-75.5 -15.5q-101 0 -161.5 66t-60.5 176q0 134 96 218.5t258 84.5h292l-159 -750h-175z" />
    <glyph glyph-name="r" unicode="r" horiz-adv-x="490" 
d="M393 390q-36 0 -70 -20t-51 -40l-16 -20l-66 -310h-175l113 530h170l-11 -62h5q2 3 6 8.5t18 18.5t30 23t41 18.5t52 8.5q33 0 60 -10t37 -20l11 -10l-65 -145q-24 30 -89 30z" />
    <glyph glyph-name="s" unicode="s" horiz-adv-x="510" 
d="M467 158q0 -71 -67.5 -122t-176.5 -51q-62 0 -120 17.5t-85 35.5l-26 17l58 130q5 -6 15 -15t49.5 -24.5t88.5 -15.5q83 0 83 38q0 14 -22.5 24t-55 21t-64.5 28t-54.5 52t-22.5 85q0 67 64.5 117t168.5 50q38 0 74 -7.5t60.5 -19t43.5 -22.5t28 -18l9 -8l-84 -115
q-3 5 -10.5 12.5t-36 20t-64.5 12.5q-35 0 -53.5 -10.5t-18.5 -26.5q0 -14 22.5 -24t55 -21t64.5 -27t54.5 -50.5t22.5 -82.5z" />
    <glyph glyph-name="t" unicode="t" horiz-adv-x="490" 
d="M85 190l40 185h-85l9 40l307 245h5l-28 -130h160l-33 -155h-160l-35 -162q-3 -14 -3 -25q0 -53 62 -53q22 0 44 8.5t32 17.5l11 9h15l-29 -140q-6 -5 -17 -12.5t-47 -20t-74 -12.5q-80 0 -130 40.5t-50 114.5q0 23 6 50z" />
    <glyph glyph-name="u" unicode="u" horiz-adv-x="675" 
d="M58 200l70 330h175l-65 -307q-3 -14 -3 -25q0 -30 18.5 -46.5t50.5 -16.5q46 0 85 32t50 84l59 279h175l-113 -530h-170l10 60h-5q-2 -3 -7 -8t-20.5 -18t-32.5 -23t-43 -18t-53 -8q-82 0 -134.5 44t-52.5 121q0 23 6 50z" />
    <glyph glyph-name="v" unicode="v" horiz-adv-x="625" 
d="M241 530l54 -297h5l181 297h192l-348 -530h-145l-122 530h183z" />
    <glyph glyph-name="w" unicode="w" horiz-adv-x="885" 
d="M495 530h15l64 -300h5l161 300h193l-308 -530h-145l-47 217h-5l-148 -217h-140l-82 530h182l33 -300h5z" />
    <glyph glyph-name="x" unicode="x" horiz-adv-x="620" 
d="M683 530l-267 -268l164 -262h-190l-90 155l-145 -155h-215l279 277l-156 253h185l86 -148l139 148h210z" />
    <glyph glyph-name="y" unicode="y" horiz-adv-x="625" 
d="M176 5l-118 525h177l70 -334h5l174 334h189l-304 -525q-84 -145 -145 -192.5t-154 -47.5l-54 5l3 155q18 -10 53 -10q30 0 52 19t52 71z" />
    <glyph glyph-name="z" unicode="z" horiz-adv-x="600" 
d="M85 375l33 155h490l-26 -120l-289 -255h245l-33 -155h-515l26 120l289 255h-220z" />
    <glyph glyph-name="braceleft" unicode="{" horiz-adv-x="435" 
d="M47 225l29 135q81 0 100 90l35 165q20 98 70.5 141.5t159.5 43.5h79l-29 -135h-30q-42 0 -64.5 -18t-32.5 -62l-38 -180q-6 -29 -19 -51.5t-27 -33.5t-27 -18t-21 -8l-9 -2l-1 -5q2 -1 6 -2t14.5 -7t18 -14t14 -23t6.5 -33q0 -13 -3 -28l-38 -180q-4 -16 -4 -30
q0 -27 16 -38.5t51 -11.5h30l-29 -135h-21q-102 0 -158.5 36t-56.5 106q0 18 5 43l36 165q4 24 4 32q0 58 -66 58z" />
    <glyph glyph-name="bar" unicode="|" horiz-adv-x="355" 
d="M375 800l-217 -1020h-155l217 1020h155z" />
    <glyph glyph-name="braceright" unicode="}" horiz-adv-x="435" 
d="M412 360l-29 -135q-81 0 -100 -90l-35 -165q-20 -98 -70.5 -141.5t-159.5 -43.5h-78l27 135h31q42 0 64.5 18t32.5 62l38 180q6 29 19 51.5t27 33.5t27 18t22 9l8 1l1 5q-2 1 -6 2t-14.5 7t-18 14t-14 23t-6.5 33q0 13 3 28l38 180q4 16 4 30q0 27 -16 38.5t-51 11.5h-30
l29 135h21q102 0 158.5 -36t56.5 -106q0 -18 -5 -43l-36 -165q-4 -24 -4 -32q0 -58 66 -58z" />
    <glyph glyph-name="asciitilde" unicode="~" horiz-adv-x="560" 
d="M182 285q-38 0 -74 -15t-53 -30l-17 -15l31 145q6 7 17.5 17t48.5 26.5t77 16.5q52 0 110 -30t96 -30t74 15t53 30l17 15l-31 -145q-6 -7 -17.5 -17t-48.5 -26.5t-77 -16.5q-52 0 -110 30t-96 30z" />
    <glyph glyph-name="nbspace" unicode="&#xa0;" horiz-adv-x="275" 
 />
    <glyph glyph-name="exclamdown" unicode="&#xa1;" horiz-adv-x="320" 
d="M233 275l-48 -345l-32 -150h-180l32 150l98 345h130zM302 465q0 -51 -34.5 -83t-83.5 -32q-36 0 -57 20t-21 55q0 51 34.5 83t83.5 32q36 0 57 -20t21 -55z" />
    <glyph glyph-name="cent" unicode="&#xa2;" horiz-adv-x="565" 
d="M222 235q0 -49 29 -74.5t82 -25.5q40 0 78 13.5t56 27.5l18 14h15l-31 -145q-34 -39 -111 -54l-20 -91h-160l22 100q-74 26 -117.5 89.5t-43.5 145.5q0 116 78 202t197 104l19 89h160l-21 -100q31 -9 58.5 -22.5t39.5 -23.5l11 -9l-92 -125q-3 5 -10 12.5t-33 20
t-57 12.5q-77 0 -122 -43t-45 -117z" />
    <glyph glyph-name="sterling" unicode="&#xa3;" horiz-adv-x="570" 
d="M84 300l17 80h50q-23 63 -23 131q0 103 73.5 168.5t197.5 65.5q58 0 108 -16.5t71 -32.5l22 -16l-84 -135q-2 4 -8 11t-31 18t-58 11q-109 0 -109 -99q0 -28 14.5 -62t16.5 -44h135l-17 -80h-120q-6 -29 -18.5 -54t-25 -39t-24 -24.5t-19.5 -14.5l-7 -3q27 10 57 10
t72 -15t72 -15q22 0 45 7.5t35 15.5l11 7h20l-33 -155q-42 -35 -117 -35q-49 0 -112 27.5t-116 27.5q-31 0 -69.5 -10t-61.5 -20l-23 -10l24 115q5 2 13.5 6t31 19t39 32t30.5 44.5t14 57.5l-3 26h-90z" />
    <glyph glyph-name="currency" unicode="&#xa4;" horiz-adv-x="690" 
d="M49 280l25 115h75l71 335h204q139 0 211 -59.5t72 -156.5q0 -96 -88.5 -165t-234.5 -69h-80l-11 -50h245l-24 -115h-245l-24 -115h-180l24 115h-75l24 115h75l11 50h-75zM369 585l-40 -190h55q128 0 128 119q0 71 -88 71h-55z" />
    <glyph glyph-name="yen" unicode="&#xa5;" horiz-adv-x="735" 
d="M90 280h190l4 20l-12 30h-171l17 80h122l-130 320h187l105 -270l210 270h208l-265 -320h123l-17 -80h-172l-25 -30l-4 -20h190l-17 -80h-190l-43 -200h-180l43 200h-190z" />
    <glyph glyph-name="brokenbar" unicode="&#xa6;" horiz-adv-x="355" 
d="M132 385l88 415h155l-88 -415h-155zM3 -220l88 415h155l-88 -415h-155z" />
    <glyph glyph-name="section" unicode="&#xa7;" horiz-adv-x="585" 
d="M238 363q0 -27 34 -54.5t68 -40.5l33 -14q22 9 22 33q0 27 -33.5 54.5t-67.5 40.5l-34 14q-22 -9 -22 -33zM77 328q0 26 10.5 51t25.5 41.5t30 29.5t25 19l11 6q-28 26 -28 84q0 82 65.5 134t177.5 52q58 0 110 -17.5t76 -35.5l23 -17l-75 -120q-3 6 -10.5 14t-38 22
t-70.5 14q-75 0 -75 -46q0 -18 23 -32.5t55.5 -28.5t65 -33t55.5 -56t23 -87q0 -26 -10.5 -51t-25.5 -41.5t-30 -29.5t-26 -19l-10 -6q28 -26 28 -84q0 -82 -65.5 -134t-176.5 -52q-64 0 -118 17.5t-76 35.5l-21 17l57 130q5 -7 16 -17t48 -26.5t79 -16.5q74 0 74 46
q0 18 -23 32.5t-55.5 28.5t-65 33t-55.5 56t-23 87z" />
    <glyph glyph-name="dieresis" unicode="&#xa8;" horiz-adv-x="450" 
d="M123 668q0 43 31 72.5t76 29.5q32 0 50 -18.5t18 -49.5q0 -43 -31 -72.5t-76 -29.5q-32 0 -50 18.5t-18 49.5zM343 668q0 43 31 72.5t76 29.5q32 0 50 -18.5t18 -49.5q0 -43 -31 -72.5t-76 -29.5q-32 0 -50 18.5t-18 49.5z" />
    <glyph glyph-name="copyright" unicode="&#xa9;" horiz-adv-x="900" 
d="M410 315q0 -41 25 -63t70 -22q27 0 50.5 9t34.5 17l10 9h15v-105q-4 -4 -13 -11t-41.5 -18t-70.5 -11q-89 0 -147 56t-58 139t58 139t147 56q40 0 74 -11t48 -23l13 -11l-35 -95q-25 30 -85 30q-45 0 -70 -22t-25 -63zM205 315q0 -117 75 -191t195 -74t195 74t75 191
t-75 191t-195 74t-195 -74t-75 -191zM850 315q0 -155 -104 -255t-271 -100t-271 100t-104 255t104 255t271 100t271 -100t104 -255z" />
    <glyph glyph-name="ordfeminine" unicode="&#xaa;" horiz-adv-x="465" 
d="M369 559l13 61h-68q-36 0 -63.5 -28.5t-27.5 -66.5q0 -31 15 -48t40 -17q32 0 56.5 27t34.5 72zM410 730h120l-78 -370h-121l9 49h-5q-4 -7 -13 -16.5t-39 -26t-64 -16.5q-53 0 -91 41.5t-38 105.5q0 103 65.5 168t163.5 65h91z" />
    <glyph glyph-name="guillemotleft" unicode="&#xab;" horiz-adv-x="625" 
d="M188 257l117 -207h-145l-124 215l4 20l191 215h170l-211 -233zM438 257l117 -207h-145l-124 215l4 20l191 215h170l-211 -233z" />
    <glyph glyph-name="logicalnot" unicode="&#xac;" horiz-adv-x="560" 
d="M78 275l29 135h410l-48 -225h-120l19 90h-290z" />
    <glyph glyph-name="uni00AD" unicode="&#xad;" horiz-adv-x="430" 
d="M43 250l32 150h350l-32 -150h-350z" />
    <glyph glyph-name="registered" unicode="&#xae;" horiz-adv-x="710" 
d="M305 670h105q120 0 120 -100q0 -29 -12 -49t-24 -25l-11 -6l67 -100h-90l-50 80h-25v-80h-80v280zM385 535h25q40 0 40 35t-40 35h-25v-70zM200 530q0 -91 59 -148t156 -57t156 57t59 148t-59 148t-156 57t-156 -57t-59 -148zM710 530q0 -121 -82.5 -200.5t-212.5 -79.5
t-212.5 79.5t-82.5 200.5t82.5 200.5t212.5 79.5t212.5 -79.5t82.5 -200.5z" />
    <glyph glyph-name="macron" unicode="&#xaf;" horiz-adv-x="475" 
d="M113 625l24 115h415l-24 -115h-415z" />
    <glyph glyph-name="degree" unicode="&#xb0;" horiz-adv-x="430" 
d="M220 560q0 -26 14.5 -40.5t37.5 -14.5q33 0 57.5 23.5t24.5 61.5q0 26 -14.5 40.5t-37.5 14.5q-33 0 -57.5 -23.5t-24.5 -61.5zM466 590q0 -76 -58 -128t-136 -52q-80 0 -122 41.5t-42 108.5q0 76 58 128t136 52q80 0 122 -41.5t42 -108.5z" />
    <glyph glyph-name="plusminus" unicode="&#xb1;" horiz-adv-x="560" 
d="M59 280l32 150h155l34 160h150l-34 -160h155l-32 -150h-155l-27 -130h155l-30 -140h-460l30 140h155l27 130h-155z" />
    <glyph glyph-name="twosuperior" unicode="&#xb2;" horiz-adv-x="335" 
d="M78 485l177 175q32 30 32 58q0 27 -34 27q-20 0 -47.5 -13.5t-45.5 -27.5l-18 -14h-10l19 92q6 6 18 16t49 26t75 16q111 0 111 -102q0 -50 -43 -93l-76 -80h90l-20 -95h-280z" />
    <glyph glyph-name="threesuperior" unicode="&#xb3;" horiz-adv-x="330" 
d="M229 630q-11 0 -23.5 -4t-19.5 -8l-6 -3l-30 45l76 75h-80l20 95h250l-3 -15l-113 -110q3 -1 8.5 -3t20 -10t25 -18.5t19.5 -29t9 -40.5q0 -68 -46.5 -106t-128.5 -38q-36 0 -68.5 11t-46.5 23l-15 11l47 80q33 -35 83 -35q30 0 47 13t17 36q0 31 -42 31z" />
    <glyph glyph-name="acute" unicode="&#xb4;" horiz-adv-x="300" 
d="M105 590l96 195h185l-166 -195h-115z" />
    <glyph glyph-name="mu" unicode="&#xb5;" horiz-adv-x="675" 
d="M127 530h175l-65 -307q-3 -14 -3 -25q0 -31 18.5 -47t50.5 -16q46 0 85 32t50 84l59 279h175l-112 -530h-170l9 60h-5q-2 -3 -7 -8t-20 -18t-32 -23t-43 -18t-53 -8q-24 0 -46.5 9.5t-32.5 18.5l-10 9l2 -202l-184 -40z" />
    <glyph glyph-name="paragraph" unicode="&#xb6;" horiz-adv-x="645" 
d="M99 474q0 107 78.5 181.5t187.5 74.5h355l-32 -150h-95l-170 -800h-80l170 800h-100l-170 -800h-80l111 520q-80 0 -127.5 48.5t-47.5 125.5z" />
    <glyph glyph-name="periodcentered" unicode="&#xb7;" horiz-adv-x="280" 
d="M56 280q0 51 34.5 83t83.5 32q36 0 57 -20t21 -55q0 -51 -34.5 -83t-83.5 -32q-36 0 -57 20t-21 55z" />
    <glyph glyph-name="cedilla" unicode="&#xb8;" horiz-adv-x="300" 
d="M125 0l-23 -40q41 -6 65 -32.5t24 -61.5q0 -54 -40.5 -90t-119.5 -36q-29 0 -54.5 5t-36.5 10l-11 5l15 70q22 -15 52 -15q53 0 53 41q0 17 -16.5 27t-32.5 11l-17 1l62 105h80z" />
    <glyph glyph-name="onesuperior" unicode="&#xb9;" horiz-adv-x="245" 
d="M115 665l23 109l112 56h80l-76 -360h-110l50 235z" />
    <glyph glyph-name="ordmasculine" unicode="&#xba;" horiz-adv-x="470" 
d="M283 460q46 0 76 28t30 76q0 31 -18.5 48.5t-51.5 17.5q-45 0 -75 -28t-30 -76q0 -31 18.5 -48.5t50.5 -17.5zM283 350q-96 0 -146.5 48.5t-50.5 127.5q0 93 67.5 153.5t165.5 60.5q96 0 146.5 -48t50.5 -128q0 -93 -67.5 -153.5t-165.5 -60.5z" />
    <glyph glyph-name="guillemotright" unicode="&#xbb;" horiz-adv-x="625" 
d="M453 293l-117 207h145l124 -215l-4 -20l-191 -215h-170l211 233zM203 293l-117 207h145l124 -215l-4 -20l-191 -215h-170l211 233z" />
    <glyph glyph-name="onequarter" unicode="&#xbc;" horiz-adv-x="715" 
d="M-5 0l620 730h130l-620 -730h-130zM95 565l23 109l112 56h80l-76 -360h-110l50 235zM662 360l-153 -200h45l32 55h65l-12 -55h50l-20 -95h-50l-14 -65h-110l14 65h-180l3 15l210 280h120z" />
    <glyph glyph-name="onehalf" unicode="&#xbd;" horiz-adv-x="750" 
d="M-5 0l620 730h130l-620 -730h-130zM95 565l23 109l112 56h80l-76 -360h-110l50 235zM393 15l177 175q32 30 32 58q0 27 -34 27q-20 0 -48 -13.5t-46 -27.5l-17 -14h-10l19 92q6 6 18 16t49 26t75 16q111 0 111 -102q0 -50 -43 -93l-76 -80h90l-20 -95h-280z" />
    <glyph glyph-name="threequarters" unicode="&#xbe;" horiz-adv-x="770" 
d="M50 0l620 730h130l-620 -730h-130zM208 530q-11 0 -23.5 -4t-18.5 -8l-7 -3l-30 45l76 75h-80l20 95h250l-3 -15l-113 -110q3 -1 8.5 -3t20 -10t25 -18.5t19.5 -29t9 -40.5q0 -68 -46.5 -106t-128.5 -38q-36 0 -68.5 11t-47.5 23l-14 11l47 80q33 -35 83 -35q30 0 47 13
t17 36q0 31 -42 31zM717 360l-153 -200h45l32 55h65l-12 -55h50l-20 -95h-50l-14 -65h-110l14 65h-180l3 15l210 280h120z" />
    <glyph glyph-name="questiondown" unicode="&#xbf;" horiz-adv-x="525" 
d="M414 -5l-37 -170q-7 -7 -21 -17t-61.5 -26.5t-100.5 -16.5q-108 0 -165 52t-57 136q0 45 23.5 85.5t58 72t70 60t64 61t34.5 63.5h165q-9 -44 -36 -84t-58.5 -69t-61.5 -55.5t-50 -54t-20 -54.5q0 -53 68 -53q36 0 77 17.5t64 35.5l24 17h20zM437 465q0 -51 -34.5 -83
t-83.5 -32q-36 0 -57 20t-21 55q0 51 34.5 83t83.5 32q36 0 57 -20t21 -55z" />
    <glyph glyph-name="Agrave" unicode="&#xc0;" horiz-adv-x="790" 
d="M463 485h-5l-127 -195h177zM541 140h-307l-91 -140h-203l490 730h145l180 -730h-182zM534 985l14 -195h-95l-104 195h185z" />
    <glyph glyph-name="Aacute" unicode="&#xc1;" horiz-adv-x="790" 
d="M463 485h-5l-127 -195h177zM541 140h-307l-91 -140h-203l490 730h145l180 -730h-182zM457 790l96 195h185l-166 -195h-115z" />
    <glyph glyph-name="Acircumflex" unicode="&#xc2;" horiz-adv-x="790" 
d="M463 485h-5l-127 -195h177zM541 140h-307l-91 -140h-203l490 730h145l180 -730h-182zM624 790l-86 100l-124 -100h-117l191 195h120l109 -195h-93z" />
    <glyph glyph-name="Atilde" unicode="&#xc3;" horiz-adv-x="790" 
d="M463 485h-5l-127 -195h177zM541 140h-307l-91 -140h-203l490 730h145l180 -730h-182zM430 850q-24 0 -52.5 -11t-45.5 -23l-16 -11l25 120q4 6 13 14t39.5 22t66.5 14q41 0 85 -25t81 -25q24 0 52.5 11.5t45.5 22.5l16 11l-25 -120q-4 -6 -13 -14t-39.5 -22t-66.5 -14
q-41 0 -85 25t-81 25z" />
    <glyph glyph-name="Adieresis" unicode="&#xc4;" horiz-adv-x="790" 
d="M463 485h-5l-127 -195h177zM541 140h-307l-91 -140h-203l490 730h145l180 -730h-182zM330 868q0 43 31 72.5t76 29.5q32 0 50 -18.5t18 -49.5q0 -43 -31 -72.5t-76 -29.5q-32 0 -50 18.5t-18 49.5zM550 868q0 43 31 72.5t76 29.5q32 0 50 -18.5t18 -49.5q0 -43 -31 -72.5
t-76 -29.5q-32 0 -50 18.5t-18 49.5z" />
    <glyph glyph-name="Aring" unicode="&#xc5;" horiz-adv-x="790" 
d="M463 485h-5l-127 -195h177zM541 140h-307l-91 -140h-203l490 730h145l180 -730h-182zM490 891q0 -26 29 -26q19 0 31.5 11t12.5 33q0 26 -29 26q-19 0 -31.5 -11t-12.5 -33zM660 909q0 -58 -43 -96t-98 -38q-60 0 -93 32t-33 84q0 58 43 96t98 38q60 0 93 -32t33 -84z
" />
    <glyph glyph-name="AE" unicode="&#xc6;" horiz-adv-x="985" 
d="M395 0l30 140h-193l-91 -140h-206l490 730h600l-34 -160h-295l-26 -125h220l-34 -160h-220l-27 -125h295l-34 -160h-475zM511 570l-182 -280h128l59 280h-5z" />
    <glyph glyph-name="Ccedilla" unicode="&#xc7;" horiz-adv-x="735" 
d="M251 321q0 -79 49.5 -127.5t134.5 -48.5q56 0 110 25t81 50l26 25h20l-37 -170q-3 -4 -8 -10t-26 -21.5t-46 -27.5t-68 -21.5t-92 -9.5h-20l-14 -25q41 -6 65 -32.5t24 -61.5q0 -54 -40.5 -90t-119.5 -36q-29 0 -54.5 5t-36.5 10l-11 5l15 70q22 -15 52 -15q53 0 53 41
q0 17 -16.5 27t-33.5 11l-16 1l60 103q-105 30 -172 118.5t-67 204.5q0 115 62 213t164.5 154.5t219.5 56.5q53 0 101 -10t78 -23.5t52.5 -27.5t32.5 -24l10 -10l-95 -140q-2 3 -5 8t-16.5 18t-30 23t-45 18t-62.5 8q-118 0 -198 -76t-80 -188z" />
    <glyph glyph-name="Egrave" unicode="&#xc8;" horiz-adv-x="650" 
d="M35 0l155 730h505l-34 -160h-325l-26 -125h250l-34 -160h-250l-27 -125h325l-34 -160h-505zM494 985l14 -195h-95l-104 195h185z" />
    <glyph glyph-name="Eacute" unicode="&#xc9;" horiz-adv-x="650" 
d="M35 0l155 730h505l-34 -160h-325l-26 -125h250l-34 -160h-250l-27 -125h325l-34 -160h-505zM382 790l96 195h185l-166 -195h-115z" />
    <glyph glyph-name="Ecircumflex" unicode="&#xca;" horiz-adv-x="650" 
d="M35 0l155 730h505l-34 -160h-325l-26 -125h250l-34 -160h-250l-27 -125h325l-34 -160h-505zM564 790l-86 100l-124 -100h-117l191 195h120l109 -195h-93z" />
    <glyph glyph-name="Edieresis" unicode="&#xcb;" horiz-adv-x="650" 
d="M35 0l155 730h505l-34 -160h-325l-26 -125h250l-34 -160h-250l-27 -125h325l-34 -160h-505zM265 868q0 43 31 72.5t76 29.5q32 0 50 -18.5t18 -49.5q0 -43 -31 -72.5t-76 -29.5q-32 0 -50 18.5t-18 49.5zM485 868q0 43 31 72.5t76 29.5q32 0 50 -18.5t18 -49.5
q0 -43 -31 -72.5t-76 -29.5q-32 0 -50 18.5t-18 49.5z" />
    <glyph glyph-name="Igrave" unicode="&#xcc;" horiz-adv-x="360" 
d="M375 730l-155 -730h-180l155 730h180zM324 985l14 -195h-95l-104 195h185z" />
    <glyph glyph-name="Iacute" unicode="&#xcd;" horiz-adv-x="360" 
d="M375 730l-155 -730h-180l155 730h180zM237 790l96 195h185l-166 -195h-115z" />
    <glyph glyph-name="Icircumflex" unicode="&#xce;" horiz-adv-x="360" 
d="M375 730l-155 -730h-180l155 730h180zM404 790l-86 100l-124 -100h-117l191 195h120l109 -195h-93z" />
    <glyph glyph-name="Idieresis" unicode="&#xcf;" horiz-adv-x="360" 
d="M375 730l-155 -730h-180l155 730h180zM110 868q0 43 31 72.5t76 29.5q32 0 50 -18.5t18 -49.5q0 -43 -31 -72.5t-76 -29.5q-32 0 -50 18.5t-18 49.5zM330 868q0 43 31 72.5t76 29.5q32 0 50 -18.5t18 -49.5q0 -43 -31 -72.5t-76 -29.5q-32 0 -50 18.5t-18 49.5z" />
    <glyph glyph-name="Eth" unicode="&#xd0;" horiz-adv-x="805" 
d="M436 730q166 0 263 -92t97 -233q0 -167 -132 -286t-315 -119h-294l61 290h-64l32 150h64l62 290h226zM436 570h-80l-28 -130h146l-32 -150h-146l-27 -130h80q108 0 183.5 71t75.5 174q0 74 -46.5 119.5t-125.5 45.5z" />
    <glyph glyph-name="Ntilde" unicode="&#xd1;" horiz-adv-x="830" 
d="M850 730l-155 -730h-175l-210 453l-95 -453h-180l155 730h175l210 -453l95 453h180zM435 850q-24 0 -52.5 -11t-44.5 -23l-17 -11l25 120q4 6 13 14t39.5 22t66.5 14q41 0 85 -25t81 -25q24 0 52.5 11.5t44.5 22.5l17 11l-25 -120q-4 -6 -13 -14t-39.5 -22t-66.5 -14
q-41 0 -85 25t-81 25z" />
    <glyph glyph-name="Ograve" unicode="&#xd2;" horiz-adv-x="880" 
d="M251 321q0 -78 46.5 -127t122.5 -49q106 0 184.5 76.5t78.5 187.5q0 78 -46.5 127t-122.5 49q-106 0 -184.5 -76.5t-78.5 -187.5zM871 409q0 -115 -62.5 -213.5t-166.5 -154.5t-222 -56q-162 0 -259.5 95.5t-97.5 240.5q0 115 62.5 213.5t166.5 154.5t222 56
q162 0 259.5 -95.5t97.5 -240.5zM574 985l14 -195h-95l-104 195h185z" />
    <glyph glyph-name="Oacute" unicode="&#xd3;" horiz-adv-x="880" 
d="M251 321q0 -78 46.5 -127t122.5 -49q106 0 184.5 76.5t78.5 187.5q0 78 -46.5 127t-122.5 49q-106 0 -184.5 -76.5t-78.5 -187.5zM871 409q0 -115 -62.5 -213.5t-166.5 -154.5t-222 -56q-162 0 -259.5 95.5t-97.5 240.5q0 115 62.5 213.5t166.5 154.5t222 56
q162 0 259.5 -95.5t97.5 -240.5zM472 790l96 195h185l-166 -195h-115z" />
    <glyph glyph-name="Ocircumflex" unicode="&#xd4;" horiz-adv-x="880" 
d="M251 321q0 -78 46.5 -127t122.5 -49q106 0 184.5 76.5t78.5 187.5q0 78 -46.5 127t-122.5 49q-106 0 -184.5 -76.5t-78.5 -187.5zM871 409q0 -115 -62.5 -213.5t-166.5 -154.5t-222 -56q-162 0 -259.5 95.5t-97.5 240.5q0 115 62.5 213.5t166.5 154.5t222 56
q162 0 259.5 -95.5t97.5 -240.5zM644 790l-86 100l-124 -100h-117l191 195h120l109 -195h-93z" />
    <glyph glyph-name="Otilde" unicode="&#xd5;" horiz-adv-x="880" 
d="M251 321q0 -78 46.5 -127t122.5 -49q106 0 184.5 76.5t78.5 187.5q0 78 -46.5 127t-122.5 49q-106 0 -184.5 -76.5t-78.5 -187.5zM871 409q0 -115 -62.5 -213.5t-166.5 -154.5t-222 -56q-162 0 -259.5 95.5t-97.5 240.5q0 115 62.5 213.5t166.5 154.5t222 56
q162 0 259.5 -95.5t97.5 -240.5zM450 850q-24 0 -52.5 -11t-45.5 -23l-16 -11l25 120q4 6 13 14t39.5 22t66.5 14q41 0 85 -25t81 -25q24 0 52.5 11.5t45.5 22.5l16 11l-25 -120q-4 -6 -13 -14t-39.5 -22t-66.5 -14q-41 0 -85 25t-81 25z" />
    <glyph glyph-name="Odieresis" unicode="&#xd6;" horiz-adv-x="880" 
d="M251 321q0 -78 46.5 -127t122.5 -49q106 0 184.5 76.5t78.5 187.5q0 78 -46.5 127t-122.5 49q-106 0 -184.5 -76.5t-78.5 -187.5zM871 409q0 -115 -62.5 -213.5t-166.5 -154.5t-222 -56q-162 0 -259.5 95.5t-97.5 240.5q0 115 62.5 213.5t166.5 154.5t222 56
q162 0 259.5 -95.5t97.5 -240.5zM350 868q0 43 31 72.5t76 29.5q32 0 50 -18.5t18 -49.5q0 -43 -31 -72.5t-76 -29.5q-32 0 -50 18.5t-18 49.5zM570 868q0 43 31 72.5t76 29.5q32 0 50 -18.5t18 -49.5q0 -43 -31 -72.5t-76 -29.5q-32 0 -50 18.5t-18 49.5z" />
    <glyph glyph-name="multiply" unicode="&#xd7;" horiz-adv-x="560" 
d="M556 445l-155 -127l102 -128l-117 -95l-101 127l-154 -127l-88 110l154 127l-101 128l117 95l101 -127l154 127z" />
    <glyph glyph-name="Oslash" unicode="&#xd8;" horiz-adv-x="880" 
d="M871 409q0 -115 -62.5 -213.5t-166.5 -154.5t-222 -56q-98 0 -177 38l-36 -38h-195l120 127q-69 87 -69 209q0 115 62.5 213.5t166.5 154.5t222 56q100 0 178 -39l37 39h195l-121 -129q68 -87 68 -207zM251 321q0 -38 11 -71l308 326q-25 9 -56 9q-106 0 -184.5 -76.5
t-78.5 -187.5zM683 409q0 37 -11 68l-307 -324q27 -8 55 -8q106 0 184.5 76.5t78.5 187.5z" />
    <glyph glyph-name="Ugrave" unicode="&#xd9;" horiz-adv-x="790" 
d="M366 -15q-131 0 -209 64.5t-78 174.5q0 31 8 71l92 435h180l-92 -435q-5 -25 -5 -43q0 -51 30 -79t84 -28q64 0 110 39.5t61 110.5l92 435h180l-92 -435q-31 -146 -122.5 -228t-238.5 -82zM544 985l14 -195h-95l-104 195h185z" />
    <glyph glyph-name="Uacute" unicode="&#xda;" horiz-adv-x="790" 
d="M366 -15q-131 0 -209 64.5t-78 174.5q0 31 8 71l92 435h180l-92 -435q-5 -25 -5 -43q0 -51 30 -79t84 -28q64 0 110 39.5t61 110.5l92 435h180l-92 -435q-31 -146 -122.5 -228t-238.5 -82zM437 790l96 195h185l-166 -195h-115z" />
    <glyph glyph-name="Ucircumflex" unicode="&#xdb;" horiz-adv-x="790" 
d="M366 -15q-131 0 -209 64.5t-78 174.5q0 31 8 71l92 435h180l-92 -435q-5 -25 -5 -43q0 -51 30 -79t84 -28q64 0 110 39.5t61 110.5l92 435h180l-92 -435q-31 -146 -122.5 -228t-238.5 -82zM614 790l-86 100l-124 -100h-117l191 195h120l109 -195h-93z" />
    <glyph glyph-name="Udieresis" unicode="&#xdc;" horiz-adv-x="790" 
d="M366 -15q-131 0 -209 64.5t-78 174.5q0 31 8 71l92 435h180l-92 -435q-5 -25 -5 -43q0 -51 30 -79t84 -28q64 0 110 39.5t61 110.5l92 435h180l-92 -435q-31 -146 -122.5 -228t-238.5 -82zM320 868q0 43 31 72.5t76 29.5q32 0 50 -18.5t18 -49.5q0 -43 -31 -72.5
t-76 -29.5q-32 0 -50 18.5t-18 49.5zM540 868q0 43 31 72.5t76 29.5q32 0 50 -18.5t18 -49.5q0 -43 -31 -72.5t-76 -29.5q-32 0 -50 18.5t-18 49.5z" />
    <glyph glyph-name="Yacute" unicode="&#xdd;" horiz-adv-x="725" 
d="M459 300l-64 -300h-180l64 300l-174 430h187l105 -270l210 270h208zM397 790l96 195h185l-166 -195h-115z" />
    <glyph glyph-name="Thorn" unicode="&#xde;" horiz-adv-x="675" 
d="M236 100l-21 -100h-180l155 730h180l-21 -100h36q138 0 211 -67t73 -177q0 -124 -92.5 -205t-236.5 -81h-104zM315 470l-45 -210h70q62 0 101 35t39 91q0 39 -25 61.5t-70 22.5h-70z" />
    <glyph glyph-name="germandbls" unicode="&#xdf;" horiz-adv-x="700" 
d="M614 576q0 -35 -10.5 -62t-26 -43.5t-31 -30.5t-26 -30.5t-10.5 -36.5q0 -16 16 -30.5t39 -28.5t46.5 -31.5t39.5 -49.5t16 -74q0 -70 -66.5 -122t-176.5 -52q-43 0 -86 12.5t-64 24.5l-22 13l58 130q4 -4 12 -11t34.5 -18t55.5 -11q69 0 69 44q0 16 -25 32.5t-54.5 30.5
t-54.5 44.5t-25 71.5q0 36 16 65.5t36 46t36 40.5t16 51q0 21 -12.5 32.5t-32.5 11.5q-27 0 -50 -18.5t-29 -51.5l-112 -525h-175l112 525q21 98 90 159t174 61q104 0 163.5 -49.5t59.5 -119.5z" />
    <glyph glyph-name="agrave" unicode="&#xe0;" horiz-adv-x="685" 
d="M436 190l40 190h-85q-70 0 -112.5 -42t-42.5 -111q0 -42 26 -67t67 -25q27 0 53.5 13.5t39.5 27.5zM400 0l10 60h-5q-2 -3 -6.5 -8t-19.5 -18t-32 -23t-43.5 -18t-54.5 -8q-81 0 -136.5 61t-55.5 161q0 147 94 235t250 88h282l-113 -530h-170zM491 785l14 -195h-95
l-104 195h185z" />
    <glyph glyph-name="aacute" unicode="&#xe1;" horiz-adv-x="685" 
d="M436 190l40 190h-85q-70 0 -112.5 -42t-42.5 -111q0 -42 26 -67t67 -25q27 0 53.5 13.5t39.5 27.5zM400 0l10 60h-5q-2 -3 -6.5 -8t-19.5 -18t-32 -23t-43.5 -18t-54.5 -8q-81 0 -136.5 61t-55.5 161q0 147 94 235t250 88h282l-113 -530h-170zM380 590l96 195h185
l-166 -195h-115z" />
    <glyph glyph-name="acircumflex" unicode="&#xe2;" horiz-adv-x="685" 
d="M436 190l40 190h-85q-70 0 -112.5 -42t-42.5 -111q0 -42 26 -67t67 -25q27 0 53.5 13.5t39.5 27.5zM400 0l10 60h-5q-2 -3 -6.5 -8t-19.5 -18t-32 -23t-43.5 -18t-54.5 -8q-81 0 -136.5 61t-55.5 161q0 147 94 235t250 88h282l-113 -530h-170zM562 590l-86 100l-124 -100
h-117l191 195h120l109 -195h-93z" />
    <glyph glyph-name="atilde" unicode="&#xe3;" horiz-adv-x="685" 
d="M436 190l40 190h-85q-70 0 -112.5 -42t-42.5 -111q0 -42 26 -67t67 -25q27 0 53.5 13.5t39.5 27.5zM400 0l10 60h-5q-2 -3 -6.5 -8t-19.5 -18t-32 -23t-43.5 -18t-54.5 -8q-81 0 -136.5 61t-55.5 161q0 147 94 235t250 88h282l-113 -530h-170zM367 650q-24 0 -52.5 -11
t-44.5 -23l-17 -11l25 120q4 6 13 14t39.5 22t66.5 14q41 0 85 -25t81 -25q24 0 52.5 11.5t44.5 22.5l17 11l-25 -120q-4 -6 -13 -14t-39.5 -22t-66.5 -14q-41 0 -85 25t-81 25z" />
    <glyph glyph-name="adieresis" unicode="&#xe4;" horiz-adv-x="685" 
d="M436 190l40 190h-85q-70 0 -112.5 -42t-42.5 -111q0 -42 26 -67t67 -25q27 0 53.5 13.5t39.5 27.5zM400 0l10 60h-5q-2 -3 -6.5 -8t-19.5 -18t-32 -23t-43.5 -18t-54.5 -8q-81 0 -136.5 61t-55.5 161q0 147 94 235t250 88h282l-113 -530h-170zM267 668q0 43 31 72.5
t76 29.5q32 0 50 -18.5t18 -49.5q0 -43 -31 -72.5t-76 -29.5q-32 0 -50 18.5t-18 49.5zM487 668q0 43 31 72.5t76 29.5q32 0 50 -18.5t18 -49.5q0 -43 -31 -72.5t-76 -29.5q-32 0 -50 18.5t-18 49.5z" />
    <glyph glyph-name="aring" unicode="&#xe5;" horiz-adv-x="685" 
d="M436 190l40 190h-85q-70 0 -112.5 -42t-42.5 -111q0 -42 26 -67t67 -25q27 0 53.5 13.5t39.5 27.5zM400 0l10 60h-5q-2 -3 -6.5 -8t-19.5 -18t-32 -23t-43.5 -18t-54.5 -8q-81 0 -136.5 61t-55.5 161q0 147 94 235t250 88h282l-113 -530h-170zM428 696q0 -26 29 -26
q19 0 31.5 11t12.5 33q0 26 -29 26q-19 0 -31.5 -11t-12.5 -33zM598 714q0 -58 -43 -96t-98 -38q-60 0 -93 32t-33 84q0 58 43 96t98 38q60 0 93 -32t33 -84z" />
    <glyph glyph-name="ae" unicode="&#xe6;" horiz-adv-x="1050" 
d="M400 0l10 59h-5q-2 -3 -6.5 -8t-19.5 -18t-32 -22.5t-43.5 -17.5t-54.5 -8q-81 0 -136.5 61t-55.5 161q0 147 94 235t250 88h262l-7 -30h6q5 5 15.5 12.5t46 20t75.5 12.5q103 0 161.5 -59.5t58.5 -165.5q0 -38 -9 -85h-391q0 -15 3.5 -29t15.5 -33.5t41 -31t73 -11.5
q53 0 100 14t67 28l20 13h15l-30 -140q-2 -2 -5.5 -6.5t-18 -14.5t-32.5 -18t-48.5 -14.5t-66.5 -6.5q-34 0 -63.5 7t-47.5 17.5t-31.5 21t-18.5 17.5l-6 7h-5l-11 -55h-170zM436 190l40 190h-85q-70 0 -112.5 -42t-42.5 -111q0 -42 26 -67t67 -25q27 0 53.5 13.5t39.5 27.5
zM792 410q-52 0 -90 -23t-57 -57h225q1 4 1 12q0 28 -21.5 48t-57.5 20z" />
    <glyph glyph-name="ccedilla" unicode="&#xe7;" horiz-adv-x="565" 
d="M222 235q0 -49 29 -74.5t82 -25.5q40 0 78 13.5t56 27.5l18 14h15l-31 -145q-6 -7 -18 -17t-57 -26.5t-101 -16.5h-8l-14 -25q41 -6 65 -32.5t24 -61.5q0 -54 -40.5 -90t-119.5 -36q-29 0 -54.5 5t-36.5 10l-11 5l15 70q22 -15 52 -15q53 0 53 41q0 17 -16.5 27t-33.5 11
l-16 1l60 102q-79 23 -126 88t-47 150q0 130 96 220t234 90q60 0 113 -17.5t76 -35.5l23 -17l-92 -125q-3 5 -10 12.5t-33 20t-57 12.5q-77 0 -122 -43t-45 -117z" />
    <glyph glyph-name="egrave" unicode="&#xe8;" horiz-adv-x="630" 
d="M362 545q110 0 173.5 -59.5t63.5 -165.5q0 -38 -9 -85h-391q0 -15 3.5 -29t15.5 -33.5t41 -31t73 -11.5q53 0 100 14t67 28l20 13h15l-30 -140q-2 -2 -7 -6.5t-23 -14.5t-40 -18t-60.5 -14.5t-81.5 -6.5q-112 0 -182.5 71.5t-70.5 178.5q0 130 95 220t228 90zM372 410
q-52 0 -90 -23t-57 -57h225q1 4 1 12q0 28 -21.5 48t-57.5 20zM411 785l14 -195h-95l-104 195h185z" />
    <glyph glyph-name="eacute" unicode="&#xe9;" horiz-adv-x="630" 
d="M362 545q110 0 173.5 -59.5t63.5 -165.5q0 -38 -9 -85h-391q0 -15 3.5 -29t15.5 -33.5t41 -31t73 -11.5q53 0 100 14t67 28l20 13h15l-30 -140q-2 -2 -7 -6.5t-23 -14.5t-40 -18t-60.5 -14.5t-81.5 -6.5q-112 0 -182.5 71.5t-70.5 178.5q0 130 95 220t228 90zM372 410
q-52 0 -90 -23t-57 -57h225q1 4 1 12q0 28 -21.5 48t-57.5 20zM315 590l96 195h185l-166 -195h-115z" />
    <glyph glyph-name="ecircumflex" unicode="&#xea;" horiz-adv-x="630" 
d="M362 545q110 0 173.5 -59.5t63.5 -165.5q0 -38 -9 -85h-391q0 -15 3.5 -29t15.5 -33.5t41 -31t73 -11.5q53 0 100 14t67 28l20 13h15l-30 -140q-2 -2 -7 -6.5t-23 -14.5t-40 -18t-60.5 -14.5t-81.5 -6.5q-112 0 -182.5 71.5t-70.5 178.5q0 130 95 220t228 90zM372 410
q-52 0 -90 -23t-57 -57h225q1 4 1 12q0 28 -21.5 48t-57.5 20zM492 590l-86 100l-124 -100h-117l191 195h120l109 -195h-93z" />
    <glyph glyph-name="edieresis" unicode="&#xeb;" horiz-adv-x="630" 
d="M362 545q110 0 173.5 -59.5t63.5 -165.5q0 -38 -9 -85h-391q0 -15 3.5 -29t15.5 -33.5t41 -31t73 -11.5q53 0 100 14t67 28l20 13h15l-30 -140q-2 -2 -7 -6.5t-23 -14.5t-40 -18t-60.5 -14.5t-81.5 -6.5q-112 0 -182.5 71.5t-70.5 178.5q0 130 95 220t228 90zM372 410
q-52 0 -90 -23t-57 -57h225q1 4 1 12q0 28 -21.5 48t-57.5 20zM197 668q0 43 31 72.5t76 29.5q32 0 50 -18.5t18 -49.5q0 -43 -31 -72.5t-76 -29.5q-32 0 -50 18.5t-18 49.5zM417 668q0 43 31 72.5t76 29.5q32 0 50 -18.5t18 -49.5q0 -43 -31 -72.5t-76 -29.5
q-32 0 -50 18.5t-18 49.5z" />
    <glyph glyph-name="igrave" unicode="&#xec;" horiz-adv-x="305" 
d="M303 530l-113 -530h-175l113 530h175zM251 785l14 -195h-95l-104 195h185z" />
    <glyph glyph-name="iacute" unicode="&#xed;" horiz-adv-x="305" 
d="M303 530l-113 -530h-175l113 530h175zM170 590l96 195h185l-166 -195h-115z" />
    <glyph glyph-name="icircumflex" unicode="&#xee;" horiz-adv-x="305" 
d="M303 530l-113 -530h-175l113 530h175zM337 590l-86 100l-124 -100h-117l191 195h120l109 -195h-93z" />
    <glyph glyph-name="idieresis" unicode="&#xef;" horiz-adv-x="305" 
d="M303 530l-113 -530h-175l113 530h175zM37 668q0 43 31 72.5t76 29.5q32 0 50 -18.5t18 -49.5q0 -43 -31 -72.5t-76 -29.5q-32 0 -50 18.5t-18 49.5zM257 668q0 43 31 72.5t76 29.5q32 0 50 -18.5t18 -49.5q0 -43 -31 -72.5t-76 -29.5q-32 0 -50 18.5t-18 49.5z" />
    <glyph glyph-name="eth" unicode="&#xf0;" horiz-adv-x="675" 
d="M314 585l-52 85h100q-22 22 -52 44.5t-50 33.5l-19 12h235q47 -40 86 -90h85l52 -85h-95q6 -12 14.5 -33t23 -82t14.5 -117q0 -111 -50.5 -196.5t-129 -128.5t-167.5 -43q-127 0 -201.5 70.5t-74.5 176.5q0 128 86.5 210.5t210.5 82.5q38 0 71 -10t47 -20l14 -10h5
q-3 24 -12.5 49t-17.5 38l-8 13h-115zM457 278q0 43 -26.5 70t-70.5 27q-61 0 -105 -41.5t-44 -101.5q0 -43 26.5 -70t71.5 -27q60 0 104 41.5t44 101.5z" />
    <glyph glyph-name="ntilde" unicode="&#xf1;" horiz-adv-x="670" 
d="M560 0h-175l65 307q3 14 3 25q0 30 -18.5 46.5t-50.5 16.5q-46 0 -85 -32t-50 -84l-59 -279h-175l113 530h170l-10 -60h5q2 3 7 8t20.5 18t32.5 23t43 18t53 8q82 0 134.5 -44t52.5 -121q0 -23 -6 -50zM322 650q-24 0 -52.5 -11t-45.5 -23l-16 -11l25 120q4 6 13 14
t39.5 22t66.5 14q41 0 85 -25t81 -25q24 0 52.5 11.5t45.5 22.5l16 11l-25 -120q-4 -6 -13 -14t-39.5 -22t-66.5 -14q-41 0 -85 25t-81 25z" />
    <glyph glyph-name="ograve" unicode="&#xf2;" horiz-adv-x="680" 
d="M373 545q132 0 206 -71t74 -182q0 -129 -98.5 -218t-235.5 -89q-132 0 -206 71t-74 182q0 129 98.5 218t235.5 89zM373 395q-59 0 -105 -44.5t-46 -112.5q0 -47 27 -75t70 -28q59 0 105 44.5t46 112.5q0 47 -27 75t-70 28zM436 785l14 -195h-95l-104 195h185z" />
    <glyph glyph-name="oacute" unicode="&#xf3;" horiz-adv-x="680" 
d="M373 545q132 0 206 -71t74 -182q0 -129 -98.5 -218t-235.5 -89q-132 0 -206 71t-74 182q0 129 98.5 218t235.5 89zM373 395q-59 0 -105 -44.5t-46 -112.5q0 -47 27 -75t70 -28q59 0 105 44.5t46 112.5q0 47 -27 75t-70 28zM340 590l96 195h185l-166 -195h-115z" />
    <glyph glyph-name="ocircumflex" unicode="&#xf4;" horiz-adv-x="680" 
d="M373 545q132 0 206 -71t74 -182q0 -129 -98.5 -218t-235.5 -89q-132 0 -206 71t-74 182q0 129 98.5 218t235.5 89zM373 395q-59 0 -105 -44.5t-46 -112.5q0 -47 27 -75t70 -28q59 0 105 44.5t46 112.5q0 47 -27 75t-70 28zM512 590l-86 100l-124 -100h-117l191 195h120
l109 -195h-93z" />
    <glyph glyph-name="otilde" unicode="&#xf5;" horiz-adv-x="680" 
d="M373 545q132 0 206 -71t74 -182q0 -129 -98.5 -218t-235.5 -89q-132 0 -206 71t-74 182q0 129 98.5 218t235.5 89zM373 395q-59 0 -105 -44.5t-46 -112.5q0 -47 27 -75t70 -28q59 0 105 44.5t46 112.5q0 47 -27 75t-70 28zM317 650q-24 0 -52.5 -11t-44.5 -23l-17 -11
l25 120q4 6 13 14t39.5 22t66.5 14q41 0 85 -25t81 -25q24 0 52.5 11.5t44.5 22.5l17 11l-25 -120q-4 -6 -13 -14t-39.5 -22t-66.5 -14q-41 0 -85 25t-81 25z" />
    <glyph glyph-name="odieresis" unicode="&#xf6;" horiz-adv-x="680" 
d="M373 545q132 0 206 -71t74 -182q0 -129 -98.5 -218t-235.5 -89q-132 0 -206 71t-74 182q0 129 98.5 218t235.5 89zM373 395q-59 0 -105 -44.5t-46 -112.5q0 -47 27 -75t70 -28q59 0 105 44.5t46 112.5q0 47 -27 75t-70 28zM217 668q0 43 31 72.5t76 29.5q32 0 50 -18.5
t18 -49.5q0 -43 -31 -72.5t-76 -29.5q-32 0 -50 18.5t-18 49.5zM437 668q0 43 31 72.5t76 29.5q32 0 50 -18.5t18 -49.5q0 -43 -31 -72.5t-76 -29.5q-32 0 -50 18.5t-18 49.5z" />
    <glyph glyph-name="divide" unicode="&#xf7;" horiz-adv-x="560" 
d="M76 265l27 125h420l-27 -125h-420zM257 523q0 43 31 72.5t76 29.5q32 0 50 -18.5t18 -49.5q0 -43 -31 -72.5t-76 -29.5q-32 0 -50 18.5t-18 49.5zM167 98q0 43 31 72.5t76 29.5q32 0 50 -18.5t18 -49.5q0 -43 -31 -72.5t-76 -29.5q-32 0 -50 18.5t-18 49.5z" />
    <glyph glyph-name="oslash" unicode="&#xf8;" horiz-adv-x="680" 
d="M373 545q76 0 138 -27l25 27h150l-88 -93q55 -66 55 -160q0 -129 -98.5 -218t-235.5 -89q-78 0 -138 26l-24 -26h-150l86 92q-54 65 -54 161q0 129 98.5 218t235.5 89zM373 395q-59 0 -105 -44.5t-46 -112.5l2 -23l168 178q-6 2 -19 2zM470 292l-2 22l-167 -177
q6 -2 18 -2q59 0 105 44.5t46 112.5z" />
    <glyph glyph-name="ugrave" unicode="&#xf9;" horiz-adv-x="675" 
d="M58 200l70 330h175l-65 -307q-3 -14 -3 -25q0 -30 18.5 -46.5t50.5 -16.5q46 0 85 32t50 84l59 279h175l-113 -530h-170l10 60h-5q-2 -3 -7 -8t-20.5 -18t-32.5 -23t-43 -18t-53 -8q-82 0 -134.5 44t-52.5 121q0 23 6 50zM436 785l14 -195h-95l-104 195h185z" />
    <glyph glyph-name="uacute" unicode="&#xfa;" horiz-adv-x="675" 
d="M58 200l70 330h175l-65 -307q-3 -14 -3 -25q0 -30 18.5 -46.5t50.5 -16.5q46 0 85 32t50 84l59 279h175l-113 -530h-170l10 60h-5q-2 -3 -7 -8t-20.5 -18t-32.5 -23t-43 -18t-53 -8q-82 0 -134.5 44t-52.5 121q0 23 6 50zM340 590l96 195h185l-166 -195h-115z" />
    <glyph glyph-name="ucircumflex" unicode="&#xfb;" horiz-adv-x="675" 
d="M58 200l70 330h175l-65 -307q-3 -14 -3 -25q0 -30 18.5 -46.5t50.5 -16.5q46 0 85 32t50 84l59 279h175l-113 -530h-170l10 60h-5q-2 -3 -7 -8t-20.5 -18t-32.5 -23t-43 -18t-53 -8q-82 0 -134.5 44t-52.5 121q0 23 6 50zM507 590l-86 100l-124 -100h-117l191 195h120
l109 -195h-93z" />
    <glyph glyph-name="udieresis" unicode="&#xfc;" horiz-adv-x="675" 
d="M58 200l70 330h175l-65 -307q-3 -14 -3 -25q0 -30 18.5 -46.5t50.5 -16.5q46 0 85 32t50 84l59 279h175l-113 -530h-170l10 60h-5q-2 -3 -7 -8t-20.5 -18t-32.5 -23t-43 -18t-53 -8q-82 0 -134.5 44t-52.5 121q0 23 6 50zM212 668q0 43 31 72.5t76 29.5q32 0 50 -18.5
t18 -49.5q0 -43 -31 -72.5t-76 -29.5q-32 0 -50 18.5t-18 49.5zM432 668q0 43 31 72.5t76 29.5q32 0 50 -18.5t18 -49.5q0 -43 -31 -72.5t-76 -29.5q-32 0 -50 18.5t-18 49.5z" />
    <glyph glyph-name="yacute" unicode="&#xfd;" horiz-adv-x="625" 
d="M176 5l-118 525h177l70 -334h5l174 334h189l-304 -525q-84 -145 -145 -192.5t-154 -47.5l-54 5l3 155q18 -10 53 -10q30 0 52 19t52 71zM300 590l96 195h185l-166 -195h-115z" />
    <glyph glyph-name="thorn" unicode="&#xfe;" horiz-adv-x="705" 
d="M242 238q0 -47 28 -75t73 -28q63 0 109.5 44.5t46.5 112.5q0 47 -28 75t-74 28q-62 0 -108.5 -44.5t-46.5 -112.5zM204 65l-61 -285h-175l208 980h175l-63 -280h5q7 7 19 18t52.5 29t82.5 18q104 0 168 -72t64 -181q0 -134 -90.5 -220.5t-215.5 -86.5q-34 0 -63 8t-47 20
t-30.5 24t-18.5 20l-5 8h-5z" />
    <glyph glyph-name="ydieresis" unicode="&#xff;" horiz-adv-x="625" 
d="M176 5l-118 525h177l70 -334h5l174 334h189l-304 -525q-84 -145 -145 -192.5t-154 -47.5l-54 5l3 155q18 -10 53 -10q30 0 52 19t52 71zM188 668q0 43 31 72.5t76 29.5q32 0 50 -18.5t18 -49.5q0 -43 -31 -72.5t-76 -29.5q-32 0 -50 18.5t-18 49.5zM408 668q0 43 31 72.5
t76 29.5q32 0 50 -18.5t18 -49.5q0 -43 -31 -72.5t-76 -29.5q-32 0 -50 18.5t-18 49.5z" />
    <glyph glyph-name="Amacron" unicode="&#x100;" horiz-adv-x="790" 
d="M463 485h-5l-127 -195h177zM541 140h-307l-91 -140h-203l490 730h145l180 -730h-182zM305 825l24 115h415l-24 -115h-415z" />
    <glyph glyph-name="amacron" unicode="&#x101;" horiz-adv-x="685" 
d="M436 190l40 190h-85q-70 0 -112.5 -42t-42.5 -111q0 -42 26 -67t67 -25q27 0 53.5 13.5t39.5 27.5zM400 0l10 60h-5q-2 -3 -6.5 -8t-19.5 -18t-32 -23t-43.5 -18t-54.5 -8q-81 0 -136.5 61t-55.5 161q0 147 94 235t250 88h282l-113 -530h-170zM242 625l24 115h415
l-24 -115h-415z" />
    <glyph glyph-name="Abreve" unicode="&#x102;" horiz-adv-x="790" 
d="M463 485h-5l-127 -195h177zM541 140h-307l-91 -140h-203l490 730h145l180 -730h-182zM534 915q44 0 90 15t70 30l23 15l-26 -120q-6 -6 -19 -14t-57.5 -22t-95.5 -14q-47 0 -89 12.5t-60 24.5l-19 13l26 120q6 -7 18.5 -17t53.5 -26.5t85 -16.5z" />
    <glyph glyph-name="abreve" unicode="&#x103;" horiz-adv-x="685" 
d="M436 190l40 190h-85q-70 0 -112.5 -42t-42.5 -111q0 -42 26 -67t67 -25q27 0 53.5 13.5t39.5 27.5zM400 0l10 60h-5q-2 -3 -6.5 -8t-19.5 -18t-32 -23t-43.5 -18t-54.5 -8q-81 0 -136.5 61t-55.5 161q0 147 94 235t250 88h282l-113 -530h-170zM475 705q44 0 90 15t69 30
l24 15l-26 -120q-6 -6 -19 -14t-57.5 -22t-95.5 -14q-47 0 -89 12.5t-61 24.5l-18 13l26 120q6 -7 18.5 -17t53.5 -26.5t85 -16.5z" />
    <glyph glyph-name="Aogonek" unicode="&#x104;" horiz-adv-x="790" 
d="M665 0h-92l-32 140h-307l-91 -140h-203l490 730h145l180 -730q-5 -2 -13 -6t-28.5 -18.5t-36.5 -30.5t-29 -41.5t-13 -52.5q0 -36 35 -36q11 0 23 2.5t19 4.5l6 3l-14 -65q-29 -20 -85 -20q-61 0 -90 25t-29 66q0 33 17 62.5t41 48t48.5 32.5t41.5 20zM463 485h-5
l-127 -195h177z" />
    <glyph glyph-name="aogonek" unicode="&#x105;" horiz-adv-x="685" 
d="M400 0l10 60h-5q-2 -3 -6.5 -8t-19.5 -18t-32 -23t-43.5 -18t-54.5 -8q-81 0 -136.5 61t-55.5 161q0 147 94 235t250 88h282l-113 -530q-5 -2 -13 -6t-28.5 -18.5t-36.5 -30.5t-29 -41.5t-13 -52.5q0 -36 35 -36q11 0 23 2.5t18 4.5l7 3l-14 -65q-29 -20 -85 -20
q-61 0 -90 25t-29 66q0 33 17 62.5t41 48t48.5 32.5t41.5 20l17 6h-80zM436 190l40 190h-85q-70 0 -112.5 -42t-42.5 -111q0 -42 26 -67t67 -25q27 0 53.5 13.5t39.5 27.5z" />
    <glyph glyph-name="Cacute" unicode="&#x106;" horiz-adv-x="735" 
d="M251 321q0 -79 49.5 -127.5t134.5 -48.5q56 0 110 25t81 50l26 25h20l-37 -170q-3 -4 -8 -10t-26 -21.5t-46 -27.5t-68 -21.5t-92 -9.5q-139 0 -235.5 97.5t-96.5 238.5q0 115 62 213t164.5 154.5t219.5 56.5q53 0 101 -10t78 -23.5t52.5 -27.5t32.5 -24l10 -10l-95 -140
q-2 3 -5 8t-16.5 18t-30 23t-45 18t-62.5 8q-118 0 -198 -76t-80 -188zM457 790l96 195h185l-166 -195h-115z" />
    <glyph glyph-name="cacute" unicode="&#x107;" horiz-adv-x="565" 
d="M222 235q0 -49 29 -74.5t82 -25.5q40 0 78 13.5t56 27.5l18 14h15l-31 -145q-6 -7 -18 -17t-57 -26.5t-101 -16.5q-112 0 -183 71.5t-71 178.5q0 130 96 220t234 90q60 0 113 -17.5t76 -35.5l23 -17l-92 -125q-3 5 -10 12.5t-33 20t-57 12.5q-77 0 -122 -43t-45 -117z
M300 590l96 195h185l-166 -195h-115z" />
    <glyph glyph-name="Ccircumflex" unicode="&#x108;" horiz-adv-x="735" 
d="M251 321q0 -79 49.5 -127.5t134.5 -48.5q56 0 110 25t81 50l26 25h20l-37 -170q-3 -4 -8 -10t-26 -21.5t-46 -27.5t-68 -21.5t-92 -9.5q-139 0 -235.5 97.5t-96.5 238.5q0 115 62 213t164.5 154.5t219.5 56.5q53 0 101 -10t78 -23.5t52.5 -27.5t32.5 -24l10 -10l-95 -140
q-2 3 -5 8t-16.5 18t-30 23t-45 18t-62.5 8q-118 0 -198 -76t-80 -188zM619 790l-86 100l-124 -100h-117l191 195h120l109 -195h-93z" />
    <glyph glyph-name="ccircumflex" unicode="&#x109;" horiz-adv-x="565" 
d="M222 235q0 -49 29 -74.5t82 -25.5q40 0 78 13.5t56 27.5l18 14h15l-31 -145q-6 -7 -18 -17t-57 -26.5t-101 -16.5q-112 0 -183 71.5t-71 178.5q0 130 96 220t234 90q60 0 113 -17.5t76 -35.5l23 -17l-92 -125q-3 5 -10 12.5t-33 20t-57 12.5q-77 0 -122 -43t-45 -117z
M487 590l-86 100l-124 -100h-117l191 195h120l109 -195h-93z" />
    <glyph glyph-name="Ccaron" unicode="&#x10c;" horiz-adv-x="735" 
d="M251 321q0 -79 49.5 -127.5t134.5 -48.5q56 0 110 25t81 50l26 25h20l-37 -170q-3 -4 -8 -10t-26 -21.5t-46 -27.5t-68 -21.5t-92 -9.5q-139 0 -235.5 97.5t-96.5 238.5q0 115 62 213t164.5 154.5t219.5 56.5q53 0 101 -10t78 -23.5t52.5 -27.5t32.5 -24l10 -10l-95 -140
q-2 3 -5 8t-16.5 18t-30 23t-45 18t-62.5 8q-118 0 -198 -76t-80 -188zM427 985l86 -100l124 100h117l-191 -195h-120l-109 195h93z" />
    <glyph glyph-name="ccaron" unicode="&#x10d;" horiz-adv-x="565" 
d="M222 235q0 -49 29 -74.5t82 -25.5q40 0 78 13.5t56 27.5l18 14h15l-31 -145q-6 -7 -18 -17t-57 -26.5t-101 -16.5q-112 0 -183 71.5t-71 178.5q0 130 96 220t234 90q60 0 113 -17.5t76 -35.5l23 -17l-92 -125q-3 5 -10 12.5t-33 20t-57 12.5q-77 0 -122 -43t-45 -117z
M284 785l86 -100l124 100h117l-191 -195h-120l-109 195h93z" />
    <glyph glyph-name="Dcaron" unicode="&#x10e;" horiz-adv-x="785" 
d="M416 730q166 0 263 -92t97 -233q0 -167 -132 -286t-315 -119h-294l155 730h226zM416 570h-80l-87 -410h80q108 0 183.5 71t75.5 174q0 74 -46.5 119.5t-125.5 45.5zM415 985l86 -100l124 100h117l-191 -195h-120l-109 195h93z" />
    <glyph glyph-name="dcaron" unicode="&#x10f;" horiz-adv-x="805" 
d="M475 292q0 47 -28 75t-73 28q-63 0 -109.5 -44.5t-46.5 -112.5q0 -47 28 -75t74 -28q62 0 108.5 44.5t46.5 112.5zM513 465l63 295h175l-161 -760h-170l9 60h-5q-7 -8 -19 -20.5t-52.5 -33.5t-82.5 -21q-104 0 -168 72t-64 181q0 134 90.5 220.5t215.5 86.5q32 0 61 -8
t47 -20t31.5 -24t18.5 -20l6 -8h5zM940 739q0 -44 -31 -95.5t-85 -83.5h-55q7 6 17.5 15.5t30 36t23.5 48.5q-47 7 -47 53q0 37 25.5 62t61.5 25q27 0 43.5 -15.5t16.5 -45.5z" />
    <glyph glyph-name="Dcroat" unicode="&#x110;" horiz-adv-x="805" 
d="M436 730q166 0 263 -92t97 -233q0 -167 -132 -286t-315 -119h-294l61 290h-64l32 150h64l62 290h226zM436 570h-80l-28 -130h146l-32 -150h-146l-27 -130h80q108 0 183.5 71t75.5 174q0 74 -46.5 119.5t-125.5 45.5z" />
    <glyph glyph-name="dcroat" unicode="&#x111;" horiz-adv-x="715" 
d="M387 575l28 135h150l11 50h175l-11 -50h75l-28 -135h-75l-122 -575h-170l9 60h-5q-2 -3 -7 -8t-20.5 -18t-32 -23t-42.5 -18t-53 -8q-104 0 -167.5 71t-63.5 177q0 131 90.5 216.5t214.5 85.5q32 0 60.5 -8t46 -20t30.5 -24t18 -20l6 -8h5l28 120h-150zM473 287
q0 44 -27.5 71t-73.5 27q-62 0 -108 -43.5t-46 -108.5q0 -44 27.5 -71t73.5 -27q62 0 108 43.5t46 108.5z" />
    <glyph glyph-name="Emacron" unicode="&#x112;" horiz-adv-x="650" 
d="M35 0l155 730h505l-34 -160h-325l-26 -125h250l-34 -160h-250l-27 -125h325l-34 -160h-505zM245 825l24 115h415l-24 -115h-415z" />
    <glyph glyph-name="emacron" unicode="&#x113;" horiz-adv-x="630" 
d="M362 545q110 0 173.5 -59.5t63.5 -165.5q0 -38 -9 -85h-391q0 -15 3.5 -29t15.5 -33.5t41 -31t73 -11.5q53 0 100 14t67 28l20 13h15l-30 -140q-2 -2 -7 -6.5t-23 -14.5t-40 -18t-60.5 -14.5t-81.5 -6.5q-112 0 -182.5 71.5t-70.5 178.5q0 130 95 220t228 90zM372 410
q-52 0 -90 -23t-57 -57h225q1 4 1 12q0 28 -21.5 48t-57.5 20zM177 625l24 115h415l-24 -115h-415z" />
    <glyph glyph-name="Edotaccent" unicode="&#x116;" horiz-adv-x="650" 
d="M35 0l155 730h505l-34 -160h-325l-26 -125h250l-34 -160h-250l-27 -125h325l-34 -160h-505zM380 868q0 43 31 72.5t76 29.5q32 0 50 -18.5t18 -49.5q0 -43 -31 -72.5t-76 -29.5q-32 0 -50 18.5t-18 49.5z" />
    <glyph glyph-name="edotaccent" unicode="&#x117;" horiz-adv-x="630" 
d="M362 545q110 0 173.5 -59.5t63.5 -165.5q0 -38 -9 -85h-391q0 -15 3.5 -29t15.5 -33.5t41 -31t73 -11.5q53 0 100 14t67 28l20 13h15l-30 -140q-2 -2 -7 -6.5t-23 -14.5t-40 -18t-60.5 -14.5t-81.5 -6.5q-112 0 -182.5 71.5t-70.5 178.5q0 130 95 220t228 90zM372 410
q-52 0 -90 -23t-57 -57h225q1 4 1 12q0 28 -21.5 48t-57.5 20zM307 668q0 43 31 72.5t76 29.5q32 0 50 -18.5t18 -49.5q0 -43 -31 -72.5t-76 -29.5q-32 0 -50 18.5t-18 49.5z" />
    <glyph glyph-name="Eogonek" unicode="&#x118;" horiz-adv-x="650" 
d="M35 0l155 730h505l-34 -160h-325l-26 -125h250l-34 -160h-250l-27 -125h325l-34 -160q-5 -2 -13 -6t-28.5 -18.5t-36.5 -30.5t-29 -41.5t-13 -52.5q0 -36 35 -36q11 0 23 2.5t18 4.5l7 3l-14 -65q-29 -20 -85 -20q-61 0 -90 25t-29 66q0 33 17 62.5t41 48t48.5 32.5
t41.5 20l17 6h-415z" />
    <glyph glyph-name="eogonek" unicode="&#x119;" horiz-adv-x="630" 
d="M362 545q110 0 173.5 -59.5t63.5 -165.5q0 -38 -9 -85h-391q0 -15 3.5 -29t15.5 -33.5t41 -31t73 -11.5q53 0 100 14t67 28l20 13h15l-30 -140q-37 -38 -127 -53q-4 -2 -11 -6.5t-25 -18.5t-31.5 -29.5t-24.5 -39t-11 -47.5q0 -36 35 -36q11 0 23 2.5t18 4.5l7 3l-14 -65
q-29 -20 -85 -20q-61 0 -90 25t-29 66q0 29 13.5 55.5t32.5 44t38 30.5t33 19l13 6q-103 8 -166.5 78t-63.5 171q0 130 95 220t228 90zM372 410q-52 0 -90 -23t-57 -57h225q1 4 1 12q0 28 -21.5 48t-57.5 20z" />
    <glyph glyph-name="Ecaron" unicode="&#x11a;" horiz-adv-x="650" 
d="M35 0l155 730h505l-34 -160h-325l-26 -125h250l-34 -160h-250l-27 -125h325l-34 -160h-505zM372 985l86 -100l124 100h117l-191 -195h-120l-109 195h93z" />
    <glyph glyph-name="ecaron" unicode="&#x11b;" horiz-adv-x="630" 
d="M362 545q110 0 173.5 -59.5t63.5 -165.5q0 -38 -9 -85h-391q0 -15 3.5 -29t15.5 -33.5t41 -31t73 -11.5q53 0 100 14t67 28l20 13h15l-30 -140q-2 -2 -7 -6.5t-23 -14.5t-40 -18t-60.5 -14.5t-81.5 -6.5q-112 0 -182.5 71.5t-70.5 178.5q0 130 95 220t228 90zM372 410
q-52 0 -90 -23t-57 -57h225q1 4 1 12q0 28 -21.5 48t-57.5 20zM299 785l86 -100l124 100h117l-191 -195h-120l-109 195h93z" />
    <glyph glyph-name="Gbreve" unicode="&#x11e;" horiz-adv-x="815" 
d="M509 745q56 0 105.5 -10.5t80.5 -25t54.5 -29t32.5 -24.5l10 -11l-96 -145q-2 3 -5 9t-16.5 20.5t-30.5 26t-48 20.5t-67 9q-118 0 -198 -76t-80 -188q0 -79 47 -127.5t127 -48.5q42 0 80 12.5t55 24.5l16 13l17 80h-185l73 155h310l-68 -320q-3 -5 -10 -13.5t-34 -30
t-60 -38t-90.5 -30t-123.5 -13.5q-147 0 -244.5 96.5t-97.5 239.5q0 115 62 213t164.5 154.5t219.5 56.5zM554 915q44 0 90 15t70 30l23 15l-26 -120q-6 -6 -19 -14t-57.5 -22t-95.5 -14q-47 0 -89 12.5t-60 24.5l-19 13l26 120q6 -7 18.5 -17t53.5 -26.5t85 -16.5z" />
    <glyph glyph-name="gbreve" unicode="&#x11f;" horiz-adv-x="685" 
d="M411 75l1 5h-5q-6 -7 -17 -18t-48 -29t-77 -18q-93 0 -158 69t-65 173q0 124 85 206t206 82q49 0 88.5 -17.5t54.5 -35.5l15 -17h5l16 55h170l-101 -475q-29 -139 -112.5 -214.5t-237.5 -75.5q-49 0 -97.5 8.5t-72.5 17.5l-24 9l5 165q8 -6 22.5 -14t61 -22t95.5 -14
q80 0 126.5 37.5t63.5 122.5zM226 257q0 -42 25 -67t64 -25q58 0 100 39t42 99q0 42 -26 67t-68 25q-54 0 -95.5 -39.5t-41.5 -98.5zM434 725q44 0 90 15t70 30l23 15l-26 -120q-6 -6 -19 -14t-57.5 -22t-95.5 -14q-47 0 -89 12.5t-60 24.5l-19 13l26 120q6 -7 18.5 -17
t53.5 -26.5t85 -16.5z" />
    <glyph glyph-name="Gcommaaccent" unicode="&#x122;" horiz-adv-x="815" 
d="M509 745q56 0 105.5 -10.5t80.5 -25t54.5 -29t32.5 -24.5l10 -11l-96 -145q-2 3 -5 9t-16.5 20.5t-30.5 26t-48 20.5t-67 9q-118 0 -198 -76t-80 -188q0 -79 47 -127.5t127 -48.5q42 0 80 12.5t55 24.5l16 13l17 80h-185l73 155h310l-68 -320q-3 -5 -10 -13.5t-34 -30
t-60 -38t-90.5 -30t-123.5 -13.5q-147 0 -244.5 96.5t-97.5 239.5q0 115 62 213t164.5 154.5t219.5 56.5zM453 -116q0 -44 -31 -95.5t-85 -83.5h-55q7 6 17.5 15.5t30 36t23.5 48.5q-47 7 -47 53q0 37 25.5 62t61.5 25q27 0 43.5 -15.5t16.5 -45.5z" />
    <glyph glyph-name="gcommaaccent" unicode="&#x123;" horiz-adv-x="685" 
d="M331 656q0 44 31 95.5t85 83.5h55q-7 -6 -17.5 -15.5t-30 -36t-23.5 -48.5q47 -7 47 -53q0 -37 -25.5 -62t-61.5 -25q-27 0 -43.5 15.5t-16.5 45.5zM411 75l1 5h-5q-6 -7 -17 -18t-48 -29t-77 -18q-93 0 -158 69t-65 173q0 124 85 206t206 82q49 0 88.5 -17.5t54.5 -35.5
l15 -17h5l16 55h170l-101 -475q-29 -139 -112.5 -214.5t-237.5 -75.5q-49 0 -97.5 8.5t-72.5 17.5l-24 9l5 165q8 -6 22.5 -14t61 -22t95.5 -14q80 0 126.5 37.5t63.5 122.5zM226 257q0 -42 25 -67t64 -25q58 0 100 39t42 99q0 42 -26 67t-68 25q-54 0 -95.5 -39.5
t-41.5 -98.5z" />
    <glyph glyph-name="Imacron" unicode="&#x12a;" horiz-adv-x="360" 
d="M375 730l-155 -730h-180l155 730h180zM85 825l24 115h415l-24 -115h-415z" />
    <glyph glyph-name="imacron" unicode="&#x12b;" horiz-adv-x="305" 
d="M303 530l-113 -530h-175l113 530h175zM17 625l24 115h415l-24 -115h-415z" />
    <glyph glyph-name="Iogonek" unicode="&#x12e;" horiz-adv-x="355" 
d="M375 730l-155 -730q-5 -2 -13 -6t-28.5 -18.5t-36.5 -30.5t-29 -41.5t-13 -52.5q0 -36 35 -36q11 0 23 2.5t18 4.5l7 3l-14 -65q-29 -20 -85 -20q-61 0 -90 25t-29 66q0 33 17 62.5t41 48t48.5 32.5t41.5 20l17 6h-90l155 730h180z" />
    <glyph glyph-name="iogonek" unicode="&#x12f;" horiz-adv-x="305" 
d="M304 535l-114 -535q-5 -2 -13 -6t-28.5 -18.5t-36.5 -30.5t-29 -41.5t-13 -52.5q0 -36 35 -36q11 0 23 2.5t18 4.5l7 3l-14 -65q-29 -20 -85 -20q-61 0 -90 25t-29 66q0 33 17 62.5t41 48t48.5 32.5t41.5 20l17 6h-85l114 535q37 -15 84 -15q21 0 44 4t35 8zM148 668
q0 47 35 77t85 30q37 0 58.5 -19.5t21.5 -53.5q0 -47 -35 -77t-85 -30q-37 0 -58.5 19.5t-21.5 53.5z" />
    <glyph glyph-name="Idotaccent" unicode="&#x130;" horiz-adv-x="360" 
d="M375 730l-155 -730h-180l155 730h180zM230 868q0 43 31 72.5t76 29.5q32 0 50 -18.5t18 -49.5q0 -43 -31 -72.5t-76 -29.5q-32 0 -50 18.5t-18 49.5z" />
    <glyph glyph-name="dotlessi" unicode="&#x131;" horiz-adv-x="305" 
d="M303 530l-113 -530h-175l113 530h175z" />
    <glyph glyph-name="Kcommaaccent" unicode="&#x136;" horiz-adv-x="745" 
d="M513 415l192 -415h-194l-137 294l-122 -119l-37 -175h-180l155 730h180l-62 -293l306 293h227zM418 -116q0 -44 -31 -95.5t-85 -83.5h-55q7 6 17.5 15.5t30 36t23.5 48.5q-47 7 -47 53q0 37 25.5 62t61.5 25q27 0 43.5 -15.5t16.5 -45.5z" />
    <glyph glyph-name="kcommaaccent" unicode="&#x137;" horiz-adv-x="625" 
d="M216 120l-26 -120h-175l162 760h175l-89 -416l205 186h210l-248 -225l155 -305h-182l-100 201zM353 -116q0 -44 -31 -95.5t-85 -83.5h-55q7 6 17.5 15.5t30 36t23.5 48.5q-47 7 -47 53q0 37 25.5 62t61.5 25q27 0 43.5 -15.5t16.5 -45.5z" />
    <glyph glyph-name="Lacute" unicode="&#x139;" horiz-adv-x="575" 
d="M370 730l-121 -570h280l-34 -160h-460l155 730h180zM247 790l96 195h185l-166 -195h-115z" />
    <glyph glyph-name="lacute" unicode="&#x13a;" horiz-adv-x="345" 
d="M306 145l-30 -140q-22 -20 -82 -20q-64 0 -104.5 37t-40.5 108q0 29 7 60l121 570h175l-121 -570q-4 -20 -4 -26q0 -29 32 -29q9 0 17 2.5t12 4.5l3 3h15zM221 830l96 195h185l-166 -195h-115z" />
    <glyph glyph-name="Lcommaaccent" unicode="&#x13b;" horiz-adv-x="575" 
d="M370 730l-121 -570h280l-34 -160h-460l155 730h180zM333 -115q0 -44 -31 -95.5t-85 -83.5h-55q7 6 17.5 15.5t30 36t23.5 48.5q-47 7 -47 53q0 37 25.5 62t61.5 25q27 0 43.5 -15.5t16.5 -45.5z" />
    <glyph glyph-name="lcommaaccent" unicode="&#x13c;" horiz-adv-x="345" 
d="M306 145l-30 -140q-22 -20 -82 -20q-64 0 -104.5 37t-40.5 108q0 29 7 60l121 570h175l-121 -570q-4 -20 -4 -26q0 -29 32 -29q9 0 17 2.5t12 4.5l3 3h15zM208 -116q0 -44 -31 -95.5t-85 -83.5h-55q7 6 17.5 15.5t30 36t23.5 48.5q-47 7 -47 53q0 37 25.5 62t61.5 25
q27 0 43.5 -15.5t16.5 -45.5z" />
    <glyph glyph-name="Lcaron" unicode="&#x13d;" horiz-adv-x="575" 
d="M370 730l-121 -570h280l-34 -160h-460l155 730h180zM572 679q0 -44 -31 -95.5t-85 -83.5h-55q7 6 17.5 15.5t30 36t23.5 48.5q-47 7 -47 53q0 37 25.5 62t61.5 25q27 0 43.5 -15.5t16.5 -45.5z" />
    <glyph glyph-name="lcaron" unicode="&#x13e;" horiz-adv-x="405" 
d="M306 145l-30 -140q-22 -20 -82 -20q-64 0 -104.5 37t-40.5 108q0 29 7 60l121 570h175l-121 -570q-4 -20 -4 -26q0 -29 32 -29q9 0 17 2.5t12 4.5l3 3h15zM540 739q0 -44 -31 -95.5t-85 -83.5h-55q7 6 17.5 15.5t30 36t23.5 48.5q-47 7 -47 53q0 37 25.5 62t61.5 25
q27 0 43.5 -15.5t16.5 -45.5z" />
    <glyph glyph-name="Lslash" unicode="&#x141;" 
d="M385 730l-57 -270l172 55l-32 -150l-172 -55l-32 -150h280l-34 -160h-460l53 250l-64 -20l32 150l64 20l70 330h180z" />
    <glyph glyph-name="lslash" unicode="&#x142;" horiz-adv-x="365" 
d="M325 145l-30 -140q-22 -20 -82 -20q-64 0 -104.5 37t-40.5 108q0 29 7 60l21 100l-69 -20l32 150l69 20l68 320h175l-56 -264l64 19l-32 -150l-64 -19l-33 -156q-4 -20 -4 -26q0 -29 32 -29q9 0 17 2.5t11 4.5l4 3h15z" />
    <glyph glyph-name="Nacute" unicode="&#x143;" horiz-adv-x="830" 
d="M850 730l-155 -730h-175l-210 453l-95 -453h-180l155 730h175l210 -453l95 453h180zM452 790l96 195h185l-166 -195h-115z" />
    <glyph glyph-name="nacute" unicode="&#x144;" horiz-adv-x="670" 
d="M560 0h-175l65 307q3 14 3 25q0 30 -18.5 46.5t-50.5 16.5q-46 0 -85 -32t-50 -84l-59 -279h-175l113 530h170l-10 -60h5q2 3 7 8t20.5 18t32.5 23t43 18t53 8q82 0 134.5 -44t52.5 -121q0 -23 -6 -50zM350 590l96 195h185l-166 -195h-115z" />
    <glyph glyph-name="Ncommaaccent" unicode="&#x145;" horiz-adv-x="830" 
d="M850 730l-155 -730h-175l-210 453l-95 -453h-180l155 730h175l210 -453l95 453h180zM433 -116q0 -44 -31 -95.5t-85 -83.5h-55q7 6 17.5 15.5t30 36t23.5 48.5q-47 7 -47 53q0 37 25.5 62t61.5 25q27 0 43.5 -15.5t16.5 -45.5z" />
    <glyph glyph-name="ncommaaccent" unicode="&#x146;" horiz-adv-x="670" 
d="M560 0h-175l65 307q3 14 3 25q0 30 -18.5 46.5t-50.5 16.5q-46 0 -85 -32t-50 -84l-59 -279h-175l113 530h170l-10 -60h5q2 3 7 8t20.5 18t32.5 23t43 18t53 8q82 0 134.5 -44t52.5 -121q0 -23 -6 -50zM353 -116q0 -44 -31 -95.5t-85 -83.5h-55q7 6 17.5 15.5t30 36
t23.5 48.5q-47 7 -47 53q0 37 25.5 62t61.5 25q27 0 43.5 -15.5t16.5 -45.5z" />
    <glyph glyph-name="Ncaron" unicode="&#x147;" horiz-adv-x="830" 
d="M850 730l-155 -730h-175l-210 453l-95 -453h-180l155 730h175l210 -453l95 453h180zM447 985l86 -100l124 100h117l-191 -195h-120l-109 195h93z" />
    <glyph glyph-name="ncaron" unicode="&#x148;" horiz-adv-x="670" 
d="M560 0h-175l65 307q3 14 3 25q0 30 -18.5 46.5t-50.5 16.5q-46 0 -85 -32t-50 -84l-59 -279h-175l113 530h170l-10 -60h5q2 3 7 8t20.5 18t32.5 23t43 18t53 8q82 0 134.5 -44t52.5 -121q0 -23 -6 -50zM339 785l86 -100l124 100h117l-191 -195h-120l-109 195h93z" />
    <glyph glyph-name="Omacron" unicode="&#x14c;" horiz-adv-x="880" 
d="M251 321q0 -78 46.5 -127t122.5 -49q106 0 184.5 76.5t78.5 187.5q0 78 -46.5 127t-122.5 49q-106 0 -184.5 -76.5t-78.5 -187.5zM871 409q0 -115 -62.5 -213.5t-166.5 -154.5t-222 -56q-162 0 -259.5 95.5t-97.5 240.5q0 115 62.5 213.5t166.5 154.5t222 56
q162 0 259.5 -95.5t97.5 -240.5zM330 825l24 115h415l-24 -115h-415z" />
    <glyph glyph-name="omacron" unicode="&#x14d;" horiz-adv-x="680" 
d="M373 545q132 0 206 -71t74 -182q0 -129 -98.5 -218t-235.5 -89q-132 0 -206 71t-74 182q0 129 98.5 218t235.5 89zM373 395q-59 0 -105 -44.5t-46 -112.5q0 -47 27 -75t70 -28q59 0 105 44.5t46 112.5q0 47 -27 75t-70 28zM192 625l24 115h415l-24 -115h-415z" />
    <glyph glyph-name="Ohungarumlaut" unicode="&#x150;" horiz-adv-x="880" 
d="M251 321q0 -78 46.5 -127t122.5 -49q106 0 184.5 76.5t78.5 187.5q0 78 -46.5 127t-122.5 49q-106 0 -184.5 -76.5t-78.5 -187.5zM871 409q0 -115 -62.5 -213.5t-166.5 -154.5t-222 -56q-162 0 -259.5 95.5t-97.5 240.5q0 115 62.5 213.5t166.5 154.5t222 56
q162 0 259.5 -95.5t97.5 -240.5zM397 790l96 195h165l-166 -195h-95zM567 790l136 195h180l-201 -195h-115z" />
    <glyph glyph-name="ohungarumlaut" unicode="&#x151;" horiz-adv-x="680" 
d="M373 545q132 0 206 -71t74 -182q0 -129 -98.5 -218t-235.5 -89q-132 0 -206 71t-74 182q0 129 98.5 218t235.5 89zM373 395q-59 0 -105 -44.5t-46 -112.5q0 -47 27 -75t70 -28q59 0 105 44.5t46 112.5q0 47 -27 75t-70 28zM265 590l96 195h165l-166 -195h-95zM435 590
l136 195h180l-201 -195h-115z" />
    <glyph glyph-name="OE" unicode="&#x152;" horiz-adv-x="1090" 
d="M980 0h-444q-51 -15 -116 -15q-162 0 -259.5 95.5t-97.5 240.5q0 115 62.5 213.5t166.5 154.5t222 56q29 0 58 -3.5t44 -7.5l14 -4h505l-34 -160h-295l-27 -125h220l-34 -160h-220l-26 -125h295zM420 145q33 0 63.5 7.5t44.5 15.5l14 8l79 374q-36 35 -107 35
q-106 0 -184.5 -76.5t-78.5 -187.5q0 -78 46.5 -127t122.5 -49z" />
    <glyph glyph-name="oe" unicode="&#x153;" horiz-adv-x="985" 
d="M717 545q110 0 173.5 -59.5t63.5 -165.5q0 -38 -9 -85h-391q0 -15 3.5 -29t15.5 -33.5t41 -31t73 -11.5q53 0 100 14t67 28l20 13h15l-30 -140q-2 -2 -7 -6.5t-23 -14.5t-40 -18t-60.5 -14.5t-81.5 -6.5q-87 0 -152 46q-80 -46 -176 -46q-132 0 -206 71t-74 182
q0 129 98.5 218t235.5 89q101 0 174 -47q78 47 170 47zM319 135q46 0 84 27q-9 34 -9 73q0 76 36 143q-25 17 -57 17q-59 0 -105 -44.5t-46 -112.5q0 -47 27 -75t70 -28zM727 410q-52 0 -90 -23t-57 -57h225q1 4 1 12q0 28 -21.5 48t-57.5 20z" />
    <glyph glyph-name="Racute" unicode="&#x154;" horiz-adv-x="690" 
d="M336 570l-42 -200h60q67 0 103 32.5t36 89.5q0 78 -97 78h-60zM516 255l109 -255h-185l-88 220h-90l-47 -220h-180l155 730h206q137 0 211.5 -66.5t74.5 -171.5q0 -45 -17 -85.5t-41 -66t-48.5 -44.5t-41.5 -28l-17 -8zM387 790l96 195h185l-166 -195h-115z" />
    <glyph glyph-name="racute" unicode="&#x155;" horiz-adv-x="490" 
d="M393 390q-36 0 -70 -20t-51 -40l-16 -20l-66 -310h-175l113 530h170l-11 -62h5q2 3 6 8.5t18 18.5t30 23t41 18.5t52 8.5q33 0 60 -10t37 -20l11 -10l-65 -145q-24 30 -89 30zM275 590l96 195h185l-166 -195h-115z" />
    <glyph glyph-name="Rcommaaccent" unicode="&#x156;" horiz-adv-x="690" 
d="M336 570l-42 -200h60q67 0 103 32.5t36 89.5q0 78 -97 78h-60zM516 255l109 -255h-185l-88 220h-90l-47 -220h-180l155 730h206q137 0 211.5 -66.5t74.5 -171.5q0 -45 -17 -85.5t-41 -66t-48.5 -44.5t-41.5 -28l-17 -8zM393 -116q0 -44 -31 -95.5t-85 -83.5h-55
q7 6 17.5 15.5t30 36t23.5 48.5q-47 7 -47 53q0 37 25.5 62t61.5 25q27 0 43.5 -15.5t16.5 -45.5z" />
    <glyph glyph-name="rcommaaccent" unicode="&#x157;" horiz-adv-x="490" 
d="M393 390q-36 0 -70 -20t-51 -40l-16 -20l-66 -310h-175l113 530h170l-11 -62h5q2 3 6 8.5t18 18.5t30 23t41 18.5t52 8.5q33 0 60 -10t37 -20l11 -10l-65 -145q-24 30 -89 30zM153 -116q0 -44 -31 -95.5t-85 -83.5h-55q7 6 17.5 15.5t30 36t23.5 48.5q-47 7 -47 53
q0 37 25.5 62t61.5 25q27 0 43.5 -15.5t16.5 -45.5z" />
    <glyph glyph-name="Rcaron" unicode="&#x158;" horiz-adv-x="690" 
d="M336 570l-42 -200h60q67 0 103 32.5t36 89.5q0 78 -97 78h-60zM516 255l109 -255h-185l-88 220h-90l-47 -220h-180l155 730h206q137 0 211.5 -66.5t74.5 -171.5q0 -45 -17 -85.5t-41 -66t-48.5 -44.5t-41.5 -28l-17 -8zM367 985l86 -100l124 100h117l-191 -195h-120
l-109 195h93z" />
    <glyph glyph-name="rcaron" unicode="&#x159;" horiz-adv-x="490" 
d="M393 390q-36 0 -70 -20t-51 -40l-16 -20l-66 -310h-175l113 530h170l-11 -62h5q2 3 6 8.5t18 18.5t30 23t41 18.5t52 8.5q33 0 60 -10t37 -20l11 -10l-65 -145q-24 30 -89 30zM259 785l86 -100l124 100h117l-191 -195h-120l-109 195h93z" />
    <glyph glyph-name="Sacute" unicode="&#x15a;" horiz-adv-x="605" 
d="M379 745q64 0 124.5 -20t88.5 -40l29 -20l-91 -145q-1 3 -4.5 7t-15 15.5t-26.5 20t-40.5 15.5t-54.5 7q-37 0 -62 -15.5t-25 -45.5q0 -17 19.5 -33.5t48.5 -30.5t63.5 -35.5t63.5 -46t48.5 -65t19.5 -90.5q0 -104 -77.5 -171t-221.5 -67q-46 0 -89.5 10.5t-73 25t-52 29
t-33.5 24.5l-10 11l90 140q2 -3 6.5 -8.5t19.5 -19.5t32 -24.5t45.5 -19t59.5 -8.5q58 0 86.5 20t28.5 53q0 20 -19.5 38.5t-48.5 33t-63 36.5t-63 47t-48.5 66t-19.5 92q0 91 76.5 152.5t188.5 61.5zM337 790l96 195h185l-166 -195h-115z" />
    <glyph glyph-name="sacute" unicode="&#x15b;" horiz-adv-x="510" 
d="M467 158q0 -71 -67.5 -122t-176.5 -51q-62 0 -120 17.5t-85 35.5l-26 17l58 130q5 -6 15 -15t49.5 -24.5t88.5 -15.5q83 0 83 38q0 14 -22.5 24t-55 21t-64.5 28t-54.5 52t-22.5 85q0 67 64.5 117t168.5 50q38 0 74 -7.5t60.5 -19t43.5 -22.5t28 -18l9 -8l-84 -115
q-3 5 -10.5 12.5t-36 20t-64.5 12.5q-35 0 -53.5 -10.5t-18.5 -26.5q0 -14 22.5 -24t55 -21t64.5 -27t54.5 -50.5t22.5 -82.5zM250 590l96 195h185l-166 -195h-115z" />
    <glyph glyph-name="Scedilla" unicode="&#x15e;" horiz-adv-x="605" 
d="M379 745q64 0 124.5 -20t88.5 -40l29 -20l-91 -145q-1 3 -4.5 7t-15 15.5t-26.5 20t-40.5 15.5t-54.5 7q-37 0 -62 -15.5t-25 -45.5q0 -17 19.5 -33.5t48.5 -30.5t63.5 -35.5t63.5 -46t48.5 -65t19.5 -90.5q0 -103 -76 -170t-218 -68l-14 -25q41 -6 65 -32.5t24 -61.5
q0 -54 -40.5 -90t-119.5 -36q-29 0 -54.5 5t-36.5 10l-11 5l15 70q22 -15 52 -15q53 0 53 41q0 17 -16.5 27t-33.5 11l-16 1l57 97q-54 9 -100.5 32.5t-66.5 41.5l-20 19l90 140q2 -3 6.5 -8.5t19.5 -19.5t32 -24.5t45.5 -19t59.5 -8.5q58 0 86.5 20t28.5 53
q0 20 -19.5 38.5t-48.5 33t-63 36.5t-63 47t-48.5 66t-19.5 92q0 91 76.5 152.5t188.5 61.5z" />
    <glyph glyph-name="scedilla" unicode="&#x15f;" horiz-adv-x="510" 
d="M467 158q0 -70 -66.5 -121t-174.5 -52l-14 -25q41 -6 65 -32.5t24 -61.5q0 -54 -40.5 -90t-119.5 -36q-29 0 -54.5 5t-36.5 10l-11 5l15 70q22 -15 52 -15q53 0 53 41q0 17 -16.5 27t-32.5 11l-17 1l57 97q-44 8 -83.5 23.5t-56.5 27.5l-18 12l58 130q5 -6 15 -15
t49.5 -24.5t88.5 -15.5q83 0 83 38q0 14 -22.5 24t-55 21t-64.5 28t-54.5 52t-22.5 85q0 67 64.5 117t168.5 50q38 0 74 -7.5t60.5 -19t43.5 -22.5t28 -18l9 -8l-84 -115q-3 5 -10.5 12.5t-36 20t-64.5 12.5q-35 0 -53.5 -10.5t-18.5 -26.5q0 -14 22.5 -24t55 -21t64.5 -27
t54.5 -50.5t22.5 -82.5z" />
    <glyph glyph-name="Scaron" unicode="&#x160;" horiz-adv-x="605" 
d="M379 745q64 0 124.5 -20t88.5 -40l29 -20l-91 -145q-1 3 -4.5 7t-15 15.5t-26.5 20t-40.5 15.5t-54.5 7q-37 0 -62 -15.5t-25 -45.5q0 -17 19.5 -33.5t48.5 -30.5t63.5 -35.5t63.5 -46t48.5 -65t19.5 -90.5q0 -104 -77.5 -171t-221.5 -67q-46 0 -89.5 10.5t-73 25t-52 29
t-33.5 24.5l-10 11l90 140q2 -3 6.5 -8.5t19.5 -19.5t32 -24.5t45.5 -19t59.5 -8.5q58 0 86.5 20t28.5 53q0 20 -19.5 38.5t-48.5 33t-63 36.5t-63 47t-48.5 66t-19.5 92q0 91 76.5 152.5t188.5 61.5zM322 985l86 -100l124 100h117l-191 -195h-120l-109 195h93z" />
    <glyph glyph-name="scaron" unicode="&#x161;" horiz-adv-x="510" 
d="M467 158q0 -71 -67.5 -122t-176.5 -51q-62 0 -120 17.5t-85 35.5l-26 17l58 130q5 -6 15 -15t49.5 -24.5t88.5 -15.5q83 0 83 38q0 14 -22.5 24t-55 21t-64.5 28t-54.5 52t-22.5 85q0 67 64.5 117t168.5 50q38 0 74 -7.5t60.5 -19t43.5 -22.5t28 -18l9 -8l-84 -115
q-3 5 -10.5 12.5t-36 20t-64.5 12.5q-35 0 -53.5 -10.5t-18.5 -26.5q0 -14 22.5 -24t55 -21t64.5 -27t54.5 -50.5t22.5 -82.5zM234 785l86 -100l124 100h117l-191 -195h-120l-109 195h93z" />
    <glyph glyph-name="Tcommaaccent" unicode="&#x162;" horiz-adv-x="670" 
d="M140 730h600l-34 -160h-210l-121 -570h-180l121 570h-210zM338 -116q0 -44 -31 -95.5t-85 -83.5h-55q7 6 17.5 15.5t30 36t23.5 48.5q-47 7 -47 53q0 37 25.5 62t61.5 25q27 0 43.5 -15.5t16.5 -45.5z" />
    <glyph glyph-name="tcommaaccent" unicode="&#x163;" horiz-adv-x="490" 
d="M85 190l40 185h-85l9 40l307 245h5l-28 -130h160l-33 -155h-160l-35 -162q-3 -14 -3 -25q0 -53 62 -53q22 0 44 8.5t32 17.5l11 9h15l-29 -140q-6 -5 -17 -12.5t-47 -20t-74 -12.5q-80 0 -130 40.5t-50 114.5q0 23 6 50zM288 -116q0 -44 -31 -95.5t-85 -83.5h-55
q7 6 17.5 15.5t30 36t23.5 48.5q-47 7 -47 53q0 37 25.5 62t61.5 25q27 0 43.5 -15.5t16.5 -45.5z" />
    <glyph glyph-name="Tcaron" unicode="&#x164;" horiz-adv-x="670" 
d="M140 730h600l-34 -160h-210l-121 -570h-180l121 570h-210zM367 985l86 -100l124 100h117l-191 -195h-120l-109 195h93z" />
    <glyph glyph-name="tcaron" unicode="&#x165;" horiz-adv-x="560" 
d="M85 190l40 185h-85l9 40l307 245h5l-28 -130h160l-33 -155h-160l-35 -162q-3 -14 -3 -25q0 -53 62 -53q22 0 44 8.5t32 17.5l11 9h15l-29 -140q-6 -5 -17 -12.5t-47 -20t-74 -12.5q-80 0 -130 40.5t-50 114.5q0 23 6 50zM671 629q0 -44 -31 -95.5t-85 -83.5h-55
q7 6 17.5 15.5t30 36t23.5 48.5q-47 7 -47 53q0 37 25.5 62t61.5 25q27 0 43.5 -15.5t16.5 -45.5z" />
    <glyph glyph-name="Umacron" unicode="&#x16a;" horiz-adv-x="790" 
d="M366 -15q-131 0 -209 64.5t-78 174.5q0 31 8 71l92 435h180l-92 -435q-5 -25 -5 -43q0 -51 30 -79t84 -28q64 0 110 39.5t61 110.5l92 435h180l-92 -435q-31 -146 -122.5 -228t-238.5 -82zM295 825l24 115h415l-24 -115h-415z" />
    <glyph glyph-name="umacron" unicode="&#x16b;" horiz-adv-x="675" 
d="M58 200l70 330h175l-65 -307q-3 -14 -3 -25q0 -30 18.5 -46.5t50.5 -16.5q46 0 85 32t50 84l59 279h175l-113 -530h-170l10 60h-5q-2 -3 -7 -8t-20.5 -18t-32.5 -23t-43 -18t-53 -8q-82 0 -134.5 44t-52.5 121q0 23 6 50zM192 625l24 115h415l-24 -115h-415z" />
    <glyph glyph-name="Uring" unicode="&#x16e;" horiz-adv-x="790" 
d="M366 -15q-131 0 -209 64.5t-78 174.5q0 31 8 71l92 435h180l-92 -435q-5 -25 -5 -43q0 -51 30 -79t84 -28q64 0 110 39.5t61 110.5l92 435h180l-92 -435q-31 -146 -122.5 -228t-238.5 -82zM479 886q0 -26 29 -26q19 0 31.5 11t12.5 33q0 26 -29 26q-19 0 -31.5 -11
t-12.5 -33zM649 904q0 -58 -43 -96t-98 -38q-60 0 -93 32t-33 84q0 58 43 96t98 38q60 0 93 -32t33 -84z" />
    <glyph glyph-name="uring" unicode="&#x16f;" horiz-adv-x="675" 
d="M58 200l70 330h175l-65 -307q-3 -14 -3 -25q0 -30 18.5 -46.5t50.5 -16.5q46 0 85 32t50 84l59 279h175l-113 -530h-170l10 60h-5q-2 -3 -7 -8t-20.5 -18t-32.5 -23t-43 -18t-53 -8q-82 0 -134.5 44t-52.5 121q0 23 6 50zM377 688q0 -26 29 -26q19 0 31.5 11t12.5 33
q0 26 -29 26q-19 0 -31.5 -11t-12.5 -33zM547 706q0 -58 -43 -96t-98 -38q-60 0 -93 32t-33 84q0 58 43 96t98 38q60 0 93 -32t33 -84z" />
    <glyph glyph-name="Uhungarumlaut" unicode="&#x170;" horiz-adv-x="790" 
d="M366 -15q-131 0 -209 64.5t-78 174.5q0 31 8 71l92 435h180l-92 -435q-5 -25 -5 -43q0 -51 30 -79t84 -28q64 0 110 39.5t61 110.5l92 435h180l-92 -435q-31 -146 -122.5 -228t-238.5 -82zM357 790l96 195h165l-166 -195h-95zM527 790l136 195h180l-201 -195h-115z" />
    <glyph glyph-name="uhungarumlaut" unicode="&#x171;" horiz-adv-x="675" 
d="M58 200l70 330h175l-65 -307q-3 -14 -3 -25q0 -30 18.5 -46.5t50.5 -16.5q46 0 85 32t50 84l59 279h175l-113 -530h-170l10 60h-5q-2 -3 -7 -8t-20.5 -18t-32.5 -23t-43 -18t-53 -8q-82 0 -134.5 44t-52.5 121q0 23 6 50zM250 590l96 195h165l-166 -195h-95zM420 590
l136 195h180l-201 -195h-115z" />
    <glyph glyph-name="Uogonek" unicode="&#x172;" horiz-adv-x="790" 
d="M727 295q-27 -125 -98 -203.5t-184 -99.5q-4 -2 -11 -6t-25.5 -17.5t-32 -29t-25 -39.5t-11.5 -49q0 -36 35 -36q11 0 23 2.5t18 4.5l7 3l-14 -65q-29 -20 -85 -20q-61 0 -90 25t-29 66q0 29 13.5 55.5t32.5 43.5t38 30.5t33 19.5l13 6q-118 8 -187 71.5t-69 166.5
q0 31 8 71l92 435h180l-92 -435q-5 -25 -5 -43q0 -51 30 -79t84 -28q64 0 110 39.5t61 110.5l92 435h180z" />
    <glyph glyph-name="uogonek" unicode="&#x173;" horiz-adv-x="675" 
d="M128 530h175l-65 -307q-3 -14 -3 -25q0 -30 18.5 -46.5t50.5 -16.5q46 0 85 32t50 84l59 279h175l-113 -530q-5 -2 -13 -6t-28.5 -18.5t-36.5 -30.5t-29 -41.5t-13 -52.5q0 -36 35 -36q11 0 23 2.5t18 4.5l7 3l-14 -65q-29 -20 -85 -20q-61 0 -90 25t-29 66q0 33 17 62.5
t41 48t48.5 32.5t41.5 20l17 6h-80l9 60h-5q-2 -3 -7 -8t-20 -18t-32 -23t-43 -18t-53 -8q-82 0 -134.5 44t-52.5 121q0 23 6 50z" />
    <glyph glyph-name="Ydieresis" unicode="&#x178;" horiz-adv-x="725" 
d="M459 300l-64 -300h-180l64 300l-174 430h187l105 -270l210 270h208zM275 868q0 43 31 72.5t76 29.5q32 0 50 -18.5t18 -49.5q0 -43 -31 -72.5t-76 -29.5q-32 0 -50 18.5t-18 49.5zM495 868q0 43 31 72.5t76 29.5q32 0 50 -18.5t18 -49.5q0 -43 -31 -72.5t-76 -29.5
q-32 0 -50 18.5t-18 49.5z" />
    <glyph glyph-name="Zacute" unicode="&#x179;" horiz-adv-x="710" 
d="M34 135l427 435h-315l34 160h570l-29 -135l-427 -435h345l-34 -160h-600zM397 790l96 195h185l-166 -195h-115z" />
    <glyph glyph-name="zacute" unicode="&#x17a;" horiz-adv-x="600" 
d="M85 375l33 155h490l-26 -120l-289 -255h245l-33 -155h-515l26 120l289 255h-220zM300 590l96 195h185l-166 -195h-115z" />
    <glyph glyph-name="Zdotaccent" unicode="&#x17b;" horiz-adv-x="710" 
d="M34 135l427 435h-315l34 160h570l-29 -135l-427 -435h345l-34 -160h-600zM395 868q0 43 31 72.5t76 29.5q32 0 50 -18.5t18 -49.5q0 -43 -31 -72.5t-76 -29.5q-32 0 -50 18.5t-18 49.5z" />
    <glyph glyph-name="zdotaccent" unicode="&#x17c;" horiz-adv-x="600" 
d="M85 375l33 155h490l-26 -120l-289 -255h245l-33 -155h-515l26 120l289 255h-220zM292 668q0 43 31 72.5t76 29.5q32 0 50 -18.5t18 -49.5q0 -43 -31 -72.5t-76 -29.5q-32 0 -50 18.5t-18 49.5z" />
    <glyph glyph-name="Zcaron" unicode="&#x17d;" horiz-adv-x="710" 
d="M34 135l427 435h-315l34 160h570l-29 -135l-427 -435h345l-34 -160h-600zM387 985l86 -100l124 100h117l-191 -195h-120l-109 195h93z" />
    <glyph glyph-name="zcaron" unicode="&#x17e;" horiz-adv-x="600" 
d="M85 375l33 155h490l-26 -120l-289 -255h245l-33 -155h-515l26 120l289 255h-220zM284 785l86 -100l124 100h117l-191 -195h-120l-109 195h93z" />
    <glyph glyph-name="florin" unicode="&#x192;" horiz-adv-x="466" 
d="M194 530l13 60q21 93 88.5 151.5t162.5 58.5q33 0 65 -11t47 -23l16 -11l-8 -150q-52 45 -107 45q-77 0 -94 -70l-13 -50h145l-8 -155h-169l-85 -375q-26 -112 -98.5 -173.5t-188.5 -61.5l8 150q86 7 104 85l85 375h-81l8 155h110z" />
    <glyph glyph-name="Scommaaccent" unicode="&#x218;" horiz-adv-x="605" 
d="M379 745q64 0 124.5 -20t88.5 -40l29 -20l-91 -145q-1 3 -4.5 7t-15 15.5t-26.5 20t-40.5 15.5t-54.5 7q-37 0 -62 -15.5t-25 -45.5q0 -17 19.5 -33.5t48.5 -30.5t63.5 -35.5t63.5 -46t48.5 -65t19.5 -90.5q0 -104 -77.5 -171t-221.5 -67q-46 0 -89.5 10.5t-73 25t-52 29
t-33.5 24.5l-10 11l90 140q2 -3 6.5 -8.5t19.5 -19.5t32 -24.5t45.5 -19t59.5 -8.5q58 0 86.5 20t28.5 53q0 20 -19.5 38.5t-48.5 33t-63 36.5t-63 47t-48.5 66t-19.5 92q0 91 76.5 152.5t188.5 61.5zM318 -116q0 -44 -31 -95.5t-85 -83.5h-55q7 6 17.5 15.5t30 36
t23.5 48.5q-47 7 -47 53q0 37 25.5 62t61.5 25q27 0 43.5 -15.5t16.5 -45.5z" />
    <glyph glyph-name="scommaaccent" unicode="&#x219;" horiz-adv-x="510" 
d="M467 158q0 -71 -67.5 -122t-176.5 -51q-62 0 -120 17.5t-85 35.5l-26 17l58 130q5 -6 15 -15t49.5 -24.5t88.5 -15.5q83 0 83 38q0 14 -22.5 24t-55 21t-64.5 28t-54.5 52t-22.5 85q0 67 64.5 117t168.5 50q38 0 74 -7.5t60.5 -19t43.5 -22.5t28 -18l9 -8l-84 -115
q-3 5 -10.5 12.5t-36 20t-64.5 12.5q-35 0 -53.5 -10.5t-18.5 -26.5q0 -14 22.5 -24t55 -21t64.5 -27t54.5 -50.5t22.5 -82.5zM258 -116q0 -44 -31 -95.5t-85 -83.5h-55q7 6 17.5 15.5t30 36t23.5 48.5q-47 7 -47 53q0 37 25.5 62t61.5 25q27 0 43.5 -15.5t16.5 -45.5z" />
    <glyph glyph-name="uni021A" unicode="&#x21a;" horiz-adv-x="670" 
d="M140 730h600l-34 -160h-210l-121 -570h-180l121 570h-210zM338 -116q0 -44 -31 -95.5t-85 -83.5h-55q7 6 17.5 15.5t30 36t23.5 48.5q-47 7 -47 53q0 37 25.5 62t61.5 25q27 0 43.5 -15.5t16.5 -45.5z" />
    <glyph glyph-name="uni021B" unicode="&#x21b;" horiz-adv-x="490" 
d="M85 190l40 185h-85l9 40l307 245h5l-28 -130h160l-33 -155h-160l-35 -162q-3 -14 -3 -25q0 -53 62 -53q22 0 44 8.5t32 17.5l11 9h15l-29 -140q-6 -5 -17 -12.5t-47 -20t-74 -12.5q-80 0 -130 40.5t-50 114.5q0 23 6 50zM288 -116q0 -44 -31 -95.5t-85 -83.5h-55
q7 6 17.5 15.5t30 36t23.5 48.5q-47 7 -47 53q0 37 25.5 62t61.5 25q27 0 43.5 -15.5t16.5 -45.5z" />
    <glyph glyph-name="afii57929" unicode="&#x2bc;" horiz-adv-x="205" 
d="M279 734q0 -44 -31 -95.5t-85 -83.5h-55q7 6 17.5 15.5t30 36t23.5 48.5q-47 7 -47 53q0 37 25.5 62t61.5 25q27 0 43.5 -15.5t16.5 -45.5z" />
    <glyph glyph-name="circumflex" unicode="&#x2c6;" horiz-adv-x="480" 
d="M432 590l-86 100l-124 -100h-117l191 195h120l109 -195h-93z" />
    <glyph glyph-name="caron" unicode="&#x2c7;" horiz-adv-x="480" 
d="M240 785l86 -100l124 100h117l-191 -195h-120l-109 195h93z" />
    <glyph glyph-name="breve" unicode="&#x2d8;" horiz-adv-x="400" 
d="M304 725q44 0 90 15t70 30l23 15l-26 -120q-6 -6 -19 -14t-57.5 -22t-95.5 -14q-47 0 -89 12.5t-60 24.5l-19 13l26 120q6 -7 18.5 -17t53.5 -26.5t85 -16.5z" />
    <glyph glyph-name="dotaccent" unicode="&#x2d9;" horiz-adv-x="230" 
d="M123 668q0 43 31 72.5t76 29.5q32 0 50 -18.5t18 -49.5q0 -43 -31 -72.5t-76 -29.5q-32 0 -50 18.5t-18 49.5z" />
    <glyph glyph-name="ring" unicode="&#x2da;" horiz-adv-x="320" 
d="M219 676q0 -26 29 -26q19 0 31.5 11t12.5 33q0 26 -29 26q-19 0 -31.5 -11t-12.5 -33zM389 694q0 -58 -43 -96t-98 -38q-60 0 -93 32t-33 84q0 58 43 96t98 38q60 0 93 -32t33 -84z" />
    <glyph glyph-name="ogonek" unicode="&#x2db;" horiz-adv-x="280" 
d="M110 0h90q-5 -2 -13 -6t-28.5 -18.5t-36.5 -30.5t-29 -41.5t-13 -52.5q0 -36 35 -36q11 0 23 2.5t18 4.5l7 3l-14 -65q-29 -20 -85 -20q-61 0 -90 25t-29 66q0 33 17 62.5t41 48t48.5 32.5t41.5 20z" />
    <glyph glyph-name="tilde" unicode="&#x2dc;" horiz-adv-x="450" 
d="M223 650q-24 0 -52.5 -11t-44.5 -23l-17 -11l25 120q4 6 13 14t39.5 22t66.5 14q41 0 85 -25t81 -25q24 0 52.5 11.5t44.5 22.5l17 11l-25 -120q-4 -6 -13 -14t-39.5 -22t-66.5 -14q-41 0 -85 25t-81 25z" />
    <glyph glyph-name="hungarumlaut" unicode="&#x2dd;" horiz-adv-x="505" 
d="M105 590l96 195h165l-166 -195h-95zM275 590l136 195h180l-201 -195h-115z" />
    <glyph glyph-name="afii10023" unicode="&#x401;" horiz-adv-x="650" 
d="M35 0l155 730h505l-34 -160h-325l-26 -125h250l-34 -160h-250l-27 -125h325l-34 -160h-505zM270 868q0 43 31 72.5t76 29.5q32 0 50 -18.5t18 -49.5q0 -43 -31 -72.5t-76 -29.5q-32 0 -50 18.5t-18 49.5zM490 868q0 43 31 72.5t76 29.5q32 0 50 -18.5t18 -49.5
q0 -43 -31 -72.5t-76 -29.5q-32 0 -50 18.5t-18 49.5z" />
    <glyph glyph-name="afii10051" unicode="&#x402;" horiz-adv-x="825" 
d="M675 730l-34 -160h-215l-27 -127q55 27 155 27q112 0 175.5 -61.5t63.5 -167.5q0 -125 -82 -196t-225 -85l9 160q50 4 81 31t31 80q0 74 -113 74q-34 0 -67 -8.5t-49 -17.5l-16 -9l-57 -270h-180l121 570h-155l34 160h550z" />
    <glyph glyph-name="afii10052" unicode="&#x403;" horiz-adv-x="560" 
d="M357 790l96 195h185l-166 -195h-115zM190 730h445l-34 -160h-265l-121 -570h-180z" />
    <glyph glyph-name="afii10053" unicode="&#x404;" horiz-adv-x="734" 
d="M549 445l-34 -160h-261q11 -65 58.5 -102.5t122.5 -37.5q56 0 110 25t81 50l26 25h20l-37 -170q-3 -4 -8 -10t-26 -21.5t-46 -27.5t-68 -21.5t-92 -9.5q-139 0 -235.5 97.5t-96.5 238.5q0 115 62 213t164.5 154.5t219.5 56.5q53 0 101 -10t78 -23.5t52.5 -27.5t32.5 -24
l10 -10l-95 -140q-2 3 -5 8t-16.5 18t-30 23t-45 18t-62.5 8q-81 0 -147 -38t-100 -102h267z" />
    <glyph glyph-name="afii10054" unicode="&#x405;" horiz-adv-x="605" 
d="M379 745q64 0 124.5 -20t88.5 -40l29 -20l-91 -145q-1 3 -4.5 7t-15 15.5t-26.5 20t-40.5 15.5t-54.5 7q-37 0 -62 -15.5t-25 -45.5q0 -17 19.5 -33.5t48.5 -30.5t63.5 -35.5t63.5 -46t48.5 -65t19.5 -90.5q0 -104 -77.5 -171t-221.5 -67q-46 0 -89.5 10.5t-73 25t-52 29
t-33.5 24.5l-10 11l90 140q2 -3 6.5 -8.5t19.5 -19.5t32 -24.5t45.5 -19t59.5 -8.5q58 0 86.5 20t28.5 53q0 20 -19.5 38.5t-48.5 33t-63 36.5t-63 47t-48.5 66t-19.5 92q0 91 76.5 152.5t188.5 61.5z" />
    <glyph glyph-name="afii10055" unicode="&#x406;" horiz-adv-x="350" 
d="M370 730l-155 -730h-180l155 730h180z" />
    <glyph glyph-name="afii10056" unicode="&#x407;" horiz-adv-x="350" 
d="M370 730l-155 -730h-180l155 730h180zM105 868q0 43 31 72.5t76 29.5q32 0 50 -18.5t18 -49.5q0 -43 -31 -72.5t-76 -29.5q-32 0 -50 18.5t-18 49.5zM325 868q0 43 31 72.5t76 29.5q32 0 50 -18.5t18 -49.5q0 -43 -31 -72.5t-76 -29.5q-32 0 -50 18.5t-18 49.5z" />
    <glyph glyph-name="afii10057" unicode="&#x408;" horiz-adv-x="360" 
d="M56 50l145 680h180l-145 -680q-25 -119 -88.5 -176.5t-203.5 -68.5l9 160q47 4 70 22.5t33 62.5z" />
    <glyph glyph-name="afii10058" unicode="&#x409;" horiz-adv-x="1040" 
d="M396 570l-75 -260q-26 -90 -53 -147t-67 -98t-92.5 -60t-129.5 -25l1 160q57 8 95.5 46t65.5 124l129 420h495l-44 -210h6q138 0 211.5 -66.5t73.5 -174.5q0 -120 -93 -199.5t-235 -79.5h-254l121 570h-155zM687 360l-43 -200h40q61 0 100 33.5t39 85.5q0 37 -25.5 59
t-70.5 22h-40z" />
    <glyph glyph-name="afii10059" unicode="&#x40a;" horiz-adv-x="1075" 
d="M800 730l-53 -250h26q132 0 200.5 -61t68.5 -163q0 -112 -84.5 -184t-218.5 -72h-274l68 320h-250l-68 -320h-180l155 730h180l-53 -250h250l53 250h180zM713 320l-34 -160h60q52 0 83 26t31 70q0 30 -20.5 47t-59.5 17h-60z" />
    <glyph glyph-name="afii10060" unicode="&#x40b;" horiz-adv-x="855" 
d="M426 570l-27 -127q55 27 155 27q106 0 170 -55t64 -154q0 -31 -8 -71l-40 -190h-180l40 190q3 15 3 29q0 41 -27.5 63.5t-81.5 22.5q-33 0 -66 -8.5t-50 -17.5l-16 -9l-57 -270h-180l121 570h-155l34 160h550l-34 -160h-215z" />
    <glyph glyph-name="afii10061" unicode="&#x40c;" horiz-adv-x="745" 
d="M370 730l-69 -325l324 325h210l-366 -365l236 -365h-200l-217 345l-73 -345h-180l155 730h180zM432 790l96 195h185l-166 -195h-115z" />
    <glyph glyph-name="afii10062" unicode="&#x40e;" horiz-adv-x="710" 
d="M264 210l-158 520h177l106 -352h5l216 352h205l-359 -540q-72 -109 -138 -157t-149 -48q-21 0 -38.5 2.5t-24.5 4.5l-7 3l14 160q18 -10 53 -10q27 0 51.5 16.5t35.5 32.5zM480 895q47 0 92.5 15t67.5 30l23 15l-26 -120q-6 -6 -19 -14t-57.5 -22t-95.5 -14
q-47 0 -89 12.5t-60 24.5l-19 13l26 120q6 -7 17.5 -17t52 -26.5t87.5 -16.5z" />
    <glyph glyph-name="afii10145" unicode="&#x40f;" horiz-adv-x="810" 
d="M265 0h-230l155 730h180l-121 -570h280l121 570h180l-155 -730h-230l-32 -150h-180z" />
    <glyph glyph-name="afii10017" unicode="&#x410;" horiz-adv-x="790" 
d="M463 485h-5l-127 -195h177zM541 140h-307l-91 -140h-203l490 730h145l180 -730h-182z" />
    <glyph glyph-name="afii10018" unicode="&#x411;" horiz-adv-x="675" 
d="M283 320l-36 -170h80q57 0 89 27.5t32 75.5q0 67 -85 67h-80zM336 570l-21 -100h48q134 0 203.5 -60t69.5 -157q0 -109 -85.5 -181t-223.5 -72h-292l155 730h485l-34 -160h-305z" />
    <glyph glyph-name="afii10019" unicode="&#x412;" horiz-adv-x="675" 
d="M190 730h218q261 0 261 -183q0 -35 -13.5 -65t-32.5 -47t-38.5 -29t-32.5 -16l-14 -5l-1 -5q4 -1 10.5 -4.5t23 -16t29 -29t23 -46t10.5 -64.5q0 -99 -77 -159.5t-219 -60.5h-302zM279 300l-32 -150h90q53 0 83 23.5t30 66.5q0 60 -81 60h-90zM408 580h-70l-27 -130h70
q43 0 69 21t26 56q0 53 -68 53z" />
    <glyph glyph-name="afii10020" unicode="&#x413;" horiz-adv-x="560" 
d="M190 730h445l-34 -160h-265l-121 -570h-180z" />
    <glyph glyph-name="afii10021" unicode="&#x414;" horiz-adv-x="805" 
d="M-72 -150l66 310h60q3 2 7 6t17 19t24.5 33.5t25.5 51t24 70.5l103 390h540l-121 -570h90l-66 -310h-180l32 150h-410l-32 -150h-180zM388 570l-56 -230q-15 -60 -38 -105t-39 -60l-16 -15h255l87 410h-193z" />
    <glyph glyph-name="afii10022" unicode="&#x415;" horiz-adv-x="650" 
d="M35 0l155 730h505l-34 -160h-325l-26 -125h250l-34 -160h-250l-27 -125h325l-34 -160h-505z" />
    <glyph glyph-name="afii10024" unicode="&#x416;" horiz-adv-x="1080" 
d="M488 415l67 315h180l-67 -315l282 315h220l-348 -364l218 -366h-190l-200 330l-70 -330h-180l70 330l-310 -330h-220l373 398l-193 332h185z" />
    <glyph glyph-name="afii10025" unicode="&#x417;" horiz-adv-x="610" 
d="M194 300l32 150h95q48 0 74 21.5t26 58.5q0 55 -72 55q-47 0 -97.5 -18.5t-77.5 -37.5l-27 -19h-19l35 165q3 3 9 7.5t27 16.5t44.5 21.5t61.5 17t79 7.5q103 0 167 -55t64 -130q0 -38 -13.5 -70t-33 -51t-39 -32.5t-33.5 -18.5l-13 -6l-1 -5q3 -1 9 -4.5t21 -16
t26 -28.5t20.5 -44.5t9.5 -61.5q0 -99 -84.5 -168t-217.5 -69q-46 0 -90.5 11t-75 26t-54.5 30.5t-36 26.5l-11 11l79 135q2 -3 6.5 -8.5t20 -19.5t34 -24.5t48.5 -19t64 -8.5q66 0 99 24t33 63q0 30 -25.5 49t-73.5 19h-90z" />
    <glyph glyph-name="afii10026" unicode="&#x418;" horiz-adv-x="830" 
d="M850 730l-155 -730h-180l91 426l-396 -426h-175l155 730h180l-91 -426l396 426h175z" />
    <glyph glyph-name="afii10027" unicode="&#x419;" horiz-adv-x="830" 
d="M850 730l-155 -730h-180l91 426l-396 -426h-175l155 730h180l-91 -426l396 426h175zM545 895q47 0 92.5 15t68.5 30l22 15l-26 -120q-6 -6 -19 -14t-57.5 -22t-95.5 -14q-47 0 -89 12.5t-61 24.5l-18 13l26 120q6 -7 17.5 -17t52 -26.5t87.5 -16.5z" />
    <glyph glyph-name="afii10028" unicode="&#x41a;" horiz-adv-x="745" 
d="M370 730l-69 -325l324 325h210l-366 -365l236 -365h-200l-217 345l-73 -345h-180l155 730h180z" />
    <glyph glyph-name="afii10029" unicode="&#x41b;" horiz-adv-x="770" 
d="M396 570l-75 -260q-51 -177 -122 -248t-220 -82l1 160q57 8 95.5 46t65.5 124l129 420h520l-155 -730h-180l121 570h-180z" />
    <glyph glyph-name="afii10030" unicode="&#x41c;" horiz-adv-x="990" 
d="M510 300l245 430h190l-50 -730h-185l41 430h-5l-241 -430h-115l-51 430h-5l-141 -430h-193l260 730h191l54 -430h5z" />
    <glyph glyph-name="afii10031" unicode="&#x41d;" horiz-adv-x="810" 
d="M830 730l-155 -730h-180l61 287h-280l-61 -287h-180l155 730h180l-60 -283h280l60 283h180z" />
    <glyph glyph-name="afii10032" unicode="&#x41e;" horiz-adv-x="880" 
d="M251 321q0 -78 46.5 -127t122.5 -49q106 0 184.5 76.5t78.5 187.5q0 78 -46.5 127t-122.5 49q-106 0 -184.5 -76.5t-78.5 -187.5zM871 409q0 -115 -62.5 -213.5t-166.5 -154.5t-222 -56q-162 0 -259.5 95.5t-97.5 240.5q0 115 62.5 213.5t166.5 154.5t222 56
q162 0 259.5 -95.5t97.5 -240.5z" />
    <glyph glyph-name="afii10033" unicode="&#x41f;" horiz-adv-x="810" 
d="M830 730l-155 -730h-180l121 570h-280l-121 -570h-180l155 730h640z" />
    <glyph glyph-name="afii10034" unicode="&#x420;" horiz-adv-x="675" 
d="M258 200l-43 -200h-180l155 730h206q138 0 211.5 -67t73.5 -177q0 -124 -92.5 -205t-236.5 -81h-94zM336 570l-44 -210h60q62 0 101 35t39 91q0 39 -25.5 61.5t-70.5 22.5h-60z" />
    <glyph glyph-name="afii10035" unicode="&#x421;" horiz-adv-x="735" 
d="M251 321q0 -79 49.5 -127.5t134.5 -48.5q56 0 110 25t81 50l26 25h20l-37 -170q-3 -4 -8 -10t-26 -21.5t-46 -27.5t-68 -21.5t-92 -9.5q-139 0 -235.5 97.5t-96.5 238.5q0 115 62 213t164.5 154.5t219.5 56.5q53 0 101 -10t78 -23.5t52.5 -27.5t32.5 -24l10 -10l-95 -140
q-2 3 -5 8t-16.5 18t-30 23t-45 18t-62.5 8q-118 0 -198 -76t-80 -188z" />
    <glyph glyph-name="afii10036" unicode="&#x422;" horiz-adv-x="670" 
d="M140 730h600l-34 -160h-210l-121 -570h-180l121 570h-210z" />
    <glyph glyph-name="afii10037" unicode="&#x423;" horiz-adv-x="710" 
d="M264 210l-158 520h177l106 -352h5l216 352h205l-359 -540q-72 -109 -138 -157t-149 -48q-21 0 -38.5 2.5t-24.5 4.5l-7 3l14 160q18 -10 53 -10q27 0 51.5 16.5t35.5 32.5z" />
    <glyph glyph-name="afii10038" unicode="&#x424;" horiz-adv-x="970" 
d="M393 225l66 310q-108 -4 -160.5 -54t-52.5 -135q0 -115 147 -121zM523 -10h-180l16 75q-137 3 -219 82t-82 199q0 150 114.5 247.5t320.5 101.5l16 75h180l-16 -75q137 -3 219 -81.5t82 -199.5q0 -150 -114.5 -247.5t-320.5 -101.5zM639 535l-66 -310q108 4 160.5 54
t52.5 135q0 115 -147 121z" />
    <glyph glyph-name="afii10039" unicode="&#x425;" horiz-adv-x="760" 
d="M830 730l-318 -365l178 -365h-195l-108 231l-192 -231h-225l336 387l-166 343h195l97 -209l173 209h225z" />
    <glyph glyph-name="afii10040" unicode="&#x426;" horiz-adv-x="820" 
d="M35 0l155 730h180l-121 -570h260l121 570h180l-121 -570h90l-66 -310h-180l32 150h-530z" />
    <glyph glyph-name="afii10041" unicode="&#x427;" horiz-adv-x="775" 
d="M460 0l50 237q-55 -27 -155 -27q-106 0 -170 55t-64 154q0 31 8 71l51 240h180l-51 -240q-3 -15 -3 -29q0 -41 27.5 -63.5t81.5 -22.5q33 0 66 8.5t49 17.5l17 9l68 320h180l-155 -730h-180z" />
    <glyph glyph-name="afii10042" unicode="&#x428;" horiz-adv-x="1160" 
d="M35 0l155 730h180l-121 -570h225l121 570h180l-121 -570h225l121 570h180l-155 -730h-990z" />
    <glyph glyph-name="afii10043" unicode="&#x429;" horiz-adv-x="1190" 
d="M35 0l155 730h180l-121 -570h225l121 570h180l-121 -570h225l121 570h180l-121 -570h90l-66 -310h-180l32 150h-900z" />
    <glyph glyph-name="afii10044" unicode="&#x42a;" horiz-adv-x="725" 
d="M440 730l-44 -210h16q138 0 211.5 -66.5t73.5 -174.5q0 -120 -93 -199.5t-235 -79.5h-264l121 570h-135l34 160h315zM362 360l-43 -200h50q60 0 99.5 33.5t39.5 85.5q0 37 -25.5 59t-70.5 22h-50z" />
    <glyph glyph-name="afii10045" unicode="&#x42b;" horiz-adv-x="965" 
d="M985 730l-155 -730h-180l155 730h180zM370 730l-44 -210h16q138 0 211.5 -66.5t73.5 -174.5q0 -120 -93 -199.5t-235 -79.5h-264l155 730h180zM292 360l-43 -200h50q60 0 99.5 33.5t39.5 85.5q0 37 -25.5 59t-70.5 22h-50z" />
    <glyph glyph-name="afii10046" unicode="&#x42c;" horiz-adv-x="665" 
d="M370 730l-44 -210h26q138 0 211.5 -66.5t73.5 -174.5q0 -120 -93 -199.5t-235 -79.5h-274l155 730h180zM292 360l-43 -200h60q60 0 99.5 33.5t39.5 85.5q0 37 -25.5 59t-70.5 22h-60z" />
    <glyph glyph-name="afii10047" unicode="&#x42d;" horiz-adv-x="750" 
d="M250 285l34 160h262q-11 64 -59 102t-122 38q-56 0 -110 -25t-81 -50l-26 -25h-20l37 170q3 4 8 10t26 21.5t46 27.5t68 21.5t92 9.5q139 0 235.5 -97.5t96.5 -238.5q0 -115 -62 -213t-164.5 -154.5t-219.5 -56.5q-53 0 -102 11t-81.5 26t-57 30.5t-35.5 26.5l-11 11
l90 140q2 -3 6.5 -9t21 -20.5t35.5 -26t49.5 -20.5t64.5 -9q81 0 146.5 37.5t100.5 102.5h-268z" />
    <glyph glyph-name="afii10048" unicode="&#x42e;" horiz-adv-x="1145" 
d="M1132 414q0 -119 -61 -218.5t-160 -155t-210 -55.5q-151 0 -241 88t-96 217h-82l-62 -290h-180l155 730h180l-60 -285h68q44 130 158 215t253 85q154 0 246 -93t92 -238zM701 145q96 0 169.5 77t73.5 192q0 78 -41.5 124.5t-108.5 46.5q-96 0 -169.5 -77t-73.5 -192
q0 -78 41.5 -124.5t108.5 -46.5z" />
    <glyph glyph-name="afii10049" unicode="&#x42f;" horiz-adv-x="695" 
d="M459 370l42 200h-60q-67 0 -103 -32.5t-36 -89.5q0 -78 97 -78h60zM-30 0l231 265l1 5q-4 2 -9.5 6t-20.5 19.5t-26.5 34t-21 50.5t-9.5 68q0 122 91 202t235 80h274l-155 -730h-180l47 220h-58l-182 -220h-217z" />
    <glyph glyph-name="afii10065" unicode="&#x430;" horiz-adv-x="665" 
d="M416 190l40 190h-85q-70 0 -112.5 -42t-42.5 -111q0 -42 26 -67t67 -25q27 0 53.5 13.5t39.5 27.5zM380 0l10 60h-5q-2 -3 -6.5 -8t-19.5 -18t-32 -23t-43.5 -18t-54.5 -8q-81 0 -136.5 61t-55.5 161q0 147 94 235t250 88h282l-113 -530h-170z" />
    <glyph glyph-name="afii10066" unicode="&#x431;" horiz-adv-x="680" 
d="M319 135q59 0 101.5 41t42.5 105q0 43 -25.5 68.5t-67.5 25.5q-59 0 -101.5 -41t-42.5 -105q0 -43 25.5 -68.5t67.5 -25.5zM416 525q110 0 171 -67t61 -177q0 -125 -96 -210.5t-233 -85.5q-129 0 -198 75t-69 204t36.5 228.5t98 157t136 86.5t158.5 29q53 0 108 8.5
t83 17.5l28 9l-35 -165q-6 -5 -19 -12.5t-64.5 -20t-115.5 -12.5q-85 0 -133.5 -31t-75.5 -89h10q6 6 17.5 15t50 24.5t81.5 15.5z" />
    <glyph glyph-name="afii10067" unicode="&#x432;" horiz-adv-x="610" 
d="M15 0l113 530h243q209 0 209 -134q0 -25 -9.5 -47t-22.5 -35t-26 -22.5t-22 -13.5l-10 -3l-2 -5q3 -1 8 -3t17 -10t21.5 -18.5t17.5 -29.5t8 -41q0 -75 -62 -121.5t-187 -46.5h-296zM387 178q0 19 -14.5 30.5t-40.5 11.5h-95l-21 -100h95q34 0 55 16t21 42zM342 410h-65
l-19 -90h65q71 0 71 56q0 34 -52 34z" />
    <glyph glyph-name="afii10068" unicode="&#x433;" horiz-adv-x="495" 
d="M505 375h-235l-80 -375h-175l113 530h410z" />
    <glyph glyph-name="afii10069" unicode="&#x434;" horiz-adv-x="675" 
d="M-68 -130l60 280h55q2 1 5.5 4t14 14t19.5 24t19.5 35.5t17.5 47.5l69 255h445l-80 -380h80l-60 -280h-175l28 130h-295l-28 -130h-175zM315 380l-27 -105q-10 -40 -28 -71.5t-30 -42.5l-13 -11h165l48 230h-115z" />
    <glyph glyph-name="afii10070" unicode="&#x435;" horiz-adv-x="630" 
d="M362 545q110 0 173.5 -59.5t63.5 -165.5q0 -38 -9 -85h-391q0 -15 3.5 -29t15.5 -33.5t41 -31t73 -11.5q53 0 100 14t67 28l20 13h15l-30 -140q-2 -2 -7 -6.5t-23 -14.5t-40 -18t-60.5 -14.5t-81.5 -6.5q-112 0 -182.5 71.5t-70.5 178.5q0 130 95 220t228 90zM372 410
q-52 0 -90 -23t-57 -57h225q1 4 1 12q0 28 -21.5 48t-57.5 20z" />
    <glyph glyph-name="afii10072" unicode="&#x436;" horiz-adv-x="915" 
d="M700 0l-154 240l-51 -240h-175l51 240l-226 -240h-205l272 289l-144 241h170l144 -240l51 240h175l-51 -240l216 240h200l-260 -267l162 -263h-175z" />
    <glyph glyph-name="afii10073" unicode="&#x437;" horiz-adv-x="535" 
d="M240 210h-70l24 115h60q80 0 80 47q0 33 -63 33q-42 0 -85 -13.5t-64 -27.5l-22 -14h-15l29 140q7 6 21 15t63.5 24.5t107.5 15.5q106 0 158.5 -40.5t52.5 -103.5q0 -27 -10 -50t-24 -36t-28 -22t-24 -13l-10 -3l-1 -5q2 -1 6.5 -3.5t15 -12t18.5 -21.5t14.5 -32t6.5 -44
q0 -77 -67.5 -125.5t-188.5 -48.5q-59 0 -117 18.5t-86 37.5l-29 19l67 125l6.5 -6.5t20 -14.5t33 -18t45.5 -14.5t57 -6.5q85 0 85 49q0 36 -67 36z" />
    <glyph glyph-name="afii10074" unicode="&#x438;" horiz-adv-x="680" 
d="M452 285l-272 -285h-165l113 530h175l-62 -285l272 285h165l-113 -530h-175z" />
    <glyph glyph-name="afii10075" unicode="&#x439;" horiz-adv-x="680" 
d="M452 285l-272 -285h-165l113 530h175l-62 -285l272 285h165l-113 -530h-175zM413 595q-38 0 -74 10t-53 20l-17 10l26 120q6 -6 17 -15t45.5 -24.5t70.5 -15.5t75 14t61 28l21 13l-26 -120q-6 -4 -17 -11t-49 -18t-80 -11z" />
    <glyph glyph-name="afii10076" unicode="&#x43a;" horiz-adv-x="620" 
d="M412 259l168 -259h-175l-163 245l-52 -245h-175l113 530h175l-52 -245l227 245h200z" />
    <glyph glyph-name="afii10077" unicode="&#x43b;" horiz-adv-x="640" 
d="M306 380l-38 -130q-42 -144 -100.5 -201.5t-191.5 -68.5l2 150q44 4 72.5 31t47.5 89l85 280h455l-113 -530h-175l81 380h-125z" />
    <glyph glyph-name="afii10078" unicode="&#x43c;" horiz-adv-x="840" 
d="M597 290l-152 -290h-135l-32 290h-5l-98 -290h-180l188 530h189l42 -329h5l167 329h202l-38 -530h-175l27 290h-5z" />
    <glyph glyph-name="afii10079" unicode="&#x43d;" horiz-adv-x="670" 
d="M421 195h-190l-41 -195h-175l113 530h175l-39 -180h190l39 180h175l-113 -530h-175z" />
    <glyph glyph-name="afii10080" unicode="&#x43e;" horiz-adv-x="680" 
d="M373 545q132 0 206 -71t74 -182q0 -129 -98.5 -218t-235.5 -89q-132 0 -206 71t-74 182q0 129 98.5 218t235.5 89zM373 395q-59 0 -105 -44.5t-46 -112.5q0 -47 27 -75t70 -28q59 0 105 44.5t46 112.5q0 47 -27 75t-70 28z" />
    <glyph glyph-name="afii10081" unicode="&#x43f;" horiz-adv-x="670" 
d="M460 375h-190l-80 -375h-175l113 530h540l-113 -530h-175z" />
    <glyph glyph-name="afii10082" unicode="&#x440;" horiz-adv-x="705" 
d="M242 238q0 -47 28 -75t73 -28q63 0 109.5 44.5t46.5 112.5q0 47 -28 75t-74 28q-62 0 -108.5 -44.5t-46.5 -112.5zM201 55l-58 -275h-175l159 750h170l-9 -60h5q7 8 19 20.5t52.5 33.5t82.5 21q104 0 168 -72t64 -181q0 -134 -90.5 -220.5t-215.5 -86.5q-34 0 -63.5 7
t-47.5 17.5t-31.5 21t-18.5 17.5l-6 7h-5z" />
    <glyph glyph-name="afii10083" unicode="&#x441;" horiz-adv-x="565" 
d="M222 235q0 -49 29 -74.5t82 -25.5q40 0 78 13.5t56 27.5l18 14h15l-31 -145q-6 -7 -18 -17t-57 -26.5t-101 -16.5q-112 0 -183 71.5t-71 178.5q0 130 96 220t234 90q60 0 113 -17.5t76 -35.5l23 -17l-92 -125q-3 5 -10 12.5t-33 20t-57 12.5q-77 0 -122 -43t-45 -117z
" />
    <glyph glyph-name="afii10084" unicode="&#x442;" horiz-adv-x="555" 
d="M220 375h-170l33 155h515l-33 -155h-170l-80 -375h-175z" />
    <glyph glyph-name="afii10085" unicode="&#x443;" horiz-adv-x="625" 
d="M176 5l-118 525h177l70 -334h5l174 334h189l-304 -525q-84 -145 -145 -192.5t-154 -47.5l-54 5l3 155q18 -10 53 -10q30 0 52 19t52 71z" />
    <glyph glyph-name="afii10086" unicode="&#x444;" horiz-adv-x="845" 
d="M312 130l58 270q-57 -5 -102.5 -50t-45.5 -112q0 -46 25.5 -75.5t64.5 -32.5zM545 400l-58 -270q57 5 102.5 50t45.5 112q0 46 -25.5 75.5t-64.5 32.5zM413 -220h-175l44 205q-111 3 -177 73.5t-66 179.5q0 130 101.5 216t260.5 91l45 215h175l-45 -215q110 -3 176 -73.5
t66 -179.5q0 -130 -101.5 -216t-259.5 -91z" />
    <glyph glyph-name="afii10087" unicode="&#x445;" horiz-adv-x="620" 
d="M683 530l-267 -268l164 -262h-190l-90 155l-145 -155h-215l279 277l-156 253h185l86 -148l139 148h210z" />
    <glyph glyph-name="afii10088" unicode="&#x446;" horiz-adv-x="690" 
d="M445 0h-430l113 530h175l-80 -375h175l80 375h175l-80 -375h80l-61 -285h-175z" />
    <glyph glyph-name="afii10089" unicode="&#x447;" horiz-adv-x="645" 
d="M118 530h175l-34 -160q-3 -12 -3 -23q0 -30 18.5 -46t51.5 -16q24 0 48 7.5t36 15.5l12 7l46 215h175l-113 -530h-175l33 157q-43 -22 -128 -22q-83 0 -134.5 43.5t-51.5 118.5q0 27 5 48z" />
    <glyph glyph-name="afii10090" unicode="&#x448;" horiz-adv-x="945" 
d="M223 155h145l80 375h175l-80 -375h145l80 375h175l-113 -530h-815l113 530h175z" />
    <glyph glyph-name="afii10091" unicode="&#x449;" horiz-adv-x="980" 
d="M223 155h145l80 375h175l-80 -375h145l80 375h175l-80 -375h80l-61 -285h-175l28 130h-720l113 530h175z" />
    <glyph glyph-name="afii10092" unicode="&#x44a;" horiz-adv-x="640" 
d="M85 0l79 370h-115l34 160h290l-32 -150h26q121 0 179.5 -48.5t58.5 -130.5q0 -89 -70.5 -145t-190.5 -56h-259zM289 135h55q39 0 61 17.5t22 48.5q0 44 -60 44h-55z" />
    <glyph glyph-name="afii10093" unicode="&#x44b;" horiz-adv-x="840" 
d="M550 0l113 530h175l-113 -530h-175zM219 135h55q39 0 61 17.5t22 48.5q0 44 -60 44h-55zM15 0l113 530h175l-32 -150h26q121 0 179.5 -48.5t58.5 -130.5q0 -89 -70.5 -145t-190.5 -56h-259z" />
    <glyph glyph-name="afii10094" unicode="&#x44c;" horiz-adv-x="580" 
d="M219 135h65q39 0 61 17.5t22 48.5q0 44 -60 44h-65zM15 0l113 530h175l-32 -150h36q121 0 179.5 -48.5t58.5 -130.5q0 -89 -70.5 -145t-190.5 -56h-269z" />
    <glyph glyph-name="afii10095" unicode="&#x44d;" horiz-adv-x="580" 
d="M168 205l26 120h174q-17 70 -113 70q-40 0 -79 -13.5t-58 -27.5l-20 -14h-15l31 145l6.5 6.5t21 14.5t35.5 18t51 14.5t67 6.5q115 0 187 -71.5t72 -178.5q0 -130 -97 -220t-238 -90q-62 0 -119 17.5t-82 35.5l-26 17l78 130q5 -6 14.5 -14t43 -22t71.5 -14q105 0 149 70
h-180z" />
    <glyph glyph-name="afii10096" unicode="&#x44e;" horiz-adv-x="925" 
d="M624 545q128 0 201 -71t73 -182q0 -129 -98 -218t-231 -89q-118 0 -190 62t-81 153h-65l-43 -200h-175l113 530h175l-42 -195h51q28 90 112.5 150t199.5 60zM569 135q55 0 100.5 45t45.5 112q0 46 -26 74.5t-65 28.5q-55 0 -100.5 -45t-45.5 -112q0 -46 26 -74.5
t65 -28.5z" />
    <glyph glyph-name="afii10097" unicode="&#x44f;" horiz-adv-x="619" 
d="M155 190q-3 1 -8 4t-18 14t-23 25.5t-18 40t-8 56.5q0 92 69.5 146t195.5 54h272l-113 -530h-174l35 165h-30l-155 -165h-225l199 185zM415 400h-70q-34 0 -59 -20t-25 -50q0 -22 16 -36t43 -14h70z" />
    <glyph glyph-name="afii10071" unicode="&#x451;" horiz-adv-x="630" 
d="M362 545q110 0 173.5 -59.5t63.5 -165.5q0 -38 -9 -85h-391q0 -15 3.5 -29t15.5 -33.5t41 -31t73 -11.5q53 0 100 14t67 28l20 13h15l-30 -140q-2 -2 -7 -6.5t-23 -14.5t-40 -18t-60.5 -14.5t-81.5 -6.5q-112 0 -182.5 71.5t-70.5 178.5q0 130 95 220t228 90zM372 410
q-52 0 -90 -23t-57 -57h225q1 4 1 12q0 28 -21.5 48t-57.5 20zM203 668q0 43 31 72.5t76 29.5q32 0 50 -18.5t18 -49.5q0 -43 -31 -72.5t-76 -29.5q-32 0 -50 18.5t-18 49.5zM423 668q0 43 31 72.5t76 29.5q32 0 50 -18.5t18 -49.5q0 -43 -31 -72.5t-76 -29.5
q-32 0 -50 18.5t-18 49.5z" />
    <glyph glyph-name="afii10099" unicode="&#x452;" horiz-adv-x="700" 
d="M652 290l-62 -290q-25 -115 -88.5 -173t-191.5 -62l-3 150q91 7 108 85l57 267q3 13 3 25q0 30 -18.5 46.5t-50.5 16.5q-46 0 -85 -32t-50 -84l-51 -239h-175l119 560h-85l31 145h85l12 55h175l-12 -55h145l-31 -145h-145l-26 -120h5q6 7 18.5 18t52 29t82.5 18
q82 0 134.5 -44t52.5 -121q0 -23 -6 -50z" />
    <glyph glyph-name="afii10100" unicode="&#x453;" horiz-adv-x="495" 
d="M275 590l96 195h185l-166 -195h-115zM505 375h-235l-80 -375h-175l113 530h410z" />
    <glyph glyph-name="afii10101" unicode="&#x454;" horiz-adv-x="570" 
d="M424 325l-26 -120h-168q17 -70 108 -70q42 0 81.5 13.5t57.5 27.5l18 14h15l-31 -145l-6.5 -6.5t-20 -14.5t-34.5 -18t-51.5 -14.5t-68.5 -6.5q-115 0 -187 71.5t-72 178.5q0 130 97 220t238 90q38 0 74 -7.5t60 -19t42.5 -22.5t27.5 -18l8 -8l-87 -125q-4 6 -11.5 14
t-34.5 22t-59 14q-101 0 -144 -70h174z" />
    <glyph glyph-name="afii10102" unicode="&#x455;" horiz-adv-x="510" 
d="M467 158q0 -71 -67.5 -122t-176.5 -51q-62 0 -120 17.5t-85 35.5l-26 17l58 130q5 -6 15 -15t49.5 -24.5t88.5 -15.5q83 0 83 38q0 14 -22.5 24t-55 21t-64.5 28t-54.5 52t-22.5 85q0 67 64.5 117t168.5 50q38 0 74 -7.5t60.5 -19t43.5 -22.5t28 -18l9 -8l-84 -115
q-3 5 -10.5 12.5t-36 20t-64.5 12.5q-35 0 -53.5 -10.5t-18.5 -26.5q0 -14 22.5 -24t55 -21t64.5 -27t54.5 -50.5t22.5 -82.5z" />
    <glyph glyph-name="afii10103" unicode="&#x456;" horiz-adv-x="305" 
d="M304 535l-114 -535h-175l114 535q37 -15 84 -15q21 0 44 4t35 8zM148 668q0 47 35 77t85 30q37 0 58.5 -19.5t21.5 -53.5q0 -47 -35 -77t-85 -30q-37 0 -58.5 19.5t-21.5 53.5z" />
    <glyph glyph-name="afii10104" unicode="&#x457;" horiz-adv-x="315" 
d="M42 668q0 43 31 72.5t76 29.5q32 0 50 -18.5t18 -49.5q0 -43 -31 -72.5t-76 -29.5q-32 0 -50 18.5t-18 49.5zM262 668q0 43 31 72.5t76 29.5q32 0 50 -18.5t18 -49.5q0 -43 -31 -72.5t-76 -29.5q-32 0 -50 18.5t-18 49.5zM308 530l-113 -530h-175l113 530h175z" />
    <glyph glyph-name="afii10105" unicode="&#x458;" horiz-adv-x="305" 
d="M304 535l-114 -535q-25 -115 -88.5 -173t-191.5 -62l-3 150q91 7 108 85l114 535q37 -15 84 -15q21 0 44 4t35 8zM348 702q0 -47 -35 -77t-85 -30q-37 0 -58.5 19.5t-21.5 53.5q0 47 35 77t85 30q37 0 58.5 -19.5t21.5 -53.5z" />
    <glyph glyph-name="afii10106" unicode="&#x459;" horiz-adv-x="890" 
d="M306 380l-38 -130q-42 -144 -100.5 -201.5t-191.5 -68.5l2 150q44 4 72.5 31t47.5 89l85 280h445l-32 -150h21q121 0 179.5 -48.5t58.5 -130.5q0 -89 -70.5 -145t-190.5 -56h-254l81 380h-115zM544 135h50q39 0 61 17.5t22 48.5q0 44 -60 44h-50z" />
    <glyph glyph-name="afii10107" unicode="&#x45a;" horiz-adv-x="915" 
d="M365 0l46 215h-175l-46 -215h-175l113 530h175l-35 -165h175l35 165h175l-35 -165h27q233 0 233 -176q0 -88 -66.5 -138.5t-187.5 -50.5h-259zM568 130h56q33 0 54.5 16.5t21.5 42.5q0 41 -55 41h-56z" />
    <glyph glyph-name="afii10108" unicode="&#x45b;" horiz-adv-x="700" 
d="M313 440h5q6 7 18.5 18t52 29t82.5 18q82 0 134.5 -44t52.5 -121q0 -23 -6 -50l-62 -290h-175l57 267q3 13 3 25q0 30 -18.5 46.5t-50.5 16.5q-46 0 -85 -32t-50 -84l-51 -239h-175l119 560h-85l31 145h85l12 55h175l-12 -55h145l-31 -145h-145z" />
    <glyph glyph-name="afii10109" unicode="&#x45c;" horiz-adv-x="620" 
d="M320 590l96 195h185l-166 -195h-115zM412 259l168 -259h-175l-163 245l-52 -245h-175l113 530h175l-52 -245l227 245h200z" />
    <glyph glyph-name="afii10110" unicode="&#x45e;" horiz-adv-x="625" 
d="M176 5l-118 525h177l70 -334h5l174 334h189l-304 -525q-84 -145 -145 -192.5t-154 -47.5l-54 5l3 155q18 -10 53 -10q30 0 52 19t52 71zM378 595q-38 0 -74 10t-53 20l-17 10l26 120q6 -6 17 -15t45.5 -24.5t70.5 -15.5t75 14t60 28l22 13l-26 -120q-6 -4 -17 -11
t-49 -18t-80 -11z" />
    <glyph glyph-name="afii10193" unicode="&#x45f;" horiz-adv-x="665" 
d="M172 -132l28 132h-185l113 530h175l-80 -375h185l80 375h175l-113 -530h-185l-28 -132h-165z" />
    <glyph glyph-name="afii10050" unicode="&#x490;" horiz-adv-x="565" 
d="M336 570l-121 -570h-180l155 730h270l32 150h180l-66 -310h-270z" />
    <glyph glyph-name="afii10098" unicode="&#x491;" horiz-adv-x="495" 
d="M270 375l-80 -375h-175l113 530h235l27 130h175l-60 -285h-235z" />
    <glyph glyph-name="uni1E9E" unicode="&#x1e9e;" horiz-adv-x="760" 
d="M417 435l112 125q-15 25 -65 25q-134 0 -166 -149l-93 -436h-180l93 436q31 144 120.5 226.5t225.5 82.5q62 0 114 -16t81.5 -38.5t50 -45.5t28.5 -39l7 -16l-150 -165q5 -2 14 -6.5t31 -21.5t39 -38.5t31 -58.5t14 -80q0 -102 -80.5 -168.5t-215.5 -66.5q-39 0 -80 8.5
t-62 17.5l-22 9l62 150q29 -30 94 -30q116 0 116 80q0 32 -35 59.5t-71 38.5l-35 12z" />
    <glyph glyph-name="endash" unicode="&#x2013;" horiz-adv-x="585" 
d="M43 250l31 145h505l-31 -145h-505z" />
    <glyph glyph-name="emdash" unicode="&#x2014;" horiz-adv-x="945" 
d="M43 250l31 145h865l-31 -145h-865z" />
    <glyph glyph-name="quoteleft" unicode="&#x2018;" horiz-adv-x="250" 
d="M298 605q0 -51 -34.5 -83t-83.5 -32q-36 0 -57 20t-21 55q0 57 46 127.5t108 107.5h65q-75 -75 -85 -120q28 -3 45 -22.5t17 -52.5z" />
    <glyph glyph-name="quoteright" unicode="&#x2019;" horiz-adv-x="250" 
d="M127 685q0 51 34.5 83t83.5 32q36 0 57 -20t21 -55q0 -57 -46 -127.5t-108 -107.5h-65q75 75 85 120q-28 3 -45 22.5t-17 52.5z" />
    <glyph glyph-name="quotesinglbase" unicode="&#x201a;" horiz-adv-x="250" 
d="M-5 65q0 51 34.5 83t83.5 32q36 0 57 -20t21 -55q0 -57 -46 -127.5t-108 -107.5h-65q75 75 85 120q-28 3 -45 22.5t-17 52.5z" />
    <glyph glyph-name="quotedblleft" unicode="&#x201c;" horiz-adv-x="490" 
d="M298 605q0 -51 -34.5 -83t-83.5 -32q-36 0 -57 20t-21 55q0 57 46 127.5t108 107.5h65q-75 -75 -85 -120q28 -3 45 -22.5t17 -52.5zM538 605q0 -51 -34.5 -83t-83.5 -32q-36 0 -57 20t-21 55q0 57 46 127.5t108 107.5h65q-75 -75 -85 -120q28 -3 45 -22.5t17 -52.5z" />
    <glyph glyph-name="quotedblright" unicode="&#x201d;" horiz-adv-x="490" 
d="M367 685q0 51 34.5 83t83.5 32q36 0 57 -20t21 -55q0 -57 -46 -127.5t-108 -107.5h-65q75 75 85 120q-28 3 -45 22.5t-17 52.5zM127 685q0 51 34.5 83t83.5 32q36 0 57 -20t21 -55q0 -57 -46 -127.5t-108 -107.5h-65q75 75 85 120q-28 3 -45 22.5t-17 52.5z" />
    <glyph glyph-name="quotedblbase" unicode="&#x201e;" horiz-adv-x="490" 
d="M-5 65q0 51 34.5 83t83.5 32q36 0 57 -20t21 -55q0 -57 -46 -127.5t-108 -107.5h-65q75 75 85 120q-28 3 -45 22.5t-17 52.5zM235 65q0 51 34.5 83t83.5 32q36 0 57 -20t21 -55q0 -57 -46 -127.5t-108 -107.5h-65q75 75 85 120q-28 3 -45 22.5t-17 52.5z" />
    <glyph glyph-name="dagger" unicode="&#x2020;" horiz-adv-x="520" 
d="M309 325l5 -120l-86 -405h-120l86 405l55 120l-8 10l-126 -30h-30l26 120h30l113 -30l12 10l-4 120l24 115h120l-24 -115l-56 -120l8 -10l127 30h30l-26 -120h-30l-114 30z" />
    <glyph glyph-name="daggerdbl" unicode="&#x2021;" horiz-adv-x="520" 
d="M310 185l-56 -120l8 -10l127 30h30l-26 -120h-30l-114 30l-12 -10l5 -120l-14 -65h-120l14 65l55 120l-8 10l-126 -30h-30l26 120h30l113 -30l12 10l-4 120l15 70l55 120l-8 10l-126 -30h-30l25 120h30l114 -30l12 10l-4 120l13 65h120l-13 -65l-56 -120l8 -10l126 30h30
l-25 -120h-30l-114 30l-12 -10l5 -120z" />
    <glyph glyph-name="bullet" unicode="&#x2022;" horiz-adv-x="500" 
d="M144 350q0 55 38.5 92.5t91.5 37.5t91.5 -37.5t38.5 -92.5t-38.5 -92.5t-91.5 -37.5t-91.5 37.5t-38.5 92.5z" />
    <glyph glyph-name="ellipsis" unicode="&#x2026;" horiz-adv-x="800" 
d="M-5 65q0 51 34.5 83t83.5 32q36 0 57 -20t21 -55q0 -51 -34.5 -83t-83.5 -32q-36 0 -57 20t-21 55zM270 65q0 51 34.5 83t83.5 32q36 0 57 -20t21 -55q0 -51 -34.5 -83t-83.5 -32q-36 0 -57 20t-21 55zM545 65q0 51 34.5 83t83.5 32q36 0 57 -20t21 -55q0 -51 -34.5 -83
t-83.5 -32q-36 0 -57 20t-21 55z" />
    <glyph glyph-name="perthousand" unicode="&#x2030;" horiz-adv-x="1375" 
d="M223 547q0 -24 15 -38t38 -14q31 0 55.5 22t24.5 56q0 24 -14.5 38t-38.5 14q-31 0 -55.5 -22t-24.5 -56zM275 0h-155l631 730h155zM484 573q0 -82 -63.5 -140t-144.5 -58q-84 0 -132.5 48.5t-48.5 123.5q0 82 63.5 140t144.5 58q85 0 133 -48.5t48 -123.5zM665 157
q0 -24 15 -38t38 -14q31 0 55.5 22t24.5 56q0 24 -14.5 38t-38.5 14q-31 0 -55.5 -22t-24.5 -56zM926 183q0 -82 -63.5 -140t-144.5 -58q-84 0 -132.5 48.5t-48.5 123.5q0 82 63.5 140t144.5 58q85 0 133 -48.5t48 -123.5zM1075 157q0 -24 15 -38t38 -14q31 0 55.5 22
t24.5 56q0 24 -14.5 38t-38.5 14q-31 0 -55.5 -22t-24.5 -56zM1336 183q0 -82 -63.5 -140t-144.5 -58q-84 0 -132.5 48.5t-48.5 123.5q0 82 63.5 140t144.5 58q85 0 133 -48.5t48 -123.5z" />
    <glyph glyph-name="guilsinglleft" unicode="&#x2039;" horiz-adv-x="405" 
d="M188 260l147 -210h-145l-154 215l4 20l221 215h170l-241 -230z" />
    <glyph glyph-name="guilsinglright" unicode="&#x203a;" horiz-adv-x="405" 
d="M234 290l-147 210h145l154 -215l-4 -20l-221 -215h-170l241 230z" />
    <glyph glyph-name="fraction" unicode="&#x2044;" horiz-adv-x="175" 
d="M-260 0l620 730h130l-620 -730h-130z" />
    <glyph glyph-name="zerosuperior" unicode="&#x2070;" horiz-adv-x="370" 
d="M218 613q0 -58 35 -58q31 0 53 33t22 99q0 58 -35 58q-31 0 -53 -33t-22 -99zM439 687q0 -100 -56.5 -163.5t-129.5 -63.5q-69 0 -107.5 42t-38.5 111q0 100 56.5 163.5t129.5 63.5q69 0 107.5 -42t38.5 -111z" />
    <glyph glyph-name="foursuperior" unicode="&#x2074;" horiz-adv-x="330" 
d="M371 830l-153 -200h45l32 55h65l-12 -55h50l-20 -95h-50l-14 -65h-110l14 65h-180l3 15l210 280h120z" />
    <glyph glyph-name="fivesuperior" unicode="&#x2075;" horiz-adv-x="330" 
d="M271 599q0 31 -42 31q-13 0 -26.5 -4.5t-20.5 -9.5l-7 -4l-56 33l71 185h221l-20 -95h-145l-11 -30q11 5 31 5q53 0 85 -31t32 -80q0 -67 -46.5 -103t-129.5 -36q-36 0 -68.5 11t-46.5 23l-15 11l47 80q33 -35 83 -35q30 0 47 13t17 36z" />
    <glyph glyph-name="sixsuperior" unicode="&#x2076;" horiz-adv-x="350" 
d="M281 830h120q-86 -50 -141 -120q12 5 32 5q57 0 86.5 -32t29.5 -86q0 -59 -47 -98t-114 -39q-76 0 -112.5 33.5t-36.5 89.5q0 39 19 79t45.5 69t53.5 52t46 35zM214 583q0 -28 33 -28q20 0 34.5 10.5t14.5 31.5q0 28 -34 28q-19 0 -33.5 -10.5t-14.5 -31.5z" />
    <glyph glyph-name="sevensuperior" unicode="&#x2077;" horiz-adv-x="305" 
d="M234 470h-120l151 265h-140l21 95h285l-4 -15z" />
    <glyph glyph-name="eightsuperior" unicode="&#x2078;" horiz-adv-x="350" 
d="M241 550q54 0 54 44q0 31 -38 31q-54 0 -54 -47q0 -28 38 -28zM274 705q36 0 36 31q0 19 -25 19q-36 0 -36 -31q0 -19 25 -19zM241 460q-79 0 -115.5 29.5t-36.5 78.5q0 33 19 57t38 32l19 8q-26 19 -26 64q0 49 40 80t106 31q138 0 138 -99q0 -26 -14.5 -47.5
t-28.5 -29.5l-15 -9q4 -1 10.5 -5t17.5 -22t11 -44q0 -55 -45 -89.5t-118 -34.5z" />
    <glyph glyph-name="ninesuperior" unicode="&#x2079;" horiz-adv-x="350" 
d="M244 470h-120q86 50 141 120q-12 -5 -32 -5q-57 0 -86.5 32t-29.5 86q0 59 47 98t114 39q76 0 112.5 -33.5t36.5 -89.5q0 -39 -19 -79t-45.5 -69t-53.5 -52t-46 -35zM311 717q0 28 -33 28q-20 0 -34.5 -10.5t-14.5 -31.5q0 -28 34 -28q19 0 33.5 10.5t14.5 31.5z" />
    <glyph glyph-name="zeroinferior" unicode="&#x2080;" horiz-adv-x="370" 
d="M97 43q0 -58 35 -58q31 0 53 33t22 99q0 58 -35 58q-31 0 -53 -33t-22 -99zM318 117q0 -100 -56.5 -163.5t-129.5 -63.5q-69 0 -107.5 42t-38.5 111q0 100 56.5 163.5t129.5 63.5q69 0 107.5 -42t38.5 -111z" />
    <glyph glyph-name="oneinferior" unicode="&#x2081;" horiz-adv-x="245" 
d="M4 95l23 109l112 56h80l-76 -360h-110l50 235z" />
    <glyph glyph-name="twoinferior" unicode="&#x2082;" horiz-adv-x="335" 
d="M-44 -85l177 175q32 30 32 58q0 27 -34 27q-20 0 -48 -13.5t-45 -27.5l-18 -14h-10l19 92q6 6 18 16t49 26t75 16q111 0 111 -102q0 -50 -43 -93l-76 -80h90l-20 -95h-280z" />
    <glyph glyph-name="threeinferior" unicode="&#x2083;" horiz-adv-x="330" 
d="M108 60q-11 0 -23.5 -3.5t-18.5 -7.5l-7 -4l-30 45l76 75h-80l20 95h250l-3 -15l-113 -110q3 -1 8.5 -3t20 -10t25 -18.5t19.5 -29t9 -40.5q0 -68 -46.5 -106t-128.5 -38q-36 0 -68.5 11t-47.5 23l-14 11l47 80q33 -35 83 -35q30 0 47 13t17 36q0 31 -42 31z" />
    <glyph glyph-name="fourinferior" unicode="&#x2084;" horiz-adv-x="330" 
d="M250 260l-153 -200h45l32 55h65l-12 -55h50l-20 -95h-50l-14 -65h-110l14 65h-180l3 15l210 280h120z" />
    <glyph glyph-name="fiveinferior" unicode="&#x2085;" horiz-adv-x="330" 
d="M150 29q0 31 -42 31q-13 0 -26.5 -4.5t-20.5 -9.5l-7 -4l-56 33l71 185h221l-20 -95h-145l-11 -30q11 5 31 5q53 0 85 -31t32 -80q0 -67 -46.5 -103t-129.5 -36q-36 0 -68.5 11t-47.5 23l-14 11l47 80q33 -35 83 -35q30 0 47 13t17 36z" />
    <glyph glyph-name="sixinferior" unicode="&#x2086;" horiz-adv-x="350" 
d="M160 260h120q-86 -50 -141 -120q12 5 32 5q57 0 86.5 -32t29.5 -86q0 -59 -47 -98t-114 -39q-76 0 -112.5 33.5t-36.5 89.5q0 39 19 79t45.5 69t53.5 52t46 35zM93 13q0 -28 33 -28q20 0 34.5 10.5t14.5 31.5q0 28 -34 28q-19 0 -33.5 -10.5t-14.5 -31.5z" />
    <glyph glyph-name="seveninferior" unicode="&#x2087;" horiz-adv-x="305" 
d="M113 -100h-120l151 265h-140l21 95h285l-4 -15z" />
    <glyph glyph-name="eightinferior" unicode="&#x2088;" horiz-adv-x="350" 
d="M120 -20q54 0 54 44q0 31 -38 31q-54 0 -54 -47q0 -28 38 -28zM153 135q36 0 36 31q0 19 -25 19q-36 0 -36 -31q0 -19 25 -19zM120 -110q-79 0 -115.5 29.5t-36.5 78.5q0 33 19 57t38 32l19 8q-26 19 -26 64q0 49 40 80t106 31q138 0 138 -99q0 -26 -14.5 -47.5
t-29.5 -29.5l-14 -9q4 -1 10.5 -5t17.5 -22t11 -44q0 -55 -45 -89.5t-118 -34.5z" />
    <glyph glyph-name="nineinferior" unicode="&#x2089;" horiz-adv-x="350" 
d="M123 -100h-120q86 50 141 120q-12 -5 -32 -5q-57 0 -86.5 32t-29.5 86q0 59 47 98t114 39q76 0 112.5 -33.5t36.5 -89.5q0 -39 -19 -79t-46 -69t-53.5 -52t-45.5 -35zM190 147q0 28 -33 28q-20 0 -34.5 -10.5t-14.5 -31.5q0 -28 34 -28q19 0 33.5 10.5t14.5 31.5z" />
    <glyph glyph-name="Euro" unicode="&#x20ac;" horiz-adv-x="770" 
d="M52 340h46l6 50h-41l17 80h47q49 122 164.5 198.5t252.5 76.5q53 0 101 -10t78 -23.5t52.5 -27.5t32.5 -24l10 -10l-95 -140q-2 3 -5 8t-16.5 18t-30 23t-45 18t-62.5 8q-73 0 -134 -31t-98 -84h308l-42 -80h-303l-9 -50h286l-42 -80h-235q17 -53 62.5 -84t112.5 -31
q56 0 110 25t80 50l27 25h20l-37 -170q-3 -4 -8 -10t-26 -21.5t-46 -27.5t-68 -21.5t-92 -9.5q-123 0 -214.5 77.5t-112.5 197.5h-68z" />
    <glyph glyph-name="uni20B4" unicode="&#x20b4;" horiz-adv-x="645" 
d="M633 390h-105l-96 -50h190l-17 -80h-285q-6 -3 -15 -9t-24 -25t-15 -38q0 -43 70 -43q47 0 91.5 16.5t65.5 32.5l21 16h20l-33 -155q-8 -8 -24.5 -19.5t-70.5 -31t-113 -19.5q-98 0 -158 50t-60 128q0 26 7.5 50t15.5 35l7 12h-55l17 80h105l96 50h-190l17 80h285
q6 3 15 9t24 25t15 38q0 43 -70 43q-47 0 -91.5 -16.5t-66.5 -32.5l-21 -16h-20l33 155q9 8 25 19.5t70.5 31t113.5 19.5q98 0 158 -50t60 -128q0 -26 -7.5 -50t-15.5 -35l-7 -12h55z" />
    <glyph glyph-name="uni20BD" unicode="&#x20bd;" horiz-adv-x="690" 
d="M49 280l25 115h75l71 335h204q139 0 211 -59.5t72 -156.5q0 -96 -88.5 -165t-234.5 -69h-80l-11 -50h245l-24 -115h-245l-24 -115h-180l24 115h-75l24 115h75l11 50h-75zM369 585l-40 -190h55q128 0 128 119q0 71 -88 71h-55z" />
    <glyph glyph-name="afii61352" unicode="&#x2116;" horiz-adv-x="1175" 
d="M833 275l24 110h300l-24 -110h-300zM994 579q0 -21 12.5 -32.5t32.5 -11.5q28 0 48 18t20 48q0 21 -12.5 32.5t-32.5 11.5q-28 0 -48 -18t-20 -48zM1210 601q0 -70 -50.5 -115.5t-120.5 -45.5q-68 0 -108 38t-40 101q0 70 50.5 115.5t120.5 45.5q68 0 108 -38t40 -101z
M850 730l-155 -730h-175l-210 453l-95 -453h-180l155 730h175l210 -453l95 453h180z" />
    <glyph glyph-name="trademark" unicode="&#x2122;" horiz-adv-x="800" 
d="M288 555l-54 -255h-95l54 255h-105l18 85h305l-18 -85h-105zM554 300l-36 185l-69 -185h-95l127 340h80l40 -210l130 210h80l-17 -340h-95l9 185l-114 -185h-40z" />
    <glyph glyph-name="arrowleft" unicode="&#x2190;" horiz-adv-x="990" 
d="M100 310l170 220h150l-120 -155h590v-130h-590l120 -155h-150z" />
    <glyph glyph-name="arrowup" unicode="&#x2191;" horiz-adv-x="640" 
d="M320 730l220 -170v-150l-155 120v-590h-130v590l-155 -120v150z" />
    <glyph glyph-name="arrowright" unicode="&#x2192;" horiz-adv-x="990" 
d="M720 530l170 -220l-170 -220h-150l120 155h-590v130h590l-120 155h150z" />
    <glyph glyph-name="arrowdown" unicode="&#x2193;" horiz-adv-x="640" 
d="M540 110l-220 -170l-220 170v150l155 -120v590h130v-590l155 120v-150z" />
    <glyph glyph-name="minus" unicode="&#x2212;" horiz-adv-x="560" 
d="M73 250l32 150h420l-32 -150h-420z" />
    <glyph glyph-name="commaaccent" unicode="&#xf6c3;" horiz-adv-x="205" 
d="M100 -106q0 -44 -31 -95.5t-85 -83.5h-55q7 6 17.5 15.5t30 36t23.5 48.5q-47 7 -47 53q0 37 25.5 62t61.5 25q27 0 43.5 -15.5t16.5 -45.5z" />
    <glyph glyph-name="cyrBreve" unicode="&#xf6d1;" horiz-adv-x="400" 
d="M340 895q47 0 92.5 15t67.5 30l23 15l-26 -120q-6 -6 -19 -14t-57.5 -22t-95.5 -14q-47 0 -89 12.5t-60 24.5l-19 13l26 120q6 -7 17.5 -17t52 -26.5t87.5 -16.5z" />
    <glyph glyph-name="cyrbreve" unicode="&#xf6d4;" horiz-adv-x="350" 
d="M259 595q-38 0 -74 10t-53 20l-17 10l26 120q6 -6 17 -15t45.5 -24.5t70.5 -15.5t75 14t61 28l21 13l-26 -120q-6 -4 -17 -11t-49 -18t-80 -11z" />
    <glyph glyph-name="s_t" unicode="&#xfb06;" horiz-adv-x="1000" 
d="M595 190l40 185h-85l9 40l101 80l14 65q10 45 -11.5 70t-67.5 25q-48 0 -82 -29.5t-34 -73.5q0 -20 9 -40.5t18 -31.5l9 -10l-84 -115q-3 5 -10.5 12.5t-36 20t-64.5 12.5q-35 0 -53.5 -10.5t-18.5 -26.5q0 -14 22.5 -24t55 -21t64.5 -27t54.5 -50.5t22.5 -82.5
q0 -71 -67.5 -122t-176.5 -51q-62 0 -120 17.5t-85 35.5l-26 17l58 130q5 -6 15 -15t49.5 -24.5t88.5 -15.5q83 0 83 38q0 14 -22.5 24t-55 21t-64.5 28t-54.5 52t-22.5 85q0 67 64.5 117t168.5 50l59 -5q-9 29 -9 54q0 87 72.5 146.5t192.5 59.5q131 0 193.5 -64t40.5 -176
l-6 -30h160l-33 -155h-160l-35 -162q-3 -13 -3 -25q0 -53 62 -53q22 0 44 8.5t32 17.5l11 9h15l-29 -140q-6 -5 -17 -12.5t-47 -20t-74 -12.5q-80 0 -130 40.5t-50 114.5q0 23 6 50z" />
    <glyph glyph-name="s_h" unicode="&#xfb10;" horiz-adv-x="1175" 
d="M1065 0h-175l65 307q3 13 3 25q0 30 -18.5 46.5t-50.5 16.5q-46 0 -85 -32t-50 -84l-59 -279h-175l135 640q-11 0 -34 2.5t-39 2.5q-44 0 -73.5 -26t-29.5 -67q0 -20 9 -40.5t18 -31.5l9 -10l-84 -115q-20 20 -36 28q-32 17 -75 17q-35 0 -53.5 -10.5t-18.5 -26.5
q0 -14 22.5 -24t55 -21t64.5 -27t54.5 -50.5t22.5 -82.5q0 -71 -67.5 -122t-176.5 -51q-62 0 -120 17.5t-85 35.5l-26 17l58 130q5 -6 15 -15t49.5 -24.5t88.5 -15.5q83 0 83 38q0 14 -22.5 24t-55 21t-64.5 28t-54.5 52t-22.5 85q0 67 64.5 117t168.5 50l59 -5q-9 29 -9 54
q0 84 70 142.5t182 58.5q32 0 83 -7.5t72 -7.5h104l-64 -300h5q6 7 18 18t51.5 29t82.5 18q82 0 134.5 -44t52.5 -121q0 -23 -6 -50z" />
    <glyph glyph-name="s_k" unicode="&#xfb11;" horiz-adv-x="1130" 
d="M721 120l-26 -120h-175l136 640q-12 0 -35 2.5t-39 2.5q-44 0 -73.5 -26t-29.5 -67q0 -20 9 -40.5t18 -31.5l9 -10l-84 -115q-20 20 -36 28q-32 17 -75 17q-35 0 -53.5 -10.5t-18.5 -26.5q0 -14 22.5 -24t55 -21t64.5 -27t54.5 -50.5t22.5 -82.5q0 -71 -67.5 -122
t-176.5 -51q-62 0 -120 17.5t-85 35.5l-26 17l58 130q5 -6 15 -15t49.5 -24.5t88.5 -15.5q83 0 83 38q0 14 -22.5 24t-55 21t-64.5 28t-54.5 52t-22.5 85q0 67 64.5 117t168.5 50l59 -5q-9 29 -9 54q0 84 70 142.5t182 58.5q32 0 83 -7.5t72 -7.5h104l-93 -436l205 186h210
l-248 -225l155 -305h-181l-101 201z" />
    <glyph glyph-name="c_h" unicode="&#xfb12;" horiz-adv-x="1244" 
d="M1134 0h-175l65 307q3 13 3 25q0 30 -18.5 46.5t-50.5 16.5q-46 0 -85 -32t-50 -84l-59 -279h-175l135 640q-11 0 -34 2.5t-38 2.5q-45 0 -75 -27t-30 -71q0 -21 8.5 -39t16.5 -26l9 -7l-92 -125l-1 2l-4.5 4.5l-6 6t-8.5 7t-11 7.5t-13.5 7t-15.5 5.5t-18.5 4t-21.5 1.5
q-77 0 -122 -43t-45 -117q0 -49 29 -74.5t82 -25.5q40 0 78 13.5t56 27.5l18 14h15l-31 -145q-6 -7 -18 -17t-57 -26.5t-101 -16.5q-112 0 -183 71.5t-71 178.5q0 130 96 220t234 90l60 -5q-9 25 -9 52q0 85 70 144t182 59q32 0 82.5 -7.5t71.5 -7.5h104l-64 -300h5
q6 7 18 18t51.5 29t82.5 18q82 0 134.5 -44t52.5 -121q0 -23 -6 -50z" />
    <glyph glyph-name="c_k" unicode="&#xfb13;" horiz-adv-x="1200" 
d="M791 120l-26 -120h-175l136 640q-12 0 -35 2.5t-39 2.5q-45 0 -75 -27t-30 -71q0 -21 8.5 -39t16.5 -26l9 -7l-92 -125q-3 5 -10 12.5t-33 20t-57 12.5q-77 0 -122 -43t-45 -117q0 -49 29 -74.5t82 -25.5q40 0 78 13.5t56 27.5l18 14h15l-31 -145q-6 -7 -18 -17
t-57 -26.5t-101 -16.5q-112 0 -183 71.5t-71 178.5q0 130 96 220t234 90l60 -5q-9 25 -9 52q0 85 70 144t182 59q32 0 82.5 -7.5t71.5 -7.5h104l-92 -436l205 186h210l-248 -225l155 -305h-182l-100 202z" />
    <glyph glyph-name="c_t" unicode="&#xfb14;" horiz-adv-x="1070" 
d="M665 190l40 185h-85l9 40l101 80l14 65q10 45 -11.5 70t-67.5 25q-49 0 -83.5 -30.5t-34.5 -77.5q0 -21 8.5 -39t16.5 -26l9 -7l-92 -125q-3 5 -10 12.5t-33 20t-57 12.5q-77 0 -122 -43t-45 -117q0 -49 29 -74.5t82 -25.5q40 0 78 13.5t56 27.5l18 14h15l-31 -145
q-6 -7 -18 -17t-57 -26.5t-101 -16.5q-112 0 -183 71.5t-71 178.5q0 130 96 220t234 90l60 -5q-9 25 -9 52q0 88 72.5 148t192.5 60q131 0 193.5 -64t40.5 -176l-6 -30h160l-33 -155h-160l-35 -162q-3 -13 -3 -25q0 -53 62 -53q22 0 44 8.5t32 17.5l11 9h15l-29 -140
q-6 -5 -17 -12.5t-47 -20t-74 -12.5q-80 0 -130 40.5t-50 114.5q0 23 6 50z" />
    <glyph glyph-name="zero.pnum" horiz-adv-x="660" 
d="M232 270q0 -125 78 -125q84 0 128 86t44 229q0 125 -78 125q-84 0 -128 -86t-44 -229zM666 460q0 -131 -46 -239.5t-127.5 -172t-182.5 -63.5q-118 0 -190 78t-72 207q0 131 46 239.5t127.5 172t182.5 63.5q118 0 190 -78t72 -207z" />
    <glyph glyph-name="one.pnum" horiz-adv-x="455" 
d="M81 450l37 175l208 105h145l-156 -730h-180l113 530z" />
    <glyph glyph-name="two.pnum" horiz-adv-x="625" 
d="M-17 15l360 375q83 86 83 140q0 55 -72 55q-31 0 -65 -13.5t-61 -32.5t-49.5 -38t-34.5 -33l-12 -13h-20l35 165q4 5 11.5 13.5t32 30t51 38t66.5 30t81 13.5q104 0 164.5 -54.5t60.5 -138.5q0 -18 -3 -36.5t-10 -35.5t-13.5 -32t-17.5 -31.5l-18 -27t-20 -25t-17.5 -20
t-16.5 -17.5l-11 -12l-148 -155h215l-34 -160h-540z" />
    <glyph glyph-name="three.pnum" horiz-adv-x="575" 
d="M271 340q-27 0 -50.5 -6t-34.5 -12l-10 -7l-39 75l161 180h-168l34 160h460l-3 -15l-243 -250l-1 -5q4 0 10 -1t24.5 -5.5t35.5 -12.5t37 -24t35 -37t25 -55t10 -75q0 -113 -87 -189t-227 -76q-43 0 -85 9.5t-70.5 22.5t-51 26t-33.5 23l-10 9l83 130q6 -7 17.5 -17
t52 -26.5t87.5 -16.5q67 0 103 32t36 88q0 75 -98 75z" />
    <glyph glyph-name="four.pnum" horiz-adv-x="670" 
d="M655 305l-34 -160h-100l-31 -145h-180l31 145h-350l3 15l416 570h200l-310 -425h80l57 125h145l-27 -125h100z" />
    <glyph glyph-name="five.pnum" horiz-adv-x="620" 
d="M394 264q0 37 -26.5 59t-73.5 22q-32 0 -60 -11.5t-40 -22.5l-11 -11l-87 60l133 370h410l-34 -160h-284l-36 -95q32 10 72 10q101 0 160.5 -61.5t59.5 -159.5q0 -126 -84 -202.5t-233 -76.5q-43 0 -85 9.5t-70.5 22.5t-51 26t-33.5 23l-10 9l78 130l6.5 -6.5t20 -14.5
t33 -18t45.5 -14.5t57 -6.5q66 0 105 32t39 87z" />
    <glyph glyph-name="six.pnum" horiz-adv-x="655" 
d="M405 730h215q-23 -15 -60 -40t-117 -95t-120 -130h5q22 15 92 15q95 0 153.5 -63t58.5 -164q0 -112 -91.5 -190t-225.5 -78q-132 0 -199.5 66t-67.5 176q0 79 37 160t89 140t104.5 106.5t89.5 72.5zM360 330q-56 0 -91.5 -32.5t-35.5 -80.5q0 -34 22 -55.5t60 -21.5
q56 0 91.5 32.5t35.5 80.5q0 34 -22 55.5t-60 21.5z" />
    <glyph glyph-name="seven.pnum" horiz-adv-x="570" 
d="M260 0h-195l326 570h-290l34 160h525l-3 -15z" />
    <glyph glyph-name="eight.pnum" horiz-adv-x="665" 
d="M308 135q56 0 92 32.5t36 80.5q0 35 -23 56t-64 21q-55 0 -91.5 -32.5t-36.5 -80.5q0 -35 23 -56t64 -21zM376 455q39 0 65.5 24t26.5 59q0 25 -16.5 41t-45.5 16q-39 0 -65.5 -24t-26.5 -59q0 -25 16.5 -41t45.5 -16zM406 745q118 0 183 -55t65 -135q0 -32 -12 -61
t-29 -48t-34 -33.5t-29 -20.5l-12 -7l-1 -5q3 -2 8.5 -6t20 -18.5t25 -31t19.5 -42.5t9 -54q0 -103 -86 -173t-225 -70q-137 0 -208 58t-71 149q0 41 17 77.5t41 58t48 37.5t41 23l17 6l1 5q-6 5 -16 15t-26 43.5t-16 71.5q0 88 77.5 152t192.5 64z" />
    <glyph glyph-name="nine.pnum" horiz-adv-x="655" 
d="M305 0h-215q23 15 60 40t117 95t120 130h-5q-22 -15 -92 -15q-95 0 -153.5 63t-58.5 164q0 112 91.5 190t225.5 78q132 0 199.5 -66t67.5 -176q0 -79 -37 -160t-89 -140t-104.5 -106.5t-89.5 -72.5zM350 400q56 0 91.5 32.5t35.5 80.5q0 34 -22 55.5t-60 21.5
q-56 0 -91.5 -32.5t-35.5 -80.5q0 -34 22 -55.5t60 -21.5z" />
    <glyph glyph-name="foundryicon" horiz-adv-x="1538" 
d="M278 460v-31h-72v-199h-35v199h-71v31h178zM519 396q32 0 54.5 -25t22.5 -59q0 -36 -22.5 -60.5t-54.5 -24.5q-29 0 -47 21v-79h-34v224h24l9 -19q19 22 48 22zM516 258q19 0 33 16t14 38q0 21 -14 36.5t-33 15.5t-33 -15.5t-14 -36.5q0 -22 13.5 -38t33.5 -16zM333 277
l44 116h37l-77 -190q-16 -34 -49 -34q-7 0 -10 1v28q23 0 31 20l6 16l-63 159h37zM701 396q32 0 54 -24.5t22 -58.5l-1 -15h-119q2 -17 14.5 -29t29.5 -12q27 0 37 17h35q-9 -22 -28.5 -34.5t-43.5 -12.5q-32 0 -55 24.5t-23 60.5q0 35 23 59.5t55 24.5zM657 325h88
q-1 17 -14.5 28.5t-29.5 11.5t-29 -11t-15 -29zM939 460v-31h-72v-199h-35v199h-71v31h178zM1180 396q32 0 54.5 -25t22.5 -59q0 -36 -22.5 -60.5t-54.5 -24.5q-29 0 -47 21v-79h-34v224h24l9 -19q19 22 48 22zM1177 258q19 0 33 16t14 38q0 21 -14 36.5t-33 15.5t-33 -15.5
t-14 -36.5q0 -22 13.5 -38t33.5 -16zM994 277l44 116h37l-77 -190q-16 -34 -49 -34q-7 0 -10 1v28q23 0 31 20l6 16l-63 159h37zM1362 396q32 0 54 -24.5t22 -58.5l-1 -15h-119q2 -17 14.5 -29t29.5 -12q27 0 37 17h35q-9 -22 -28.5 -34.5t-43.5 -12.5q-32 0 -55 24.5
t-23 60.5q0 35 23 59.5t55 24.5zM1318 325h88q-1 17 -14.5 28.5t-29.5 11.5t-29 -11t-15 -29z" />
    <glyph glyph-name="Germandbls" horiz-adv-x="760" 
d="M417 435l112 125q-15 25 -65 25q-134 0 -166 -149l-93 -436h-180l93 436q31 144 120.5 226.5t225.5 82.5q62 0 114 -16t81.5 -38.5t50 -45.5t28.5 -39l7 -16l-150 -165q5 -2 14 -6.5t31 -21.5t39 -38.5t31 -58.5t14 -80q0 -102 -80.5 -168.5t-215.5 -66.5q-39 0 -80 8.5
t-62 17.5l-22 9l62 150q29 -30 94 -30q116 0 116 80q0 32 -35 59.5t-71 38.5l-35 12z" />
    <glyph glyph-name="ordfeminine.salt" horiz-adv-x="440" 
d="M260 445q20 0 38 12.5t26 24.5l7 13q-20 20 -55 20q-24 0 -39.5 -11t-15.5 -32q0 -27 39 -27zM314 740q81 0 123.5 -30t42.5 -85q0 -19 -4 -35l-49 -230h-121l8 49h-5q-4 -7 -13 -16.5t-38.5 -26t-62.5 -16.5q-54 0 -82 28t-28 74q0 56 46.5 89.5t124.5 33.5q24 0 46 -5
t32 -10l9 -5l3 15q2 14 2 20q0 22 -15.5 31t-53.5 9q-31 0 -63 -10t-48 -20l-17 -10h-15l22 105q7 5 20.5 12.5t54.5 20t81 12.5z" />
    <glyph glyph-name="a.salt" horiz-adv-x="610" 
d="M255 115q31 0 59.5 22.5t41.5 44.5l13 23q-30 25 -75 25q-40 0 -64.5 -21.5t-24.5 -49.5q0 -19 13 -31.5t37 -12.5zM339 545q114 0 175 -43.5t61 -122.5q0 -28 -5 -49l-70 -330h-170l9 60h-5q-2 -3 -7 -8t-20.5 -18t-32.5 -23t-44 -18t-55 -8q-73 0 -116 40t-43 104
q0 79 67 130t176 51q38 0 69.5 -7.5t43.5 -14.5l13 -8l6 30q2 16 2 22q0 63 -89 63q-51 0 -102 -16.5t-76 -32.5l-26 -16h-15l31 145q9 8 27 19.5t76 31t120 19.5z" />
    <glyph glyph-name="g.salt" horiz-adv-x="585" 
d="M69 335q0 93 70.5 151.5t184.5 58.5q38 0 71.5 -6.5t47.5 -13.5l14 -7q2 4 7 11.5t22 26t36.5 32.5t52 25.5t68.5 11.5l-29 -135q-25 0 -48.5 -6t-34.5 -12l-11 -7q30 -37 30 -100q0 -137 -152 -195l-173 -55h96q101 0 150 -40.5t49 -109.5q0 -83 -84.5 -141.5
t-242.5 -58.5q-129 0 -188 34.5t-59 90.5q0 32 22.5 61t45.5 41l22 13h-40l18 85l192 82q-6 1 -15 3.5t-32.5 13.5t-41.5 27.5t-33 48t-15 70.5zM341 -40q0 45 -100 45h-60q-8 -1 -20 -4.5t-32.5 -20t-20.5 -40.5q0 -45 105 -45q128 0 128 65zM237 335q0 -26 15.5 -40.5
t42.5 -14.5q37 0 62 23t25 62q0 26 -15.5 40.5t-42.5 14.5q-37 0 -62 -23t-25 -62z" />
    <glyph glyph-name="l.salt" horiz-adv-x="305" 
d="M352 760l-162 -760h-175l162 760h175z" />
    <glyph glyph-name="y.salt" horiz-adv-x="625" 
d="M672 530l-444 -750h-190l138 225l-119 525h177l70 -334h5l175 334h188z" />
    <glyph glyph-name="afii10110.salt" horiz-adv-x="625" 
d="M672 530l-444 -750h-190l138 225l-119 525h177l70 -334h5l175 334h188zM377 597q-38 0 -74 10t-53 20l-17 10l26 120q6 -6 17 -15t45.5 -24.5t70.5 -15.5t75 14t61 28l21 13l-26 -120q-6 -4 -17 -11t-49 -18t-80 -11z" />
    <glyph glyph-name="afii10065.salt" horiz-adv-x="610" 
d="M255 115q31 0 59.5 22.5t41.5 44.5l13 23q-30 25 -75 25q-40 0 -64.5 -21.5t-24.5 -49.5q0 -19 13 -31.5t37 -12.5zM339 545q114 0 175 -43.5t61 -122.5q0 -28 -5 -49l-70 -330h-170l9 60h-5q-2 -3 -7 -8t-20.5 -18t-32.5 -23t-44 -18t-55 -8q-73 0 -116 40t-43 104
q0 79 67 130t176 51q38 0 69.5 -7.5t43.5 -14.5l13 -8l6 30q2 16 2 22q0 63 -89 63q-51 0 -102 -16.5t-76 -32.5l-26 -16h-15l31 145q9 8 27 19.5t76 31t120 19.5z" />
    <glyph glyph-name="afii10085.salt" horiz-adv-x="625" 
d="M672 530l-444 -750h-190l138 225l-119 525h177l70 -334h5l175 334h188z" />
    <glyph glyph-name="agrave.salt" horiz-adv-x="610" 
d="M255 115q31 0 59.5 22.5t41.5 44.5l13 23q-30 25 -75 25q-40 0 -64.5 -21.5t-24.5 -49.5q0 -19 13 -31.5t37 -12.5zM339 545q114 0 175 -43.5t61 -122.5q0 -28 -5 -49l-70 -330h-170l9 60h-5q-2 -3 -7 -8t-20.5 -18t-32.5 -23t-44 -18t-55 -8q-73 0 -116 40t-43 104
q0 79 67 130t176 51q38 0 69.5 -7.5t43.5 -14.5l13 -8l6 30q2 16 2 22q0 63 -89 63q-51 0 -102 -16.5t-76 -32.5l-26 -16h-15l31 145q9 8 27 19.5t76 31t120 19.5zM413 785l14 -195h-95l-104 195h185z" />
    <glyph glyph-name="aacute.salt" horiz-adv-x="610" 
d="M255 115q31 0 59.5 22.5t41.5 44.5l13 23q-30 25 -75 25q-40 0 -64.5 -21.5t-24.5 -49.5q0 -19 13 -31.5t37 -12.5zM339 545q114 0 175 -43.5t61 -122.5q0 -28 -5 -49l-70 -330h-170l9 60h-5q-2 -3 -7 -8t-20.5 -18t-32.5 -23t-44 -18t-55 -8q-73 0 -116 40t-43 104
q0 79 67 130t176 51q38 0 69.5 -7.5t43.5 -14.5l13 -8l6 30q2 16 2 22q0 63 -89 63q-51 0 -102 -16.5t-76 -32.5l-26 -16h-15l31 145q9 8 27 19.5t76 31t120 19.5zM310 590l96 195h185l-166 -195h-115z" />
    <glyph glyph-name="abreve.salt" horiz-adv-x="610" 
d="M255 115q31 0 59.5 22.5t41.5 44.5l13 23q-30 25 -75 25q-40 0 -64.5 -21.5t-24.5 -49.5q0 -19 13 -31.5t37 -12.5zM339 545q114 0 175 -43.5t61 -122.5q0 -28 -5 -49l-70 -330h-170l9 60h-5q-2 -3 -7 -8t-20.5 -18t-32.5 -23t-44 -18t-55 -8q-73 0 -116 40t-43 104
q0 79 67 130t176 51q38 0 69.5 -7.5t43.5 -14.5l13 -8l6 30q2 16 2 22q0 63 -89 63q-51 0 -102 -16.5t-76 -32.5l-26 -16h-15l31 145q9 8 27 19.5t76 31t120 19.5zM400 705q44 0 90 15t70 30l23 15l-26 -120q-6 -6 -19 -14t-57.5 -22t-95.5 -14q-47 0 -89 12.5t-60 24.5
l-19 13l26 120q6 -7 18.5 -17t53.5 -26.5t85 -16.5z" />
    <glyph glyph-name="acircumflex.salt" horiz-adv-x="610" 
d="M255 115q31 0 59.5 22.5t41.5 44.5l13 23q-30 25 -75 25q-40 0 -64.5 -21.5t-24.5 -49.5q0 -19 13 -31.5t37 -12.5zM339 545q114 0 175 -43.5t61 -122.5q0 -28 -5 -49l-70 -330h-170l9 60h-5q-2 -3 -7 -8t-20.5 -18t-32.5 -23t-44 -18t-55 -8q-73 0 -116 40t-43 104
q0 79 67 130t176 51q38 0 69.5 -7.5t43.5 -14.5l13 -8l6 30q2 16 2 22q0 63 -89 63q-51 0 -102 -16.5t-76 -32.5l-26 -16h-15l31 145q9 8 27 19.5t76 31t120 19.5zM479 590l-86 100l-124 -100h-117l191 195h120l109 -195h-93z" />
    <glyph glyph-name="adieresis.salt" horiz-adv-x="610" 
d="M255 115q31 0 59.5 22.5t41.5 44.5l13 23q-30 25 -75 25q-40 0 -64.5 -21.5t-24.5 -49.5q0 -19 13 -31.5t37 -12.5zM339 545q114 0 175 -43.5t61 -122.5q0 -28 -5 -49l-70 -330h-170l9 60h-5q-2 -3 -7 -8t-20.5 -18t-32.5 -23t-44 -18t-55 -8q-73 0 -116 40t-43 104
q0 79 67 130t176 51q38 0 69.5 -7.5t43.5 -14.5l13 -8l6 30q2 16 2 22q0 63 -89 63q-51 0 -102 -16.5t-76 -32.5l-26 -16h-15l31 145q9 8 27 19.5t76 31t120 19.5zM186 668q0 43 31 72.5t76 29.5q32 0 50 -18.5t18 -49.5q0 -43 -31 -72.5t-76 -29.5q-32 0 -50 18.5t-18 49.5
zM406 668q0 43 31 72.5t76 29.5q32 0 50 -18.5t18 -49.5q0 -43 -31 -72.5t-76 -29.5q-32 0 -50 18.5t-18 49.5z" />
    <glyph glyph-name="amacron.salt" horiz-adv-x="610" 
d="M255 115q31 0 59.5 22.5t41.5 44.5l13 23q-30 25 -75 25q-40 0 -64.5 -21.5t-24.5 -49.5q0 -19 13 -31.5t37 -12.5zM339 545q114 0 175 -43.5t61 -122.5q0 -28 -5 -49l-70 -330h-170l9 60h-5q-2 -3 -7 -8t-20.5 -18t-32.5 -23t-44 -18t-55 -8q-73 0 -116 40t-43 104
q0 79 67 130t176 51q38 0 69.5 -7.5t43.5 -14.5l13 -8l6 30q2 16 2 22q0 63 -89 63q-51 0 -102 -16.5t-76 -32.5l-26 -16h-15l31 145q9 8 27 19.5t76 31t120 19.5zM162 625l24 115h415l-24 -115h-415z" />
    <glyph glyph-name="aogonek.salt" horiz-adv-x="610" 
d="M339 545q114 0 175 -43.5t61 -122.5q0 -28 -5 -49l-70 -330q-5 -2 -13 -6t-28.5 -18.5t-36.5 -30.5t-29 -41.5t-13 -52.5q0 -36 35 -36q11 0 23 2.5t18 4.5l7 3l-14 -65q-29 -20 -85 -20q-61 0 -90 25t-29 66q0 33 17 62.5t41 48t48.5 32.5t41.5 20l17 6h-80l9 60h-5
q-2 -3 -7 -8t-20.5 -18t-32.5 -23t-44 -18t-55 -8q-73 0 -116 40t-43 104q0 79 67 130t176 51q38 0 69.5 -7.5t43.5 -14.5l13 -8l6 30q2 16 2 22q0 63 -89 63q-51 0 -102 -16.5t-76 -32.5l-26 -16h-15l31 145q9 8 27 19.5t76 31t120 19.5zM255 115q31 0 59.5 22.5t41.5 44.5
l13 23q-30 25 -75 25q-40 0 -64.5 -21.5t-24.5 -49.5q0 -19 13 -31.5t37 -12.5z" />
    <glyph glyph-name="aring.salt" horiz-adv-x="610" 
d="M255 115q31 0 59.5 22.5t41.5 44.5l13 23q-30 25 -75 25q-40 0 -64.5 -21.5t-24.5 -49.5q0 -19 13 -31.5t37 -12.5zM339 545q114 0 175 -43.5t61 -122.5q0 -28 -5 -49l-70 -330h-170l9 60h-5q-2 -3 -7 -8t-20.5 -18t-32.5 -23t-44 -18t-55 -8q-73 0 -116 40t-43 104
q0 79 67 130t176 51q38 0 69.5 -7.5t43.5 -14.5l13 -8l6 30q2 16 2 22q0 63 -89 63q-51 0 -102 -16.5t-76 -32.5l-26 -16h-15l31 145q9 8 27 19.5t76 31t120 19.5zM357 701q0 -26 29 -26q19 0 31.5 11t12.5 33q0 26 -29 26q-19 0 -31.5 -11t-12.5 -33zM527 719
q0 -58 -43 -96t-98 -38q-60 0 -93 32t-33 84q0 58 43 96t98 38q60 0 93 -32t33 -84z" />
    <glyph glyph-name="atilde.salt" horiz-adv-x="610" 
d="M255 115q31 0 59.5 22.5t41.5 44.5l13 23q-30 25 -75 25q-40 0 -64.5 -21.5t-24.5 -49.5q0 -19 13 -31.5t37 -12.5zM339 545q114 0 175 -43.5t61 -122.5q0 -28 -5 -49l-70 -330h-170l9 60h-5q-2 -3 -7 -8t-20.5 -18t-32.5 -23t-44 -18t-55 -8q-73 0 -116 40t-43 104
q0 79 67 130t176 51q38 0 69.5 -7.5t43.5 -14.5l13 -8l6 30q2 16 2 22q0 63 -89 63q-51 0 -102 -16.5t-76 -32.5l-26 -16h-15l31 145q9 8 27 19.5t76 31t120 19.5zM287 650q-24 0 -52.5 -11t-44.5 -23l-17 -11l25 120q4 6 13 14t39.5 22t66.5 14q41 0 85 -25t81 -25
q24 0 52.5 11.5t44.5 22.5l17 11l-25 -120q-4 -6 -13 -14t-39.5 -22t-66.5 -14q-41 0 -85 25t-81 25z" />
    <glyph glyph-name="ae.salt" horiz-adv-x="971" 
d="M339 545q64 0 111.5 -14.5t63.5 -28.5l16 -14q8 6 22.5 15.5t59.5 25.5t91 16q110 0 173.5 -59.5t63.5 -165.5q0 -38 -9 -85h-391q0 -15 3.5 -29t15.5 -33.5t41 -31t73 -11.5q53 0 100 14t67 28l20 13h15l-30 -140q-2 -2 -7 -6.5t-23 -14.5t-40 -18t-60.5 -14.5
t-81.5 -6.5t-80.5 11.5t-60.5 27.5t-40.5 32t-24.5 28l-7 11h-5q-3 -4 -8 -11.5t-25.5 -26.5t-44.5 -33.5t-65 -26.5t-87 -12q-80 0 -124.5 39.5t-44.5 104.5q0 79 67 130t176 51q38 0 69.5 -7.5t43.5 -14.5l13 -8l6 30q2 16 2 22q0 63 -89 63q-51 0 -102 -16.5t-76 -32.5
l-26 -16h-15l31 145q9 8 27 19.5t76 31t120 19.5zM255 115q31 0 59.5 22.5t41.5 44.5l13 23q-30 25 -75 25q-40 0 -64.5 -21.5t-24.5 -49.5q0 -19 13 -31.5t37 -12.5zM713 410q-52 0 -90 -23t-57 -57h225q1 4 1 12q0 28 -21.5 48t-57.5 20z" />
    <glyph glyph-name="gbreve.salt" horiz-adv-x="585" 
d="M69 335q0 93 70.5 151.5t184.5 58.5q38 0 71.5 -6.5t47.5 -13.5l14 -7q2 4 7 11.5t22 26t36.5 32.5t52 25.5t68.5 11.5l-29 -135q-25 0 -48.5 -6t-34.5 -12l-11 -7q30 -37 30 -100q0 -137 -152 -195l-173 -55h96q101 0 150 -40.5t49 -109.5q0 -83 -84.5 -141.5
t-242.5 -58.5q-129 0 -188 34.5t-59 90.5q0 32 22.5 61t45.5 41l22 13h-40l18 85l192 82q-6 1 -15 3.5t-32.5 13.5t-41.5 27.5t-33 48t-15 70.5zM341 -40q0 45 -100 45h-60q-8 -1 -20 -4.5t-32.5 -20t-20.5 -40.5q0 -45 105 -45q128 0 128 65zM237 335q0 -26 15.5 -40.5
t42.5 -14.5q37 0 62 23t25 62q0 26 -15.5 40.5t-42.5 14.5q-37 0 -62 -23t-25 -62zM387 725q44 0 90 15t69 30l24 15l-26 -120q-6 -6 -19 -14t-57.5 -22t-95.5 -14q-47 0 -89 12.5t-61 24.5l-18 13l26 120q6 -7 18.5 -17t53.5 -26.5t85 -16.5z" />
    <glyph glyph-name="gcommaaccent.salt" horiz-adv-x="585" 
d="M286 656q0 44 31 95.5t85 83.5h55q-7 -6 -17.5 -15.5t-30 -36t-23.5 -48.5q47 -7 47 -53q0 -37 -25.5 -62t-61.5 -25q-27 0 -43.5 15.5t-16.5 45.5zM69 335q0 93 70.5 151.5t184.5 58.5q38 0 71.5 -6.5t47.5 -13.5l14 -7q2 4 7 11.5t22 26t36.5 32.5t52 25.5t68.5 11.5
l-29 -135q-25 0 -48.5 -6t-34.5 -12l-11 -7q30 -37 30 -100q0 -137 -152 -195l-173 -55h96q101 0 150 -40.5t49 -109.5q0 -83 -84.5 -141.5t-242.5 -58.5q-129 0 -188 34.5t-59 90.5q0 32 22.5 61t45.5 41l22 13h-40l18 85l192 82q-6 1 -15 3.5t-32.5 13.5t-41.5 27.5
t-33 48t-15 70.5zM341 -40q0 45 -100 45h-60q-8 -1 -20 -4.5t-32.5 -20t-20.5 -40.5q0 -45 105 -45q128 0 128 65zM237 335q0 -26 15.5 -40.5t42.5 -14.5q37 0 62 23t25 62q0 26 -15.5 40.5t-42.5 14.5q-37 0 -62 -23t-25 -62z" />
    <glyph glyph-name="lacute.salt" horiz-adv-x="305" 
d="M352 760l-162 -760h-175l162 760h175zM226 830l96 195h185l-166 -195h-115z" />
    <glyph glyph-name="lcaron.salt" horiz-adv-x="405" 
d="M352 760l-162 -760h-175l162 760h175zM540 739q0 -44 -31 -95.5t-85 -83.5h-55q7 6 17.5 15.5t30 36t23.5 48.5q-47 7 -47 53q0 37 25.5 62t61.5 25q27 0 43.5 -15.5t16.5 -45.5z" />
    <glyph glyph-name="lcommaaccent.salt" horiz-adv-x="305" 
d="M352 760l-162 -760h-175l162 760h175zM153 -116q0 -44 -31 -95.5t-85 -83.5h-55q7 6 17.5 15.5t30 36t23.5 48.5q-47 7 -47 53q0 37 25.5 62t61.5 25q27 0 43.5 -15.5t16.5 -45.5z" />
    <glyph glyph-name="lslash.salt" horiz-adv-x="325" 
d="M361 760l-55 -260l69 20l-32 -150l-69 -20l-74 -350h-175l61 290l-69 -20l32 150l69 20l68 320h175z" />
    <glyph glyph-name="yacute.salt" horiz-adv-x="625" 
d="M672 530l-444 -750h-190l138 225l-119 525h177l70 -334h5l175 334h188zM300 590l96 195h185l-166 -195h-115z" />
    <glyph glyph-name="ydieresis.salt" horiz-adv-x="625" 
d="M672 530l-444 -750h-190l138 225l-119 525h177l70 -334h5l175 334h188zM177 668q0 43 31 72.5t76 29.5q32 0 50 -18.5t18 -49.5q0 -43 -31 -72.5t-76 -29.5q-32 0 -50 18.5t-18 49.5zM397 668q0 43 31 72.5t76 29.5q32 0 50 -18.5t18 -49.5q0 -43 -31 -72.5t-76 -29.5
q-32 0 -50 18.5t-18 49.5z" />
    <glyph glyph-name="zero.taboldstyle" 
d="M416 287q0 44 -26 71t-69 27q-62 0 -98.5 -39t-36.5 -103q0 -44 26 -71t69 -27q62 0 98.5 39t36.5 103zM603 297q0 -132 -92 -222t-235 -90q-123 0 -200 71t-77 177q0 132 92 222t235 90q123 0 200 -71t77 -177z" />
    <glyph glyph-name="one.taboldstyle" 
d="M35 0l33 155h145l40 190l-154 -45l31 145l203 85h140l-80 -375h145l-33 -155h-470z" />
    <glyph glyph-name="two.taboldstyle" 
d="M-12 15l287 220q77 61 77 106q0 21 -14.5 32.5t-40.5 11.5q-44 0 -94.5 -30t-78.5 -60l-28 -30h-20l35 165q4 5 11 12.5t30 27.5t47.5 35t62 27.5t75.5 12.5q95 0 151.5 -49t56.5 -125q0 -41 -23.5 -83t-44.5 -62.5t-42 -35.5l-41 -30h120l-34 -160h-495z" />
    <glyph glyph-name="three.taboldstyle" 
d="M229 140q-27 0 -50.5 -6t-34.5 -12l-10 -7l-39 75l161 180h-168l34 160h460l-3 -15l-243 -250l-1 -5q4 0 10 -1t24.5 -5.5t35.5 -12.5t37 -24t35 -37t25 -55t10 -75q0 -113 -87 -189t-227 -76q-43 0 -85 9.5t-70.5 22.5t-51 26t-33.5 23l-10 9l83 130q6 -7 17.5 -17
t52 -26.5t87.5 -16.5q67 0 103 32t36 88q0 75 -98 75z" />
    <glyph glyph-name="four.taboldstyle" 
d="M589 160l-34 -160h-100l-43 -200h-180l43 200h-350l3 15l375 515h200l-269 -370h80l57 125h145l-27 -125h100z" />
    <glyph glyph-name="five.taboldstyle" 
d="M332 64q0 37 -26.5 59t-73.5 22q-32 0 -60 -11t-40 -22l-11 -12l-87 60l133 370h410l-34 -160h-284l-36 -95q32 10 72 10q101 0 160.5 -61.5t59.5 -159.5q0 -126 -84 -202.5t-233 -76.5q-43 0 -85 9.5t-70.5 22.5t-51 26t-33.5 23l-10 9l78 130l6.5 -6.5t20 -14.5t33 -18
t45.5 -14.5t57 -6.5q66 0 105 32t39 87z" />
    <glyph glyph-name="six.taboldstyle" 
d="M370 730h215q-23 -15 -60 -40t-117 -95t-120 -130h5q22 15 92 15q95 0 153.5 -63t58.5 -164q0 -112 -91.5 -190t-225.5 -78q-132 0 -199.5 66t-67.5 176q0 79 37 160t89 140t104.5 106.5t89.5 72.5zM325 330q-56 0 -91.5 -32.5t-35.5 -80.5q0 -34 22 -55.5t60 -21.5
q56 0 91.5 32.5t35.5 80.5q0 34 -22 55.5t-60 21.5z" />
    <glyph glyph-name="seven.taboldstyle" 
d="M222 -200h-195l326 570h-290l34 160h525l-3 -15z" />
    <glyph glyph-name="eight.taboldstyle" 
d="M273 135q56 0 92 32.5t36 80.5q0 35 -23 56t-64 21q-55 0 -91.5 -32.5t-36.5 -80.5q0 -35 23 -56t64 -21zM341 455q39 0 65.5 24t26.5 59q0 25 -16.5 41t-45.5 16q-39 0 -65.5 -24t-26.5 -59q0 -25 16.5 -41t45.5 -16zM371 745q118 0 183 -55t65 -135q0 -32 -12 -61
t-29 -48t-34 -33.5t-29 -20.5l-12 -7l-1 -5q3 -2 8.5 -6t20 -18.5t25 -31t19.5 -42.5t9 -54q0 -103 -86 -173t-225 -70q-137 0 -208 58t-71 149q0 41 17 77.5t41 58t48 37.5t41 23l17 6l1 5q-6 5 -16 15t-26 43.5t-16 71.5q0 88 77.5 152t192.5 64z" />
    <glyph glyph-name="nine.taboldstyle" 
d="M232 -200h-215q23 15 60 40t117 95t120 130h-5q-22 -15 -92 -15q-95 0 -153.5 63t-58.5 164q0 112 91.5 190t225.5 78q132 0 199.5 -66t67.5 -176q0 -79 -37 -160t-89 -140t-104.5 -106.5t-89.5 -72.5zM277 200q56 0 91.5 32.5t35.5 80.5q0 34 -22 55.5t-60 21.5
q-56 0 -91.5 -32.5t-35.5 -80.5q0 -34 22 -55.5t60 -21.5z" />
    <glyph glyph-name="zero.tab" 
d="M197 270q0 -125 78 -125q84 0 128 86t44 229q0 125 -78 125q-84 0 -128 -86t-44 -229zM631 460q0 -131 -46 -239.5t-127.5 -172t-182.5 -63.5q-118 0 -190 78t-72 207q0 131 46 239.5t127.5 172t182.5 63.5q118 0 190 -78t72 -207z" />
    <glyph glyph-name="one.tab" 
d="M35 0l34 160h145l79 370l-162 -80l37 175l207 105h140l-121 -570h145l-34 -160h-470z" />
    <glyph glyph-name="two.tab" 
d="M-32 15l360 375q83 86 83 140q0 55 -72 55q-31 0 -65 -13.5t-61 -32.5t-49.5 -38t-34.5 -33l-12 -13h-20l35 165q4 5 11.5 13.5t32 30t51 38t66.5 30t81 13.5q104 0 164.5 -54.5t60.5 -138.5q0 -18 -3 -36.5t-10 -35.5t-13.5 -32t-17.5 -31.5l-18 -27t-20 -25t-17.5 -20
t-15.5 -17.5l-12 -12l-148 -155h215l-34 -160h-540z" />
    <glyph glyph-name="three.tab" 
d="M271 340q-27 0 -50.5 -6t-34.5 -12l-10 -7l-39 75l161 180h-168l34 160h460l-3 -15l-243 -250l-1 -5q4 0 10 -1t24.5 -5.5t35.5 -12.5t37 -24t35 -37t25 -55t10 -75q0 -113 -87 -189t-227 -76q-43 0 -85 9.5t-70.5 22.5t-51 26t-33.5 23l-10 9l83 130q6 -7 17.5 -17
t52 -26.5t87.5 -16.5q67 0 103 32t36 88q0 75 -98 75z" />
    <glyph glyph-name="four.tab" 
d="M620 305l-34 -160h-100l-31 -145h-180l31 145h-350l3 15l416 570h200l-310 -425h80l57 125h145l-27 -125h100z" />
    <glyph glyph-name="five.tab" 
d="M379 264q0 37 -26.5 59t-73.5 22q-32 0 -60 -11.5t-39 -22.5l-12 -11l-87 60l133 370h410l-34 -160h-284l-36 -95q32 10 72 10q101 0 160.5 -61.5t59.5 -159.5q0 -126 -84 -202.5t-233 -76.5q-43 0 -85 9.5t-70.5 22.5t-51 26t-32.5 23l-11 9l78 130l6.5 -6.5t20 -14.5
t33 -18t45.5 -14.5t57 -6.5q66 0 105 32t39 87z" />
    <glyph glyph-name="six.tab" 
d="M370 730h215q-23 -15 -60 -40t-117 -95t-120 -130h5q22 15 92 15q95 0 153.5 -63t58.5 -164q0 -112 -91.5 -190t-225.5 -78q-132 0 -199.5 66t-67.5 176q0 79 37 160t89 140t104.5 106.5t89.5 72.5zM325 330q-56 0 -91.5 -32.5t-35.5 -80.5q0 -34 22 -55.5t60 -21.5
q56 0 91.5 32.5t35.5 80.5q0 34 -22 55.5t-60 21.5z" />
    <glyph glyph-name="seven.tab" 
d="M265 0h-195l326 570h-290l34 160h525l-3 -15z" />
    <glyph glyph-name="eight.tab" 
d="M273 135q56 0 92 32.5t36 80.5q0 35 -23 56t-64 21q-55 0 -91.5 -32.5t-36.5 -80.5q0 -35 23 -56t64 -21zM341 455q39 0 65.5 24t26.5 59q0 25 -16.5 41t-45.5 16q-39 0 -65.5 -24t-26.5 -59q0 -25 16.5 -41t45.5 -16zM371 745q118 0 183 -55t65 -135q0 -32 -12 -61
t-29 -48t-34 -33.5t-29 -20.5l-12 -7l-1 -5q3 -2 8.5 -6t20 -18.5t25 -31t19.5 -42.5t9 -54q0 -103 -86 -173t-225 -70q-137 0 -208 58t-71 149q0 41 17 77.5t41 58t48 37.5t41 23l17 6l1 5q-6 5 -16 15t-26 43.5t-16 71.5q0 88 77.5 152t192.5 64z" />
    <glyph glyph-name="nine.tab" 
d="M275 0h-215q23 15 60 40t117 95t120 130h-5q-22 -15 -92 -15q-95 0 -153.5 63t-58.5 164q0 112 91.5 190t225.5 78q132 0 199.5 -66t67.5 -176q0 -79 -37 -160t-89 -140t-104.5 -106.5t-89.5 -72.5zM320 400q56 0 91.5 32.5t35.5 80.5q0 34 -22 55.5t-60 21.5
q-56 0 -91.5 -32.5t-35.5 -80.5q0 -34 22 -55.5t60 -21.5z" />
    <glyph glyph-name="zero.numr" horiz-adv-x="370" 
d="M197 513q0 -58 35 -58q31 0 53 33t22 99q0 58 -35 58q-31 0 -53 -33t-22 -99zM418 587q0 -100 -56.5 -163.5t-129.5 -63.5q-69 0 -107.5 42t-38.5 111q0 100 56.5 163.5t129.5 63.5q69 0 107.5 -42t38.5 -111z" />
    <glyph glyph-name="one.numr" horiz-adv-x="245" 
d="M95 565l23 109l112 56h80l-76 -360h-110l50 235z" />
    <glyph glyph-name="two.numr" horiz-adv-x="335" 
d="M57 385l177 175q32 30 32 58q0 27 -34 27q-20 0 -48 -13.5t-46 -27.5l-17 -14h-10l19 92q6 6 18 16t49 26t75 16q111 0 111 -102q0 -50 -43 -93l-76 -80h90l-20 -95h-280z" />
    <glyph glyph-name="three.numr" horiz-adv-x="330" 
d="M208 530q-11 0 -23.5 -4t-18.5 -8l-7 -3l-30 45l76 75h-80l20 95h250l-3 -15l-113 -110q3 -1 8.5 -3t20 -10t25 -18.5t19.5 -29t9 -40.5q0 -68 -46.5 -106t-128.5 -38q-36 0 -68.5 11t-47.5 23l-14 11l47 80q33 -35 83 -35q30 0 47 13t17 36q0 31 -42 31z" />
    <glyph glyph-name="four.numr" horiz-adv-x="330" 
d="M350 730l-153 -200h45l32 55h65l-12 -55h50l-20 -95h-50l-14 -65h-110l14 65h-180l3 15l210 280h120z" />
    <glyph glyph-name="five.numr" horiz-adv-x="330" 
d="M250 499q0 31 -42 31q-13 0 -26.5 -4.5t-20.5 -9.5l-7 -4l-56 33l71 185h221l-20 -95h-145l-11 -30q11 5 31 5q53 0 85 -31t32 -80q0 -67 -46.5 -103t-129.5 -36q-36 0 -68.5 11t-47.5 23l-14 11l47 80q33 -35 83 -35q30 0 47 13t17 36z" />
    <glyph glyph-name="six.numr" horiz-adv-x="350" 
d="M260 730h120q-86 -50 -141 -120q12 5 32 5q57 0 86.5 -32t29.5 -86q0 -59 -47 -98t-114 -39q-76 0 -112.5 33.5t-36.5 89.5q0 39 19 79t45.5 69t53.5 52t46 35zM193 483q0 -28 33 -28q20 0 34.5 10.5t14.5 31.5q0 28 -34 28q-19 0 -33.5 -10.5t-14.5 -31.5z" />
    <glyph glyph-name="seven.numr" horiz-adv-x="305" 
d="M214 370h-120l151 265h-140l21 95h285l-4 -15z" />
    <glyph glyph-name="eight.numr" horiz-adv-x="350" 
d="M220 450q54 0 54 44q0 31 -38 31q-54 0 -54 -47q0 -28 38 -28zM253 605q36 0 36 31q0 19 -25 19q-36 0 -36 -31q0 -19 25 -19zM220 360q-79 0 -115.5 29.5t-36.5 78.5q0 33 19 57t38 32l19 8q-26 19 -26 64q0 49 40 80t106 31q138 0 138 -99q0 -26 -14.5 -47.5
t-29.5 -29.5l-14 -9q4 -1 10.5 -5t17.5 -22t11 -44q0 -55 -45 -89.5t-118 -34.5z" />
    <glyph glyph-name="nine.numr" horiz-adv-x="350" 
d="M223 370h-120q86 50 141 120q-12 -5 -32 -5q-57 0 -86.5 32t-29.5 86q0 59 47 98t114 39q76 0 112.5 -33.5t36.5 -89.5q0 -39 -19 -79t-46 -69t-53.5 -52t-45.5 -35zM290 617q0 28 -33 28q-20 0 -34.5 -10.5t-14.5 -31.5q0 -28 34 -28q19 0 33.5 10.5t14.5 31.5z" />
    <glyph glyph-name="zero.dnom" horiz-adv-x="370" 
d="M118 143q0 -58 35 -58q31 0 53 33t22 99q0 58 -35 58q-31 0 -53 -33t-22 -99zM339 217q0 -100 -56.5 -163.5t-129.5 -63.5q-69 0 -107.5 42t-38.5 111q0 100 56.5 163.5t129.5 63.5q69 0 107.5 -42t38.5 -111z" />
    <glyph glyph-name="one.dnom" horiz-adv-x="245" 
d="M16 195l23 109l112 56h80l-76 -360h-110l50 235z" />
    <glyph glyph-name="two.dnom" horiz-adv-x="335" 
d="M-22 15l177 175q32 30 32 58q0 27 -34 27q-20 0 -47.5 -13.5t-45.5 -27.5l-18 -14h-10l19 92q6 6 18 16t49 26t75 16q111 0 111 -102q0 -50 -43 -93l-76 -80h90l-20 -95h-280z" />
    <glyph glyph-name="three.dnom" horiz-adv-x="330" 
d="M129 160q-11 0 -23.5 -4t-19.5 -8l-6 -3l-30 45l76 75h-80l20 95h250l-3 -15l-113 -110q3 -1 8.5 -3t20 -10t25 -18.5t19.5 -29t9 -40.5q0 -68 -46.5 -106t-128.5 -38q-36 0 -68.5 11t-46.5 23l-15 11l47 80q33 -35 83 -35q30 0 47 13t17 36q0 31 -42 31z" />
    <glyph glyph-name="four.dnom" horiz-adv-x="330" 
d="M271 360l-153 -200h45l32 55h65l-12 -55h50l-20 -95h-50l-14 -65h-110l14 65h-180l3 15l210 280h120z" />
    <glyph glyph-name="five.dnom" horiz-adv-x="330" 
d="M171 129q0 31 -42 31q-13 0 -26.5 -4.5t-20.5 -9.5l-7 -4l-56 33l71 185h221l-20 -95h-145l-11 -30q11 5 31 5q53 0 85 -31t32 -80q0 -67 -46.5 -103t-129.5 -36q-36 0 -68.5 11t-46.5 23l-15 11l47 80q33 -35 83 -35q30 0 47 13t17 36z" />
    <glyph glyph-name="six.dnom" horiz-adv-x="350" 
d="M181 360h120q-86 -50 -141 -120q12 5 32 5q57 0 86.5 -32t29.5 -86q0 -59 -47 -98t-114 -39q-76 0 -112.5 33.5t-36.5 89.5q0 39 19 79t45.5 69t53.5 52t46 35zM114 113q0 -28 33 -28q20 0 34.5 10.5t14.5 31.5q0 28 -34 28q-19 0 -33.5 -10.5t-14.5 -31.5z" />
    <glyph glyph-name="seven.dnom" horiz-adv-x="305" 
d="M135 0h-120l151 265h-140l21 95h285l-4 -15z" />
    <glyph glyph-name="eight.dnom" horiz-adv-x="350" 
d="M141 80q54 0 54 44q0 31 -38 31q-54 0 -54 -47q0 -28 38 -28zM174 235q36 0 36 31q0 19 -25 19q-36 0 -36 -31q0 -19 25 -19zM141 -10q-79 0 -115.5 29.5t-36.5 78.5q0 33 19 57t38 32l19 8q-26 19 -26 64q0 49 40 80t106 31q138 0 138 -99q0 -26 -14.5 -47.5
t-28.5 -29.5l-15 -9q4 -1 10.5 -5t17.5 -22t11 -44q0 -55 -45 -89.5t-118 -34.5z" />
    <glyph glyph-name="nine.dnom" horiz-adv-x="350" 
d="M145 0h-120q86 50 141 120q-12 -5 -32 -5q-57 0 -86.5 32t-29.5 86q0 59 47 98t114 39q76 0 112.5 -33.5t36.5 -89.5q0 -39 -19 -79t-46 -69t-53.5 -52t-45.5 -35zM212 247q0 28 -33 28q-20 0 -34.5 -10.5t-14.5 -31.5q0 -28 34 -28q19 0 33.5 10.5t14.5 31.5z" />
    <glyph glyph-name="f_l.salt" horiz-adv-x="745" 
d="M796 780l-166 -780h-175l134 630q-31 0 -75 10t-71 10q-73 0 -90 -75l-10 -45h160l-33 -155h-160l-80 -375h-175l80 375h-85l33 155h85l13 60q45 210 242 210q58 0 116 -10t82 -10h175z" />
    <glyph glyph-name="f_f_l.salt" horiz-adv-x="1149" 
d="M1196 780l-166 -780h-175l134 630q-31 0 -75 10t-71 10q-73 0 -90 -75l-10 -45h160l-33 -155h-160l-80 -375h-175l80 375h-225l-80 -375h-175l80 375h-85l33 155h85l9 40q47 210 242 210q40 0 77.5 -14t55.5 -28l18 -13l-76 -120q-15 25 -55 25q-72 0 -90 -75l-6 -25h225
l13 60q45 210 242 210q58 0 116 -10t82 -10h175z" />
    <glyph glyph-name="at.case" horiz-adv-x="985" 
d="M993 448q0 -134 -69 -211t-176 -77q-40 0 -72 14t-44 28l-12 13h-10q-6 -6 -16.5 -15t-48.5 -24.5t-81 -15.5q-76 0 -129.5 52t-53.5 134q0 98 65.5 161t153.5 63q40 0 75 -12.5t50 -25.5l15 -12l28 40h106l-47 -220q-3 -16 -3 -27q0 -38 39 -38q43 0 70.5 43t27.5 130
q0 104 -70 168t-197 64q-169 0 -284.5 -108.5t-115.5 -268.5q0 -115 72 -184t194 -69q64 0 119 11t78 23l23 11l-27 -125q-5 -4 -17 -10t-62 -15.5t-114 -9.5q-177 0 -288 103.5t-111 264.5q0 211 149 351.5t384 140.5q191 0 295 -96t104 -251zM489 280q42 0 71.5 28.5
t29.5 75.5q0 31 -18 48.5t-47 17.5q-42 0 -71.5 -28.5t-29.5 -75.5q0 -31 18 -48.5t47 -17.5z" />
    <glyph glyph-name="parenleft.case" horiz-adv-x="385" 
d="M221 203q0 -92 15.5 -179.5t31.5 -128.5l15 -41h-130q-4 6 -10 16.5t-21 46t-27 74t-21.5 96.5t-9.5 116q0 111 30.5 221t74 187.5t87 139.5t74.5 93l30 30h140q-11 -11 -30 -32t-67 -89.5t-85 -142t-67 -185t-30 -222.5z" />
    <glyph glyph-name="parenright.case" horiz-adv-x="385" 
d="M218 525q0 92 -15.5 179.5t-30.5 128.5l-16 41h130q4 -6 10 -16.5t21 -46t27 -74t21.5 -96.5t9.5 -116q0 -111 -30.5 -221t-74 -187.5t-87 -139.5t-73.5 -93l-31 -30h-140q11 11 30 32t67 89.5t85 142t67 185t30 222.5z" />
    <glyph glyph-name="bracketleft.case" horiz-adv-x="430" 
d="M4 -145l216 1015h310l-31 -145h-155l-154 -725h155l-31 -145h-310z" />
    <glyph glyph-name="bracketright.case" horiz-adv-x="430" 
d="M480 870l-216 -1015h-310l31 145h155l154 725h-155l31 145h310z" />
    <glyph glyph-name="braceleft.case" horiz-adv-x="435" 
d="M61 295l29 135q81 0 100 90l35 165q20 98 70.5 141.5t159.5 43.5h79l-29 -135h-30q-42 0 -64.5 -18t-32.5 -62l-38 -180q-6 -29 -19 -51.5t-27 -33.5t-27 -18t-21 -8l-9 -2l-1 -5q2 -1 6 -2t14.5 -7t18 -14t14 -23t6.5 -33q0 -13 -3 -28l-38 -180q-4 -16 -4 -30
q0 -27 16 -38.5t51 -11.5h30l-29 -135h-21q-102 0 -158.5 36t-56.5 106q0 18 5 43l36 165q4 24 4 32q0 58 -66 58z" />
    <glyph glyph-name="braceright.case" horiz-adv-x="435" 
d="M427 430l-29 -135q-81 0 -100 -90l-35 -165q-20 -98 -70.5 -141.5t-159.5 -43.5h-78l27 135h31q42 0 64.5 18t32.5 62l38 180q6 29 19 51.5t27 33.5t27 18t21 9l9 1l1 5q-2 1 -6 2t-14.5 7t-18 14t-14 23t-6.5 33q0 13 3 28l38 180q4 16 4 30q0 27 -16 38.5t-51 11.5h-30
l29 135h21q102 0 158.5 -36t56.5 -106q0 -18 -5 -43l-36 -165q-4 -24 -4 -32q0 -58 66 -58z" />
    <glyph glyph-name="exclamdown.case" horiz-adv-x="320" 
d="M40 95l106 380h130l-56 -380l-35 -165h-180zM345 665q0 -51 -34.5 -83t-83.5 -32q-36 0 -57 20t-21 55q0 51 34.5 83t83.5 32q36 0 57 -20t21 -55z" />
    <glyph glyph-name="questiondown.case" horiz-adv-x="525" 
d="M461 215l-37 -170q-7 -7 -21 -17t-61.5 -26.5t-100.5 -16.5q-108 0 -165 52t-57 136q0 45 23 83.5t57 67t68.5 54t62.5 56t35 61.5h165q-9 -44 -35.5 -82t-57.5 -64t-60.5 -49.5t-49 -49t-19.5 -52.5q0 -53 68 -53q36 0 77 17.5t65 35.5l23 17h20zM480 665
q0 -51 -34.5 -83t-83.5 -32q-36 0 -57 20t-21 55q0 51 34.5 83t83.5 32q36 0 57 -20t21 -55z" />
    <glyph glyph-name="guillemotleft.case" horiz-adv-x="625" 
d="M207 347l117 -207h-145l-124 215l4 20l191 215h170l-211 -233zM457 347l117 -207h-145l-124 215l4 20l191 215h170l-211 -233z" />
    <glyph glyph-name="guillemotright.case" horiz-adv-x="625" 
d="M471 383l-117 207h145l124 -215l-4 -20l-191 -215h-170l211 233zM221 383l-117 207h145l124 -215l-4 -20l-191 -215h-170l211 233z" />
    <glyph glyph-name="guilsinglleft.case" horiz-adv-x="405" 
d="M207 350l147 -210h-145l-154 215l4 20l221 215h170l-241 -230z" />
    <glyph glyph-name="guilsinglright.case" horiz-adv-x="405" 
d="M252 380l-147 210h145l154 -215l-4 -20l-221 -215h-170l241 230z" />
    <glyph glyph-name="hyphen.case" horiz-adv-x="430" 
d="M51 290l32 150h350l-32 -150h-350z" />
    <glyph glyph-name="endash.case" horiz-adv-x="585" 
d="M51 290l31 145h505l-31 -145h-505z" />
    <glyph glyph-name="emdash.case" horiz-adv-x="945" 
d="M51 290l31 145h865l-31 -145h-865z" />
    <glyph glyph-name="periodcentered.case" horiz-adv-x="280" 
d="M70 345q0 51 34.5 83t83.5 32q36 0 57 -20t21 -55q0 -51 -34.5 -83t-83.5 -32q-36 0 -57 20t-21 55z" />
    <glyph glyph-name="bullet.case" horiz-adv-x="500" 
d="M148 369q0 55 38.5 92.5t91.5 37.5t91.5 -37.5t38.5 -92.5t-38.5 -92.5t-91.5 -37.5t-91.5 37.5t-38.5 92.5z" />
    </font>
</defs>
</svg>
