<?xml version="1.0" standalone="no"?>
<!DOCTYPE svg PUBLIC "-//W3C//DTD SVG 1.1//EN" "http://www.w3.org/Graphics/SVG/1.1/DTD/svg11.dtd" >
<svg xmlns="http://www.w3.org/2000/svg" xmlns:xlink="http://www.w3.org/1999/xlink" version="1.1">
<metadata>
Created by FontForge 20170731 at Wed Dec  6 20:29:12 2017
 By Aleksey,,,
Copyright (c) 2018 by TypeType. Designer Ivan Gladkikh, technical designers Philipp Nurullin, Nadyr Rakhimov, Olexa Volochay, Vika Usmanova. All rights reserved.
</metadata>
<defs>
<font id="TTWellingtons-Bold" horiz-adv-x="580" >
  <font-face 
    font-family="TT Wellingtons"
    font-weight="700"
    font-stretch="normal"
    units-per-em="1000"
    panose-1="2 0 8 3 0 0 0 2 0 4"
    ascent="800"
    descent="-200"
    x-height="530"
    cap-height="730"
    bbox="-205 -293 1438 1025"
    underline-thickness="50"
    underline-position="-250"
    unicode-range="U+000D-FB14"
  />
<missing-glyph 
d="M90 730h400v-730h-400v730zM410 50l-120 260l-120 -260h240zM290 420l120 260h-240zM320 365l120 -260v520zM260 365l-120 260v-520z" />
    <glyph glyph-name="f_f" unicode="ff" horiz-adv-x="830" 
d="M260 570v-40h235v70q0 93 50.5 146.5t134.5 53.5q44 0 81.5 -12.5t52.5 -25.5l16 -12l-45 -105q-20 25 -70 25q-35 0 -55 -20t-20 -60v-60h160v-130h-160v-400h-145v400h-235v-400h-145v400h-90v130h90v50q0 93 50.5 146.5t134.5 53.5q44 0 81.5 -12.5t52.5 -25.5l16 -12
l-45 -105q-20 25 -70 25q-35 0 -55 -20t-20 -60z" />
    <glyph glyph-name="f_i" unicode="fi" horiz-adv-x="710" 
d="M115 530v70q0 93 50.5 146.5t134.5 53.5q44 0 81.5 -12.5t52.5 -25.5l16 -12l-45 -105q-20 25 -70 25q-35 0 -55 -20t-20 -60v-60h305q19 0 38 2.5t28 5.5l9 2v-540h-145v400h-235v-400h-145v400h-90v130h90zM485 690q0 37 23 58.5t59 21.5q37 0 60 -21.5t23 -58.5
t-23 -58.5t-60 -21.5q-36 0 -59 21.5t-23 58.5z" />
    <glyph glyph-name="f_l" unicode="fl" horiz-adv-x="710" 
d="M115 530v70q0 93 50.5 146.5t134.5 53.5q48 0 107 -10t88 -10h145v-780h-145v650q-34 0 -84 10t-76 10q-35 0 -55 -20t-20 -60v-60h160v-130h-160v-400h-145v400h-90v130h90z" />
    <glyph glyph-name="f_f_i" unicode="ffi" horiz-adv-x="1095" 
d="M260 570v-40h235v70q0 93 50.5 146.5t134.5 53.5q44 0 81.5 -12.5t52.5 -25.5l16 -12l-45 -105q-20 25 -70 25q-35 0 -55 -20t-20 -60v-60h310q19 0 38 2.5t28 5.5l9 2v-540h-145v400h-240v-400h-145v400h-235v-400h-145v400h-90v130h90v50q0 93 50.5 146.5t134.5 53.5
q44 0 81.5 -12.5t52.5 -25.5l16 -12l-45 -105q-20 25 -70 25q-35 0 -55 -20t-20 -60zM870 690q0 37 23 58.5t59 21.5q37 0 60 -21.5t23 -58.5t-23 -58.5t-60 -21.5q-36 0 -59 21.5t-23 58.5z" />
    <glyph glyph-name="f_f_l" unicode="ffl" horiz-adv-x="1090" 
d="M260 570v-40h235v70q0 93 50.5 146.5t134.5 53.5q48 0 107 -10t88 -10h145v-780h-145v650q-34 0 -84 10t-76 10q-35 0 -55 -20t-20 -60v-60h160v-130h-160v-400h-145v400h-235v-400h-145v400h-90v130h90v50q0 93 50.5 146.5t134.5 53.5q44 0 81.5 -12.5t52.5 -25.5
l16 -12l-45 -105q-20 25 -70 25q-35 0 -55 -20t-20 -60z" />
    <glyph glyph-name="f_f_b" unicode="ffb" horiz-adv-x="1480" 
d="M260 570v-40h235v70q0 93 50.5 146.5t134.5 53.5q48 0 107 -10t88 -10h145v-305h5l5 7.5t16.5 16.5t30 21.5t45.5 17t63 7.5q107 0 178.5 -76.5t71.5 -198.5q0 -129 -83 -207t-227 -78q-53 0 -115.5 10t-98.5 20l-36 10v625q-34 0 -84 10t-76 10q-35 0 -55 -20t-20 -60
v-60h160v-130h-160v-400h-145v400h-235v-400h-145v400h-90v130h90v50q0 93 50.5 146.5t134.5 53.5q44 0 81.5 -12.5t52.5 -25.5l16 -12l-45 -105q-20 25 -70 25q-35 0 -55 -20t-20 -60zM1020 345v-210q35 -20 105 -20q72 0 116 42t44 113q0 66 -39.5 105.5t-100.5 39.5
q-25 0 -47 -7t-36 -17.5t-24 -21t-14 -17.5z" />
    <glyph glyph-name="f_f_f" unicode="fff" horiz-adv-x="1210" 
d="M1020 570v-40h160v-130h-160v-400h-145v400h-235v-400h-145v400h-235v-400h-145v400h-90v130h90v50q0 93 50.5 146.5t134.5 53.5q44 0 81.5 -12.5t52.5 -25.5l16 -12l-45 -105q-20 25 -70 25q-35 0 -55 -20t-20 -60v-40h235v70q0 93 50.5 146.5t134.5 53.5
q44 0 81.5 -12.5t52.5 -25.5l16 -12l-45 -105q-20 25 -70 25q-35 0 -55 -20t-20 -60v-60h235v50q0 93 50.5 146.5t134.5 53.5q44 0 81.5 -12.5t52.5 -25.5l16 -12l-45 -105q-20 25 -70 25q-35 0 -55 -20t-20 -60z" />
    <glyph glyph-name="f_f_h" unicode="ffh" horiz-adv-x="1460" 
d="M260 570v-40h235v70q0 93 50.5 146.5t134.5 53.5q48 0 107 -10t88 -10h145v-325h5q2 4 5.5 10t18 21.5t31.5 27.5t46.5 21.5t63.5 9.5q94 0 149.5 -57t55.5 -158v-330h-145v315q0 48 -27 74t-73 26q-57 0 -93.5 -35.5t-36.5 -94.5v-285h-145v650q-34 0 -84 10t-76 10
q-35 0 -55 -20t-20 -60v-60h160v-130h-160v-400h-145v400h-235v-400h-145v400h-90v130h90v50q0 93 50.5 146.5t134.5 53.5q44 0 81.5 -12.5t52.5 -25.5l16 -12l-45 -105q-20 25 -70 25q-35 0 -55 -20t-20 -60z" />
    <glyph glyph-name="f_f_j" unicode="ffj" horiz-adv-x="1095" 
d="M495 400h-235v-400h-145v400h-90v130h90v50q0 93 50.5 146.5t134.5 53.5q44 0 81.5 -12.5t52.5 -25.5l16 -12l-45 -105q-20 25 -70 25q-35 0 -55 -20t-20 -60v-40h235v70q0 93 50.5 146.5t134.5 53.5q44 0 81.5 -12.5t52.5 -25.5l16 -12l-45 -105q-20 25 -70 25
q-35 0 -55 -20t-20 -60v-60h310q19 0 38 2.5t28 5.5l9 2v-544q0 -105 -55.5 -163.5t-154.5 -62.5l-30 130q95 8 95 96v404h-240v-400h-145v400zM870 690q0 37 23 58.5t59 21.5q37 0 60 -21.5t23 -58.5t-23 -58.5t-60 -21.5q-36 0 -59 21.5t-23 58.5z" />
    <glyph glyph-name="f_f_k" unicode="ffk" horiz-adv-x="1400" 
d="M875 0v650q-34 0 -84 10t-76 10q-35 0 -55 -20t-20 -60v-60h160v-130h-160v-400h-145v400h-235v-400h-145v400h-90v130h90v50q0 93 50.5 146.5t134.5 53.5q44 0 81.5 -12.5t52.5 -25.5l16 -12l-45 -105q-20 25 -70 25q-35 0 -55 -20t-20 -60v-40h235v70q0 93 50.5 146.5
t134.5 53.5q48 0 107 -10t88 -10h145v-480l210 230h165l-220 -245l235 -285h-170l-160 195l-60 -65v-130h-145z" />
    <glyph glyph-name="f_h" unicode="fh" horiz-adv-x="1080" 
d="M1015 0h-145v315q0 48 -27 74t-73 26q-57 0 -93.5 -35.5t-36.5 -94.5v-285h-145v650q-34 0 -84 10t-76 10q-35 0 -55 -20t-20 -60v-60h160v-130h-160v-400h-145v400h-90v130h90v70q0 93 50.5 146.5t134.5 53.5q48 0 107 -10t88 -10h145v-325h5q2 4 5.5 10t18 21.5
t31.5 27.5t46.5 21.5t63.5 9.5q94 0 149.5 -57t55.5 -158v-330z" />
    <glyph glyph-name="f_j" unicode="fj" horiz-adv-x="715" 
d="M500 400h-240v-400h-145v400h-90v130h90v70q0 93 50.5 146.5t134.5 53.5q44 0 81.5 -12.5t52.5 -25.5l16 -12l-45 -105q-20 25 -70 25q-35 0 -55 -20t-20 -60v-60h310q19 0 38 2.5t28 5.5l9 2v-544q0 -105 -55.5 -163.5t-154.5 -62.5l-30 130q95 8 95 96v404zM490 690
q0 37 23 58.5t59 21.5q37 0 60 -21.5t23 -58.5t-23 -58.5t-60 -21.5q-36 0 -59 21.5t-23 58.5z" />
    <glyph glyph-name="f_k" unicode="fk" horiz-adv-x="1020" 
d="M495 0v650q-34 0 -84 10t-76 10q-35 0 -55 -20t-20 -60v-60h160v-130h-160v-400h-145v400h-90v130h90v70q0 93 50.5 146.5t134.5 53.5q48 0 107 -10t88 -10h145v-480l210 230h165l-220 -245l235 -285h-170l-160 195l-60 -65v-130h-145z" />
    <glyph glyph-name="f_t" unicode="ft" horiz-adv-x="855" 
d="M115 530v70q0 93 50.5 146.5t134.5 53.5q44 0 81.5 -12.5t52.5 -25.5l16 -12l-45 -105q-20 25 -70 25q-35 0 -55 -20t-20 -60v-60h225l145 155h5v-155h160v-130h-160v-205q0 -40 20 -60t55 -20q24 0 45.5 8.5t30.5 17.5l9 9h15v-120q-6 -5 -16.5 -12.5t-45.5 -20
t-73 -12.5q-84 0 -134.5 53.5t-50.5 146.5v215h-230v-400h-145v400h-90v130h90z" />
    <glyph glyph-name="f_b" unicode="fb" horiz-adv-x="1100" 
d="M640 780v-305h5q1 3 4.5 7.5t16 16.5t29 21.5t46 17t64.5 7.5q107 0 178.5 -76.5t71.5 -198.5q0 -129 -83 -207t-227 -78q-53 0 -115.5 10t-98.5 20l-36 10v625q-34 0 -84 10t-76 10q-35 0 -55 -20t-20 -60v-60h160v-130h-160v-400h-145v400h-90v130h90v70
q0 93 50.5 146.5t134.5 53.5q48 0 107 -10t88 -10h145zM640 345v-210q40 -20 105 -20q72 0 116 42t44 113q0 66 -39.5 105.5t-100.5 39.5q-25 0 -47 -7t-36 -17.5t-24 -21t-14 -17.5z" />
    <glyph glyph-name=".notdef" 
d="M90 730h400v-730h-400v730zM410 50l-120 260l-120 -260h240zM290 420l120 260h-240zM320 365l120 -260v520zM260 365l-120 260v-520z" />
    <glyph glyph-name=".null" horiz-adv-x="0" 
 />
    <glyph glyph-name=".null" horiz-adv-x="0" 
 />
    <glyph glyph-name="nonmarkingreturn" horiz-adv-x="333" 
 />
    <glyph glyph-name="CR" unicode="&#xd;" horiz-adv-x="0" 
 />
    <glyph glyph-name="space" unicode=" " horiz-adv-x="270" 
 />
    <glyph glyph-name="exclam" unicode="!" horiz-adv-x="310" 
d="M230 600l-20 -365h-110l-20 365v200h150v-200zM75 70q0 37 22.5 58.5t57.5 21.5t57.5 -21.5t22.5 -58.5t-22.5 -58.5t-57.5 -21.5t-57.5 21.5t-22.5 58.5z" />
    <glyph glyph-name="quotedbl" unicode="&#x22;" horiz-adv-x="450" 
d="M75 510l-15 190v100h130v-100l-15 -190h-100zM275 510l-15 190v100h130v-100l-15 -190h-100z" />
    <glyph glyph-name="numbersign" unicode="#" horiz-adv-x="735" 
d="M35 170v110h120l35 170h-115v110h135l35 170h130l-35 -170h130l35 170h130l-35 -170h100v-110h-120l-35 -170h115v-110h-135l-35 -170h-130l35 170h-130l-35 -170h-130l35 170h-100zM320 450l-35 -170h130l35 170h-130z" />
    <glyph glyph-name="dollar" unicode="$" horiz-adv-x="585" 
d="M365 825v-85q39 -8 75.5 -25.5t53.5 -30.5l16 -14l-50 -120q-7 7 -20.5 17t-54 26.5t-80.5 16.5q-44 0 -69.5 -19.5t-25.5 -50.5q0 -24 25 -45.5t62 -37.5t80.5 -39t80.5 -48t62 -66.5t25 -93.5q0 -85 -48 -140.5t-132 -74.5v-90h-135v85q-51 4 -98.5 25.5t-69.5 40.5
l-22 19l50 120q3 -3 8.5 -8t23 -18t37 -23t49.5 -18t60 -8q60 0 91 23t31 62q0 28 -25 51t-62 39t-80.5 39t-80.5 47.5t-62 67t-25 96.5q0 74 47.5 125t127.5 70v85h135z" />
    <glyph glyph-name="percent" unicode="%" horiz-adv-x="930" 
d="M145 570q0 -33 19.5 -51.5t50.5 -18.5t50.5 18.5t19.5 51.5t-19.5 51.5t-50.5 18.5t-50.5 -18.5t-19.5 -51.5zM295 0h-135l475 730h135zM395 570q0 -75 -51 -125t-129 -50t-129 50t-51 125t51 125t129 50t129 -50t51 -125zM785 160q0 33 -19.5 51.5t-50.5 18.5
t-50.5 -18.5t-19.5 -51.5t19.5 -51.5t50.5 -18.5t50.5 18.5t19.5 51.5zM535 160q0 75 51 125t129 50t129 -50t51 -125t-51 -125t-129 -50t-129 50t-51 125z" />
    <glyph glyph-name="ampersand" unicode="&#x26;" horiz-adv-x="745" 
d="M600 165l175 -165h-185l-85 80q-3 -4 -10 -10.5t-30.5 -22.5t-50 -28.5t-69 -23t-88.5 -10.5q-111 0 -174 55t-63 140q0 42 16 79t38.5 60t45.5 40t39 24l16 7q-7 7 -18 20.5t-29 54t-18 80.5q0 91 56.5 145.5t153.5 54.5q88 0 141.5 -49.5t53.5 -125.5
q0 -36 -14.5 -69.5t-35 -55.5t-41 -38.5t-34.5 -24.5l-15 -7l130 -120l195 170v-170zM405 170l-150 140q-3 -1 -8.5 -4t-19.5 -13t-24.5 -22t-19 -31t-8.5 -40q0 -85 100 -85q38 0 70.5 13.5t46.5 27.5zM390 560q0 29 -19 47t-46 18q-35 0 -55 -20t-20 -60q0 -24 12.5 -48
t25.5 -35l12 -12l10 5t21.5 13.5t27.5 22.5t21.5 30.5t9.5 38.5z" />
    <glyph glyph-name="quotesingle" unicode="'" horiz-adv-x="250" 
d="M75 510l-15 190v100h130v-100l-15 -190h-100z" />
    <glyph glyph-name="parenleft" unicode="(" horiz-adv-x="375" 
d="M200 290q0 -84 15.5 -167.5t37.5 -142.5t44 -106t37 -70l16 -24h-110q-7 9 -19 24.5t-42 68t-53 108.5t-42 140.5t-19 168.5t18 167.5t43.5 142.5t51.5 106t44 70l18 24h110q-6 -9 -16 -24.5t-36 -68t-46 -108.5t-36 -140.5t-16 -168.5z" />
    <glyph glyph-name="parenright" unicode=")" horiz-adv-x="375" 
d="M175 290q0 84 -15.5 167.5t-37.5 142.5t-44 106t-38 70l-15 24h110q7 -9 19 -24.5t42 -68t53 -108.5t42 -140.5t19 -168.5t-18 -167.5t-43.5 -142.5t-51.5 -106t-44 -70l-18 -24h-110q6 9 16 24.5t36 68t46 108.5t36 140.5t16 168.5z" />
    <glyph glyph-name="asterisk" unicode="*" horiz-adv-x="450" 
d="M270 630l115 45l30 -75l-120 -50l85 -95l-70 -60l-85 105l-85 -105l-70 60l85 95l-120 50l30 75l115 -45v120h90v-120z" />
    <glyph glyph-name="plus" unicode="+" horiz-adv-x="550" 
d="M40 260v130h170v165h130v-165h170v-130h-170v-165h-130v165h-170z" />
    <glyph glyph-name="comma" unicode="," horiz-adv-x="230" 
d="M35 70q0 37 22.5 58.5t57.5 21.5t57.5 -23.5t22.5 -66.5q0 -34 -10 -65.5t-23.5 -53.5t-27.5 -38.5t-24 -24.5l-10 -8h-55q7 8 17 21t26.5 46.5t16.5 57.5q-70 8 -70 75z" />
    <glyph glyph-name="hyphen" unicode="-" horiz-adv-x="420" 
d="M40 260v130h340v-130h-340z" />
    <glyph glyph-name="period" unicode="." horiz-adv-x="230" 
d="M195 70q0 -37 -22.5 -58.5t-57.5 -21.5t-57.5 21.5t-22.5 58.5t22.5 58.5t57.5 21.5t57.5 -21.5t22.5 -58.5z" />
    <glyph glyph-name="slash" unicode="/" horiz-adv-x="525" 
d="M0 -220l390 1020h135l-390 -1020h-135z" />
    <glyph glyph-name="zero" unicode="0" horiz-adv-x="670" 
d="M470 265q0 67 -37 106t-98 39t-98 -39t-37 -106t37 -106t98 -39t98 39t37 106zM625 265q0 -121 -81.5 -200.5t-208.5 -79.5t-208.5 79.5t-81.5 200.5t81.5 200.5t208.5 79.5t208.5 -79.5t81.5 -200.5z" />
    <glyph glyph-name="one" unicode="1" horiz-adv-x="410" 
d="M40 280v150l175 100h115v-530h-150v360z" />
    <glyph glyph-name="two" unicode="2" horiz-adv-x="555" 
d="M25 15l250 225q7 5 17 14t26.5 36.5t16.5 54.5q0 65 -80 65q-29 0 -58.5 -12t-50.5 -29t-37.5 -33.5t-24.5 -28.5l-9 -12h-15v145q3 4 9.5 11t28.5 25.5t45.5 32t59.5 25t72 11.5q98 0 154 -51t56 -129q0 -47 -21.5 -90.5t-42.5 -64.5l-21 -20l-60 -55h160v-135h-475v15z
" />
    <glyph glyph-name="three" unicode="3" horiz-adv-x="560" 
d="M245 145q-27 0 -49.5 -6.5t-31.5 -12.5l-9 -6l-55 75l160 200h-200v135h445v-15l-210 -255v-5q101 0 168 -66t67 -164q0 -108 -74 -174t-206 -66q-62 0 -119.5 21.5t-84.5 42.5l-26 21l50 115q7 -7 21 -18t59.5 -29t94.5 -18q63 0 99 31t36 84q0 50 -36 80t-99 30z" />
    <glyph glyph-name="four" unicode="4" horiz-adv-x="620" 
d="M610 135v-135h-105v-200h-150v200h-345v15l280 515h160l-220 -395h130l20 150h125v-150h105z" />
    <glyph glyph-name="five" unicode="5" horiz-adv-x="595" 
d="M400 40q0 56 -35.5 88t-99.5 32q-32 0 -61 -12.5t-42 -25.5l-12 -12l-85 50l55 370h400v-135h-290l-20 -130q30 15 80 15q119 0 189.5 -67t70.5 -173q0 -113 -75 -184t-210 -71q-62 0 -119.5 21.5t-83.5 42.5l-27 21l50 115q7 -7 21 -18t61 -29t98 -18q64 0 99.5 32
t35.5 88z" />
    <glyph glyph-name="six" unicode="6" horiz-adv-x="640" 
d="M300 730h185q-8 -6 -20.5 -16t-48 -42.5t-66 -65.5t-64 -80.5t-51.5 -90.5h5q40 35 120 35q105 0 172.5 -67.5t67.5 -172.5q0 -107 -75 -176t-200 -69q-127 0 -201 73.5t-74 201.5q0 54 14 109t36 100t48.5 87t53 73t48.5 54t36 35zM325 345q-53 0 -86.5 -31.5
t-33.5 -83.5t33.5 -83.5t86.5 -31.5t86.5 31.5t33.5 83.5t-33.5 83.5t-86.5 31.5z" />
    <glyph glyph-name="seven" unicode="7" horiz-adv-x="550" 
d="M270 -200h-150l225 595h-315v135h505v-15z" />
    <glyph glyph-name="eight" unicode="8" horiz-adv-x="650" 
d="M325 115q56 0 90.5 30.5t34.5 79.5t-34.5 79.5t-90.5 30.5t-90.5 -30.5t-34.5 -79.5q0 -48 35.5 -79t89.5 -31zM325 445q41 0 68 24t27 61t-27 61t-68 24t-68 -24t-27 -61t27 -61t68 -24zM325 -15q-131 0 -205.5 64t-74.5 161q0 39 13 72t31.5 52t36.5 32.5t31 18.5l13 5
v5l-10 5t-21.5 16t-27.5 28.5t-21.5 42.5t-9.5 58q0 86 66 143t179 57t179 -57t66 -143q0 -31 -9.5 -57.5t-22.5 -43t-26 -28t-22 -16.5l-10 -5v-5q5 -2 13.5 -5.5t30 -18t38 -32.5t30 -51.5t13.5 -72.5q0 -97 -74.5 -161t-205.5 -64z" />
    <glyph glyph-name="nine" unicode="9" horiz-adv-x="640" 
d="M340 -200h-185q8 6 20.5 16t48 42.5t66 65.5t64 80.5t51.5 90.5h-5q-40 -35 -120 -35q-105 0 -172.5 67.5t-67.5 172.5q0 107 75 176t200 69q127 0 201 -73.5t74 -201.5q0 -54 -14 -109t-36 -100t-48.5 -87t-53 -73t-48.5 -54t-36 -35zM315 185q53 0 86.5 31.5t33.5 83.5
t-33.5 83.5t-86.5 31.5t-86.5 -31.5t-33.5 -83.5t33.5 -83.5t86.5 -31.5z" />
    <glyph glyph-name="colon" unicode=":" horiz-adv-x="240" 
d="M40 70q0 37 22.5 58.5t57.5 21.5t57.5 -21.5t22.5 -58.5t-22.5 -58.5t-57.5 -21.5t-57.5 21.5t-22.5 58.5zM40 460q0 37 22.5 58.5t57.5 21.5t57.5 -21.5t22.5 -58.5t-22.5 -58.5t-57.5 -21.5t-57.5 21.5t-22.5 58.5z" />
    <glyph glyph-name="semicolon" unicode=";" horiz-adv-x="240" 
d="M40 460q0 37 22.5 58.5t57.5 21.5t57.5 -21.5t22.5 -58.5t-22.5 -58.5t-57.5 -21.5t-57.5 21.5t-22.5 58.5zM40 70q0 37 22.5 58.5t57.5 21.5t57.5 -23.5t22.5 -66.5q0 -53 -24 -100.5t-48 -68.5l-23 -21h-55q7 8 17 21t26.5 46.5t16.5 57.5q-70 8 -70 75z" />
    <glyph glyph-name="less" unicode="&#x3c;" horiz-adv-x="550" 
d="M255 260l245 -130v-130l-470 255v20l470 255v-130l-245 -130v-10z" />
    <glyph glyph-name="equal" unicode="=" horiz-adv-x="550" 
d="M55 150v120h440v-120h-440zM55 380v120h440v-120h-440z" />
    <glyph glyph-name="greater" unicode="&#x3e;" horiz-adv-x="550" 
d="M50 130l245 130v10l-245 130v130l470 -255v-20l-470 -255v130z" />
    <glyph glyph-name="question" unicode="?" horiz-adv-x="515" 
d="M55 535v145q8 7 23 18t64.5 29t102.5 18q107 0 166 -53.5t59 -141.5q0 -43 -18.5 -81.5t-45 -67.5t-53 -56t-45 -58t-18.5 -62h-140q0 42 17.5 80t42.5 67t50 55.5t42.5 54t17.5 53.5q0 34 -24.5 54.5t-65.5 20.5q-42 0 -82 -19t-59 -37l-19 -19h-15zM140 70
q0 37 22.5 58.5t57.5 21.5t57.5 -21.5t22.5 -58.5t-22.5 -58.5t-57.5 -21.5t-57.5 21.5t-22.5 58.5z" />
    <glyph glyph-name="at" unicode="@" horiz-adv-x="990" 
d="M945 345q0 -113 -52.5 -174t-137.5 -61q-31 0 -56.5 7.5t-40.5 19t-25.5 22.5t-14.5 19l-3 7h-10q-1 -3 -4 -8t-14 -18t-26 -23t-42 -18t-59 -8q-84 0 -137 56t-53 149t53 149t137 56q42 0 74.5 -15t43.5 -30l12 -15l20 50h90v-230q0 -70 60 -70q70 0 70 135
q0 130 -89.5 212.5t-240.5 82.5q-146 0 -238 -91t-92 -234t92 -234t238 -91q64 0 118 12.5t76 25.5l21 12v-115q-8 -4 -23.5 -11t-71.5 -18t-120 -11q-198 0 -321.5 120.5t-123.5 309.5t123.5 309.5t321.5 120.5q203 0 324 -112t121 -288zM485 215q39 0 67 28t28 72t-28 72
t-67 28t-67 -28t-28 -72t28 -72t67 -28z" />
    <glyph glyph-name="A" unicode="A" horiz-adv-x="785" 
d="M500 290l-105 235h-5l-105 -235h215zM560 155h-335l-70 -155h-160l335 730h125l335 -730h-160z" />
    <glyph glyph-name="B" unicode="B" horiz-adv-x="665" 
d="M90 730h235q127 0 191 -52.5t64 -142.5q0 -35 -11 -63.5t-26 -44t-30.5 -25.5t-26.5 -14l-11 -3v-5q6 -1 15.5 -3.5t33.5 -15t42.5 -30t33.5 -51t15 -75.5q0 -94 -67 -149.5t-198 -55.5h-260v730zM240 310v-180h110q110 0 110 90t-110 90h-110zM325 600h-85v-160h85
q48 0 74 21t26 59t-26 59t-74 21z" />
    <glyph glyph-name="C" unicode="C" horiz-adv-x="740" 
d="M205 365q0 -109 68 -177t177 -68q39 0 75 11t59.5 26t41.5 30.5t26 26.5l8 11h15v-145q-3 -4 -9.5 -10.5t-29 -22.5t-49 -28.5t-69 -23t-88.5 -10.5q-161 0 -270.5 109.5t-109.5 270.5t109.5 270.5t270.5 109.5q50 0 96 -10.5t75.5 -25t51.5 -29t32 -24.5l10 -11
l-55 -115q-2 3 -6 8.5t-20.5 19.5t-36 24.5t-54 19t-73.5 8.5q-109 0 -177 -68t-68 -177z" />
    <glyph glyph-name="D" unicode="D" horiz-adv-x="775" 
d="M335 730q171 0 280.5 -104.5t109.5 -260.5t-109.5 -260.5t-280.5 -104.5h-245v730h245zM335 595h-95v-460h95q105 0 170 64t65 166t-65 166t-170 64z" />
    <glyph glyph-name="E" unicode="E" horiz-adv-x="640" 
d="M90 0v730h485v-135h-335v-160h260v-135h-260v-165h335v-135h-485z" />
    <glyph glyph-name="F" unicode="F" horiz-adv-x="620" 
d="M500 280h-260v-280h-150v730h485v-135h-335v-180h260v-135z" />
    <glyph glyph-name="G" unicode="G" horiz-adv-x="815" 
d="M430 745q50 0 96.5 -10.5t76.5 -25t53 -29t34 -24.5l10 -11l-50 -115l-8.5 8.5t-24.5 19.5t-40.5 24.5t-56 19t-70.5 8.5q-109 0 -177 -68t-68 -177q0 -108 67.5 -176.5t172.5 -68.5q47 0 87 15t56 30l17 15v105h-205l35 135h310v-295q-4 -6 -12 -15.5t-37 -33.5
t-62.5 -42.5t-88.5 -33.5t-115 -15q-161 0 -270.5 109.5t-109.5 270.5t109.5 270.5t270.5 109.5z" />
    <glyph glyph-name="H" unicode="H" horiz-adv-x="795" 
d="M705 730v-730h-150v300h-315v-300h-150v730h150v-295h315v295h150z" />
    <glyph glyph-name="I" unicode="I" horiz-adv-x="330" 
d="M240 730v-730h-150v730h150z" />
    <glyph glyph-name="J" unicode="J" horiz-adv-x="345" 
d="M105 45v685h150v-685q0 -207 -225 -230l-20 135q50 4 72.5 25.5t22.5 69.5z" />
    <glyph glyph-name="K" unicode="K" horiz-adv-x="720" 
d="M90 0v730h150v-300l280 300h185l-285 -305l310 -425h-180l-235 320l-75 -80v-240h-150z" />
    <glyph glyph-name="L" unicode="L" horiz-adv-x="555" 
d="M240 730v-595h295v-135h-445v730h150z" />
    <glyph glyph-name="M" unicode="M" horiz-adv-x="975" 
d="M490 210l180 520h150l105 -730h-160l-59 435h-5l-151 -435h-125l-151 435h-5l-59 -435h-160l105 730h149l181 -520h5z" />
    <glyph glyph-name="N" unicode="N" horiz-adv-x="815" 
d="M725 730v-730h-145l-340 480v-480h-150v730h145l340 -480v480h150z" />
    <glyph glyph-name="O" unicode="O" horiz-adv-x="880" 
d="M205 365q0 -108 66.5 -176.5t168.5 -68.5t168.5 68.5t66.5 176.5t-66.5 176.5t-168.5 68.5t-168.5 -68.5t-66.5 -176.5zM830 365q0 -162 -111 -271t-279 -109t-279 109t-111 271t111 271t279 109t279 -109t111 -271z" />
    <glyph glyph-name="P" unicode="P" horiz-adv-x="660" 
d="M240 220v-220h-150v730h230q136 0 213 -70t77 -185t-77 -185t-213 -70h-80zM240 595v-240h80q64 0 99.5 32t35.5 88t-35.5 88t-99.5 32h-80z" />
    <glyph glyph-name="Q" unicode="Q" horiz-adv-x="880" 
d="M50 365q0 162 111 271t279 109t279 -109t111 -271q0 -56 -14.5 -107t-35 -84t-41 -57.5t-35.5 -35.5l-14 -11q1 -3 3.5 -7.5t11 -16.5t18 -21.5t25 -17t32.5 -7.5q20 0 37.5 6t24.5 12l8 7v-130q-30 -25 -90 -25q-36 0 -69 14t-54 33.5t-37 39.5t-23 34l-7 14
q-55 -20 -130 -20q-168 0 -279 109t-111 271zM205 365q0 -36 8 -69t20 -54t24 -37t20 -23l8 -7q1 6 4.5 16.5t16.5 37.5t30.5 47t49 37t69.5 17q32 0 61 -13.5t47 -32.5t31.5 -38t19.5 -32l6 -14q6 7 15 19.5t24.5 55.5t15.5 90q0 108 -66.5 176.5t-168.5 68.5t-168.5 -68.5
t-66.5 -176.5zM440 120q18 0 35.5 2.5t26.5 5.5l8 2q-4 9 -12.5 22.5t-34.5 35.5t-53 22q-29 0 -49 -16t-25 -32l-6 -17q45 -25 110 -25z" />
    <glyph glyph-name="R" unicode="R" horiz-adv-x="675" 
d="M240 595v-230h80q130 0 130 115t-130 115h-80zM475 265l180 -265h-165l-155 230h-95v-230h-150v730h230q132 0 208.5 -69.5t76.5 -180.5q0 -43 -13.5 -81t-32.5 -60.5t-38 -39t-33 -23.5l-13 -6v-5z" />
    <glyph glyph-name="S" unicode="S" horiz-adv-x="585" 
d="M290 745q41 0 78.5 -7.5t62 -18.5t43.5 -22.5t28 -18.5l8 -8l-50 -120q-7 7 -20.5 17t-54 26.5t-80.5 16.5q-44 0 -69.5 -19.5t-25.5 -50.5q0 -24 25 -45.5t62 -37.5t80.5 -39t80.5 -48t62 -66.5t25 -93.5q0 -102 -72 -163.5t-198 -61.5q-42 0 -81.5 9.5t-66 22.5
t-47.5 26t-30 23l-10 9l50 120q3 -3 8.5 -8t23 -18t37 -23t49.5 -18t60 -8q60 0 91 23t31 62q0 28 -25 51t-62 39t-80.5 39t-80.5 47.5t-62 67t-25 96.5q0 85 64.5 142.5t170.5 57.5z" />
    <glyph glyph-name="T" unicode="T" horiz-adv-x="650" 
d="M35 730h580v-135h-215v-595h-150v595h-215v135z" />
    <glyph glyph-name="U" unicode="U" horiz-adv-x="780" 
d="M390 -15q-146 0 -228 80.5t-82 219.5v445h150v-445q0 -78 42.5 -121.5t117.5 -43.5t117.5 43.5t42.5 121.5v445h150v-445q0 -139 -82 -219.5t-228 -80.5z" />
    <glyph glyph-name="V" unicode="V" horiz-adv-x="775" 
d="M325 0l-310 730h160l210 -510h5l210 510h160l-310 -730h-125z" />
    <glyph glyph-name="W" unicode="W" horiz-adv-x="1095" 
d="M555 730l190 -505h5l170 505h160l-255 -730h-130l-145 385h-5l-145 -385h-130l-255 730h160l170 -505h5l190 505h15z" />
    <glyph glyph-name="X" unicode="X" horiz-adv-x="740" 
d="M370 270l-175 -270h-175l250 375l-235 355h175l160 -250l160 250h175l-235 -355l250 -375h-175z" />
    <glyph glyph-name="Y" unicode="Y" horiz-adv-x="710" 
d="M280 0v300l-270 430h167l178 -290l178 290h167l-270 -430v-300h-150z" />
    <glyph glyph-name="Z" unicode="Z" horiz-adv-x="690" 
d="M50 110l370 485h-350v135h555v-110l-370 -485h380v-135h-585v110z" />
    <glyph glyph-name="bracketleft" unicode="[" horiz-adv-x="420" 
d="M90 -215v1015h295v-125h-160v-765h160v-125h-295z" />
    <glyph glyph-name="backslash" unicode="\" horiz-adv-x="525" 
d="M135 800l390 -1020h-135l-390 1020h135z" />
    <glyph glyph-name="bracketright" unicode="]" horiz-adv-x="420" 
d="M330 800v-1015h-295v125h160v765h-160v125h295z" />
    <glyph glyph-name="asciicircum" unicode="^" horiz-adv-x="540" 
d="M20 370l240 360h20l240 -360h-130l-115 180h-10l-115 -180h-130z" />
    <glyph glyph-name="underscore" unicode="_" horiz-adv-x="430" 
d="M-25 -190v130h480v-130h-480z" />
    <glyph glyph-name="grave" unicode="`" horiz-adv-x="280" 
d="M185 780l65 -190h-90l-130 190h155z" />
    <glyph glyph-name="a" unicode="a" horiz-adv-x="605" 
d="M275 100q44 0 74 25t38 50l8 25q-40 30 -105 30q-41 0 -63 -17.5t-22 -47.5q0 -29 19.5 -47t50.5 -18zM300 545q118 0 179 -55.5t61 -154.5v-335h-140l-5 75h-5q-1 -4 -4.5 -10t-16 -21.5t-29 -27.5t-46 -21.5t-64.5 -9.5q-78 0 -126.5 45.5t-48.5 114.5q0 74 53.5 119.5
t151.5 45.5q40 0 74 -7.5t48 -14.5l13 -8v40q0 100 -115 100q-53 0 -100.5 -17.5t-68.5 -34.5l-21 -18h-15v125q10 8 28 19.5t76.5 31t120.5 19.5z" />
    <glyph glyph-name="b" unicode="b" horiz-adv-x="675" 
d="M215 345v-210q40 -20 105 -20q72 0 116 42t44 113q0 66 -39.5 105.5t-100.5 39.5q-25 0 -47 -7t-36 -17.5t-24 -21t-14 -17.5zM215 760v-285h5q1 3 4.5 7.5t16 16.5t29 21.5t46 17t64.5 7.5q107 0 178.5 -76.5t71.5 -198.5q0 -129 -83 -207t-227 -78q-53 0 -115.5 10
t-98.5 20l-36 10v735h145z" />
    <glyph glyph-name="c" unicode="c" horiz-adv-x="570" 
d="M195 265q0 -71 41.5 -110.5t113.5 -39.5q40 0 76 13.5t52 27.5l17 14h15v-125q-7 -7 -20.5 -17t-61 -26.5t-103.5 -16.5q-120 0 -200 80t-80 200t80 200t200 80q39 0 74.5 -7t58.5 -17.5t40 -21t24 -17.5l8 -7l-55 -105q-5 5 -14.5 12.5t-42 20t-68.5 12.5
q-72 0 -113.5 -39.5t-41.5 -110.5z" />
    <glyph glyph-name="d" unicode="d" horiz-adv-x="695" 
d="M480 265q0 66 -41 108t-99 42q-61 0 -103 -42t-42 -108t42 -108t103 -42q58 0 99 42t41 108zM480 455v305h145v-760h-140l-5 75h-5q-2 -4 -6 -10t-19.5 -21.5t-34 -27.5t-49.5 -21.5t-66 -9.5q-107 0 -181 79t-74 201t74 201t181 79q35 0 66 -9.5t50 -22.5t33 -26t20 -23
l6 -9h5z" />
    <glyph glyph-name="e" unicode="e" horiz-adv-x="630" 
d="M325 545q121 0 190.5 -71.5t69.5 -198.5v-40h-405q8 -55 50 -87.5t115 -32.5q58 0 104 15t63 30l18 15h15v-130q-9 -7 -26 -17t-73 -26.5t-116 -16.5q-127 0 -206 78t-79 202q0 120 80 200t200 80zM335 420q-60 0 -99 -26.5t-51 -63.5h265q0 38 -32 64t-83 26z" />
    <glyph glyph-name="f" unicode="f" horiz-adv-x="450" 
d="M115 530v70q0 93 50.5 146.5t134.5 53.5q44 0 81.5 -12.5t52.5 -25.5l16 -12l-45 -105q-20 25 -70 25q-35 0 -55 -20t-20 -60v-60h160v-130h-160v-400h-145v400h-90v130h90z" />
    <glyph glyph-name="g" unicode="g" horiz-adv-x="575" 
d="M50 350q0 89 60 142t170 53q31 0 58.5 -5t39.5 -10l12 -5q1 4 4.5 11t16 24t28 30t44 24t62.5 11v-120q-24 0 -45.5 -6.5t-30.5 -12.5l-9 -6q6 -4 14 -13.5t22 -43t14 -73.5q0 -68 -31 -108t-99 -72l-135 -64h99q110 0 163 -41t53 -115q0 -81 -71 -133t-211 -52
q-135 0 -196.5 39t-61.5 101q0 31 20 57.5t40 37.5l20 10h-55v65l175 85q-7 1 -18.5 3t-40.5 14t-51.5 30.5t-41 56t-18.5 86.5zM410 -55q0 65 -120 65h-80q-7 -2 -17 -7t-26.5 -23t-16.5 -40q0 -32 27.5 -46t102.5 -14q71 0 100.5 16.5t29.5 48.5zM190 350q0 -41 24 -63
t66 -22t66 22t24 63t-24 63t-66 22t-66 -22t-24 -63z" />
    <glyph glyph-name="h" unicode="h" horiz-adv-x="655" 
d="M590 0h-145v315q0 48 -27 74t-73 26q-57 0 -93.5 -35.5t-36.5 -94.5v-285h-145v760h145v-305h5q2 4 5.5 10t18 21.5t31.5 27.5t46.5 21.5t63.5 9.5q94 0 149.5 -57t55.5 -158v-330z" />
    <glyph glyph-name="i" unicode="i" horiz-adv-x="285" 
d="M215 535v-535h-145v535q30 -10 72 -10q19 0 37.5 2.5t26.5 4.5zM60 690q0 37 23 58.5t59 21.5q37 0 60 -21.5t23 -58.5t-23 -58.5t-60 -21.5q-36 0 -59 21.5t-23 58.5z" />
    <glyph glyph-name="j" unicode="j" horiz-adv-x="285" 
d="M215 535v-539q0 -105 -55.5 -163.5t-154.5 -62.5l-30 130q95 8 95 96v539q30 -10 72 -10q19 0 37.5 2.5t26.5 4.5zM60 690q0 37 23 58.5t59 21.5q37 0 60 -21.5t23 -58.5t-23 -58.5t-60 -21.5q-36 0 -59 21.5t-23 58.5z" />
    <glyph glyph-name="k" unicode="k" horiz-adv-x="595" 
d="M70 0v760h145v-460l210 230h165l-220 -245l235 -285h-170l-160 195l-60 -65v-130h-145z" />
    <glyph glyph-name="l" unicode="l" horiz-adv-x="285" 
d="M215 760v-760h-145v760h145z" />
    <glyph glyph-name="m" unicode="m" horiz-adv-x="990" 
d="M925 0h-145v315q0 100 -90 100q-50 0 -85 -36t-35 -94v-285h-145v315q0 100 -90 100q-50 0 -85 -36t-35 -94v-285h-145v530h140l5 -75h5l5 10t16.5 21.5t29.5 27.5t44 21.5t60 9.5q36 0 66.5 -10.5t48 -25t29.5 -29t17 -24.5l4 -11h5q2 4 6 11t19 24t34 30t53 24t73 11
q90 0 142.5 -57t52.5 -158v-330z" />
    <glyph glyph-name="n" unicode="n" horiz-adv-x="655" 
d="M590 0h-145v315q0 48 -27 74t-73 26q-57 0 -93.5 -35.5t-36.5 -94.5v-285h-145v530h140l5 -75h5q2 4 5.5 10t18 21.5t31.5 27.5t46.5 21.5t63.5 9.5q94 0 149.5 -57t55.5 -158v-330z" />
    <glyph glyph-name="o" unicode="o" horiz-adv-x="680" 
d="M195 265q0 -66 42 -108t103 -42t103 42t42 108t-42 108t-103 42t-103 -42t-42 -108zM635 265q0 -122 -81 -201t-214 -79t-214 79t-81 201t81 201t214 79t214 -79t81 -201z" />
    <glyph glyph-name="p" unicode="p" horiz-adv-x="695" 
d="M215 265q0 -66 41 -108t99 -42q61 0 103 42t42 108t-42 108t-103 42q-58 0 -99 -42t-41 -108zM215 75v-295h-145v750h140l5 -75h5q2 4 6 10t19.5 21.5t34 27.5t49.5 21.5t66 9.5q107 0 181 -79t74 -201t-74 -201t-181 -79q-35 0 -66 9.5t-50 22.5t-33 26t-20 23l-6 9h-5z
" />
    <glyph glyph-name="q" unicode="q" horiz-adv-x="676" 
d="M460 185v215h-100q-78 0 -121.5 -38.5t-43.5 -106.5q0 -67 38.5 -103.5t106.5 -36.5q25 0 46.5 7t34.5 17.5t22.5 21t12.5 17.5zM460 -220v275h-5q-1 -3 -4.5 -7.5t-16 -16.5t-28 -21.5t-44 -17t-62.5 -7.5q-114 0 -184.5 73.5t-70.5 196.5q0 125 79 200t216 75h1h2h1h1
h2h1h2h1h1h2h1h2h1h1h2h1h2h1h2h1h1h2h1h2h1h2h1h2h1h2h1h2h1h2h1h2h1h2h1h2h1h2h1h2h1h2h1h2h2h1h2h1h2h1h2h2h1h2h1h2h2h1h2h1h2h2h1h2h1h2h2h1h2h2h1h2h2h1h2h2h1h2h2h1h2h2h2h1h2h2h1h2h2h2h1h2h2h1h2h2h2h1h2h2h2h2h1h2h2h2h2h1h2h2h2h2h1h2h2h2h2h2h1h2h2h2h2h2h2h2h1
h2h2h2h2h2h2h2h2h2h2h2h2h2h1h2h2h2h2h3h2h2h2h9v-750h-145z" />
    <glyph glyph-name="r" unicode="r" horiz-adv-x="480" 
d="M345 415q-22 0 -44 -10t-36.5 -23.5t-26.5 -27.5t-18 -24l-5 -10v-320h-145v530h140l5 -80h5q2 4 5 10.5t15.5 22.5t27 28.5t39.5 23t53 10.5q33 0 60.5 -11.5t38.5 -22.5l11 -11l-30 -116q-30 31 -95 31z" />
    <glyph glyph-name="s" unicode="s" horiz-adv-x="505" 
d="M470 150q0 -75 -57.5 -120t-172.5 -45q-58 0 -109 16.5t-73 32.5l-23 16l30 115q7 -6 20 -15t57 -24.5t93 -15.5q85 0 85 45q0 18 -20.5 31t-52 19.5t-67.5 19.5t-67.5 29t-52 50t-20.5 81q0 67 55.5 113.5t149.5 46.5q38 0 73.5 -7.5t59 -19t42 -22.5t26.5 -18l9 -8
l-55 -100q-5 6 -15 14t-45 22t-75 14q-36 0 -55.5 -12.5t-19.5 -32.5q0 -19 29 -30t70 -21t82 -26t70 -53.5t29 -94.5z" />
    <glyph glyph-name="t" unicode="t" horiz-adv-x="465" 
d="M100 185v215h-90v40l230 245h5v-155h160v-130h-160v-205q0 -40 20 -60t55 -20q24 0 45.5 8.5t30.5 17.5l9 9h15v-120q-6 -5 -16.5 -12.5t-45.5 -20t-73 -12.5q-84 0 -134.5 53.5t-50.5 146.5z" />
    <glyph glyph-name="u" unicode="u" horiz-adv-x="660" 
d="M70 530h145v-315q0 -48 27 -74t73 -26q57 0 93.5 35.5t36.5 94.5v285h145v-530h-140l-5 75h-5q-2 -4 -5.5 -10t-18 -21.5t-31.5 -27.5t-46.5 -21.5t-63.5 -9.5q-94 0 -149.5 57t-55.5 158v330z" />
    <glyph glyph-name="v" unicode="v" horiz-adv-x="605" 
d="M165 530l135 -320h5l135 320h155l-230 -530h-125l-230 530h155z" />
    <glyph glyph-name="w" unicode="w" horiz-adv-x="875" 
d="M430 530h15l145 -340h5l115 340h155l-190 -530h-130l-105 245h-5l-105 -245h-130l-190 530h155l115 -340h5z" />
    <glyph glyph-name="x" unicode="x" horiz-adv-x="600" 
d="M435 0l-135 180l-135 -180h-165l205 265l-200 265h165l130 -175l130 175h165l-200 -265l205 -265h-165z" />
    <glyph glyph-name="y" unicode="y" horiz-adv-x="610" 
d="M600 530l-300 -750h-150l90 225l-230 525h155l145 -340h5l130 340h155z" />
    <glyph glyph-name="z" unicode="z" horiz-adv-x="585" 
d="M55 400v130h475v-100l-280 -300h290v-130h-500v100l280 300h-265z" />
    <glyph glyph-name="braceleft" unicode="{" horiz-adv-x="425" 
d="M55 235v115q85 0 85 90v180q0 91 48 135.5t152 44.5h50v-120h-35q-42 0 -61 -18t-19 -62v-195q0 -29 -10.5 -51.5t-25 -33t-29 -17t-24.5 -7.5l-11 -1v-5q4 0 11 -1t24 -7.5t30 -17t24 -33t11 -51.5v-195q0 -44 19 -62t61 -18h35v-120h-50q-104 0 -152 44.5t-48 135.5
v180q0 90 -85 90z" />
    <glyph glyph-name="bar" unicode="|" horiz-adv-x="330" 
d="M230 800v-1020h-130v1020h130z" />
    <glyph glyph-name="braceright" unicode="}" horiz-adv-x="425" 
d="M370 350v-115q-85 0 -85 -90v-180q0 -92 -48 -136t-152 -44h-50v120h35q42 0 61 18t19 62v195q0 29 10.5 51.5t25 33t29 17t25.5 7.5l10 1v5q-4 0 -11 1t-24 7.5t-30 17t-24 33t-11 51.5v195q0 44 -19 62t-61 18h-35v120h50q104 0 152 -44.5t48 -135.5v-180q0 -90 85 -90
z" />
    <glyph glyph-name="asciitilde" unicode="~" horiz-adv-x="550" 
d="M165 300q-22 0 -43.5 -6.5t-35.5 -16t-25 -19.5t-16 -16l-5 -7v130q2 2 5 6.5t14.5 14.5t25 18t35 14.5t45.5 6.5q50 0 117.5 -35t102.5 -35q36 0 67 16.5t44 32.5l14 16v-130q-2 -2 -5 -6.5t-14.5 -14.5t-25 -18t-35 -14.5t-45.5 -6.5q-50 0 -117.5 35t-102.5 35z" />
    <glyph glyph-name="nbspace" unicode="&#xa0;" horiz-adv-x="270" 
 />
    <glyph glyph-name="exclamdown" unicode="&#xa1;" horiz-adv-x="300" 
d="M205 295l20 -345v-170h-150v170l20 345h110zM70 460q0 37 22.5 58.5t57.5 21.5t57.5 -21.5t22.5 -58.5t-22.5 -58.5t-57.5 -21.5t-57.5 21.5t-22.5 58.5z" />
    <glyph glyph-name="cent" unicode="&#xa2;" horiz-adv-x="570" 
d="M195 265q0 -71 41.5 -110.5t113.5 -39.5q40 0 76 13.5t52 27.5l17 14h15v-125q-40 -40 -115 -50v-95h-135v95q-93 19 -154 92t-61 178q0 104 60 177.5t155 92.5v95h135v-95q36 -4 69.5 -19t49.5 -28l16 -13l-55 -105q-5 5 -14.5 12.5t-42 20t-68.5 12.5
q-72 0 -113.5 -39.5t-41.5 -110.5z" />
    <glyph glyph-name="sterling" unicode="&#xa3;" horiz-adv-x="570" 
d="M70 300v80h53q-6 7 -15 20.5t-23.5 54.5t-14.5 82q0 94 61.5 151t168.5 57q56 0 104.5 -16.5t69.5 -32.5l21 -16l-50 -115q-5 5 -14.5 12.5t-41 20t-64.5 12.5q-100 0 -100 -88q0 -20 6.5 -42t15 -39t17.5 -31.5t15 -21.5l6 -8h155v-80h-130q5 -15 5 -30q0 -25 -7.5 -47
t-18.5 -36t-22.5 -24t-18.5 -14l-8 -4q26 10 55 10q33 0 82 -17.5t78 -17.5t55 11t38 23l12 11v-140q-4 -4 -12 -11t-36.5 -18t-61.5 -11q-46 0 -113.5 27.5t-121.5 27.5q-31 0 -66 -10t-55 -20l-19 -10v105q4 2 11 6t24 17.5t30 29t24 40.5t11 52q0 13 -2.5 25.5t-4.5 18.5
l-3 6h-95z" />
    <glyph glyph-name="currency" unicode="&#xa4;" horiz-adv-x="655" 
d="M35 280v105h75v345h225q135 0 207.5 -62t72.5 -163t-72.5 -163t-207.5 -62h-75v-55h250v-105h-250v-120h-150v120h-75v105h75v55h-75zM260 605v-220h75q57 0 88.5 29t31.5 81t-31.5 81t-88.5 29h-75z" />
    <glyph glyph-name="yen" unicode="&#xa5;" horiz-adv-x="720" 
d="M90 280h195v20l-20 30h-175v80h125l-200 320h167l178 -290l178 290h167l-201 -320h126v-80h-175l-20 -30v-20h195v-80h-195v-200h-150v200h-195v80z" />
    <glyph glyph-name="brokenbar" unicode="&#xa6;" horiz-adv-x="330" 
d="M100 385v415h130v-415h-130zM100 -220v415h130v-415h-130z" />
    <glyph glyph-name="section" unicode="&#xa7;" horiz-adv-x="575" 
d="M205 370q0 -29 41 -60.5t82 -48.5l42 -17q10 12 10 36q0 29 -41 60t-83 48l-41 17q-10 -10 -10 -35zM60 340q0 28 7.5 51.5t19 37.5t22.5 24t19 13l7 4q-4 3 -11 9.5t-18 33t-11 62.5q0 77 53 123.5t152 46.5q60 0 110 -16.5t70 -32.5l20 -16l-45 -100q-5 5 -15 12.5
t-46.5 20t-78.5 12.5q-75 0 -75 -50q0 -26 29.5 -45.5t71 -36t83.5 -37t71.5 -58t29.5 -88.5q0 -28 -7.5 -51.5t-19 -37.5t-22.5 -24t-18 -13l-8 -4q4 -3 11 -9.5t18 -33t11 -62.5q0 -78 -55 -124t-160 -46q-51 0 -97.5 13.5t-67.5 27.5l-20 14l30 110q6 -5 18 -12.5t51 -20
t81 -12.5q75 0 75 50q0 26 -29.5 45.5t-71 36t-83.5 37t-71.5 58t-29.5 88.5z" />
    <glyph glyph-name="dieresis" unicode="&#xa8;" horiz-adv-x="425" 
d="M30 690q0 37 20 56t55 19t55 -19t20 -56q0 -36 -20.5 -55.5t-54.5 -19.5q-35 0 -55 19t-20 56zM245 690q0 37 20 56t55 19t55 -19t20 -56q0 -36 -20.5 -55.5t-54.5 -19.5q-35 0 -55 19t-20 56z" />
    <glyph glyph-name="copyright" unicode="&#xa9;" horiz-adv-x="850" 
d="M345 315q0 -45 30.5 -72.5t79.5 -27.5q27 0 50.5 10t34.5 20l10 10h15v-90q-4 -5 -13 -12.5t-41.5 -20t-70.5 -12.5q-89 0 -147 56t-58 139t58 139t147 56q40 0 74 -12.5t48 -25.5l13 -12l-30 -81q-3 4 -10 10t-30 16t-50 10q-49 0 -79.5 -27.5t-30.5 -72.5zM800 315
q0 -155 -104 -255t-271 -100t-271 100t-104 255t104 255t271 100t271 -100t104 -255zM140 315q0 -121 79 -198t206 -77t206 77t79 198t-79 198t-206 77t-206 -77t-79 -198z" />
    <glyph glyph-name="ordfeminine" unicode="&#xaa;" horiz-adv-x="415" 
d="M205 435q24 0 39 16.5t18 32.5l3 16q-20 25 -55 25q-25 0 -40 -13t-15 -32q0 -45 50 -45zM205 740q170 0 170 -150v-230h-105l-5 50h-5q-1 -2 -2.5 -6.5t-9.5 -14.5t-18 -18t-28 -14.5t-40 -6.5q-54 0 -88 30.5t-34 79.5q0 53 36.5 84t103.5 31q24 0 45.5 -5.5
t30.5 -11.5l9 -5v22q0 37 -19 53.5t-61 16.5q-29 0 -59 -11.5t-46 -22.5l-15 -11h-15v95q70 45 155 45z" />
    <glyph glyph-name="guillemotleft" unicode="&#xab;" horiz-adv-x="600" 
d="M170 270l160 -220h-140l-155 215v20l155 215h140l-160 -220v-10zM405 270l160 -220h-140l-155 215v20l155 215h140l-160 -220v-10z" />
    <glyph glyph-name="logicalnot" unicode="&#xac;" horiz-adv-x="550" 
d="M70 285v120h400v-210h-110v90h-290z" />
    <glyph glyph-name="uni00AD" unicode="&#xad;" horiz-adv-x="420" 
d="M40 260v130h340v-130h-340z" />
    <glyph glyph-name="registered" unicode="&#xae;" horiz-adv-x="675" 
d="M230 670h105q115 0 115 -100q0 -29 -12.5 -49t-25.5 -25l-12 -6l70 -100h-80l-55 85h-35v-85h-70v280zM300 530h35q45 0 45 40t-45 40h-35v-80zM340 320q101 0 160.5 58t59.5 152t-59.5 152t-160.5 58t-160.5 -58t-59.5 -152t59.5 -152t160.5 -58zM340 255
q-130 0 -210 77t-80 198t80 198t210 77t210 -77t80 -198t-80 -198t-210 -77z" />
    <glyph glyph-name="macron" unicode="&#xaf;" horiz-adv-x="455" 
d="M30 635v100h395v-100h-395z" />
    <glyph glyph-name="degree" unicode="&#xb0;" horiz-adv-x="410" 
d="M135 580q0 -36 19.5 -55.5t50.5 -19.5t50.5 19.5t19.5 55.5t-19.5 55.5t-50.5 19.5t-50.5 -19.5t-19.5 -55.5zM370 580q0 -71 -46.5 -115.5t-118.5 -44.5t-118.5 44.5t-46.5 115.5t46.5 115.5t118.5 44.5t118.5 -44.5t46.5 -115.5z" />
    <glyph glyph-name="plusminus" unicode="&#xb1;" horiz-adv-x="550" 
d="M50 290v130h160v165h130v-165h160v-130h-160v-145h160v-120h-450v120h160v145h-160z" />
    <glyph glyph-name="twosuperior" unicode="&#xb2;" horiz-adv-x="335" 
d="M25 485l145 180q25 30 25 50q0 35 -45 35q-24 0 -50.5 -15t-40.5 -30l-14 -15h-10v90q6 7 18 17t48.5 26.5t73.5 16.5q56 0 88 -28t32 -77q0 -24 -8.5 -48t-17.5 -35l-9 -12l-65 -85h110v-85h-280v15z" />
    <glyph glyph-name="threesuperior" unicode="&#xb3;" horiz-adv-x="325" 
d="M145 635q-12 0 -26 -3.5t-21 -7.5l-8 -4l-35 40l70 80h-85v90h245v-15l-90 -110q4 -1 11 -2.5t25.5 -9.5t32 -20t25 -35.5t11.5 -52.5q0 -57 -40 -91t-110 -34q-36 0 -68.5 10t-47.5 20l-14 10l25 75q40 -30 100 -30q26 0 40.5 13t14.5 32q0 45 -55 45z" />
    <glyph glyph-name="acute" unicode="&#xb4;" horiz-adv-x="280" 
d="M30 590l65 190h155l-130 -190h-90z" />
    <glyph glyph-name="mu" unicode="&#xb5;" horiz-adv-x="660" 
d="M70 530h145v-315q0 -48 27 -74t73 -26q57 0 93.5 35.5t36.5 94.5v285h145v-530h-140l-5 75h-5q-2 -4 -5.5 -10t-18 -21.5t-31.5 -27.5t-46.5 -21.5t-63.5 -9.5q-22 0 -44.5 5t-34.5 10l-11 5l30 -190l-145 -35v750z" />
    <glyph glyph-name="paragraph" unicode="&#xb6;" horiz-adv-x="650" 
d="M50 515q0 90 62.5 152.5t152.5 62.5h350v-120h-100v-830h-70v830h-110v-830h-70v520q-90 0 -152.5 62.5t-62.5 152.5z" />
    <glyph glyph-name="periodcentered" unicode="&#xb7;" horiz-adv-x="270" 
d="M215 300q0 -37 -22.5 -58.5t-57.5 -21.5t-57.5 21.5t-22.5 58.5t22.5 58.5t57.5 21.5t57.5 -21.5t22.5 -58.5z" />
    <glyph glyph-name="cedilla" unicode="&#xb8;" horiz-adv-x="290" 
d="M167 0l-17 -45q110 -16 110 -105q0 -105 -145 -105q-24 0 -45.5 5t-30.5 10l-9 5v60q25 -15 60 -15q55 0 55 40q0 22 -21.5 34.5t-42.5 13.5l-21 2l37 100h70z" />
    <glyph glyph-name="onesuperior" unicode="&#xb9;" horiz-adv-x="245" 
d="M30 675v100l95 55h75v-360h-100v245z" />
    <glyph glyph-name="ordmasculine" unicode="&#xba;" horiz-adv-x="470" 
d="M235 445q43 0 69 26.5t26 73.5t-26 73.5t-69 26.5t-69 -26.5t-26 -73.5t26 -73.5t69 -26.5zM235 350q-90 0 -147.5 54.5t-57.5 140.5t57.5 140.5t147.5 54.5t147.5 -54.5t57.5 -140.5t-57.5 -140.5t-147.5 -54.5z" />
    <glyph glyph-name="guillemotright" unicode="&#xbb;" horiz-adv-x="600" 
d="M270 50l160 220v10l-160 220h140l155 -215v-20l-155 -215h-140zM35 50l160 220v10l-160 220h140l155 -215v-20l-155 -215h-140z" />
    <glyph glyph-name="onequarter" unicode="&#xbc;" horiz-adv-x="710" 
d="M50 0l475 730h110l-475 -730h-110zM30 575v100l95 55h75v-360h-100v245zM631 360l-111 -200h40l25 60h60v-60h50v-90h-50v-70h-100v70h-175v15l155 275h106z" />
    <glyph glyph-name="onehalf" unicode="&#xbd;" horiz-adv-x="750" 
d="M50 0l475 730h110l-475 -730h-110zM30 575v100l95 55h75v-360h-100v245zM440 15l145 180q25 30 25 50q0 35 -45 35q-24 0 -50.5 -15t-40.5 -30l-14 -15h-10v90q6 7 18 17t48.5 26.5t73.5 16.5q56 0 88 -28t32 -77q0 -24 -8.5 -48t-17.5 -35l-9 -12l-65 -85h110v-85h-280
v15z" />
    <glyph glyph-name="threequarters" unicode="&#xbe;" horiz-adv-x="770" 
d="M110 0l475 730h110l-475 -730h-110zM150 535q-12 0 -26 -3.5t-22 -7.5l-7 -4l-35 40l70 80h-85v90h245v-15l-90 -110q4 -1 11 -2.5t25.5 -9.5t32 -20t25 -35.5t11.5 -52.5q0 -57 -40 -91t-110 -34q-36 0 -68.5 10t-46.5 20l-15 10l25 75q40 -30 100 -30q26 0 40.5 13
t14.5 32q0 45 -55 45zM691 360l-111 -200h40l25 60h60v-60h50v-90h-50v-70h-100v70h-175v15l155 275h106z" />
    <glyph glyph-name="questiondown" unicode="&#xbf;" horiz-adv-x="515" 
d="M460 -25v-145q-8 -7 -23 -18t-64.5 -29t-102.5 -18q-107 0 -166 53.5t-59 141.5q0 44 18.5 85t45 72t53 60t45 62t18.5 66h140q0 -43 -17.5 -83.5t-42.5 -71.5t-50 -59.5t-42.5 -58.5t-17.5 -57q0 -34 24.5 -54.5t65.5 -20.5q42 0 82 18.5t59 37.5l19 19h15zM375 460
q0 -37 -22.5 -58.5t-57.5 -21.5t-57.5 21.5t-22.5 58.5t22.5 58.5t57.5 21.5t57.5 -21.5t22.5 -58.5z" />
    <glyph glyph-name="Agrave" unicode="&#xc0;" horiz-adv-x="785" 
d="M500 290l-105 235h-5l-105 -235h215zM560 155h-335l-70 -155h-160l335 730h125l335 -730h-160zM370 980l65 -190h-90l-130 190h155z" />
    <glyph glyph-name="Aacute" unicode="&#xc1;" horiz-adv-x="785" 
d="M500 290l-105 235h-5l-105 -235h215zM560 155h-335l-70 -155h-160l335 730h125l335 -730h-160zM350 790l65 190h155l-130 -190h-90z" />
    <glyph glyph-name="Acircumflex" unicode="&#xc2;" horiz-adv-x="785" 
d="M500 290l-105 235h-5l-105 -235h215zM560 155h-335l-70 -155h-160l335 730h125l335 -730h-160zM395 890l-110 -100h-90l150 190h100l150 -190h-90z" />
    <glyph glyph-name="Atilde" unicode="&#xc3;" horiz-adv-x="785" 
d="M500 290l-105 235h-5l-105 -235h215zM560 155h-335l-70 -155h-160l335 730h125l335 -730h-160zM310 860q-29 0 -55 -12.5t-38 -25.5l-12 -12v105q4 6 12 14t36.5 22t61.5 14q39 0 86.5 -27.5t78.5 -27.5q29 0 55 12.5t38 25.5l12 12v-105q-4 -6 -12 -14t-36.5 -22
t-61.5 -14q-39 0 -86.5 27.5t-78.5 27.5z" />
    <glyph glyph-name="Adieresis" unicode="&#xc4;" horiz-adv-x="785" 
d="M500 290l-105 235h-5l-105 -235h215zM560 155h-335l-70 -155h-160l335 730h125l335 -730h-160zM210 890q0 37 20 56t55 19t55 -19t20 -56q0 -36 -20.5 -55.5t-54.5 -19.5q-35 0 -55 19t-20 56zM425 890q0 37 20 56t55 19t55 -19t20 -56q0 -36 -20.5 -55.5t-54.5 -19.5
q-35 0 -55 19t-20 56z" />
    <glyph glyph-name="Aring" unicode="&#xc5;" horiz-adv-x="785" 
d="M500 290l-105 235h-5l-105 -235h215zM560 155h-335l-70 -155h-160l335 730h125l335 -730h-160zM345 900q0 -22 12.5 -33.5t32.5 -11.5t32.5 11.5t12.5 33.5t-12.5 33.5t-32.5 11.5t-32.5 -11.5t-12.5 -33.5zM515 900q0 -56 -34.5 -90.5t-90.5 -34.5t-90.5 34.5
t-34.5 90.5t34.5 90.5t90.5 34.5t90.5 -34.5t34.5 -90.5z" />
    <glyph glyph-name="AE" unicode="&#xc6;" horiz-adv-x="960" 
d="M445 0v155h-235l-70 -155h-160l335 730h580v-135h-300v-160h225v-135h-225v-165h300v-135h-450zM410 595l-140 -305h175v305h-35z" />
    <glyph glyph-name="Ccedilla" unicode="&#xc7;" horiz-adv-x="740" 
d="M205 365q0 -109 68 -177t177 -68q39 0 75 11t59.5 26t41.5 30.5t26 26.5l8 11h15v-145q-3 -4 -9.5 -10.5t-29 -22.5t-49 -28.5t-69 -23t-88.5 -10.5l-10 -30q110 -16 110 -105q0 -105 -145 -105q-24 0 -45.5 5t-30.5 10l-9 5v60q25 -15 60 -15q55 0 55 40
q0 22 -21.5 34.5t-42.5 13.5l-21 2l30 90q-134 23 -222 127t-88 248q0 161 109.5 270.5t270.5 109.5q50 0 96 -10.5t75.5 -25t51.5 -29t32 -24.5l10 -11l-55 -115q-2 3 -6 8.5t-20.5 19.5t-36 24.5t-54 19t-73.5 8.5q-109 0 -177 -68t-68 -177z" />
    <glyph glyph-name="Egrave" unicode="&#xc8;" horiz-adv-x="640" 
d="M90 0v730h485v-135h-335v-160h260v-135h-260v-165h335v-135h-485zM330 980l65 -190h-90l-130 190h155z" />
    <glyph glyph-name="Eacute" unicode="&#xc9;" horiz-adv-x="640" 
d="M90 0v730h485v-135h-335v-160h260v-135h-260v-165h335v-135h-485zM285 790l65 190h155l-130 -190h-90z" />
    <glyph glyph-name="Ecircumflex" unicode="&#xca;" horiz-adv-x="640" 
d="M90 0v730h485v-135h-335v-160h260v-135h-260v-165h335v-135h-485zM335 890l-110 -100h-90l150 190h100l150 -190h-90z" />
    <glyph glyph-name="Edieresis" unicode="&#xcb;" horiz-adv-x="640" 
d="M90 0v730h485v-135h-335v-160h260v-135h-260v-165h335v-135h-485zM150 890q0 37 20 56t55 19t55 -19t20 -56q0 -36 -20.5 -55.5t-54.5 -19.5q-35 0 -55 19t-20 56zM365 890q0 37 20 56t55 19t55 -19t20 -56q0 -36 -20.5 -55.5t-54.5 -19.5q-35 0 -55 19t-20 56z" />
    <glyph glyph-name="Igrave" unicode="&#xcc;" horiz-adv-x="340" 
d="M245 730v-730h-150v730h150zM155 980l65 -190h-90l-130 190h155z" />
    <glyph glyph-name="Iacute" unicode="&#xcd;" horiz-adv-x="340" 
d="M245 730v-730h-150v730h150zM120 790l65 190h155l-130 -190h-90z" />
    <glyph glyph-name="Icircumflex" unicode="&#xce;" horiz-adv-x="340" 
d="M245 730v-730h-150v730h150zM170 890l-110 -100h-90l150 190h100l150 -190h-90z" />
    <glyph glyph-name="Idieresis" unicode="&#xcf;" horiz-adv-x="340" 
d="M245 730v-730h-150v730h150zM-10 890q0 37 20 56t55 19t55 -19t20 -56q0 -36 -20.5 -55.5t-54.5 -19.5q-35 0 -55 19t-20 56zM205 890q0 37 20 56t55 19t55 -19t20 -56q0 -36 -20.5 -55.5t-54.5 -19.5q-35 0 -55 19t-20 56z" />
    <glyph glyph-name="Eth" unicode="&#xd0;" horiz-adv-x="795" 
d="M355 730q171 0 280.5 -104.5t109.5 -260.5t-109.5 -260.5t-280.5 -104.5h-245v300h-70v125h70v305h245zM355 595h-95v-170h170v-125h-170v-165h95q105 0 170 64t65 166t-65 166t-170 64z" />
    <glyph glyph-name="Ntilde" unicode="&#xd1;" horiz-adv-x="815" 
d="M725 730v-730h-145l-340 480v-480h-150v730h145l340 -480v480h150zM325 860q-29 0 -55 -12.5t-38 -25.5l-12 -12v105q4 6 12 14t36.5 22t61.5 14q39 0 86.5 -27.5t78.5 -27.5q29 0 55 12.5t38 25.5l12 12v-105q-4 -6 -12 -14t-36.5 -22t-61.5 -14q-39 0 -86.5 27.5
t-78.5 27.5z" />
    <glyph glyph-name="Ograve" unicode="&#xd2;" horiz-adv-x="880" 
d="M205 365q0 -108 66.5 -176.5t168.5 -68.5t168.5 68.5t66.5 176.5t-66.5 176.5t-168.5 68.5t-168.5 -68.5t-66.5 -176.5zM830 365q0 -162 -111 -271t-279 -109t-279 109t-111 271t111 271t279 109t279 -109t111 -271zM425 980l65 -190h-90l-130 190h155z" />
    <glyph glyph-name="Oacute" unicode="&#xd3;" horiz-adv-x="880" 
d="M205 365q0 -108 66.5 -176.5t168.5 -68.5t168.5 68.5t66.5 176.5t-66.5 176.5t-168.5 68.5t-168.5 -68.5t-66.5 -176.5zM830 365q0 -162 -111 -271t-279 -109t-279 109t-111 271t111 271t279 109t279 -109t111 -271zM390 790l65 190h155l-130 -190h-90z" />
    <glyph glyph-name="Ocircumflex" unicode="&#xd4;" horiz-adv-x="880" 
d="M205 365q0 -108 66.5 -176.5t168.5 -68.5t168.5 68.5t66.5 176.5t-66.5 176.5t-168.5 68.5t-168.5 -68.5t-66.5 -176.5zM830 365q0 -162 -111 -271t-279 -109t-279 109t-111 271t111 271t279 109t279 -109t111 -271zM440 890l-110 -100h-90l150 190h100l150 -190h-90z
" />
    <glyph glyph-name="Otilde" unicode="&#xd5;" horiz-adv-x="880" 
d="M205 365q0 -108 66.5 -176.5t168.5 -68.5t168.5 68.5t66.5 176.5t-66.5 176.5t-168.5 68.5t-168.5 -68.5t-66.5 -176.5zM830 365q0 -162 -111 -271t-279 -109t-279 109t-111 271t111 271t279 109t279 -109t111 -271zM355 860q-29 0 -55 -12.5t-38 -25.5l-12 -12v105
q4 6 12 14t36.5 22t61.5 14q39 0 86.5 -27.5t78.5 -27.5q29 0 55 12.5t38 25.5l12 12v-105q-4 -6 -12 -14t-36.5 -22t-61.5 -14q-39 0 -86.5 27.5t-78.5 27.5z" />
    <glyph glyph-name="Odieresis" unicode="&#xd6;" horiz-adv-x="880" 
d="M205 365q0 -108 66.5 -176.5t168.5 -68.5t168.5 68.5t66.5 176.5t-66.5 176.5t-168.5 68.5t-168.5 -68.5t-66.5 -176.5zM830 365q0 -162 -111 -271t-279 -109t-279 109t-111 271t111 271t279 109t279 -109t111 -271zM260 890q0 37 20 56t55 19t55 -19t20 -56
q0 -36 -20.5 -55.5t-54.5 -19.5q-35 0 -55 19t-20 56zM475 890q0 37 20 56t55 19t55 -19t20 -56q0 -36 -20.5 -55.5t-54.5 -19.5q-35 0 -55 19t-20 56z" />
    <glyph glyph-name="multiply" unicode="&#xd7;" horiz-adv-x="550" 
d="M185 325l-130 130l90 90l130 -130l130 130l90 -90l-130 -130l130 -130l-90 -90l-130 130l-130 -130l-90 90z" />
    <glyph glyph-name="Oslash" unicode="&#xd8;" horiz-adv-x="880" 
d="M630 515l-280 -380q35 -15 90 -15q102 0 168.5 68.5t66.5 176.5q0 42 -11.5 79.5t-22.5 53.5zM50 365q0 162 111 271t279 109q49 0 94 -10t66 -20l20 -10l30 40h160l-90 -115q4 -4 11.5 -11t26.5 -32t33.5 -53t26.5 -74t12 -95q0 -162 -111 -271t-279 -109q-49 0 -94 10
t-66 20l-20 10l-30 -40h-160l90 115q-4 4 -11.5 11t-26.5 32t-33.5 53t-26.5 74t-12 95zM250 215l280 380q-35 15 -90 15q-102 0 -168.5 -68.5t-66.5 -176.5q0 -42 11 -79.5t22 -53.5z" />
    <glyph glyph-name="Ugrave" unicode="&#xd9;" horiz-adv-x="780" 
d="M390 -15q-146 0 -228 80.5t-82 219.5v445h150v-445q0 -78 42.5 -121.5t117.5 -43.5t117.5 43.5t42.5 121.5v445h150v-445q0 -139 -82 -219.5t-228 -80.5zM385 980l65 -190h-90l-130 190h155z" />
    <glyph glyph-name="Uacute" unicode="&#xda;" horiz-adv-x="780" 
d="M390 -15q-146 0 -228 80.5t-82 219.5v445h150v-445q0 -78 42.5 -121.5t117.5 -43.5t117.5 43.5t42.5 121.5v445h150v-445q0 -139 -82 -219.5t-228 -80.5zM340 790l65 190h155l-130 -190h-90z" />
    <glyph glyph-name="Ucircumflex" unicode="&#xdb;" horiz-adv-x="780" 
d="M390 -15q-146 0 -228 80.5t-82 219.5v445h150v-445q0 -78 42.5 -121.5t117.5 -43.5t117.5 43.5t42.5 121.5v445h150v-445q0 -139 -82 -219.5t-228 -80.5zM395 890l-110 -100h-90l150 190h100l150 -190h-90z" />
    <glyph glyph-name="Udieresis" unicode="&#xdc;" horiz-adv-x="780" 
d="M390 -15q-146 0 -228 80.5t-82 219.5v445h150v-445q0 -78 42.5 -121.5t117.5 -43.5t117.5 43.5t42.5 121.5v445h150v-445q0 -139 -82 -219.5t-228 -80.5zM215 890q0 37 20 56t55 19t55 -19t20 -56q0 -36 -20.5 -55.5t-54.5 -19.5q-35 0 -55 19t-20 56zM430 890
q0 37 20 56t55 19t55 -19t20 -56q0 -36 -20.5 -55.5t-54.5 -19.5q-35 0 -55 19t-20 56z" />
    <glyph glyph-name="Yacute" unicode="&#xdd;" horiz-adv-x="710" 
d="M280 0v300l-270 430h167l178 -290l178 290h167l-270 -430v-300h-150zM310 790l65 190h155l-130 -190h-90z" />
    <glyph glyph-name="Thorn" unicode="&#xde;" horiz-adv-x="670" 
d="M240 110v-110h-150v730h150v-110h95q136 0 210.5 -70t74.5 -185t-74.5 -185t-210.5 -70h-95zM240 485v-240h95q63 0 96.5 31.5t33.5 88.5t-33.5 88.5t-96.5 31.5h-95z" />
    <glyph glyph-name="germandbls" unicode="&#xdf;" horiz-adv-x="690" 
d="M525 570q0 -45 -17.5 -79.5t-35 -59t-17.5 -46.5q0 -23 21.5 -39.5t52.5 -30t62 -31t52.5 -51.5t21.5 -83q0 -71 -57.5 -118t-161.5 -47q-40 0 -80.5 12.5t-60.5 24.5l-20 13l25 115q6 -5 16.5 -12.5t45.5 -20t73 -12.5q37 0 53.5 12t16.5 38t-33 45.5t-72 33t-72 47
t-33 84.5q0 38 17.5 71.5t35 61.5t17.5 52q0 65 -70 65q-39 0 -62 -23t-23 -67v-525h-145v525q0 98 63 159t167 61q101 0 160.5 -50.5t59.5 -124.5z" />
    <glyph glyph-name="agrave" unicode="&#xe0;" horiz-adv-x="605" 
d="M275 100q44 0 74 25t38 50l8 25q-40 30 -105 30q-41 0 -63 -17.5t-22 -47.5q0 -29 19.5 -47t50.5 -18zM300 545q118 0 179 -55.5t61 -154.5v-335h-140l-5 75h-5q-1 -4 -4.5 -10t-16 -21.5t-29 -27.5t-46 -21.5t-64.5 -9.5q-78 0 -126.5 45.5t-48.5 114.5q0 74 53.5 119.5
t151.5 45.5q40 0 74 -7.5t48 -14.5l13 -8v40q0 100 -115 100q-53 0 -100.5 -17.5t-68.5 -34.5l-21 -18h-15v125q10 8 28 19.5t76.5 31t120.5 19.5zM300 780l65 -190h-90l-130 190h155z" />
    <glyph glyph-name="aacute" unicode="&#xe1;" horiz-adv-x="605" 
d="M275 100q44 0 74 25t38 50l8 25q-40 30 -105 30q-41 0 -63 -17.5t-22 -47.5q0 -29 19.5 -47t50.5 -18zM300 545q118 0 179 -55.5t61 -154.5v-335h-140l-5 75h-5q-1 -4 -4.5 -10t-16 -21.5t-29 -27.5t-46 -21.5t-64.5 -9.5q-78 0 -126.5 45.5t-48.5 114.5q0 74 53.5 119.5
t151.5 45.5q40 0 74 -7.5t48 -14.5l13 -8v40q0 100 -115 100q-53 0 -100.5 -17.5t-68.5 -34.5l-21 -18h-15v125q10 8 28 19.5t76.5 31t120.5 19.5zM260 590l65 190h155l-130 -190h-90z" />
    <glyph glyph-name="acircumflex" unicode="&#xe2;" horiz-adv-x="605" 
d="M275 100q44 0 74 25t38 50l8 25q-40 30 -105 30q-41 0 -63 -17.5t-22 -47.5q0 -29 19.5 -47t50.5 -18zM300 545q118 0 179 -55.5t61 -154.5v-335h-140l-5 75h-5q-1 -4 -4.5 -10t-16 -21.5t-29 -27.5t-46 -21.5t-64.5 -9.5q-78 0 -126.5 45.5t-48.5 114.5q0 74 53.5 119.5
t151.5 45.5q40 0 74 -7.5t48 -14.5l13 -8v40q0 100 -115 100q-53 0 -100.5 -17.5t-68.5 -34.5l-21 -18h-15v125q10 8 28 19.5t76.5 31t120.5 19.5zM305 690l-110 -100h-90l150 190h100l150 -190h-90z" />
    <glyph glyph-name="atilde" unicode="&#xe3;" horiz-adv-x="605" 
d="M275 100q44 0 74 25t38 50l8 25q-40 30 -105 30q-41 0 -63 -17.5t-22 -47.5q0 -29 19.5 -47t50.5 -18zM300 545q118 0 179 -55.5t61 -154.5v-335h-140l-5 75h-5q-1 -4 -4.5 -10t-16 -21.5t-29 -27.5t-46 -21.5t-64.5 -9.5q-78 0 -126.5 45.5t-48.5 114.5q0 74 53.5 119.5
t151.5 45.5q40 0 74 -7.5t48 -14.5l13 -8v40q0 100 -115 100q-53 0 -100.5 -17.5t-68.5 -34.5l-21 -18h-15v125q10 8 28 19.5t76.5 31t120.5 19.5zM225 660q-29 0 -55 -12.5t-38 -25.5l-12 -12v105q4 6 12 14t36.5 22t61.5 14q39 0 86.5 -27.5t78.5 -27.5q29 0 55 12.5
t38 25.5l12 12v-105q-4 -6 -12 -14t-36.5 -22t-61.5 -14q-39 0 -86.5 27.5t-78.5 27.5z" />
    <glyph glyph-name="adieresis" unicode="&#xe4;" horiz-adv-x="605" 
d="M275 100q44 0 74 25t38 50l8 25q-40 30 -105 30q-41 0 -63 -17.5t-22 -47.5q0 -29 19.5 -47t50.5 -18zM300 545q118 0 179 -55.5t61 -154.5v-335h-140l-5 75h-5q-1 -4 -4.5 -10t-16 -21.5t-29 -27.5t-46 -21.5t-64.5 -9.5q-78 0 -126.5 45.5t-48.5 114.5q0 74 53.5 119.5
t151.5 45.5q40 0 74 -7.5t48 -14.5l13 -8v40q0 100 -115 100q-53 0 -100.5 -17.5t-68.5 -34.5l-21 -18h-15v125q10 8 28 19.5t76.5 31t120.5 19.5zM130 690q0 37 20 56t55 19t55 -19t20 -56q0 -36 -20.5 -55.5t-54.5 -19.5q-35 0 -55 19t-20 56zM345 690q0 37 20 56t55 19
t55 -19t20 -56q0 -36 -20.5 -55.5t-54.5 -19.5q-35 0 -55 19t-20 56z" />
    <glyph glyph-name="aring" unicode="&#xe5;" horiz-adv-x="605" 
d="M275 100q44 0 74 25t38 50l8 25q-40 30 -105 30q-41 0 -63 -17.5t-22 -47.5q0 -29 19.5 -47t50.5 -18zM300 545q118 0 179 -55.5t61 -154.5v-335h-140l-5 75h-5q-1 -4 -4.5 -10t-16 -21.5t-29 -27.5t-46 -21.5t-64.5 -9.5q-78 0 -126.5 45.5t-48.5 114.5q0 74 53.5 119.5
t151.5 45.5q40 0 74 -7.5t48 -14.5l13 -8v40q0 100 -115 100q-53 0 -100.5 -17.5t-68.5 -34.5l-21 -18h-15v125q10 8 28 19.5t76.5 31t120.5 19.5zM265 710q0 -22 12.5 -33.5t32.5 -11.5t32.5 11.5t12.5 33.5t-12.5 33.5t-32.5 11.5t-32.5 -11.5t-12.5 -33.5zM435 710
q0 -56 -34.5 -90.5t-90.5 -34.5t-90.5 34.5t-34.5 90.5t34.5 90.5t90.5 34.5t90.5 -34.5t34.5 -90.5z" />
    <glyph glyph-name="ae" unicode="&#xe6;" horiz-adv-x="980" 
d="M675 545q121 0 190.5 -71.5t69.5 -198.5v-40h-405q8 -55 50 -87.5t115 -32.5q58 0 104 15t63 30l18 15h15v-130q-9 -7 -26 -17t-73 -26.5t-116 -16.5q-48 0 -88.5 12.5t-64.5 30t-41.5 35t-23.5 29.5l-7 13h-5q-2 -5 -6 -13t-20.5 -28.5t-37.5 -36.5t-58.5 -29t-82.5 -13
q-88 0 -139 45t-51 115q0 74 53.5 119.5t151.5 45.5q40 0 74 -7.5t48 -14.5l13 -8v40q0 100 -115 100q-53 0 -100.5 -17.5t-68.5 -34.5l-21 -18h-15v125q10 8 28 19.5t76.5 31t120.5 19.5q39 0 73 -8t54.5 -20t35.5 -24t21 -20l6 -8q2 3 7 8.5t22 19.5t37 24.5t52 19t67 8.5
zM275 100q44 0 74 25t38 50l8 25q-40 30 -105 30q-41 0 -63 -17.5t-22 -47.5q0 -29 19.5 -47t50.5 -18zM685 420q-60 0 -99 -26.5t-51 -63.5h265q0 38 -32 64t-83 26z" />
    <glyph glyph-name="ccedilla" unicode="&#xe7;" horiz-adv-x="570" 
d="M195 265q0 -71 41.5 -110.5t113.5 -39.5q40 0 76 13.5t52 27.5l17 14h15v-125q-6 -6 -18.5 -15.5t-56.5 -26t-95 -18.5l-10 -30q110 -16 110 -105q0 -105 -145 -105q-24 0 -45.5 5t-30.5 10l-9 5v60q25 -15 60 -15q55 0 55 40q0 22 -21.5 34.5t-42.5 13.5l-21 2l35 90
q-102 15 -166 91t-64 184q0 120 80 200t200 80q39 0 74.5 -7t58.5 -17.5t40 -21t24 -17.5l8 -7l-55 -105q-5 5 -14.5 12.5t-42 20t-68.5 12.5q-72 0 -113.5 -39.5t-41.5 -110.5z" />
    <glyph glyph-name="egrave" unicode="&#xe8;" horiz-adv-x="630" 
d="M325 545q121 0 190.5 -71.5t69.5 -198.5v-40h-405q8 -55 50 -87.5t115 -32.5q58 0 104 15t63 30l18 15h15v-130q-9 -7 -26 -17t-73 -26.5t-116 -16.5q-127 0 -206 78t-79 202q0 120 80 200t200 80zM335 420q-60 0 -99 -26.5t-51 -63.5h265q0 38 -32 64t-83 26zM305 780
l65 -190h-90l-130 190h155z" />
    <glyph glyph-name="eacute" unicode="&#xe9;" horiz-adv-x="630" 
d="M325 545q121 0 190.5 -71.5t69.5 -198.5v-40h-405q8 -55 50 -87.5t115 -32.5q58 0 104 15t63 30l18 15h15v-130q-9 -7 -26 -17t-73 -26.5t-116 -16.5q-127 0 -206 78t-79 202q0 120 80 200t200 80zM335 420q-60 0 -99 -26.5t-51 -63.5h265q0 38 -32 64t-83 26zM275 590
l65 190h155l-130 -190h-90z" />
    <glyph glyph-name="ecircumflex" unicode="&#xea;" horiz-adv-x="630" 
d="M325 545q121 0 190.5 -71.5t69.5 -198.5v-40h-405q8 -55 50 -87.5t115 -32.5q58 0 104 15t63 30l18 15h15v-130q-9 -7 -26 -17t-73 -26.5t-116 -16.5q-127 0 -206 78t-79 202q0 120 80 200t200 80zM335 420q-60 0 -99 -26.5t-51 -63.5h265q0 38 -32 64t-83 26zM330 690
l-110 -100h-90l150 190h100l150 -190h-90z" />
    <glyph glyph-name="edieresis" unicode="&#xeb;" horiz-adv-x="630" 
d="M325 545q121 0 190.5 -71.5t69.5 -198.5v-40h-405q8 -55 50 -87.5t115 -32.5q58 0 104 15t63 30l18 15h15v-130q-9 -7 -26 -17t-73 -26.5t-116 -16.5q-127 0 -206 78t-79 202q0 120 80 200t200 80zM335 420q-60 0 -99 -26.5t-51 -63.5h265q0 38 -32 64t-83 26zM150 690
q0 37 20 56t55 19t55 -19t20 -56q0 -36 -20.5 -55.5t-54.5 -19.5q-35 0 -55 19t-20 56zM365 690q0 37 20 56t55 19t55 -19t20 -56q0 -36 -20.5 -55.5t-54.5 -19.5q-35 0 -55 19t-20 56z" />
    <glyph glyph-name="igrave" unicode="&#xec;" horiz-adv-x="285" 
d="M130 780l65 -190h-90l-130 190h155zM215 530v-530h-145v530h145z" />
    <glyph glyph-name="iacute" unicode="&#xed;" horiz-adv-x="285" 
d="M100 590l65 190h155l-130 -190h-90zM215 530v-530h-145v530h145z" />
    <glyph glyph-name="icircumflex" unicode="&#xee;" horiz-adv-x="285" 
d="M215 530v-530h-145v530h145zM150 690l-110 -100h-90l150 190h100l150 -190h-90z" />
    <glyph glyph-name="idieresis" unicode="&#xef;" horiz-adv-x="285" 
d="M-35 690q0 37 20 56t55 19t55 -19t20 -56q0 -36 -20.5 -55.5t-54.5 -19.5q-35 0 -55 19t-20 56zM180 690q0 37 20 56t55 19t55 -19t20 -56q0 -36 -20.5 -55.5t-54.5 -19.5q-35 0 -55 19t-20 56zM215 530v-530h-145v530h145z" />
    <glyph glyph-name="eth" unicode="&#xf0;" horiz-adv-x="675" 
d="M250 590l-65 80h100q-27 22 -60.5 44.5t-54.5 33.5l-20 12h195q60 -40 110 -90h85l65 -80h-80q4 -5 10.5 -14t22.5 -39t28.5 -61.5t23 -79.5t10.5 -96q0 -144 -80.5 -229.5t-209.5 -85.5q-126 0 -205.5 76.5t-79.5 193.5q0 122 70 196t181 74q42 0 75.5 -12.5t46.5 -24.5
l12 -13h5q-9 27 -25 55.5t-28 43.5l-12 16h-120zM470 255q0 63 -41 104t-99 41t-99 -41t-41 -104t41 -104t99 -41t99 41t41 104z" />
    <glyph glyph-name="ntilde" unicode="&#xf1;" horiz-adv-x="655" 
d="M590 0h-145v315q0 48 -27 74t-73 26q-57 0 -93.5 -35.5t-36.5 -94.5v-285h-145v530h140l5 -75h5q2 4 5.5 10t18 21.5t31.5 27.5t46.5 21.5t63.5 9.5q94 0 149.5 -57t55.5 -158v-330zM250 660q-29 0 -55 -12.5t-38 -25.5l-12 -12v105q4 6 12 14t36.5 22t61.5 14
q39 0 86.5 -27.5t78.5 -27.5q29 0 55 12.5t38 25.5l12 12v-105q-4 -6 -12 -14t-36.5 -22t-61.5 -14q-39 0 -86.5 27.5t-78.5 27.5z" />
    <glyph glyph-name="ograve" unicode="&#xf2;" horiz-adv-x="680" 
d="M195 265q0 -66 42 -108t103 -42t103 42t42 108t-42 108t-103 42t-103 -42t-42 -108zM635 265q0 -122 -81 -201t-214 -79t-214 79t-81 201t81 201t214 79t214 -79t81 -201zM320 780l65 -190h-90l-130 190h155z" />
    <glyph glyph-name="oacute" unicode="&#xf3;" horiz-adv-x="680" 
d="M195 265q0 -66 42 -108t103 -42t103 42t42 108t-42 108t-103 42t-103 -42t-42 -108zM635 265q0 -122 -81 -201t-214 -79t-214 79t-81 201t81 201t214 79t214 -79t81 -201zM295 590l65 190h155l-130 -190h-90z" />
    <glyph glyph-name="ocircumflex" unicode="&#xf4;" horiz-adv-x="680" 
d="M195 265q0 -66 42 -108t103 -42t103 42t42 108t-42 108t-103 42t-103 -42t-42 -108zM635 265q0 -122 -81 -201t-214 -79t-214 79t-81 201t81 201t214 79t214 -79t81 -201zM340 690l-110 -100h-90l150 190h100l150 -190h-90z" />
    <glyph glyph-name="otilde" unicode="&#xf5;" horiz-adv-x="680" 
d="M195 265q0 -66 42 -108t103 -42t103 42t42 108t-42 108t-103 42t-103 -42t-42 -108zM635 265q0 -122 -81 -201t-214 -79t-214 79t-81 201t81 201t214 79t214 -79t81 -201zM255 660q-29 0 -55 -12.5t-38 -25.5l-12 -12v105q4 6 12 14t36.5 22t61.5 14q39 0 86.5 -27.5
t78.5 -27.5q29 0 55 12.5t38 25.5l12 12v-105q-4 -6 -12 -14t-36.5 -22t-61.5 -14q-39 0 -86.5 27.5t-78.5 27.5z" />
    <glyph glyph-name="odieresis" unicode="&#xf6;" horiz-adv-x="680" 
d="M195 265q0 -66 42 -108t103 -42t103 42t42 108t-42 108t-103 42t-103 -42t-42 -108zM635 265q0 -122 -81 -201t-214 -79t-214 79t-81 201t81 201t214 79t214 -79t81 -201zM160 690q0 37 20 56t55 19t55 -19t20 -56q0 -36 -20.5 -55.5t-54.5 -19.5q-35 0 -55 19t-20 56z
M375 690q0 37 20 56t55 19t55 -19t20 -56q0 -36 -20.5 -55.5t-54.5 -19.5q-35 0 -55 19t-20 56z" />
    <glyph glyph-name="divide" unicode="&#xf7;" horiz-adv-x="550" 
d="M200 535q0 30 22.5 52.5t52.5 22.5t52.5 -22.5t22.5 -52.5t-22.5 -52.5t-52.5 -22.5t-52.5 22.5t-22.5 52.5zM70 270v110h410v-110h-410zM350 115q0 -30 -22.5 -52.5t-52.5 -22.5t-52.5 22.5t-22.5 52.5t22.5 52.5t52.5 22.5t52.5 -22.5t22.5 -52.5z" />
    <glyph glyph-name="oslash" unicode="&#xf8;" horiz-adv-x="680" 
d="M340 -15q-33 0 -64.5 6.5t-45.5 12.5l-15 6l-20 -25h-130l60 80l-8.5 8.5t-19.5 24.5t-24.5 40.5t-19 56t-8.5 70.5q0 122 81 201t214 79q33 0 64.5 -6.5t45.5 -12.5l15 -6l20 25h130l-60 -80l8.5 -8.5t19.5 -24.5t24.5 -40.5t19 -56t8.5 -70.5q0 -122 -81 -201t-214 -79
zM465 345l-165 -225q15 -5 40 -5q61 0 103 42t42 108q0 22 -5 42t-10 29zM215 185l165 225q-20 5 -40 5q-61 0 -103 -42t-42 -108q0 -22 5 -42t10 -29z" />
    <glyph glyph-name="ugrave" unicode="&#xf9;" horiz-adv-x="660" 
d="M70 530h145v-315q0 -48 27 -74t73 -26q57 0 93.5 35.5t36.5 94.5v285h145v-530h-140l-5 75h-5q-2 -4 -5.5 -10t-18 -21.5t-31.5 -27.5t-46.5 -21.5t-63.5 -9.5q-94 0 -149.5 57t-55.5 158v330zM320 780l65 -190h-90l-130 190h155z" />
    <glyph glyph-name="uacute" unicode="&#xfa;" horiz-adv-x="660" 
d="M70 530h145v-315q0 -48 27 -74t73 -26q57 0 93.5 35.5t36.5 94.5v285h145v-530h-140l-5 75h-5q-2 -4 -5.5 -10t-18 -21.5t-31.5 -27.5t-46.5 -21.5t-63.5 -9.5q-94 0 -149.5 57t-55.5 158v330zM285 590l65 190h155l-130 -190h-90z" />
    <glyph glyph-name="ucircumflex" unicode="&#xfb;" horiz-adv-x="660" 
d="M70 530h145v-315q0 -48 27 -74t73 -26q57 0 93.5 35.5t36.5 94.5v285h145v-530h-140l-5 75h-5q-2 -4 -5.5 -10t-18 -21.5t-31.5 -27.5t-46.5 -21.5t-63.5 -9.5q-94 0 -149.5 57t-55.5 158v330zM330 690l-110 -100h-90l150 190h100l150 -190h-90z" />
    <glyph glyph-name="udieresis" unicode="&#xfc;" horiz-adv-x="660" 
d="M70 530h145v-315q0 -48 27 -74t73 -26q57 0 93.5 35.5t36.5 94.5v285h145v-530h-140l-5 75h-5q-2 -4 -5.5 -10t-18 -21.5t-31.5 -27.5t-46.5 -21.5t-63.5 -9.5q-94 0 -149.5 57t-55.5 158v330zM150 690q0 37 20 56t55 19t55 -19t20 -56q0 -36 -20.5 -55.5t-54.5 -19.5
q-35 0 -55 19t-20 56zM365 690q0 37 20 56t55 19t55 -19t20 -56q0 -36 -20.5 -55.5t-54.5 -19.5q-35 0 -55 19t-20 56z" />
    <glyph glyph-name="yacute" unicode="&#xfd;" horiz-adv-x="610" 
d="M600 530l-300 -750h-150l90 225l-230 525h155l145 -340h5l130 340h155zM255 590l65 190h155l-130 -190h-90z" />
    <glyph glyph-name="thorn" unicode="&#xfe;" horiz-adv-x="700" 
d="M220 265q0 -66 41 -108t99 -42q61 0 103 42t42 108t-42 108t-103 42q-58 0 -99 -42t-41 -108zM220 75v-295h-145v980h145v-305h5q2 4 6 10t19.5 21.5t34 27.5t49.5 21.5t66 9.5q107 0 181 -79t74 -201t-74 -201t-181 -79q-35 0 -66 9.5t-50 22.5t-33 26t-20 23l-6 9h-5z
" />
    <glyph glyph-name="ydieresis" unicode="&#xff;" horiz-adv-x="610" 
d="M600 530l-300 -750h-150l90 225l-230 525h155l145 -340h5l130 340h155zM120 690q0 37 20 56t55 19t55 -19t20 -56q0 -36 -20.5 -55.5t-54.5 -19.5q-35 0 -55 19t-20 56zM335 690q0 37 20 56t55 19t55 -19t20 -56q0 -36 -20.5 -55.5t-54.5 -19.5q-35 0 -55 19t-20 56z" />
    <glyph glyph-name="Amacron" unicode="&#x100;" horiz-adv-x="785" 
d="M500 290l-105 235h-5l-105 -235h215zM560 155h-335l-70 -155h-160l335 730h125l335 -730h-160zM195 835v100h395v-100h-395z" />
    <glyph glyph-name="amacron" unicode="&#x101;" horiz-adv-x="605" 
d="M275 100q44 0 74 25t38 50l8 25q-40 30 -105 30q-41 0 -63 -17.5t-22 -47.5q0 -29 19.5 -47t50.5 -18zM300 545q118 0 179 -55.5t61 -154.5v-335h-140l-5 75h-5q-1 -4 -4.5 -10t-16 -21.5t-29 -27.5t-46 -21.5t-64.5 -9.5q-78 0 -126.5 45.5t-48.5 114.5q0 74 53.5 119.5
t151.5 45.5q40 0 74 -7.5t48 -14.5l13 -8v40q0 100 -115 100q-53 0 -100.5 -17.5t-68.5 -34.5l-21 -18h-15v125q10 8 28 19.5t76.5 31t120.5 19.5zM110 635v100h395v-100h-395z" />
    <glyph glyph-name="Abreve" unicode="&#x102;" horiz-adv-x="785" 
d="M500 290l-105 235h-5l-105 -235h215zM560 155h-335l-70 -155h-160l335 730h125l335 -730h-160zM395 810q-49 0 -90 12.5t-58 25.5l-17 12v110q2 -2 7 -6.5t21 -14.5t33.5 -18t46 -14.5t57.5 -6.5q47 0 88 15t59 30l18 15v-110q-6 -6 -18.5 -14t-55 -22t-91.5 -14z" />
    <glyph glyph-name="abreve" unicode="&#x103;" horiz-adv-x="605" 
d="M275 100q44 0 74 25t38 50l8 25q-40 30 -105 30q-41 0 -63 -17.5t-22 -47.5q0 -29 19.5 -47t50.5 -18zM300 545q118 0 179 -55.5t61 -154.5v-335h-140l-5 75h-5q-1 -4 -4.5 -10t-16 -21.5t-29 -27.5t-46 -21.5t-64.5 -9.5q-78 0 -126.5 45.5t-48.5 114.5q0 74 53.5 119.5
t151.5 45.5q40 0 74 -7.5t48 -14.5l13 -8v40q0 100 -115 100q-53 0 -100.5 -17.5t-68.5 -34.5l-21 -18h-15v125q10 8 28 19.5t76.5 31t120.5 19.5zM315 600q-49 0 -90 12.5t-58 25.5l-17 12v110q2 -2 7 -6.5t21 -14.5t33.5 -18t46 -14.5t57.5 -6.5q47 0 88 15t59 30l18 15
v-110q-6 -6 -18.5 -14t-55 -22t-91.5 -14z" />
    <glyph glyph-name="Aogonek" unicode="&#x104;" horiz-adv-x="785" 
d="M715 0h-85l-70 155h-335l-70 -155h-160l335 730h125l335 -730q-4 -2 -10.5 -5.5t-22.5 -16t-28.5 -27t-23 -38t-10.5 -48.5q0 -55 50 -55q11 0 22.5 3t16.5 6l6 3v-57q-25 -20 -75 -20q-59 0 -94.5 29.5t-35.5 75.5q0 29 13.5 55.5t32.5 43t38 28.5t33 17zM500 290
l-105 235h-5l-105 -235h215z" />
    <glyph glyph-name="aogonek" unicode="&#x105;" horiz-adv-x="605" 
d="M300 545q118 0 179 -55.5t61 -154.5v-335q-4 -2 -10.5 -5.5t-22.5 -16t-28.5 -27t-23 -38t-10.5 -48.5q0 -55 50 -55q11 0 22.5 3t16.5 6l6 3v-57q-25 -20 -75 -20q-59 0 -94.5 29.5t-35.5 75.5q0 29 13.5 55.5t32.5 43t38 28.5t33 17l13 6h-65l-5 75h-5q-1 -4 -4.5 -10
t-16 -21.5t-29 -27.5t-46 -21.5t-64.5 -9.5q-78 0 -126.5 45.5t-48.5 114.5q0 74 53.5 119.5t151.5 45.5q40 0 74 -7.5t48 -14.5l13 -8v40q0 100 -115 100q-53 0 -100.5 -17.5t-68.5 -34.5l-21 -18h-15v125q10 8 28 19.5t76.5 31t120.5 19.5zM275 100q44 0 74 25t38 50l8 25
q-40 30 -105 30q-41 0 -63 -17.5t-22 -47.5q0 -29 19.5 -47t50.5 -18z" />
    <glyph glyph-name="Cacute" unicode="&#x106;" horiz-adv-x="740" 
d="M205 365q0 -109 68 -177t177 -68q39 0 75 11t59.5 26t41.5 30.5t26 26.5l8 11h15v-145q-3 -4 -9.5 -10.5t-29 -22.5t-49 -28.5t-69 -23t-88.5 -10.5q-161 0 -270.5 109.5t-109.5 270.5t109.5 270.5t270.5 109.5q50 0 96 -10.5t75.5 -25t51.5 -29t32 -24.5l10 -11
l-55 -115q-2 3 -6 8.5t-20.5 19.5t-36 24.5t-54 19t-73.5 8.5q-109 0 -177 -68t-68 -177zM370 790l65 190h155l-130 -190h-90z" />
    <glyph glyph-name="cacute" unicode="&#x107;" horiz-adv-x="570" 
d="M195 265q0 -71 41.5 -110.5t113.5 -39.5q40 0 76 13.5t52 27.5l17 14h15v-125q-7 -7 -20.5 -17t-61 -26.5t-103.5 -16.5q-120 0 -200 80t-80 200t80 200t200 80q39 0 74.5 -7t58.5 -17.5t40 -21t24 -17.5l8 -7l-55 -105q-5 5 -14.5 12.5t-42 20t-68.5 12.5
q-72 0 -113.5 -39.5t-41.5 -110.5zM257 590l65 190h155l-130 -190h-90z" />
    <glyph glyph-name="Ccircumflex" unicode="&#x108;" horiz-adv-x="740" 
d="M205 365q0 -109 68 -177t177 -68q39 0 75 11t59.5 26t41.5 30.5t26 26.5l8 11h15v-145q-3 -4 -9.5 -10.5t-29 -22.5t-49 -28.5t-69 -23t-88.5 -10.5q-161 0 -270.5 109.5t-109.5 270.5t109.5 270.5t270.5 109.5q50 0 96 -10.5t75.5 -25t51.5 -29t32 -24.5l10 -11
l-55 -115q-2 3 -6 8.5t-20.5 19.5t-36 24.5t-54 19t-73.5 8.5q-109 0 -177 -68t-68 -177zM410 890l-110 -100h-90l150 190h100l150 -190h-90z" />
    <glyph glyph-name="ccircumflex" unicode="&#x109;" horiz-adv-x="570" 
d="M195 265q0 -71 41.5 -110.5t113.5 -39.5q40 0 76 13.5t52 27.5l17 14h15v-125q-7 -7 -20.5 -17t-61 -26.5t-103.5 -16.5q-120 0 -200 80t-80 200t80 200t200 80q39 0 74.5 -7t58.5 -17.5t40 -21t24 -17.5l8 -7l-55 -105q-5 5 -14.5 12.5t-42 20t-68.5 12.5
q-72 0 -113.5 -39.5t-41.5 -110.5zM314 690l-110 -100h-90l150 190h100l150 -190h-90z" />
    <glyph glyph-name="Ccaron" unicode="&#x10c;" horiz-adv-x="740" 
d="M205 365q0 -109 68 -177t177 -68q39 0 75 11t59.5 26t41.5 30.5t26 26.5l8 11h15v-145q-3 -4 -9.5 -10.5t-29 -22.5t-49 -28.5t-69 -23t-88.5 -10.5q-161 0 -270.5 109.5t-109.5 270.5t109.5 270.5t270.5 109.5q50 0 96 -10.5t75.5 -25t51.5 -29t32 -24.5l10 -11
l-55 -115q-2 3 -6 8.5t-20.5 19.5t-36 24.5t-54 19t-73.5 8.5q-109 0 -177 -68t-68 -177zM305 980l110 -100l110 100h90l-150 -190h-100l-150 190h90z" />
    <glyph glyph-name="ccaron" unicode="&#x10d;" horiz-adv-x="570" 
d="M195 265q0 -71 41.5 -110.5t113.5 -39.5q40 0 76 13.5t52 27.5l17 14h15v-125q-7 -7 -20.5 -17t-61 -26.5t-103.5 -16.5q-120 0 -200 80t-80 200t80 200t200 80q39 0 74.5 -7t58.5 -17.5t40 -21t24 -17.5l8 -7l-55 -105q-5 5 -14.5 12.5t-42 20t-68.5 12.5
q-72 0 -113.5 -39.5t-41.5 -110.5zM202 780l110 -100l110 100h90l-150 -190h-100l-150 190h90z" />
    <glyph glyph-name="Dcaron" unicode="&#x10e;" horiz-adv-x="780" 
d="M340 730q171 0 280.5 -104.5t109.5 -260.5t-109.5 -260.5t-280.5 -104.5h-245v730h245zM340 595h-95v-460h95q105 0 170 64t65 166t-65 166t-170 64zM260 980l110 -100l110 100h90l-150 -190h-100l-150 190h90z" />
    <glyph glyph-name="dcaron" unicode="&#x10f;" horiz-adv-x="780" 
d="M480 265q0 66 -41 108t-99 42q-61 0 -103 -42t-42 -108t42 -108t103 -42q58 0 99 42t41 108zM480 455v305h145v-760h-140l-5 75h-5q-2 -4 -6 -10t-19.5 -21.5t-34 -27.5t-49.5 -21.5t-66 -9.5q-107 0 -181 79t-74 201t74 201t181 79q35 0 66 -9.5t50 -22.5t33 -26t20 -23
l6 -9h5zM810 720q0 -47 -19 -85.5t-37 -54.5l-19 -15h-50q6 6 14 15.5t22 37.5t14 52q-24 0 -39.5 15.5t-15.5 44.5t19 47t46 18q28 0 46.5 -19.5t18.5 -55.5z" />
    <glyph glyph-name="Dcroat" unicode="&#x110;" horiz-adv-x="795" 
d="M355 730q171 0 280.5 -104.5t109.5 -260.5t-109.5 -260.5t-280.5 -104.5h-245v300h-70v125h70v305h245zM355 595h-95v-170h170v-125h-170v-165h95q105 0 170 64t65 166t-65 166t-170 64z" />
    <glyph glyph-name="dcroat" unicode="&#x111;" horiz-adv-x="725" 
d="M320 585v115h160v60h145v-60h80v-115h-80v-585h-140l-5 75h-5q-2 -4 -6 -10t-19.5 -21.5t-34 -27.5t-49.5 -21.5t-66 -9.5q-106 0 -180.5 78.5t-74.5 196.5t74.5 196.5t180.5 78.5q35 0 66 -9.5t50 -22.5t33 -26t20 -23l6 -9h5v140h-160zM480 260q0 62 -41 103.5
t-99 41.5q-61 0 -103 -41t-42 -104t42 -104t103 -41q58 0 99 41.5t41 103.5z" />
    <glyph glyph-name="Emacron" unicode="&#x112;" horiz-adv-x="640" 
d="M90 0v730h485v-135h-335v-160h260v-135h-260v-165h335v-135h-485zM140 835v100h395v-100h-395z" />
    <glyph glyph-name="emacron" unicode="&#x113;" horiz-adv-x="630" 
d="M325 545q121 0 190.5 -71.5t69.5 -198.5v-40h-405q8 -55 50 -87.5t115 -32.5q58 0 104 15t63 30l18 15h15v-130q-9 -7 -26 -17t-73 -26.5t-116 -16.5q-127 0 -206 78t-79 202q0 120 80 200t200 80zM335 420q-60 0 -99 -26.5t-51 -63.5h265q0 38 -32 64t-83 26zM135 635
v100h395v-100h-395z" />
    <glyph glyph-name="Edotaccent" unicode="&#x116;" horiz-adv-x="640" 
d="M90 0v730h485v-135h-335v-160h260v-135h-260v-165h335v-135h-485zM260 890q0 37 20 56t55 19t55 -19t20 -56t-20 -56t-55 -19t-55 19t-20 56z" />
    <glyph glyph-name="edotaccent" unicode="&#x117;" horiz-adv-x="630" 
d="M325 545q121 0 190.5 -71.5t69.5 -198.5v-40h-405q8 -55 50 -87.5t115 -32.5q58 0 104 15t63 30l18 15h15v-130q-9 -7 -26 -17t-73 -26.5t-116 -16.5q-127 0 -206 78t-79 202q0 120 80 200t200 80zM335 420q-60 0 -99 -26.5t-51 -63.5h265q0 38 -32 64t-83 26zM255 690
q0 37 20 56t55 19t55 -19t20 -56t-20 -56t-55 -19t-55 19t-20 56z" />
    <glyph glyph-name="Eogonek" unicode="&#x118;" horiz-adv-x="640" 
d="M90 0v730h485v-135h-335v-160h260v-135h-260v-165h335v-135q-4 -2 -10.5 -5.5t-22.5 -16t-28.5 -27t-23 -38t-10.5 -48.5q0 -55 50 -55q11 0 22.5 3t17.5 6l5 3v-57q-25 -20 -75 -20q-59 0 -94.5 29.5t-35.5 75.5q0 29 13.5 55.5t32.5 43t38 28.5t32 17l14 6h-410z" />
    <glyph glyph-name="eogonek" unicode="&#x119;" horiz-adv-x="630" 
d="M325 545q121 0 190.5 -71.5t69.5 -198.5v-40h-405q8 -55 50 -87.5t115 -32.5q58 0 104 15t63 30l18 15h15v-130q-35 -25 -100 -45q-4 -2 -10.5 -5.5t-22.5 -16t-28.5 -27t-23 -38t-10.5 -48.5q0 -55 50 -55q11 0 22.5 3t17.5 6l5 3v-57q-25 -20 -75 -20q-59 0 -94.5 29.5
t-35.5 75.5q0 25 10.5 48.5t25 38.5t29 26.5t25.5 16.5l10 5h-10q-127 0 -206 78t-79 202q0 120 80 200t200 80zM335 420q-60 0 -99 -26.5t-51 -63.5h265q0 38 -32 64t-83 26z" />
    <glyph glyph-name="Ecaron" unicode="&#x11a;" horiz-adv-x="640" 
d="M90 0v730h485v-135h-335v-160h260v-135h-260v-165h335v-135h-485zM225 980l110 -100l110 100h90l-150 -190h-100l-150 190h90z" />
    <glyph glyph-name="ecaron" unicode="&#x11b;" horiz-adv-x="630" 
d="M325 545q121 0 190.5 -71.5t69.5 -198.5v-40h-405q8 -55 50 -87.5t115 -32.5q58 0 104 15t63 30l18 15h15v-130q-9 -7 -26 -17t-73 -26.5t-116 -16.5q-127 0 -206 78t-79 202q0 120 80 200t200 80zM335 420q-60 0 -99 -26.5t-51 -63.5h265q0 38 -32 64t-83 26zM220 780
l110 -100l110 100h90l-150 -190h-100l-150 190h90z" />
    <glyph glyph-name="Gbreve" unicode="&#x11e;" horiz-adv-x="815" 
d="M430 745q50 0 96.5 -10.5t76.5 -25t53 -29t34 -24.5l10 -11l-50 -115l-8.5 8.5t-24.5 19.5t-40.5 24.5t-56 19t-70.5 8.5q-109 0 -177 -68t-68 -177q0 -108 67.5 -176.5t172.5 -68.5q47 0 87 15t56 30l17 15v105h-205l35 135h310v-295q-4 -6 -12 -15.5t-37 -33.5
t-62.5 -42.5t-88.5 -33.5t-115 -15q-161 0 -270.5 109.5t-109.5 270.5t109.5 270.5t270.5 109.5zM425 810q-49 0 -90 12.5t-58 25.5l-17 12v110q2 -2 7 -6.5t21 -14.5t33.5 -18t46 -14.5t57.5 -6.5q47 0 88 15t59 30l18 15v-110q-6 -6 -18.5 -14t-55 -22t-91.5 -14z" />
    <glyph glyph-name="gbreve" unicode="&#x11f;" horiz-adv-x="575" 
d="M50 350q0 89 60 142t170 53q31 0 58.5 -5t39.5 -10l12 -5q1 4 4.5 11t16 24t28 30t44 24t62.5 11v-120q-24 0 -45.5 -6.5t-30.5 -12.5l-9 -6q6 -4 14 -13.5t22 -43t14 -73.5q0 -68 -31 -108t-99 -72l-135 -64h99q110 0 163 -41t53 -115q0 -81 -71 -133t-211 -52
q-135 0 -196.5 39t-61.5 101q0 31 20 57.5t40 37.5l20 10h-55v65l175 85q-7 1 -18.5 3t-40.5 14t-51.5 30.5t-41 56t-18.5 86.5zM410 -55q0 65 -120 65h-80q-7 -2 -17 -7t-26.5 -23t-16.5 -40q0 -32 27.5 -46t102.5 -14q71 0 100.5 16.5t29.5 48.5zM190 350q0 -41 24 -63
t66 -22t66 22t24 63t-24 63t-66 22t-66 -22t-24 -63zM290 620q-49 0 -90 12.5t-58 25.5l-17 12v110q2 -2 7 -6.5t21 -14.5t33.5 -18t46 -14.5t57.5 -6.5q47 0 88 15t59 30l18 15v-110q-6 -6 -18.5 -14t-55 -22t-91.5 -14z" />
    <glyph glyph-name="Gcommaaccent" unicode="&#x122;" horiz-adv-x="815" 
d="M430 745q50 0 96.5 -10.5t76.5 -25t53 -29t34 -24.5l10 -11l-50 -115l-8.5 8.5t-24.5 19.5t-40.5 24.5t-56 19t-70.5 8.5q-109 0 -177 -68t-68 -177q0 -108 67.5 -176.5t172.5 -68.5q47 0 87 15t56 30l17 15v105h-205l35 135h310v-295q-4 -6 -12 -15.5t-37 -33.5
t-62.5 -42.5t-88.5 -33.5t-115 -15q-161 0 -270.5 109.5t-109.5 270.5t109.5 270.5t270.5 109.5zM495 -135q0 -29 -7.5 -56t-18.5 -44t-22.5 -30t-18.5 -19l-8 -6h-50q6 6 14 15.5t22 37.5t14 52q-24 0 -39.5 15.5t-15.5 44.5t19 47t46 18q28 0 46.5 -19.5t18.5 -55.5z" />
    <glyph glyph-name="gcommaaccent" unicode="&#x123;" horiz-adv-x="575" 
d="M215 675q0 29 7.5 56t19 44t22.5 30t18 19l8 6h50q-6 -6 -14 -15.5t-22 -37.5t-14 -52q24 0 39.5 -15.5t15.5 -44.5t-19 -47t-46 -18q-28 0 -46.5 19.5t-18.5 55.5zM50 350q0 89 60 142t170 53q31 0 58.5 -5t39.5 -10l12 -5q1 4 4.5 11t16 24t28 30t44 24t62.5 11v-120
q-24 0 -45.5 -6.5t-30.5 -12.5l-9 -6q6 -4 14 -13.5t22 -43t14 -73.5q0 -68 -31 -108t-99 -72l-135 -64h99q110 0 163 -41t53 -115q0 -81 -71 -133t-211 -52q-135 0 -196.5 39t-61.5 101q0 31 20 57.5t40 37.5l20 10h-55v65l175 85q-7 1 -18.5 3t-40.5 14t-51.5 30.5t-41 56
t-18.5 86.5zM410 -55q0 65 -120 65h-80q-7 -2 -17 -7t-26.5 -23t-16.5 -40q0 -32 27.5 -46t102.5 -14q71 0 100.5 16.5t29.5 48.5zM190 350q0 -41 24 -63t66 -22t66 22t24 63t-24 63t-66 22t-66 -22t-24 -63z" />
    <glyph glyph-name="Imacron" unicode="&#x12a;" horiz-adv-x="340" 
d="M245 730v-730h-150v730h150zM-25 835v100h395v-100h-395z" />
    <glyph glyph-name="imacron" unicode="&#x12b;" horiz-adv-x="285" 
d="M-50 635v100h395v-100h-395zM215 530v-530h-145v530h145z" />
    <glyph glyph-name="Iogonek" unicode="&#x12e;" horiz-adv-x="340" 
d="M170 0h-75v730h150v-730q-4 -2 -10.5 -5.5t-22.5 -16t-28.5 -27t-23 -38t-10.5 -48.5q0 -55 50 -55q11 0 22.5 3t17.5 6l5 3v-57q-25 -20 -75 -20q-59 0 -94.5 29.5t-35.5 75.5q0 29 13.5 55.5t32.5 43t38 28.5t32 17z" />
    <glyph glyph-name="iogonek" unicode="&#x12f;" horiz-adv-x="285" 
d="M140 0h-70v535q30 -10 72 -10q19 0 37.5 2.5t26.5 4.5l9 3v-535q-4 -2 -10.5 -5.5t-22.5 -16t-28.5 -27t-23 -38t-10.5 -48.5q0 -55 50 -55q11 0 22.5 3t17.5 6l5 3v-57q-25 -20 -75 -20q-59 0 -94.5 29.5t-35.5 75.5q0 29 13.5 55.5t32.5 43t38 28.5t32 17zM60 690
q0 37 23 58.5t59 21.5q37 0 60 -21.5t23 -58.5t-23 -58.5t-60 -21.5q-36 0 -59 21.5t-23 58.5z" />
    <glyph glyph-name="Idotaccent" unicode="&#x130;" horiz-adv-x="340" 
d="M245 730v-730h-150v730h150zM95 890q0 37 20 56t55 19t55 -19t20 -56t-20 -56t-55 -19t-55 19t-20 56z" />
    <glyph glyph-name="dotlessi" unicode="&#x131;" horiz-adv-x="285" 
d="M215 530v-530h-145v530h145z" />
    <glyph glyph-name="Kcommaaccent" unicode="&#x136;" horiz-adv-x="720" 
d="M90 0v730h150v-300l280 300h185l-285 -305l310 -425h-180l-235 320l-75 -80v-240h-150zM450 -135q0 -47 -19 -85.5t-37 -53.5l-19 -16h-50q6 6 14 15.5t22 37.5t14 52q-24 0 -39.5 15.5t-15.5 44.5t19 47t46 18q28 0 46.5 -19.5t18.5 -55.5z" />
    <glyph glyph-name="kcommaaccent" unicode="&#x137;" horiz-adv-x="595" 
d="M70 0v760h145v-460l210 230h165l-220 -245l235 -285h-170l-160 195l-60 -65v-130h-145zM385 -135q0 -29 -7.5 -56t-18.5 -44t-22.5 -30t-18.5 -19l-8 -6h-50q6 6 14 15.5t22 37.5t14 52q-24 0 -39.5 15.5t-15.5 44.5t19 47t46 18q28 0 46.5 -19.5t18.5 -55.5z" />
    <glyph glyph-name="Lacute" unicode="&#x139;" horiz-adv-x="555" 
d="M240 730v-595h295v-135h-445v730h150zM125 790l65 190h155l-130 -190h-90z" />
    <glyph glyph-name="lacute" unicode="&#x13a;" horiz-adv-x="285" 
d="M215 760v-760h-145v760h145zM95 830l65 190h155l-130 -190h-90z" />
    <glyph glyph-name="Lcommaaccent" unicode="&#x13b;" horiz-adv-x="555" 
d="M240 730v-595h295v-135h-445v730h150zM380 -135q0 -47 -19 -85.5t-37 -53.5l-19 -16h-50q6 6 14 15.5t22 37.5t14 52q-24 0 -39.5 15.5t-15.5 44.5t19 47t46 18q28 0 46.5 -19.5t18.5 -55.5z" />
    <glyph glyph-name="lcommaaccent" unicode="&#x13c;" horiz-adv-x="285" 
d="M215 760v-760h-145v760h145zM205 -135q0 -29 -7.5 -56t-18.5 -44t-22.5 -30t-18.5 -19l-8 -6h-50q6 6 14 15.5t22 37.5t14 52q-24 0 -39.5 15.5t-15.5 44.5t19 47t46 18q28 0 46.5 -19.5t18.5 -55.5z" />
    <glyph glyph-name="Lcaron" unicode="&#x13d;" horiz-adv-x="555" 
d="M240 730v-595h295v-135h-445v730h150zM450 665q0 -47 -19 -85.5t-37 -53.5l-19 -16h-50q6 6 14 15.5t22 37.5t14 52q-24 0 -39.5 15.5t-15.5 44.5t19 47t46 18q28 0 46.5 -19.5t18.5 -55.5z" />
    <glyph glyph-name="lcaron" unicode="&#x13e;" horiz-adv-x="375" 
d="M215 760v-760h-145v760h145zM405 721q0 -29 -7.5 -56t-18.5 -44t-22.5 -30t-18.5 -19l-8 -6h-50q6 6 14 15.5t22 37.5t14 52q-24 0 -39.5 15.5t-15.5 44.5t19 47t46 18q28 0 46.5 -19.5t18.5 -55.5z" />
    <glyph glyph-name="Lslash" unicode="&#x141;" horiz-adv-x="570" 
d="M255 730v-290l165 55v-125l-165 -55v-180h295v-135h-445v265l-65 -20v125l65 20v340h150z" />
    <glyph glyph-name="lslash" unicode="&#x142;" horiz-adv-x="315" 
d="M15 285v125l70 20v330h145v-280l70 20v-125l-70 -20v-355h-145v305z" />
    <glyph glyph-name="Nacute" unicode="&#x143;" horiz-adv-x="815" 
d="M725 730v-730h-145l-340 480v-480h-150v730h145l340 -480v480h150zM360 790l65 190h155l-130 -190h-90z" />
    <glyph glyph-name="nacute" unicode="&#x144;" horiz-adv-x="655" 
d="M590 0h-145v315q0 48 -27 74t-73 26q-57 0 -93.5 -35.5t-36.5 -94.5v-285h-145v530h140l5 -75h5q2 4 5.5 10t18 21.5t31.5 27.5t46.5 21.5t63.5 9.5q94 0 149.5 -57t55.5 -158v-330zM285 590l65 190h155l-130 -190h-90z" />
    <glyph glyph-name="Ncommaaccent" unicode="&#x145;" horiz-adv-x="815" 
d="M725 730v-730h-145l-340 480v-480h-150v730h145l340 -480v480h150zM480 -134q0 -47 -19 -85.5t-37 -54.5l-19 -15h-50q6 6 14 15.5t22 37.5t14 52q-24 0 -39.5 15.5t-15.5 44.5t19 47t46 18q28 0 46.5 -19.5t18.5 -55.5z" />
    <glyph glyph-name="ncommaaccent" unicode="&#x146;" horiz-adv-x="655" 
d="M590 0h-145v315q0 48 -27 74t-73 26q-57 0 -93.5 -35.5t-36.5 -94.5v-285h-145v530h140l5 -75h5q2 4 5.5 10t18 21.5t31.5 27.5t46.5 21.5t63.5 9.5q94 0 149.5 -57t55.5 -158v-330zM400 -135q0 -47 -19 -85.5t-37 -53.5l-19 -16h-50q6 6 14 15.5t22 37.5t14 52
q-24 0 -39.5 15.5t-15.5 44.5t19 47t46 18q28 0 46.5 -19.5t18.5 -55.5z" />
    <glyph glyph-name="Ncaron" unicode="&#x147;" horiz-adv-x="815" 
d="M725 730v-730h-145l-340 480v-480h-150v730h145l340 -480v480h150zM305 980l110 -100l110 100h90l-150 -190h-100l-150 190h90z" />
    <glyph glyph-name="ncaron" unicode="&#x148;" horiz-adv-x="655" 
d="M590 0h-145v315q0 48 -27 74t-73 26q-57 0 -93.5 -35.5t-36.5 -94.5v-285h-145v530h140l5 -75h5q2 4 5.5 10t18 21.5t31.5 27.5t46.5 21.5t63.5 9.5q94 0 149.5 -57t55.5 -158v-330zM225 780l110 -100l110 100h90l-150 -190h-100l-150 190h90z" />
    <glyph glyph-name="Omacron" unicode="&#x14c;" horiz-adv-x="880" 
d="M205 365q0 -108 66.5 -176.5t168.5 -68.5t168.5 68.5t66.5 176.5t-66.5 176.5t-168.5 68.5t-168.5 -68.5t-66.5 -176.5zM830 365q0 -162 -111 -271t-279 -109t-279 109t-111 271t111 271t279 109t279 -109t111 -271zM245 835v100h395v-100h-395z" />
    <glyph glyph-name="omacron" unicode="&#x14d;" horiz-adv-x="680" 
d="M195 265q0 -66 42 -108t103 -42t103 42t42 108t-42 108t-103 42t-103 -42t-42 -108zM635 265q0 -122 -81 -201t-214 -79t-214 79t-81 201t81 201t214 79t214 -79t81 -201zM140 635v100h395v-100h-395z" />
    <glyph glyph-name="Ohungarumlaut" unicode="&#x150;" horiz-adv-x="880" 
d="M205 365q0 -108 66.5 -176.5t168.5 -68.5t168.5 68.5t66.5 176.5t-66.5 176.5t-168.5 68.5t-168.5 -68.5t-66.5 -176.5zM830 365q0 -162 -111 -271t-279 -109t-279 109t-111 271t111 271t279 109t279 -109t111 -271zM320 790l55 190h145l-125 -190h-75zM480 790l90 190
h155l-155 -190h-90z" />
    <glyph glyph-name="ohungarumlaut" unicode="&#x151;" horiz-adv-x="680" 
d="M195 265q0 -66 42 -108t103 -42t103 42t42 108t-42 108t-103 42t-103 -42t-42 -108zM635 265q0 -122 -81 -201t-214 -79t-214 79t-81 201t81 201t214 79t214 -79t81 -201zM220 590l55 190h145l-125 -190h-75zM380 590l90 190h155l-155 -190h-90z" />
    <glyph glyph-name="OE" unicode="&#x152;" horiz-adv-x="1065" 
d="M550 0q-50 -15 -110 -15q-168 0 -279 109t-111 271t111 271t279 109q29 0 56.5 -3.5t40.5 -7.5l13 -4h450v-135h-300v-160h225v-135h-225v-165h300v-135h-450zM440 120q31 0 58.5 6t39.5 12l12 7v440q-40 25 -110 25q-102 0 -168.5 -68.5t-66.5 -176.5t66.5 -176.5
t168.5 -68.5z" />
    <glyph glyph-name="oe" unicode="&#x153;" horiz-adv-x="985" 
d="M680 545q121 0 190.5 -71.5t69.5 -198.5v-40h-405q8 -55 50 -87.5t115 -32.5q58 0 104 15t64 30l17 15h15v-130q-9 -7 -26 -17t-73 -26.5t-116 -16.5q-49 0 -91.5 13.5t-60.5 27.5l-18 14q-7 -6 -20 -15t-58.5 -24.5t-96.5 -15.5q-133 0 -214 79t-81 201t81 201t214 79
q47 0 89.5 -15t61.5 -30l19 -15q7 7 21 17t58 26.5t91 16.5zM340 115q24 0 45.5 7.5t30.5 15.5l9 7q-25 45 -25 120q0 33 6 63t12 44l7 13q-30 30 -85 30q-61 0 -103 -42t-42 -108t42 -108t103 -42zM690 420q-60 0 -99 -26.5t-51 -63.5h265q0 38 -32 64t-83 26z" />
    <glyph glyph-name="Racute" unicode="&#x154;" horiz-adv-x="675" 
d="M240 595v-230h80q130 0 130 115t-130 115h-80zM475 265l180 -265h-165l-155 230h-95v-230h-150v730h230q132 0 208.5 -69.5t76.5 -180.5q0 -43 -13.5 -81t-32.5 -60.5t-38 -39t-33 -23.5l-13 -6v-5zM290 790l65 190h155l-130 -190h-90z" />
    <glyph glyph-name="racute" unicode="&#x155;" horiz-adv-x="480" 
d="M345 415q-22 0 -44 -10t-36.5 -23.5t-26.5 -27.5t-18 -24l-5 -10v-320h-145v530h140l5 -80h5q2 4 5 10.5t15.5 22.5t27 28.5t39.5 23t53 10.5q33 0 60.5 -11.5t38.5 -22.5l11 -11l-30 -116q-30 31 -95 31zM214 590l65 190h155l-130 -190h-90z" />
    <glyph glyph-name="Rcommaaccent" unicode="&#x156;" horiz-adv-x="675" 
d="M240 595v-230h80q130 0 130 115t-130 115h-80zM475 265l180 -265h-165l-155 230h-95v-230h-150v730h230q132 0 208.5 -69.5t76.5 -180.5q0 -43 -13.5 -81t-32.5 -60.5t-38 -39t-33 -23.5l-13 -6v-5zM425 -135q0 -29 -7.5 -56t-18.5 -44t-22.5 -30t-18.5 -19l-8 -6h-50
q6 6 14 15.5t22 37.5t14 52q-24 0 -39.5 15.5t-15.5 44.5t19 47t46 18q28 0 46.5 -19.5t18.5 -55.5z" />
    <glyph glyph-name="rcommaaccent" unicode="&#x157;" horiz-adv-x="480" 
d="M345 415q-22 0 -44 -10t-36.5 -23.5t-26.5 -27.5t-18 -24l-5 -10v-320h-145v530h140l5 -80h5q2 4 5 10.5t15.5 22.5t27 28.5t39.5 23t53 10.5q33 0 60.5 -11.5t38.5 -22.5l11 -11l-30 -116q-30 31 -95 31zM205 -135q0 -29 -7.5 -56t-18.5 -44t-22.5 -30t-18.5 -19l-8 -6
h-50q6 6 14 15.5t22 37.5t14 52q-24 0 -39.5 15.5t-15.5 44.5t19 47t46 18q28 0 46.5 -19.5t18.5 -55.5z" />
    <glyph glyph-name="Rcaron" unicode="&#x158;" horiz-adv-x="675" 
d="M240 595v-230h80q130 0 130 115t-130 115h-80zM475 265l180 -265h-165l-155 230h-95v-230h-150v730h230q132 0 208.5 -69.5t76.5 -180.5q0 -43 -13.5 -81t-32.5 -60.5t-38 -39t-33 -23.5l-13 -6v-5zM227 980l110 -100l110 100h90l-150 -190h-100l-150 190h90z" />
    <glyph glyph-name="rcaron" unicode="&#x159;" horiz-adv-x="480" 
d="M345 415q-22 0 -44 -10t-36.5 -23.5t-26.5 -27.5t-18 -24l-5 -10v-320h-145v530h140l5 -80h5q2 4 5 10.5t15.5 22.5t27 28.5t39.5 23t53 10.5q33 0 60.5 -11.5t38.5 -22.5l11 -11l-30 -116q-30 31 -95 31zM155 780l110 -100l110 100h90l-150 -190h-100l-150 190h90z" />
    <glyph glyph-name="Sacute" unicode="&#x15a;" horiz-adv-x="585" 
d="M290 745q41 0 78.5 -7.5t62 -18.5t43.5 -22.5t28 -18.5l8 -8l-50 -120q-7 7 -20.5 17t-54 26.5t-80.5 16.5q-44 0 -69.5 -19.5t-25.5 -50.5q0 -24 25 -45.5t62 -37.5t80.5 -39t80.5 -48t62 -66.5t25 -93.5q0 -102 -72 -163.5t-198 -61.5q-42 0 -81.5 9.5t-66 22.5
t-47.5 26t-30 23l-10 9l50 120q3 -3 8.5 -8t23 -18t37 -23t49.5 -18t60 -8q60 0 91 23t31 62q0 28 -25 51t-62 39t-80.5 39t-80.5 47.5t-62 67t-25 96.5q0 85 64.5 142.5t170.5 57.5zM242 790l65 190h155l-130 -190h-90z" />
    <glyph glyph-name="sacute" unicode="&#x15b;" horiz-adv-x="505" 
d="M470 150q0 -75 -57.5 -120t-172.5 -45q-58 0 -109 16.5t-73 32.5l-23 16l30 115q7 -6 20 -15t57 -24.5t93 -15.5q85 0 85 45q0 18 -20.5 31t-52 19.5t-67.5 19.5t-67.5 29t-52 50t-20.5 81q0 67 55.5 113.5t149.5 46.5q38 0 73.5 -7.5t59 -19t42 -22.5t26.5 -18l9 -8
l-55 -100q-5 6 -15 14t-45 22t-75 14q-36 0 -55.5 -12.5t-19.5 -32.5q0 -19 29 -30t70 -21t82 -26t70 -53.5t29 -94.5zM195 590l65 190h155l-130 -190h-90z" />
    <glyph glyph-name="Scedilla" unicode="&#x15e;" horiz-adv-x="585" 
d="M290 745q41 0 78.5 -7.5t62 -18.5t43.5 -22.5t28 -18.5l8 -8l-50 -120q-7 7 -20.5 17t-54 26.5t-80.5 16.5q-44 0 -69.5 -19.5t-25.5 -50.5q0 -24 25 -45.5t62 -37.5t80.5 -39t80.5 -48t62 -66.5t25 -93.5q0 -94 -61 -154t-169 -71l-10 -30q110 -16 110 -105
q0 -105 -145 -105q-24 0 -45.5 5t-30.5 10l-9 5v60q25 -15 60 -15q55 0 55 40q0 22 -21 34.5t-43 13.5l-21 2l30 85q-36 3 -70.5 13t-58 23t-41.5 25t-27 20l-8 9l50 120q3 -3 8.5 -8t23 -18t37 -23t49.5 -18t60 -8q60 0 91 23t31 62q0 28 -25 51t-62 39t-80.5 39
t-80.5 47.5t-62 67t-25 96.5q0 85 64.5 142.5t170.5 57.5z" />
    <glyph glyph-name="scedilla" unicode="&#x15f;" horiz-adv-x="505" 
d="M470 150q0 -143 -188 -165l-12 -30q110 -16 110 -105q0 -105 -145 -105q-24 0 -45.5 5t-30.5 10l-9 5v60q25 -15 60 -15q55 0 55 40q0 22 -21.5 34.5t-42.5 13.5l-21 2l30 85q-51 4 -95 20.5t-62 30.5l-18 14l30 115q7 -6 20 -15t57 -24.5t93 -15.5q85 0 85 45
q0 18 -20.5 31t-52 19.5t-67.5 19.5t-67.5 29t-52 50t-20.5 81q0 67 55.5 113.5t149.5 46.5q38 0 73.5 -7.5t59 -19t42 -22.5t26.5 -18l9 -8l-55 -100q-5 6 -15 14t-45 22t-75 14q-36 0 -55.5 -12.5t-19.5 -32.5q0 -19 29 -30t70 -21t82 -26t70 -53.5t29 -94.5z" />
    <glyph glyph-name="Scaron" unicode="&#x160;" horiz-adv-x="585" 
d="M290 745q41 0 78.5 -7.5t62 -18.5t43.5 -22.5t28 -18.5l8 -8l-50 -120q-7 7 -20.5 17t-54 26.5t-80.5 16.5q-44 0 -69.5 -19.5t-25.5 -50.5q0 -24 25 -45.5t62 -37.5t80.5 -39t80.5 -48t62 -66.5t25 -93.5q0 -102 -72 -163.5t-198 -61.5q-42 0 -81.5 9.5t-66 22.5
t-47.5 26t-30 23l-10 9l50 120q3 -3 8.5 -8t23 -18t37 -23t49.5 -18t60 -8q60 0 91 23t31 62q0 28 -25 51t-62 39t-80.5 39t-80.5 47.5t-62 67t-25 96.5q0 85 64.5 142.5t170.5 57.5zM182 980l110 -100l110 100h90l-150 -190h-100l-150 190h90z" />
    <glyph glyph-name="scaron" unicode="&#x161;" horiz-adv-x="505" 
d="M470 150q0 -75 -57.5 -120t-172.5 -45q-58 0 -109 16.5t-73 32.5l-23 16l30 115q7 -6 20 -15t57 -24.5t93 -15.5q85 0 85 45q0 18 -20.5 31t-52 19.5t-67.5 19.5t-67.5 29t-52 50t-20.5 81q0 67 55.5 113.5t149.5 46.5q38 0 73.5 -7.5t59 -19t42 -22.5t26.5 -18l9 -8
l-55 -100q-5 6 -15 14t-45 22t-75 14q-36 0 -55.5 -12.5t-19.5 -32.5q0 -19 29 -30t70 -21t82 -26t70 -53.5t29 -94.5zM135 780l110 -100l110 100h90l-150 -190h-100l-150 190h90z" />
    <glyph glyph-name="Tcommaaccent" unicode="&#x162;" horiz-adv-x="650" 
d="M35 730h580v-135h-215v-595h-150v595h-215v135zM390 -135q0 -47 -19 -85.5t-37 -53.5l-19 -16h-50q6 6 14 15.5t22 37.5t14 52q-24 0 -39.5 15.5t-15.5 44.5t19 47t46 18q28 0 46.5 -19.5t18.5 -55.5z" />
    <glyph glyph-name="tcommaaccent" unicode="&#x163;" horiz-adv-x="465" 
d="M100 185v215h-90v40l230 245h5v-155h160v-130h-160v-205q0 -40 20 -60t55 -20q24 0 45.5 8.5t30.5 17.5l9 9h15v-120q-6 -5 -16.5 -12.5t-45.5 -20t-73 -12.5q-84 0 -134.5 53.5t-50.5 146.5zM325 -130q0 -29 -7.5 -56t-18.5 -44t-22.5 -30t-18.5 -19l-8 -6h-50
q6 6 14 15.5t22 37.5t14 52q-24 0 -39.5 15.5t-15.5 44.5t19 47t46 18q28 0 46.5 -19.5t18.5 -55.5z" />
    <glyph glyph-name="Tcaron" unicode="&#x164;" horiz-adv-x="650" 
d="M35 730h580v-135h-215v-595h-150v595h-215v135zM215 980l110 -100l110 100h90l-150 -190h-100l-150 190h90z" />
    <glyph glyph-name="tcaron" unicode="&#x165;" horiz-adv-x="530" 
d="M100 185v215h-90v40l230 245h5v-155h160v-130h-160v-205q0 -40 20 -60t55 -20q24 0 45.5 8.5t30.5 17.5l9 9h15v-120q-6 -5 -16.5 -12.5t-45.5 -20t-73 -12.5q-84 0 -134.5 53.5t-50.5 146.5zM560 615q0 -47 -19 -85.5t-37 -53.5l-19 -16h-50q6 6 14 15.5t22 37.5t14 52
q-24 0 -39.5 15.5t-15.5 44.5t19 47t46 18q28 0 46.5 -19.5t18.5 -55.5z" />
    <glyph glyph-name="Umacron" unicode="&#x16a;" horiz-adv-x="780" 
d="M390 -15q-146 0 -228 80.5t-82 219.5v445h150v-445q0 -78 42.5 -121.5t117.5 -43.5t117.5 43.5t42.5 121.5v445h150v-445q0 -139 -82 -219.5t-228 -80.5zM200 835v100h395v-100h-395z" />
    <glyph glyph-name="umacron" unicode="&#x16b;" horiz-adv-x="660" 
d="M70 530h145v-315q0 -48 27 -74t73 -26q57 0 93.5 35.5t36.5 94.5v285h145v-530h-140l-5 75h-5q-2 -4 -5.5 -10t-18 -21.5t-31.5 -27.5t-46.5 -21.5t-63.5 -9.5q-94 0 -149.5 57t-55.5 158v330zM135 635v100h395v-100h-395z" />
    <glyph glyph-name="Uring" unicode="&#x16e;" horiz-adv-x="780" 
d="M390 -15q-146 0 -228 80.5t-82 219.5v445h150v-445q0 -78 42.5 -121.5t117.5 -43.5t117.5 43.5t42.5 121.5v445h150v-445q0 -139 -82 -219.5t-228 -80.5zM350 895q0 -22 12.5 -33.5t32.5 -11.5t32.5 11.5t12.5 33.5t-12.5 33.5t-32.5 11.5t-32.5 -11.5t-12.5 -33.5z
M520 895q0 -56 -34.5 -90.5t-90.5 -34.5t-90.5 34.5t-34.5 90.5t34.5 90.5t90.5 34.5t90.5 -34.5t34.5 -90.5z" />
    <glyph glyph-name="uring" unicode="&#x16f;" horiz-adv-x="660" 
d="M70 530h145v-315q0 -48 27 -74t73 -26q57 0 93.5 35.5t36.5 94.5v285h145v-530h-140l-5 75h-5q-2 -4 -5.5 -10t-18 -21.5t-31.5 -27.5t-46.5 -21.5t-63.5 -9.5q-94 0 -149.5 57t-55.5 158v330zM285 695q0 -22 12.5 -33.5t32.5 -11.5t32.5 11.5t12.5 33.5t-12.5 33.5
t-32.5 11.5t-32.5 -11.5t-12.5 -33.5zM455 695q0 -56 -34.5 -90.5t-90.5 -34.5t-90.5 34.5t-34.5 90.5t34.5 90.5t90.5 34.5t90.5 -34.5t34.5 -90.5z" />
    <glyph glyph-name="Uhungarumlaut" unicode="&#x170;" horiz-adv-x="780" 
d="M390 -15q-146 0 -228 80.5t-82 219.5v445h150v-445q0 -78 42.5 -121.5t117.5 -43.5t117.5 43.5t42.5 121.5v445h150v-445q0 -139 -82 -219.5t-228 -80.5zM265 790l55 190h145l-125 -190h-75zM425 790l90 190h155l-155 -190h-90z" />
    <glyph glyph-name="uhungarumlaut" unicode="&#x171;" horiz-adv-x="660" 
d="M70 530h145v-315q0 -48 27 -74t73 -26q57 0 93.5 35.5t36.5 94.5v285h145v-530h-140l-5 75h-5q-2 -4 -5.5 -10t-18 -21.5t-31.5 -27.5t-46.5 -21.5t-63.5 -9.5q-94 0 -149.5 57t-55.5 158v330zM200 590l55 190h145l-125 -190h-75zM360 590l90 190h155l-155 -190h-90z" />
    <glyph glyph-name="Uogonek" unicode="&#x172;" horiz-adv-x="780" 
d="M390 -15q-146 0 -228 80.5t-82 219.5v445h150v-445q0 -78 42.5 -121.5t117.5 -43.5t117.5 43.5t42.5 121.5v445h150v-445q0 -117 -55.5 -189t-144.5 -96q-4 -2 -10.5 -5.5t-22.5 -16t-28.5 -27t-23 -38t-10.5 -48.5q0 -55 50 -55q11 0 22.5 3t16.5 6l6 3v-57
q-25 -20 -75 -20q-59 0 -94.5 29.5t-35.5 75.5q0 25 10.5 48.5t25 38.5t29 26.5t24.5 16.5l11 5h-5z" />
    <glyph glyph-name="uogonek" unicode="&#x173;" horiz-adv-x="660" 
d="M515 0h-65l-5 75h-5q-2 -4 -5.5 -10t-18 -21.5t-31.5 -27.5t-46.5 -21.5t-63.5 -9.5q-94 0 -149.5 57t-55.5 158v330h145v-315q0 -48 27 -74t73 -26q57 0 93.5 35.5t36.5 94.5v285h145v-530q-4 -2 -10.5 -5.5t-22.5 -16t-28.5 -27t-23 -38t-10.5 -48.5q0 -55 50 -55
q11 0 22.5 3t16.5 6l6 3v-57q-25 -20 -75 -20q-59 0 -94.5 29.5t-35.5 75.5q0 29 13.5 55.5t32.5 43t38 28.5t33 17z" />
    <glyph glyph-name="Ydieresis" unicode="&#x178;" horiz-adv-x="710" 
d="M280 0v300l-270 430h167l178 -290l178 290h167l-270 -430v-300h-150zM175 890q0 37 20 56t55 19t55 -19t20 -56q0 -36 -20.5 -55.5t-54.5 -19.5q-35 0 -55 19t-20 56zM390 890q0 37 20 56t55 19t55 -19t20 -56q0 -36 -20.5 -55.5t-54.5 -19.5q-35 0 -55 19t-20 56z" />
    <glyph glyph-name="Zacute" unicode="&#x179;" horiz-adv-x="690" 
d="M50 110l370 485h-350v135h555v-110l-370 -485h380v-135h-585v110zM295 790l65 190h155l-130 -190h-90z" />
    <glyph glyph-name="zacute" unicode="&#x17a;" horiz-adv-x="585" 
d="M55 400v130h475v-100l-280 -300h290v-130h-500v100l280 300h-265zM243 590l65 190h155l-130 -190h-90z" />
    <glyph glyph-name="Zdotaccent" unicode="&#x17b;" horiz-adv-x="690" 
d="M50 110l370 485h-350v135h555v-110l-370 -485h380v-135h-585v110zM275 890q0 37 20 56t55 19t55 -19t20 -56t-20 -56t-55 -19t-55 19t-20 56z" />
    <glyph glyph-name="zdotaccent" unicode="&#x17c;" horiz-adv-x="585" 
d="M55 400v130h475v-100l-280 -300h290v-130h-500v100l280 300h-265zM220 690q0 37 20 56t55 19t55 -19t20 -56t-20 -56t-55 -19t-55 19t-20 56z" />
    <glyph glyph-name="Zcaron" unicode="&#x17d;" horiz-adv-x="690" 
d="M50 110l370 485h-350v135h555v-110l-370 -485h380v-135h-585v110zM240 980l110 -100l110 100h90l-150 -190h-100l-150 190h90z" />
    <glyph glyph-name="zcaron" unicode="&#x17e;" horiz-adv-x="585" 
d="M55 400v130h475v-100l-280 -300h290v-130h-500v100l280 300h-265zM183 780l110 -100l110 100h90l-150 -190h-100l-150 190h90z" />
    <glyph glyph-name="florin" unicode="&#x192;" horiz-adv-x="490" 
d="M160 530l10 70q13 93 72 146.5t158 53.5q31 0 60 -11t42 -23l13 -11v-125q-45 40 -115 40q-72 0 -85 -80l-10 -60h150v-130h-175l-71 -404q-18 -104 -82.5 -163t-171.5 -63v130q95 7 110 95l70 405h-80v130h105z" />
    <glyph glyph-name="Scommaaccent" unicode="&#x218;" horiz-adv-x="585" 
d="M290 745q41 0 78.5 -7.5t62 -18.5t43.5 -22.5t28 -18.5l8 -8l-50 -120q-7 7 -20.5 17t-54 26.5t-80.5 16.5q-44 0 -69.5 -19.5t-25.5 -50.5q0 -24 25 -45.5t62 -37.5t80.5 -39t80.5 -48t62 -66.5t25 -93.5q0 -102 -72 -163.5t-198 -61.5q-42 0 -81.5 9.5t-66 22.5
t-47.5 26t-30 23l-10 9l50 120q3 -3 8.5 -8t23 -18t37 -23t49.5 -18t60 -8q60 0 91 23t31 62q0 28 -25 51t-62 39t-80.5 39t-80.5 47.5t-62 67t-25 96.5q0 85 64.5 142.5t170.5 57.5zM355 -135q0 -29 -7.5 -56t-18.5 -44t-22.5 -30t-18.5 -19l-8 -6h-50q6 6 14 15.5t22 37.5
t14 52q-24 0 -39.5 15.5t-15.5 44.5t19 47t46 18q28 0 46.5 -19.5t18.5 -55.5z" />
    <glyph glyph-name="scommaaccent" unicode="&#x219;" horiz-adv-x="505" 
d="M470 150q0 -75 -57.5 -120t-172.5 -45q-58 0 -109 16.5t-73 32.5l-23 16l30 115q7 -6 20 -15t57 -24.5t93 -15.5q85 0 85 45q0 18 -20.5 31t-52 19.5t-67.5 19.5t-67.5 29t-52 50t-20.5 81q0 67 55.5 113.5t149.5 46.5q38 0 73.5 -7.5t59 -19t42 -22.5t26.5 -18l9 -8
l-55 -100q-5 6 -15 14t-45 22t-75 14q-36 0 -55.5 -12.5t-19.5 -32.5q0 -19 29 -30t70 -21t82 -26t70 -53.5t29 -94.5zM315 -135q0 -29 -7.5 -56t-18.5 -44t-22.5 -30t-18.5 -19l-8 -6h-50q6 6 14 15.5t22 37.5t14 52q-24 0 -39.5 15.5t-15.5 44.5t19 47t46 18
q28 0 46.5 -19.5t18.5 -55.5z" />
    <glyph glyph-name="uni021A" unicode="&#x21a;" horiz-adv-x="650" 
d="M35 730h580v-135h-215v-595h-150v595h-215v135zM390 -135q0 -47 -19 -85.5t-37 -53.5l-19 -16h-50q6 6 14 15.5t22 37.5t14 52q-24 0 -39.5 15.5t-15.5 44.5t19 47t46 18q28 0 46.5 -19.5t18.5 -55.5z" />
    <glyph glyph-name="uni021B" unicode="&#x21b;" horiz-adv-x="465" 
d="M100 185v215h-90v40l230 245h5v-155h160v-130h-160v-205q0 -40 20 -60t55 -20q24 0 45.5 8.5t30.5 17.5l9 9h15v-120q-6 -5 -16.5 -12.5t-45.5 -20t-73 -12.5q-84 0 -134.5 53.5t-50.5 146.5zM325 -130q0 -29 -7.5 -56t-18.5 -44t-22.5 -30t-18.5 -19l-8 -6h-50
q6 6 14 15.5t22 37.5t14 52q-24 0 -39.5 15.5t-15.5 44.5t19 47t46 18q28 0 46.5 -19.5t18.5 -55.5z" />
    <glyph glyph-name="afii57929" unicode="&#x2bc;" horiz-adv-x="190" 
d="M160 715q0 -47 -19 -85.5t-37 -53.5l-19 -16h-50q6 6 14 15.5t22 37.5t14 52q-24 0 -39.5 15.5t-15.5 44.5t19 47t46 18q28 0 46.5 -19.5t18.5 -55.5z" />
    <glyph glyph-name="circumflex" unicode="&#x2c6;" horiz-adv-x="460" 
d="M230 690l-110 -100h-90l150 190h100l150 -190h-90z" />
    <glyph glyph-name="caron" unicode="&#x2c7;" horiz-adv-x="460" 
d="M120 780l110 -100l110 100h90l-150 -190h-100l-150 190h90z" />
    <glyph glyph-name="breve" unicode="&#x2d8;" horiz-adv-x="390" 
d="M195 620q-49 0 -90 12.5t-58 25.5l-17 12v110q2 -2 7 -6.5t21 -14.5t33.5 -18t46 -14.5t57.5 -6.5q47 0 88 15t59 30l18 15v-110q-6 -6 -18.5 -14t-55 -22t-91.5 -14z" />
    <glyph glyph-name="dotaccent" unicode="&#x2d9;" horiz-adv-x="210" 
d="M30 690q0 37 20 56t55 19t55 -19t20 -56t-20 -56t-55 -19t-55 19t-20 56z" />
    <glyph glyph-name="ring" unicode="&#x2da;" horiz-adv-x="310" 
d="M110 685q0 -22 12.5 -33.5t32.5 -11.5t32.5 11.5t12.5 33.5t-12.5 33.5t-32.5 11.5t-32.5 -11.5t-12.5 -33.5zM280 685q0 -56 -34.5 -90.5t-90.5 -34.5t-90.5 34.5t-34.5 90.5t34.5 90.5t90.5 34.5t90.5 -34.5t34.5 -90.5z" />
    <glyph glyph-name="ogonek" unicode="&#x2db;" horiz-adv-x="265" 
d="M160 0h75q-4 -2 -10.5 -5.5t-22.5 -16t-28.5 -27t-23 -38t-10.5 -48.5q0 -55 50 -55q11 0 22.5 3t17.5 6l5 3v-57q-25 -20 -75 -20q-59 0 -94.5 29.5t-35.5 75.5q0 29 13.5 55.5t32.5 43t38 28.5t32 17z" />
    <glyph glyph-name="tilde" unicode="&#x2dc;" horiz-adv-x="440" 
d="M135 660q-29 0 -55 -12.5t-38 -25.5l-12 -12v105q4 6 12 14t36.5 22t61.5 14q39 0 86.5 -27.5t78.5 -27.5q29 0 55 12.5t38 25.5l12 12v-105q-4 -6 -12 -14t-36.5 -22t-61.5 -14q-39 0 -86.5 27.5t-78.5 27.5z" />
    <glyph glyph-name="hungarumlaut" unicode="&#x2dd;" horiz-adv-x="465" 
d="M30 590l55 190h145l-125 -190h-75zM190 590l90 190h155l-155 -190h-90z" />
    <glyph glyph-name="afii10023" unicode="&#x401;" horiz-adv-x="640" 
d="M90 0v730h485v-135h-335v-160h260v-135h-260v-165h335v-135h-485zM155 890q0 37 20 56t55 19t55 -19t20 -56q0 -36 -20.5 -55.5t-54.5 -19.5q-35 0 -55 19t-20 56zM370 890q0 37 20 56t55 19t55 -19t20 -56q0 -36 -20.5 -55.5t-54.5 -19.5q-35 0 -55 19t-20 56z" />
    <glyph glyph-name="afii10051" unicode="&#x402;" horiz-adv-x="810" 
d="M620 215q0 54 -36.5 87t-101.5 33q-43 0 -81 -11.5t-55 -22.5l-16 -11v-290h-150v595h-160v135h530v-135h-220v-170q8 5 22.5 12.5t63 20t99.5 12.5q120 0 187.5 -67.5t67.5 -187.5q0 -115 -60.5 -179.5t-174.5 -75.5l-20 135q50 4 77.5 34.5t27.5 85.5z" />
    <glyph glyph-name="afii10052" unicode="&#x403;" horiz-adv-x="550" 
d="M255 790l65 190h155l-130 -190h-90zM90 730h435v-135h-285v-595h-150v730z" />
    <glyph glyph-name="afii10053" unicode="&#x404;" horiz-adv-x="740" 
d="M430 -15q-161 0 -270.5 109.5t-109.5 270.5t109.5 270.5t270.5 109.5q50 0 96 -10.5t75.5 -25t51.5 -29t32 -24.5l10 -11l-55 -115q-2 3 -6 8.5t-20.5 19.5t-36 24.5t-54 19t-73.5 8.5q-97 0 -160 -54t-80 -126h305v-130h-305q17 -72 80 -126t160 -54q39 0 75 11t59.5 26
t41.5 30.5t26 26.5l8 11h15v-145q-3 -4 -9.5 -10.5t-29 -22.5t-49 -28.5t-69 -23t-88.5 -10.5z" />
    <glyph glyph-name="afii10054" unicode="&#x405;" horiz-adv-x="585" 
d="M290 745q41 0 78.5 -7.5t62 -18.5t43.5 -22.5t28 -18.5l8 -8l-50 -120q-7 7 -20.5 17t-54 26.5t-80.5 16.5q-44 0 -69.5 -19.5t-25.5 -50.5q0 -24 25 -45.5t62 -37.5t80.5 -39t80.5 -48t62 -66.5t25 -93.5q0 -102 -72 -163.5t-198 -61.5q-42 0 -81.5 9.5t-66 22.5
t-47.5 26t-30 23l-10 9l50 120q3 -3 8.5 -8t23 -18t37 -23t49.5 -18t60 -8q60 0 91 23t31 62q0 28 -25 51t-62 39t-80.5 39t-80.5 47.5t-62 67t-25 96.5q0 85 64.5 142.5t170.5 57.5z" />
    <glyph glyph-name="afii10055" unicode="&#x406;" horiz-adv-x="330" 
d="M240 730v-730h-150v730h150z" />
    <glyph glyph-name="afii10056" unicode="&#x407;" horiz-adv-x="340" 
d="M245 730v-730h-150v730h150zM-10 890q0 37 20 56t55 19t55 -19t20 -56q0 -36 -20.5 -55.5t-54.5 -19.5q-35 0 -55 19t-20 56zM205 890q0 37 20 56t55 19t55 -19t20 -56q0 -36 -20.5 -55.5t-54.5 -19.5q-35 0 -55 19t-20 56z" />
    <glyph glyph-name="afii10057" unicode="&#x408;" horiz-adv-x="345" 
d="M105 45v685h150v-685q0 -207 -225 -230l-20 135q50 4 72.5 25.5t22.5 69.5z" />
    <glyph glyph-name="afii10058" unicode="&#x409;" horiz-adv-x="1020" 
d="M305 595l-25 -290q-14 -159 -75.5 -234t-174.5 -91l-30 135q55 8 88 51t42 139l40 425h465v-220h55q136 0 213 -70t77 -185t-77 -185t-213 -70h-205v595h-180zM635 375v-240h55q64 0 99.5 32t35.5 88t-35.5 88t-99.5 32h-55z" />
    <glyph glyph-name="afii10059" unicode="&#x40a;" horiz-adv-x="1055" 
d="M670 730v-260h80q125 0 195 -64t70 -171t-70 -171t-195 -64h-230v335h-280v-335h-150v730h150v-260h280v260h150zM670 335v-200h80q53 0 81.5 25.5t28.5 74.5t-28.5 74.5t-81.5 25.5h-80z" />
    <glyph glyph-name="afii10060" unicode="&#x40b;" horiz-adv-x="835" 
d="M20 730h530v-135h-220v-170q8 5 22.5 12.5t63 20t99.5 12.5q121 0 188 -69t67 -196v-205h-150v205q0 61 -37 95.5t-106 34.5q-41 0 -77.5 -11.5t-53.5 -22.5l-16 -11v-290h-150v595h-160v135z" />
    <glyph glyph-name="afii10061" unicode="&#x40c;" horiz-adv-x="720" 
d="M240 730v-335l295 335h170l-305 -350l330 -380h-185l-305 355v-355h-150v730h150zM325 790l65 190h155l-130 -190h-90z" />
    <glyph glyph-name="afii10062" unicode="&#x40e;" horiz-adv-x="685" 
d="M360 790q-49 0 -90 12.5t-58 25.5l-17 12v110q2 -2 7 -6.5t21 -14.5t33.5 -18t46 -14.5t57.5 -6.5q47 0 88 15t59 30l18 15v-110q-6 -6 -18.5 -14t-55 -22t-91.5 -14zM270 175l15 30l-275 525h160l188 -370h4l173 370h160l-270 -555q-53 -108 -98 -149t-122 -41
q-14 0 -29 2.5t-23 4.5l-8 3l-20 140q25 -15 60 -15q58 0 85 55z" />
    <glyph glyph-name="afii10145" unicode="&#x40f;" horiz-adv-x="800" 
d="M325 0h-235v730h150v-595h320v595h150v-730h-235v-155h-150v155z" />
    <glyph glyph-name="afii10017" unicode="&#x410;" horiz-adv-x="785" 
d="M500 290l-105 235h-5l-105 -235h215zM560 155h-335l-70 -155h-160l335 730h125l335 -730h-160z" />
    <glyph glyph-name="afii10018" unicode="&#x411;" horiz-adv-x="665" 
d="M240 340v-210h100q56 0 88 28t32 77t-32 77t-88 28h-100zM240 595v-125h100q128 0 201.5 -65.5t73.5 -169.5t-73.5 -169.5t-201.5 -65.5h-250v730h470v-135h-320z" />
    <glyph glyph-name="afii10019" unicode="&#x412;" horiz-adv-x="665" 
d="M90 730h235q127 0 191 -52.5t64 -142.5q0 -35 -11 -63.5t-26 -44t-30.5 -25.5t-26.5 -14l-11 -3v-5q6 -1 15.5 -3.5t33.5 -15t42.5 -30t33.5 -51t15 -75.5q0 -94 -67 -149.5t-198 -55.5h-260v730zM240 310v-180h110q110 0 110 90t-110 90h-110zM325 600h-85v-160h85
q48 0 74 21t26 59t-26 59t-74 21z" />
    <glyph glyph-name="afii10020" unicode="&#x413;" horiz-adv-x="550" 
d="M90 730h435v-135h-285v-595h-150v730z" />
    <glyph glyph-name="afii10021" unicode="&#x414;" horiz-adv-x="775" 
d="M5 -155v290h60q6 6 15 18.5t25 65t20 121.5l20 390h515v-595h90v-290h-150v155h-445v-155h-150zM285 595l-10 -255q-3 -69 -18 -120t-29 -68l-13 -17h295v460h-225z" />
    <glyph glyph-name="afii10022" unicode="&#x415;" horiz-adv-x="640" 
d="M90 0v730h485v-135h-335v-160h260v-135h-260v-165h335v-135h-485z" />
    <glyph glyph-name="afii10024" unicode="&#x416;" horiz-adv-x="1050" 
d="M450 404v326h150v-326l265 326h170l-285 -350l310 -380h-185l-275 345v-345h-150v345l-275 -345h-185l310 380l-285 350h170z" />
    <glyph glyph-name="afii10025" unicode="&#x417;" horiz-adv-x="605" 
d="M185 310v130h90q100 0 100 85t-100 85q-49 0 -95 -20t-68 -40l-22 -20h-15v140q3 3 9.5 8t28 18t44.5 23t59.5 18t73.5 8q109 0 174.5 -57.5t65.5 -142.5q0 -35 -12 -64t-28.5 -45t-33.5 -27t-29 -15l-12 -4v-5q6 -1 15.5 -4t33.5 -16.5t42.5 -32t33.5 -54t15 -78.5
q0 -91 -75 -153t-205 -62q-64 0 -123 21.5t-86 42.5l-26 21l50 120q3 -3 8 -7.5t22.5 -16.5t37.5 -21.5t51.5 -17t65.5 -7.5q59 0 92 26.5t33 68.5t-33 68.5t-92 26.5h-90z" />
    <glyph glyph-name="afii10026" unicode="&#x418;" horiz-adv-x="815" 
d="M725 730v-730h-150v495l-340 -495h-145v730h150v-495l343 495h142z" />
    <glyph glyph-name="afii10027" unicode="&#x419;" horiz-adv-x="815" 
d="M725 730v-730h-150v495l-340 -495h-145v730h150v-495l343 495h142zM405 790q-49 0 -90 12.5t-58 25.5l-17 12v110q2 -2 7 -6.5t21 -14.5t33.5 -18t46 -14.5t57.5 -6.5q47 0 88 15t59 30l18 15v-110q-6 -6 -18.5 -14t-55 -22t-91.5 -14z" />
    <glyph glyph-name="afii10028" unicode="&#x41a;" horiz-adv-x="720" 
d="M240 730v-335l295 335h170l-305 -350l330 -380h-185l-305 355v-355h-150v730h150z" />
    <glyph glyph-name="afii10029" unicode="&#x41b;" horiz-adv-x="760" 
d="M305 595l-25 -290q-14 -159 -75.5 -234t-174.5 -91l-30 135q55 8 88 51t42 139l40 425h495v-730h-150v595h-210z" />
    <glyph glyph-name="afii10030" unicode="&#x41c;" horiz-adv-x="975" 
d="M490 210l180 520h150l105 -730h-160l-59 435h-5l-151 -435h-125l-151 435h-5l-59 -435h-160l105 730h149l181 -520h5z" />
    <glyph glyph-name="afii10031" unicode="&#x41d;" horiz-adv-x="795" 
d="M705 730v-730h-150v300h-315v-300h-150v730h150v-295h315v295h150z" />
    <glyph glyph-name="afii10032" unicode="&#x41e;" horiz-adv-x="880" 
d="M205 365q0 -108 66.5 -176.5t168.5 -68.5t168.5 68.5t66.5 176.5t-66.5 176.5t-168.5 68.5t-168.5 -68.5t-66.5 -176.5zM830 365q0 -162 -111 -271t-279 -109t-279 109t-111 271t111 271t279 109t279 -109t111 -271z" />
    <glyph glyph-name="afii10033" unicode="&#x41f;" horiz-adv-x="795" 
d="M705 730v-730h-150v595h-315v-595h-150v730h615z" />
    <glyph glyph-name="afii10034" unicode="&#x420;" horiz-adv-x="660" 
d="M240 220v-220h-150v730h230q136 0 213 -70t77 -185t-77 -185t-213 -70h-80zM240 595v-240h80q64 0 99.5 32t35.5 88t-35.5 88t-99.5 32h-80z" />
    <glyph glyph-name="afii10035" unicode="&#x421;" horiz-adv-x="740" 
d="M205 365q0 -109 68 -177t177 -68q39 0 75 11t59.5 26t41.5 30.5t26 26.5l8 11h15v-145q-3 -4 -9.5 -10.5t-29 -22.5t-49 -28.5t-69 -23t-88.5 -10.5q-161 0 -270.5 109.5t-109.5 270.5t109.5 270.5t270.5 109.5q50 0 96 -10.5t75.5 -25t51.5 -29t32 -24.5l10 -11
l-55 -115q-2 3 -6 8.5t-20.5 19.5t-36 24.5t-54 19t-73.5 8.5q-109 0 -177 -68t-68 -177z" />
    <glyph glyph-name="afii10036" unicode="&#x422;" horiz-adv-x="650" 
d="M35 730h580v-135h-215v-595h-150v595h-215v135z" />
    <glyph glyph-name="afii10037" unicode="&#x423;" horiz-adv-x="685" 
d="M270 175l15 30l-275 525h160l188 -370h4l173 370h160l-270 -555q-53 -108 -98 -149t-122 -41q-14 0 -29 2.5t-23 4.5l-8 3l-20 140q25 -15 60 -15q58 0 85 55z" />
    <glyph glyph-name="afii10038" unicode="&#x424;" horiz-adv-x="970" 
d="M200 380q0 -81 53.5 -128.5t156.5 -51.5v360q-103 -4 -156.5 -51.5t-53.5 -128.5zM560 65v-75h-150v75q-172 7 -268.5 93.5t-96.5 221.5t96.5 221.5t268.5 93.5v75h150v-75q172 -7 268.5 -93.5t96.5 -221.5t-96.5 -221.5t-268.5 -93.5zM770 380q0 81 -53.5 128.5
t-156.5 51.5v-360q103 4 156.5 51.5t53.5 128.5z" />
    <glyph glyph-name="afii10039" unicode="&#x425;" horiz-adv-x="740" 
d="M370 270l-175 -270h-175l250 375l-235 355h175l160 -250l160 250h175l-235 -355l250 -375h-175z" />
    <glyph glyph-name="afii10040" unicode="&#x426;" horiz-adv-x="800" 
d="M90 0v730h150v-595h295v595h150v-595h90v-290h-150v155h-535z" />
    <glyph glyph-name="afii10041" unicode="&#x427;" horiz-adv-x="765" 
d="M520 0v265q-8 -5 -22.5 -12.5t-63 -20t-99.5 -12.5q-121 0 -188 69t-67 196v245h150v-245q0 -61 37.5 -95.5t107.5 -34.5q40 0 76.5 11.5t52.5 22.5l16 11v330h150v-730h-150z" />
    <glyph glyph-name="afii10042" unicode="&#x428;" horiz-adv-x="1140" 
d="M90 0v730h150v-595h255v595h150v-595h255v595h150v-730h-960z" />
    <glyph glyph-name="afii10043" unicode="&#x429;" horiz-adv-x="1165" 
d="M90 0v730h150v-595h255v595h150v-595h255v595h150v-595h90v-290h-150v155h-900z" />
    <glyph glyph-name="afii10044" unicode="&#x42a;" horiz-adv-x="725" 
d="M325 730v-220h70q136 0 213 -70t77 -185t-77 -185t-213 -70h-220v595h-140v135h290zM325 375v-240h70q64 0 99.5 32t35.5 88t-35.5 88t-99.5 32h-70z" />
    <glyph glyph-name="afii10045" unicode="&#x42b;" horiz-adv-x="935" 
d="M845 730v-730h-150v730h150zM240 730v-220h70q136 0 213 -70t77 -185t-77 -185t-213 -70h-220v730h150zM240 375v-240h70q64 0 99.5 32t35.5 88t-35.5 88t-99.5 32h-70z" />
    <glyph glyph-name="afii10046" unicode="&#x42c;" horiz-adv-x="650" 
d="M240 730v-220h80q136 0 213 -70t77 -185t-77 -185t-213 -70h-230v730h150zM240 375v-240h80q64 0 99.5 32t35.5 88t-35.5 88t-99.5 32h-80z" />
    <glyph glyph-name="afii10047" unicode="&#x42d;" horiz-adv-x="750" 
d="M310 -15q-50 0 -96.5 10.5t-76.5 25t-53 29t-34 24.5l-10 11l50 120l9 -9t26 -20.5t42.5 -26t58.5 -20.5t74 -9q99 0 163 55t72 125h-300v130h300q-8 70 -72 125t-163 55q-39 0 -75 -11t-59.5 -26t-41.5 -30.5t-26 -26.5l-8 -11h-15v145q3 4 9.5 10.5t29 22.5t49 28.5
t69 23t88.5 10.5q161 0 270.5 -109.5t109.5 -270.5q0 -162 -111 -271t-279 -109z" />
    <glyph glyph-name="afii10048" unicode="&#x42e;" horiz-adv-x="1120" 
d="M1070 365q0 -164 -106 -272t-264 -108q-143 0 -242.5 88.5t-122.5 226.5h-95v-300h-150v730h150v-295h95q23 135 122.5 222.5t242.5 87.5q158 0 264 -108t106 -272zM700 120q92 0 153.5 67.5t61.5 177.5t-61.5 177.5t-153.5 67.5t-153.5 -67.5t-61.5 -177.5t61.5 -177.5
t153.5 -67.5z" />
    <glyph glyph-name="afii10049" unicode="&#x42f;" horiz-adv-x="675" 
d="M435 365v230h-80q-130 0 -130 -115t130 -115h80zM20 0l180 265v5q-5 2 -14 7t-31.5 22.5t-39.5 39.5t-31 60t-14 81q0 111 76.5 180.5t208.5 69.5h230v-730h-150v230h-95l-155 -230h-165z" />
    <glyph glyph-name="afii10065" unicode="&#x430;" horiz-adv-x="605" 
d="M275 100q44 0 74 25t38 50l8 25q-40 30 -105 30q-41 0 -63 -17.5t-22 -47.5q0 -29 19.5 -47t50.5 -18zM300 545q118 0 179 -55.5t61 -154.5v-335h-140l-5 75h-5q-1 -4 -4.5 -10t-16 -21.5t-29 -27.5t-46 -21.5t-64.5 -9.5q-78 0 -126.5 45.5t-48.5 114.5q0 74 53.5 119.5
t151.5 45.5q40 0 74 -7.5t48 -14.5l13 -8v40q0 100 -115 100q-53 0 -100.5 -17.5t-68.5 -34.5l-21 -18h-15v125q10 8 28 19.5t76.5 31t120.5 19.5z" />
    <glyph glyph-name="afii10066" unicode="&#x431;" horiz-adv-x="675" 
d="M340 115q58 0 96.5 38.5t38.5 101.5t-38.5 101.5t-96.5 38.5t-99 -39t-41 -101t41 -101t99 -39zM370 525q110 0 182.5 -75.5t72.5 -194.5q0 -117 -79.5 -193.5t-207.5 -76.5q-129 0 -208.5 88t-79.5 242q0 232 88.5 338.5t256.5 106.5q47 0 92 8.5t67 17.5l21 9v-140
q-6 -4 -19 -11t-62 -18t-109 -11q-89 0 -141.5 -49t-63.5 -141h10q2 4 6 11t20 24t34.5 30t51 24t68.5 11z" />
    <glyph glyph-name="afii10067" unicode="&#x432;" horiz-adv-x="595" 
d="M70 0v530h255q101 0 150.5 -39t49.5 -106q0 -25 -7.5 -45t-19 -31t-22.5 -18t-18 -9l-8 -2v-5q4 -1 11 -2.5t25.5 -10t32 -21t25 -36.5t11.5 -55q0 -70 -49.5 -110t-150.5 -40h-285zM410 165q0 55 -75 55h-120v-110h120q75 0 75 55zM305 420h-90v-100h90q37 0 53.5 12
t16.5 38t-16.5 38t-53.5 12z" />
    <glyph glyph-name="afii10068" unicode="&#x433;" horiz-adv-x="480" 
d="M465 400h-250v-400h-145v530h395v-130z" />
    <glyph glyph-name="afii10069" unicode="&#x434;" horiz-adv-x="640" 
d="M0 -135v260h50q5 5 13.5 15.5t23.5 48t18 81.5l15 260h420v-405h80v-260h-145v135h-330v-135h-145zM255 405l-10 -135q-3 -44 -16 -80.5t-24 -50.5l-11 -14h201v280h-140z" />
    <glyph glyph-name="afii10070" unicode="&#x435;" horiz-adv-x="630" 
d="M325 545q121 0 190.5 -71.5t69.5 -198.5v-40h-405q8 -55 50 -87.5t115 -32.5q58 0 104 15t63 30l18 15h15v-130q-9 -7 -26 -17t-73 -26.5t-116 -16.5q-127 0 -206 78t-79 202q0 120 80 200t200 80zM335 420q-60 0 -99 -26.5t-51 -63.5h265q0 38 -32 64t-83 26z" />
    <glyph glyph-name="afii10072" unicode="&#x436;" horiz-adv-x="875" 
d="M710 0l-200 245v-245h-145v245l-200 -245h-175l230 270l-215 260h160l200 -245v245h145v-245l200 245h160l-215 -260l230 -270h-175z" />
    <glyph glyph-name="afii10073" unicode="&#x437;" horiz-adv-x="525" 
d="M245 215h-65v110h55q85 0 85 50t-85 50q-42 0 -82 -15t-59 -30l-19 -15h-15v125q8 6 23 15t64.5 24.5t102.5 15.5q104 0 159.5 -43t55.5 -107q0 -27 -9.5 -48.5t-22.5 -33.5t-26 -20t-23 -11l-9 -2v-5q4 -1 11 -2.5t25.5 -10t32 -21t25 -36.5t11.5 -55q0 -72 -60 -118.5
t-175 -46.5q-60 0 -112.5 16.5t-74.5 32.5l-23 16l35 110q7 -6 21 -15t59.5 -24.5t94.5 -15.5q90 0 90 55t-90 55z" />
    <glyph glyph-name="afii10074" unicode="&#x438;" horiz-adv-x="670" 
d="M455 330l-248 -330h-137v530h145v-330l248 330h137v-530h-145v330z" />
    <glyph glyph-name="afii10075" unicode="&#x439;" horiz-adv-x="670" 
d="M455 330l-248 -330h-137v530h145v-330l248 330h137v-530h-145v330zM335 605q-38 0 -73 10t-51 20l-16 10v110q7 -6 19 -15t48.5 -24.5t72.5 -15.5t71 14t52 28l17 13v-110q-55 -40 -140 -40z" />
    <glyph glyph-name="afii10076" unicode="&#x43a;" horiz-adv-x="595" 
d="M430 0l-215 250v-250h-145v530h145v-250l215 250h160l-225 -260l240 -270h-175z" />
    <glyph glyph-name="afii10077" unicode="&#x43b;" horiz-adv-x="625" 
d="M260 405l-15 -165q-12 -129 -62.5 -186.5t-157.5 -68.5l-25 130q90 8 100 125l25 290h430v-530h-145v405h-150z" />
    <glyph glyph-name="afii10078" unicode="&#x43c;" horiz-adv-x="795" 
d="M400 180l130 350h145l75 -530h-150l-40 300h-5l-110 -300h-95l-110 300h-5l-40 -300h-150l75 530h145l130 -350h5z" />
    <glyph glyph-name="afii10079" unicode="&#x43d;" horiz-adv-x="660" 
d="M445 205h-230v-205h-145v530h145v-195h230v195h145v-530h-145v205z" />
    <glyph glyph-name="afii10080" unicode="&#x43e;" horiz-adv-x="680" 
d="M195 265q0 -66 42 -108t103 -42t103 42t42 108t-42 108t-103 42t-103 -42t-42 -108zM635 265q0 -122 -81 -201t-214 -79t-214 79t-81 201t81 201t214 79t214 -79t81 -201z" />
    <glyph glyph-name="afii10081" unicode="&#x43f;" horiz-adv-x="660" 
d="M445 400h-230v-400h-145v530h520v-530h-145v400z" />
    <glyph glyph-name="afii10082" unicode="&#x440;" horiz-adv-x="700" 
d="M220 265q0 -66 41 -108t99 -42q61 0 103 42t42 108t-42 108t-103 42q-58 0 -99 -42t-41 -108zM220 75v-295h-145v750h140l5 -75h5q2 4 6 10t19.5 21.5t34 27.5t49.5 21.5t66 9.5q107 0 181 -79t74 -201t-74 -201t-181 -79q-35 0 -66 9.5t-50 22.5t-33 26t-20 23l-6 9h-5z
" />
    <glyph glyph-name="afii10083" unicode="&#x441;" horiz-adv-x="570" 
d="M195 265q0 -71 41.5 -110.5t113.5 -39.5q40 0 76 13.5t52 27.5l17 14h15v-125q-7 -7 -20.5 -17t-61 -26.5t-103.5 -16.5q-120 0 -200 80t-80 200t80 200t200 80q39 0 74.5 -7t58.5 -17.5t40 -21t24 -17.5l8 -7l-55 -105q-5 5 -14.5 12.5t-42 20t-68.5 12.5
q-72 0 -113.5 -39.5t-41.5 -110.5z" />
    <glyph glyph-name="afii10084" unicode="&#x442;" horiz-adv-x="535" 
d="M195 400h-175v130h495v-130h-175v-400h-145v400z" />
    <glyph glyph-name="afii10085" unicode="&#x443;" horiz-adv-x="610" 
d="M600 530l-300 -750h-150l90 225l-230 525h155l145 -340h5l130 340h155z" />
    <glyph glyph-name="afii10086" unicode="&#x444;" horiz-adv-x="825" 
d="M340 110v310q-64 -4 -104.5 -46t-40.5 -109t40.5 -109t104.5 -46zM485 -15v-205h-145v205q-134 7 -214.5 85t-80.5 195t80.5 195t214.5 85v215h145v-215q134 -7 214.5 -85t80.5 -195t-80.5 -195t-214.5 -85zM485 420v-310q64 4 104.5 46t40.5 109t-40.5 109t-104.5 46z
" />
    <glyph glyph-name="afii10087" unicode="&#x445;" horiz-adv-x="600" 
d="M435 0l-135 180l-135 -180h-165l205 265l-200 265h165l130 -175l130 175h165l-200 -265l205 -265h-165z" />
    <glyph glyph-name="afii10088" unicode="&#x446;" horiz-adv-x="675" 
d="M510 0h-440v530h145v-400h215v400h145v-400h80v-265h-145v135z" />
    <glyph glyph-name="afii10089" unicode="&#x447;" horiz-adv-x="630" 
d="M60 530h145v-165q0 -48 27 -74t73 -26q31 0 58.5 10t39.5 20l12 10v225h145v-530h-145v180q-6 -4 -17 -11t-50 -18t-83 -11q-94 0 -149.5 56.5t-55.5 153.5v180z" />
    <glyph glyph-name="afii10090" unicode="&#x448;" horiz-adv-x="925" 
d="M215 130h175v400h145v-400h175v400h145v-530h-785v530h145v-400z" />
    <glyph glyph-name="afii10091" unicode="&#x449;" horiz-adv-x="955" 
d="M215 130h175v400h145v-400h175v400h145v-400h80v-265h-145v135h-720v530h145v-400z" />
    <glyph glyph-name="afii10092" unicode="&#x44a;" horiz-adv-x="620" 
d="M140 0v395h-120v135h265v-160h90q103 0 159 -50.5t56 -134.5t-56 -134.5t-159 -50.5h-235zM285 120h80q37 0 58.5 17.5t21.5 47.5t-21.5 47.5t-58.5 17.5h-80v-130z" />
    <glyph glyph-name="afii10093" unicode="&#x44b;" horiz-adv-x="810" 
d="M595 0v530h145v-530h-145zM215 120h80q37 0 58.5 17.5t21.5 47.5t-21.5 47.5t-58.5 17.5h-80v-130zM70 0v530h145v-160h90q103 0 159 -50.5t56 -134.5t-56 -134.5t-159 -50.5h-235z" />
    <glyph glyph-name="afii10094" unicode="&#x44c;" horiz-adv-x="560" 
d="M215 120h90q37 0 58.5 17.5t21.5 47.5t-21.5 47.5t-58.5 17.5h-90v-130zM70 0v530h145v-160h100q103 0 159 -50.5t56 -134.5t-56 -134.5t-159 -50.5h-245z" />
    <glyph glyph-name="afii10095" unicode="&#x44d;" horiz-adv-x="575" 
d="M175 205v120h195q-13 38 -49.5 64t-95.5 26q-40 0 -77.5 -13.5t-55.5 -27.5l-17 -14h-15v125q3 2 8 6.5t23 14.5t38 18t53 14.5t68 6.5q120 0 200 -80t80 -200q0 -121 -81.5 -200.5t-208.5 -79.5q-58 0 -109 16.5t-73 32.5l-23 16l40 115q6 -6 18 -14t51 -22t81 -14
q59 0 95.5 26t49.5 64h-195z" />
    <glyph glyph-name="afii10096" unicode="&#x44e;" horiz-adv-x="895" 
d="M565 545q123 0 204 -80t81 -200t-81 -200t-204 -80q-112 0 -188 65.5t-92 159.5h-70v-210h-145v530h145v-200h70q20 91 96 153t184 62zM565 115q57 0 96 42t39 108t-39 108t-96 42t-96 -42t-39 -108t39 -108t96 -42z" />
    <glyph glyph-name="afii10097" unicode="&#x44f;" horiz-adv-x="605" 
d="M175 190q-4 1 -11.5 4.5t-26.5 16t-33.5 29t-26.5 46t-12 64.5q0 80 54.5 130t150.5 50h265v-530h-145v170h-66l-141 -170h-173l165 185v5zM390 415h-95q-37 0 -58.5 -17.5t-21.5 -47.5t21.5 -47.5t58.5 -17.5h95v130z" />
    <glyph glyph-name="afii10071" unicode="&#x451;" horiz-adv-x="630" 
d="M325 545q121 0 190.5 -71.5t69.5 -198.5v-40h-405q8 -55 50 -87.5t115 -32.5q58 0 104 15t63 30l18 15h15v-130q-9 -7 -26 -17t-73 -26.5t-116 -16.5q-127 0 -206 78t-79 202q0 120 80 200t200 80zM335 420q-60 0 -99 -26.5t-51 -63.5h265q0 38 -32 64t-83 26zM142 690
q0 37 20 56t55 19t55 -19t20 -56q0 -36 -20.5 -55.5t-54.5 -19.5q-35 0 -55 19t-20 56zM357 690q0 37 20 56t55 19t55 -19t20 -56q0 -36 -20.5 -55.5t-54.5 -19.5q-35 0 -55 19t-20 56z" />
    <glyph glyph-name="afii10099" unicode="&#x452;" horiz-adv-x="685" 
d="M620 -4q0 -101 -57.5 -161.5t-152.5 -64.5l-30 130q45 4 70 29t25 67v279q0 48 -27 74t-73 26q-57 0 -93.5 -35.5t-36.5 -94.5v-245h-145v570h-85v125h85v65h145v-65h155v-125h-155v-155h5q2 4 5.5 10t18 21.5t31.5 27.5t46.5 21.5t63.5 9.5q94 0 149.5 -57t55.5 -158
v-294z" />
    <glyph glyph-name="afii10100" unicode="&#x453;" horiz-adv-x="485" 
d="M220 590l65 190h155l-130 -190h-90zM470 400h-250v-400h-145v530h395v-130z" />
    <glyph glyph-name="afii10101" unicode="&#x454;" horiz-adv-x="570" 
d="M400 325v-120h-195q13 -38 49.5 -64t95.5 -26q42 0 79.5 13.5t54.5 27.5l16 14h15v-125q-3 -2 -8 -6.5t-23 -14.5t-38 -18t-53 -14.5t-68 -6.5q-120 0 -200 80t-80 200t80 200t200 80q39 0 74.5 -7t58.5 -17.5t40 -21t24 -17.5l8 -7l-55 -105q-5 5 -14.5 12.5t-42 20
t-68.5 12.5q-59 0 -95.5 -26t-49.5 -64h195z" />
    <glyph glyph-name="afii10102" unicode="&#x455;" horiz-adv-x="505" 
d="M470 150q0 -75 -57.5 -120t-172.5 -45q-58 0 -109 16.5t-73 32.5l-23 16l30 115q7 -6 20 -15t57 -24.5t93 -15.5q85 0 85 45q0 18 -20.5 31t-52 19.5t-67.5 19.5t-67.5 29t-52 50t-20.5 81q0 67 55.5 113.5t149.5 46.5q38 0 73.5 -7.5t59 -19t42 -22.5t26.5 -18l9 -8
l-55 -100q-5 6 -15 14t-45 22t-75 14q-36 0 -55.5 -12.5t-19.5 -32.5q0 -19 29 -30t70 -21t82 -26t70 -53.5t29 -94.5z" />
    <glyph glyph-name="afii10103" unicode="&#x456;" horiz-adv-x="285" 
d="M215 535v-535h-145v535q30 -10 72 -10q19 0 37.5 2.5t26.5 4.5zM60 690q0 37 23 58.5t59 21.5q37 0 60 -21.5t23 -58.5t-23 -58.5t-60 -21.5q-36 0 -59 21.5t-23 58.5z" />
    <glyph glyph-name="afii10104" unicode="&#x457;" horiz-adv-x="285" 
d="M-35 690q0 37 20 56t55 19t55 -19t20 -56q0 -36 -20.5 -55.5t-54.5 -19.5q-35 0 -55 19t-20 56zM180 690q0 37 20 56t55 19t55 -19t20 -56q0 -36 -20.5 -55.5t-54.5 -19.5q-35 0 -55 19t-20 56zM215 530v-530h-145v530h145z" />
    <glyph glyph-name="afii10105" unicode="&#x458;" horiz-adv-x="295" 
d="M215 535v-539q0 -105 -55.5 -163.5t-154.5 -62.5l-30 130q95 8 95 96v539q30 -10 72 -10q19 0 37.5 2.5t26.5 4.5zM60 690q0 37 23 58.5t59 21.5q37 0 60 -21.5t23 -58.5t-23 -58.5t-60 -21.5q-36 0 -59 21.5t-23 58.5z" />
    <glyph glyph-name="afii10106" unicode="&#x459;" horiz-adv-x="870" 
d="M395 0v405h-135l-15 -165q-12 -129 -62.5 -186.5t-157.5 -68.5l-25 130q90 8 100 125l25 290h415v-160h85q103 0 159 -50.5t56 -134.5t-56 -134.5t-159 -50.5h-230zM540 120h75q37 0 58.5 17.5t21.5 47.5t-21.5 47.5t-58.5 17.5h-75v-130z" />
    <glyph glyph-name="afii10107" unicode="&#x45a;" horiz-adv-x="895" 
d="M420 0v230h-205v-230h-145v530h145v-170h205v170h145v-170h85q102 0 158.5 -49.5t56.5 -130.5t-56.5 -130.5t-158.5 -49.5h-230zM565 120h75q37 0 58.5 16.5t21.5 43.5t-21.5 43.5t-58.5 16.5h-75v-120z" />
    <glyph glyph-name="afii10108" unicode="&#x45b;" horiz-adv-x="685" 
d="M620 0h-145v275q0 48 -27 74t-73 26q-57 0 -93.5 -35.5t-36.5 -94.5v-245h-145v570h-85v125h85v65h145v-65h155v-125h-155v-155h5q2 4 5.5 10t18 21.5t31.5 27.5t46.5 21.5t63.5 9.5q94 0 149.5 -57t55.5 -158v-290z" />
    <glyph glyph-name="afii10109" unicode="&#x45c;" horiz-adv-x="595" 
d="M255 590l65 190h155l-130 -190h-90zM430 0l-215 250v-250h-145v530h145v-250l215 250h160l-225 -260l240 -270h-175z" />
    <glyph glyph-name="afii10110" unicode="&#x45e;" horiz-adv-x="610" 
d="M600 530l-300 -750h-150l90 225l-230 525h155l145 -340h5l130 340h155zM305 605q-38 0 -73 10t-51 20l-16 10v110q7 -6 19 -15t48.5 -24.5t72.5 -15.5t71 14t52 28l17 13v-110q-55 -40 -140 -40z" />
    <glyph glyph-name="afii10193" unicode="&#x45f;" horiz-adv-x="650" 
d="M255 -135v135h-185v530h145v-400h220v400h145v-530h-185v-135h-140z" />
    <glyph glyph-name="afii10050" unicode="&#x490;" horiz-adv-x="550" 
d="M240 595v-595h-150v730h285v150h150v-285h-285z" />
    <glyph glyph-name="afii10098" unicode="&#x491;" horiz-adv-x="485" 
d="M220 400v-400h-145v530h250v130h145v-260h-250z" />
    <glyph glyph-name="uni1E9E" unicode="&#x1e9e;" horiz-adv-x="745" 
d="M380 430l100 140q-3 4 -10 11t-33 18t-57 11q-72 0 -111 -41.5t-39 -121.5v-447h-150v447q0 134 82.5 216t217.5 82q59 0 108.5 -16t78 -38.5t48.5 -45.5t27 -39l8 -16l-120 -170q7 -2 19.5 -7t43.5 -23t54.5 -40t43 -61t19.5 -84q0 -97 -70.5 -158.5t-194.5 -61.5
q-38 0 -73 7.5t-51 15.5l-16 7l25 130q35 -25 110 -25q58 0 86.5 23t28.5 62q0 27 -18 50.5t-43.5 38.5t-51.5 26t-44 16l-18 4v90z" />
    <glyph glyph-name="endash" unicode="&#x2013;" horiz-adv-x="570" 
d="M40 260v125h490v-125h-490z" />
    <glyph glyph-name="emdash" unicode="&#x2014;" horiz-adv-x="930" 
d="M40 260v125h850v-125h-850z" />
    <glyph glyph-name="quoteleft" unicode="&#x2018;" horiz-adv-x="230" 
d="M195 595q0 -37 -22.5 -58.5t-57.5 -21.5t-57.5 23.5t-22.5 66.5q0 34 10 65.5t23.5 53.5t27.5 38.5t24 24.5l10 8h55q-7 -8 -17 -21t-26.5 -46.5t-16.5 -57.5q70 -8 70 -75z" />
    <glyph glyph-name="quoteright" unicode="&#x2019;" horiz-adv-x="230" 
d="M35 715q0 37 22.5 58.5t57.5 21.5t57.5 -23.5t22.5 -66.5q0 -34 -10 -65.5t-23.5 -53.5t-27.5 -38.5t-24 -24.5l-10 -8h-55q7 8 17 21t26.5 46.5t16.5 57.5q-70 8 -70 75z" />
    <glyph glyph-name="quotesinglbase" unicode="&#x201a;" horiz-adv-x="230" 
d="M35 70q0 37 22.5 58.5t57.5 21.5t57.5 -23.5t22.5 -66.5q0 -34 -10 -65.5t-23.5 -53.5t-27.5 -38.5t-24 -24.5l-10 -8h-55q7 8 17 21t26.5 46.5t16.5 57.5q-70 8 -70 75z" />
    <glyph glyph-name="quotedblleft" unicode="&#x201c;" horiz-adv-x="445" 
d="M195 595q0 -37 -22.5 -58.5t-57.5 -21.5t-57.5 23.5t-22.5 66.5q0 34 10 65.5t23.5 53.5t27.5 38.5t24 24.5l10 8h55q-7 -8 -17 -21t-26.5 -46.5t-16.5 -57.5q70 -8 70 -75zM410 595q0 -37 -22.5 -58.5t-57.5 -21.5t-57.5 23.5t-22.5 66.5q0 53 24 100.5t48 68.5l23 21
h55q-7 -8 -17 -21t-26.5 -46.5t-16.5 -57.5q70 -8 70 -75z" />
    <glyph glyph-name="quotedblright" unicode="&#x201d;" horiz-adv-x="445" 
d="M250 715q0 37 22.5 58.5t57.5 21.5t57.5 -23.5t22.5 -66.5q0 -53 -24 -100.5t-48 -68.5l-23 -21h-55q7 8 17 21t26.5 46.5t16.5 57.5q-70 8 -70 75zM35 715q0 37 22.5 58.5t57.5 21.5t57.5 -23.5t22.5 -66.5q0 -34 -10 -65.5t-23.5 -53.5t-27.5 -38.5t-24 -24.5l-10 -8
h-55q7 8 17 21t26.5 46.5t16.5 57.5q-70 8 -70 75z" />
    <glyph glyph-name="quotedblbase" unicode="&#x201e;" horiz-adv-x="445" 
d="M35 70q0 37 22.5 58.5t57.5 21.5t57.5 -23.5t22.5 -66.5q0 -34 -10 -65.5t-23.5 -53.5t-27.5 -38.5t-24 -24.5l-10 -8h-55q7 8 17 21t26.5 46.5t16.5 57.5q-70 8 -70 75zM250 70q0 37 22.5 58.5t57.5 21.5t57.5 -23.5t22.5 -66.5q0 -53 -24 -100.5t-48 -68.5l-23 -21h-55
q7 8 17 21t26.5 46.5t16.5 57.5q-70 8 -70 75z" />
    <glyph glyph-name="dagger" unicode="&#x2020;" horiz-adv-x="485" 
d="M265 335l30 -120v-415h-105v415l30 120l-10 10l-120 -30h-30v105h30l120 -30l10 10l-30 120v120h105v-120l-30 -120l10 -10l120 30h30v-105h-30l-120 30z" />
    <glyph glyph-name="daggerdbl" unicode="&#x2021;" horiz-adv-x="485" 
d="M265 385l30 -120v-90l-30 -120l10 -10l120 30h30v-105h-30l-120 30l-10 -10l30 -120v-70h-105v70l30 120l-10 10l-120 -30h-30v105h30l120 -30l10 10l-30 120v90l30 120l-10 10l-120 -30h-30v105h30l120 -30l10 10l-30 120v70h105v-70l-30 -120l10 -10l120 30h30v-105
h-30l-120 30z" />
    <glyph glyph-name="bullet" unicode="&#x2022;" horiz-adv-x="480" 
d="M360 350q0 -52 -35 -86t-85 -34q-49 0 -84.5 34.5t-35.5 85.5q0 52 35 86t85 34t85 -34t35 -86z" />
    <glyph glyph-name="ellipsis" unicode="&#x2026;" horiz-adv-x="750" 
d="M195 70q0 -37 -22.5 -58.5t-57.5 -21.5t-57.5 21.5t-22.5 58.5t22.5 58.5t57.5 21.5t57.5 -21.5t22.5 -58.5zM455 70q0 -37 -22.5 -58.5t-57.5 -21.5t-57.5 21.5t-22.5 58.5t22.5 58.5t57.5 21.5t57.5 -21.5t22.5 -58.5zM715 70q0 -37 -22.5 -58.5t-57.5 -21.5
t-57.5 21.5t-22.5 58.5t22.5 58.5t57.5 21.5t57.5 -21.5t22.5 -58.5z" />
    <glyph glyph-name="perthousand" unicode="&#x2030;" horiz-adv-x="1320" 
d="M145 570q0 -33 19.5 -51.5t50.5 -18.5t50.5 18.5t19.5 51.5t-19.5 51.5t-50.5 18.5t-50.5 -18.5t-19.5 -51.5zM295 0h-135l475 730h135zM395 570q0 -75 -51 -125t-129 -50t-129 50t-51 125t51 125t129 50t129 -50t51 -125zM785 160q0 33 -19.5 51.5t-50.5 18.5
t-50.5 -18.5t-19.5 -51.5t19.5 -51.5t50.5 -18.5t50.5 18.5t19.5 51.5zM535 160q0 75 51 125t129 50t129 -50t51 -125t-51 -125t-129 -50t-129 50t-51 125zM1175 160q0 33 -19.5 51.5t-50.5 18.5t-50.5 -18.5t-19.5 -51.5t19.5 -51.5t50.5 -18.5t50.5 18.5t19.5 51.5z
M925 160q0 75 51 125t129 50t129 -50t51 -125t-51 -125t-129 -50t-129 50t-51 125z" />
    <glyph glyph-name="guilsinglleft" unicode="&#x2039;" horiz-adv-x="395" 
d="M170 270l190 -220h-140l-185 215v20l185 215h140l-190 -220v-10z" />
    <glyph glyph-name="guilsinglright" unicode="&#x203a;" horiz-adv-x="395" 
d="M35 50l190 220v10l-190 220h140l185 -215v-20l-185 -215h-140z" />
    <glyph glyph-name="fraction" unicode="&#x2044;" horiz-adv-x="175" 
d="M-205 0l475 730h110l-475 -730h-110z" />
    <glyph glyph-name="zerosuperior" unicode="&#x2070;" horiz-adv-x="370" 
d="M130 650q0 -100 55 -100t55 100t-55 100t-55 -100zM340 650q0 -90 -44 -140t-111 -50t-111 50t-44 140t44 140t111 50t111 -50t44 -140z" />
    <glyph glyph-name="foursuperior" unicode="&#x2074;" horiz-adv-x="335" 
d="M246 830l-111 -200h40l25 60h60v-60h50v-90h-50v-70h-100v70h-175v15l155 275h106z" />
    <glyph glyph-name="fivesuperior" unicode="&#x2075;" horiz-adv-x="335" 
d="M205 590q0 19 -15 32t-40 13q-13 0 -27 -5t-21 -10l-7 -5l-60 30l33 185h217v-90h-145l-5 -35q15 5 35 5q58 0 96.5 -32.5t38.5 -87.5q0 -61 -40.5 -95.5t-114.5 -34.5q-36 0 -68.5 10t-47.5 20l-14 10l25 75q40 -30 105 -30q25 0 40 13t15 32z" />
    <glyph glyph-name="sixsuperior" unicode="&#x2076;" horiz-adv-x="350" 
d="M160 830h110q-75 -55 -115 -120q15 5 40 5q57 0 93.5 -34.5t36.5 -90.5q0 -57 -41 -93.5t-106 -36.5q-66 0 -107 38.5t-41 101.5q0 38 13.5 75.5t32.5 64t38 48t32 32.5zM130 590q0 -18 13 -29t34 -11t34.5 11t13.5 29t-13.5 29t-34.5 11t-34 -11t-13 -29z" />
    <glyph glyph-name="sevensuperior" unicode="&#x2077;" horiz-adv-x="315" 
d="M180 470h-105l100 270h-145v90h275v-15z" />
    <glyph glyph-name="eightsuperior" unicode="&#x2078;" horiz-adv-x="350" 
d="M175 545q23 0 36.5 10.5t13.5 29.5t-13.5 29.5t-36.5 10.5t-36.5 -10.5t-13.5 -29.5t13.5 -29.5t36.5 -10.5zM175 700q35 0 35 30t-35 30t-35 -30t35 -30zM175 460q-69 0 -109.5 32.5t-40.5 82.5q0 29 15 50t30 28l15 7q-5 3 -12.5 8.5t-20 25t-12.5 41.5q0 46 36.5 75.5
t98.5 29.5t98.5 -29.5t36.5 -75.5q0 -22 -11 -41t-23 -26l-11 -8q2 -1 6.5 -2.5t14.5 -8.5t18 -16t14.5 -24.5t6.5 -33.5q0 -50 -40.5 -82.5t-109.5 -32.5z" />
    <glyph glyph-name="ninesuperior" unicode="&#x2079;" horiz-adv-x="350" 
d="M190 470h-110q75 55 115 120q-15 -5 -40 -5q-57 0 -93.5 34.5t-36.5 90.5q0 57 41 93.5t106 36.5q66 0 107 -38.5t41 -101.5q0 -38 -13.5 -75.5t-32.5 -64t-38 -48t-32 -32.5zM220 710q0 18 -13 29t-34 11t-34.5 -11t-13.5 -29t13.5 -29t34.5 -11t34 11t13 29z" />
    <glyph glyph-name="zeroinferior" unicode="&#x2080;" horiz-adv-x="370" 
d="M130 80q0 -100 55 -100t55 100t-55 100t-55 -100zM340 80q0 -90 -44 -140t-111 -50t-111 50t-44 140t44 140t111 50t111 -50t44 -140z" />
    <glyph glyph-name="oneinferior" unicode="&#x2081;" horiz-adv-x="245" 
d="M30 105v100l95 55h75v-360h-100v245z" />
    <glyph glyph-name="twoinferior" unicode="&#x2082;" horiz-adv-x="335" 
d="M25 -85l145 180q25 30 25 50q0 35 -45 35q-24 0 -50.5 -15t-40.5 -30l-14 -15h-10v90q6 7 18 17t48.5 26.5t73.5 16.5q56 0 88 -28t32 -77q0 -24 -8.5 -48t-17.5 -35l-9 -12l-65 -85h110v-85h-280v15z" />
    <glyph glyph-name="threeinferior" unicode="&#x2083;" horiz-adv-x="325" 
d="M145 65q-12 0 -25.5 -3.5t-21.5 -7.5l-8 -4l-35 40l70 80h-85v90h245v-15l-90 -110q4 -1 11 -2.5t25.5 -9.5t32 -20t25 -35.5t11.5 -52.5q0 -57 -40 -91t-110 -34q-36 0 -68.5 10t-47.5 20l-14 10l25 75q40 -30 100 -30q26 0 40.5 13t14.5 32q0 45 -55 45z" />
    <glyph glyph-name="fourinferior" unicode="&#x2084;" horiz-adv-x="335" 
d="M246 260l-111 -200h40l25 60h60v-60h50v-90h-50v-70h-100v70h-175v15l155 275h106z" />
    <glyph glyph-name="fiveinferior" unicode="&#x2085;" horiz-adv-x="335" 
d="M205 20q0 19 -15 32t-40 13q-13 0 -27 -5t-21 -10l-7 -5l-60 30l33 185h217v-90h-145l-5 -35q15 5 35 5q58 0 96.5 -32.5t38.5 -87.5q0 -61 -40.5 -95.5t-114.5 -34.5q-36 0 -68.5 10t-47.5 20l-14 10l25 75q40 -30 105 -30q25 0 40 13t15 32z" />
    <glyph glyph-name="sixinferior" unicode="&#x2086;" horiz-adv-x="350" 
d="M160 260h110q-75 -55 -115 -120q15 5 40 5q57 0 93.5 -34.5t36.5 -90.5q0 -57 -41 -93.5t-106 -36.5q-66 0 -107 38.5t-41 101.5q0 38 13.5 75.5t32.5 64t38 48t32 32.5zM130 20q0 -18 13 -29t34 -11t34.5 11t13.5 29t-13.5 29t-34.5 11t-34 -11t-13 -29z" />
    <glyph glyph-name="seveninferior" unicode="&#x2087;" horiz-adv-x="315" 
d="M180 -100h-105l100 270h-145v90h275v-15z" />
    <glyph glyph-name="eightinferior" unicode="&#x2088;" horiz-adv-x="350" 
d="M175 -25q23 0 36.5 10.5t13.5 29.5t-13.5 29.5t-36.5 10.5t-36.5 -10.5t-13.5 -29.5t13.5 -29.5t36.5 -10.5zM175 130q35 0 35 30t-35 30t-35 -30t35 -30zM175 -110q-69 0 -109.5 32.5t-40.5 82.5q0 29 15 50t30 28l15 7q-5 3 -12.5 8.5t-20 25t-12.5 41.5
q0 46 36.5 75.5t98.5 29.5t98.5 -29.5t36.5 -75.5q0 -22 -11 -41t-23 -26l-11 -8q2 -1 6.5 -2.5t14.5 -8.5t18 -16t14.5 -24.5t6.5 -33.5q0 -50 -40.5 -82.5t-109.5 -32.5z" />
    <glyph glyph-name="nineinferior" unicode="&#x2089;" horiz-adv-x="350" 
d="M190 -100h-110q75 55 115 120q-15 -5 -40 -5q-57 0 -93.5 34.5t-36.5 90.5q0 57 41 93.5t106 36.5q66 0 107 -38.5t41 -101.5q0 -38 -13.5 -75.5t-32.5 -64t-38 -48t-32 -32.5zM220 140q0 18 -13 29t-34 11t-34.5 -11t-13.5 -29t13.5 -29t34.5 -11t34 11t13 29z" />
    <glyph glyph-name="Euro" unicode="&#x20ac;" horiz-adv-x="775" 
d="M35 340h50v50h-50v80h65q1 6 4 16t16 38.5t29 54.5t46.5 57.5t66 54.5t89 38.5t114.5 15.5q50 0 96 -10.5t75.5 -25t51.5 -29t32 -24.5l10 -11l-55 -115q-2 3 -6.5 8.5t-21 19.5t-36 24.5t-52.5 19t-69 8.5q-50 0 -92.5 -14.5t-66.5 -35t-41.5 -41t-23.5 -35.5l-6 -14
h330l-25 -80h-325v-50h310l-25 -80h-265q2 -6 6.5 -15.5t22.5 -33.5t41 -42.5t64.5 -33.5t90.5 -15q39 0 75 11t59.5 26t41.5 30.5t26 26.5l8 11h15v-145q-3 -4 -9.5 -10.5t-29 -22.5t-48.5 -28.5t-68.5 -23t-89.5 -10.5q-61 0 -114.5 15t-89.5 39.5t-65.5 54t-46.5 58.5
t-29 53.5t-16 39.5l-4 15h-65v80z" />
    <glyph glyph-name="uni20B4" unicode="&#x20b4;" horiz-adv-x="645" 
d="M590 390h-535v80h280q2 1 6 2.5t13.5 7.5t16.5 13.5t13 20t6 26.5q0 70 -95 70q-49 0 -91.5 -19t-60.5 -37l-18 -19h-15v140q3 3 9.5 7.5t27 16.5t43 21.5t57 17t70.5 7.5q105 0 166.5 -55t61.5 -140q0 -24 -6.5 -44t-12.5 -28l-6 -8h70v-80zM55 340h535v-80h-280
q-2 -1 -6 -2.5t-13.5 -7.5t-16.5 -13.5t-13 -20t-6 -26.5q0 -70 95 -70q49 0 91.5 19t60.5 37l18 19h15v-140q-3 -3 -9.5 -7.5t-27 -16.5t-43 -21.5t-57 -17t-70.5 -7.5q-105 0 -166.5 55t-61.5 140q0 24 6 44t12 28l7 8h-70v80z" />
    <glyph glyph-name="uni20BD" unicode="&#x20bd;" horiz-adv-x="655" 
d="M35 280v105h75v345h225q135 0 207.5 -62t72.5 -163t-72.5 -163t-207.5 -62h-75v-55h250v-105h-250v-120h-150v120h-75v105h75v55h-75zM260 605v-220h75q57 0 88.5 29t31.5 81t-31.5 81t-88.5 29h-75z" />
    <glyph glyph-name="afii61352" unicode="&#x2116;" horiz-adv-x="1165" 
d="M810 280v100h300v-100h-300zM900 590q0 -29 16.5 -44.5t43.5 -15.5t43.5 15.5t16.5 44.5t-16.5 44.5t-43.5 15.5t-43.5 -15.5t-16.5 -44.5zM730 730v-730h-145l-340 480v-480h-150v730h145l340 -480v480h150zM1115 590q0 -70 -43 -110t-112 -40t-112 40t-43 110t43 110
t112 40t112 -40t43 -110z" />
    <glyph glyph-name="trademark" unicode="&#x2122;" horiz-adv-x="815" 
d="M220 560v-260h-90v260h-105v80h300v-80h-105zM485 640l70 -210h5l70 210h90l55 -340h-95l-30 180h-5l-60 -180h-55l-60 180h-5l-30 -180h-95l55 340h90z" />
    <glyph glyph-name="arrowleft" unicode="&#x2190;" horiz-adv-x="990" 
d="M100 310l170 220h130l-130 -165h620v-110h-620l130 -165h-130z" />
    <glyph glyph-name="arrowup" unicode="&#x2191;" horiz-adv-x="640" 
d="M320 730l220 -170v-130l-165 130v-620h-110v620l-165 -130v130z" />
    <glyph glyph-name="arrowright" unicode="&#x2192;" horiz-adv-x="990" 
d="M720 530l170 -220l-170 -220h-130l130 165h-620v110h620l-130 165h130z" />
    <glyph glyph-name="arrowdown" unicode="&#x2193;" horiz-adv-x="640" 
d="M540 110l-220 -170l-220 170v130l165 -130v620h110v-620l165 130v-130z" />
    <glyph glyph-name="minus" unicode="&#x2212;" horiz-adv-x="550" 
d="M70 260v130h410v-130h-410z" />
    <glyph glyph-name="commaaccent" unicode="&#xf6c3;" horiz-adv-x="190" 
d="M160 -125q0 -47 -19 -85.5t-37 -53.5l-19 -16h-50q6 6 14 15.5t22 37.5t14 52q-24 0 -39.5 15.5t-15.5 44.5t19 47t46 18q28 0 46.5 -19.5t18.5 -55.5z" />
    <glyph glyph-name="cyrBreve" unicode="&#xf6d1;" horiz-adv-x="390" 
d="M195 790q-49 0 -90 12.5t-58 25.5l-17 12v110q2 -2 7 -6.5t21 -14.5t33.5 -18t46 -14.5t57.5 -6.5q47 0 88 15t59 30l18 15v-110q-6 -6 -18.5 -14t-55 -22t-91.5 -14z" />
    <glyph glyph-name="cyrbreve" unicode="&#xf6d4;" horiz-adv-x="340" 
d="M170 600q-38 0 -73 10t-51 20l-16 10v110q7 -6 19 -15t48.5 -24.5t72.5 -15.5t71 13.5t52 27.5l17 14v-110q-55 -40 -140 -40z" />
    <glyph glyph-name="s_t" unicode="&#xfb06;" horiz-adv-x="970" 
d="M320 155q0 18 -20.5 31t-52 19.5t-67.5 19.5t-67.5 29t-52 50t-20.5 81q0 67 55.5 113.5t149.5 46.5l55 -5q-20 20 -20 75q0 78 61.5 131.5t163.5 53.5q119 0 182 -60t63 -170v-40h160v-130h-160v-205q0 -40 20 -60t55 -20q24 0 45.5 8.5t30.5 17.5l9 9h15v-120
q-6 -5 -16.5 -12.5t-45.5 -20t-73 -12.5q-84 0 -134.5 53.5t-50.5 146.5v215h-90v40l90 95v35q0 48 -29.5 76.5t-75.5 28.5q-49 0 -77 -25t-28 -70q0 -33 15 -60.5t30 -38.5l15 -11l-55 -100q-5 6 -15 14t-45 22t-75 14q-36 0 -55.5 -12.5t-19.5 -32.5q0 -19 29 -30t70 -21
t82 -26t70 -53.5t29 -94.5q0 -75 -57.5 -120t-172.5 -45q-58 0 -109 16.5t-73 32.5l-23 16l30 115q7 -6 20 -15t57 -24.5t93 -15.5q85 0 85 45z" />
    <glyph glyph-name="s_h" unicode="&#xfb10;" horiz-adv-x="1155" 
d="M320 155q0 18 -20.5 31t-52 19.5t-67.5 19.5t-67.5 29t-52 50t-20.5 81q0 67 55.5 113.5t149.5 46.5l55 -5q-20 25 -20 75q0 77 60 131t155 54q36 0 83.5 -10t76.5 -10h60v-325h5q2 4 6 10t19 21.5t32.5 27.5t46.5 21.5t61 9.5q91 0 148 -59t57 -156v-330h-145v315
q0 45 -27.5 72.5t-72.5 27.5q-56 0 -93 -37t-37 -93v-285h-145v665q-11 0 -36 5t-44 5q-42 0 -68.5 -25.5t-26.5 -69.5q0 -31 15 -58.5t30 -39.5l15 -12l-55 -100q-5 6 -15 14t-45 22t-75 14q-36 0 -55.5 -12.5t-19.5 -32.5q0 -19 29 -30t70 -21t82 -26t70 -53.5t29 -94.5
q0 -75 -57.5 -120t-172.5 -45q-58 0 -109 16.5t-73 32.5l-23 16l30 115q7 -6 20 -15t57 -24.5t93 -15.5q85 0 85 45z" />
    <glyph glyph-name="s_k" unicode="&#xfb11;" horiz-adv-x="1095" 
d="M320 155q0 18 -20.5 31t-52 19.5t-67.5 19.5t-67.5 29t-52 50t-20.5 81q0 67 55.5 113.5t149.5 46.5l55 -5q-20 25 -20 75q0 77 60 131t155 54q36 0 83.5 -10t76.5 -10h60v-480l210 230h165l-220 -245l235 -285h-170l-160 195l-60 -65v-130h-145v665q-11 0 -36 5t-44 5
q-42 0 -68.5 -25.5t-26.5 -69.5q0 -33 15 -60.5t30 -38.5l15 -11l-55 -100q-5 6 -15 14t-45 22t-75 14q-36 0 -55.5 -12.5t-19.5 -32.5q0 -19 29 -30t70 -21t82 -26t70 -53.5t29 -94.5q0 -75 -57.5 -120t-172.5 -45q-58 0 -109 16.5t-73 32.5l-23 16l30 115q7 -6 20 -15
t57 -24.5t93 -15.5q85 0 85 45z" />
    <glyph glyph-name="c_h" unicode="&#xfb12;" horiz-adv-x="1225" 
d="M195 265q0 -71 41.5 -110.5t113.5 -39.5q40 0 76 13.5t52 27.5l17 14h15v-125q-7 -7 -20.5 -17t-61 -26.5t-103.5 -16.5q-120 0 -200 80t-80 200t80 200t200 80l45 -5q-20 30 -20 75q0 77 60 131t155 54q36 0 83.5 -10t76.5 -10h60v-325h5q2 4 5.5 10t18 21.5t31.5 27.5
t46.5 21.5t63.5 9.5q94 0 149.5 -57t55.5 -158v-330h-145v315q0 48 -27 74t-73 26q-57 0 -93.5 -35.5t-36.5 -94.5v-285h-145v665q-11 0 -36 5t-44 5q-42 0 -68.5 -25.5t-26.5 -69.5q0 -29 16.5 -55t32.5 -38l16 -12l-55 -105q-5 5 -14.5 12.5t-42 20t-68.5 12.5
q-72 0 -113.5 -39.5t-41.5 -110.5z" />
    <glyph glyph-name="c_k" unicode="&#xfb13;" horiz-adv-x="1165" 
d="M640 0v665q-11 0 -36 5t-44 5q-42 0 -68.5 -25.5t-26.5 -69.5q0 -29 16.5 -55t32.5 -38l16 -12l-55 -105q-5 5 -14.5 12.5t-42 20t-68.5 12.5q-72 0 -113.5 -39.5t-41.5 -110.5t41.5 -110.5t113.5 -39.5q40 0 76 13.5t52 27.5l17 14h15v-125q-7 -7 -20.5 -17t-61 -26.5
t-103.5 -16.5q-120 0 -200 80t-80 200t79.5 200t200.5 80l45 -5q-20 30 -20 75q0 77 60 131t155 54q36 0 83.5 -10t76.5 -10h60v-480l210 230h165l-220 -245l235 -285h-170l-160 195l-60 -65v-130h-145z" />
    <glyph glyph-name="c_t" unicode="&#xfb14;" horiz-adv-x="1045" 
d="M680 185v215h-90v40l90 95v35q0 48 -29.5 76.5t-75.5 28.5q-49 0 -77 -25t-28 -70q0 -31 15 -57.5t30 -36.5l15 -11l-55 -105q-5 5 -14.5 12.5t-42 20t-68.5 12.5q-72 0 -113.5 -39.5t-41.5 -110.5t41.5 -110.5t113.5 -39.5q40 0 76 13.5t52 27.5l17 14h15v-125
q-7 -7 -20.5 -17t-61 -26.5t-103.5 -16.5q-120 0 -200 80t-80 200t80 200t200 80l50 -5q-20 25 -20 75q0 78 61.5 131.5t163.5 53.5q119 0 182 -60.5t63 -169.5v-40h160v-130h-160v-205q0 -40 20 -60t55 -20q24 0 45.5 8.5t30.5 17.5l9 9h15v-120q-6 -5 -16.5 -12.5
t-45.5 -20t-73 -12.5q-84 0 -134.5 53.5t-50.5 146.5z" />
    <glyph glyph-name="zero.pnum" horiz-adv-x="650" 
d="M195 365q0 -130 36 -187.5t94 -57.5t94 57.5t36 187.5t-36 187.5t-94 57.5t-94 -57.5t-36 -187.5zM610 365q0 -180 -81.5 -280t-203.5 -100t-203.5 100t-81.5 280t81.5 280t203.5 100t203.5 -100t81.5 -280z" />
    <glyph glyph-name="one.pnum" horiz-adv-x="430" 
d="M40 480v150l180 100h115v-730h-150v560z" />
    <glyph glyph-name="two.pnum" horiz-adv-x="610" 
d="M35 15l285 380q7 8 17 22.5t26.5 50t16.5 62.5q0 38 -25 59t-70 21q-34 0 -67.5 -14t-57 -34t-42.5 -39.5t-28 -33.5l-10 -14h-15v145q4 5 11 13.5t31 30t50 38t65 30t78 13.5q107 0 168.5 -56t61.5 -144q0 -51 -22.5 -106t-45.5 -85l-22 -29l-145 -190h260v-135h-520v15
z" />
    <glyph glyph-name="three.pnum" horiz-adv-x="595" 
d="M265 345q-27 0 -49.5 -6.5t-31.5 -12.5l-9 -6l-55 75l160 200h-200v135h445v-15l-210 -255v-5q101 0 168 -66t67 -164q0 -108 -74 -174t-206 -66q-62 0 -119.5 21.5t-84.5 42.5l-26 21l50 115q7 -7 21 -18t59.5 -29t94.5 -18q63 0 99 31t36 84q0 50 -36 80t-99 30z" />
    <glyph glyph-name="four.pnum" horiz-adv-x="645" 
d="M615 300v-135h-105v-165h-150v165h-345v15l301 550h159l-240 -430h130l20 150h125v-150h105z" />
    <glyph glyph-name="five.pnum" horiz-adv-x="610" 
d="M410 240q0 56 -35.5 88t-99.5 32q-32 0 -61 -12.5t-42 -25.5l-12 -12l-85 50l55 370h400v-135h-290l-20 -130q30 15 80 15q119 0 189.5 -67t70.5 -173q0 -113 -75 -184t-210 -71q-62 0 -119.5 21.5t-83.5 42.5l-27 21l50 115q7 -7 21 -18t61 -29t98 -18q64 0 99.5 32
t35.5 88z" />
    <glyph glyph-name="six.pnum" horiz-adv-x="640" 
d="M305 730h185q-8 -6 -20.5 -16t-48 -42.5t-66 -65.5t-64 -80.5t-51.5 -90.5h5q40 35 120 35q105 0 172.5 -67.5t67.5 -172.5q0 -107 -75 -176t-200 -69q-128 0 -201.5 73.5t-73.5 201.5q0 74 25.5 150t62.5 131t74 99.5t63 67.5zM330 345q-53 0 -86.5 -31.5t-33.5 -83.5
t33.5 -83.5t86.5 -31.5t86.5 31.5t33.5 83.5t-33.5 83.5t-86.5 31.5z" />
    <glyph glyph-name="seven.pnum" horiz-adv-x="555" 
d="M270 0h-150l225 595h-315v135h505v-15z" />
    <glyph glyph-name="eight.pnum" horiz-adv-x="650" 
d="M325 115q56 0 90.5 30.5t34.5 79.5t-34.5 79.5t-90.5 30.5t-90.5 -30.5t-34.5 -79.5q0 -48 35.5 -79t89.5 -31zM325 445q41 0 68 24t27 61t-27 61t-68 24t-68 -24t-27 -61t27 -61t68 -24zM325 -15q-131 0 -205.5 64t-74.5 161q0 39 13 72t31.5 52t36.5 32.5t31 18.5l13 5
v5l-10 5t-21.5 16t-27.5 28.5t-21.5 42.5t-9.5 58q0 86 66 143t179 57t179 -57t66 -143q0 -31 -9.5 -57.5t-22.5 -43t-26 -28t-22 -16.5l-10 -5v-5q5 -2 13.5 -5.5t30 -18t38 -32.5t30 -51.5t13.5 -72.5q0 -97 -74.5 -161t-205.5 -64z" />
    <glyph glyph-name="nine.pnum" horiz-adv-x="640" 
d="M335 0h-185q8 6 20.5 16t48 42.5t66 65.5t64 80.5t51.5 90.5h-5q-40 -35 -120 -35q-105 0 -172.5 67.5t-67.5 172.5q0 107 75 176t200 69q128 0 201.5 -73.5t73.5 -201.5q0 -74 -25.5 -150t-62.5 -131t-74 -99.5t-63 -67.5zM310 385q53 0 86.5 31.5t33.5 83.5t-33.5 83.5
t-86.5 31.5t-86.5 -31.5t-33.5 -83.5t33.5 -83.5t86.5 -31.5z" />
    <glyph glyph-name="foundryicon" horiz-adv-x="1538" 
d="M278 460v-31h-72v-199h-35v199h-71v31h178zM519 396q32 0 54.5 -25t22.5 -59q0 -36 -22.5 -60.5t-54.5 -24.5q-29 0 -47 21v-79h-34v224h24l9 -19q19 22 48 22zM516 258q19 0 33 16t14 38q0 21 -14 36.5t-33 15.5t-33 -15.5t-14 -36.5q0 -22 13.5 -38t33.5 -16zM333 277
l44 116h37l-77 -190q-16 -34 -49 -34q-7 0 -10 1v28q23 0 31 20l6 16l-63 159h37zM701 396q32 0 54 -24.5t22 -58.5l-1 -15h-119q2 -17 14.5 -29t29.5 -12q27 0 37 17h35q-9 -22 -28.5 -34.5t-43.5 -12.5q-32 0 -55 24.5t-23 60.5q0 35 23 59.5t55 24.5zM657 325h88
q-1 17 -14.5 28.5t-29.5 11.5t-29 -11t-15 -29zM939 460v-31h-72v-199h-35v199h-71v31h178zM1180 396q32 0 54.5 -25t22.5 -59q0 -36 -22.5 -60.5t-54.5 -24.5q-29 0 -47 21v-79h-34v224h24l9 -19q19 22 48 22zM1177 258q19 0 33 16t14 38q0 21 -14 36.5t-33 15.5t-33 -15.5
t-14 -36.5q0 -22 13.5 -38t33.5 -16zM994 277l44 116h37l-77 -190q-16 -34 -49 -34q-7 0 -10 1v28q23 0 31 20l6 16l-63 159h37zM1362 396q32 0 54 -24.5t22 -58.5l-1 -15h-119q2 -17 14.5 -29t29.5 -12q27 0 37 17h35q-9 -22 -28.5 -34.5t-43.5 -12.5q-32 0 -55 24.5
t-23 60.5q0 35 23 59.5t55 24.5zM1318 325h88q-1 17 -14.5 28.5t-29.5 11.5t-29 -11t-15 -29z" />
    <glyph glyph-name="Germandbls" horiz-adv-x="745" 
d="M380 430l100 140q-3 4 -10 11t-33 18t-57 11q-72 0 -111 -41.5t-39 -121.5v-447h-150v447q0 134 82.5 216t217.5 82q59 0 108.5 -16t78 -38.5t48.5 -45.5t27 -39l8 -16l-120 -170q7 -2 19.5 -7t43.5 -23t54.5 -40t43 -61t19.5 -84q0 -97 -70.5 -158.5t-194.5 -61.5
q-38 0 -73 7.5t-51 15.5l-16 7l25 130q35 -25 110 -25q58 0 86.5 23t28.5 62q0 27 -18 50.5t-43.5 38.5t-51.5 26t-44 16l-18 4v90z" />
    <glyph glyph-name="zero.taboldstyle" 
d="M425 265q0 67 -37 106t-98 39t-98 -39t-37 -106t37 -106t98 -39t98 39t37 106zM580 265q0 -121 -81.5 -200.5t-208.5 -79.5t-208.5 79.5t-81.5 200.5t81.5 200.5t208.5 79.5t208.5 -79.5t81.5 -200.5z" />
    <glyph glyph-name="one.taboldstyle" 
d="M95 0v130h140v240l-140 -55v130l180 85h110v-400h145v-130h-435z" />
    <glyph glyph-name="two.taboldstyle" 
d="M35 15l250 225q7 5 17 14t26.5 36.5t16.5 54.5q0 65 -80 65q-29 0 -58.5 -12t-50.5 -29t-37.5 -33.5t-24.5 -28.5l-9 -12h-15v145q3 4 9.5 11t28.5 25.5t45.5 32t59.5 25t72 11.5q98 0 154 -51t56 -129q0 -47 -21.5 -90.5t-42.5 -64.5l-21 -20l-60 -55h160v-135h-475v15z
" />
    <glyph glyph-name="three.taboldstyle" 
d="M255 145q-27 0 -49.5 -6.5t-31.5 -12.5l-9 -6l-55 75l160 200h-200v135h445v-15l-210 -255v-5q101 0 168 -66t67 -164q0 -108 -74 -174t-206 -66q-62 0 -119.5 21.5t-84.5 42.5l-26 21l50 115q7 -7 21 -18t59.5 -29t94.5 -18q63 0 99 31t36 84q0 50 -36 80t-99 30z" />
    <glyph glyph-name="four.taboldstyle" 
d="M585 135v-135h-105v-200h-150v200h-345v15l280 515h160l-220 -395h130l20 150h125v-150h105z" />
    <glyph glyph-name="five.taboldstyle" 
d="M395 40q0 56 -35.5 88t-99.5 32q-32 0 -61 -12.5t-41 -25.5l-13 -12l-85 50l55 370h400v-135h-290l-20 -130q30 15 80 15q119 0 189.5 -67t70.5 -173q0 -113 -75 -184t-210 -71q-62 0 -119.5 21.5t-84.5 42.5l-26 21l50 115q7 -7 21 -18t61 -29t98 -18q64 0 99.5 32
t35.5 88z" />
    <glyph glyph-name="six.taboldstyle" 
d="M270 730h185q-8 -6 -20.5 -16t-48 -42.5t-66 -65.5t-64 -80.5t-51.5 -90.5h5q40 35 120 35q105 0 172.5 -67.5t67.5 -172.5q0 -107 -75 -176t-200 -69q-127 0 -201 73.5t-74 201.5q0 54 14 109t36 100t48.5 87t53 73t48.5 54t36 35zM295 345q-53 0 -86.5 -31.5
t-33.5 -83.5t33.5 -83.5t86.5 -31.5t86.5 31.5t33.5 83.5t-33.5 83.5t-86.5 31.5z" />
    <glyph glyph-name="seven.taboldstyle" 
d="M280 -200h-150l225 595h-315v135h505v-15z" />
    <glyph glyph-name="eight.taboldstyle" 
d="M290 115q56 0 90.5 30.5t34.5 79.5t-34.5 79.5t-90.5 30.5t-90.5 -30.5t-34.5 -79.5q0 -48 35.5 -79t89.5 -31zM290 445q41 0 68 24t27 61t-27 61t-68 24t-68 -24t-27 -61t27 -61t68 -24zM290 -15q-131 0 -205.5 64t-74.5 161q0 39 13 72t31 52t36.5 32.5t31.5 18.5l13 5
v5l-10 5t-21.5 16t-27.5 28.5t-21.5 42.5t-9.5 58q0 86 66 143t179 57t179 -57t66 -143q0 -31 -9.5 -57.5t-22.5 -43t-26 -28t-23 -16.5l-9 -5v-5q5 -2 13.5 -5.5t30 -18t38 -32.5t30 -51.5t13.5 -72.5q0 -97 -74.5 -161t-205.5 -64z" />
    <glyph glyph-name="nine.taboldstyle" 
d="M310 -200h-185q8 6 20.5 16t48 42.5t66 65.5t64 80.5t51.5 90.5h-5q-40 -35 -120 -35q-105 0 -172.5 67.5t-67.5 172.5q0 107 75 176t200 69q127 0 201 -73.5t74 -201.5q0 -54 -14 -109t-36 -100t-48.5 -87t-53 -73t-48.5 -54t-36 -35zM285 185q53 0 86.5 31.5t33.5 83.5
t-33.5 83.5t-86.5 31.5t-86.5 -31.5t-33.5 -83.5t33.5 -83.5t86.5 -31.5z" />
    <glyph glyph-name="zero.tab" 
d="M160 365q0 -130 36 -187.5t94 -57.5t94 57.5t36 187.5t-36 187.5t-94 57.5t-94 -57.5t-36 -187.5zM575 365q0 -180 -81.5 -280t-203.5 -100t-203.5 100t-81.5 280t81.5 280t203.5 100t203.5 -100t81.5 -280z" />
    <glyph glyph-name="one.tab" 
d="M95 0v135h142v425l-142 -80v147l177 103h115v-595h143v-135h-435z" />
    <glyph glyph-name="two.tab" 
d="M20 15l285 380q7 8 17 22.5t26.5 50t16.5 62.5q0 38 -25 59t-70 21q-34 0 -67.5 -14t-57 -34t-42.5 -39.5t-29 -33.5l-9 -14h-15v145q4 5 11 13.5t31 30t50 38t65 30t78 13.5q107 0 168.5 -56t61.5 -144q0 -51 -22.5 -106t-44.5 -85l-23 -29l-145 -190h260v-135h-520v15z
" />
    <glyph glyph-name="three.tab" 
d="M255 345q-27 0 -49.5 -6.5t-31.5 -12.5l-9 -6l-55 75l160 200h-200v135h445v-15l-210 -255v-5q101 0 168 -66t67 -164q0 -108 -74 -174t-206 -66q-62 0 -119.5 21.5t-84.5 42.5l-26 21l50 115q7 -7 21 -18t59.5 -29t94.5 -18q63 0 99 31t36 84q0 50 -36 80t-99 30z" />
    <glyph glyph-name="four.tab" 
d="M585 300v-135h-105v-165h-150v165h-345v13l301 552h159l-240 -430h130l20 150h125v-150h105z" />
    <glyph glyph-name="five.tab" 
d="M395 240q0 56 -35.5 88t-99.5 32q-32 0 -61 -12.5t-41 -25.5l-13 -12l-85 50l55 370h400v-135h-290l-20 -130q30 15 80 15q119 0 189.5 -67t70.5 -173q0 -113 -75 -184t-210 -71q-62 0 -119.5 21.5t-84.5 42.5l-26 21l50 115q7 -7 21 -18t61 -29t98 -18q64 0 99.5 32
t35.5 88z" />
    <glyph glyph-name="six.tab" 
d="M270 730h185q-8 -6 -20.5 -16t-48 -42.5t-66 -65.5t-64 -80.5t-51.5 -90.5h5q40 35 120 35q105 0 172.5 -67.5t67.5 -172.5q0 -107 -75 -176t-200 -69q-127 0 -201 73.5t-74 201.5q0 54 14 109t36 100t48.5 87t53 73t48.5 54t36 35zM295 345q-53 0 -86.5 -31.5
t-33.5 -83.5t33.5 -83.5t86.5 -31.5t86.5 31.5t33.5 83.5t-33.5 83.5t-86.5 31.5z" />
    <glyph glyph-name="seven.tab" 
d="M280 0h-150l225 595h-315v135h505v-15z" />
    <glyph glyph-name="eight.tab" 
d="M290 115q56 0 90.5 30.5t34.5 79.5t-34.5 79.5t-90.5 30.5t-90.5 -30.5t-34.5 -79.5q0 -48 35.5 -79t89.5 -31zM290 445q41 0 68 24t27 61t-27 61t-68 24t-68 -24t-27 -61t27 -61t68 -24zM290 -15q-131 0 -205.5 64t-74.5 161q0 39 13 72t31 52t36.5 32.5t31.5 18.5l13 5
v5l-10 5t-21.5 16t-27.5 28.5t-21.5 42.5t-9.5 58q0 86 66 143t179 57t179 -57t66 -143q0 -31 -9.5 -57.5t-22.5 -43t-26 -28t-23 -16.5l-9 -5v-5q5 -2 13.5 -5.5t30 -18t38 -32.5t30 -51.5t13.5 -72.5q0 -97 -74.5 -161t-205.5 -64z" />
    <glyph glyph-name="nine.tab" 
d="M310 0h-185q8 6 20.5 16t48 42.5t66 65.5t64 80.5t51.5 90.5h-5q-40 -35 -120 -35q-105 0 -172.5 67.5t-67.5 172.5q0 107 75 176t200 69q127 0 201 -73.5t74 -201.5q0 -54 -14 -109t-36 -100t-48.5 -87t-53 -73t-48.5 -54t-36 -35zM285 385q53 0 86.5 31.5t33.5 83.5
t-33.5 83.5t-86.5 31.5t-86.5 -31.5t-33.5 -83.5t33.5 -83.5t86.5 -31.5z" />
    <glyph glyph-name="zero.numr" horiz-adv-x="370" 
d="M130 550q0 -100 55 -100t55 100t-55 100t-55 -100zM340 550q0 -90 -44 -140t-111 -50t-111 50t-44 140t44 140t111 50t111 -50t44 -140z" />
    <glyph glyph-name="one.numr" horiz-adv-x="245" 
d="M30 575v100l95 55h75v-360h-100v245z" />
    <glyph glyph-name="two.numr" horiz-adv-x="335" 
d="M25 385l145 180q25 30 25 50q0 35 -45 35q-24 0 -50.5 -15t-40.5 -30l-14 -15h-10v90q6 7 18 17t48.5 26.5t73.5 16.5q56 0 88 -28t32 -77q0 -24 -8.5 -48t-17.5 -35l-9 -12l-65 -85h110v-85h-280v15z" />
    <glyph glyph-name="three.numr" horiz-adv-x="325" 
d="M145 535q-12 0 -26 -3.5t-21 -7.5l-8 -4l-35 40l70 80h-85v90h245v-15l-90 -110q4 -1 11 -2.5t25.5 -9.5t32 -20t25 -35.5t11.5 -52.5q0 -57 -40 -91t-110 -34q-36 0 -68.5 10t-47.5 20l-14 10l25 75q40 -30 100 -30q26 0 40.5 13t14.5 32q0 45 -55 45z" />
    <glyph glyph-name="four.numr" horiz-adv-x="335" 
d="M246 730l-111 -200h40l25 60h60v-60h50v-90h-50v-70h-100v70h-175v15l155 275h106z" />
    <glyph glyph-name="five.numr" horiz-adv-x="335" 
d="M205 490q0 19 -15 32t-40 13q-13 0 -27 -5t-21 -10l-7 -5l-60 30l33 185h217v-90h-145l-5 -35q15 5 35 5q58 0 96.5 -32.5t38.5 -87.5q0 -61 -40.5 -95.5t-114.5 -34.5q-36 0 -68.5 10t-47.5 20l-14 10l25 75q40 -30 105 -30q25 0 40 13t15 32z" />
    <glyph glyph-name="six.numr" horiz-adv-x="350" 
d="M160 730h110q-75 -55 -115 -120q15 5 40 5q57 0 93.5 -34.5t36.5 -90.5q0 -57 -41 -93.5t-106 -36.5q-66 0 -107 38.5t-41 101.5q0 38 13.5 75.5t32.5 64t38 48t32 32.5zM130 490q0 -18 13 -29t34 -11t34.5 11t13.5 29t-13.5 29t-34.5 11t-34 -11t-13 -29z" />
    <glyph glyph-name="seven.numr" horiz-adv-x="315" 
d="M180 370h-105l100 270h-145v90h275v-15z" />
    <glyph glyph-name="eight.numr" horiz-adv-x="350" 
d="M175 445q23 0 36.5 10.5t13.5 29.5t-13.5 29.5t-36.5 10.5t-36.5 -10.5t-13.5 -29.5t13.5 -29.5t36.5 -10.5zM175 600q35 0 35 30t-35 30t-35 -30t35 -30zM175 360q-69 0 -109.5 32.5t-40.5 82.5q0 29 15 50t30 28l15 7q-5 3 -12.5 8.5t-20 25t-12.5 41.5q0 46 36.5 75.5
t98.5 29.5t98.5 -29.5t36.5 -75.5q0 -22 -11 -41t-23 -26l-11 -8q2 -1 6.5 -2.5t14.5 -8.5t18 -16t14.5 -24.5t6.5 -33.5q0 -50 -40.5 -82.5t-109.5 -32.5z" />
    <glyph glyph-name="nine.numr" horiz-adv-x="350" 
d="M190 370h-110q75 55 115 120q-15 -5 -40 -5q-57 0 -93.5 34.5t-36.5 90.5q0 57 41 93.5t106 36.5q66 0 107 -38.5t41 -101.5q0 -38 -13.5 -75.5t-32.5 -64t-38 -48t-32 -32.5zM220 610q0 18 -13 29t-34 11t-34.5 -11t-13.5 -29t13.5 -29t34.5 -11t34 11t13 29z" />
    <glyph glyph-name="zero.dnom" horiz-adv-x="370" 
d="M130 180q0 -100 55 -100t55 100t-55 100t-55 -100zM340 180q0 -90 -44 -140t-111 -50t-111 50t-44 140t44 140t111 50t111 -50t44 -140z" />
    <glyph glyph-name="one.dnom" horiz-adv-x="245" 
d="M30 205v100l95 55h75v-360h-100v245z" />
    <glyph glyph-name="two.dnom" horiz-adv-x="335" 
d="M25 15l145 180q25 30 25 50q0 35 -45 35q-24 0 -50.5 -15t-40.5 -30l-14 -15h-10v90q6 7 18 17t48.5 26.5t73.5 16.5q56 0 88 -28t32 -77q0 -24 -8.5 -48t-17.5 -35l-9 -12l-65 -85h110v-85h-280v15z" />
    <glyph glyph-name="three.dnom" horiz-adv-x="325" 
d="M145 165q-12 0 -25.5 -3.5t-21.5 -7.5l-8 -4l-35 40l70 80h-85v90h245v-15l-90 -110q4 -1 11 -2.5t25.5 -9.5t32 -20t25 -35.5t11.5 -52.5q0 -57 -40 -91t-110 -34q-36 0 -68.5 10t-47.5 20l-14 10l25 75q40 -30 100 -30q26 0 40.5 13t14.5 32q0 45 -55 45z" />
    <glyph glyph-name="four.dnom" horiz-adv-x="335" 
d="M246 360l-111 -200h40l25 60h60v-60h50v-90h-50v-70h-100v70h-175v15l155 275h106z" />
    <glyph glyph-name="five.dnom" horiz-adv-x="335" 
d="M205 120q0 19 -15 32t-40 13q-13 0 -27 -5t-21 -10l-7 -5l-60 30l33 185h217v-90h-145l-5 -35q15 5 35 5q58 0 96.5 -32.5t38.5 -87.5q0 -61 -40.5 -95.5t-114.5 -34.5q-36 0 -68.5 10t-47.5 20l-14 10l25 75q40 -30 105 -30q25 0 40 13t15 32z" />
    <glyph glyph-name="six.dnom" horiz-adv-x="350" 
d="M160 360h110q-75 -55 -115 -120q15 5 40 5q57 0 93.5 -34.5t36.5 -90.5q0 -57 -41 -93.5t-106 -36.5q-66 0 -107 38.5t-41 101.5q0 38 13.5 75.5t32.5 64t38 48t32 32.5zM130 120q0 -18 13 -29t34 -11t34.5 11t13.5 29t-13.5 29t-34.5 11t-34 -11t-13 -29z" />
    <glyph glyph-name="seven.dnom" horiz-adv-x="315" 
d="M180 0h-105l100 270h-145v90h275v-15z" />
    <glyph glyph-name="eight.dnom" horiz-adv-x="350" 
d="M175 75q23 0 36.5 10.5t13.5 29.5t-13.5 29.5t-36.5 10.5t-36.5 -10.5t-13.5 -29.5t13.5 -29.5t36.5 -10.5zM175 230q35 0 35 30t-35 30t-35 -30t35 -30zM175 -10q-69 0 -109.5 32.5t-40.5 82.5q0 29 15 50t30 28l15 7q-5 3 -12.5 8.5t-20 25t-12.5 41.5q0 46 36.5 75.5
t98.5 29.5t98.5 -29.5t36.5 -75.5q0 -22 -11 -41t-23 -26l-11 -8q2 -1 6.5 -2.5t14.5 -8.5t18 -16t14.5 -24.5t6.5 -33.5q0 -50 -40.5 -82.5t-109.5 -32.5z" />
    <glyph glyph-name="nine.dnom" horiz-adv-x="350" 
d="M190 0h-110q75 55 115 120q-15 -5 -40 -5q-57 0 -93.5 34.5t-36.5 90.5q0 57 41 93.5t106 36.5q66 0 107 -38.5t41 -101.5q0 -38 -13.5 -75.5t-32.5 -64t-38 -48t-32 -32.5zM220 240q0 18 -13 29t-34 11t-34.5 -11t-13.5 -29t13.5 -29t34.5 -11t34 11t13 29z" />
    <glyph glyph-name="at.case" horiz-adv-x="990" 
d="M945 395q0 -113 -52.5 -174t-137.5 -61q-31 0 -56.5 7.5t-40.5 19t-25.5 22.5t-14.5 19l-3 7h-10q-1 -3 -4 -8t-14 -18t-26 -23t-42 -18t-59 -8q-84 0 -137 56t-53 149t53 149t137 56q42 0 74.5 -15t43.5 -30l12 -15l20 50h90v-230q0 -70 60 -70q70 0 70 135
q0 130 -89.5 212.5t-240.5 82.5q-146 0 -238 -91t-92 -234t92 -234t238 -91q64 0 118 12.5t76 25.5l21 12v-115q-8 -4 -23.5 -11t-71.5 -18t-120 -11q-198 0 -321.5 120.5t-123.5 309.5t123.5 309.5t321.5 120.5q203 0 324 -112t121 -288zM485 265q39 0 67 28t28 72t-28 72
t-67 28t-67 -28t-28 -72t28 -72t67 -28z" />
    <glyph glyph-name="parenleft.case" horiz-adv-x="375" 
d="M200 363q0 -84 15.5 -167.5t37.5 -142.5t44 -106t37 -71l16 -23h-110q-7 9 -19 24.5t-42 68t-53 108.5t-42 140.5t-19 168.5t18 167.5t43.5 142.5t51.5 106t44 71l18 23h110q-6 -9 -16 -24.5t-36 -68t-46 -108.5t-36 -140.5t-16 -168.5z" />
    <glyph glyph-name="parenright.case" horiz-adv-x="375" 
d="M175 363q0 84 -15.5 167.5t-37.5 142.5t-44 106t-38 71l-15 23h110q7 -9 19 -24.5t42 -68t53 -108.5t42 -140.5t19 -168.5t-18 -167.5t-43.5 -142.5t-51.5 -106t-44 -71l-18 -23h-110q6 9 16 24.5t36 68t46 108.5t36 140.5t16 168.5z" />
    <glyph glyph-name="bracketleft.case" horiz-adv-x="425" 
d="M90 -145v1015h295v-125h-160v-765h160v-125h-295z" />
    <glyph glyph-name="bracketright.case" horiz-adv-x="425" 
d="M330 870v-1015h-295v125h160v765h-160v125h295z" />
    <glyph glyph-name="braceleft.case" horiz-adv-x="425" 
d="M55 305v115q85 0 85 90v180q0 91 48 135.5t152 44.5h50v-120h-35q-42 0 -61 -18t-19 -62v-195q0 -29 -10.5 -51.5t-25 -33t-29 -17t-24.5 -7.5l-11 -1v-5q4 0 11 -1t24 -7.5t30 -17t24 -33t11 -51.5v-195q0 -44 19 -62t61 -18h35v-120h-50q-104 0 -152 44.5t-48 135.5
v180q0 90 -85 90z" />
    <glyph glyph-name="braceright.case" horiz-adv-x="425" 
d="M370 420v-115q-85 0 -85 -90v-180q0 -92 -48 -136t-152 -44h-50v120h35q42 0 61 18t19 62v195q0 29 10.5 51.5t25 33t29 17t25.5 7.5l10 1v5q-4 0 -11 1t-24 7.5t-30 17t-24 33t-11 51.5v195q0 44 -19 62t-61 18h-35v120h50q104 0 152 -44.5t48 -135.5v-180q0 -90 85 -90
z" />
    <glyph glyph-name="exclamdown.case" horiz-adv-x="310" 
d="M80 130l20 365h110l20 -365v-200h-150v200zM235 660q0 -37 -22.5 -58.5t-57.5 -21.5t-57.5 21.5t-22.5 58.5t22.5 58.5t57.5 21.5t57.5 -21.5t22.5 -58.5z" />
    <glyph glyph-name="questiondown.case" horiz-adv-x="515" 
d="M460 195v-145q-8 -7 -23 -18t-64.5 -29t-102.5 -18q-107 0 -166 53.5t-59 141.5q0 43 18.5 81.5t45 67.5t53 56t45 58t18.5 62h140q0 -42 -17.5 -80t-42.5 -67t-50 -55.5t-42.5 -54t-17.5 -53.5q0 -34 24.5 -54.5t65.5 -20.5q42 0 82 19t59 37l19 19h15zM375 660
q0 -37 -22.5 -58.5t-57.5 -21.5t-57.5 21.5t-22.5 58.5t22.5 58.5t57.5 21.5t57.5 -21.5t22.5 -58.5z" />
    <glyph glyph-name="guillemotleft.case" horiz-adv-x="600" 
d="M170 360l160 -220h-140l-155 215v20l155 215h140l-160 -220v-10zM405 360l160 -220h-140l-155 215v20l155 215h140l-160 -220v-10z" />
    <glyph glyph-name="guillemotright.case" horiz-adv-x="600" 
d="M270 140l160 220v10l-160 220h140l155 -215v-20l-155 -215h-140zM35 140l160 220v10l-160 220h140l155 -215v-20l-155 -215h-140z" />
    <glyph glyph-name="guilsinglleft.case" horiz-adv-x="395" 
d="M170 360l190 -220h-140l-185 215v20l185 215h140l-190 -220v-10z" />
    <glyph glyph-name="guilsinglright.case" horiz-adv-x="395" 
d="M35 140l190 220v10l-190 220h140l185 -215v-20l-185 -215h-140z" />
    <glyph glyph-name="hyphen.case" horiz-adv-x="420" 
d="M40 300v130h340v-130h-340z" />
    <glyph glyph-name="endash.case" horiz-adv-x="570" 
d="M40 300v125h490v-125h-490z" />
    <glyph glyph-name="emdash.case" horiz-adv-x="930" 
d="M40 300v125h850v-125h-850z" />
    <glyph glyph-name="periodcentered.case" horiz-adv-x="270" 
d="M215 365q0 -37 -22.5 -58.5t-57.5 -21.5t-57.5 21.5t-22.5 58.5t22.5 58.5t57.5 21.5t57.5 -21.5t22.5 -58.5z" />
    <glyph glyph-name="bullet.case" horiz-adv-x="480" 
d="M360 368q0 -52 -35 -86t-85 -34q-49 0 -84.5 34.5t-35.5 85.5q0 52 35 86t85 34t85 -34t35 -86z" />
    <glyph glyph-name="a.salt" horiz-adv-x="695" 
d="M480 265q0 66 -41 108t-99 42q-61 0 -103 -42t-42 -108t42 -108t103 -42q58 0 99 42t41 108zM480 455l5 75h140v-530h-140l-5 75h-5q-2 -4 -6 -10t-19.5 -21.5t-34 -27.5t-49.5 -21.5t-66 -9.5q-107 0 -181 79t-74 201t74 201t181 79q35 0 66 -9.5t50 -22.5t33 -26
t20 -23l6 -9h5z" />
    <glyph glyph-name="atilde.salt" horiz-adv-x="695" 
d="M275 660q-29 0 -55 -12.5t-38 -25.5l-12 -12v105q4 6 12 14t36.5 22t61.5 14q39 0 86.5 -27.5t78.5 -27.5q29 0 55 12.5t38 25.5l12 12v-105q-4 -6 -12 -14t-36.5 -22t-61.5 -14q-39 0 -86.5 27.5t-78.5 27.5zM480 265q0 66 -41 108t-99 42q-61 0 -103 -42t-42 -108
t42 -108t103 -42q58 0 99 42t41 108zM480 455l5 75h140v-530h-140l-5 75h-5q-2 -4 -6 -10t-19.5 -21.5t-34 -27.5t-49.5 -21.5t-66 -9.5q-107 0 -181 79t-74 201t74 201t181 79q35 0 66 -9.5t50 -22.5t33 -26t20 -23l6 -9h5z" />
    <glyph glyph-name="aring.salt" horiz-adv-x="695" 
d="M310 705q0 -22 12.5 -33.5t32.5 -11.5t32.5 11.5t12.5 33.5t-12.5 33.5t-32.5 11.5t-32.5 -11.5t-12.5 -33.5zM480 705q0 -56 -34.5 -90.5t-90.5 -34.5t-90.5 34.5t-34.5 90.5t34.5 90.5t90.5 34.5t90.5 -34.5t34.5 -90.5zM480 265q0 66 -41 108t-99 42q-61 0 -103 -42
t-42 -108t42 -108t103 -42q58 0 99 42t41 108zM480 455l5 75h140v-530h-140l-5 75h-5q-2 -4 -6 -10t-19.5 -21.5t-34 -27.5t-49.5 -21.5t-66 -9.5q-107 0 -181 79t-74 201t74 201t181 79q35 0 66 -9.5t50 -22.5t33 -26t20 -23l6 -9h5z" />
    <glyph glyph-name="aogonek.salt" horiz-adv-x="695" 
d="M550 0h-65l-5 75h-5q-2 -4 -6 -10t-19.5 -21.5t-34 -27.5t-49.5 -21.5t-66 -9.5q-107 0 -181 79t-74 201t74 201t181 79q35 0 66 -9.5t50 -22.5t33 -26t20 -23l6 -9h5l5 75h140v-530q-4 -2 -10.5 -5.5t-22.5 -16t-28.5 -27t-23 -38t-10.5 -48.5q0 -55 50 -55q11 0 22.5 3
t17.5 6l5 3v-57q-25 -20 -75 -20q-59 0 -94.5 29.5t-35.5 75.5q0 29 13.5 55.5t32.5 43t38 28.5t32 17zM480 265q0 66 -41 108t-99 42q-61 0 -103 -42t-42 -108t42 -108t103 -42q58 0 99 42t41 108z" />
    <glyph glyph-name="amacron.salt" horiz-adv-x="695" 
d="M480 265q0 66 -41 108t-99 42q-61 0 -103 -42t-42 -108t42 -108t103 -42q58 0 99 42t41 108zM480 455l5 75h140v-530h-140l-5 75h-5q-2 -4 -6 -10t-19.5 -21.5t-34 -27.5t-49.5 -21.5t-66 -9.5q-107 0 -181 79t-74 201t74 201t181 79q35 0 66 -9.5t50 -22.5t33 -26
t20 -23l6 -9h5zM160 635v100h395v-100h-395z" />
    <glyph glyph-name="adieresis.salt" horiz-adv-x="695" 
d="M480 265q0 66 -41 108t-99 42q-61 0 -103 -42t-42 -108t42 -108t103 -42q58 0 99 42t41 108zM480 455l5 75h140v-530h-140l-5 75h-5q-2 -4 -6 -10t-19.5 -21.5t-34 -27.5t-49.5 -21.5t-66 -9.5q-107 0 -181 79t-74 201t74 201t181 79q35 0 66 -9.5t50 -22.5t33 -26
t20 -23l6 -9h5zM175 690q0 37 20 56t55 19t55 -19t20 -56q0 -36 -20.5 -55.5t-54.5 -19.5q-35 0 -55 19t-20 56zM390 690q0 37 20 56t55 19t55 -19t20 -56q0 -36 -20.5 -55.5t-54.5 -19.5q-35 0 -55 19t-20 56z" />
    <glyph glyph-name="acircumflex.salt" horiz-adv-x="695" 
d="M480 265q0 66 -41 108t-99 42q-61 0 -103 -42t-42 -108t42 -108t103 -42q58 0 99 42t41 108zM480 455l5 75h140v-530h-140l-5 75h-5q-2 -4 -6 -10t-19.5 -21.5t-34 -27.5t-49.5 -21.5t-66 -9.5q-107 0 -181 79t-74 201t74 201t181 79q35 0 66 -9.5t50 -22.5t33 -26
t20 -23l6 -9h5zM350 690l-110 -100h-90l150 190h100l150 -190h-90z" />
    <glyph glyph-name="abreve.salt" horiz-adv-x="695" 
d="M355 600q-49 0 -90 12.5t-58 25.5l-17 12v110q2 -2 7 -6.5t21 -14.5t33.5 -18t46 -14.5t57.5 -6.5q47 0 88 15t59 30l18 15v-110q-6 -6 -18.5 -14t-55 -22t-91.5 -14zM480 265q0 66 -41 108t-99 42q-61 0 -103 -42t-42 -108t42 -108t103 -42q58 0 99 42t41 108zM480 455
l5 75h140v-530h-140l-5 75h-5q-2 -4 -6 -10t-19.5 -21.5t-34 -27.5t-49.5 -21.5t-66 -9.5q-107 0 -181 79t-74 201t74 201t181 79q35 0 66 -9.5t50 -22.5t33 -26t20 -23l6 -9h5z" />
    <glyph glyph-name="aacute.salt" horiz-adv-x="695" 
d="M300 590l65 190h155l-130 -190h-90zM480 265q0 66 -41 108t-99 42q-61 0 -103 -42t-42 -108t42 -108t103 -42q58 0 99 42t41 108zM480 455l5 75h140v-530h-140l-5 75h-5q-2 -4 -6 -10t-19.5 -21.5t-34 -27.5t-49.5 -21.5t-66 -9.5q-107 0 -181 79t-74 201t74 201t181 79
q35 0 66 -9.5t50 -22.5t33 -26t20 -23l6 -9h5z" />
    <glyph glyph-name="agrave.salt" horiz-adv-x="695" 
d="M345 780l65 -190h-90l-130 190h155zM480 265q0 66 -41 108t-99 42q-61 0 -103 -42t-42 -108t42 -108t103 -42q58 0 99 42t41 108zM480 455l5 75h140v-530h-140l-5 75h-5q-2 -4 -6 -10t-19.5 -21.5t-34 -27.5t-49.5 -21.5t-66 -9.5q-107 0 -181 79t-74 201t74 201t181 79
q35 0 66 -9.5t50 -22.5t33 -26t20 -23l6 -9h5z" />
    <glyph glyph-name="ae.salt" horiz-adv-x="1080" 
d="M805 545q100 0 165 -73t65 -197v-40h-405q8 -55 50 -87.5t115 -32.5q58 0 104 15t63 30l18 15h15v-130q-3 -2 -8.5 -6.5t-23.5 -14.5t-38 -18t-51.5 -14.5t-63.5 -6.5q-34 0 -64.5 9.5t-51 22.5t-35.5 26t-22 23l-7 9h-5v-75h-140l-5 75h-5q-2 -4 -6 -10t-19.5 -21.5
t-34 -27.5t-49.5 -21.5t-66 -9.5q-107 0 -181 79t-74 201t74 201t181 79q35 0 66 -9.5t50 -22.5t33 -26t20 -23l6 -9h5l5 75h140v-75h5q2 4 6.5 10t20.5 21.5t34.5 27.5t49 21.5t64.5 9.5zM480 265q0 66 -41 108t-99 42q-61 0 -103 -42t-42 -108t42 -108t103 -42q58 0 99 42
t41 108zM785 420q-60 0 -99 -26.5t-51 -63.5h265q0 38 -32 64t-83 26z" />
    <glyph glyph-name="afii10065.salt" horiz-adv-x="695" 
d="M480 265q0 66 -41 108t-99 42q-61 0 -103 -42t-42 -108t42 -108t103 -42q58 0 99 42t41 108zM480 455l5 75h140v-530h-140l-5 75h-5q-2 -4 -6 -10t-19.5 -21.5t-34 -27.5t-49.5 -21.5t-66 -9.5q-107 0 -181 79t-74 201t74 201t181 79q35 0 66 -9.5t50 -22.5t33 -26
t20 -23l6 -9h5z" />
    <glyph glyph-name="ordfeminine.salt" horiz-adv-x="470" 
d="M315 545q0 47 -25.5 73.5t-64.5 26.5t-64.5 -26.5t-25.5 -73.5t25.5 -73.5t64.5 -26.5t64.5 26.5t25.5 73.5zM320 730h105v-370h-105l-5 40h-5q-3 -6 -10.5 -14t-37 -22t-67.5 -14q-74 0 -124.5 53.5t-50.5 141.5t50.5 141.5t124.5 53.5q38 0 66.5 -12.5t38.5 -25.5
l10 -12h5z" />
    <glyph glyph-name="g.salt" horiz-adv-x="675" 
d="M460 50v55h-5q-1 -4 -4.5 -10t-16.5 -21.5t-29.5 -27.5t-47.5 -21.5t-67 -9.5q-99 0 -172 77t-73 188t73 188t172 77q36 0 66.5 -9.5t48 -22.5t29.5 -26t16 -23l5 -9h5l6 75h139v-480q0 -132 -78.5 -208.5t-216.5 -76.5q-52 0 -94.5 7.5t-59.5 15.5l-16 7l-25 145
q7 -5 21 -12.5t61 -20t98 -12.5q165 0 165 155zM195 280q0 -62 36.5 -98.5t93.5 -36.5q61 0 98 36t37 99t-37 99t-98 36q-57 0 -93.5 -36.5t-36.5 -98.5z" />
    <glyph glyph-name="gbreve.salt" horiz-adv-x="675" 
d="M345 620q-49 0 -90 12.5t-58 25.5l-17 12v110q2 -2 7 -6.5t21 -14.5t33.5 -18t46 -14.5t57.5 -6.5q47 0 88 15t59 30l18 15v-110q-6 -6 -18.5 -14t-55 -22t-91.5 -14zM460 50v55h-5q-1 -4 -4.5 -10t-16.5 -21.5t-29.5 -27.5t-47.5 -21.5t-67 -9.5q-99 0 -172 77t-73 188
t73 188t172 77q36 0 66.5 -9.5t48 -22.5t29.5 -26t16 -23l5 -9h5l6 75h139v-480q0 -132 -78.5 -208.5t-216.5 -76.5q-52 0 -94.5 7.5t-59.5 15.5l-16 7l-25 145q7 -5 21 -12.5t61 -20t98 -12.5q165 0 165 155zM195 280q0 -62 36.5 -98.5t93.5 -36.5q61 0 98 36t37 99t-37 99
t-98 36q-57 0 -93.5 -36.5t-36.5 -98.5z" />
    <glyph glyph-name="gcommaaccent.salt" horiz-adv-x="675" 
d="M260 675q0 47 19 85.5t37 53.5l19 16h50q-6 -6 -14 -15.5t-22 -37.5t-14 -52q24 0 39.5 -15.5t15.5 -44.5t-19 -47t-46 -18q-28 0 -46.5 19.5t-18.5 55.5zM460 50v55h-5q-1 -4 -4.5 -10t-16.5 -21.5t-29.5 -27.5t-47.5 -21.5t-67 -9.5q-99 0 -172 77t-73 188t73 188
t172 77q36 0 66.5 -9.5t48 -22.5t29.5 -26t16 -23l5 -9h5l6 75h139v-480q0 -132 -78.5 -208.5t-216.5 -76.5q-52 0 -94.5 7.5t-59.5 15.5l-16 7l-25 145q7 -5 21 -12.5t61 -20t98 -12.5q165 0 165 155zM195 280q0 -62 36.5 -98.5t93.5 -36.5q61 0 98 36t37 99t-37 99t-98 36
q-57 0 -93.5 -36.5t-36.5 -98.5z" />
    <glyph glyph-name="l.salt" horiz-adv-x="325" 
d="M305 120v-115q-30 -20 -85 -20q-70 0 -110 47t-40 138v590h145v-590q0 -36 10.5 -48t34.5 -12q11 0 22.5 2.5t17.5 5.5z" />
    <glyph glyph-name="lacute.salt" horiz-adv-x="325" 
d="M95 830l65 190h155l-130 -190h-90zM305 120v-115q-30 -20 -85 -20q-70 0 -110 47t-40 138v590h145v-590q0 -36 10.5 -48t34.5 -12q11 0 22.5 2.5t17.5 5.5z" />
    <glyph glyph-name="lcaron.salt" horiz-adv-x="375" 
d="M305 120v-115q-30 -20 -85 -20q-70 0 -110 47t-40 138v590h145v-590q0 -36 10.5 -48t34.5 -12q11 0 22.5 2.5t17.5 5.5zM405 718q0 -29 -7.5 -56t-18.5 -44t-22.5 -30t-18.5 -19l-8 -6h-50q6 6 14 15.5t22 37.5t14 52q-24 0 -39.5 15.5t-15.5 44.5t19 47t46 18
q28 0 46.5 -19.5t18.5 -55.5z" />
    <glyph glyph-name="lslash.salt" horiz-adv-x="345" 
d="M325 120v-115q-30 -20 -85 -20q-70 0 -110 47t-40 138v135l-70 -20v125l70 20v330h145v-285l70 21v-125l-70 -21v-180q0 -36 10.5 -48t34.5 -12q11 0 22.5 2.5t17.5 5.5z" />
    <glyph glyph-name="lcommaaccent.salt" horiz-adv-x="325" 
d="M305 120v-115q-30 -20 -85 -20q-70 0 -110 47t-40 138v590h145v-590q0 -36 10.5 -48t34.5 -12q11 0 22.5 2.5t17.5 5.5zM230 -138q0 -47 -19 -85.5t-37 -54.5l-19 -15h-50q6 6 14 15.5t22 37.5t14 52q-24 0 -39.5 15.5t-15.5 44.5t19 47t46 18q28 0 46.5 -19.5
t18.5 -55.5z" />
    <glyph glyph-name="y.salt" horiz-adv-x="610" 
d="M600 530l-210 -525q-59 -149 -101.5 -194.5t-118.5 -45.5l-45 5l-25 130q15 -10 45 -10q28 0 51 25.5t44 89.5l-230 525h155l145 -340h5l130 340h155z" />
    <glyph glyph-name="yacute.salt" horiz-adv-x="610" 
d="M260 590l65 190h155l-130 -190h-90zM600 530l-210 -525q-59 -149 -101.5 -194.5t-118.5 -45.5l-45 5l-25 130q15 -10 45 -10q28 0 51 25.5t44 89.5l-230 525h155l145 -340h5l130 340h155z" />
    <glyph glyph-name="ydieresis.salt" horiz-adv-x="610" 
d="M600 530l-210 -525q-59 -149 -101.5 -194.5t-118.5 -45.5l-45 5l-25 130q15 -10 45 -10q28 0 51 25.5t44 89.5l-230 525h155l145 -340h5l130 340h155zM125 685q0 37 20 56t55 19t55 -19t20 -56q0 -36 -20.5 -55.5t-54.5 -19.5q-35 0 -55 19t-20 56zM340 685q0 37 20 56
t55 19t55 -19t20 -56q0 -36 -20.5 -55.5t-54.5 -19.5q-35 0 -55 19t-20 56z" />
    <glyph glyph-name="afii10085.salt" horiz-adv-x="610" 
d="M600 530l-210 -525q-59 -149 -101.5 -194.5t-118.5 -45.5l-45 5l-25 130q15 -10 45 -10q28 0 51 25.5t44 89.5l-230 525h155l145 -340h5l130 340h155z" />
    <glyph glyph-name="afii10110.salt" horiz-adv-x="610" 
d="M600 530l-210 -525q-59 -149 -101.5 -194.5t-118.5 -45.5l-45 5l-25 130q15 -10 45 -10q28 0 51 25.5t44 89.5l-230 525h155l145 -340h5l130 340h155zM305 600q-38 0 -73 10t-51 20l-16 10v110q7 -6 19 -15t48.5 -24.5t72.5 -15.5t71 13.5t52 27.5l17 14v-110
q-55 -40 -140 -40z" />
    <glyph glyph-name="f_l.salt" horiz-adv-x="750" 
d="M730 120v-115q-30 -20 -85 -20q-70 0 -110 47t-40 138v480q-34 0 -84 10t-76 10q-35 0 -55 -20t-20 -60v-60h160v-130h-160v-400h-145v400h-90v130h90v70q0 93 50.5 146.5t134.5 53.5q48 0 107 -10t88 -10h145v-610q0 -36 10.5 -48t34.5 -12q11 0 22.5 2.5t16.5 5.5z" />
    <glyph glyph-name="f_f_l.salt" horiz-adv-x="1130" 
d="M260 570v-40h235v70q0 93 50.5 146.5t134.5 53.5q48 0 107 -10t88 -10h145v-610q0 -36 10.5 -48t34.5 -12q11 0 22.5 2.5t16.5 5.5l6 2v-115q-30 -20 -85 -20q-70 0 -110 47t-40 138v480q-34 0 -84 10t-76 10q-35 0 -55 -20t-20 -60v-60h160v-130h-160v-400h-145v400
h-235v-400h-145v400h-90v130h90v50q0 93 50.5 146.5t134.5 53.5q44 0 81.5 -12.5t52.5 -25.5l16 -12l-45 -105q-20 25 -70 25q-35 0 -55 -20t-20 -60z" />
    </font>
</defs>
</svg>
