<?xml version="1.0" standalone="no"?>
<!DOCTYPE svg PUBLIC "-//W3C//DTD SVG 1.1//EN" "http://www.w3.org/Graphics/SVG/1.1/DTD/svg11.dtd" >
<svg xmlns="http://www.w3.org/2000/svg" xmlns:xlink="http://www.w3.org/1999/xlink" version="1.1">
<metadata>
Created by FontForge 20170731 at Wed Dec  6 20:29:27 2017
 By Aleksey,,,
Copyright (c) 2018 by TypeType. Designer Ivan Gladkikh, technical designers Philipp Nurullin, Nadyr Rakhimov, Olexa Volochay, Vika Usmanova. All rights reserved.
</metadata>
<defs>
<font id="TTWellingtons-ExtraBold" horiz-adv-x="590" >
  <font-face 
    font-family="TT Wellingtons DemiBold"
    font-weight="800"
    font-stretch="normal"
    units-per-em="1000"
    panose-1="2 0 9 3 0 0 0 2 0 4"
    ascent="800"
    descent="-200"
    x-height="530"
    cap-height="730"
    bbox="-210 -295 1485 1025"
    underline-thickness="50"
    underline-position="-250"
    unicode-range="U+000D-FB14"
  />
<missing-glyph horiz-adv-x="570" 
d="M85 730h400v-730h-400v730zM400 55l-115 245l-115 -245h230zM285 430l115 245h-230zM315 365l115 -245v490zM255 365l-115 245v-490z" />
    <glyph glyph-name="f_f" unicode="ff" horiz-adv-x="870" 
d="M505 530v60q0 97 54.5 153.5t145.5 56.5q44 0 84 -14t58 -28l18 -13l-50 -120q-15 25 -60 25q-35 0 -55 -19t-20 -56v-45h160v-155h-160v-375h-175v375h-225v-375h-175v375h-85v155h85v40q0 97 54.5 153.5t145.5 56.5q44 0 84 -14t58 -28l18 -13l-50 -120q-15 25 -60 25
q-35 0 -55 -19t-20 -56v-25h225z" />
    <glyph glyph-name="f_i" unicode="fi" horiz-adv-x="745" 
d="M680 545v-545h-175v375h-225v-375h-175v375h-85v155h85v60q0 97 54.5 153.5t145.5 56.5q44 0 84 -14t58 -28l18 -13l-50 -120q-15 25 -60 25q-35 0 -55 -19t-20 -56v-45h312q21 0 43 4t33 8zM495 685q0 41 27 65.5t70 24.5q44 0 71 -24.5t27 -65.5t-27 -65.5t-71 -24.5
q-43 0 -70 24.5t-27 65.5z" />
    <glyph glyph-name="f_l" unicode="fl" horiz-adv-x="745" 
d="M505 780h175v-780h-175v630q-31 0 -77 10t-73 10q-35 0 -55 -19t-20 -56v-45h160v-155h-160v-375h-175v375h-85v155h85v60q0 97 54.5 153.5t145.5 56.5q58 0 117 -10t83 -10z" />
    <glyph glyph-name="f_f_i" unicode="ffi" horiz-adv-x="1145" 
d="M1080 545v-545h-175v375h-225v-375h-175v375h-225v-375h-175v375h-85v155h85v40q0 97 54.5 153.5t145.5 56.5q44 0 84 -14t58 -28l18 -13l-50 -120q-15 25 -60 25q-35 0 -55 -19t-20 -56v-25h225v60q0 97 54.5 153.5t145.5 56.5q44 0 84 -14t58 -28l18 -13l-50 -120
q-15 25 -60 25q-35 0 -55 -19t-20 -56v-45h312q21 0 43 4t33 8zM895 685q0 41 27 65.5t70 24.5q44 0 71 -24.5t27 -65.5t-27 -65.5t-71 -24.5q-43 0 -70 24.5t-27 65.5z" />
    <glyph glyph-name="f_f_l" unicode="ffl" horiz-adv-x="1145" 
d="M1080 780v-780h-175v630q-31 0 -77 10t-73 10q-35 0 -55 -19t-20 -56v-45h160v-155h-160v-375h-175v375h-225v-375h-175v375h-85v155h85v40q0 97 54.5 153.5t145.5 56.5q44 0 84 -14t58 -28l18 -13l-50 -120q-15 25 -60 25q-35 0 -55 -19t-20 -56v-25h225v60
q0 97 54.5 153.5t145.5 56.5q58 0 117 -10t83 -10h175z" />
    <glyph glyph-name="f_f_b" unicode="ffb" horiz-adv-x="1525" 
d="M1080 780v-300h5q5 7 15.5 18t49 29t85.5 18q110 0 180 -74.5t70 -200.5q0 -133 -81 -209t-229 -76q-71 0 -138.5 10.5t-99.5 20.5l-32 10v604q-31 0 -77 10t-73 10q-35 0 -55 -19t-20 -56v-45h160v-155h-160v-375h-175v375h-225v-375h-175v375h-85v155h85v40
q0 97 54.5 153.5t145.5 56.5q44 0 84 -14t58 -28l18 -13l-50 -120q-15 25 -60 25q-35 0 -55 -19t-20 -56v-25h225v60q0 97 54.5 153.5t145.5 56.5q58 0 117 -10t83 -10h175zM1080 338v-183q40 -20 95 -20q61 0 98 36t37 99q0 59 -34 92t-91 33q-31 0 -57.5 -14.5
t-37.5 -28.5z" />
    <glyph glyph-name="f_f_f" unicode="fff" horiz-adv-x="1270" 
d="M905 530v40q0 97 54.5 153.5t145.5 56.5q44 0 84 -14t58 -28l18 -13l-50 -120q-15 25 -60 25q-35 0 -55 -19t-20 -56v-25h160v-155h-160v-375h-175v375h-225v-375h-175v375h-225v-375h-175v375h-85v155h85v40q0 97 54.5 153.5t145.5 56.5q44 0 84 -14t58 -28l18 -13
l-50 -120q-15 25 -60 25q-35 0 -55 -19t-20 -56v-25h225v60q0 97 54.5 153.5t145.5 56.5q44 0 84.5 -14t58.5 -28l18 -13l-50 -120q-16 25 -61 25q-35 0 -55 -19t-20 -56v-45h225z" />
    <glyph glyph-name="f_f_h" unicode="ffh" horiz-adv-x="1510" 
d="M1450 0h-175v307q0 42 -23 65t-62 23q-46 0 -78 -32t-32 -84v-279h-175v630q-31 0 -77 10t-73 10q-35 0 -55 -19t-20 -56v-45h160v-155h-160v-375h-175v375h-225v-375h-175v375h-85v155h85v40q0 97 54.5 153.5t145.5 56.5q44 0 84 -14t58 -28l18 -13l-50 -120
q-15 25 -60 25q-35 0 -55 -19t-20 -56v-25h225v60q0 97 54.5 153.5t145.5 56.5q58 0 117 -10t83 -10h175v-320h5q2 3 5 9t16.5 20.5t30 26t45.5 20.5t63 9q94 0 149.5 -57t55.5 -158v-330z" />
    <glyph glyph-name="f_f_j" unicode="ffj" horiz-adv-x="1145" 
d="M1080 545v-545q0 -108 -60.5 -169.5t-169.5 -65.5l-35 150q90 7 90 85v375h-225v-375h-175v375h-225v-375h-175v375h-85v155h85v40q0 97 54.5 153.5t145.5 56.5q44 0 84 -14t58 -28l18 -13l-50 -120q-15 25 -60 25q-35 0 -55 -19t-20 -56v-25h225v60q0 97 54.5 153.5
t145.5 56.5q44 0 84 -14t58 -28l18 -13l-50 -120q-15 25 -60 25q-35 0 -55 -19t-20 -56v-45h312q21 0 43 4t33 8zM895 685q0 41 27 65.5t70 24.5q44 0 71 -24.5t27 -65.5t-27 -65.5t-71 -24.5q-43 0 -70 24.5t-27 65.5z" />
    <glyph glyph-name="f_f_k" unicode="ffk" horiz-adv-x="1465" 
d="M1080 120v-120h-175v630q-31 0 -77 10t-73 10q-35 0 -55 -19t-20 -56v-45h160v-155h-160v-375h-175v375h-225v-375h-175v375h-85v155h85v40q0 97 54.5 153.5t145.5 56.5q44 0 84 -14t58 -28l18 -13l-50 -120q-15 25 -60 25q-35 0 -55 -19t-20 -56v-25h225v60
q0 97 54.5 153.5t145.5 56.5q58 0 117 -10t83 -10h175v-460l180 210h195l-200 -225l220 -305h-190l-140 195z" />
    <glyph glyph-name="f_h" unicode="fh" horiz-adv-x="1110" 
d="M1050 0h-175v307q0 42 -23 65t-62 23q-46 0 -78 -32t-32 -84v-279h-175v630q-31 0 -77 10t-73 10q-35 0 -55 -19t-20 -56v-45h160v-155h-160v-375h-175v375h-85v155h85v60q0 97 54.5 153.5t145.5 56.5q58 0 117 -10t83 -10h175v-320h5q2 3 5 9t16.5 20.5t30 26t45.5 20.5
t63 9q94 0 149.5 -57t55.5 -158v-330z" />
    <glyph glyph-name="f_j" unicode="fj" horiz-adv-x="745" 
d="M680 545v-545q0 -108 -60.5 -169.5t-169.5 -65.5l-35 150q90 7 90 85v375h-225v-375h-175v375h-85v155h85v60q0 97 54.5 153.5t145.5 56.5q44 0 84 -14t58 -28l18 -13l-50 -120q-15 25 -60 25q-35 0 -55 -19t-20 -56v-45h312q21 0 43 4t33 8zM495 685q0 41 27 65.5
t70 24.5q44 0 71 -24.5t27 -65.5t-27 -65.5t-71 -24.5q-43 0 -70 24.5t-27 65.5z" />
    <glyph glyph-name="f_k" unicode="fk" horiz-adv-x="1065" 
d="M680 120v-120h-175v630q-31 0 -77 10t-73 10q-35 0 -55 -19t-20 -56v-45h160v-155h-160v-375h-175v375h-85v155h85v60q0 97 54.5 153.5t145.5 56.5q58 0 117 -10t83 -10h175v-460l180 210h195l-200 -225l220 -305h-190l-140 195z" />
    <glyph glyph-name="f_t" unicode="ft" horiz-adv-x="900" 
d="M505 195v180h-225v-375h-175v375h-85v155h85v60q0 97 54.5 153.5t145.5 56.5q44 0 84 -14t58 -28l18 -13l-50 -120q-15 25 -60 25q-35 0 -55 -19t-20 -56v-45h260l135 130h5v-130h160v-155h-160v-165q0 -37 20 -56t55 -19q22 0 42 8.5t29 17.5l9 9h15v-140
q-6 -5 -17.5 -12.5t-49.5 -20t-78 -12.5q-91 0 -145.5 56.5t-54.5 153.5z" />
    <glyph glyph-name="f_b" unicode="fb" horiz-adv-x="1125" 
d="M680 780v-300h5q5 7 15.5 18t49 29t85.5 18q110 0 180 -74.5t70 -200.5q0 -133 -81 -209t-229 -76q-71 0 -138.5 10.5t-99.5 20.5l-32 10v604q-31 0 -77 10t-73 10q-35 0 -55 -19t-20 -56v-45h160v-155h-160v-375h-175v375h-85v155h85v60q0 97 54.5 153.5t145.5 56.5
q58 0 117 -10t83 -10h175zM680 338v-183q40 -20 95 -20q61 0 98 36t37 99q0 59 -34 92t-91 33q-31 0 -57.5 -14.5t-37.5 -28.5z" />
    <glyph glyph-name=".notdef" horiz-adv-x="570" 
d="M85 730h400v-730h-400v730zM400 55l-115 245l-115 -245h230zM285 430l115 245h-230zM315 365l115 -245v490zM255 365l-115 245v-490z" />
    <glyph glyph-name=".null" horiz-adv-x="0" 
 />
    <glyph glyph-name=".null" horiz-adv-x="0" 
 />
    <glyph glyph-name="nonmarkingreturn" horiz-adv-x="333" 
 />
    <glyph glyph-name="CR" unicode="&#xd;" horiz-adv-x="0" 
 />
    <glyph glyph-name="space" unicode=" " horiz-adv-x="275" 
 />
    <glyph glyph-name="exclam" unicode="!" horiz-adv-x="320" 
d="M250 635l-25 -380h-130l-25 380v165h180v-165zM65 85q0 44 26.5 69.5t68.5 25.5t68.5 -25.5t26.5 -69.5t-26.5 -69.5t-68.5 -25.5t-68.5 25.5t-26.5 69.5z" />
    <glyph glyph-name="quotedbl" unicode="&#x22;" horiz-adv-x="475" 
d="M70 500l-15 190v110h150v-110l-15 -190h-120zM285 500l-15 190v110h150v-110l-15 -190h-120z" />
    <glyph glyph-name="numbersign" unicode="#" horiz-adv-x="740" 
d="M500 730h150l-35 -160h95v-130h-120l-30 -150h110v-130h-135l-30 -160h-150l30 160h-110l-30 -160h-150l30 160h-95v130h120l30 150h-110v130h135l35 160h150l-35 -160h110zM330 440l-30 -150h110l30 150h-110z" />
    <glyph glyph-name="dollar" unicode="$" horiz-adv-x="605" 
d="M220 -95v87q-49 8 -94 31.5t-66 42.5l-20 19l60 140l8.5 -8.5t23.5 -19.5t37.5 -24.5t49.5 -19t61 -8.5q100 0 100 65q0 27 -33.5 50t-81 44t-95.5 48t-81.5 74.5t-33.5 110.5q0 76 44 127.5t121 70.5v90h160v-89q42 -9 79.5 -27t54.5 -31l16 -13l-60 -145q-6 7 -17 18
t-51 29t-87 18q-75 0 -75 -55q0 -23 33.5 -43t81 -40.5t95.5 -47t81.5 -74t33.5 -110.5q0 -78 -45.5 -135t-124.5 -80v-95h-175z" />
    <glyph glyph-name="percent" unicode="%" horiz-adv-x="970" 
d="M155 560q0 -29 19 -47t46 -18t46 18t19 47t-19 47t-46 18t-46 -18t-19 -47zM325 0h-155l475 730h155zM410 560q0 -79 -54 -132t-136 -53t-136 53t-54 132t54 132t136 53t136 -53t54 -132zM815 170q0 29 -19 47t-46 18t-46 -18t-19 -47t19 -47t46 -18t46 18t19 47z
M560 170q0 79 54 132t136 53t136 -53t54 -132t-54 -132t-136 -53t-136 53t-54 132z" />
    <glyph glyph-name="ampersand" unicode="&#x26;" horiz-adv-x="760" 
d="M615 165l180 -165h-215l-70 70q-3 -3 -9.5 -9t-29.5 -20.5t-49 -26t-69 -20.5t-89 -9q-119 0 -184 55.5t-65 144.5q0 41 15.5 77t37.5 58.5t44 39t38 23.5l15 7q-7 7 -17 19.5t-26.5 51.5t-16.5 79q0 91 60 148t160 57q95 0 152.5 -51.5t57.5 -128.5q0 -36 -14 -69.5
t-33.5 -55.5t-39.5 -38.5t-34 -23.5l-14 -8l105 -95l205 185v-210zM390 175l-130 120q-2 -1 -6.5 -2.5t-14.5 -8.5t-18 -16t-14.5 -24.5t-6.5 -33.5q0 -75 88 -75q27 0 52.5 10t37.5 20zM390 550q0 25 -16 40t-39 15q-30 0 -47.5 -16t-17.5 -49q0 -22 10 -43.5t20 -31.5
l10 -10q9 4 22.5 11.5t35.5 32t22 51.5z" />
    <glyph glyph-name="quotesingle" unicode="'" horiz-adv-x="260" 
d="M70 500l-15 190v110h150v-110l-15 -190h-120z" />
    <glyph glyph-name="parenleft" unicode="(" horiz-adv-x="385" 
d="M215 290q0 -85 15.5 -169t37.5 -143t44 -105.5t38 -69.5l15 -23h-130q-7 8 -19.5 24t-43.5 67.5t-54.5 107.5t-43 141t-19.5 170t18.5 169t45 143t53 105.5t44.5 69.5l19 23h130q-6 -8 -16 -24t-36 -67.5t-46 -107.5t-36 -141t-16 -170z" />
    <glyph glyph-name="parenright" unicode=")" horiz-adv-x="385" 
d="M170 290q0 85 -15.5 169t-37.5 143t-44 105.5t-37 69.5l-16 23h130q7 -8 19.5 -24t43.5 -67.5t54.5 -107.5t43 -141t19.5 -170t-18.5 -169t-45 -143t-53 -105.5t-45.5 -69.5l-18 -23h-130q6 8 16 24t36 67.5t46 107.5t36 141t16 170z" />
    <glyph glyph-name="asterisk" unicode="*" horiz-adv-x="460" 
d="M230 490l-85 -105l-80 65l85 90l-120 50l35 85l115 -45v120h100v-120l115 45l35 -85l-120 -50l85 -90l-80 -65z" />
    <glyph glyph-name="plus" unicode="+" horiz-adv-x="560" 
d="M40 250v150h165v160h150v-160h165v-150h-165v-160h-150v160h-165z" />
    <glyph glyph-name="comma" unicode="," horiz-adv-x="250" 
d="M30 85q0 44 26.5 69.5t68.5 25.5q43 0 69 -27t26 -78q0 -36 -11 -70.5t-26 -58t-30.5 -41.5t-26.5 -27l-11 -8h-65q60 75 60 120q-36 4 -58 28t-22 67z" />
    <glyph glyph-name="hyphen" unicode="-" horiz-adv-x="430" 
d="M40 250v150h350v-150h-350z" />
    <glyph glyph-name="period" unicode="." horiz-adv-x="250" 
d="M30 85q0 44 26.5 69.5t68.5 25.5t68.5 -25.5t26.5 -69.5t-26.5 -69.5t-68.5 -25.5t-68.5 25.5t-26.5 69.5z" />
    <glyph glyph-name="slash" unicode="/" horiz-adv-x="545" 
d="M0 -220l390 1020h155l-390 -1020h-155z" />
    <glyph glyph-name="zero" unicode="0" horiz-adv-x="670" 
d="M445 265q0 120 -110 120t-110 -120t110 -120t110 120zM630 265q0 -121 -82.5 -200.5t-212.5 -79.5t-212.5 79.5t-82.5 200.5t82.5 200.5t212.5 79.5t212.5 -79.5t82.5 -200.5z" />
    <glyph glyph-name="one" unicode="1" horiz-adv-x="440" 
d="M40 250v175l180 105h145v-530h-180v330z" />
    <glyph glyph-name="two" unicode="2" horiz-adv-x="570" 
d="M25 15l240 220q6 5 15 14t24.5 34t15.5 47q0 26 -17.5 40.5t-47.5 14.5q-28 0 -56.5 -12.5t-48.5 -30t-36.5 -35t-25.5 -29.5l-8 -13h-20v165q4 5 10.5 12.5t29.5 27.5t47.5 35t62 27.5t75.5 12.5q98 0 159 -54t61 -131q0 -44 -21.5 -86.5t-42.5 -63.5l-21 -20l-35 -30
h135v-160h-495v15z" />
    <glyph glyph-name="three" unicode="3" horiz-adv-x="570" 
d="M245 140q-27 0 -49.5 -6t-31.5 -12l-9 -7l-55 75l133 180h-178v160h460v-15l-195 -250v-5q5 0 13 -1t31.5 -7t44.5 -14.5t47 -26.5t44.5 -41t31.5 -59.5t13 -80.5q0 -107 -75.5 -176t-204.5 -69q-69 0 -130 22.5t-88 44.5l-27 23l55 130q7 -7 21 -17t58 -26.5t91 -16.5
q115 0 115 100q0 45 -29.5 70t-85.5 25z" />
    <glyph glyph-name="four" unicode="4" horiz-adv-x="645" 
d="M635 160v-160h-100v-200h-180v200h-350v15l280 515h190l-205 -370h90l30 125h145v-125h100z" />
    <glyph glyph-name="five" unicode="5" horiz-adv-x="600" 
d="M380 45q0 45 -32 72.5t-86 27.5q-28 0 -53.5 -11t-36.5 -22l-12 -12l-100 60l55 370h410v-160h-284l-16 -95q30 10 70 10q122 0 193.5 -66.5t71.5 -173.5q0 -118 -73.5 -189t-206.5 -71q-67 0 -128 22.5t-89 44.5l-28 23l50 130q8 -7 22.5 -17t60 -26.5t92.5 -16.5
q57 0 88.5 26t31.5 74z" />
    <glyph glyph-name="six" unicode="6" horiz-adv-x="655" 
d="M295 730h215q-7 -5 -19.5 -15t-47 -40t-64.5 -61t-63 -74.5t-51 -84.5h5q40 25 110 25q105 0 172.5 -68.5t67.5 -176.5t-79 -179t-211 -71q-134 0 -209.5 75.5t-75.5 204.5q0 77 25.5 153t62.5 130t74 97t63 64zM330 330q-45 0 -72.5 -26.5t-27.5 -68.5t27.5 -68.5
t72.5 -26.5q48 0 76.5 26.5t28.5 68.5t-28.5 68.5t-76.5 26.5z" />
    <glyph glyph-name="seven" unicode="7" horiz-adv-x="565" 
d="M295 -200h-180l215 570h-300v160h525v-15z" />
    <glyph glyph-name="eight" unicode="8" horiz-adv-x="650" 
d="M325 135q48 0 76.5 26.5t28.5 68.5t-28.5 68.5t-76.5 26.5t-76.5 -26.5t-28.5 -68.5t28.5 -68.5t76.5 -26.5zM325 455q33 0 54 20t21 50t-21 50t-54 20t-54 -20t-21 -50t21 -50t54 -20zM325 745q116 0 185.5 -59t69.5 -144q0 -30 -9.5 -56t-22.5 -42t-26 -27.5t-22 -16.5
l-10 -5v-5q5 -2 13.5 -5.5t30 -18t38 -32.5t30 -51.5t13.5 -72.5q0 -98 -76.5 -161.5t-213.5 -63.5t-213.5 63.5t-76.5 161.5q0 39 13 72t31.5 52t36.5 32.5t31 18.5l13 5v5l-10 5t-21.5 16t-27.5 28t-21.5 41.5t-9.5 56.5q0 85 69.5 144t185.5 59z" />
    <glyph glyph-name="nine" unicode="9" horiz-adv-x="655" 
d="M360 -200h-215q7 5 19.5 15t47 40t64.5 61t63 74.5t51 84.5h-5q-40 -25 -110 -25q-105 0 -172.5 68.5t-67.5 176.5t79 179t211 71q134 0 209.5 -75.5t75.5 -204.5q0 -56 -14 -112t-36 -100.5t-48.5 -85.5t-53 -71t-48.5 -52t-36 -33zM325 200q45 0 72.5 26.5t27.5 68.5
t-27.5 68.5t-72.5 26.5q-48 0 -76.5 -26.5t-28.5 -68.5t28.5 -68.5t76.5 -26.5z" />
    <glyph glyph-name="colon" unicode=":" horiz-adv-x="270" 
d="M40 85q0 44 26.5 69.5t68.5 25.5t68.5 -25.5t26.5 -69.5t-26.5 -69.5t-68.5 -25.5t-68.5 25.5t-26.5 69.5zM40 445q0 44 26.5 69.5t68.5 25.5t68.5 -25.5t26.5 -69.5t-26.5 -69.5t-68.5 -25.5t-68.5 25.5t-26.5 69.5z" />
    <glyph glyph-name="semicolon" unicode=";" horiz-adv-x="270" 
d="M40 85q0 44 26.5 69.5t68.5 25.5q43 0 69 -27t26 -78q0 -36 -11 -70.5t-26 -58t-30.5 -41.5t-26.5 -27l-11 -8h-65q60 75 60 120q-36 4 -58 28t-22 67zM40 445q0 44 26.5 69.5t68.5 25.5t68.5 -25.5t26.5 -69.5t-26.5 -69.5t-68.5 -25.5t-68.5 25.5t-26.5 69.5z" />
    <glyph glyph-name="less" unicode="&#x3c;" horiz-adv-x="560" 
d="M300 260l215 -110v-150l-480 255v20l480 255v-150l-215 -110v-10z" />
    <glyph glyph-name="equal" unicode="=" horiz-adv-x="560" 
d="M55 135v140h450v-140h-450zM55 370v140h450v-140h-450z" />
    <glyph glyph-name="greater" unicode="&#x3e;" horiz-adv-x="560" 
d="M45 150l215 110v10l-215 110v150l480 -255v-20l-480 -255v150z" />
    <glyph glyph-name="question" unicode="?" horiz-adv-x="525" 
d="M55 515v170q8 7 24 17t67 26.5t104 16.5q113 0 174 -55.5t61 -144.5q0 -42 -18 -80t-43.5 -65.5t-51.5 -53t-44 -54t-18 -57.5h-165q0 42 16.5 78t40 61.5t47 48.5t40 48t16.5 49q0 30 -21.5 47.5t-58.5 17.5q-36 0 -73.5 -17.5t-57.5 -35.5l-19 -17h-20zM130 85
q0 44 26.5 69.5t68.5 25.5t68.5 -25.5t26.5 -69.5t-26.5 -69.5t-68.5 -25.5t-68.5 25.5t-26.5 69.5z" />
    <glyph glyph-name="at" unicode="@" horiz-adv-x="985" 
d="M950 345q0 -114 -54 -174.5t-146 -60.5q-49 0 -85 17.5t-48 34.5l-12 18h-10q-1 -3 -3.5 -7.5t-13 -16.5t-24.5 -21.5t-40.5 -17t-58.5 -7.5q-87 0 -141 56t-54 149t54 149t141 56q40 0 71.5 -12.5t42.5 -25.5l11 -12l20 40h105v-220q0 -65 50 -65q65 0 65 120
q0 126 -86.5 205.5t-233.5 79.5q-146 0 -235.5 -88t-89.5 -227q0 -141 90.5 -228t234.5 -87q64 0 116.5 11t73.5 23l20 11v-125q-7 -4 -22 -10t-70 -15.5t-121 -9.5q-202 0 -327 120.5t-125 309.5t125.5 309.5t329.5 120.5q206 0 328 -112t122 -288zM480 230q35 0 57.5 22.5
t22.5 62.5t-22.5 62.5t-57.5 22.5t-57.5 -22.5t-22.5 -62.5t22.5 -62.5t57.5 -22.5z" />
    <glyph glyph-name="A" unicode="A" horiz-adv-x="795" 
d="M400 490h-5l-90 -200h185zM555 140h-315l-60 -140h-190l335 730h145l335 -730h-190z" />
    <glyph glyph-name="B" unicode="B" horiz-adv-x="675" 
d="M85 730h245q137 0 203.5 -52t66.5 -143q0 -34 -11.5 -61t-27.5 -42t-32 -25t-27 -13l-12 -4v-5q6 -1 15.5 -4t34.5 -16.5t44.5 -31.5t35 -52t15.5 -76q0 -94 -69.5 -149.5t-210.5 -55.5h-270v730zM265 300v-150h90q95 0 95 75t-95 75h-90zM335 580h-70v-130h70
q37 0 58.5 17.5t21.5 47.5t-21.5 47.5t-58.5 17.5z" />
    <glyph glyph-name="C" unicode="C" horiz-adv-x="735" 
d="M230 365q0 -98 62 -159t163 -61q35 0 68 10.5t55 25t39 29t25 24.5l8 11h20v-170q-3 -4 -9.5 -10t-29 -21.5t-49 -27.5t-69 -21.5t-88.5 -9.5q-161 0 -270.5 109.5t-109.5 270.5t109.5 270.5t270.5 109.5q53 0 100.5 -10t77 -23.5t51.5 -27.5t32 -24l9 -10l-65 -140
q-2 3 -6.5 8t-20.5 18t-34.5 23t-49 18t-64.5 8q-101 0 -163 -61t-62 -159z" />
    <glyph glyph-name="D" unicode="D" horiz-adv-x="785" 
d="M345 730q174 0 284.5 -104.5t110.5 -260.5t-110.5 -260.5t-284.5 -104.5h-260v730h260zM345 570h-80v-410h80q93 0 151.5 57.5t58.5 147.5t-58.5 147.5t-151.5 57.5z" />
    <glyph glyph-name="E" unicode="E" horiz-adv-x="650" 
d="M85 0v730h505v-160h-325v-125h250v-160h-250v-125h325v-160h-505z" />
    <glyph glyph-name="F" unicode="F" horiz-adv-x="630" 
d="M515 265h-250v-265h-180v730h505v-160h-325v-145h250v-160z" />
    <glyph glyph-name="G" unicode="G" horiz-adv-x="815" 
d="M425 745q53 0 101.5 -10.5t79.5 -25t54.5 -29t33.5 -24.5l11 -11l-65 -145q-2 3 -6.5 9t-21 20.5t-36 26t-52.5 20.5t-69 9q-101 0 -163 -61t-62 -159q0 -97 60.5 -158.5t154.5 -61.5q42 0 77 12.5t49 24.5l14 13v80h-185l40 155h310v-300q-4 -6 -12 -15.5t-37.5 -34.5
t-64 -44.5t-91.5 -35t-120 -15.5q-161 0 -270.5 109.5t-109.5 270.5t109.5 270.5t270.5 109.5z" />
    <glyph glyph-name="H" unicode="H" horiz-adv-x="810" 
d="M725 730v-730h-180v287h-280v-287h-180v730h180v-283h280v283h180z" />
    <glyph glyph-name="I" unicode="I" horiz-adv-x="350" 
d="M265 730v-730h-180v730h180z" />
    <glyph glyph-name="J" unicode="J" horiz-adv-x="360" 
d="M95 50v680h180v-680q0 -222 -240 -245l-25 160q46 4 65.5 22.5t19.5 62.5z" />
    <glyph glyph-name="K" unicode="K" horiz-adv-x="745" 
d="M475 415l280 -415h-206l-194 285l-90 -110v-175h-180v730h180v-320l265 320h206z" />
    <glyph glyph-name="L" unicode="L" horiz-adv-x="575" 
d="M265 730v-570h280v-160h-460v730h180z" />
    <glyph glyph-name="M" unicode="M" horiz-adv-x="995" 
d="M500 290l155 440h185l105 -730h-185l-50 430h-5l-150 -430h-115l-150 430h-5l-50 -430h-185l105 730h185l155 -440h5z" />
    <glyph glyph-name="N" unicode="N" horiz-adv-x="830" 
d="M745 730v-730h-175l-305 435v-435h-180v730h175l305 -435v435h180z" />
    <glyph glyph-name="O" unicode="O" horiz-adv-x="880" 
d="M230 365q0 -97 59.5 -158.5t150.5 -61.5t150.5 61.5t59.5 158.5t-59.5 158.5t-150.5 61.5t-150.5 -61.5t-59.5 -158.5zM835 365q0 -162 -112 -271t-283 -109t-283 109t-112 271t112 271t283 109t283 -109t112 -271z" />
    <glyph glyph-name="P" unicode="P" horiz-adv-x="675" 
d="M265 200v-200h-180v730h240q140 0 220 -73t80 -192t-80 -192t-220 -73h-60zM265 570v-210h60q53 0 84 28t31 77t-31 77t-84 28h-60z" />
    <glyph glyph-name="Q" unicode="Q" horiz-adv-x="885" 
d="M45 365q0 162 112 271t283 109t283 -109t112 -271q0 -56 -14 -106.5t-33.5 -82.5t-39.5 -56t-34 -34l-14 -11q3 -7 9.5 -18t29 -29t46.5 -18q13 0 25.5 3.5t18.5 7.5l6 4h20v-145q-25 -20 -92 -20q-40 0 -76 14.5t-59 35t-40.5 41t-25.5 35.5l-7 14q-45 -15 -115 -15
q-171 0 -283 109t-112 271zM230 365q0 -42 14 -79.5t28 -53.5l13 -17q2 6 5.5 15.5t18 33.5t32.5 42.5t48.5 33.5t65.5 15q53 0 93 -29t54 -58l13 -28q35 45 35 125q0 97 -59.5 158.5t-150.5 61.5t-150.5 -61.5t-59.5 -158.5zM440 145l50 5q-1 3 -4 7.5t-12 16.5t-18.5 21.5
t-25 17t-30.5 7.5q-22 0 -38.5 -11t-21.5 -23l-5 -11q40 -30 105 -30z" />
    <glyph glyph-name="R" unicode="R" horiz-adv-x="690" 
d="M265 570v-200h60q115 0 115 100t-115 100h-60zM500 265l175 -265h-200l-145 220h-65v-220h-180v730h240q139 0 219.5 -71.5t80.5 -183.5q0 -42 -13 -78.5t-31.5 -58.5t-36.5 -38.5t-31 -23.5l-13 -6v-5z" />
    <glyph glyph-name="S" unicode="S" horiz-adv-x="605" 
d="M295 745q64 0 123 -20t86 -40l26 -20l-60 -145q-6 7 -17 18t-51 29t-87 18q-75 0 -75 -55q0 -23 33.5 -43t81 -40.5t95.5 -47t81.5 -74t33.5 -110.5q0 -100 -73 -165t-197 -65q-46 0 -89.5 10.5t-72 25t-50.5 29t-33 24.5l-10 11l60 140l8.5 -8.5t23.5 -19.5t37.5 -24.5
t49.5 -19t61 -8.5q100 0 100 65q0 27 -33.5 50t-81 44t-95.5 48t-81.5 74.5t-33.5 110.5q0 91 65 149.5t175 58.5z" />
    <glyph glyph-name="T" unicode="T" horiz-adv-x="670" 
d="M35 730h600v-160h-210v-570h-180v570h-210v160z" />
    <glyph glyph-name="U" unicode="U" horiz-adv-x="790" 
d="M395 -15q-149 0 -234.5 83.5t-85.5 226.5v435h180v-435q0 -71 38 -110.5t102 -39.5t102 39.5t38 110.5v435h180v-435q0 -143 -85.5 -226.5t-234.5 -83.5z" />
    <glyph glyph-name="V" unicode="V" horiz-adv-x="785" 
d="M320 0l-310 730h190l190 -465h5l190 465h190l-310 -730h-145z" />
    <glyph glyph-name="W" unicode="W" horiz-adv-x="1105" 
d="M560 730l185 -455h5l155 455h190l-255 -730h-150l-135 340h-5l-135 -340h-150l-255 730h190l155 -455h5l185 455h15z" />
    <glyph glyph-name="X" unicode="X" horiz-adv-x="760" 
d="M530 0l-150 250l-150 -250h-210l245 375l-230 355h210l135 -230l135 230h210l-230 -355l245 -375h-210z" />
    <glyph glyph-name="Y" unicode="Y" horiz-adv-x="730" 
d="M455 300v-300h-180v300l-265 430h200l155 -265l155 265h200z" />
    <glyph glyph-name="Z" unicode="Z" horiz-adv-x="710" 
d="M55 135l350 435h-330v160h570v-135l-350 -435h360v-160h-600v135z" />
    <glyph glyph-name="bracketleft" unicode="[" horiz-adv-x="430" 
d="M85 -215v1015h310v-145h-155v-725h155v-145h-310z" />
    <glyph glyph-name="backslash" unicode="\" horiz-adv-x="545" 
d="M155 800l390 -1020h-155l-390 1020h155z" />
    <glyph glyph-name="bracketright" unicode="]" horiz-adv-x="430" 
d="M345 800v-1015h-310v145h155v725h-155v145h310z" />
    <glyph glyph-name="asciicircum" unicode="^" horiz-adv-x="545" 
d="M15 365l245 365h25l245 -365h-150l-105 160h-5l-105 -160h-150z" />
    <glyph glyph-name="underscore" unicode="_" horiz-adv-x="450" 
d="M-20 -205v150h490v-150h-490z" />
    <glyph glyph-name="grave" unicode="`" horiz-adv-x="300" 
d="M215 785l55 -195h-105l-135 195h185z" />
    <glyph glyph-name="a" unicode="a" horiz-adv-x="610" 
d="M280 115q31 0 55 22.5t32 44.5l8 23q-35 25 -80 25q-35 0 -55 -18t-20 -42t15.5 -39.5t44.5 -15.5zM295 545q129 0 192 -55.5t63 -159.5v-330h-170l-5 70h-5q-2 -3 -5 -9t-16.5 -20.5t-30 -26t-45.5 -20.5t-63 -9q-78 0 -124 43t-46 112q0 78 54 124t156 46q38 0 69 -7.5
t43 -14.5l13 -8v30q0 85 -105 85q-51 0 -98.5 -16.5t-69.5 -32.5l-22 -16h-15v145q10 8 29 19.5t79 31t122 19.5z" />
    <glyph glyph-name="b" unicode="b" horiz-adv-x="685" 
d="M240 338v-183q40 -20 95 -20q61 0 98 36t37 99q0 59 -34 92t-91 33q-31 0 -57.5 -14.5t-37.5 -28.5zM240 760v-280h5q5 7 15.5 18t49 29t85.5 18q110 0 180 -74.5t70 -200.5q0 -133 -81 -209t-229 -76q-71 0 -138.5 10.5t-99.5 20.5l-32 10v734h175z" />
    <glyph glyph-name="c" unicode="c" horiz-adv-x="565" 
d="M220 265q0 -63 35.5 -96.5t99.5 -33.5q40 0 75 13.5t50 27.5l15 14h15v-145q-7 -7 -20.5 -17t-61 -26.5t-103.5 -16.5q-123 0 -204 80t-81 200t81 200t204 80q38 0 73 -7t58 -17.5t40.5 -21t25.5 -17.5l8 -7l-65 -125q-4 5 -13 12.5t-37.5 20t-59.5 12.5
q-64 0 -99.5 -33.5t-35.5 -96.5z" />
    <glyph glyph-name="d" unicode="d" horiz-adv-x="705" 
d="M465 265q0 59 -35.5 94.5t-89.5 35.5t-89.5 -35.5t-35.5 -94.5t36 -94.5t90 -35.5q53 0 88.5 35.5t35.5 94.5zM465 460v300h175v-760h-170l-5 70h-5q-2 -3 -5.5 -9t-18 -20.5t-32 -26t-48 -20.5t-65.5 -9q-108 0 -179.5 77.5t-71.5 202.5t71.5 202.5t178.5 77.5
q35 0 65.5 -9t48.5 -21t31.5 -24.5t18.5 -21.5l6 -9h5z" />
    <glyph glyph-name="e" unicode="e" horiz-adv-x="630" 
d="M325 545q124 0 194.5 -72t70.5 -203v-35h-390q0 -4 1.5 -11t11.5 -25.5t24.5 -32t45.5 -25t72 -11.5q53 0 97 14t61 28l17 13h15v-140q-9 -7 -26 -17t-71.5 -26.5t-112.5 -16.5q-130 0 -212.5 79.5t-82.5 200.5q0 120 81 200t204 80zM335 410q-52 0 -84.5 -23t-45.5 -57
h225q0 31 -27.5 55.5t-67.5 24.5z" />
    <glyph glyph-name="f" unicode="f" horiz-adv-x="470" 
d="M105 530v60q0 97 54.5 153.5t145.5 56.5q44 0 84 -14t58 -28l18 -13l-50 -120q-15 25 -60 25q-35 0 -55 -19t-20 -56v-45h160v-155h-160v-375h-175v375h-85v155h85z" />
    <glyph glyph-name="g" unicode="g" horiz-adv-x="585" 
d="M50 350q0 89 61 142t174 53q31 0 60 -5t42 -10l13 -5q2 4 5 11t16.5 24t30 30t45.5 24t63 11v-135q-22 0 -42 -5t-29 -10l-9 -5q4 -4 11 -13t18 -40t11 -67q0 -71 -33 -111t-102 -69l-130 -55h115q102 0 153.5 -43t51.5 -117q0 -84 -72 -137t-218 -53q-265 0 -265 135
q0 29 20 55t40 38l20 12h-55v75l160 85q-6 1 -16.5 3t-37.5 14.5t-47 30.5t-37 54.5t-17 82.5zM400 -50q0 28 -24.5 41.5t-85.5 13.5h-75q-5 -1 -12.5 -4t-20 -17t-12.5 -34q0 -28 25.5 -41.5t89.5 -13.5q115 0 115 55zM215 350q0 -33 19.5 -51.5t50.5 -18.5t50.5 18.5
t19.5 51.5t-19.5 51.5t-50.5 18.5t-50.5 -18.5t-19.5 -51.5z" />
    <glyph glyph-name="h" unicode="h" horiz-adv-x="670" 
d="M610 0h-175v307q0 42 -23 65t-62 23q-46 0 -78 -32t-32 -84v-279h-175v760h175v-300h5q2 3 5 9t16.5 20.5t30 26t45.5 20.5t63 9q94 0 149.5 -57t55.5 -158v-330z" />
    <glyph glyph-name="i" unicode="i" horiz-adv-x="305" 
d="M240 535v-535h-175v535q40 -15 87 -15q21 0 43 4t33 8zM55 685q0 41 27 65.5t70 24.5q44 0 71 -24.5t27 -65.5t-27 -65.5t-71 -24.5q-43 0 -70 24.5t-27 65.5z" />
    <glyph glyph-name="j" unicode="j" horiz-adv-x="305" 
d="M240 535v-535q0 -108 -60.5 -169.5t-169.5 -65.5l-35 150q90 7 90 85v535q40 -15 87 -15q21 0 43 4t33 8zM55 685q0 41 27 65.5t70 24.5q44 0 71 -24.5t27 -65.5t-27 -65.5t-71 -24.5q-43 0 -70 24.5t-27 65.5z" />
    <glyph glyph-name="k" unicode="k" horiz-adv-x="625" 
d="M240 120v-120h-175v760h175v-440l180 210h195l-200 -225l220 -305h-190l-140 195z" />
    <glyph glyph-name="l" unicode="l" horiz-adv-x="305" 
d="M240 760v-760h-175v760h175z" />
    <glyph glyph-name="m" unicode="m" horiz-adv-x="1010" 
d="M950 0h-175v305q0 43 -22.5 66.5t-57.5 23.5q-43 0 -71.5 -30.5t-28.5 -84.5v-280h-175v305q0 43 -22.5 66.5t-57.5 23.5q-43 0 -71.5 -30.5t-28.5 -84.5v-280h-175v530h170l5 -70h5q1 3 4.5 9t15.5 20.5t27.5 26t42.5 20.5t59 9q35 0 65.5 -10t49 -23.5t32 -27.5
t19.5 -24l5 -10h5q2 4 5.5 10.5t18 22.5t32.5 28.5t51.5 23t72.5 10.5q91 0 145.5 -57.5t54.5 -157.5v-330z" />
    <glyph glyph-name="n" unicode="n" horiz-adv-x="670" 
d="M610 0h-175v307q0 42 -23 65t-62 23q-46 0 -78 -32t-32 -84v-279h-175v530h170l5 -70h5q2 3 5 9t16.5 20.5t30 26t45.5 20.5t63 9q94 0 149.5 -57t55.5 -158v-330z" />
    <glyph glyph-name="o" unicode="o" horiz-adv-x="680" 
d="M340 545q134 0 217 -79.5t83 -200.5t-83 -200.5t-217 -79.5t-217 79.5t-83 200.5t83 200.5t217 79.5zM340 395q-50 0 -85 -36t-35 -94t35 -94t85 -36t85 36t35 94t-35 94t-85 36z" />
    <glyph glyph-name="p" unicode="p" horiz-adv-x="705" 
d="M240 265q0 -59 35.5 -94.5t89.5 -35.5t89.5 35.5t35.5 94.5t-35.5 94.5t-89.5 35.5t-89.5 -35.5t-35.5 -94.5zM240 70v-290h-175v750h170l5 -70h5q2 3 5.5 9t18 20.5t32 26t48 20.5t65.5 9q108 0 179.5 -77.5t71.5 -202.5t-71.5 -202.5t-178.5 -77.5q-35 0 -65.5 9
t-49 21t-31.5 24.5t-19 21.5l-5 9h-5z" />
    <glyph glyph-name="q" unicode="q" horiz-adv-x="685" 
d="M445 190v190h-95q-64 0 -99.5 -33.5t-35.5 -96.5q0 -52 34.5 -83.5t90.5 -31.5q20 0 38 5.5t29.5 13.5t20.5 16.5t13 13.5zM445 -220v270h-5q-5 -7 -14.5 -18t-48 -29t-87.5 -18q-110 0 -180 73t-70 192q0 130 82.5 205t237.5 75h260v-750h-175z" />
    <glyph glyph-name="r" unicode="r" horiz-adv-x="490" 
d="M360 390q-22 0 -43 -8t-34 -20t-23.5 -24t-15.5 -20l-4 -8v-310h-175v530h170l5 -75h5q1 4 4 10t14.5 21.5t25 27.5t36.5 21.5t50 9.5q33 0 61.5 -10t41.5 -20l12 -10l-35 -145q-30 30 -95 30z" />
    <glyph glyph-name="s" unicode="s" horiz-adv-x="510" 
d="M480 155q0 -71 -60.5 -120.5t-164.5 -49.5q-62 0 -118.5 17.5t-81.5 35.5l-25 17l30 130q6 -6 18.5 -15t55 -24.5t91.5 -15.5q75 0 75 35q0 16 -27 26t-65 20t-76 26t-65 52.5t-27 90.5q0 68 57.5 116.5t157.5 48.5q38 0 73.5 -7.5t59 -19t42 -22.5t26.5 -18l9 -8
l-60 -115q-4 5 -13 12.5t-40 20t-67 12.5q-65 0 -65 -35q0 -13 27 -21.5t65 -18.5t76 -26t65 -53t27 -91z" />
    <glyph glyph-name="t" unicode="t" horiz-adv-x="490" 
d="M95 195v180h-85v40l255 245h5v-130h160v-155h-160v-165q0 -37 20 -56t55 -19q22 0 42 8.5t29 17.5l9 9h15v-140q-6 -5 -17.5 -12.5t-49.5 -20t-78 -12.5q-91 0 -145.5 56.5t-54.5 153.5z" />
    <glyph glyph-name="u" unicode="u" horiz-adv-x="675" 
d="M65 530h175v-307q0 -42 23 -65t62 -23q46 0 78 32t32 84v279h175v-530h-170l-5 70h-5q-2 -3 -5 -9t-16.5 -20.5t-30 -26t-45.5 -20.5t-63 -9q-94 0 -149.5 57t-55.5 158v330z" />
    <glyph glyph-name="v" unicode="v" horiz-adv-x="625" 
d="M190 530l120 -305h5l120 305h185l-235 -530h-145l-235 530h185z" />
    <glyph glyph-name="w" unicode="w" horiz-adv-x="885" 
d="M435 530h15l140 -310h5l100 310h185l-195 -530h-145l-95 220h-5l-95 -220h-145l-195 530h185l100 -310h5z" />
    <glyph glyph-name="x" unicode="x" horiz-adv-x="620" 
d="M310 165l-120 -165h-200l205 265l-195 265h195l115 -160l115 160h195l-195 -265l205 -265h-200z" />
    <glyph glyph-name="y" unicode="y" horiz-adv-x="625" 
d="M620 530l-305 -750h-170l90 225l-230 525h185l125 -315h5l115 315h185z" />
    <glyph glyph-name="z" unicode="z" horiz-adv-x="600" 
d="M55 375v155h490v-120l-250 -255h260v-155h-515v120l250 255h-235z" />
    <glyph glyph-name="braceleft" unicode="{" horiz-adv-x="435" 
d="M50 225v135q80 0 80 90v165q0 95 48 140t152 45h70v-135h-30q-42 0 -61 -18t-19 -62v-180q0 -29 -10.5 -51.5t-25 -33t-29 -17t-25.5 -7.5l-10 -1v-5q4 0 11 -0.5t24 -6.5t30 -16.5t24 -33t11 -53.5v-180q0 -44 19 -62t61 -18h30v-135h-70q-104 0 -152 45t-48 140v165
q0 90 -80 90z" />
    <glyph glyph-name="bar" unicode="|" horiz-adv-x="355" 
d="M255 800v-1020h-155v1020h155z" />
    <glyph glyph-name="braceright" unicode="}" horiz-adv-x="435" 
d="M385 360v-135q-80 0 -80 -90v-165q0 -95 -48 -140t-152 -45h-70v135h30q42 0 61 18t19 62v180q0 29 10.5 51.5t25 33t29 17t24.5 7.5l11 1v5q-4 0 -11 1t-24 7.5t-30 17t-24 33t-11 51.5v180q0 44 -19 62t-61 18h-30v135h70q104 0 152 -45t48 -140v-165q0 -90 80 -90z
" />
    <glyph glyph-name="asciitilde" unicode="~" horiz-adv-x="560" 
d="M170 285q-38 0 -70.5 -15t-45.5 -30l-14 -15v145q2 2 5 6.5t15 14.5t25.5 18t36.5 14.5t48 6.5q53 0 117.5 -30t102.5 -30t70.5 15t45.5 30l14 15v-145q-2 -2 -5 -6.5t-15 -14.5t-25.5 -18t-36.5 -14.5t-48 -6.5q-52 0 -117 30t-103 30z" />
    <glyph glyph-name="nbspace" unicode="&#xa0;" horiz-adv-x="275" 
 />
    <glyph glyph-name="exclamdown" unicode="&#xa1;" horiz-adv-x="320" 
d="M225 275l25 -345v-150h-180v150l25 345h130zM65 445q0 44 26.5 69.5t68.5 25.5t68.5 -25.5t26.5 -69.5t-26.5 -69.5t-68.5 -25.5t-68.5 25.5t-26.5 69.5z" />
    <glyph glyph-name="cent" unicode="&#xa2;" horiz-adv-x="565" 
d="M220 265q0 -63 35.5 -96.5t99.5 -33.5q40 0 75 13.5t50 27.5l15 14h15v-145q-34 -33 -100 -50v-95h-160v95q-94 23 -152 96.5t-58 173.5t58 173.5t152 96.5v95h160v-95q33 -7 63 -22t43 -27l14 -11l-65 -125q-4 5 -13 12.5t-37.5 20t-59.5 12.5q-64 0 -99.5 -33.5
t-35.5 -96.5z" />
    <glyph glyph-name="sterling" unicode="&#xa3;" horiz-adv-x="575" 
d="M65 300v80h50q-6 8 -14 21.5t-22 54.5t-14 79q0 92 64 151t171 59q58 0 108 -16.5t71 -32.5l21 -16l-55 -135q-3 4 -10 11t-34.5 18t-60.5 11q-90 0 -90 -75q0 -39 27 -82.5t28 -47.5h135v-80h-120q0 -29 -6.5 -54t-16 -39t-19.5 -24.5t-16 -14.5l-7 -3q25 10 55 10
t75 -15t75 -15q22 0 43.5 7.5t31.5 15.5l10 7h20v-155q-4 -4 -12 -10t-36.5 -15.5t-61.5 -9.5q-49 0 -118 27.5t-122 27.5q-31 0 -67.5 -10t-57.5 -20l-20 -10v115q4 2 10.5 5.5t22.5 16t28.5 27t23 38t10.5 48.5q0 16 -2.5 28.5t-4.5 17.5l-3 4h-90z" />
    <glyph glyph-name="currency" unicode="&#xa4;" horiz-adv-x="690" 
d="M40 280v115h75v335h235q141 0 218 -63.5t77 -161.5t-77 -161.5t-218 -63.5h-55v-50h245v-115h-245v-115h-180v115h-75v115h75v50h-75zM295 585v-190h55q105 0 105 95t-105 95h-55z" />
    <glyph glyph-name="yen" unicode="&#xa5;" horiz-adv-x="740" 
d="M90 280h190v20l-20 30h-170v80h120l-200 320h200l160 -265l160 265h200l-200 -320h120v-80h-170l-20 -30v-20h190v-80h-190v-200h-180v200h-190v80z" />
    <glyph glyph-name="brokenbar" unicode="&#xa6;" horiz-adv-x="355" 
d="M100 385v415h155v-415h-155zM100 -220v415h155v-415h-155z" />
    <glyph glyph-name="section" unicode="&#xa7;" horiz-adv-x="585" 
d="M210 370q0 -29 42.5 -59t85.5 -45l42 -16q5 5 5 30q0 29 -42.5 59t-84.5 45l-43 16q-5 -5 -5 -30zM60 335q0 27 6.5 50t16 37t19.5 24.5t16 14.5l7 4q-4 2 -11 7.5t-18 31t-11 61.5q0 81 57 130.5t163 49.5q58 0 109 -17.5t74 -35.5l22 -17l-50 -120q-4 6 -13.5 14
t-43 22t-73.5 14q-65 0 -65 -40q0 -21 28 -38t67.5 -32t79 -34.5t67.5 -57t28 -88.5q0 -43 -16.5 -75.5t-32.5 -43.5l-16 -11q4 -2 11 -7.5t18 -31t11 -61.5q0 -81 -57 -130.5t-163 -49.5q-64 0 -116.5 17.5t-73.5 35.5l-20 17l30 130q7 -7 19.5 -17t53 -26.5t82.5 -16.5
q65 0 65 40q0 21 -28 38t-67.5 32t-79 34.5t-67.5 57t-28 88.5z" />
    <glyph glyph-name="dieresis" unicode="&#xa8;" horiz-adv-x="450" 
d="M30 685q0 40 23.5 62.5t61.5 22.5q40 0 62.5 -22t22.5 -63q0 -40 -23.5 -62.5t-61.5 -22.5t-61.5 22.5t-23.5 62.5zM250 685q0 40 23.5 62.5t61.5 22.5q40 0 62.5 -22t22.5 -63q0 -40 -23.5 -62.5t-61.5 -22.5t-61.5 22.5t-23.5 62.5z" />
    <glyph glyph-name="copyright" unicode="&#xa9;" horiz-adv-x="840" 
d="M355 315q0 -41 25 -63t70 -22q27 0 50.5 9t33.5 17l11 9h15v-105q-4 -4 -13 -11t-41.5 -18t-70.5 -11q-89 0 -147 56t-58 139t58 139t147 56q40 0 73.5 -11t47.5 -23l14 -11l-35 -95q-25 30 -85 30q-45 0 -70 -22t-25 -63zM150 315q0 -117 75 -191t195 -74t195 74t75 191
t-75 191t-195 74t-195 -74t-75 -191zM795 315q0 -155 -104 -255t-271 -100t-271 100t-104 255t104 255t271 100t271 -100t104 -255z" />
    <glyph glyph-name="ordfeminine" unicode="&#xaa;" horiz-adv-x="440" 
d="M215 445q20 0 35 13.5t20 27.5l5 14q-25 20 -50 20q-55 0 -55 -40q0 -35 45 -35zM220 740q180 0 180 -150v-230h-120l-5 45h-5q-3 -6 -10.5 -15t-35.5 -24.5t-64 -15.5q-56 0 -88 30.5t-32 79.5q0 54 36 84.5t109 30.5q24 0 46.5 -5t32.5 -10l11 -5v15q0 34 -17.5 47
t-62.5 13q-31 0 -61 -10t-44 -20l-15 -10h-15v105q8 5 22 12.5t56 20t82 12.5z" />
    <glyph glyph-name="guillemotleft" unicode="&#xab;" horiz-adv-x="625" 
d="M185 270l160 -220h-160l-155 215v20l155 215h160l-160 -220v-10zM435 270l160 -220h-160l-155 215v20l155 215h160l-160 -220v-10z" />
    <glyph glyph-name="logicalnot" unicode="&#xac;" horiz-adv-x="560" 
d="M70 275v135h410v-225h-120v90h-290z" />
    <glyph glyph-name="uni00AD" unicode="&#xad;" horiz-adv-x="430" 
d="M40 250v150h350v-150h-350z" />
    <glyph glyph-name="registered" unicode="&#xae;" horiz-adv-x="670" 
d="M225 670h105q120 0 120 -100q0 -29 -12 -49t-24 -25l-11 -6l67 -100h-90l-50 80h-25v-80h-80v280zM305 535h25q40 0 40 35t-40 35h-25v-70zM120 530q0 -91 59 -148t156 -57t156 57t59 148t-59 148t-156 57t-156 -57t-59 -148zM630 530q0 -121 -82.5 -200.5t-212.5 -79.5
t-212.5 79.5t-82.5 200.5t82.5 200.5t212.5 79.5t212.5 -79.5t82.5 -200.5z" />
    <glyph glyph-name="macron" unicode="&#xaf;" horiz-adv-x="475" 
d="M30 625v115h415v-115h-415z" />
    <glyph glyph-name="degree" unicode="&#xb0;" horiz-adv-x="430" 
d="M150 575q0 -33 19 -51.5t46 -18.5t46 18.5t19 51.5t-19 51.5t-46 18.5t-46 -18.5t-19 -51.5zM390 575q0 -72 -48.5 -118.5t-126.5 -46.5t-126.5 46.5t-48.5 118.5t48.5 118.5t126.5 46.5t126.5 -46.5t48.5 -118.5z" />
    <glyph glyph-name="plusminus" unicode="&#xb1;" horiz-adv-x="560" 
d="M50 280v150h155v160h150v-160h155v-150h-155v-130h155v-140h-460v140h155v130h-155z" />
    <glyph glyph-name="twosuperior" unicode="&#xb2;" horiz-adv-x="335" 
d="M25 485l140 175q20 20 20 50q0 35 -40 35q-20 0 -45 -13.5t-40 -27.5l-15 -14h-10v92q6 6 17.5 16t48 26t74.5 16q120 0 120 -110q0 -24 -7.5 -46.5t-15.5 -33.5l-7 -10l-60 -75h100v-95h-280v15z" />
    <glyph glyph-name="threesuperior" unicode="&#xb3;" horiz-adv-x="330" 
d="M145 630q-11 0 -22.5 -4t-16.5 -8l-6 -3l-40 45l60 75h-80v95h250v-15l-90 -110q4 -1 11 -2.5t25.5 -9.5t32 -20t25 -35.5t11.5 -52.5q0 -58 -39 -91.5t-116 -33.5q-36 0 -68.5 11t-47.5 23l-14 11l30 80q40 -35 90 -35q55 0 55 40t-50 40z" />
    <glyph glyph-name="acute" unicode="&#xb4;" horiz-adv-x="300" 
d="M30 590l55 195h185l-135 -195h-105z" />
    <glyph glyph-name="mu" unicode="&#xb5;" horiz-adv-x="675" 
d="M65 530h175v-307q0 -42 23 -65t62 -23q46 0 78 32t32 84v279h175v-530h-170l-5 70h-5q-2 -3 -5 -9t-16.5 -20.5t-30 -26t-45.5 -20.5t-63 -9q-18 0 -35.5 2.5t-26.5 4.5l-8 3l40 -175l-175 -40v750z" />
    <glyph glyph-name="paragraph" unicode="&#xb6;" horiz-adv-x="645" 
d="M45 515q0 94 60.5 154.5t154.5 60.5h355v-150h-95v-800h-80v800h-100v-800h-80v520q-94 0 -154.5 60.5t-60.5 154.5z" />
    <glyph glyph-name="periodcentered" unicode="&#xb7;" horiz-adv-x="280" 
d="M45 300q0 44 26.5 69.5t68.5 25.5t68.5 -25.5t26.5 -69.5t-26.5 -69.5t-68.5 -25.5t-68.5 25.5t-26.5 69.5z" />
    <glyph glyph-name="cedilla" unicode="&#xb8;" horiz-adv-x="300" 
d="M175 0l-15 -40q110 -16 110 -110q0 -51 -37 -80.5t-113 -29.5q-24 0 -46.5 5t-33.5 10l-10 5v70q25 -15 55 -15q45 0 45 35q0 20 -18.5 31t-37.5 13l-19 1l40 105h80z" />
    <glyph glyph-name="onesuperior" unicode="&#xb9;" horiz-adv-x="245" 
d="M25 665v109l100 56h80v-360h-110v235z" />
    <glyph glyph-name="ordmasculine" unicode="&#xba;" horiz-adv-x="470" 
d="M235 460q38 0 61.5 22.5t23.5 62.5t-23.5 62.5t-61.5 22.5t-61.5 -22.5t-23.5 -62.5t23.5 -62.5t61.5 -22.5zM235 350q-96 0 -153 54t-57 141t57 141t153 54t153 -54t57 -141t-57 -141t-153 -54z" />
    <glyph glyph-name="guillemotright" unicode="&#xbb;" horiz-adv-x="625" 
d="M280 50l160 220v10l-160 220h160l155 -215v-20l-155 -215h-160zM30 50l160 220v10l-160 220h160l155 -215v-20l-155 -215h-160z" />
    <glyph glyph-name="onequarter" unicode="&#xbc;" horiz-adv-x="715" 
d="M45 0l475 730h120l-475 -730h-120zM25 565v109l100 56h80v-360h-110v235zM640 360l-115 -200h45l20 55h65v-55h50v-95h-50v-65h-110v65h-180v15l160 280h115z" />
    <glyph glyph-name="onehalf" unicode="&#xbd;" horiz-adv-x="750" 
d="M45 0l475 730h120l-475 -730h-120zM25 565v109l100 56h80v-360h-110v235zM440 15l140 175q20 20 20 50q0 35 -40 35q-20 0 -45 -13.5t-40 -27.5l-15 -14h-10v92q6 6 17.5 16t48 26t74.5 16q120 0 120 -110q0 -24 -7.5 -46.5t-14.5 -33.5l-8 -10l-60 -75h100v-95h-280v15z
" />
    <glyph glyph-name="threequarters" unicode="&#xbe;" horiz-adv-x="770" 
d="M100 0l475 730h120l-475 -730h-120zM145 530q-11 0 -22.5 -4t-16.5 -8l-6 -3l-40 45l60 75h-80v95h250v-15l-90 -110q4 -1 11 -2.5t25.5 -9.5t32 -20t25 -35.5t11.5 -52.5q0 -58 -39 -91.5t-116 -33.5q-36 0 -68.5 11t-47.5 23l-14 11l30 80q40 -35 90 -35q55 0 55 40
t-50 40zM695 360l-115 -200h45l20 55h65v-55h50v-95h-50v-65h-110v65h-180v15l160 280h115z" />
    <glyph glyph-name="questiondown" unicode="&#xbf;" horiz-adv-x="525" 
d="M465 -5v-170q-8 -7 -24 -17t-67 -26.5t-104 -16.5q-113 0 -174 55.5t-61 144.5q0 42 18 82t43.5 70.5t51.5 59t44 59t18 59.5h165q0 -42 -16.5 -80t-40 -66.5t-47 -54.5t-40 -53t-16.5 -51q0 -30 21.5 -47.5t58.5 -17.5q36 0 73.5 17.5t57.5 35.5l19 17h20zM390 445
q0 -44 -26.5 -69.5t-68.5 -25.5t-68.5 25.5t-26.5 69.5t26.5 69.5t68.5 25.5t68.5 -25.5t26.5 -69.5z" />
    <glyph glyph-name="Agrave" unicode="&#xc0;" horiz-adv-x="795" 
d="M400 490h-5l-90 -200h185zM555 140h-315l-60 -140h-190l335 730h145l335 -730h-190zM395 985l55 -195h-105l-135 195h185z" />
    <glyph glyph-name="Aacute" unicode="&#xc1;" horiz-adv-x="795" 
d="M400 490h-5l-90 -200h185zM555 140h-315l-60 -140h-190l335 730h145l335 -730h-190zM350 790l55 195h185l-135 -195h-105z" />
    <glyph glyph-name="Acircumflex" unicode="&#xc2;" horiz-adv-x="795" 
d="M400 490h-5l-90 -200h185zM555 140h-315l-60 -140h-190l335 730h145l335 -730h-190zM400 880l-105 -90h-105l150 195h120l150 -195h-105z" />
    <glyph glyph-name="Atilde" unicode="&#xc3;" horiz-adv-x="795" 
d="M400 490h-5l-90 -200h185zM555 140h-315l-60 -140h-190l335 730h145l335 -730h-190zM310 850q-29 0 -55 -11t-38 -23l-12 -11v120q4 6 12 14t37.5 22t65.5 14q42 0 90.5 -25t79.5 -25q29 0 55 11.5t38 22.5l12 11v-120q-4 -6 -12 -14t-37.5 -22t-65.5 -14q-42 0 -90.5 25
t-79.5 25z" />
    <glyph glyph-name="Adieresis" unicode="&#xc4;" horiz-adv-x="795" 
d="M400 490h-5l-90 -200h185zM555 140h-315l-60 -140h-190l335 730h145l335 -730h-190zM205 885q0 40 23.5 62.5t61.5 22.5q40 0 62.5 -22t22.5 -63q0 -40 -23.5 -62.5t-61.5 -22.5t-61.5 22.5t-23.5 62.5zM425 885q0 40 23.5 62.5t61.5 22.5q40 0 62.5 -22t22.5 -63
q0 -40 -23.5 -62.5t-61.5 -22.5t-61.5 22.5t-23.5 62.5z" />
    <glyph glyph-name="Aring" unicode="&#xc5;" horiz-adv-x="795" 
d="M400 490h-5l-90 -200h185zM555 140h-315l-60 -140h-190l335 730h145l335 -730h-190zM360 900q0 -35 35 -35t35 35t-35 35t-35 -35zM525 900q0 -56 -36.5 -90.5t-93.5 -34.5t-93.5 34.5t-36.5 90.5t36.5 90.5t93.5 34.5t93.5 -34.5t36.5 -90.5z" />
    <glyph glyph-name="AE" unicode="&#xc6;" horiz-adv-x="985" 
d="M445 0v140h-205l-65 -140h-190l335 730h600v-160h-295v-125h220v-160h-220v-125h295v-160h-475zM425 570l-125 -280h145v280h-20z" />
    <glyph glyph-name="Ccedilla" unicode="&#xc7;" horiz-adv-x="735" 
d="M230 365q0 -98 62 -159t163 -61q35 0 68 10.5t55 25t39 29t25 24.5l8 11h20v-170q-3 -4 -9.5 -9.5t-29 -21t-48 -27.5t-67.5 -21.5t-87 -10.5l-9 -25q110 -16 110 -110q0 -51 -37 -80.5t-113 -29.5q-24 0 -46.5 5t-33.5 10l-10 5v70q25 -15 55 -15q45 0 45 35
q0 20 -19 31t-37 13l-19 1l35 97q-134 27 -219.5 128.5t-85.5 244.5q0 161 109.5 270.5t270.5 109.5q53 0 100.5 -10t77 -23.5t51.5 -27.5t32 -24l9 -10l-65 -140q-2 3 -6.5 8t-20.5 18t-34.5 23t-49 18t-64.5 8q-101 0 -163 -61t-62 -159z" />
    <glyph glyph-name="Egrave" unicode="&#xc8;" horiz-adv-x="650" 
d="M85 0v730h505v-160h-325v-125h250v-160h-250v-125h325v-160h-505zM355 985l55 -195h-105l-135 195h185z" />
    <glyph glyph-name="Eacute" unicode="&#xc9;" horiz-adv-x="650" 
d="M85 0v730h505v-160h-325v-125h250v-160h-250v-125h325v-160h-505zM285 790l55 195h185l-135 -195h-105z" />
    <glyph glyph-name="Ecircumflex" unicode="&#xca;" horiz-adv-x="650" 
d="M85 0v730h505v-160h-325v-125h250v-160h-250v-125h325v-160h-505zM340 880l-105 -90h-105l150 195h120l150 -195h-105z" />
    <glyph glyph-name="Edieresis" unicode="&#xcb;" horiz-adv-x="650" 
d="M85 0v730h505v-160h-325v-125h250v-160h-250v-125h325v-160h-505zM140 885q0 40 23.5 62.5t61.5 22.5q40 0 62.5 -22t22.5 -63q0 -40 -23.5 -62.5t-61.5 -22.5t-61.5 22.5t-23.5 62.5zM360 885q0 40 23.5 62.5t61.5 22.5q40 0 62.5 -22t22.5 -63q0 -40 -23.5 -62.5
t-61.5 -22.5t-61.5 22.5t-23.5 62.5z" />
    <glyph glyph-name="Igrave" unicode="&#xcc;" horiz-adv-x="360" 
d="M270 730v-730h-180v730h180zM185 985l55 -195h-105l-135 195h185z" />
    <glyph glyph-name="Iacute" unicode="&#xcd;" horiz-adv-x="360" 
d="M270 730v-730h-180v730h180zM120 790l55 195h185l-135 -195h-105z" />
    <glyph glyph-name="Icircumflex" unicode="&#xce;" horiz-adv-x="360" 
d="M270 730v-730h-180v730h180zM180 880l-105 -90h-105l150 195h120l150 -195h-105z" />
    <glyph glyph-name="Idieresis" unicode="&#xcf;" horiz-adv-x="360" 
d="M270 730v-730h-180v730h180zM-15 885q0 40 23.5 62.5t61.5 22.5q40 0 62.5 -22t22.5 -63q0 -40 -23.5 -62.5t-61.5 -22.5t-61.5 22.5t-23.5 62.5zM205 885q0 40 23.5 62.5t61.5 22.5q40 0 62.5 -22t22.5 -63q0 -40 -23.5 -62.5t-61.5 -22.5t-61.5 22.5t-23.5 62.5z" />
    <glyph glyph-name="Eth" unicode="&#xd0;" horiz-adv-x="805" 
d="M365 730q174 0 284.5 -104.5t110.5 -260.5t-110.5 -260.5t-284.5 -104.5h-260v290h-65v150h65v290h260zM365 570h-80v-130h145v-150h-145v-130h80q93 0 151.5 57.5t58.5 147.5t-58.5 147.5t-151.5 57.5z" />
    <glyph glyph-name="Ntilde" unicode="&#xd1;" horiz-adv-x="830" 
d="M745 730v-730h-175l-305 435v-435h-180v730h175l305 -435v435h180zM325 850q-29 0 -55 -11t-38 -23l-12 -11v120q4 6 12 14t37.5 22t65.5 14q42 0 90.5 -25t79.5 -25q29 0 55 11.5t38 22.5l12 11v-120q-4 -6 -12 -14t-37.5 -22t-65.5 -14q-42 0 -90.5 25t-79.5 25z" />
    <glyph glyph-name="Ograve" unicode="&#xd2;" horiz-adv-x="880" 
d="M230 365q0 -97 59.5 -158.5t150.5 -61.5t150.5 61.5t59.5 158.5t-59.5 158.5t-150.5 61.5t-150.5 -61.5t-59.5 -158.5zM835 365q0 -162 -112 -271t-283 -109t-283 109t-112 271t112 271t283 109t283 -109t112 -271zM445 985l55 -195h-105l-135 195h185z" />
    <glyph glyph-name="Oacute" unicode="&#xd3;" horiz-adv-x="880" 
d="M230 365q0 -97 59.5 -158.5t150.5 -61.5t150.5 61.5t59.5 158.5t-59.5 158.5t-150.5 61.5t-150.5 -61.5t-59.5 -158.5zM835 365q0 -162 -112 -271t-283 -109t-283 109t-112 271t112 271t283 109t283 -109t112 -271zM385 790l55 195h185l-135 -195h-105z" />
    <glyph glyph-name="Ocircumflex" unicode="&#xd4;" horiz-adv-x="880" 
d="M230 365q0 -97 59.5 -158.5t150.5 -61.5t150.5 61.5t59.5 158.5t-59.5 158.5t-150.5 61.5t-150.5 -61.5t-59.5 -158.5zM835 365q0 -162 -112 -271t-283 -109t-283 109t-112 271t112 271t283 109t283 -109t112 -271zM440 880l-105 -90h-105l150 195h120l150 -195h-105z
" />
    <glyph glyph-name="Otilde" unicode="&#xd5;" horiz-adv-x="880" 
d="M230 365q0 -97 59.5 -158.5t150.5 -61.5t150.5 61.5t59.5 158.5t-59.5 158.5t-150.5 61.5t-150.5 -61.5t-59.5 -158.5zM835 365q0 -162 -112 -271t-283 -109t-283 109t-112 271t112 271t283 109t283 -109t112 -271zM350 850q-29 0 -55 -11t-38 -23l-12 -11v120q4 6 12 14
t37.5 22t65.5 14q42 0 90.5 -25t79.5 -25q29 0 55 11.5t38 22.5l12 11v-120q-4 -6 -12 -14t-37.5 -22t-65.5 -14q-42 0 -90.5 25t-79.5 25z" />
    <glyph glyph-name="Odieresis" unicode="&#xd6;" horiz-adv-x="880" 
d="M230 365q0 -97 59.5 -158.5t150.5 -61.5t150.5 61.5t59.5 158.5t-59.5 158.5t-150.5 61.5t-150.5 -61.5t-59.5 -158.5zM835 365q0 -162 -112 -271t-283 -109t-283 109t-112 271t112 271t283 109t283 -109t112 -271zM245 885q0 40 23.5 62.5t61.5 22.5q40 0 62.5 -22
t22.5 -63q0 -40 -23.5 -62.5t-61.5 -22.5t-61.5 22.5t-23.5 62.5zM465 885q0 40 23.5 62.5t61.5 22.5q40 0 62.5 -22t22.5 -63q0 -40 -23.5 -62.5t-61.5 -22.5t-61.5 22.5t-23.5 62.5z" />
    <glyph glyph-name="multiply" unicode="&#xd7;" horiz-adv-x="560" 
d="M385 325l125 -125l-105 -105l-125 125l-125 -125l-105 105l125 125l-125 125l105 105l125 -125l125 125l105 -105z" />
    <glyph glyph-name="Oslash" unicode="&#xd8;" horiz-adv-x="880" 
d="M440 -15q-44 0 -85.5 8.5t-60.5 17.5l-19 9l-25 -35h-185l85 115q-4 4 -11 11.5t-25.5 33t-32 54t-25 73.5t-11.5 93q0 162 112 271t283 109q42 0 83.5 -8.5t61.5 -17.5l20 -9l25 35h185l-85 -115q4 -4 11 -11.5t25.5 -33t32 -54t25 -73.5t11.5 -93q0 -162 -112 -271
t-283 -109zM620 480l-245 -325q20 -10 65 -10q91 0 150.5 61.5t59.5 158.5q0 31 -7.5 60t-14.5 42zM260 250l245 325q-15 10 -65 10q-91 0 -150.5 -61.5t-59.5 -158.5q0 -31 7.5 -60t14.5 -42z" />
    <glyph glyph-name="Ugrave" unicode="&#xd9;" horiz-adv-x="790" 
d="M395 -15q-149 0 -234.5 83.5t-85.5 226.5v435h180v-435q0 -71 38 -110.5t102 -39.5t102 39.5t38 110.5v435h180v-435q0 -143 -85.5 -226.5t-234.5 -83.5zM405 985l55 -195h-105l-135 195h185z" />
    <glyph glyph-name="Uacute" unicode="&#xda;" horiz-adv-x="790" 
d="M395 -15q-149 0 -234.5 83.5t-85.5 226.5v435h180v-435q0 -71 38 -110.5t102 -39.5t102 39.5t38 110.5v435h180v-435q0 -143 -85.5 -226.5t-234.5 -83.5zM340 790l55 195h185l-135 -195h-105z" />
    <glyph glyph-name="Ucircumflex" unicode="&#xdb;" horiz-adv-x="790" 
d="M395 -15q-149 0 -234.5 83.5t-85.5 226.5v435h180v-435q0 -71 38 -110.5t102 -39.5t102 39.5t38 110.5v435h180v-435q0 -143 -85.5 -226.5t-234.5 -83.5zM400 880l-105 -90h-105l150 195h120l150 -195h-105z" />
    <glyph glyph-name="Udieresis" unicode="&#xdc;" horiz-adv-x="790" 
d="M395 -15q-149 0 -234.5 83.5t-85.5 226.5v435h180v-435q0 -71 38 -110.5t102 -39.5t102 39.5t38 110.5v435h180v-435q0 -143 -85.5 -226.5t-234.5 -83.5zM205 885q0 40 23.5 62.5t61.5 22.5q40 0 62.5 -22t22.5 -63q0 -40 -23.5 -62.5t-61.5 -22.5t-61.5 22.5t-23.5 62.5
zM425 885q0 40 23.5 62.5t61.5 22.5q40 0 62.5 -22t22.5 -63q0 -40 -23.5 -62.5t-61.5 -22.5t-61.5 22.5t-23.5 62.5z" />
    <glyph glyph-name="Yacute" unicode="&#xdd;" horiz-adv-x="730" 
d="M455 300v-300h-180v300l-265 430h200l155 -265l155 265h200zM310 790l55 195h185l-135 -195h-105z" />
    <glyph glyph-name="Thorn" unicode="&#xde;" horiz-adv-x="675" 
d="M265 100v-100h-180v730h180v-100h70q140 0 220 -73t80 -192t-80 -192t-220 -73h-70zM265 470v-210h70q53 0 84 28t31 77t-31 77t-84 28h-70z" />
    <glyph glyph-name="germandbls" unicode="&#xdf;" horiz-adv-x="700" 
d="M540 565q0 -47 -15 -81.5t-30 -58.5t-15 -45q0 -20 20.5 -35t50 -28t59 -30.5t50 -51t20.5 -80.5q0 -71 -60 -120.5t-163 -49.5q-43 0 -83.5 12.5t-59.5 24.5l-19 13l30 130q45 -40 110 -40q60 0 60 40q0 19 -30.5 35t-67 28t-67 45t-30.5 82q0 48 30 102t30 83
q0 25 -16 40t-39 15q-27 0 -46 -18.5t-19 -51.5v-525h-175v525q0 95 66.5 157.5t174.5 62.5q107 0 170.5 -52.5t63.5 -127.5z" />
    <glyph glyph-name="agrave" unicode="&#xe0;" horiz-adv-x="610" 
d="M280 115q31 0 55 22.5t32 44.5l8 23q-35 25 -80 25q-35 0 -55 -18t-20 -42t15.5 -39.5t44.5 -15.5zM295 545q129 0 192 -55.5t63 -159.5v-330h-170l-5 70h-5q-2 -3 -5 -9t-16.5 -20.5t-30 -26t-45.5 -20.5t-63 -9q-78 0 -124 43t-46 112q0 78 54 124t156 46q38 0 69 -7.5
t43 -14.5l13 -8v30q0 85 -105 85q-51 0 -98.5 -16.5t-69.5 -32.5l-22 -16h-15v145q10 8 29 19.5t79 31t122 19.5zM317 785l55 -195h-105l-135 195h185z" />
    <glyph glyph-name="aacute" unicode="&#xe1;" horiz-adv-x="610" 
d="M280 115q31 0 55 22.5t32 44.5l8 23q-35 25 -80 25q-35 0 -55 -18t-20 -42t15.5 -39.5t44.5 -15.5zM295 545q129 0 192 -55.5t63 -159.5v-330h-170l-5 70h-5q-2 -3 -5 -9t-16.5 -20.5t-30 -26t-45.5 -20.5t-63 -9q-78 0 -124 43t-46 112q0 78 54 124t156 46q38 0 69 -7.5
t43 -14.5l13 -8v30q0 85 -105 85q-51 0 -98.5 -16.5t-69.5 -32.5l-22 -16h-15v145q10 8 29 19.5t79 31t122 19.5zM255 590l55 195h185l-135 -195h-105z" />
    <glyph glyph-name="acircumflex" unicode="&#xe2;" horiz-adv-x="610" 
d="M280 115q31 0 55 22.5t32 44.5l8 23q-35 25 -80 25q-35 0 -55 -18t-20 -42t15.5 -39.5t44.5 -15.5zM295 545q129 0 192 -55.5t63 -159.5v-330h-170l-5 70h-5q-2 -3 -5 -9t-16.5 -20.5t-30 -26t-45.5 -20.5t-63 -9q-78 0 -124 43t-46 112q0 78 54 124t156 46q38 0 69 -7.5
t43 -14.5l13 -8v30q0 85 -105 85q-51 0 -98.5 -16.5t-69.5 -32.5l-22 -16h-15v145q10 8 29 19.5t79 31t122 19.5zM307 680l-105 -90h-105l150 195h120l150 -195h-105z" />
    <glyph glyph-name="atilde" unicode="&#xe3;" horiz-adv-x="610" 
d="M280 115q31 0 55 22.5t32 44.5l8 23q-35 25 -80 25q-35 0 -55 -18t-20 -42t15.5 -39.5t44.5 -15.5zM295 545q129 0 192 -55.5t63 -159.5v-330h-170l-5 70h-5q-2 -3 -5 -9t-16.5 -20.5t-30 -26t-45.5 -20.5t-63 -9q-78 0 -124 43t-46 112q0 78 54 124t156 46q38 0 69 -7.5
t43 -14.5l13 -8v30q0 85 -105 85q-51 0 -98.5 -16.5t-69.5 -32.5l-22 -16h-15v145q10 8 29 19.5t79 31t122 19.5zM220 650q-29 0 -55 -11t-38 -23l-12 -11v120q4 6 12 14t37.5 22t65.5 14q42 0 90.5 -25t79.5 -25q29 0 55 11.5t38 22.5l12 11v-120q-4 -6 -12 -14t-37.5 -22
t-65.5 -14q-42 0 -90.5 25t-79.5 25z" />
    <glyph glyph-name="adieresis" unicode="&#xe4;" horiz-adv-x="610" 
d="M280 115q31 0 55 22.5t32 44.5l8 23q-35 25 -80 25q-35 0 -55 -18t-20 -42t15.5 -39.5t44.5 -15.5zM295 545q129 0 192 -55.5t63 -159.5v-330h-170l-5 70h-5q-2 -3 -5 -9t-16.5 -20.5t-30 -26t-45.5 -20.5t-63 -9q-78 0 -124 43t-46 112q0 78 54 124t156 46q38 0 69 -7.5
t43 -14.5l13 -8v30q0 85 -105 85q-51 0 -98.5 -16.5t-69.5 -32.5l-22 -16h-15v145q10 8 29 19.5t79 31t122 19.5zM114 685q0 40 23.5 62.5t61.5 22.5q40 0 62.5 -22t22.5 -63q0 -40 -23.5 -62.5t-61.5 -22.5t-61.5 22.5t-23.5 62.5zM334 685q0 40 23.5 62.5t61.5 22.5
q40 0 62.5 -22t22.5 -63q0 -40 -23.5 -62.5t-61.5 -22.5t-61.5 22.5t-23.5 62.5z" />
    <glyph glyph-name="aring" unicode="&#xe5;" horiz-adv-x="610" 
d="M280 115q31 0 55 22.5t32 44.5l8 23q-35 25 -80 25q-35 0 -55 -18t-20 -42t15.5 -39.5t44.5 -15.5zM295 545q129 0 192 -55.5t63 -159.5v-330h-170l-5 70h-5q-2 -3 -5 -9t-16.5 -20.5t-30 -26t-45.5 -20.5t-63 -9q-78 0 -124 43t-46 112q0 78 54 124t156 46q38 0 69 -7.5
t43 -14.5l13 -8v30q0 85 -105 85q-51 0 -98.5 -16.5t-69.5 -32.5l-22 -16h-15v145q10 8 29 19.5t79 31t122 19.5zM278 710q0 -35 35 -35t35 35t-35 35t-35 -35zM443 710q0 -56 -36.5 -90.5t-93.5 -34.5t-93.5 34.5t-36.5 90.5t36.5 90.5t93.5 34.5t93.5 -34.5t36.5 -90.5z
" />
    <glyph glyph-name="ae" unicode="&#xe6;" horiz-adv-x="970" 
d="M295 545q60 0 107.5 -16.5t65.5 -32.5l17 -16q7 7 20 18t60 29t100 18q124 0 194.5 -72t70.5 -203v-35h-390q0 -4 1.5 -11t11.5 -25.5t24.5 -32t45.5 -25t72 -11.5q53 0 97 14t61 28l17 13h15v-140q-9 -7 -26 -17t-71.5 -26.5t-112.5 -16.5q-48 0 -88.5 12t-64.5 28.5
t-41.5 33.5t-24.5 29l-6 12h-5q-2 -5 -6.5 -12.5t-22.5 -27.5t-39 -35t-58 -27.5t-79 -12.5q-98 0 -149 43t-51 117t54 119.5t156 45.5q38 0 69 -7.5t43 -14.5l13 -8v30q0 85 -105 85q-51 0 -98.5 -16.5t-69.5 -32.5l-22 -16h-15v145q10 8 29 19.5t79 31t122 19.5zM280 115
q31 0 55 22.5t32 44.5l8 23q-35 25 -80 25q-35 0 -55 -18t-20 -42t15.5 -39.5t44.5 -15.5zM675 410q-52 0 -84.5 -23t-45.5 -57h225q0 31 -27.5 55.5t-67.5 24.5z" />
    <glyph glyph-name="ccedilla" unicode="&#xe7;" horiz-adv-x="565" 
d="M220 265q0 -63 35.5 -96.5t99.5 -33.5q40 0 75 13.5t50 27.5l15 14h15v-145q-6 -6 -18.5 -15.5t-56.5 -25.5t-96 -18l-9 -26q110 -16 110 -110q0 -51 -37 -80.5t-113 -29.5q-24 0 -46.5 5t-33.5 10l-10 5v70q25 -15 55 -15q45 0 45 35q0 20 -19 31t-37 13l-19 1l35 97
q-99 21 -159.5 95t-60.5 178q0 120 81 200t204 80q38 0 73 -7t58 -17.5t40.5 -21t25.5 -17.5l8 -7l-65 -125q-4 5 -13 12.5t-37.5 20t-59.5 12.5q-64 0 -99.5 -33.5t-35.5 -96.5z" />
    <glyph glyph-name="egrave" unicode="&#xe8;" horiz-adv-x="630" 
d="M325 545q124 0 194.5 -72t70.5 -203v-35h-390q0 -4 1.5 -11t11.5 -25.5t24.5 -32t45.5 -25t72 -11.5q53 0 97 14t61 28l17 13h15v-140q-9 -7 -26 -17t-71.5 -26.5t-112.5 -16.5q-130 0 -212.5 79.5t-82.5 200.5q0 120 81 200t204 80zM335 410q-52 0 -84.5 -23t-45.5 -57
h225q0 31 -27.5 55.5t-67.5 24.5zM325 785l55 -195h-105l-135 195h185z" />
    <glyph glyph-name="eacute" unicode="&#xe9;" horiz-adv-x="630" 
d="M325 545q124 0 194.5 -72t70.5 -203v-35h-390q0 -4 1.5 -11t11.5 -25.5t24.5 -32t45.5 -25t72 -11.5q53 0 97 14t61 28l17 13h15v-140q-9 -7 -26 -17t-71.5 -26.5t-112.5 -16.5q-130 0 -212.5 79.5t-82.5 200.5q0 120 81 200t204 80zM335 410q-52 0 -84.5 -23t-45.5 -57
h225q0 31 -27.5 55.5t-67.5 24.5zM270 590l55 195h185l-135 -195h-105z" />
    <glyph glyph-name="ecircumflex" unicode="&#xea;" horiz-adv-x="630" 
d="M325 545q124 0 194.5 -72t70.5 -203v-35h-390q0 -4 1.5 -11t11.5 -25.5t24.5 -32t45.5 -25t72 -11.5q53 0 97 14t61 28l17 13h15v-140q-9 -7 -26 -17t-71.5 -26.5t-112.5 -16.5q-130 0 -212.5 79.5t-82.5 200.5q0 120 81 200t204 80zM335 410q-52 0 -84.5 -23t-45.5 -57
h225q0 31 -27.5 55.5t-67.5 24.5zM330 680l-105 -90h-105l150 195h120l150 -195h-105z" />
    <glyph glyph-name="edieresis" unicode="&#xeb;" horiz-adv-x="630" 
d="M325 545q124 0 194.5 -72t70.5 -203v-35h-390q0 -4 1.5 -11t11.5 -25.5t24.5 -32t45.5 -25t72 -11.5q53 0 97 14t61 28l17 13h15v-140q-9 -7 -26 -17t-71.5 -26.5t-112.5 -16.5q-130 0 -212.5 79.5t-82.5 200.5q0 120 81 200t204 80zM335 410q-52 0 -84.5 -23t-45.5 -57
h225q0 31 -27.5 55.5t-67.5 24.5zM135 685q0 40 23.5 62.5t61.5 22.5q40 0 62.5 -22t22.5 -63q0 -40 -23.5 -62.5t-61.5 -22.5t-61.5 22.5t-23.5 62.5zM355 685q0 40 23.5 62.5t61.5 22.5q40 0 62.5 -22t22.5 -63q0 -40 -23.5 -62.5t-61.5 -22.5t-61.5 22.5t-23.5 62.5z" />
    <glyph glyph-name="igrave" unicode="&#xec;" horiz-adv-x="305" 
d="M155 785l55 -195h-105l-135 195h185zM240 530v-530h-175v530h175z" />
    <glyph glyph-name="iacute" unicode="&#xed;" horiz-adv-x="305" 
d="M95 590l55 195h185l-135 -195h-105zM240 530v-530h-175v530h175z" />
    <glyph glyph-name="icircumflex" unicode="&#xee;" horiz-adv-x="305" 
d="M240 530v-530h-175v530h175zM155 680l-105 -90h-105l150 195h120l150 -195h-105z" />
    <glyph glyph-name="idieresis" unicode="&#xef;" horiz-adv-x="305" 
d="M-45 685q0 40 23.5 62.5t61.5 22.5q40 0 62.5 -22t22.5 -63q0 -40 -23.5 -62.5t-61.5 -22.5t-61.5 22.5t-23.5 62.5zM175 685q0 40 23.5 62.5t61.5 22.5q40 0 62.5 -22t22.5 -63q0 -40 -23.5 -62.5t-61.5 -22.5t-61.5 22.5t-23.5 62.5zM240 530v-530h-175v530h175z" />
    <glyph glyph-name="eth" unicode="&#xf0;" horiz-adv-x="675" 
d="M240 585l-70 85h100q-27 22 -62 44.5t-56 33.5l-22 12h235q55 -40 105 -90h85l70 -85h-80q3 -5 9 -13.5t20.5 -37t26 -58.5t20.5 -75.5t9 -90.5q0 -148 -83.5 -236.5t-216.5 -88.5q-129 0 -212 78t-83 192q0 122 70 196t182 74q37 0 67.5 -11t43.5 -22l12 -12h5
q-7 24 -20.5 50.5t-24.5 40.5l-10 14h-120zM450 255q0 53 -34 86.5t-86 33.5t-86 -33.5t-34 -86.5t34 -86.5t86 -33.5t86 33.5t34 86.5z" />
    <glyph glyph-name="ntilde" unicode="&#xf1;" horiz-adv-x="670" 
d="M610 0h-175v307q0 42 -23 65t-62 23q-46 0 -78 -32t-32 -84v-279h-175v530h170l5 -70h5q2 3 5 9t16.5 20.5t30 26t45.5 20.5t63 9q94 0 149.5 -57t55.5 -158v-330zM245 650q-29 0 -55 -11t-38 -23l-12 -11v120q4 6 12 14t37.5 22t65.5 14q42 0 90.5 -25t79.5 -25
q29 0 55 11.5t38 22.5l12 11v-120q-4 -6 -12 -14t-37.5 -22t-65.5 -14q-42 0 -90.5 25t-79.5 25z" />
    <glyph glyph-name="ograve" unicode="&#xf2;" horiz-adv-x="680" 
d="M340 545q134 0 217 -79.5t83 -200.5t-83 -200.5t-217 -79.5t-217 79.5t-83 200.5t83 200.5t217 79.5zM340 395q-50 0 -85 -36t-35 -94t35 -94t85 -36t85 36t35 94t-35 94t-85 36zM340 785l55 -195h-105l-135 195h185z" />
    <glyph glyph-name="oacute" unicode="&#xf3;" horiz-adv-x="680" 
d="M340 545q134 0 217 -79.5t83 -200.5t-83 -200.5t-217 -79.5t-217 79.5t-83 200.5t83 200.5t217 79.5zM340 395q-50 0 -85 -36t-35 -94t35 -94t85 -36t85 36t35 94t-35 94t-85 36zM285 590l55 195h185l-135 -195h-105z" />
    <glyph glyph-name="ocircumflex" unicode="&#xf4;" horiz-adv-x="680" 
d="M340 545q134 0 217 -79.5t83 -200.5t-83 -200.5t-217 -79.5t-217 79.5t-83 200.5t83 200.5t217 79.5zM340 395q-50 0 -85 -36t-35 -94t35 -94t85 -36t85 36t35 94t-35 94t-85 36zM340 680l-105 -90h-105l150 195h120l150 -195h-105z" />
    <glyph glyph-name="otilde" unicode="&#xf5;" horiz-adv-x="680" 
d="M340 545q134 0 217 -79.5t83 -200.5t-83 -200.5t-217 -79.5t-217 79.5t-83 200.5t83 200.5t217 79.5zM340 395q-50 0 -85 -36t-35 -94t35 -94t85 -36t85 36t35 94t-35 94t-85 36zM250 650q-29 0 -55 -11t-38 -23l-12 -11v120q4 6 12 14t37.5 22t65.5 14q42 0 90.5 -25
t79.5 -25q29 0 55 11.5t38 22.5l12 11v-120q-4 -6 -12 -14t-37.5 -22t-65.5 -14q-42 0 -90.5 25t-79.5 25z" />
    <glyph glyph-name="odieresis" unicode="&#xf6;" horiz-adv-x="680" 
d="M340 545q134 0 217 -79.5t83 -200.5t-83 -200.5t-217 -79.5t-217 79.5t-83 200.5t83 200.5t217 79.5zM340 395q-50 0 -85 -36t-35 -94t35 -94t85 -36t85 36t35 94t-35 94t-85 36zM145 685q0 40 23.5 62.5t61.5 22.5q40 0 62.5 -22t22.5 -63q0 -40 -23.5 -62.5
t-61.5 -22.5t-61.5 22.5t-23.5 62.5zM365 685q0 40 23.5 62.5t61.5 22.5q40 0 62.5 -22t22.5 -63q0 -40 -23.5 -62.5t-61.5 -22.5t-61.5 22.5t-23.5 62.5z" />
    <glyph glyph-name="divide" unicode="&#xf7;" horiz-adv-x="560" 
d="M195 540q0 37 25 61t60 24t60 -24t25 -61t-25 -61t-60 -24t-60 24t-25 61zM70 265v125h420v-125h-420zM365 115q0 -37 -25 -61t-60 -24t-60 24t-25 61t25 61t60 24t60 -24t25 -61z" />
    <glyph glyph-name="oslash" unicode="&#xf8;" horiz-adv-x="680" 
d="M340 -15q-31 0 -61 6.5t-45 12.5l-14 6l-20 -25h-140l65 85q-3 3 -9 8t-20.5 23t-26 39t-20.5 55t-9 70q0 121 83 200.5t217 79.5q31 0 61 -6.5t45 -12.5l14 -6l20 25h140l-65 -85q3 -3 9 -8t20.5 -23t26 -39t20.5 -55t9 -70q0 -121 -83 -200.5t-217 -79.5zM450 320
l-135 -180q10 -5 25 -5q50 0 85 36t35 94q0 13 -2.5 27t-5.5 21zM230 210l135 180q-10 5 -25 5q-50 0 -85 -36t-35 -94q0 -13 2.5 -27t5.5 -21z" />
    <glyph glyph-name="ugrave" unicode="&#xf9;" horiz-adv-x="675" 
d="M65 530h175v-307q0 -42 23 -65t62 -23q46 0 78 32t32 84v279h175v-530h-170l-5 70h-5q-2 -3 -5 -9t-16.5 -20.5t-30 -26t-45.5 -20.5t-63 -9q-94 0 -149.5 57t-55.5 158v330zM340 785l55 -195h-105l-135 195h185z" />
    <glyph glyph-name="uacute" unicode="&#xfa;" horiz-adv-x="675" 
d="M65 530h175v-307q0 -42 23 -65t62 -23q46 0 78 32t32 84v279h175v-530h-170l-5 70h-5q-2 -3 -5 -9t-16.5 -20.5t-30 -26t-45.5 -20.5t-63 -9q-94 0 -149.5 57t-55.5 158v330zM285 590l55 195h185l-135 -195h-105z" />
    <glyph glyph-name="ucircumflex" unicode="&#xfb;" horiz-adv-x="675" 
d="M65 530h175v-307q0 -42 23 -65t62 -23q46 0 78 32t32 84v279h175v-530h-170l-5 70h-5q-2 -3 -5 -9t-16.5 -20.5t-30 -26t-45.5 -20.5t-63 -9q-94 0 -149.5 57t-55.5 158v330zM335 680l-105 -90h-105l150 195h120l150 -195h-105z" />
    <glyph glyph-name="udieresis" unicode="&#xfc;" horiz-adv-x="675" 
d="M65 530h175v-307q0 -42 23 -65t62 -23q46 0 78 32t32 84v279h175v-530h-170l-5 70h-5q-2 -3 -5 -9t-16.5 -20.5t-30 -26t-45.5 -20.5t-63 -9q-94 0 -149.5 57t-55.5 158v330zM140 685q0 40 23.5 62.5t61.5 22.5q40 0 62.5 -22t22.5 -63q0 -40 -23.5 -62.5t-61.5 -22.5
t-61.5 22.5t-23.5 62.5zM360 685q0 40 23.5 62.5t61.5 22.5q40 0 62.5 -22t22.5 -63q0 -40 -23.5 -62.5t-61.5 -22.5t-61.5 22.5t-23.5 62.5z" />
    <glyph glyph-name="yacute" unicode="&#xfd;" horiz-adv-x="625" 
d="M620 530l-305 -750h-170l90 225l-230 525h185l125 -315h5l115 315h185zM255 590l55 195h185l-135 -195h-105z" />
    <glyph glyph-name="thorn" unicode="&#xfe;" horiz-adv-x="705" 
d="M240 265q0 -59 35.5 -94.5t89.5 -35.5t89.5 35.5t35.5 94.5t-35.5 94.5t-89.5 35.5t-89.5 -35.5t-35.5 -94.5zM240 70v-290h-175v980h175v-300h5q2 3 5.5 9t18 20.5t32 26t48 20.5t65.5 9q108 0 179.5 -77.5t71.5 -202.5t-71.5 -202.5t-178.5 -77.5q-35 0 -65.5 9t-49 21
t-31.5 24.5t-19 21.5l-5 9h-5z" />
    <glyph glyph-name="ydieresis" unicode="&#xff;" horiz-adv-x="625" 
d="M620 530l-305 -750h-170l90 225l-230 525h185l125 -315h5l115 315h185zM115 685q0 40 23.5 62.5t61.5 22.5q40 0 62.5 -22t22.5 -63q0 -40 -23.5 -62.5t-61.5 -22.5t-61.5 22.5t-23.5 62.5zM335 685q0 40 23.5 62.5t61.5 22.5q40 0 62.5 -22t22.5 -63q0 -40 -23.5 -62.5
t-61.5 -22.5t-61.5 22.5t-23.5 62.5z" />
    <glyph glyph-name="Amacron" unicode="&#x100;" horiz-adv-x="795" 
d="M400 490h-5l-90 -200h185zM555 140h-315l-60 -140h-190l335 730h145l335 -730h-190zM190 825v115h415v-115h-415z" />
    <glyph glyph-name="amacron" unicode="&#x101;" horiz-adv-x="610" 
d="M280 115q31 0 55 22.5t32 44.5l8 23q-35 25 -80 25q-35 0 -55 -18t-20 -42t15.5 -39.5t44.5 -15.5zM295 545q129 0 192 -55.5t63 -159.5v-330h-170l-5 70h-5q-2 -3 -5 -9t-16.5 -20.5t-30 -26t-45.5 -20.5t-63 -9q-78 0 -124 43t-46 112q0 78 54 124t156 46q38 0 69 -7.5
t43 -14.5l13 -8v30q0 85 -105 85q-51 0 -98.5 -16.5t-69.5 -32.5l-22 -16h-15v145q10 8 29 19.5t79 31t122 19.5zM100 625v115h415v-115h-415z" />
    <glyph glyph-name="Abreve" unicode="&#x102;" horiz-adv-x="795" 
d="M400 490h-5l-90 -200h185zM555 140h-315l-60 -140h-190l335 730h145l335 -730h-190zM400 915q44 0 86.5 15t63.5 30l20 15v-120q-7 -6 -20 -14t-57 -22t-93 -14t-91.5 12.5t-60.5 24.5l-18 13v120q8 -7 22.5 -17t59 -26.5t88.5 -16.5z" />
    <glyph glyph-name="abreve" unicode="&#x103;" horiz-adv-x="610" 
d="M280 115q31 0 55 22.5t32 44.5l8 23q-35 25 -80 25q-35 0 -55 -18t-20 -42t15.5 -39.5t44.5 -15.5zM295 545q129 0 192 -55.5t63 -159.5v-330h-170l-5 70h-5q-2 -3 -5 -9t-16.5 -20.5t-30 -26t-45.5 -20.5t-63 -9q-78 0 -124 43t-46 112q0 78 54 124t156 46q38 0 69 -7.5
t43 -14.5l13 -8v30q0 85 -105 85q-51 0 -98.5 -16.5t-69.5 -32.5l-22 -16h-15v145q10 8 29 19.5t79 31t122 19.5zM320 705q44 0 86.5 15t63.5 30l20 15v-120q-7 -6 -20 -14t-57 -22t-93 -14t-91.5 12.5t-60.5 24.5l-18 13v120q8 -7 22.5 -17t59 -26.5t88.5 -16.5z" />
    <glyph glyph-name="Aogonek" unicode="&#x104;" horiz-adv-x="795" 
d="M715 0h-100l-60 140h-315l-60 -140h-190l335 730h145l335 -730q-4 -2 -10 -5.5t-21.5 -16t-27.5 -26t-21.5 -36t-9.5 -46.5q0 -55 45 -55q11 0 22.5 2.5t17.5 4.5l5 3v-65q-30 -20 -80 -20q-69 0 -104.5 29.5t-35.5 80.5q0 29 13.5 55.5t32.5 43t38 28.5t33 17zM400 490
h-5l-90 -200h185z" />
    <glyph glyph-name="aogonek" unicode="&#x105;" horiz-adv-x="610" 
d="M295 545q129 0 192 -55.5t63 -159.5v-330q-4 -2 -10 -5.5t-21.5 -16t-27.5 -26t-21.5 -36t-9.5 -46.5q0 -55 45 -55q11 0 22.5 2.5t16.5 4.5l6 3v-65q-30 -20 -80 -20q-69 0 -104.5 29.5t-35.5 80.5q0 29 13.5 55.5t32.5 43t38 28.5t32 17l14 6h-80l-5 70h-5q-2 -3 -5 -9
t-16.5 -20.5t-30 -26t-45.5 -20.5t-63 -9q-78 0 -124 43t-46 112q0 78 54 124t156 46q38 0 69 -7.5t43 -14.5l13 -8v30q0 85 -105 85q-51 0 -98.5 -16.5t-69.5 -32.5l-22 -16h-15v145q10 8 29 19.5t79 31t122 19.5zM280 115q31 0 55 22.5t32 44.5l8 23q-35 25 -80 25
q-35 0 -55 -18t-20 -42t15.5 -39.5t44.5 -15.5z" />
    <glyph glyph-name="Cacute" unicode="&#x106;" horiz-adv-x="735" 
d="M230 365q0 -98 62 -159t163 -61q35 0 68 10.5t55 25t39 29t25 24.5l8 11h20v-170q-3 -4 -9.5 -10t-29 -21.5t-49 -27.5t-69 -21.5t-88.5 -9.5q-161 0 -270.5 109.5t-109.5 270.5t109.5 270.5t270.5 109.5q53 0 100.5 -10t77 -23.5t51.5 -27.5t32 -24l9 -10l-65 -140
q-2 3 -6.5 8t-20.5 18t-34.5 23t-49 18t-64.5 8q-101 0 -163 -61t-62 -159zM360 790l55 195h185l-135 -195h-105z" />
    <glyph glyph-name="cacute" unicode="&#x107;" horiz-adv-x="565" 
d="M220 265q0 -63 35.5 -96.5t99.5 -33.5q40 0 75 13.5t50 27.5l15 14h15v-145q-7 -7 -20.5 -17t-61 -26.5t-103.5 -16.5q-123 0 -204 80t-81 200t81 200t204 80q38 0 73 -7t58 -17.5t40.5 -21t25.5 -17.5l8 -7l-65 -125q-4 5 -13 12.5t-37.5 20t-59.5 12.5
q-64 0 -99.5 -33.5t-35.5 -96.5zM245 590l55 195h185l-135 -195h-105z" />
    <glyph glyph-name="Ccircumflex" unicode="&#x108;" horiz-adv-x="735" 
d="M230 365q0 -98 62 -159t163 -61q35 0 68 10.5t55 25t39 29t25 24.5l8 11h20v-170q-3 -4 -9.5 -10t-29 -21.5t-49 -27.5t-69 -21.5t-88.5 -9.5q-161 0 -270.5 109.5t-109.5 270.5t109.5 270.5t270.5 109.5q53 0 100.5 -10t77 -23.5t51.5 -27.5t32 -24l9 -10l-65 -140
q-2 3 -6.5 8t-20.5 18t-34.5 23t-49 18t-64.5 8q-101 0 -163 -61t-62 -159zM405 880l-105 -90h-105l150 195h120l150 -195h-105z" />
    <glyph glyph-name="ccircumflex" unicode="&#x109;" horiz-adv-x="565" 
d="M220 265q0 -63 35.5 -96.5t99.5 -33.5q40 0 75 13.5t50 27.5l15 14h15v-145q-7 -7 -20.5 -17t-61 -26.5t-103.5 -16.5q-123 0 -204 80t-81 200t81 200t204 80q38 0 73 -7t58 -17.5t40.5 -21t25.5 -17.5l8 -7l-65 -125q-4 5 -13 12.5t-37.5 20t-59.5 12.5
q-64 0 -99.5 -33.5t-35.5 -96.5zM315 680l-105 -90h-105l150 195h120l150 -195h-105z" />
    <glyph glyph-name="Ccaron" unicode="&#x10c;" horiz-adv-x="735" 
d="M230 365q0 -98 62 -159t163 -61q35 0 68 10.5t55 25t39 29t25 24.5l8 11h20v-170q-3 -4 -9.5 -10t-29 -21.5t-49 -27.5t-69 -21.5t-88.5 -9.5q-161 0 -270.5 109.5t-109.5 270.5t109.5 270.5t270.5 109.5q53 0 100.5 -10t77 -23.5t51.5 -27.5t32 -24l9 -10l-65 -140
q-2 3 -6.5 8t-20.5 18t-34.5 23t-49 18t-64.5 8q-101 0 -163 -61t-62 -159zM300 985l105 -90l105 90h105l-150 -195h-120l-150 195h105z" />
    <glyph glyph-name="ccaron" unicode="&#x10d;" horiz-adv-x="565" 
d="M220 265q0 -63 35.5 -96.5t99.5 -33.5q40 0 75 13.5t50 27.5l15 14h15v-145q-7 -7 -20.5 -17t-61 -26.5t-103.5 -16.5q-123 0 -204 80t-81 200t81 200t204 80q38 0 73 -7t58 -17.5t40.5 -21t25.5 -17.5l8 -7l-65 -125q-4 5 -13 12.5t-37.5 20t-59.5 12.5
q-64 0 -99.5 -33.5t-35.5 -96.5zM200 785l105 -90l105 90h105l-150 -195h-120l-150 195h105z" />
    <glyph glyph-name="Dcaron" unicode="&#x10e;" horiz-adv-x="785" 
d="M345 730q174 0 284.5 -104.5t110.5 -260.5t-110.5 -260.5t-284.5 -104.5h-260v730h260zM345 570h-80v-410h80q93 0 151.5 57.5t58.5 147.5t-58.5 147.5t-151.5 57.5zM268 985l105 -90l105 90h105l-150 -195h-120l-150 195h105z" />
    <glyph glyph-name="dcaron" unicode="&#x10f;" horiz-adv-x="805" 
d="M465 265q0 59 -35.5 94.5t-89.5 35.5t-89.5 -35.5t-35.5 -94.5t36 -94.5t90 -35.5q53 0 88.5 35.5t35.5 94.5zM465 460v300h175v-760h-170l-5 70h-5q-2 -3 -5.5 -9t-18 -20.5t-32 -26t-48 -20.5t-65.5 -9q-108 0 -179.5 77.5t-71.5 202.5t71.5 202.5t178.5 77.5
q35 0 65.5 -9t48.5 -21t31.5 -24.5t18.5 -21.5l6 -9h5zM835 715q0 -47 -20 -85.5t-40 -53.5l-20 -16h-55q50 50 50 100q-60 9 -60 70q0 33 19.5 51.5t50.5 18.5q32 0 53.5 -22.5t21.5 -62.5z" />
    <glyph glyph-name="Dcroat" unicode="&#x110;" horiz-adv-x="805" 
d="M365 730q174 0 284.5 -104.5t110.5 -260.5t-110.5 -260.5t-284.5 -104.5h-260v290h-65v150h65v290h260zM365 570h-80v-130h145v-150h-145v-130h80q93 0 151.5 57.5t58.5 147.5t-58.5 147.5t-151.5 57.5z" />
    <glyph glyph-name="dcroat" unicode="&#x111;" horiz-adv-x="715" 
d="M315 575v135h150v50h175v-50h75v-135h-75v-575h-170l-5 70h-5q-2 -3 -5.5 -9t-18 -20.5t-32 -26t-48 -20.5t-65.5 -9q-107 0 -179 76.5t-72 198.5t71.5 198.5t178.5 76.5q35 0 65.5 -9t48.5 -21t31.5 -24.5t18.5 -21.5l6 -9h5v125h-150zM465 260q0 55 -36 90t-89 35
t-89 -35t-36 -90t36 -90t90 -35q53 0 88.5 35t35.5 90z" />
    <glyph glyph-name="Emacron" unicode="&#x112;" horiz-adv-x="650" 
d="M85 0v730h505v-160h-325v-125h250v-160h-250v-125h325v-160h-505zM130 825v115h415v-115h-415z" />
    <glyph glyph-name="emacron" unicode="&#x113;" horiz-adv-x="630" 
d="M325 545q124 0 194.5 -72t70.5 -203v-35h-390q0 -4 1.5 -11t11.5 -25.5t24.5 -32t45.5 -25t72 -11.5q53 0 97 14t61 28l17 13h15v-140q-9 -7 -26 -17t-71.5 -26.5t-112.5 -16.5q-130 0 -212.5 79.5t-82.5 200.5q0 120 81 200t204 80zM335 410q-52 0 -84.5 -23t-45.5 -57
h225q0 31 -27.5 55.5t-67.5 24.5zM125 625v115h415v-115h-415z" />
    <glyph glyph-name="Edotaccent" unicode="&#x116;" horiz-adv-x="650" 
d="M85 0v730h505v-160h-325v-125h250v-160h-250v-125h325v-160h-505zM255 885q0 40 23.5 62.5t61.5 22.5q40 0 62.5 -22t22.5 -63q0 -40 -23.5 -62.5t-61.5 -22.5t-61.5 22.5t-23.5 62.5z" />
    <glyph glyph-name="edotaccent" unicode="&#x117;" horiz-adv-x="630" 
d="M325 545q124 0 194.5 -72t70.5 -203v-35h-390q0 -4 1.5 -11t11.5 -25.5t24.5 -32t45.5 -25t72 -11.5q53 0 97 14t61 28l17 13h15v-140q-9 -7 -26 -17t-71.5 -26.5t-112.5 -16.5q-130 0 -212.5 79.5t-82.5 200.5q0 120 81 200t204 80zM335 410q-52 0 -84.5 -23t-45.5 -57
h225q0 31 -27.5 55.5t-67.5 24.5zM245 685q0 40 23.5 62.5t61.5 22.5q40 0 62.5 -22t22.5 -63q0 -40 -23.5 -62.5t-61.5 -22.5t-61.5 22.5t-23.5 62.5z" />
    <glyph glyph-name="Eogonek" unicode="&#x118;" horiz-adv-x="650" 
d="M85 0v730h505v-160h-325v-125h250v-160h-250v-125h325v-160q-4 -2 -10 -5.5t-21.5 -16t-27.5 -26t-21.5 -36t-9.5 -46.5q0 -55 45 -55q11 0 22.5 2.5t16.5 4.5l6 3v-65q-30 -20 -80 -20q-69 0 -104.5 29.5t-35.5 80.5q0 29 13.5 55.5t32.5 43t38 28.5t32 17l14 6h-415z
" />
    <glyph glyph-name="eogonek" unicode="&#x119;" horiz-adv-x="630" 
d="M325 545q124 0 194.5 -72t70.5 -203v-35h-390q0 -4 1.5 -11t11.5 -25.5t24.5 -32t45.5 -25t72 -11.5q36 0 69 6.5t54 16t37 19.5t23 16l7 7v-150q-38 -27 -100 -45q-4 -2 -10 -5.5t-21.5 -16t-27.5 -26t-21.5 -36t-9.5 -46.5q0 -55 45 -55q11 0 22.5 2.5t17.5 4.5l5 3
v-65q-30 -20 -80 -20q-69 0 -104.5 29.5t-35.5 80.5q0 25 10.5 48.5t25 38.5t29 26.5t24.5 16.5l11 5q-124 4 -204.5 82.5t-80.5 197.5q0 120 81 200t204 80zM335 410q-52 0 -84.5 -23t-45.5 -57h225q0 31 -27.5 55.5t-67.5 24.5z" />
    <glyph glyph-name="Ecaron" unicode="&#x11a;" horiz-adv-x="650" 
d="M85 0v730h505v-160h-325v-125h250v-160h-250v-125h325v-160h-505zM235 985l105 -90l105 90h105l-150 -195h-120l-150 195h105z" />
    <glyph glyph-name="ecaron" unicode="&#x11b;" horiz-adv-x="630" 
d="M325 545q124 0 194.5 -72t70.5 -203v-35h-390q0 -4 1.5 -11t11.5 -25.5t24.5 -32t45.5 -25t72 -11.5q53 0 97 14t61 28l17 13h15v-140q-9 -7 -26 -17t-71.5 -26.5t-112.5 -16.5q-130 0 -212.5 79.5t-82.5 200.5q0 120 81 200t204 80zM335 410q-52 0 -84.5 -23t-45.5 -57
h225q0 31 -27.5 55.5t-67.5 24.5zM225 785l105 -90l105 90h105l-150 -195h-120l-150 195h105z" />
    <glyph glyph-name="Gbreve" unicode="&#x11e;" horiz-adv-x="815" 
d="M425 745q53 0 101.5 -10.5t79.5 -25t54.5 -29t33.5 -24.5l11 -11l-65 -145q-2 3 -6.5 9t-21 20.5t-36 26t-52.5 20.5t-69 9q-101 0 -163 -61t-62 -159q0 -97 60.5 -158.5t154.5 -61.5q42 0 77 12.5t49 24.5l14 13v80h-185l40 155h310v-300q-4 -6 -12 -15.5t-37.5 -34.5
t-64 -44.5t-91.5 -35t-120 -15.5q-161 0 -270.5 109.5t-109.5 270.5t109.5 270.5t270.5 109.5zM430 915q44 0 86.5 15t63.5 30l20 15v-120q-7 -6 -20 -14t-57 -22t-93 -14t-91.5 12.5t-60.5 24.5l-18 13v120q8 -7 22.5 -17t59 -26.5t88.5 -16.5z" />
    <glyph glyph-name="gbreve" unicode="&#x11f;" horiz-adv-x="585" 
d="M50 350q0 89 61 142t174 53q31 0 60 -5t42 -10l13 -5q2 4 5 11t16.5 24t30 30t45.5 24t63 11v-135q-22 0 -42 -5t-29 -10l-9 -5q4 -4 11 -13t18 -40t11 -67q0 -71 -33 -111t-102 -69l-130 -55h115q102 0 153.5 -43t51.5 -117q0 -84 -72 -137t-218 -53q-265 0 -265 135
q0 29 20 55t40 38l20 12h-55v75l160 85q-6 1 -16.5 3t-37.5 14.5t-47 30.5t-37 54.5t-17 82.5zM400 -50q0 28 -24.5 41.5t-85.5 13.5h-75q-5 -1 -12.5 -4t-20 -17t-12.5 -34q0 -28 25.5 -41.5t89.5 -13.5q115 0 115 55zM215 350q0 -33 19.5 -51.5t50.5 -18.5t50.5 18.5
t19.5 51.5t-19.5 51.5t-50.5 18.5t-50.5 -18.5t-19.5 -51.5zM303 725q44 0 86.5 15t62.5 30l21 15v-120q-7 -6 -20 -14t-57 -22t-93 -14t-91.5 12.5t-60.5 24.5l-18 13v120q8 -7 22.5 -17t59 -26.5t88.5 -16.5z" />
    <glyph glyph-name="Gcommaaccent" unicode="&#x122;" horiz-adv-x="815" 
d="M425 745q53 0 101.5 -10.5t79.5 -25t54.5 -29t33.5 -24.5l11 -11l-65 -145q-2 3 -6.5 9t-21 20.5t-36 26t-52.5 20.5t-69 9q-101 0 -163 -61t-62 -159q0 -97 60.5 -158.5t154.5 -61.5q42 0 77 12.5t49 24.5l14 13v80h-185l40 155h310v-300q-4 -6 -12 -15.5t-37.5 -34.5
t-64 -44.5t-91.5 -35t-120 -15.5q-161 0 -270.5 109.5t-109.5 270.5t109.5 270.5t270.5 109.5zM500 -140q0 -47 -20 -85.5t-40 -54.5l-20 -15h-55q50 50 50 100q-60 9 -60 70q0 33 19.5 51.5t50.5 18.5q32 0 53.5 -22.5t21.5 -62.5z" />
    <glyph glyph-name="gcommaaccent" unicode="&#x123;" horiz-adv-x="585" 
d="M215 680q0 47 20 85.5t40 54.5l20 15h55q-50 -50 -50 -100q60 -9 60 -70q0 -33 -19.5 -51.5t-50.5 -18.5q-32 0 -53.5 22.5t-21.5 62.5zM50 350q0 89 61 142t174 53q31 0 60 -5t42 -10l13 -5q2 4 5 11t16.5 24t30 30t45.5 24t63 11v-135q-22 0 -42 -5t-29 -10l-9 -5
q4 -4 11 -13t18 -40t11 -67q0 -71 -33 -111t-102 -69l-130 -55h115q102 0 153.5 -43t51.5 -117q0 -84 -72 -137t-218 -53q-265 0 -265 135q0 29 20 55t40 38l20 12h-55v75l160 85q-6 1 -16.5 3t-37.5 14.5t-47 30.5t-37 54.5t-17 82.5zM400 -50q0 28 -24.5 41.5t-85.5 13.5
h-75q-5 -1 -12.5 -4t-20 -17t-12.5 -34q0 -28 25.5 -41.5t89.5 -13.5q115 0 115 55zM215 350q0 -33 19.5 -51.5t50.5 -18.5t50.5 18.5t19.5 51.5t-19.5 51.5t-50.5 18.5t-50.5 -18.5t-19.5 -51.5z" />
    <glyph glyph-name="Imacron" unicode="&#x12a;" horiz-adv-x="360" 
d="M270 730v-730h-180v730h180zM-30 825v115h415v-115h-415z" />
    <glyph glyph-name="imacron" unicode="&#x12b;" horiz-adv-x="305" 
d="M-55 625v115h415v-115h-415zM240 530v-530h-175v530h175z" />
    <glyph glyph-name="Iogonek" unicode="&#x12e;" horiz-adv-x="360" 
d="M180 0h-90v730h180v-730q-4 -2 -10 -5.5t-21.5 -16t-27.5 -26t-21.5 -36t-9.5 -46.5q0 -55 45 -55q11 0 22.5 2.5t16.5 4.5l6 3v-65q-30 -20 -80 -20q-69 0 -104.5 29.5t-35.5 80.5q0 29 13.5 55.5t32.5 43t38 28.5t32 17z" />
    <glyph glyph-name="iogonek" unicode="&#x12f;" horiz-adv-x="305" 
d="M150 0h-85v535q40 -15 87 -15q21 0 43 4t33 8l12 3v-535q-4 -2 -10 -5.5t-21.5 -16t-27.5 -26t-21.5 -36t-9.5 -46.5q0 -55 45 -55q11 0 22.5 2.5t16.5 4.5l6 3v-65q-30 -20 -80 -20q-69 0 -104.5 29.5t-35.5 80.5q0 29 13.5 55.5t32.5 43t38 28.5t32 17zM55 685
q0 41 27 65.5t70 24.5q44 0 71 -24.5t27 -65.5t-27 -65.5t-71 -24.5q-43 0 -70 24.5t-27 65.5z" />
    <glyph glyph-name="Idotaccent" unicode="&#x130;" horiz-adv-x="360" 
d="M270 730v-730h-180v730h180zM95 885q0 40 23.5 62.5t61.5 22.5q40 0 62.5 -22t22.5 -63q0 -40 -23.5 -62.5t-61.5 -22.5t-61.5 22.5t-23.5 62.5z" />
    <glyph glyph-name="dotlessi" unicode="&#x131;" horiz-adv-x="305" 
d="M240 530v-530h-175v530h175z" />
    <glyph glyph-name="Kcommaaccent" unicode="&#x136;" horiz-adv-x="745" 
d="M465 -140q0 -47 -20 -85.5t-40 -54.5l-20 -15h-55q50 50 50 100q-60 9 -60 70q0 33 19.5 51.5t50.5 18.5q32 0 53.5 -22.5t21.5 -62.5zM475 415l280 -415h-206l-194 285l-90 -110v-175h-180v730h180v-320l265 320h206z" />
    <glyph glyph-name="kcommaaccent" unicode="&#x137;" horiz-adv-x="625" 
d="M240 120v-120h-175v760h175v-440l180 210h195l-200 -225l220 -305h-190l-140 195zM400 -140q0 -47 -20 -85.5t-40 -54.5l-20 -15h-55q50 50 50 100q-60 9 -60 70q0 33 19.5 51.5t50.5 18.5q32 0 53.5 -22.5t21.5 -62.5z" />
    <glyph glyph-name="Lacute" unicode="&#x139;" horiz-adv-x="575" 
d="M265 730v-570h280v-160h-460v730h180zM130 790l55 195h185l-135 -195h-105z" />
    <glyph glyph-name="lacute" unicode="&#x13a;" horiz-adv-x="305" 
d="M240 760v-760h-175v760h175zM100 830l55 195h185l-135 -195h-105z" />
    <glyph glyph-name="Lcommaaccent" unicode="&#x13b;" horiz-adv-x="575" 
d="M265 730v-570h280v-160h-460v730h180zM390 -139q0 -47 -20 -85.5t-40 -53.5l-20 -16h-55q50 50 50 100q-60 9 -60 70q0 33 19.5 51.5t50.5 18.5q32 0 53.5 -22.5t21.5 -62.5z" />
    <glyph glyph-name="lcommaaccent" unicode="&#x13c;" horiz-adv-x="305" 
d="M240 760v-760h-175v760h175zM220 -140q0 -47 -20 -85.5t-40 -54.5l-20 -15h-55q50 50 50 100q-60 9 -60 70q0 33 19.5 51.5t50.5 18.5q32 0 53.5 -22.5t21.5 -62.5z" />
    <glyph glyph-name="Lcaron" unicode="&#x13d;" horiz-adv-x="575" 
d="M265 730v-570h280v-160h-460v730h180zM480 655q0 -47 -20 -85.5t-40 -53.5l-20 -16h-55q50 50 50 100q-60 9 -60 70q0 33 19.5 51.5t50.5 18.5q32 0 53.5 -22.5t21.5 -62.5z" />
    <glyph glyph-name="lcaron" unicode="&#x13e;" horiz-adv-x="405" 
d="M240 760v-760h-175v760h175zM435 715q0 -47 -20 -85.5t-40 -53.5l-20 -16h-55q50 50 50 100q-60 9 -60 70q0 33 19.5 51.5t50.5 18.5q32 0 53.5 -22.5t21.5 -62.5z" />
    <glyph glyph-name="Lslash" unicode="&#x141;" 
d="M280 730v-270l160 55v-150l-160 -55v-150h280v-160h-460v250l-60 -20v150l60 20v330h180z" />
    <glyph glyph-name="lslash" unicode="&#x142;" horiz-adv-x="325" 
d="M250 760v-260l65 20v-150l-65 -20v-350h-175v290l-65 -20v150l65 20v320h175z" />
    <glyph glyph-name="Nacute" unicode="&#x143;" horiz-adv-x="830" 
d="M745 730v-730h-175l-305 435v-435h-180v730h175l305 -435v435h180zM355 790l55 195h185l-135 -195h-105z" />
    <glyph glyph-name="nacute" unicode="&#x144;" horiz-adv-x="670" 
d="M610 0h-175v307q0 42 -23 65t-62 23q-46 0 -78 -32t-32 -84v-279h-175v530h170l5 -70h5q2 3 5 9t16.5 20.5t30 26t45.5 20.5t63 9q94 0 149.5 -57t55.5 -158v-330zM285 590l55 195h185l-135 -195h-105z" />
    <glyph glyph-name="Ncommaaccent" unicode="&#x145;" horiz-adv-x="830" 
d="M745 730v-730h-175l-305 435v-435h-180v730h175l305 -435v435h180zM490 -140q0 -47 -20 -85.5t-40 -54.5l-20 -15h-55q50 50 50 100q-60 9 -60 70q0 33 19.5 51.5t50.5 18.5q32 0 53.5 -22.5t21.5 -62.5z" />
    <glyph glyph-name="ncommaaccent" unicode="&#x146;" horiz-adv-x="670" 
d="M610 0h-175v307q0 42 -23 65t-62 23q-46 0 -78 -32t-32 -84v-279h-175v530h170l5 -70h5q2 3 5 9t16.5 20.5t30 26t45.5 20.5t63 9q94 0 149.5 -57t55.5 -158v-330zM410 -140q0 -47 -20 -85.5t-40 -54.5l-20 -15h-55q50 50 50 100q-60 9 -60 70q0 33 19.5 51.5t50.5 18.5
q32 0 53.5 -22.5t21.5 -62.5z" />
    <glyph glyph-name="Ncaron" unicode="&#x147;" horiz-adv-x="830" 
d="M745 730v-730h-175l-305 435v-435h-180v730h175l305 -435v435h180zM320 985l105 -90l105 90h105l-150 -195h-120l-150 195h105z" />
    <glyph glyph-name="ncaron" unicode="&#x148;" horiz-adv-x="670" 
d="M610 0h-175v307q0 42 -23 65t-62 23q-46 0 -78 -32t-32 -84v-279h-175v530h170l5 -70h5q2 3 5 9t16.5 20.5t30 26t45.5 20.5t63 9q94 0 149.5 -57t55.5 -158v-330zM235 785l105 -90l105 90h105l-150 -195h-120l-150 195h105z" />
    <glyph glyph-name="Omacron" unicode="&#x14c;" horiz-adv-x="880" 
d="M230 365q0 -97 59.5 -158.5t150.5 -61.5t150.5 61.5t59.5 158.5t-59.5 158.5t-150.5 61.5t-150.5 -61.5t-59.5 -158.5zM835 365q0 -162 -112 -271t-283 -109t-283 109t-112 271t112 271t283 109t283 -109t112 -271zM235 825v115h415v-115h-415z" />
    <glyph glyph-name="omacron" unicode="&#x14d;" horiz-adv-x="680" 
d="M340 545q134 0 217 -79.5t83 -200.5t-83 -200.5t-217 -79.5t-217 79.5t-83 200.5t83 200.5t217 79.5zM340 395q-50 0 -85 -36t-35 -94t35 -94t85 -36t85 36t35 94t-35 94t-85 36zM130 625v115h415v-115h-415z" />
    <glyph glyph-name="Ohungarumlaut" unicode="&#x150;" horiz-adv-x="880" 
d="M230 365q0 -97 59.5 -158.5t150.5 -61.5t150.5 61.5t59.5 158.5t-59.5 158.5t-150.5 61.5t-150.5 -61.5t-59.5 -158.5zM835 365q0 -162 -112 -271t-283 -109t-283 109t-112 271t112 271t283 109t283 -109t112 -271zM310 790l55 195h165l-135 -195h-85zM480 790l95 195
h180l-170 -195h-105z" />
    <glyph glyph-name="ohungarumlaut" unicode="&#x151;" horiz-adv-x="680" 
d="M340 545q134 0 217 -79.5t83 -200.5t-83 -200.5t-217 -79.5t-217 79.5t-83 200.5t83 200.5t217 79.5zM340 395q-50 0 -85 -36t-35 -94t35 -94t85 -36t85 36t35 94t-35 94t-85 36zM210 590l55 195h165l-135 -195h-85zM380 590l95 195h180l-170 -195h-105z" />
    <glyph glyph-name="OE" unicode="&#x152;" horiz-adv-x="1090" 
d="M1030 0h-475q-50 -15 -115 -15q-171 0 -283 109t-112 271t112 271t283 109q29 0 57.5 -3.5t42.5 -7.5l15 -4h475v-160h-295v-125h220v-160h-220v-125h295v-160zM440 145q33 0 62 8.5t41 17.5l12 9v370q-40 35 -115 35q-91 0 -150.5 -61.5t-59.5 -158.5t59.5 -158.5
t150.5 -61.5z" />
    <glyph glyph-name="oe" unicode="&#x153;" horiz-adv-x="985" 
d="M680 545q124 0 194.5 -72t70.5 -203v-35h-390q0 -4 1.5 -11t11.5 -25.5t24.5 -32t45.5 -25t72 -11.5q53 0 97 14t61 28l17 13h15v-140q-9 -7 -26 -17t-71.5 -26.5t-112.5 -16.5q-32 0 -62 5.5t-49.5 14t-34.5 16.5t-22 13l-7 6q-7 -6 -20 -15t-58.5 -24.5t-96.5 -15.5
q-134 0 -217 79.5t-83 200.5t83 200.5t217 79.5q47 0 89.5 -13.5t61.5 -27.5l19 -14q7 6 20 15t57 24.5t93 15.5zM395 265q0 29 5 55t10 38l5 12q-25 25 -75 25t-85 -36t-35 -94t35 -94t85 -36q22 0 41 6.5t27 12.5l7 6q-20 40 -20 105zM690 410q-52 0 -84.5 -23t-45.5 -57
h225q0 31 -27.5 55.5t-67.5 24.5z" />
    <glyph glyph-name="Racute" unicode="&#x154;" horiz-adv-x="690" 
d="M265 570v-200h60q115 0 115 100t-115 100h-60zM500 265l175 -265h-200l-145 220h-65v-220h-180v730h240q139 0 219.5 -71.5t80.5 -183.5q0 -42 -13 -78.5t-31.5 -58.5t-36.5 -38.5t-31 -23.5l-13 -6v-5zM290 790l55 195h185l-135 -195h-105z" />
    <glyph glyph-name="racute" unicode="&#x155;" horiz-adv-x="490" 
d="M360 390q-22 0 -43 -8t-34 -20t-23.5 -24t-15.5 -20l-4 -8v-310h-175v530h170l5 -75h5q1 4 4 10t14.5 21.5t25 27.5t36.5 21.5t50 9.5q33 0 61.5 -10t41.5 -20l12 -10l-35 -145q-30 30 -95 30zM210 590l55 195h185l-135 -195h-105z" />
    <glyph glyph-name="Rcommaaccent" unicode="&#x156;" horiz-adv-x="690" 
d="M265 570v-200h60q115 0 115 100t-115 100h-60zM500 265l175 -265h-200l-145 220h-65v-220h-180v730h240q139 0 219.5 -71.5t80.5 -183.5q0 -42 -13 -78.5t-31.5 -58.5t-36.5 -38.5t-31 -23.5l-13 -6v-5zM440 -140q0 -47 -20 -85.5t-40 -54.5l-20 -15h-55q50 50 50 100
q-60 9 -60 70q0 33 19.5 51.5t50.5 18.5q32 0 53.5 -22.5t21.5 -62.5z" />
    <glyph glyph-name="rcommaaccent" unicode="&#x157;" horiz-adv-x="490" 
d="M360 390q-22 0 -43 -8t-34 -20t-23.5 -24t-15.5 -20l-4 -8v-310h-175v530h170l5 -75h5q1 4 4 10t14.5 21.5t25 27.5t36.5 21.5t50 9.5q33 0 61.5 -10t41.5 -20l12 -10l-35 -145q-30 30 -95 30zM220 -140q0 -47 -20 -85.5t-40 -54.5l-20 -15h-55q50 50 50 100
q-60 9 -60 70q0 33 19.5 51.5t50.5 18.5q32 0 53.5 -22.5t21.5 -62.5z" />
    <glyph glyph-name="Rcaron" unicode="&#x158;" horiz-adv-x="690" 
d="M265 570v-200h60q115 0 115 100t-115 100h-60zM500 265l175 -265h-200l-145 220h-65v-220h-180v730h240q139 0 219.5 -71.5t80.5 -183.5q0 -42 -13 -78.5t-31.5 -58.5t-36.5 -38.5t-31 -23.5l-13 -6v-5zM240 985l105 -90l105 90h105l-150 -195h-120l-150 195h105z" />
    <glyph glyph-name="rcaron" unicode="&#x159;" horiz-adv-x="490" 
d="M360 390q-22 0 -43 -8t-34 -20t-23.5 -24t-15.5 -20l-4 -8v-310h-175v530h170l5 -75h5q1 4 4 10t14.5 21.5t25 27.5t36.5 21.5t50 9.5q33 0 61.5 -10t41.5 -20l12 -10l-35 -145q-30 30 -95 30zM165 785l105 -90l105 90h105l-150 -195h-120l-150 195h105z" />
    <glyph glyph-name="Sacute" unicode="&#x15a;" horiz-adv-x="605" 
d="M295 745q64 0 123 -20t86 -40l26 -20l-60 -145q-6 7 -17 18t-51 29t-87 18q-75 0 -75 -55q0 -23 33.5 -43t81 -40.5t95.5 -47t81.5 -74t33.5 -110.5q0 -100 -73 -165t-197 -65q-46 0 -89.5 10.5t-72 25t-50.5 29t-33 24.5l-10 11l60 140l8.5 -8.5t23.5 -19.5t37.5 -24.5
t49.5 -19t61 -8.5q100 0 100 65q0 27 -33.5 50t-81 44t-95.5 48t-81.5 74.5t-33.5 110.5q0 91 65 149.5t175 58.5zM240 790l55 195h185l-135 -195h-105z" />
    <glyph glyph-name="sacute" unicode="&#x15b;" horiz-adv-x="510" 
d="M480 155q0 -71 -60.5 -120.5t-164.5 -49.5q-62 0 -118.5 17.5t-81.5 35.5l-25 17l30 130q6 -6 18.5 -15t55 -24.5t91.5 -15.5q75 0 75 35q0 16 -27 26t-65 20t-76 26t-65 52.5t-27 90.5q0 68 57.5 116.5t157.5 48.5q38 0 73.5 -7.5t59 -19t42 -22.5t26.5 -18l9 -8
l-60 -115q-4 5 -13 12.5t-40 20t-67 12.5q-65 0 -65 -35q0 -13 27 -21.5t65 -18.5t76 -26t65 -53t27 -91zM185 590l55 195h185l-135 -195h-105z" />
    <glyph glyph-name="Scedilla" unicode="&#x15e;" horiz-adv-x="605" 
d="M295 745q64 0 123 -20t86 -40l26 -20l-60 -145q-6 7 -17 18t-51 29t-87 18q-75 0 -75 -55q0 -23 33.5 -43t81 -40.5t95.5 -47t81.5 -74t33.5 -110.5q0 -95 -64.5 -158.5t-175.5 -70.5l-10 -26q110 -16 110 -110q0 -51 -37 -80.5t-113 -29.5q-24 0 -46.5 5t-32.5 10l-11 5
v70q25 -15 55 -15q45 0 45 35q0 20 -18.5 31t-37.5 13l-19 1l34 94q-59 7 -110 31t-72 44l-22 21l60 140l8.5 -8.5t23.5 -19.5t37.5 -24.5t49.5 -19t61 -8.5q100 0 100 65q0 27 -33.5 50t-81 44t-95.5 48t-81.5 74.5t-33.5 110.5q0 91 65 149.5t175 58.5z" />
    <glyph glyph-name="scedilla" unicode="&#x15f;" horiz-adv-x="510" 
d="M480 155q0 -69 -54 -115.5t-147 -53.5l-9 -26q110 -16 110 -110q0 -51 -37 -80.5t-113 -29.5q-24 0 -46.5 5t-33.5 10l-10 5v70q25 -15 55 -15q45 0 45 35q0 20 -19 31t-37 13l-19 1l35 94q-48 6 -90.5 22.5t-61.5 30.5l-18 13l30 130q6 -6 18.5 -15t55 -24.5t91.5 -15.5
q75 0 75 35q0 16 -27 26t-65 20t-76 26t-65 52.5t-27 90.5q0 68 57.5 116.5t157.5 48.5q38 0 73.5 -7.5t59 -19t42 -22.5t26.5 -18l9 -8l-60 -115q-4 5 -13 12.5t-40 20t-67 12.5q-65 0 -65 -35q0 -13 27 -21.5t65 -18.5t76 -26t65 -53t27 -91z" />
    <glyph glyph-name="Scaron" unicode="&#x160;" horiz-adv-x="605" 
d="M295 745q64 0 123 -20t86 -40l26 -20l-60 -145q-6 7 -17 18t-51 29t-87 18q-75 0 -75 -55q0 -23 33.5 -43t81 -40.5t95.5 -47t81.5 -74t33.5 -110.5q0 -100 -73 -165t-197 -65q-46 0 -89.5 10.5t-72 25t-50.5 29t-33 24.5l-10 11l60 140l8.5 -8.5t23.5 -19.5t37.5 -24.5
t49.5 -19t61 -8.5q100 0 100 65q0 27 -33.5 50t-81 44t-95.5 48t-81.5 74.5t-33.5 110.5q0 91 65 149.5t175 58.5zM195 985l105 -90l105 90h105l-150 -195h-120l-150 195h105z" />
    <glyph glyph-name="scaron" unicode="&#x161;" horiz-adv-x="510" 
d="M480 155q0 -71 -60.5 -120.5t-164.5 -49.5q-62 0 -118.5 17.5t-81.5 35.5l-25 17l30 130q6 -6 18.5 -15t55 -24.5t91.5 -15.5q75 0 75 35q0 16 -27 26t-65 20t-76 26t-65 52.5t-27 90.5q0 68 57.5 116.5t157.5 48.5q38 0 73.5 -7.5t59 -19t42 -22.5t26.5 -18l9 -8
l-60 -115q-4 5 -13 12.5t-40 20t-67 12.5q-65 0 -65 -35q0 -13 27 -21.5t65 -18.5t76 -26t65 -53t27 -91zM140 785l105 -90l105 90h105l-150 -195h-120l-150 195h105z" />
    <glyph glyph-name="Tcommaaccent" unicode="&#x162;" horiz-adv-x="670" 
d="M35 730h600v-160h-210v-570h-180v570h-210v160zM405 -140q0 -47 -20 -85.5t-40 -54.5l-20 -15h-55q50 50 50 100q-60 9 -60 70q0 33 19.5 51.5t50.5 18.5q32 0 53.5 -22.5t21.5 -62.5z" />
    <glyph glyph-name="tcommaaccent" unicode="&#x163;" horiz-adv-x="490" 
d="M95 195v180h-85v40l255 245h5v-130h160v-155h-160v-165q0 -37 20 -56t55 -19q22 0 42 8.5t29 17.5l9 9h15v-140q-6 -5 -17.5 -12.5t-49.5 -20t-78 -12.5q-91 0 -145.5 56.5t-54.5 153.5zM345 -140q0 -47 -20 -85.5t-40 -54.5l-20 -15h-55q50 50 50 100q-60 9 -60 70
q0 33 19.5 51.5t50.5 18.5q32 0 53.5 -22.5t21.5 -62.5z" />
    <glyph glyph-name="Tcaron" unicode="&#x164;" horiz-adv-x="670" 
d="M35 730h600v-160h-210v-570h-180v570h-210v160zM230 985l105 -90l105 90h105l-150 -195h-120l-150 195h105z" />
    <glyph glyph-name="tcaron" unicode="&#x165;" horiz-adv-x="560" 
d="M95 195v180h-85v40l255 245h5v-130h160v-155h-160v-165q0 -37 20 -56t55 -19q22 0 42 8.5t29 17.5l9 9h15v-140q-6 -5 -17.5 -12.5t-49.5 -20t-78 -12.5q-91 0 -145.5 56.5t-54.5 153.5zM590 605q0 -47 -20 -85.5t-40 -53.5l-20 -16h-55q50 50 50 100q-60 9 -60 70
q0 33 19.5 51.5t50.5 18.5q32 0 53.5 -22.5t21.5 -62.5z" />
    <glyph glyph-name="Umacron" unicode="&#x16a;" horiz-adv-x="790" 
d="M395 -15q-149 0 -234.5 83.5t-85.5 226.5v435h180v-435q0 -71 38 -110.5t102 -39.5t102 39.5t38 110.5v435h180v-435q0 -143 -85.5 -226.5t-234.5 -83.5zM190 825v115h415v-115h-415z" />
    <glyph glyph-name="umacron" unicode="&#x16b;" horiz-adv-x="675" 
d="M65 530h175v-307q0 -42 23 -65t62 -23q46 0 78 32t32 84v279h175v-530h-170l-5 70h-5q-2 -3 -5 -9t-16.5 -20.5t-30 -26t-45.5 -20.5t-63 -9q-94 0 -149.5 57t-55.5 158v330zM130 625v115h415v-115h-415z" />
    <glyph glyph-name="Uring" unicode="&#x16e;" horiz-adv-x="790" 
d="M395 -15q-149 0 -234.5 83.5t-85.5 226.5v435h180v-435q0 -71 38 -110.5t102 -39.5t102 39.5t38 110.5v435h180v-435q0 -143 -85.5 -226.5t-234.5 -83.5zM360 895q0 -35 35 -35t35 35t-35 35t-35 -35zM525 895q0 -56 -36.5 -90.5t-93.5 -34.5t-93.5 34.5t-36.5 90.5
t36.5 90.5t93.5 34.5t93.5 -34.5t36.5 -90.5z" />
    <glyph glyph-name="uring" unicode="&#x16f;" horiz-adv-x="675" 
d="M65 530h175v-307q0 -42 23 -65t62 -23q46 0 78 32t32 84v279h175v-530h-170l-5 70h-5q-2 -3 -5 -9t-16.5 -20.5t-30 -26t-45.5 -20.5t-63 -9q-94 0 -149.5 57t-55.5 158v330zM300 697q0 -35 35 -35t35 35t-35 35t-35 -35zM465 697q0 -56 -36.5 -90.5t-93.5 -34.5
t-93.5 34.5t-36.5 90.5t36.5 90.5t93.5 34.5t93.5 -34.5t36.5 -90.5z" />
    <glyph glyph-name="Uhungarumlaut" unicode="&#x170;" horiz-adv-x="790" 
d="M395 -15q-149 0 -234.5 83.5t-85.5 226.5v435h180v-435q0 -71 38 -110.5t102 -39.5t102 39.5t38 110.5v435h180v-435q0 -143 -85.5 -226.5t-234.5 -83.5zM260 790l55 195h165l-135 -195h-85zM430 790l95 195h180l-170 -195h-105z" />
    <glyph glyph-name="uhungarumlaut" unicode="&#x171;" horiz-adv-x="675" 
d="M65 530h175v-307q0 -42 23 -65t62 -23q46 0 78 32t32 84v279h175v-530h-170l-5 70h-5q-2 -3 -5 -9t-16.5 -20.5t-30 -26t-45.5 -20.5t-63 -9q-94 0 -149.5 57t-55.5 158v330zM195 590l55 195h165l-135 -195h-85zM365 590l95 195h180l-170 -195h-105z" />
    <glyph glyph-name="Uogonek" unicode="&#x172;" horiz-adv-x="790" 
d="M715 295q0 -115 -54 -190t-156 -105q-3 -2 -9 -5.5t-20.5 -16t-26 -26t-20.5 -36t-9 -46.5q0 -55 45 -55q11 0 22.5 2.5t16.5 4.5l6 3v-65q-30 -20 -80 -20q-69 0 -104.5 29.5t-35.5 80.5q0 25 10.5 48.5t25 38.5t29 26.5t25.5 16.5l10 5q-150 4 -232.5 85.5t-82.5 224.5
v435h180v-435q0 -71 38 -110.5t102 -39.5t102 39.5t38 110.5v435h180v-435z" />
    <glyph glyph-name="uogonek" unicode="&#x173;" horiz-adv-x="675" 
d="M520 0h-80l-5 70h-5q-2 -3 -5 -9t-16.5 -20.5t-30 -26t-45.5 -20.5t-63 -9q-94 0 -149.5 57t-55.5 158v330h175v-307q0 -42 23 -65t62 -23q46 0 78 32t32 84v279h175v-530q-4 -2 -10 -5.5t-21.5 -16t-27.5 -26t-21.5 -36t-9.5 -46.5q0 -55 45 -55q11 0 22.5 2.5t16.5 4.5
l6 3v-65q-30 -20 -80 -20q-69 0 -104.5 29.5t-35.5 80.5q0 29 13.5 55.5t32.5 43t38 28.5t32 17z" />
    <glyph glyph-name="Ydieresis" unicode="&#x178;" horiz-adv-x="730" 
d="M455 300v-300h-180v300l-265 430h200l155 -265l155 265h200zM170 885q0 40 23.5 62.5t61.5 22.5q40 0 62.5 -22t22.5 -63q0 -40 -23.5 -62.5t-61.5 -22.5t-61.5 22.5t-23.5 62.5zM390 885q0 40 23.5 62.5t61.5 22.5q40 0 62.5 -22t22.5 -63q0 -40 -23.5 -62.5
t-61.5 -22.5t-61.5 22.5t-23.5 62.5z" />
    <glyph glyph-name="Zacute" unicode="&#x179;" horiz-adv-x="710" 
d="M55 135l350 435h-330v160h570v-135l-350 -435h360v-160h-600v135zM300 790l55 195h185l-135 -195h-105z" />
    <glyph glyph-name="zacute" unicode="&#x17a;" horiz-adv-x="600" 
d="M55 375v155h490v-120l-250 -255h260v-155h-515v120l250 255h-235zM245 590l55 195h185l-135 -195h-105z" />
    <glyph glyph-name="Zdotaccent" unicode="&#x17b;" horiz-adv-x="710" 
d="M55 135l350 435h-330v160h570v-135l-350 -435h360v-160h-600v135zM280 885q0 40 23.5 62.5t61.5 22.5q40 0 62.5 -22t22.5 -63q0 -40 -23.5 -62.5t-61.5 -22.5t-61.5 22.5t-23.5 62.5z" />
    <glyph glyph-name="zdotaccent" unicode="&#x17c;" horiz-adv-x="600" 
d="M55 375v155h490v-120l-250 -255h260v-155h-515v120l250 255h-235zM220 685q0 40 23.5 62.5t61.5 22.5q40 0 62.5 -22t22.5 -63q0 -40 -23.5 -62.5t-61.5 -22.5t-61.5 22.5t-23.5 62.5z" />
    <glyph glyph-name="Zcaron" unicode="&#x17d;" horiz-adv-x="710" 
d="M55 135l350 435h-330v160h570v-135l-350 -435h360v-160h-600v135zM260 985l105 -90l105 90h105l-150 -195h-120l-150 195h105z" />
    <glyph glyph-name="zcaron" unicode="&#x17e;" horiz-adv-x="600" 
d="M55 375v155h490v-120l-250 -255h260v-155h-515v120l250 255h-235zM200 785l105 -90l105 90h105l-150 -195h-120l-150 195h105z" />
    <glyph glyph-name="florin" unicode="&#x192;" horiz-adv-x="520" 
d="M165 530l10 60q15 92 80 151t160 59q33 0 65.5 -11t48.5 -23l16 -11v-150q-55 45 -110 45q-76 0 -90 -70l-10 -50h145v-155h-169l-66 -375q-20 -112 -89 -173.5t-186 -61.5v150q45 4 69 24t31 61l66 375h-81v155h110z" />
    <glyph glyph-name="Scommaaccent" unicode="&#x218;" horiz-adv-x="605" 
d="M295 745q64 0 123 -20t86 -40l26 -20l-60 -145q-6 7 -17 18t-51 29t-87 18q-75 0 -75 -55q0 -23 33.5 -43t81 -40.5t95.5 -47t81.5 -74t33.5 -110.5q0 -100 -73 -165t-197 -65q-46 0 -89.5 10.5t-72 25t-50.5 29t-33 24.5l-10 11l60 140l8.5 -8.5t23.5 -19.5t37.5 -24.5
t49.5 -19t61 -8.5q100 0 100 65q0 27 -33.5 50t-81 44t-95.5 48t-81.5 74.5t-33.5 110.5q0 91 65 149.5t175 58.5zM365 -140q0 -47 -20 -85.5t-40 -54.5l-20 -15h-55q50 50 50 100q-60 9 -60 70q0 33 19.5 51.5t50.5 18.5q32 0 53.5 -22.5t21.5 -62.5z" />
    <glyph glyph-name="scommaaccent" unicode="&#x219;" horiz-adv-x="510" 
d="M480 155q0 -71 -60.5 -120.5t-164.5 -49.5q-62 0 -118.5 17.5t-81.5 35.5l-25 17l30 130q6 -6 18.5 -15t55 -24.5t91.5 -15.5q75 0 75 35q0 16 -27 26t-65 20t-76 26t-65 52.5t-27 90.5q0 68 57.5 116.5t157.5 48.5q38 0 73.5 -7.5t59 -19t42 -22.5t26.5 -18l9 -8
l-60 -115q-4 5 -13 12.5t-40 20t-67 12.5q-65 0 -65 -35q0 -13 27 -21.5t65 -18.5t76 -26t65 -53t27 -91zM315 -140q0 -47 -20 -85.5t-40 -54.5l-20 -15h-55q50 50 50 100q-60 9 -60 70q0 33 19.5 51.5t50.5 18.5q32 0 53.5 -22.5t21.5 -62.5z" />
    <glyph glyph-name="uni021A" unicode="&#x21a;" horiz-adv-x="670" 
d="M35 730h600v-160h-210v-570h-180v570h-210v160zM405 -140q0 -47 -20 -85.5t-40 -54.5l-20 -15h-55q50 50 50 100q-60 9 -60 70q0 33 19.5 51.5t50.5 18.5q32 0 53.5 -22.5t21.5 -62.5z" />
    <glyph glyph-name="uni021B" unicode="&#x21b;" horiz-adv-x="490" 
d="M95 195v180h-85v40l255 245h5v-130h160v-155h-160v-165q0 -37 20 -56t55 -19q22 0 42 8.5t29 17.5l9 9h15v-140q-6 -5 -17.5 -12.5t-49.5 -20t-78 -12.5q-91 0 -145.5 56.5t-54.5 153.5zM345 -140q0 -47 -20 -85.5t-40 -54.5l-20 -15h-55q50 50 50 100q-60 9 -60 70
q0 33 19.5 51.5t50.5 18.5q32 0 53.5 -22.5t21.5 -62.5z" />
    <glyph glyph-name="afii57929" unicode="&#x2bc;" horiz-adv-x="205" 
d="M175 710q0 -47 -20 -85.5t-40 -54.5l-20 -15h-55q50 50 50 100q-60 9 -60 70q0 33 19.5 51.5t50.5 18.5q32 0 53.5 -22.5t21.5 -62.5z" />
    <glyph glyph-name="circumflex" unicode="&#x2c6;" horiz-adv-x="480" 
d="M240 680l-105 -90h-105l150 195h120l150 -195h-105z" />
    <glyph glyph-name="caron" unicode="&#x2c7;" horiz-adv-x="480" 
d="M135 785l105 -90l105 90h105l-150 -195h-120l-150 195h105z" />
    <glyph glyph-name="breve" unicode="&#x2d8;" horiz-adv-x="400" 
d="M200 725q44 0 86.5 15t63.5 30l20 15v-120q-7 -6 -20 -14t-57 -22t-93 -14t-91.5 12.5t-60.5 24.5l-18 13v120q8 -7 22.5 -17t59 -26.5t88.5 -16.5z" />
    <glyph glyph-name="dotaccent" unicode="&#x2d9;" horiz-adv-x="230" 
d="M30 685q0 40 23.5 62.5t61.5 22.5q40 0 62.5 -22t22.5 -63q0 -40 -23.5 -62.5t-61.5 -22.5t-61.5 22.5t-23.5 62.5z" />
    <glyph glyph-name="ring" unicode="&#x2da;" horiz-adv-x="320" 
d="M125 685q0 -35 35 -35t35 35t-35 35t-35 -35zM290 685q0 -56 -36.5 -90.5t-93.5 -34.5t-93.5 34.5t-36.5 90.5t36.5 90.5t93.5 34.5t93.5 -34.5t36.5 -90.5z" />
    <glyph glyph-name="ogonek" unicode="&#x2db;" horiz-adv-x="280" 
d="M160 0h90q-4 -2 -10 -5.5t-21.5 -16t-27.5 -26t-21.5 -36t-9.5 -46.5q0 -55 45 -55q11 0 22.5 2.5t16.5 4.5l6 3v-65q-30 -20 -80 -20q-69 0 -104.5 29.5t-35.5 80.5q0 29 13.5 55.5t32.5 43t38 28.5t32 17z" />
    <glyph glyph-name="tilde" unicode="&#x2dc;" horiz-adv-x="450" 
d="M135 650q-29 0 -55 -11t-38 -23l-12 -11v120q4 6 12 14t37.5 22t65.5 14q42 0 90.5 -25t79.5 -25q29 0 55 11.5t38 22.5l12 11v-120q-4 -6 -12 -14t-37.5 -22t-65.5 -14q-42 0 -90.5 25t-79.5 25z" />
    <glyph glyph-name="hungarumlaut" unicode="&#x2dd;" horiz-adv-x="505" 
d="M30 590l55 195h165l-135 -195h-85zM200 590l95 195h180l-170 -195h-105z" />
    <glyph glyph-name="afii10023" unicode="&#x401;" horiz-adv-x="650" 
d="M85 0v730h505v-160h-325v-125h250v-160h-250v-125h325v-160h-505zM145 885q0 40 23.5 62.5t61.5 22.5q40 0 62.5 -22t22.5 -63q0 -40 -23.5 -62.5t-61.5 -22.5t-61.5 22.5t-23.5 62.5zM365 885q0 40 23.5 62.5t61.5 22.5q40 0 62.5 -22t22.5 -63q0 -40 -23.5 -62.5
t-61.5 -22.5t-61.5 22.5t-23.5 62.5z" />
    <glyph glyph-name="afii10051" unicode="&#x402;" horiz-adv-x="825" 
d="M570 730v-160h-215v-140q7 4 21 11t59.5 18t94.5 11q124 0 192 -68t68 -192q0 -112 -62.5 -175.5t-182.5 -74.5l-25 160q90 8 90 90q0 95 -130 95q-36 0 -67 -8.5t-45 -17.5l-13 -9v-270h-180v570h-155v160h550z" />
    <glyph glyph-name="afii10052" unicode="&#x403;" horiz-adv-x="560" 
d="M250 790l55 195h185l-135 -195h-105zM85 730h445v-160h-265v-570h-180v730z" />
    <glyph glyph-name="afii10053" unicode="&#x404;" horiz-adv-x="735" 
d="M505 445v-160h-260q53 -140 210 -140q35 0 68 10.5t55 25t39 29t25 24.5l8 11h20v-170q-3 -4 -9.5 -10t-29 -21.5t-49 -27.5t-69 -21.5t-88.5 -9.5q-161 0 -270.5 109.5t-109.5 270.5t109.5 270.5t270.5 109.5q53 0 100.5 -10t77 -23.5t51.5 -27.5t32 -24l9 -10l-65 -140
q-2 3 -6.5 8t-20.5 18t-34.5 23t-49 18t-64.5 8q-157 0 -210 -140h260z" />
    <glyph glyph-name="afii10054" unicode="&#x405;" horiz-adv-x="605" 
d="M295 745q64 0 123 -20t86 -40l26 -20l-60 -145q-6 7 -17 18t-51 29t-87 18q-75 0 -75 -55q0 -23 33.5 -43t81 -40.5t95.5 -47t81.5 -74t33.5 -110.5q0 -100 -73 -165t-197 -65q-46 0 -89.5 10.5t-72 25t-50.5 29t-33 24.5l-10 11l60 140l8.5 -8.5t23.5 -19.5t37.5 -24.5
t49.5 -19t61 -8.5q100 0 100 65q0 27 -33.5 50t-81 44t-95.5 48t-81.5 74.5t-33.5 110.5q0 91 65 149.5t175 58.5z" />
    <glyph glyph-name="afii10055" unicode="&#x406;" horiz-adv-x="350" 
d="M265 730v-730h-180v730h180z" />
    <glyph glyph-name="afii10056" unicode="&#x407;" horiz-adv-x="350" 
d="M265 730v-730h-180v730h180zM-20 885q0 40 23.5 62.5t61.5 22.5q40 0 62.5 -22t22.5 -63q0 -40 -23.5 -62.5t-61.5 -22.5t-61.5 22.5t-23.5 62.5zM200 885q0 40 23.5 62.5t61.5 22.5q40 0 62.5 -22t22.5 -63q0 -40 -23.5 -62.5t-61.5 -22.5t-61.5 22.5t-23.5 62.5z" />
    <glyph glyph-name="afii10057" unicode="&#x408;" horiz-adv-x="360" 
d="M95 50v680h180v-680q0 -222 -240 -245l-25 160q46 4 65.5 22.5t19.5 62.5z" />
    <glyph glyph-name="afii10058" unicode="&#x409;" horiz-adv-x="1040" 
d="M325 570l-20 -260q-13 -168 -78 -243t-194 -87l-33 160q56 8 86.5 46t38.5 124l40 420h495v-210h40q140 0 220 -72.5t80 -187.5t-80 -187.5t-220 -72.5h-220v570h-155zM660 360v-200h40q52 0 83.5 27.5t31.5 72.5t-31.5 72.5t-83.5 27.5h-40z" />
    <glyph glyph-name="afii10059" unicode="&#x40a;" horiz-adv-x="1075" 
d="M695 730v-250h60q132 0 206 -66t74 -174t-74 -174t-206 -66h-240v320h-250v-320h-180v730h180v-250h250v250h180zM695 320v-160h60q45 0 70 21t25 59t-25 59t-70 21h-60z" />
    <glyph glyph-name="afii10060" unicode="&#x40b;" horiz-adv-x="855" 
d="M570 730v-160h-215v-140q7 4 21 11t59.5 18t94.5 11q121 0 190.5 -73t69.5 -207v-190h-180v190q0 53 -33.5 84t-96.5 31q-36 0 -67 -8.5t-45 -17.5l-13 -9v-270h-180v570h-155v160h550z" />
    <glyph glyph-name="afii10061" unicode="&#x40c;" horiz-adv-x="745" 
d="M265 730v-325l265 325h200l-280 -350l305 -380h-215l-275 345v-345h-180v730h180zM325 790l55 195h185l-135 -195h-105z" />
    <glyph glyph-name="afii10062" unicode="&#x40e;" horiz-adv-x="710" 
d="M280 210l-270 520h190l170 -335h5l155 335h190l-260 -540q-52 -108 -104 -156.5t-124 -48.5q-21 0 -39 2.5t-25 4.5l-8 3l-20 160q20 -10 55 -10q53 0 85 65zM370 895q47 0 89.5 15t61.5 30l19 15v-120q-7 -6 -20 -14t-57 -22t-93 -14t-91.5 12.5t-60.5 24.5l-18 13v120
q7 -7 21 -17t58 -26.5t91 -16.5z" />
    <glyph glyph-name="afii10145" unicode="&#x40f;" horiz-adv-x="810" 
d="M315 0h-230v730h180v-570h280v570h180v-730h-230v-150h-180v150z" />
    <glyph glyph-name="afii10017" unicode="&#x410;" horiz-adv-x="795" 
d="M400 490h-5l-90 -200h185zM555 140h-315l-60 -140h-190l335 730h145l335 -730h-190z" />
    <glyph glyph-name="afii10018" unicode="&#x411;" horiz-adv-x="675" 
d="M265 320v-170h80q100 0 100 85t-100 85h-80zM265 570v-100h80q135 0 210 -65.5t75 -169.5t-75 -169.5t-210 -65.5h-260v730h485v-160h-305z" />
    <glyph glyph-name="afii10019" unicode="&#x412;" horiz-adv-x="675" 
d="M85 730h245q137 0 203.5 -52t66.5 -143q0 -34 -11.5 -61t-27.5 -42t-32 -25t-27 -13l-12 -4v-5q6 -1 15.5 -4t34.5 -16.5t44.5 -31.5t35 -52t15.5 -76q0 -94 -69.5 -149.5t-210.5 -55.5h-270v730zM265 300v-150h90q95 0 95 75t-95 75h-90zM335 580h-70v-130h70
q37 0 58.5 17.5t21.5 47.5t-21.5 47.5t-58.5 17.5z" />
    <glyph glyph-name="afii10020" unicode="&#x413;" horiz-adv-x="560" 
d="M85 730h445v-160h-265v-570h-180v730z" />
    <glyph glyph-name="afii10021" unicode="&#x414;" horiz-adv-x="805" 
d="M10 -150v310h60q2 2 5.5 6t13 19t17.5 33.5t15 51t9 70.5l20 390h540v-570h90v-310h-180v150h-410v-150h-180zM317 570l-7 -230q-2 -60 -15.5 -105t-26.5 -60l-13 -15h255v410h-193z" />
    <glyph glyph-name="afii10022" unicode="&#x415;" horiz-adv-x="650" 
d="M85 0v730h505v-160h-325v-125h250v-160h-250v-125h325v-160h-505z" />
    <glyph glyph-name="afii10024" unicode="&#x416;" horiz-adv-x="1080" 
d="M450 415v315h180v-315l235 315h200l-260 -350l285 -380h-215l-245 330v-330h-180v330l-245 -330h-215l285 380l-260 350h200z" />
    <glyph glyph-name="afii10025" unicode="&#x417;" horiz-adv-x="610" 
d="M180 300v150h95q41 0 63 17.5t22 47.5q0 70 -85 70q-29 0 -59 -7.5t-52 -18.5t-39.5 -22.5t-26.5 -18.5l-9 -8h-19v165q10 8 28 19.5t78 31t124 19.5q109 0 177 -59t68 -141q0 -35 -12 -64t-28.5 -45t-33.5 -27t-29 -15l-12 -4v-5q6 -1 15.5 -4t33.5 -16.5t42.5 -32
t33.5 -54t15 -78.5q0 -89 -75.5 -152t-199.5 -63q-46 0 -90.5 11t-74.5 26t-53.5 30.5t-34.5 26.5l-12 11l50 135l8.5 -8.5t24 -19.5t39 -24.5t52.5 -19t66 -8.5q115 0 115 75q0 35 -30.5 57.5t-84.5 22.5h-90z" />
    <glyph glyph-name="afii10026" unicode="&#x418;" horiz-adv-x="830" 
d="M745 730v-730h-180v445l-305 -445h-175v730h180v-445l305 445h175z" />
    <glyph glyph-name="afii10027" unicode="&#x419;" horiz-adv-x="830" 
d="M745 730v-730h-180v445l-305 -445h-175v730h180v-445l305 445h175zM415 895q47 0 89.5 15t61.5 30l19 15v-120q-7 -6 -20 -14t-57 -22t-93 -14t-91.5 12.5t-60.5 24.5l-18 13v120q7 -7 21 -17t58 -26.5t91 -16.5z" />
    <glyph glyph-name="afii10028" unicode="&#x41a;" horiz-adv-x="745" 
d="M265 730v-325l265 325h200l-280 -350l305 -380h-215l-275 345v-345h-180v730h180z" />
    <glyph glyph-name="afii10029" unicode="&#x41b;" horiz-adv-x="770" 
d="M325 570l-20 -260q-13 -168 -78 -243t-194 -87l-33 160q56 8 86.5 46t38.5 124l40 420h520v-730h-180v570h-180z" />
    <glyph glyph-name="afii10030" unicode="&#x41c;" horiz-adv-x="995" 
d="M500 290l155 440h185l105 -730h-185l-50 430h-5l-150 -430h-115l-150 430h-5l-50 -430h-185l105 730h185l155 -440h5z" />
    <glyph glyph-name="afii10031" unicode="&#x41d;" horiz-adv-x="810" 
d="M725 730v-730h-180v287h-280v-287h-180v730h180v-283h280v283h180z" />
    <glyph glyph-name="afii10032" unicode="&#x41e;" horiz-adv-x="880" 
d="M230 365q0 -97 59.5 -158.5t150.5 -61.5t150.5 61.5t59.5 158.5t-59.5 158.5t-150.5 61.5t-150.5 -61.5t-59.5 -158.5zM835 365q0 -162 -112 -271t-283 -109t-283 109t-112 271t112 271t283 109t283 -109t112 -271z" />
    <glyph glyph-name="afii10033" unicode="&#x41f;" horiz-adv-x="810" 
d="M725 730v-730h-180v570h-280v-570h-180v730h640z" />
    <glyph glyph-name="afii10034" unicode="&#x420;" horiz-adv-x="675" 
d="M265 200v-200h-180v730h240q140 0 220 -73t80 -192t-80 -192t-220 -73h-60zM265 570v-210h60q53 0 84 28t31 77t-31 77t-84 28h-60z" />
    <glyph glyph-name="afii10035" unicode="&#x421;" horiz-adv-x="735" 
d="M230 365q0 -98 62 -159t163 -61q35 0 68 10.5t55 25t39 29t25 24.5l8 11h20v-170q-3 -4 -9.5 -10t-29 -21.5t-49 -27.5t-69 -21.5t-88.5 -9.5q-161 0 -270.5 109.5t-109.5 270.5t109.5 270.5t270.5 109.5q53 0 100.5 -10t77 -23.5t51.5 -27.5t32 -24l9 -10l-65 -140
q-2 3 -6.5 8t-20.5 18t-34.5 23t-49 18t-64.5 8q-101 0 -163 -61t-62 -159z" />
    <glyph glyph-name="afii10036" unicode="&#x422;" horiz-adv-x="670" 
d="M35 730h600v-160h-210v-570h-180v570h-210v160z" />
    <glyph glyph-name="afii10037" unicode="&#x423;" horiz-adv-x="710" 
d="M280 210l-270 520h190l170 -335h5l155 335h190l-260 -540q-52 -108 -104 -156.5t-124 -48.5q-21 0 -39 2.5t-25 4.5l-8 3l-20 160q20 -10 55 -10q53 0 85 65z" />
    <glyph glyph-name="afii10038" unicode="&#x424;" horiz-adv-x="970" 
d="M395 225v310q-175 -7 -175 -155t175 -155zM575 -10h-180v75q-169 4 -264.5 90.5t-95.5 224.5t95.5 224.5t264.5 90.5v75h180v-75q169 -4 264.5 -90.5t95.5 -224.5t-95.5 -224.5t-264.5 -90.5v-75zM575 535v-310q175 7 175 155t-175 155z" />
    <glyph glyph-name="afii10039" unicode="&#x425;" horiz-adv-x="760" 
d="M530 0l-150 250l-150 -250h-210l245 375l-230 355h210l135 -230l135 230h210l-230 -355l245 -375h-210z" />
    <glyph glyph-name="afii10040" unicode="&#x426;" horiz-adv-x="820" 
d="M85 0v730h180v-570h260v570h180v-570h90v-310h-180v150h-530z" />
    <glyph glyph-name="afii10041" unicode="&#x427;" horiz-adv-x="775" 
d="M510 0v250q-70 -40 -175 -40q-121 0 -190.5 73t-69.5 207v240h180v-240q0 -53 33.5 -84t96.5 -31q33 0 64.5 8.5t46.5 17.5l14 9v320h180v-730h-180z" />
    <glyph glyph-name="afii10042" unicode="&#x428;" horiz-adv-x="1160" 
d="M85 0v730h180v-570h225v570h180v-570h225v570h180v-730h-990z" />
    <glyph glyph-name="afii10043" unicode="&#x429;" horiz-adv-x="1190" 
d="M85 0v730h180v-570h225v570h180v-570h225v570h180v-570h90v-310h-180v150h-900z" />
    <glyph glyph-name="afii10044" unicode="&#x42a;" horiz-adv-x="725" 
d="M335 730v-210h50q140 0 220 -72.5t80 -187.5t-80 -187.5t-220 -72.5h-230v570h-135v160h315zM335 360v-200h50q52 0 83.5 27.5t31.5 72.5t-31.5 72.5t-83.5 27.5h-50z" />
    <glyph glyph-name="afii10045" unicode="&#x42b;" horiz-adv-x="965" 
d="M880 730v-730h-180v730h180zM265 730v-210h50q140 0 220 -72.5t80 -187.5t-80 -187.5t-220 -72.5h-230v730h180zM265 360v-200h50q52 0 83.5 27.5t31.5 72.5t-31.5 72.5t-83.5 27.5h-50z" />
    <glyph glyph-name="afii10046" unicode="&#x42c;" horiz-adv-x="665" 
d="M265 730v-210h60q140 0 220 -72.5t80 -187.5t-80 -187.5t-220 -72.5h-240v730h180zM265 360v-200h60q52 0 83.5 27.5t31.5 72.5t-31.5 72.5t-83.5 27.5h-60z" />
    <glyph glyph-name="afii10047" unicode="&#x42d;" horiz-adv-x="750" 
d="M240 285v160h265q-56 140 -215 140q-35 0 -68 -10.5t-55 -25t-39 -29t-25 -24.5l-8 -11h-20v170q3 4 9.5 10t29 21.5t49 27.5t69 21.5t88.5 9.5q161 0 270.5 -109.5t109.5 -270.5t-109.5 -270.5t-270.5 -109.5q-52 0 -100.5 11t-80.5 26t-56.5 30.5t-36.5 26.5l-11 11
l60 140l9 -9t25 -20.5t40.5 -26t54 -20.5t66.5 -9q159 0 215 140h-265z" />
    <glyph glyph-name="afii10048" unicode="&#x42e;" horiz-adv-x="1145" 
d="M1095 365q0 -165 -106.5 -272.5t-268.5 -107.5q-148 0 -244.5 86t-120.5 219h-85v-290h-180v730h180v-285h85q24 130 120.5 215t244.5 85q162 0 268.5 -107.5t106.5 -272.5zM720 145q81 0 135.5 60.5t54.5 159.5t-54.5 159.5t-135.5 60.5t-135.5 -60.5t-54.5 -159.5
t54.5 -159.5t135.5 -60.5z" />
    <glyph glyph-name="afii10049" unicode="&#x42f;" horiz-adv-x="695" 
d="M430 370v200h-60q-115 0 -115 -100t115 -100h60zM20 0l175 265v5q-5 2 -13.5 6.5t-30 22.5t-38 39t-30 58t-13.5 79q0 112 80.5 183.5t219.5 71.5h240v-730h-180v220h-65l-145 -220h-200z" />
    <glyph glyph-name="afii10065" unicode="&#x430;" horiz-adv-x="610" 
d="M280 115q31 0 55 22.5t32 44.5l8 23q-35 25 -80 25q-35 0 -55 -18t-20 -42t15.5 -39.5t44.5 -15.5zM295 545q129 0 192 -55.5t63 -159.5v-330h-170l-5 70h-5q-2 -3 -5 -9t-16.5 -20.5t-30 -26t-45.5 -20.5t-63 -9q-78 0 -124 43t-46 112q0 78 54 124t156 46q38 0 69 -7.5
t43 -14.5l13 -8v30q0 85 -105 85q-51 0 -98.5 -16.5t-69.5 -32.5l-22 -16h-15v145q10 8 29 19.5t79 31t122 19.5z" />
    <glyph glyph-name="afii10066" unicode="&#x431;" horiz-adv-x="680" 
d="M340 135q50 0 82.5 32.5t32.5 87.5t-32.5 87.5t-82.5 32.5t-82.5 -32.5t-32.5 -87.5t32.5 -87.5t82.5 -32.5zM386 525q111 0 180 -75t69 -195q0 -118 -81 -194t-214 -76q-134 0 -214.5 88.5t-80.5 246.5q0 445 360 445q49 0 92.5 8.5t62.5 17.5l20 9v-165
q-5 -5 -16.5 -12.5t-60.5 -20t-113 -12.5q-89 0 -134 -38.5t-56 -121.5h10q2 4 6 10.5t19.5 22.5t34 28.5t50 23t66.5 10.5z" />
    <glyph glyph-name="afii10067" unicode="&#x432;" horiz-adv-x="610" 
d="M65 0v530h269q108 0 159.5 -39t51.5 -106q0 -25 -8 -45t-20 -31t-24 -18t-20 -9l-8 -2v-5q4 -1 11.5 -3t26.5 -11t33.5 -21.5t26.5 -36.5t12 -53q0 -150 -214 -150h-296zM400 170q0 23 -17.5 36.5t-47.5 13.5h-95v-100h95q30 0 47.5 13.5t17.5 36.5zM305 410h-65v-90h65
q60 0 60 45t-60 45z" />
    <glyph glyph-name="afii10068" unicode="&#x433;" horiz-adv-x="495" 
d="M475 375h-235v-375h-175v530h410v-155z" />
    <glyph glyph-name="afii10069" unicode="&#x434;" horiz-adv-x="675" 
d="M10 -130v280h55q5 4 12.5 12.5t21.5 40.5t16 72l15 255h445v-380h80v-280h-175v130h-295v-130h-175zM285 380l-5 -105q-2 -40 -13 -71.5t-21 -42.5l-11 -11h165v230h-115z" />
    <glyph glyph-name="afii10070" unicode="&#x435;" horiz-adv-x="630" 
d="M325 545q124 0 194.5 -72t70.5 -203v-35h-390q0 -4 1.5 -11t11.5 -25.5t24.5 -32t45.5 -25t72 -11.5q53 0 97 14t61 28l17 13h15v-140q-9 -7 -26 -17t-71.5 -26.5t-112.5 -16.5q-130 0 -212.5 79.5t-82.5 200.5q0 120 81 200t204 80zM335 410q-52 0 -84.5 -23t-45.5 -57
h225q0 31 -27.5 55.5t-67.5 24.5z" />
    <glyph glyph-name="afii10072" unicode="&#x436;" horiz-adv-x="915" 
d="M720 0l-175 240v-240h-175v240l-175 -240h-205l210 270l-195 260h190l175 -240v240h175v-240l175 240h190l-195 -260l210 -270h-205z" />
    <glyph glyph-name="afii10073" unicode="&#x437;" horiz-adv-x="535" 
d="M245 210h-70v115h60q70 0 70 40t-70 40q-42 0 -82 -13.5t-59 -27.5l-19 -14h-15v140q8 6 23 15t67 24.5t110 15.5q110 0 165 -42.5t55 -107.5q0 -27 -9 -48t-22 -33t-26.5 -19.5t-22.5 -10.5l-9 -2v-5q4 -1 11 -2.5t25 -10.5t32 -21.5t25 -37t11 -55.5
q0 -74 -61.5 -119.5t-175.5 -45.5q-59 0 -116 18.5t-84 37.5l-28 19l40 125q8 -7 22.5 -17t60 -26.5t92.5 -16.5q75 0 75 40q0 45 -75 45z" />
    <glyph glyph-name="afii10074" unicode="&#x438;" horiz-adv-x="680" 
d="M440 300l-210 -300h-165v530h175v-300l210 300h165v-530h-175v300z" />
    <glyph glyph-name="afii10075" unicode="&#x439;" horiz-adv-x="680" 
d="M340 595q-40 0 -76 10t-52 20l-17 10v120q7 -6 20 -15t51 -24.5t74 -15.5t72 14t54 28l19 13v-120q-6 -4 -17.5 -11t-49.5 -18t-78 -11zM440 300l-210 -300h-165v530h175v-300l210 300h165v-530h-175v300z" />
    <glyph glyph-name="afii10076" unicode="&#x43a;" horiz-adv-x="620" 
d="M425 0l-185 245v-245h-175v530h175v-245l185 245h190l-200 -260l215 -270h-205z" />
    <glyph glyph-name="afii10077" unicode="&#x43b;" horiz-adv-x="640" 
d="M275 380l-10 -130q-10 -136 -65 -197.5t-170 -72.5l-30 150q43 4 66 31t29 89l25 280h455v-530h-175v380h-125z" />
    <glyph glyph-name="afii10078" unicode="&#x43c;" horiz-adv-x="845" 
d="M585 290l-100 -290h-125l-100 290h-5l-35 -290h-175l75 530h185l115 -330h5l115 330h185l75 -530h-175l-35 290h-5z" />
    <glyph glyph-name="afii10079" unicode="&#x43d;" horiz-adv-x="670" 
d="M430 195h-190v-195h-175v530h175v-180h190v180h175v-530h-175v195z" />
    <glyph glyph-name="afii10080" unicode="&#x43e;" horiz-adv-x="680" 
d="M340 545q134 0 217 -79.5t83 -200.5t-83 -200.5t-217 -79.5t-217 79.5t-83 200.5t83 200.5t217 79.5zM340 395q-50 0 -85 -36t-35 -94t35 -94t85 -36t85 36t35 94t-35 94t-85 36z" />
    <glyph glyph-name="afii10081" unicode="&#x43f;" horiz-adv-x="670" 
d="M430 375h-190v-375h-175v530h540v-530h-175v375z" />
    <glyph glyph-name="afii10082" unicode="&#x440;" horiz-adv-x="705" 
d="M240 265q0 -59 35.5 -94.5t89.5 -35.5t89.5 35.5t35.5 94.5t-35.5 94.5t-89.5 35.5t-89.5 -35.5t-35.5 -94.5zM240 70v-290h-175v750h170l5 -70h5q2 3 5.5 9t18 20.5t32 26t48 20.5t65.5 9q108 0 179.5 -77.5t71.5 -202.5t-71.5 -202.5t-178.5 -77.5q-35 0 -65.5 9
t-49 21t-31.5 24.5t-19 21.5l-5 9h-5z" />
    <glyph glyph-name="afii10083" unicode="&#x441;" horiz-adv-x="565" 
d="M220 265q0 -63 35.5 -96.5t99.5 -33.5q40 0 75 13.5t50 27.5l15 14h15v-145q-7 -7 -20.5 -17t-61 -26.5t-103.5 -16.5q-123 0 -204 80t-81 200t81 200t204 80q38 0 73 -7t58 -17.5t40.5 -21t25.5 -17.5l8 -7l-65 -125q-4 5 -13 12.5t-37.5 20t-59.5 12.5
q-64 0 -99.5 -33.5t-35.5 -96.5z" />
    <glyph glyph-name="afii10084" unicode="&#x442;" horiz-adv-x="555" 
d="M190 375h-170v155h515v-155h-170v-375h-175v375z" />
    <glyph glyph-name="afii10085" unicode="&#x443;" horiz-adv-x="625" 
d="M620 530l-305 -750h-170l90 225l-230 525h185l125 -315h5l115 315h185z" />
    <glyph glyph-name="afii10086" unicode="&#x444;" horiz-adv-x="845" 
d="M335 130v270q-47 -4 -81 -40.5t-34 -94.5t34 -94.5t81 -40.5zM510 400v-270q47 4 81 40.5t34 94.5t-34 94.5t-81 40.5zM510 -220h-175v205q-134 4 -214.5 81.5t-80.5 198.5t80.5 198.5t214.5 81.5v215h175v-215q134 -4 214.5 -81.5t80.5 -198.5t-80.5 -198.5
t-214.5 -81.5v-205z" />
    <glyph glyph-name="afii10087" unicode="&#x445;" horiz-adv-x="620" 
d="M310 165l-120 -165h-200l205 265l-195 265h195l115 -160l115 160h195l-195 -265l205 -265h-200z" />
    <glyph glyph-name="afii10088" unicode="&#x446;" horiz-adv-x="690" 
d="M495 0h-430v530h175v-375h175v375h175v-375h80v-285h-175v130z" />
    <glyph glyph-name="afii10089" unicode="&#x447;" horiz-adv-x="645" 
d="M55 530h175v-160q0 -40 23.5 -62.5t61.5 -22.5q24 0 46.5 7.5t32.5 15.5l11 7v215h175v-530h-175v172q-6 -4 -16.5 -10t-48.5 -16.5t-80 -10.5q-94 0 -149.5 56.5t-55.5 153.5v185z" />
    <glyph glyph-name="afii10090" unicode="&#x448;" horiz-adv-x="945" 
d="M240 155h145v375h175v-375h145v375h175v-530h-815v530h175v-375z" />
    <glyph glyph-name="afii10091" unicode="&#x449;" horiz-adv-x="980" 
d="M240 155h145v375h175v-375h145v375h175v-375h80v-285h-175v130h-720v530h175v-375z" />
    <glyph glyph-name="afii10092" unicode="&#x44a;" horiz-adv-x="640" 
d="M135 0v370h-115v160h290v-150h75q106 0 165.5 -52.5t59.5 -137.5t-59.5 -137.5t-165.5 -52.5h-250zM310 135h55q70 0 70 55t-70 55h-55v-110z" />
    <glyph glyph-name="afii10093" unicode="&#x44b;" horiz-adv-x="840" 
d="M600 0v530h175v-530h-175zM240 135h55q70 0 70 55t-70 55h-55v-110zM65 0v530h175v-150h75q106 0 165.5 -52.5t59.5 -137.5t-59.5 -137.5t-165.5 -52.5h-250z" />
    <glyph glyph-name="afii10094" unicode="&#x44c;" horiz-adv-x="580" 
d="M240 135h65q70 0 70 55t-70 55h-65v-110zM65 0v530h175v-150h85q106 0 165.5 -52.5t59.5 -137.5t-59.5 -137.5t-165.5 -52.5h-260z" />
    <glyph glyph-name="afii10095" unicode="&#x44d;" horiz-adv-x="580" 
d="M175 205v120h175q-5 24 -39 47t-91 23q-40 0 -76 -13.5t-52 -27.5l-17 -14h-15v150q7 6 20.5 15t64 24.5t110.5 15.5q123 0 204 -80t81 -200t-81 -200t-204 -80q-64 0 -120.5 17.5t-80.5 35.5l-24 17l50 130q6 -6 17.5 -14t48 -22t74.5 -14q57 0 91 23t39 47h-175z" />
    <glyph glyph-name="afii10096" unicode="&#x44e;" horiz-adv-x="925" 
d="M590 545q130 0 212.5 -79.5t82.5 -200.5t-82.5 -200.5t-212.5 -79.5q-114 0 -189.5 61.5t-95.5 153.5h-65v-200h-175v530h175v-195h65q20 88 95.5 149t189.5 61zM590 135q47 0 81 36t34 94t-34 94t-81 36t-81 -36t-34 -94t34 -94t81 -36z" />
    <glyph glyph-name="afii10097" unicode="&#x44f;" horiz-adv-x="619" 
d="M165 190q-4 1 -11 4.5t-25.5 16t-32 29t-25 46t-11.5 64.5q0 81 56.5 130.5t158.5 49.5h279v-530h-174v165h-45l-125 -165h-205l160 185v5zM380 400h-70q-30 0 -50 -17t-20 -43t20 -43t50 -17h70v120z" />
    <glyph glyph-name="afii10071" unicode="&#x451;" horiz-adv-x="630" 
d="M325 545q124 0 194.5 -72t70.5 -203v-35h-390q0 -4 1.5 -11t11.5 -25.5t24.5 -32t45.5 -25t72 -11.5q53 0 97 14t61 28l17 13h15v-140q-9 -7 -26 -17t-71.5 -26.5t-112.5 -16.5q-130 0 -212.5 79.5t-82.5 200.5q0 120 81 200t204 80zM335 410q-52 0 -84.5 -23t-45.5 -57
h225q0 31 -27.5 55.5t-67.5 24.5zM130 685q0 40 23.5 62.5t61.5 22.5q40 0 62.5 -22t22.5 -63q0 -40 -23.5 -62.5t-61.5 -22.5t-61.5 22.5t-23.5 62.5zM350 685q0 40 23.5 62.5t61.5 22.5q40 0 62.5 -22t22.5 -63q0 -40 -23.5 -62.5t-61.5 -22.5t-61.5 22.5t-23.5 62.5z" />
    <glyph glyph-name="afii10099" unicode="&#x452;" horiz-adv-x="700" 
d="M640 290v-290q0 -108 -60.5 -169.5t-169.5 -65.5l-35 150q90 7 90 85v267q0 42 -23 65t-62 23q-46 0 -78 -32t-32 -84v-239h-175v560h-85v145h85v55h175v-55h145v-145h-145v-140h5q2 3 5 9t16.5 20.5t30 26t45.5 20.5t63 9q94 0 149.5 -57t55.5 -158z" />
    <glyph glyph-name="afii10100" unicode="&#x453;" horiz-adv-x="495" 
d="M200 590l55 195h185l-135 -195h-105zM475 375h-235v-375h-175v530h410v-155z" />
    <glyph glyph-name="afii10101" unicode="&#x454;" horiz-adv-x="570" 
d="M405 325v-120h-175q5 -23 40 -46.5t90 -23.5q40 0 76 13.5t52 27.5l17 14h15v-150q-7 -6 -20.5 -15t-64 -24.5t-110.5 -15.5q-123 0 -204 80t-81 200t81 200t204 80q41 0 77.5 -7.5t59.5 -19t40.5 -22.5t25.5 -18l7 -8l-60 -125q-4 6 -13 14t-39 22t-63 14
q-54 0 -89.5 -23.5t-40.5 -46.5h175z" />
    <glyph glyph-name="afii10102" unicode="&#x455;" horiz-adv-x="510" 
d="M480 155q0 -71 -60.5 -120.5t-164.5 -49.5q-62 0 -118.5 17.5t-81.5 35.5l-25 17l30 130q6 -6 18.5 -15t55 -24.5t91.5 -15.5q75 0 75 35q0 16 -27 26t-65 20t-76 26t-65 52.5t-27 90.5q0 68 57.5 116.5t157.5 48.5q38 0 73.5 -7.5t59 -19t42 -22.5t26.5 -18l9 -8
l-60 -115q-4 5 -13 12.5t-40 20t-67 12.5q-65 0 -65 -35q0 -13 27 -21.5t65 -18.5t76 -26t65 -53t27 -91z" />
    <glyph glyph-name="afii10103" unicode="&#x456;" horiz-adv-x="305" 
d="M240 535v-535h-175v535q40 -15 87 -15q21 0 43 4t33 8zM55 685q0 41 27 65.5t70 24.5q44 0 71 -24.5t27 -65.5t-27 -65.5t-71 -24.5q-43 0 -70 24.5t-27 65.5z" />
    <glyph glyph-name="afii10104" unicode="&#x457;" horiz-adv-x="315" 
d="M-40 685q0 40 23.5 62.5t61.5 22.5q40 0 62.5 -22t22.5 -63q0 -40 -23.5 -62.5t-61.5 -22.5t-61.5 22.5t-23.5 62.5zM180 685q0 40 23.5 62.5t61.5 22.5q40 0 62.5 -22t22.5 -63q0 -40 -23.5 -62.5t-61.5 -22.5t-61.5 22.5t-23.5 62.5zM245 530v-530h-175v530h175z" />
    <glyph glyph-name="afii10105" unicode="&#x458;" horiz-adv-x="305" 
d="M240 535v-535q0 -108 -60.5 -169.5t-169.5 -65.5l-35 150q90 7 90 85v535q40 -15 87 -15q21 0 43 4t33 8zM55 685q0 41 27 65.5t70 24.5q44 0 71 -24.5t27 -65.5t-27 -65.5t-71 -24.5q-43 0 -70 24.5t-27 65.5z" />
    <glyph glyph-name="afii10106" unicode="&#x459;" horiz-adv-x="890" 
d="M275 380l-10 -130q-10 -136 -65 -197.5t-170 -72.5l-30 150q43 4 66 31t29 89l25 280h445v-150h70q106 0 165.5 -52.5t59.5 -137.5t-59.5 -137.5t-165.5 -52.5h-245v380h-115zM565 135h50q70 0 70 55t-70 55h-50v-110z" />
    <glyph glyph-name="afii10107" unicode="&#x45a;" horiz-adv-x="915" 
d="M415 0v215h-175v-215h-175v530h175v-165h175v165h175v-165h75q106 0 163 -50t57 -135t-55 -132.5t-163 -47.5h-252zM590 130h56q29 0 46.5 14t17.5 36q0 23 -16.5 36.5t-47.5 13.5h-56v-100z" />
    <glyph glyph-name="afii10108" unicode="&#x45b;" horiz-adv-x="700" 
d="M640 0h-175v267q0 42 -23 65t-62 23q-46 0 -78 -32t-32 -84v-239h-175v560h-85v145h85v55h175v-55h145v-145h-145v-140h5q2 3 5 9t16.5 20.5t30 26t45.5 20.5t63 9q94 0 149.5 -57t55.5 -158v-290z" />
    <glyph glyph-name="afii10109" unicode="&#x45c;" horiz-adv-x="620" 
d="M255 590l55 195h185l-135 -195h-105zM425 0l-185 245v-245h-175v530h175v-245l185 245h190l-200 -260l215 -270h-205z" />
    <glyph glyph-name="afii10110" unicode="&#x45e;" horiz-adv-x="625" 
d="M620 530l-305 -750h-170l90 225l-230 525h185l125 -315h5l115 315h185zM313 597q-40 0 -76 10t-53 20l-16 10v120q7 -6 20 -15t51 -24.5t74 -15.5t72 14t55 28l18 13v-120q-6 -4 -17.5 -11t-49.5 -18t-78 -11z" />
    <glyph glyph-name="afii10193" unicode="&#x45f;" horiz-adv-x="665" 
d="M250 -132v132h-185v530h175v-375h185v375h175v-530h-185v-132h-165z" />
    <glyph glyph-name="afii10050" unicode="&#x490;" horiz-adv-x="565" 
d="M265 570v-570h-180v730h270v150h180v-310h-270z" />
    <glyph glyph-name="afii10098" unicode="&#x491;" horiz-adv-x="495" 
d="M240 375v-375h-175v530h235v130h175v-285h-235z" />
    <glyph glyph-name="uni1E9E" unicode="&#x1e9e;" horiz-adv-x="760" 
d="M375 435l85 125q-20 25 -70 25q-135 0 -135 -149v-436h-180v436q0 142 84.5 225.5t230.5 83.5q60 0 110.5 -16t80.5 -38.5t51.5 -45.5t29.5 -39l8 -16l-115 -165q7 -2 18.5 -7t40.5 -23t51.5 -40t41 -61t18.5 -84q0 -101 -72 -163t-205 -62q-35 0 -69.5 8.5t-51.5 17.5
l-17 9l30 150q35 -30 100 -30q100 0 100 70q0 22 -17 43t-41 34t-48.5 23.5t-41.5 15.5l-17 4v105z" />
    <glyph glyph-name="endash" unicode="&#x2013;" horiz-adv-x="585" 
d="M40 250v145h505v-145h-505z" />
    <glyph glyph-name="emdash" unicode="&#x2014;" horiz-adv-x="945" 
d="M40 250v145h865v-145h-865z" />
    <glyph glyph-name="quoteleft" unicode="&#x2018;" horiz-adv-x="250" 
d="M220 585q0 -44 -26.5 -69.5t-68.5 -25.5q-43 0 -69 27t-26 78q0 36 11 70.5t26 58t30.5 41.5t26.5 27l11 8h65q-60 -75 -60 -120q36 -4 58 -28t22 -67z" />
    <glyph glyph-name="quoteright" unicode="&#x2019;" horiz-adv-x="250" 
d="M30 705q0 44 26.5 69.5t68.5 25.5q43 0 69 -27t26 -78q0 -36 -11 -70.5t-26 -58t-30.5 -41.5t-26.5 -27l-11 -8h-65q60 75 60 120q-36 4 -58 28t-22 67z" />
    <glyph glyph-name="quotesinglbase" unicode="&#x201a;" horiz-adv-x="250" 
d="M30 85q0 44 26.5 69.5t68.5 25.5q43 0 69 -27t26 -78q0 -36 -11 -70.5t-26 -58t-30.5 -41.5t-26.5 -27l-11 -8h-65q60 75 60 120q-36 4 -58 28t-22 67z" />
    <glyph glyph-name="quotedblleft" unicode="&#x201c;" horiz-adv-x="490" 
d="M220 585q0 -44 -26.5 -69.5t-68.5 -25.5q-43 0 -69 27t-26 78q0 36 11 70.5t26 58t30.5 41.5t26.5 27l11 8h65q-60 -75 -60 -120q36 -4 58 -28t22 -67zM460 585q0 -44 -26.5 -69.5t-68.5 -25.5q-43 0 -69 27t-26 78q0 36 11 70.5t26 58t30.5 41.5t26.5 27l11 8h65
q-60 -75 -60 -120q36 -4 58 -28t22 -67z" />
    <glyph glyph-name="quotedblright" unicode="&#x201d;" horiz-adv-x="490" 
d="M270 705q0 44 26.5 69.5t68.5 25.5q43 0 69 -27t26 -78q0 -36 -11 -70.5t-26 -58t-30.5 -41.5t-26.5 -27l-11 -8h-65q60 75 60 120q-36 4 -58 28t-22 67zM30 705q0 44 26.5 69.5t68.5 25.5q43 0 69 -27t26 -78q0 -36 -11 -70.5t-26 -58t-30.5 -41.5t-26.5 -27l-11 -8h-65
q60 75 60 120q-36 4 -58 28t-22 67z" />
    <glyph glyph-name="quotedblbase" unicode="&#x201e;" horiz-adv-x="490" 
d="M30 85q0 44 26.5 69.5t68.5 25.5q43 0 69 -27t26 -78q0 -36 -11 -70.5t-26 -58t-30.5 -41.5t-26.5 -27l-11 -8h-65q60 75 60 120q-36 4 -58 28t-22 67zM270 85q0 44 26.5 69.5t68.5 25.5q43 0 69 -27t26 -78q0 -36 -11 -70.5t-26 -58t-30.5 -41.5t-26.5 -27l-11 -8h-65
q60 75 60 120q-36 4 -58 28t-22 67z" />
    <glyph glyph-name="dagger" unicode="&#x2020;" horiz-adv-x="520" 
d="M290 325l30 -120v-405h-120v405l30 120l-10 10l-120 -30h-30v120h30l120 -30l10 10l-30 120v115h120v-115l-30 -120l10 -10l120 30h30v-120h-30l-120 30z" />
    <glyph glyph-name="daggerdbl" unicode="&#x2021;" horiz-adv-x="520" 
d="M320 185l-30 -120l10 -10l120 30h30v-120h-30l-120 30l-10 -10l30 -120v-65h-120v65l30 120l-10 10l-120 -30h-30v120h30l120 -30l10 10l-30 120v70l30 120l-10 10l-120 -30h-30v120h30l120 -30l10 10l-30 120v65h120v-65l-30 -120l10 -10l120 30h30v-120h-30l-120 30
l-10 -10l30 -120v-70z" />
    <glyph glyph-name="bullet" unicode="&#x2022;" horiz-adv-x="500" 
d="M120 350q0 55 38.5 92.5t91.5 37.5t91.5 -37.5t38.5 -92.5t-38.5 -92.5t-91.5 -37.5t-91.5 37.5t-38.5 92.5z" />
    <glyph glyph-name="ellipsis" unicode="&#x2026;" horiz-adv-x="800" 
d="M30 85q0 44 26.5 69.5t68.5 25.5t68.5 -25.5t26.5 -69.5t-26.5 -69.5t-68.5 -25.5t-68.5 25.5t-26.5 69.5zM305 85q0 44 26.5 69.5t68.5 25.5t68.5 -25.5t26.5 -69.5t-26.5 -69.5t-68.5 -25.5t-68.5 25.5t-26.5 69.5zM580 85q0 44 26.5 69.5t68.5 25.5t68.5 -25.5
t26.5 -69.5t-26.5 -69.5t-68.5 -25.5t-68.5 25.5t-26.5 69.5z" />
    <glyph glyph-name="perthousand" unicode="&#x2030;" horiz-adv-x="1375" 
d="M155 560q0 -29 19 -47t46 -18t46 18t19 47t-19 47t-46 18t-46 -18t-19 -47zM325 0h-155l475 730h155zM410 560q0 -79 -54 -132t-136 -53t-136 53t-54 132t54 132t136 53t136 -53t54 -132zM810 170q0 29 -19 47t-46 18t-46 -18t-19 -47t19 -47t46 -18t46 18t19 47z
M555 170q0 79 54 132t136 53t136 -53t54 -132t-54 -132t-136 -53t-136 53t-54 132zM1220 170q0 29 -19 47t-46 18t-46 -18t-19 -47t19 -47t46 -18t46 18t19 47zM965 170q0 79 54 132t136 53t136 -53t54 -132t-54 -132t-136 -53t-136 53t-54 132z" />
    <glyph glyph-name="guilsinglleft" unicode="&#x2039;" horiz-adv-x="405" 
d="M185 270l190 -220h-160l-185 215v20l185 215h160l-190 -220v-10z" />
    <glyph glyph-name="guilsinglright" unicode="&#x203a;" horiz-adv-x="405" 
d="M30 50l190 220v10l-190 220h160l185 -215v-20l-185 -215h-160z" />
    <glyph glyph-name="fraction" unicode="&#x2044;" horiz-adv-x="175" 
d="M-210 0l475 730h120l-475 -730h-120z" />
    <glyph glyph-name="zerosuperior" unicode="&#x2070;" horiz-adv-x="370" 
d="M135 650q0 -95 50 -95t50 95t-50 95t-50 -95zM345 650q0 -88 -45 -139t-115 -51t-115 51t-45 139t45 139t115 51t115 -51t45 -139z" />
    <glyph glyph-name="foursuperior" unicode="&#x2074;" horiz-adv-x="330" 
d="M250 830l-115 -200h45l20 55h65v-55h50v-95h-50v-65h-110v65h-180v15l160 280h115z" />
    <glyph glyph-name="fivesuperior" unicode="&#x2075;" horiz-adv-x="330" 
d="M195 590q0 40 -50 40q-13 0 -25.5 -4.5t-18.5 -9.5l-6 -4l-63 33l32 185h221v-95h-145l-5 -30q15 5 30 5q63 0 101.5 -33.5t38.5 -86.5q0 -130 -155 -130q-36 0 -68.5 11t-47.5 23l-14 11l30 80q40 -35 90 -35q55 0 55 40z" />
    <glyph glyph-name="sixsuperior" unicode="&#x2076;" horiz-adv-x="350" 
d="M155 830h120q-8 -6 -22 -16t-44.5 -41.5t-48.5 -62.5q20 5 40 5q60 0 95 -34t35 -91q0 -58 -40.5 -94t-110.5 -36q-73 0 -113.5 37.5t-40.5 102.5q0 39 13.5 77t32.5 64.5t38 47.5t33 31zM140 590q0 -18 11.5 -26.5t28.5 -8.5t28.5 8.5t11.5 26.5t-11.5 26.5t-28.5 8.5
t-28.5 -8.5t-11.5 -26.5z" />
    <glyph glyph-name="sevensuperior" unicode="&#x2077;" horiz-adv-x="305" 
d="M180 470h-115l100 265h-145v95h285v-15z" />
    <glyph glyph-name="eightsuperior" unicode="&#x2078;" horiz-adv-x="350" 
d="M175 550q45 0 45 35q0 40 -45 40t-45 -40q0 -35 45 -35zM175 705q30 0 30 25t-30 25t-30 -25t30 -25zM175 460q-76 0 -115.5 32t-39.5 83q0 29 16 50t32 28l17 7q-6 3 -14 8.5t-22 25t-14 41.5q0 47 35.5 76t104.5 29t104.5 -29t35.5 -76q0 -22 -12.5 -41t-24.5 -26
l-13 -8q7 -2 18 -7t29 -27t18 -51q0 -51 -39.5 -83t-115.5 -32z" />
    <glyph glyph-name="ninesuperior" unicode="&#x2079;" horiz-adv-x="350" 
d="M195 470h-120q8 6 22 16t44.5 41.5t48.5 62.5q-20 -5 -40 -5q-60 0 -95 34t-35 91q0 58 40.5 94t110.5 36q73 0 113.5 -37.5t40.5 -102.5q0 -39 -13.5 -77t-32.5 -64.5t-38 -47.5t-33 -31zM210 710q0 18 -11.5 26.5t-28.5 8.5t-28.5 -8.5t-11.5 -26.5t11.5 -26.5
t28.5 -8.5t28.5 8.5t11.5 26.5z" />
    <glyph glyph-name="zeroinferior" unicode="&#x2080;" horiz-adv-x="370" 
d="M135 80q0 -95 50 -95t50 95t-50 95t-50 -95zM345 80q0 -88 -45 -139t-115 -51t-115 51t-45 139t45 139t115 51t115 -51t45 -139z" />
    <glyph glyph-name="oneinferior" unicode="&#x2081;" horiz-adv-x="245" 
d="M25 95v109l100 56h80v-360h-110v235z" />
    <glyph glyph-name="twoinferior" unicode="&#x2082;" horiz-adv-x="335" 
d="M25 -85l140 175q20 20 20 50q0 35 -40 35q-20 0 -45 -13.5t-40 -27.5l-15 -14h-10v92q6 6 17.5 16t48 26t74.5 16q120 0 120 -110q0 -24 -7.5 -46.5t-15.5 -33.5l-7 -10l-60 -75h100v-95h-280v15z" />
    <glyph glyph-name="threeinferior" unicode="&#x2083;" horiz-adv-x="330" 
d="M145 60q-11 0 -22.5 -3.5t-16.5 -7.5l-6 -4l-40 45l60 75h-80v95h250v-15l-90 -110q4 -1 11 -2.5t25.5 -9.5t32 -20t25 -35.5t11.5 -52.5q0 -58 -39 -91.5t-116 -33.5q-36 0 -68.5 11t-47.5 23l-14 11l30 80q40 -35 90 -35q55 0 55 40t-50 40z" />
    <glyph glyph-name="fourinferior" unicode="&#x2084;" horiz-adv-x="330" 
d="M250 260l-115 -200h45l20 55h65v-55h50v-95h-50v-65h-110v65h-180v15l160 280h115z" />
    <glyph glyph-name="fiveinferior" unicode="&#x2085;" horiz-adv-x="330" 
d="M195 20q0 40 -50 40q-13 0 -25.5 -4.5t-18.5 -9.5l-6 -4l-63 33l32 185h221v-95h-145l-5 -30q15 5 30 5q63 0 101.5 -33.5t38.5 -86.5q0 -130 -155 -130q-36 0 -68.5 11t-47.5 23l-14 11l30 80q40 -35 90 -35q55 0 55 40z" />
    <glyph glyph-name="sixinferior" unicode="&#x2086;" horiz-adv-x="350" 
d="M155 260h120q-8 -6 -22 -16t-44.5 -41.5t-48.5 -62.5q20 5 40 5q60 0 95 -34t35 -91q0 -58 -40.5 -94t-110.5 -36q-73 0 -113.5 37.5t-40.5 102.5q0 39 13.5 77t32.5 64.5t38 47.5t33 31zM140 20q0 -17 11.5 -26t28.5 -9t28.5 9t11.5 26q0 18 -11.5 26.5t-28.5 8.5
t-28.5 -8.5t-11.5 -26.5z" />
    <glyph glyph-name="seveninferior" unicode="&#x2087;" horiz-adv-x="305" 
d="M180 -100h-115l100 265h-145v95h285v-15z" />
    <glyph glyph-name="eightinferior" unicode="&#x2088;" horiz-adv-x="350" 
d="M175 -20q45 0 45 35q0 40 -45 40t-45 -40q0 -35 45 -35zM175 135q30 0 30 25t-30 25t-30 -25t30 -25zM175 -110q-76 0 -115.5 32t-39.5 83q0 29 16 50t32 28l17 7q-6 3 -14 8.5t-22 25t-14 41.5q0 47 35.5 76t104.5 29t104.5 -29t35.5 -76q0 -22 -12.5 -41t-24.5 -26
l-13 -8q7 -2 18 -7t29 -27t18 -51q0 -51 -39.5 -83t-115.5 -32z" />
    <glyph glyph-name="nineinferior" unicode="&#x2089;" horiz-adv-x="350" 
d="M195 -100h-120q8 6 22 16t44.5 41.5t48.5 62.5q-20 -5 -40 -5q-60 0 -95 34t-35 91q0 58 40.5 94t110.5 36q73 0 113.5 -37.5t40.5 -102.5q0 -39 -13.5 -77t-32.5 -64.5t-38 -47.5t-33 -31zM210 140q0 18 -11.5 26.5t-28.5 8.5t-28.5 -8.5t-11.5 -26.5t11.5 -26.5
t28.5 -8.5t28.5 8.5t11.5 26.5z" />
    <glyph glyph-name="Euro" unicode="&#x20ac;" horiz-adv-x="770" 
d="M30 340h50v50h-50v80h65q1 6 4.5 16t16.5 38.5t29.5 54.5t47 57.5t66 54.5t88.5 38.5t113 15.5q53 0 100.5 -10t77 -23.5t51.5 -27.5t31 -24l10 -10l-65 -140q-2 3 -6.5 8t-20.5 18t-34.5 23t-49 18t-64.5 8q-43 0 -80 -12t-58 -28.5t-36 -33.5t-20 -29l-6 -12h300
l-25 -80h-300v-50h285l-25 -80h-235q2 -5 6 -12.5t20 -27.5t36.5 -35t57.5 -27.5t80 -12.5q35 0 68 10.5t55 25t39 29t25 24.5l8 11h20v-170q-3 -4 -9.5 -10t-29 -21.5t-49 -27.5t-69 -21.5t-88.5 -9.5q-60 0 -113 15t-89 39.5t-65.5 54t-47 58.5t-29.5 53.5t-16 39.5l-5 15
h-65v80z" />
    <glyph glyph-name="uni20B4" unicode="&#x20b4;" horiz-adv-x="645" 
d="M600 390h-105l-85 -50h190v-80h-285q-40 -25 -40 -60q0 -55 80 -55q47 0 88 16.5t59 32.5l18 16h20v-155q-10 -8 -27.5 -19.5t-74.5 -31t-116 -19.5q-104 0 -168 57.5t-64 142.5q0 22 2.5 41t5.5 26l2 8h-55v80h105l85 50h-190v80h285q40 25 40 60q0 55 -80 55
q-47 0 -88 -16.5t-59 -32.5l-18 -16h-20v155q10 8 27.5 19.5t74.5 31t116 19.5q104 0 168 -57.5t64 -142.5q0 -22 -2.5 -41t-4.5 -26l-3 -8h55v-80z" />
    <glyph glyph-name="uni20BD" unicode="&#x20bd;" horiz-adv-x="690" 
d="M40 280v115h75v335h235q141 0 218 -63.5t77 -161.5t-77 -161.5t-218 -63.5h-55v-50h245v-115h-245v-115h-180v115h-75v115h75v50h-75zM295 585v-190h55q105 0 105 95t-105 95h-55z" />
    <glyph glyph-name="afii61352" unicode="&#x2116;" horiz-adv-x="1175" 
d="M825 275v110h300v-110h-300zM920 590q0 -25 16 -40t39 -15t39 15t16 40t-16 40t-39 15t-39 -15t-16 -40zM1130 590q0 -68 -42 -109t-113 -41t-113 41t-42 109t42 109t113 41t113 -41t42 -109zM745 730v-730h-175l-305 435v-435h-180v730h175l305 -435v435h180z" />
    <glyph glyph-name="trademark" unicode="&#x2122;" horiz-adv-x="800" 
d="M220 555v-255h-95v255h-105v85h305v-85h-105zM540 300l-75 185l-30 -185h-95l55 340h80l85 -210l85 210h80l55 -340h-95l-30 185l-75 -185h-40z" />
    <glyph glyph-name="arrowleft" unicode="&#x2190;" horiz-adv-x="990" 
d="M100 310l170 220h150l-120 -155h590v-130h-590l120 -155h-150z" />
    <glyph glyph-name="arrowup" unicode="&#x2191;" horiz-adv-x="640" 
d="M320 730l220 -170v-150l-155 120v-590h-130v590l-155 -120v150z" />
    <glyph glyph-name="arrowright" unicode="&#x2192;" horiz-adv-x="990" 
d="M720 530l170 -220l-170 -220h-150l120 155h-590v130h590l-120 155h150z" />
    <glyph glyph-name="arrowdown" unicode="&#x2193;" horiz-adv-x="640" 
d="M540 110l-220 -170l-220 170v150l155 -120v590h130v-590l155 120v-150z" />
    <glyph glyph-name="minus" unicode="&#x2212;" horiz-adv-x="560" 
d="M70 250v150h420v-150h-420z" />
    <glyph glyph-name="commaaccent" unicode="&#xf6c3;" horiz-adv-x="205" 
d="M175 -130q0 -47 -20 -85.5t-40 -54.5l-20 -15h-55q50 50 50 100q-60 9 -60 70q0 33 19.5 51.5t50.5 18.5q32 0 53.5 -22.5t21.5 -62.5z" />
    <glyph glyph-name="cyrBreve" unicode="&#xf6d1;" horiz-adv-x="400" 
d="M200 895q47 0 89.5 15t61.5 30l19 15v-120q-7 -6 -20 -14t-57 -22t-93 -14t-91.5 12.5t-60.5 24.5l-18 13v120q7 -7 21 -17t58 -26.5t91 -16.5z" />
    <glyph glyph-name="cyrbreve" unicode="&#xf6d4;" horiz-adv-x="350" 
d="M175 595q-40 0 -76 10t-53 20l-16 10v120q7 -6 20 -15t51 -24.5t74 -15.5t72 14t55 28l18 13v-120q-6 -4 -17.5 -11t-49.5 -18t-78 -11z" />
    <glyph glyph-name="s_t" unicode="&#xfb06;" horiz-adv-x="1001" 
d="M480 155q0 -71 -60.5 -120.5t-164.5 -49.5q-62 0 -118.5 17.5t-81.5 35.5l-25 17l30 130q6 -6 18.5 -15t55 -24.5t91.5 -15.5q75 0 75 35q0 16 -27 26t-65 20t-76 26t-65 52.5t-27 90.5q0 68 57.5 116.5t157.5 48.5l35 -5q-15 20 -15 67q0 84 63.5 138.5t176.5 54.5
q130 0 197.5 -63t67.5 -177v-30h160v-155h-160v-165q0 -37 20 -56t55 -19q22 0 42 8.5t29 17.5l9 9h16l-1 -140q-6 -5 -17.5 -12.5t-49.5 -20t-78 -12.5q-91 0 -145.5 56.5t-54.5 153.5v180h-85v40l85 80v65q0 44 -26.5 69.5t-68.5 25.5q-45 0 -72.5 -24.5t-27.5 -65.5
q0 -22 14 -46t28 -37l13 -12l-60 -115q-4 5 -13 12.5t-40 20t-67 12.5q-65 0 -65 -35q0 -13 27 -21.5t65 -18.5t76 -26t65 -53t27 -91z" />
    <glyph glyph-name="s_h" unicode="&#xfb10;" horiz-adv-x="1175" 
d="M1115 0h-175v307q0 42 -23 65t-62 23q-46 0 -78 -32t-32 -84v-279h-175v640q-12 0 -35.5 2.5t-39.5 2.5q-38 0 -61.5 -21.5t-23.5 -58.5q0 -22 14 -46t28 -37l13 -12l-60 -115q-4 5 -13 12.5t-40 20t-67 12.5q-65 0 -65 -35q0 -13 27 -21.5t65 -18.5t76 -26t65 -53
t27 -91q0 -71 -60.5 -120.5t-164.5 -49.5q-62 0 -118.5 17.5t-81.5 35.5l-25 17l30 130q6 -6 18.5 -15t55 -24.5t91.5 -15.5q75 0 75 35q0 16 -27 26t-65 20t-76 26t-65 52.5t-27 90.5q0 68 56.5 116.5t153.5 48.5l40 -5q-15 25 -15 70q0 77 61 131t159 54q32 0 78.5 -7.5
t67.5 -7.5h104v-320h5q2 3 5 9t16.5 20.5t30 26t45.5 20.5t63 9q94 0 149.5 -57t55.5 -158v-330z" />
    <glyph glyph-name="s_k" unicode="&#xfb11;" horiz-adv-x="1130" 
d="M745 120v-120h-175v640q-12 0 -35.5 2.5t-39.5 2.5q-38 0 -61.5 -21.5t-23.5 -58.5q0 -27 14 -50.5t28 -34.5l13 -10l-60 -115q-4 5 -13 12.5t-40 20t-67 12.5q-65 0 -65 -35q0 -13 27 -21.5t65 -18.5t76 -26t65 -53t27 -91q0 -71 -60.5 -120.5t-164.5 -49.5
q-62 0 -118.5 17.5t-81.5 35.5l-25 17l30 130q6 -6 18.5 -15t55 -24.5t91.5 -15.5q75 0 75 35q0 16 -27 26t-65 19.5t-76 25.5t-65 53t-27 91q0 68 56.5 116.5t153.5 48.5l40 -5q-15 25 -15 70q0 77 61 131t159 54q32 0 78.5 -7.5t67.5 -7.5h104v-460l180 210h195l-200 -225
l220 -305h-190l-140 195z" />
    <glyph glyph-name="c_h" unicode="&#xfb12;" horiz-adv-x="1245" 
d="M1185 0h-175v307q0 42 -23 65t-62 23q-46 0 -78 -32t-32 -84v-279h-175v640q-12 0 -35.5 2.5t-39.5 2.5q-38 0 -61.5 -21.5t-23.5 -58.5q0 -27 12.5 -49.5t25.5 -31.5l12 -9l-65 -125q-4 5 -13 12.5t-37.5 20t-59.5 12.5q-64 0 -99.5 -33.5t-35.5 -96.5t35.5 -96.5
t99.5 -33.5q40 0 75 13.5t50 27.5l15 14h15v-145q-7 -7 -20.5 -17t-61 -26.5t-103.5 -16.5q-123 0 -204 80t-81 200t81 200t204 80l35 -5q-15 25 -15 70q0 77 61 131t159 54q32 0 78.5 -7.5t67.5 -7.5h104v-320h5q2 3 5 9t16.5 20.5t30 26t45.5 20.5t63 9q94 0 149.5 -57
t55.5 -158v-330z" />
    <glyph glyph-name="c_k" unicode="&#xfb13;" horiz-adv-x="1200" 
d="M815 120v-120h-175v640q-12 0 -35.5 2.5t-39.5 2.5q-38 0 -61.5 -21.5t-23.5 -58.5q0 -24 12.5 -46.5t25.5 -32.5l12 -11l-65 -125q-4 5 -13 12.5t-37.5 20t-59.5 12.5q-64 0 -99.5 -33.5t-35.5 -96.5t35.5 -96.5t99.5 -33.5q40 0 75 13.5t50 27.5l15 14h15v-145
q-7 -7 -20.5 -17t-61 -26.5t-103.5 -16.5q-123 0 -204 80t-81 200t81 200t204 80l35 -5q-15 25 -15 70q0 77 61 131t159 54q31 0 74.5 -7t60.5 -8h115v-460l180 210h195l-200 -225l220 -305h-190l-140 195z" />
    <glyph glyph-name="c_t" unicode="&#xfb14;" horiz-adv-x="1070" 
d="M220 265q0 -63 35.5 -96.5t99.5 -33.5q40 0 75 13.5t50 27.5l15 14h15v-145q-7 -7 -20.5 -17t-61 -26.5t-103.5 -16.5q-123 0 -204 80t-81 200t81 200t204 80l35 -5q-15 25 -15 67q0 84 63.5 138.5t176.5 54.5q130 0 197.5 -63t67.5 -177v-30h160v-155h-160v-165
q0 -37 20 -56t55 -19q22 0 42 8.5t29 17.5l9 9h15v-140q-6 -5 -17.5 -12.5t-49.5 -20t-78 -12.5q-91 0 -145.5 56.5t-54.5 153.5v180h-85v40l85 80v65q0 44 -26.5 69.5t-68.5 25.5q-45 0 -72.5 -24.5t-27.5 -65.5q0 -27 12.5 -49.5t25.5 -31.5l12 -9l-65 -125q-4 5 -13 12.5
t-37.5 20t-59.5 12.5q-64 0 -99.5 -33.5t-35.5 -96.5z" />
    <glyph glyph-name="zero.pnum" horiz-adv-x="660" 
d="M220 365q0 -120 28.5 -170t81.5 -50t81.5 50t28.5 170t-28.5 170t-81.5 50t-81.5 -50t-28.5 -170zM625 365q0 -181 -83 -280.5t-212 -99.5t-212 99.5t-83 280.5t83 280.5t212 99.5t212 -99.5t83 -280.5z" />
    <glyph glyph-name="one.pnum" horiz-adv-x="455" 
d="M35 450v175l185 105h145v-730h-180v530z" />
    <glyph glyph-name="two.pnum" horiz-adv-x="625" 
d="M30 15l280 375q55 70 55 125q0 70 -85 70q-31 0 -62.5 -13.5t-54 -32.5t-41 -38t-28.5 -33l-9 -13h-20v165q4 5 11 13.5t31.5 30t50.5 38t66 30t81 13.5q110 0 175 -58.5t65 -149.5q0 -52 -22.5 -107.5t-44.5 -85.5l-23 -29l-115 -155h230v-160h-540v15z" />
    <glyph glyph-name="three.pnum" horiz-adv-x="575" 
d="M250 340q-27 0 -49.5 -6t-31.5 -12l-9 -7l-55 75l133 180h-178v160h460v-15l-195 -250v-5q5 0 13 -1t31.5 -7t44.5 -14.5t47 -26.5t44.5 -41t31.5 -59.5t13 -80.5q0 -107 -75.5 -176t-204.5 -69q-69 0 -130 22.5t-88 44.5l-27 23l55 130q7 -7 21 -17t58 -26.5t91 -16.5
q115 0 115 100q0 45 -29.5 70t-85.5 25z" />
    <glyph glyph-name="four.pnum" horiz-adv-x="670" 
d="M640 305v-160h-100v-145h-180v145h-350v15l310 570h190l-235 -425h90l30 125h145v-125h100z" />
    <glyph glyph-name="five.pnum" horiz-adv-x="620" 
d="M390 245q0 45 -32 72.5t-86 27.5q-28 0 -53.5 -11.5t-36.5 -22.5l-12 -11l-100 60l55 370h410v-160h-284l-16 -95q30 10 70 10q122 0 193.5 -66.5t71.5 -173.5q0 -118 -73.5 -189t-206.5 -71q-67 0 -128 22.5t-89 44.5l-28 23l50 130q8 -7 22.5 -17t60 -26.5t92.5 -16.5
q57 0 88.5 26t31.5 74z" />
    <glyph glyph-name="six.pnum" horiz-adv-x="655" 
d="M300 730h215q-7 -5 -19.5 -15t-47 -40t-64.5 -61t-63 -74.5t-51 -84.5h5q40 25 110 25q105 0 172.5 -68.5t67.5 -176.5t-79 -179t-211 -71q-134 0 -209.5 75.5t-75.5 204.5q0 56 14 112t36 100.5t48.5 85.5t53 71t48.5 52t36 33zM335 330q-45 0 -72.5 -26.5t-27.5 -68.5
t27.5 -68.5t72.5 -26.5q48 0 76.5 26.5t28.5 68.5t-28.5 68.5t-76.5 26.5z" />
    <glyph glyph-name="seven.pnum" horiz-adv-x="570" 
d="M295 0h-180l215 570h-300v160h525v-15z" />
    <glyph glyph-name="eight.pnum" horiz-adv-x="665" 
d="M330 135q48 0 76.5 26.5t28.5 68.5t-28.5 68.5t-76.5 26.5t-76.5 -26.5t-28.5 -68.5t28.5 -68.5t76.5 -26.5zM330 455q33 0 54 20t21 50t-21 50t-54 20t-54 -20t-21 -50t21 -50t54 -20zM330 745q116 0 185.5 -59t69.5 -144q0 -30 -9.5 -56t-22.5 -42t-26 -27.5t-23 -16.5
l-9 -5v-5q5 -2 13.5 -5.5t30 -18t38 -32.5t30 -51.5t13.5 -72.5q0 -98 -76 -161.5t-214 -63.5t-214 63.5t-76 161.5q0 39 13 72t31 52t36.5 32.5t31.5 18.5l13 5v5l-10 5t-21.5 16t-27.5 28t-21.5 41.5t-9.5 56.5q0 85 69.5 144t185.5 59z" />
    <glyph glyph-name="nine.pnum" horiz-adv-x="655" 
d="M355 0h-215q7 5 19.5 15t47 40t64.5 61t63 74.5t51 84.5h-5q-40 -25 -110 -25q-105 0 -172.5 68.5t-67.5 176.5t79 179t211 71q134 0 209.5 -75.5t75.5 -204.5q0 -77 -25.5 -153t-62.5 -130t-74 -97t-63 -64zM320 400q45 0 72.5 26.5t27.5 68.5t-27.5 68.5t-72.5 26.5
q-48 0 -76.5 -26.5t-28.5 -68.5t28.5 -68.5t76.5 -26.5z" />
    <glyph glyph-name="foundryicon" horiz-adv-x="1538" 
d="M278 460v-31h-72v-199h-35v199h-71v31h178zM519 396q32 0 54.5 -25t22.5 -59q0 -36 -22.5 -60.5t-54.5 -24.5q-29 0 -47 21v-79h-34v224h24l9 -19q19 22 48 22zM516 258q19 0 33 16t14 38q0 21 -14 36.5t-33 15.5t-33 -15.5t-14 -36.5q0 -22 13.5 -38t33.5 -16zM333 277
l44 116h37l-77 -190q-16 -34 -49 -34q-7 0 -10 1v28q23 0 31 20l6 16l-63 159h37zM701 396q32 0 54 -24.5t22 -58.5l-1 -15h-119q2 -17 14.5 -29t29.5 -12q27 0 37 17h35q-9 -22 -28.5 -34.5t-43.5 -12.5q-32 0 -55 24.5t-23 60.5q0 35 23 59.5t55 24.5zM657 325h88
q-1 17 -14.5 28.5t-29.5 11.5t-29 -11t-15 -29zM939 460v-31h-72v-199h-35v199h-71v31h178zM1180 396q32 0 54.5 -25t22.5 -59q0 -36 -22.5 -60.5t-54.5 -24.5q-29 0 -47 21v-79h-34v224h24l9 -19q19 22 48 22zM1177 258q19 0 33 16t14 38q0 21 -14 36.5t-33 15.5t-33 -15.5
t-14 -36.5q0 -22 13.5 -38t33.5 -16zM994 277l44 116h37l-77 -190q-16 -34 -49 -34q-7 0 -10 1v28q23 0 31 20l6 16l-63 159h37zM1362 396q32 0 54 -24.5t22 -58.5l-1 -15h-119q2 -17 14.5 -29t29.5 -12q27 0 37 17h35q-9 -22 -28.5 -34.5t-43.5 -12.5q-32 0 -55 24.5
t-23 60.5q0 35 23 59.5t55 24.5zM1318 325h88q-1 17 -14.5 28.5t-29.5 11.5t-29 -11t-15 -29z" />
    <glyph glyph-name="Germandbls" horiz-adv-x="760" 
d="M375 435l85 125q-20 25 -70 25q-135 0 -135 -149v-436h-180v436q0 142 84.5 225.5t230.5 83.5q60 0 110.5 -16t80.5 -38.5t51.5 -45.5t29.5 -39l8 -16l-115 -165q7 -2 18.5 -7t40.5 -23t51.5 -40t41 -61t18.5 -84q0 -101 -72 -163t-205 -62q-35 0 -69.5 8.5t-51.5 17.5
l-17 9l30 150q35 -30 100 -30q100 0 100 70q0 22 -17 43t-41 34t-48.5 23.5t-41.5 15.5l-17 4v105z" />
    <glyph glyph-name="zero.taboldstyle" 
d="M405 265q0 120 -110 120t-110 -120t110 -120t110 120zM590 265q0 -121 -82.5 -200.5t-212.5 -79.5t-212.5 79.5t-82.5 200.5t82.5 200.5t212.5 79.5t212.5 -79.5t82.5 -200.5z" />
    <glyph glyph-name="one.taboldstyle" 
d="M85 0v155h145v190l-145 -45v145l185 85h140v-375h145v-155h-470z" />
    <glyph glyph-name="two.taboldstyle" 
d="M35 15l240 220q6 5 15 14t24.5 34t15.5 47q0 26 -17.5 40.5t-47.5 14.5q-28 0 -56.5 -12.5t-48.5 -30t-36.5 -35t-25.5 -29.5l-8 -13h-20v165q4 5 10.5 12.5t29.5 27.5t47.5 35t62 27.5t75.5 12.5q98 0 159 -54t61 -131q0 -44 -21.5 -86.5t-42.5 -63.5l-21 -20l-35 -30
h135v-160h-495v15z" />
    <glyph glyph-name="three.taboldstyle" 
d="M250 140q-27 0 -49.5 -6t-31.5 -12l-9 -7l-55 75l133 180h-178v160h460v-15l-195 -250v-5q5 0 13 -1t31.5 -7t44.5 -14.5t47 -26.5t44.5 -41t31.5 -59.5t13 -80.5q0 -107 -75.5 -176t-204.5 -69q-69 0 -130 22.5t-88 44.5l-27 23l55 130q7 -7 21 -17t58 -26.5t91 -16.5
q115 0 115 100q0 45 -29.5 70t-85.5 25z" />
    <glyph glyph-name="four.taboldstyle" 
d="M605 160v-160h-100v-200h-180v200h-350v15l280 515h190l-205 -370h90l30 125h145v-125h100z" />
    <glyph glyph-name="five.taboldstyle" 
d="M370 45q0 45 -32 72.5t-86 27.5q-28 0 -53.5 -11t-36.5 -22l-12 -12l-100 60l55 370h410v-160h-284l-16 -95q30 10 70 10q122 0 193.5 -66.5t71.5 -173.5q0 -118 -73.5 -189t-206.5 -71q-67 0 -128 22.5t-89 44.5l-28 23l50 130q8 -7 22.5 -17t60 -26.5t92.5 -16.5
q57 0 88.5 26t31.5 74z" />
    <glyph glyph-name="six.taboldstyle" 
d="M265 730h215q-7 -5 -19.5 -15t-47 -40t-64.5 -61t-63 -74.5t-51 -84.5h5q40 25 110 25q105 0 172.5 -68.5t67.5 -176.5t-79 -179t-211 -71q-134 0 -209.5 75.5t-75.5 204.5q0 77 25.5 153t62.5 130t74 97t63 64zM300 330q-45 0 -72.5 -26.5t-27.5 -68.5t27.5 -68.5
t72.5 -26.5q48 0 76.5 26.5t28.5 68.5t-28.5 68.5t-76.5 26.5z" />
    <glyph glyph-name="seven.taboldstyle" 
d="M300 -200h-180l215 570h-300v160h525v-15z" />
    <glyph glyph-name="eight.taboldstyle" 
d="M295 135q48 0 76.5 26.5t28.5 68.5t-28.5 68.5t-76.5 26.5t-76.5 -26.5t-28.5 -68.5t28.5 -68.5t76.5 -26.5zM295 455q33 0 54 20t21 50t-21 50t-54 20t-54 -20t-21 -50t21 -50t54 -20zM295 745q116 0 185.5 -59t69.5 -144q0 -30 -9.5 -56t-22.5 -42t-26 -27.5t-22 -16.5
l-10 -5v-5q5 -2 13.5 -5.5t30 -18t38 -32.5t30 -51.5t13.5 -72.5q0 -98 -76.5 -161.5t-213.5 -63.5t-213.5 63.5t-76.5 161.5q0 39 13 72t31.5 52t36.5 32.5t31 18.5l13 5v5l-10 5t-21.5 16t-27.5 28t-21.5 41.5t-9.5 56.5q0 85 69.5 144t185.5 59z" />
    <glyph glyph-name="nine.taboldstyle" 
d="M325 -200h-215q7 5 19.5 15t47 40t64.5 61t63 74.5t51 84.5h-5q-40 -25 -110 -25q-105 0 -172.5 68.5t-67.5 176.5t79 179t211 71q134 0 209.5 -75.5t75.5 -204.5q0 -77 -25.5 -153t-62.5 -130t-74 -97t-63 -64zM290 200q45 0 72.5 26.5t27.5 68.5t-27.5 68.5t-72.5 26.5
q-48 0 -76.5 -26.5t-28.5 -68.5t28.5 -68.5t76.5 -26.5z" />
    <glyph glyph-name="zero.tab" 
d="M185 365q0 -120 28.5 -170t81.5 -50t81.5 50t28.5 170t-28.5 170t-81.5 50t-81.5 -50t-28.5 -170zM590 365q0 -181 -83 -280.5t-212 -99.5t-212 99.5t-83 280.5t83 280.5t212 99.5t212 -99.5t83 -280.5z" />
    <glyph glyph-name="one.tab" 
d="M85 0v160h145v370l-145 -80v175l185 105h140v-570h145v-160h-470z" />
    <glyph glyph-name="two.tab" 
d="M15 15l280 375q55 70 55 125q0 70 -85 70q-31 0 -62.5 -13.5t-54 -32.5t-41 -38t-27.5 -33l-10 -13h-20v165q4 5 11 13.5t31.5 30t50.5 38t66 30t81 13.5q110 0 175 -58.5t65 -149.5q0 -52 -22.5 -107.5t-45.5 -85.5l-22 -29l-115 -155h230v-160h-540v15z" />
    <glyph glyph-name="three.tab" 
d="M250 340q-27 0 -49.5 -6t-31.5 -12l-9 -7l-55 75l133 180h-178v160h460v-15l-195 -250v-5q5 0 13 -1t31.5 -7t44.5 -14.5t47 -26.5t44.5 -41t31.5 -59.5t13 -80.5q0 -107 -75.5 -176t-204.5 -69q-69 0 -130 22.5t-88 44.5l-27 23l55 130q7 -7 21 -17t58 -26.5t91 -16.5
q115 0 115 100q0 45 -29.5 70t-85.5 25z" />
    <glyph glyph-name="four.tab" 
d="M605 305v-160h-100v-145h-180v145h-350v15l310 570h190l-235 -425h90l30 125h145v-125h100z" />
    <glyph glyph-name="five.tab" 
d="M375 245q0 45 -32 72.5t-86 27.5q-28 0 -53.5 -11.5t-37.5 -22.5l-11 -11l-100 60l55 370h410v-160h-284l-16 -95q30 10 70 10q122 0 193.5 -66.5t71.5 -173.5q0 -118 -73.5 -189t-206.5 -71q-67 0 -128 22.5t-89 44.5l-28 23l50 130q8 -7 22.5 -17t60 -26.5t92.5 -16.5
q57 0 88.5 26t31.5 74z" />
    <glyph glyph-name="six.tab" 
d="M265 730h215q-7 -5 -19.5 -15t-47 -40t-64.5 -61t-63 -74.5t-51 -84.5h5q40 25 110 25q105 0 172.5 -68.5t67.5 -176.5t-79 -179t-211 -71q-134 0 -209.5 75.5t-75.5 204.5q0 77 25.5 153t62.5 130t74 97t63 64zM300 330q-45 0 -72.5 -26.5t-27.5 -68.5t27.5 -68.5
t72.5 -26.5q48 0 76.5 26.5t28.5 68.5t-28.5 68.5t-76.5 26.5z" />
    <glyph glyph-name="seven.tab" 
d="M300 0h-180l215 570h-300v160h525v-15z" />
    <glyph glyph-name="eight.tab" 
d="M295 135q48 0 76.5 26.5t28.5 68.5t-28.5 68.5t-76.5 26.5t-76.5 -26.5t-28.5 -68.5t28.5 -68.5t76.5 -26.5zM295 455q33 0 54 20t21 50t-21 50t-54 20t-54 -20t-21 -50t21 -50t54 -20zM295 745q116 0 185.5 -59t69.5 -144q0 -30 -9.5 -56t-22.5 -42t-26 -27.5t-22 -16.5
l-10 -5v-5q5 -2 13.5 -5.5t30 -18t38 -32.5t30 -51.5t13.5 -72.5q0 -98 -76.5 -161.5t-213.5 -63.5t-213.5 63.5t-76.5 161.5q0 39 13 72t31.5 52t36.5 32.5t31 18.5l13 5v5l-10 5t-21.5 16t-27.5 28t-21.5 41.5t-9.5 56.5q0 85 69.5 144t185.5 59z" />
    <glyph glyph-name="nine.tab" 
d="M325 0h-215q7 5 19.5 15t47 40t64.5 61t63 74.5t51 84.5h-5q-40 -25 -110 -25q-105 0 -172.5 68.5t-67.5 176.5t79 179t211 71q134 0 209.5 -75.5t75.5 -204.5q0 -77 -25.5 -153t-62.5 -130t-74 -97t-63 -64zM290 400q45 0 72.5 26.5t27.5 68.5t-27.5 68.5t-72.5 26.5
q-48 0 -76.5 -26.5t-28.5 -68.5t28.5 -68.5t76.5 -26.5z" />
    <glyph glyph-name="zero.numr" horiz-adv-x="370" 
d="M135 550q0 -95 50 -95t50 95t-50 95t-50 -95zM345 550q0 -88 -45 -139t-115 -51t-115 51t-45 139t45 139t115 51t115 -51t45 -139z" />
    <glyph glyph-name="one.numr" horiz-adv-x="245" 
d="M25 565v109l100 56h80v-360h-110v235z" />
    <glyph glyph-name="two.numr" horiz-adv-x="335" 
d="M25 385l140 175q20 20 20 50q0 35 -40 35q-20 0 -45 -13.5t-40 -27.5l-15 -14h-10v92q6 6 17.5 16t48 26t74.5 16q120 0 120 -110q0 -24 -7.5 -46.5t-15.5 -33.5l-7 -10l-60 -75h100v-95h-280v15z" />
    <glyph glyph-name="three.numr" horiz-adv-x="330" 
d="M145 530q-11 0 -22.5 -4t-16.5 -8l-6 -3l-40 45l60 75h-80v95h250v-15l-90 -110q4 -1 11 -2.5t25.5 -9.5t32 -20t25 -35.5t11.5 -52.5q0 -58 -39 -91.5t-116 -33.5q-36 0 -68.5 11t-47.5 23l-14 11l30 80q40 -35 90 -35q55 0 55 40t-50 40z" />
    <glyph glyph-name="four.numr" horiz-adv-x="330" 
d="M250 730l-115 -200h45l20 55h65v-55h50v-95h-50v-65h-110v65h-180v15l160 280h115z" />
    <glyph glyph-name="five.numr" horiz-adv-x="330" 
d="M195 490q0 40 -50 40q-13 0 -25.5 -4.5t-18.5 -9.5l-6 -4l-63 33l32 185h221v-95h-145l-5 -30q15 5 30 5q63 0 101.5 -33.5t38.5 -86.5q0 -130 -155 -130q-36 0 -68.5 11t-47.5 23l-14 11l30 80q40 -35 90 -35q55 0 55 40z" />
    <glyph glyph-name="six.numr" horiz-adv-x="350" 
d="M155 730h120q-8 -6 -22 -16t-44.5 -41.5t-48.5 -62.5q20 5 40 5q60 0 95 -34t35 -91q0 -58 -40.5 -94t-110.5 -36q-73 0 -113.5 37.5t-40.5 102.5q0 39 13.5 77t32.5 64.5t38 47.5t33 31zM140 490q0 -18 11.5 -26.5t28.5 -8.5t28.5 8.5t11.5 26.5t-11.5 26.5t-28.5 8.5
t-28.5 -8.5t-11.5 -26.5z" />
    <glyph glyph-name="seven.numr" horiz-adv-x="305" 
d="M180 370h-115l100 265h-145v95h285v-15z" />
    <glyph glyph-name="eight.numr" horiz-adv-x="350" 
d="M175 450q45 0 45 35q0 40 -45 40t-45 -40q0 -35 45 -35zM175 605q30 0 30 25t-30 25t-30 -25t30 -25zM175 360q-76 0 -115.5 32t-39.5 83q0 29 16 50t32 28l17 7q-6 3 -14 8.5t-22 25t-14 41.5q0 47 35.5 76t104.5 29t104.5 -29t35.5 -76q0 -22 -12.5 -41t-24.5 -26
l-13 -8q7 -2 18 -7t29 -27t18 -51q0 -51 -39.5 -83t-115.5 -32z" />
    <glyph glyph-name="nine.numr" horiz-adv-x="350" 
d="M195 370h-120q8 6 22 16t44.5 41.5t48.5 62.5q-20 -5 -40 -5q-60 0 -95 34t-35 91q0 58 40.5 94t110.5 36q73 0 113.5 -37.5t40.5 -102.5q0 -39 -13.5 -77t-32.5 -64.5t-38 -47.5t-33 -31zM210 610q0 18 -11.5 26.5t-28.5 8.5t-28.5 -8.5t-11.5 -26.5t11.5 -26.5
t28.5 -8.5t28.5 8.5t11.5 26.5z" />
    <glyph glyph-name="zero.dnom" horiz-adv-x="370" 
d="M135 180q0 -95 50 -95t50 95t-50 95t-50 -95zM345 180q0 -88 -45 -139t-115 -51t-115 51t-45 139t45 139t115 51t115 -51t45 -139z" />
    <glyph glyph-name="one.dnom" horiz-adv-x="245" 
d="M25 195v109l100 56h80v-360h-110v235z" />
    <glyph glyph-name="two.dnom" horiz-adv-x="335" 
d="M25 15l140 175q20 20 20 50q0 35 -40 35q-20 0 -45 -13.5t-40 -27.5l-15 -14h-10v92q6 6 17.5 16t48 26t74.5 16q120 0 120 -110q0 -24 -7.5 -46.5t-15.5 -33.5l-7 -10l-60 -75h100v-95h-280v15z" />
    <glyph glyph-name="three.dnom" horiz-adv-x="330" 
d="M145 160q-11 0 -22.5 -4t-16.5 -8l-6 -3l-40 45l60 75h-80v95h250v-15l-90 -110q4 -1 11 -2.5t25.5 -9.5t32 -20t25 -35.5t11.5 -52.5q0 -58 -39 -91.5t-116 -33.5q-36 0 -68.5 11t-47.5 23l-14 11l30 80q40 -35 90 -35q55 0 55 40t-50 40z" />
    <glyph glyph-name="four.dnom" horiz-adv-x="330" 
d="M250 360l-115 -200h45l20 55h65v-55h50v-95h-50v-65h-110v65h-180v15l160 280h115z" />
    <glyph glyph-name="five.dnom" horiz-adv-x="330" 
d="M195 120q0 40 -50 40q-13 0 -25.5 -4.5t-18.5 -9.5l-6 -4l-63 33l32 185h221v-95h-145l-5 -30q15 5 30 5q63 0 101.5 -33.5t38.5 -86.5q0 -130 -155 -130q-36 0 -68.5 11t-47.5 23l-14 11l30 80q40 -35 90 -35q55 0 55 40z" />
    <glyph glyph-name="six.dnom" horiz-adv-x="350" 
d="M155 360h120q-8 -6 -22 -16t-44.5 -41.5t-48.5 -62.5q20 5 40 5q60 0 95 -34t35 -91q0 -58 -40.5 -94t-110.5 -36q-73 0 -113.5 37.5t-40.5 102.5q0 39 13.5 77t32.5 64.5t38 47.5t33 31zM140 120q0 -18 11.5 -26.5t28.5 -8.5t28.5 8.5t11.5 26.5t-11.5 26.5t-28.5 8.5
t-28.5 -8.5t-11.5 -26.5z" />
    <glyph glyph-name="seven.dnom" horiz-adv-x="305" 
d="M180 0h-115l100 265h-145v95h285v-15z" />
    <glyph glyph-name="eight.dnom" horiz-adv-x="350" 
d="M175 80q45 0 45 35q0 40 -45 40t-45 -40q0 -35 45 -35zM175 235q30 0 30 25t-30 25t-30 -25t30 -25zM175 -10q-76 0 -115.5 32t-39.5 83q0 29 16 50t32 28l17 7q-6 3 -14 8.5t-22 25t-14 41.5q0 47 35.5 76t104.5 29t104.5 -29t35.5 -76q0 -22 -12.5 -41t-24.5 -26
l-13 -8q7 -2 18 -7t29 -27t18 -51q0 -51 -39.5 -83t-115.5 -32z" />
    <glyph glyph-name="nine.dnom" horiz-adv-x="350" 
d="M195 0h-120q8 6 22 16t44.5 41.5t48.5 62.5q-20 -5 -40 -5q-60 0 -95 34t-35 91q0 58 40.5 94t110.5 36q73 0 113.5 -37.5t40.5 -102.5q0 -39 -13.5 -77t-32.5 -64.5t-38 -47.5t-33 -31zM210 240q0 18 -11.5 26.5t-28.5 8.5t-28.5 -8.5t-11.5 -26.5t11.5 -26.5t28.5 -8.5
t28.5 8.5t11.5 26.5z" />
    <glyph glyph-name="at.case" horiz-adv-x="985" 
d="M950 395q0 -114 -54 -174.5t-146 -60.5q-49 0 -85 17.5t-48 34.5l-12 18h-10q-1 -3 -3.5 -7.5t-13 -16.5t-24.5 -21.5t-40.5 -17t-58.5 -7.5q-87 0 -141 56t-54 149t54 149t141 56q40 0 71.5 -12.5t42.5 -25.5l11 -12l20 40h105v-220q0 -65 50 -65q65 0 65 120
q0 126 -86.5 205.5t-233.5 79.5q-146 0 -235.5 -88t-89.5 -227q0 -141 90.5 -228t234.5 -87q64 0 116.5 11t73.5 23l20 11v-125q-7 -4 -22 -10t-70 -15.5t-121 -9.5q-202 0 -327 120.5t-125 309.5t125.5 309.5t329.5 120.5q206 0 328 -112t122 -288zM480 280q35 0 57.5 22.5
t22.5 62.5t-22.5 62.5t-57.5 22.5t-57.5 -22.5t-22.5 -62.5t22.5 -62.5t57.5 -22.5z" />
    <glyph glyph-name="parenleft.case" horiz-adv-x="385" 
d="M215 364q0 -85 15.5 -169t37.5 -143t44 -105.5t38 -69.5l15 -23h-130q-7 8 -19.5 24t-43.5 67.5t-54.5 107.5t-43 141t-19.5 170t18.5 169t45 143t53 105.5t44.5 69.5l19 23h130q-6 -8 -16 -24t-36 -67.5t-46 -107.5t-36 -141t-16 -170z" />
    <glyph glyph-name="parenright.case" horiz-adv-x="385" 
d="M170 364q0 85 -15.5 169t-37.5 143t-44 105.5t-37 69.5l-16 23h130q7 -8 19.5 -24t43.5 -67.5t54.5 -107.5t43 -141t19.5 -170t-18.5 -169t-45 -143t-53 -105.5t-45.5 -69.5l-18 -23h-130q6 8 16 24t36 67.5t46 107.5t36 141t16 170z" />
    <glyph glyph-name="bracketleft.case" horiz-adv-x="430" 
d="M85 -145v1015h310v-145h-155v-725h155v-145h-310z" />
    <glyph glyph-name="bracketright.case" horiz-adv-x="430" 
d="M345 870v-1015h-310v145h155v725h-155v145h310z" />
    <glyph glyph-name="braceleft.case" horiz-adv-x="435" 
d="M50 295v135q80 0 80 90v165q0 95 48 140t152 45h70v-135h-30q-42 0 -61 -18t-19 -62v-180q0 -29 -10.5 -51.5t-25 -33t-29 -17t-25.5 -7.5l-10 -1v-5q4 0 11 -0.5t24 -6.5t30 -16.5t24 -33t11 -53.5v-180q0 -44 19 -62t61 -18h30v-135h-70q-104 0 -152 45t-48 140v165
q0 90 -80 90z" />
    <glyph glyph-name="braceright.case" horiz-adv-x="435" 
d="M385 430v-135q-80 0 -80 -90v-165q0 -95 -48 -140t-152 -45h-70v135h30q42 0 61 18t19 62v180q0 29 10.5 51.5t25 33t29 17t24.5 7.5l11 1v5q-4 0 -11 1t-24 7.5t-30 17t-24 33t-11 51.5v180q0 44 -19 62t-61 18h-30v135h70q104 0 152 -45t48 -140v-165q0 -90 80 -90z
" />
    <glyph glyph-name="exclamdown.case" horiz-adv-x="320" 
d="M70 95l25 380h130l25 -380v-165h-180v165zM255 645q0 -44 -26.5 -69.5t-68.5 -25.5t-68.5 25.5t-26.5 69.5t26.5 69.5t68.5 25.5t68.5 -25.5t26.5 -69.5z" />
    <glyph glyph-name="questiondown.case" horiz-adv-x="525" 
d="M465 215v-170q-8 -7 -24 -17t-67 -26.5t-104 -16.5q-113 0 -174 55.5t-61 144.5q0 42 18 80t43.5 65.5t51.5 53t44 54t18 57.5h165q0 -42 -16.5 -78t-40 -61.5t-47 -48.5t-40 -48t-16.5 -49q0 -30 21.5 -47.5t58.5 -17.5q36 0 73.5 17.5t57.5 35.5l19 17h20zM390 645
q0 -44 -26.5 -69.5t-68.5 -25.5t-68.5 25.5t-26.5 69.5t26.5 69.5t68.5 25.5t68.5 -25.5t26.5 -69.5z" />
    <glyph glyph-name="guillemotleft.case" horiz-adv-x="625" 
d="M185 360l160 -220h-160l-155 215v20l155 215h160l-160 -220v-10zM435 360l160 -220h-160l-155 215v20l155 215h160l-160 -220v-10z" />
    <glyph glyph-name="guillemotright.case" horiz-adv-x="625" 
d="M280 140l160 220v10l-160 220h160l155 -215v-20l-155 -215h-160zM30 140l160 220v10l-160 220h160l155 -215v-20l-155 -215h-160z" />
    <glyph glyph-name="guilsinglleft.case" horiz-adv-x="405" 
d="M185 360l190 -220h-160l-185 215v20l185 215h160l-190 -220v-10z" />
    <glyph glyph-name="guilsinglright.case" horiz-adv-x="405" 
d="M30 140l190 220v10l-190 220h160l185 -215v-20l-185 -215h-160z" />
    <glyph glyph-name="hyphen.case" horiz-adv-x="430" 
d="M40 290v150h350v-150h-350z" />
    <glyph glyph-name="endash.case" horiz-adv-x="585" 
d="M40 290v145h505v-145h-505z" />
    <glyph glyph-name="emdash.case" horiz-adv-x="945" 
d="M40 290v145h865v-145h-865z" />
    <glyph glyph-name="periodcentered.case" horiz-adv-x="280" 
d="M45 365q0 44 26.5 69.5t68.5 25.5t68.5 -25.5t26.5 -69.5t-26.5 -69.5t-68.5 -25.5t-68.5 25.5t-26.5 69.5z" />
    <glyph glyph-name="bullet.case" horiz-adv-x="500" 
d="M120 369q0 55 38.5 92.5t91.5 37.5t91.5 -37.5t38.5 -92.5t-38.5 -92.5t-91.5 -37.5t-91.5 37.5t-38.5 92.5z" />
    <glyph glyph-name="a.salt" horiz-adv-x="705" 
d="M465 265q0 59 -35.5 94.5t-89.5 35.5t-89.5 -35.5t-35.5 -94.5t36 -94.5t90 -35.5q53 0 88.5 35.5t35.5 94.5zM465 460l5 70h170v-530h-170l-5 70h-5q-2 -3 -5.5 -9t-18 -20.5t-32 -26t-48 -20.5t-65.5 -9q-108 0 -179.5 77.5t-71.5 202.5t71.5 202.5t178.5 77.5
q35 0 65.5 -9t48.5 -21t31.5 -24.5t18.5 -21.5l6 -9h5z" />
    <glyph glyph-name="atilde.salt" horiz-adv-x="705" 
d="M270 650q-29 0 -55 -11t-38 -23l-12 -11v120q4 6 12 14t37.5 22t65.5 14q42 0 90.5 -25t79.5 -25q29 0 55 11.5t38 22.5l12 11v-120q-4 -6 -12 -14t-37.5 -22t-65.5 -14q-42 0 -90.5 25t-79.5 25zM465 265q0 59 -35.5 94.5t-89.5 35.5t-89.5 -35.5t-35.5 -94.5t36 -94.5
t90 -35.5q53 0 88.5 35.5t35.5 94.5zM465 460l5 70h170v-530h-170l-5 70h-5q-2 -3 -5.5 -9t-18 -20.5t-32 -26t-48 -20.5t-65.5 -9q-108 0 -179.5 77.5t-71.5 202.5t71.5 202.5t178.5 77.5q35 0 65.5 -9t48.5 -21t31.5 -24.5t18.5 -21.5l6 -9h5z" />
    <glyph glyph-name="aring.salt" horiz-adv-x="705" 
d="M320 705q0 -35 35 -35t35 35t-35 35t-35 -35zM485 705q0 -56 -36.5 -90.5t-93.5 -34.5t-93.5 34.5t-36.5 90.5t36.5 90.5t93.5 34.5t93.5 -34.5t36.5 -90.5zM465 265q0 59 -35.5 94.5t-89.5 35.5t-89.5 -35.5t-35.5 -94.5t36 -94.5t90 -35.5q53 0 88.5 35.5t35.5 94.5z
M465 460l5 70h170v-530h-170l-5 70h-5q-2 -3 -5.5 -9t-18 -20.5t-32 -26t-48 -20.5t-65.5 -9q-108 0 -179.5 77.5t-71.5 202.5t71.5 202.5t178.5 77.5q35 0 65.5 -9t48.5 -21t31.5 -24.5t18.5 -21.5l6 -9h5z" />
    <glyph glyph-name="aogonek.salt" horiz-adv-x="705" 
d="M550 0h-80l-5 70h-5q-2 -3 -5.5 -9t-18 -20.5t-32 -26t-48 -20.5t-65.5 -9q-108 0 -179.5 77.5t-71.5 202.5t71.5 202.5t178.5 77.5q35 0 65.5 -9t48.5 -21t31.5 -24.5t18.5 -21.5l6 -9h5l5 70h170v-530q-4 -2 -10 -5.5t-21.5 -16t-27.5 -26t-21.5 -36t-9.5 -46.5
q0 -55 45 -55q11 0 22.5 2.5t16.5 4.5l6 3v-65q-30 -20 -80 -20q-69 0 -104.5 29.5t-35.5 80.5q0 29 13.5 55.5t32.5 43t38 28.5t32 17zM465 265q0 59 -35.5 94.5t-89.5 35.5t-89.5 -35.5t-35.5 -94.5t36 -94.5t90 -35.5q53 0 88.5 35.5t35.5 94.5z" />
    <glyph glyph-name="amacron.salt" horiz-adv-x="705" 
d="M465 265q0 59 -35.5 94.5t-89.5 35.5t-89.5 -35.5t-35.5 -94.5t36 -94.5t90 -35.5q53 0 88.5 35.5t35.5 94.5zM465 460l5 70h170v-530h-170l-5 70h-5q-2 -3 -5.5 -9t-18 -20.5t-32 -26t-48 -20.5t-65.5 -9q-108 0 -179.5 77.5t-71.5 202.5t71.5 202.5t178.5 77.5
q35 0 65.5 -9t48.5 -21t31.5 -24.5t18.5 -21.5l6 -9h5zM150 625v115h415v-115h-415z" />
    <glyph glyph-name="adieresis.salt" horiz-adv-x="705" 
d="M465 265q0 59 -35.5 94.5t-89.5 35.5t-89.5 -35.5t-35.5 -94.5t36 -94.5t90 -35.5q53 0 88.5 35.5t35.5 94.5zM465 460l5 70h170v-530h-170l-5 70h-5q-2 -3 -5.5 -9t-18 -20.5t-32 -26t-48 -20.5t-65.5 -9q-108 0 -179.5 77.5t-71.5 202.5t71.5 202.5t178.5 77.5
q35 0 65.5 -9t48.5 -21t31.5 -24.5t18.5 -21.5l6 -9h5zM165 685q0 40 23.5 62.5t61.5 22.5q40 0 62.5 -22t22.5 -63q0 -40 -23.5 -62.5t-61.5 -22.5t-61.5 22.5t-23.5 62.5zM385 685q0 40 23.5 62.5t61.5 22.5q40 0 62.5 -22t22.5 -63q0 -40 -23.5 -62.5t-61.5 -22.5
t-61.5 22.5t-23.5 62.5z" />
    <glyph glyph-name="acircumflex.salt" horiz-adv-x="705" 
d="M465 265q0 59 -35.5 94.5t-89.5 35.5t-89.5 -35.5t-35.5 -94.5t36 -94.5t90 -35.5q53 0 88.5 35.5t35.5 94.5zM465 460l5 70h170v-530h-170l-5 70h-5q-2 -3 -5.5 -9t-18 -20.5t-32 -26t-48 -20.5t-65.5 -9q-108 0 -179.5 77.5t-71.5 202.5t71.5 202.5t178.5 77.5
q35 0 65.5 -9t48.5 -21t31.5 -24.5t18.5 -21.5l6 -9h5zM360 680l-105 -90h-105l150 195h120l150 -195h-105z" />
    <glyph glyph-name="abreve.salt" horiz-adv-x="705" 
d="M365 705q44 0 86.5 15t62.5 30l21 15v-120q-7 -6 -20 -14t-57 -22t-93 -14t-91.5 12.5t-60.5 24.5l-18 13v120q8 -7 22.5 -17t59 -26.5t88.5 -16.5zM465 265q0 59 -35.5 94.5t-89.5 35.5t-89.5 -35.5t-35.5 -94.5t36 -94.5t90 -35.5q53 0 88.5 35.5t35.5 94.5zM465 460
l5 70h170v-530h-170l-5 70h-5q-2 -3 -5.5 -9t-18 -20.5t-32 -26t-48 -20.5t-65.5 -9q-108 0 -179.5 77.5t-71.5 202.5t71.5 202.5t178.5 77.5q35 0 65.5 -9t48.5 -21t31.5 -24.5t18.5 -21.5l6 -9h5z" />
    <glyph glyph-name="aacute.salt" horiz-adv-x="705" 
d="M295 590l55 195h185l-135 -195h-105zM465 265q0 59 -35.5 94.5t-89.5 35.5t-89.5 -35.5t-35.5 -94.5t36 -94.5t90 -35.5q53 0 88.5 35.5t35.5 94.5zM465 460l5 70h170v-530h-170l-5 70h-5q-2 -3 -5.5 -9t-18 -20.5t-32 -26t-48 -20.5t-65.5 -9q-108 0 -179.5 77.5
t-71.5 202.5t71.5 202.5t178.5 77.5q35 0 65.5 -9t48.5 -21t31.5 -24.5t18.5 -21.5l6 -9h5z" />
    <glyph glyph-name="agrave.salt" horiz-adv-x="705" 
d="M365 785l55 -195h-105l-135 195h185zM465 265q0 59 -35.5 94.5t-89.5 35.5t-89.5 -35.5t-35.5 -94.5t36 -94.5t90 -35.5q53 0 88.5 35.5t35.5 94.5zM465 460l5 70h170v-530h-170l-5 70h-5q-2 -3 -5.5 -9t-18 -20.5t-32 -26t-48 -20.5t-65.5 -9q-108 0 -179.5 77.5
t-71.5 202.5t71.5 202.5t178.5 77.5q35 0 65.5 -9t48.5 -21t31.5 -24.5t18.5 -21.5l6 -9h5z" />
    <glyph glyph-name="ae.salt" horiz-adv-x="1085" 
d="M465 265q0 59 -35.5 94.5t-89.5 35.5t-89.5 -35.5t-35.5 -94.5t36 -94.5t90 -35.5q53 0 88.5 35.5t35.5 94.5zM805 545q107 0 173.5 -73t66.5 -202v-35h-390q0 -4 1.5 -11t11.5 -25.5t24.5 -32t45.5 -25t72 -11.5q53 0 97 14t61 28l17 13h15v-140q-9 -7 -25 -17
t-64.5 -26.5t-95.5 -16.5q-53 0 -95.5 21.5t-58.5 42.5l-16 21h-5v-70h-170l-5 70h-5q-2 -3 -5.5 -9t-18 -20.5t-32 -26t-48 -20.5t-65.5 -9q-108 0 -179.5 77.5t-71.5 202.5t71.5 202.5t178.5 77.5q35 0 65.5 -9t48.5 -21t31.5 -24.5t18.5 -21.5l6 -9h5l5 70h170v-70h5l6 9
t18.5 20.5t31.5 26t45 20.5t59 9zM790 410q-52 0 -84.5 -23t-45.5 -57h225q0 31 -27.5 55.5t-67.5 24.5z" />
    <glyph glyph-name="afii10065.salt" horiz-adv-x="705" 
d="M465 265q0 59 -35.5 94.5t-89.5 35.5t-89.5 -35.5t-35.5 -94.5t36 -94.5t90 -35.5q53 0 88.5 35.5t35.5 94.5zM465 460l5 70h170v-530h-170l-5 70h-5q-2 -3 -5.5 -9t-18 -20.5t-32 -26t-48 -20.5t-65.5 -9q-108 0 -179.5 77.5t-71.5 202.5t71.5 202.5t178.5 77.5
q35 0 65.5 -9t48.5 -21t31.5 -24.5t18.5 -21.5l6 -9h5z" />
    <glyph glyph-name="ordfeminine.salt" horiz-adv-x="475" 
d="M310 545q0 40 -22.5 62.5t-57.5 22.5t-57.5 -22.5t-22.5 -62.5t22.5 -62.5t57.5 -22.5t57.5 22.5t22.5 62.5zM315 730h120v-370h-120l-5 40h-5q-3 -6 -9.5 -14t-36 -22t-69.5 -14q-73 0 -121.5 53.5t-48.5 141.5t49 141.5t123 53.5q25 0 45.5 -5t32.5 -12.5t20.5 -15
t11.5 -12.5l3 -5h5z" />
    <glyph glyph-name="g.salt" horiz-adv-x="685" 
d="M445 55v45h-5q-1 -3 -4.5 -9t-16 -20.5t-28.5 -26t-45.5 -20.5t-63.5 -9q-101 0 -171.5 75.5t-70.5 189.5q0 115 71 190t174 75q35 0 64 -9t45 -21t27 -24.5t15 -21.5l4 -9h5l5 70h170v-475q0 -133 -82.5 -211.5t-227.5 -78.5q-49 0 -94 8.5t-66 17.5l-20 9l-30 165
q9 -6 25.5 -14t66 -22t98.5 -14q155 0 155 140zM220 280q0 -51 32 -83t78 -32q50 0 82.5 31.5t32.5 83.5t-32.5 83.5t-82.5 31.5q-46 0 -78 -32t-32 -83z" />
    <glyph glyph-name="gbreve.salt" horiz-adv-x="685" 
d="M350 725q44 0 86.5 15t63.5 30l20 15v-120q-7 -6 -20 -14t-57 -22t-93 -14t-91.5 12.5t-60.5 24.5l-18 13v120q8 -7 22.5 -17t59 -26.5t88.5 -16.5zM445 55v45h-5q-1 -3 -4.5 -9t-16 -20.5t-28.5 -26t-45.5 -20.5t-63.5 -9q-101 0 -171.5 75.5t-70.5 189.5q0 115 71 190
t174 75q35 0 64 -9t45 -21t27 -24.5t15 -21.5l4 -9h5l5 70h170v-475q0 -133 -82.5 -211.5t-227.5 -78.5q-49 0 -94 8.5t-66 17.5l-20 9l-30 165q9 -6 25.5 -14t66 -22t98.5 -14q155 0 155 140zM220 280q0 -51 32 -83t78 -32q50 0 82.5 31.5t32.5 83.5t-32.5 83.5t-82.5 31.5
q-46 0 -78 -32t-32 -83z" />
    <glyph glyph-name="gcommaaccent.salt" horiz-adv-x="685" 
d="M260 680q0 47 20 85.5t40 54.5l20 15h55q-50 -50 -50 -100q60 -9 60 -70q0 -33 -19.5 -51.5t-50.5 -18.5q-32 0 -53.5 22.5t-21.5 62.5zM445 55v45h-5q-1 -3 -4.5 -9t-16 -20.5t-28.5 -26t-45.5 -20.5t-63.5 -9q-101 0 -171.5 75.5t-70.5 189.5q0 115 71 190t174 75
q35 0 64 -9t45 -21t27 -24.5t15 -21.5l4 -9h5l5 70h170v-475q0 -133 -82.5 -211.5t-227.5 -78.5q-49 0 -94 8.5t-66 17.5l-20 9l-30 165q9 -6 25.5 -14t66 -22t98.5 -14q155 0 155 140zM220 280q0 -51 32 -83t78 -32q50 0 82.5 31.5t32.5 83.5t-32.5 83.5t-82.5 31.5
q-46 0 -78 -32t-32 -83z" />
    <glyph glyph-name="l.salt" horiz-adv-x="345" 
d="M325 145v-140q-30 -20 -90 -20q-81 0 -125.5 51t-44.5 154v570h175v-570q0 -32 10 -43.5t30 -11.5q9 0 16.5 2.5t10.5 4.5l3 3h15z" />
    <glyph glyph-name="lacute.salt" horiz-adv-x="345" 
d="M95 830l55 195h185l-135 -195h-105zM325 145v-140q-30 -20 -90 -20q-81 0 -125.5 51t-44.5 154v570h175v-570q0 -32 10 -43.5t30 -11.5q9 0 16.5 2.5t10.5 4.5l3 3h15z" />
    <glyph glyph-name="lcaron.salt" horiz-adv-x="405" 
d="M325 145v-140q-30 -20 -90 -20q-81 0 -125.5 51t-44.5 154v570h175v-570q0 -32 10 -43.5t30 -11.5q9 0 16.5 2.5t10.5 4.5l3 3h15zM435 715q0 -47 -20 -85.5t-40 -53.5l-20 -16h-55q50 50 50 100q-60 9 -60 70q0 33 19.5 51.5t50.5 18.5q32 0 53.5 -22.5t21.5 -62.5z" />
    <glyph glyph-name="lslash.salt" horiz-adv-x="365" 
d="M85 190v100l-65 -20v150l65 20v320h175v-264l60 19v-150l-60 -19v-156q0 -32 10 -43.5t30 -11.5q9 0 16.5 2.5t10.5 4.5l3 3h15v-140q-30 -20 -90 -20q-81 0 -125.5 51t-44.5 154z" />
    <glyph glyph-name="lcommaaccent.salt" horiz-adv-x="345" 
d="M325 145v-140q-30 -20 -90 -20q-81 0 -125.5 51t-44.5 154v570h175v-570q0 -32 10 -43.5t30 -11.5q9 0 16.5 2.5t10.5 4.5l3 3h15zM255 -140q0 -47 -20 -85.5t-40 -54.5l-20 -15h-55q50 50 50 100q-60 9 -60 70q0 33 19.5 51.5t50.5 18.5q32 0 53.5 -22.5t21.5 -62.5z
" />
    <glyph glyph-name="y.salt" horiz-adv-x="625" 
d="M235 5l-230 525h185l125 -315h5l115 315h185l-215 -525q-60 -147 -103.5 -193.5t-121.5 -46.5l-55 5l-30 155q20 -10 55 -10q30 0 48 19t37 71z" />
    <glyph glyph-name="yacute.salt" horiz-adv-x="625" 
d="M255 590l55 195h185l-135 -195h-105zM235 5l-230 525h185l125 -315h5l115 315h185l-215 -525q-60 -147 -103.5 -193.5t-121.5 -46.5l-55 5l-30 155q20 -10 55 -10q30 0 48 19t37 71z" />
    <glyph glyph-name="ydieresis.salt" horiz-adv-x="625" 
d="M235 5l-230 525h185l125 -315h5l115 315h185l-215 -525q-60 -147 -103.5 -193.5t-121.5 -46.5l-55 5l-30 155q20 -10 55 -10q30 0 48 19t37 71zM115 685q0 40 23.5 62.5t61.5 22.5q40 0 62.5 -22t22.5 -63q0 -40 -23.5 -62.5t-61.5 -22.5t-61.5 22.5t-23.5 62.5zM335 685
q0 40 23.5 62.5t61.5 22.5q40 0 62.5 -22t22.5 -63q0 -40 -23.5 -62.5t-61.5 -22.5t-61.5 22.5t-23.5 62.5z" />
    <glyph glyph-name="afii10085.salt" horiz-adv-x="625" 
d="M235 5l-230 525h185l125 -315h5l115 315h185l-215 -525q-60 -147 -103.5 -193.5t-121.5 -46.5l-55 5l-30 155q20 -10 55 -10q30 0 48 19t37 71z" />
    <glyph glyph-name="afii10110.salt" horiz-adv-x="625" 
d="M235 5l-230 525h185l125 -315h5l115 315h185l-215 -525q-60 -147 -103.5 -193.5t-121.5 -46.5l-55 5l-30 155q20 -10 55 -10q30 0 48 19t37 71zM315 595q-40 0 -76 10t-53 20l-16 10v120q7 -6 20 -15t51 -24.5t74 -15.5t72 14t55 28l18 13v-120q-6 -4 -17.5 -11
t-49.5 -18t-78 -11z" />
    <glyph glyph-name="f_l.salt" horiz-adv-x="785" 
d="M680 780v-590q0 -32 10 -43.5t30 -11.5q9 0 16.5 2.5t10.5 4.5l3 3h15v-140q-30 -20 -90 -20q-81 0 -125.5 51t-44.5 154v440q-31 0 -77 10t-73 10q-35 0 -55 -19t-20 -56v-45h160v-155h-160v-375h-175v375h-85v155h85v60q0 97 54.5 153.5t145.5 56.5q58 0 117 -10
t83 -10h175z" />
    <glyph glyph-name="f_f_l.salt" horiz-adv-x="1185" 
d="M905 190v440q-31 0 -77 10t-73 10q-35 0 -55 -19t-20 -56v-45h160v-155h-160v-375h-175v375h-225v-375h-175v375h-85v155h85v40q0 97 54.5 153.5t145.5 56.5q44 0 84 -14t58 -28l18 -13l-50 -120q-15 25 -60 25q-35 0 -55 -19t-20 -56v-25h225v60q0 97 54.5 153.5
t145.5 56.5q58 0 117 -10t83 -10h175v-590q0 -32 10 -43.5t30 -11.5q9 0 16.5 2.5t10.5 4.5l3 3h15v-140q-30 -20 -90 -20q-81 0 -125.5 51t-44.5 154z" />
    </font>
</defs>
</svg>
