<?xml version="1.0" standalone="no"?>
<!DOCTYPE svg PUBLIC "-//W3C//DTD SVG 1.1//EN" "http://www.w3.org/Graphics/SVG/1.1/DTD/svg11.dtd" >
<svg xmlns="http://www.w3.org/2000/svg" xmlns:xlink="http://www.w3.org/1999/xlink" version="1.1">
<metadata>
Created by FontForge 20170731 at Wed Dec  6 20:29:54 2017
 By Aleksey,,,
Copyright (c) 2018 by TypeType. Designer Ivan Gladkikh, technical designers Philipp Nurullin, Nadyr Rakhimov, Olexa Volochay, Vika Usmanova. All rights reserved.
</metadata>
<defs>
<font id="TTWellingtons-Medium" horiz-adv-x="570" >
  <font-face 
    font-family="TT Wellingtons Light"
    font-weight="500"
    font-stretch="normal"
    units-per-em="1000"
    panose-1="2 0 8 3 0 0 0 2 0 4"
    ascent="800"
    descent="-200"
    x-height="520"
    cap-height="730"
    bbox="-210 -280 1438 1020"
    underline-thickness="50"
    underline-position="-250"
    unicode-range="U+000D-FB14"
  />
<missing-glyph horiz-adv-x="600" 
d="M100 730h400v-730h-400v730zM440 40l-140 280l-140 -280h280zM300 410l140 280h-280zM320 365l140 -280v560zM280 365l-140 280v-560z" />
    <glyph glyph-name="f_f" unicode="ff" horiz-adv-x="755" 
d="M475 520v95q0 81 43 128t112 47q36 0 67 -12.5t45 -25.5l13 -12l-30 -65q-3 4 -8.5 10t-26.5 15.5t-45 9.5q-85 0 -85 -95v-95h165v-80h-165v-440h-85v440h-260v-440h-85v440h-100v80h100v75q0 81 43 128t112 47q36 0 67 -12.5t44 -25.5l14 -12l-30 -65q-3 4 -8.5 10
t-26.5 15.5t-45 9.5q-85 0 -85 -95v-75h260z" />
    <glyph glyph-name="f_i" unicode="fi" horiz-adv-x="640" 
d="M130 520v95q0 81 43 128t112 47q36 0 67 -12.5t44 -25.5l14 -12l-30 -65q-35 35 -80 35q-85 0 -85 -95v-95h295l45 5v-525h-85v440h-255v-440h-85v440h-100v80h100zM570 700q0 -25 -16 -40t-39 -15t-39 15t-16 40t16 40t39 15t39 -15t16 -40z" />
    <glyph glyph-name="f_l" unicode="fl" horiz-adv-x="635" 
d="M555 770v-770h-85v690q-36 0 -89.5 10t-85.5 10q-80 0 -80 -95v-95h165v-80h-165v-440h-85v440h-100v80h100v95q0 81 43 128t112 47q38 0 94.5 -10t90.5 -10h85z" />
    <glyph glyph-name="f_f_i" unicode="ffi" horiz-adv-x="985" 
d="M130 520v75q0 81 43.5 128t111.5 47q36 0 67 -12.5t44 -25.5l14 -12l-30 -65q-3 4 -8.5 10t-26.5 15.5t-45 9.5q-85 0 -85 -95v-75h255v95q0 81 43 128t112 47q36 0 67 -12.5t44 -25.5l14 -12l-30 -65q-3 4 -8.5 10t-26.5 15.5t-45 9.5q-85 0 -85 -95v-95h300l45 5v-525
h-85v440h-260v-440h-85v440h-255v-440h-85v440h-100v80h100zM915 700q0 -25 -16 -40t-39 -15t-39 15t-16 40t16 40t39 15t39 -15t16 -40z" />
    <glyph glyph-name="f_f_l" unicode="ffl" horiz-adv-x="975" 
d="M130 520v75q0 81 43 128t112 47q36 0 67 -12.5t44 -25.5l14 -12l-30 -65q-35 35 -80 35q-85 0 -85 -95v-75h255v95q0 81 43 128t112 47q38 0 94.5 -10t90.5 -10h85v-770h-85v690q-36 0 -89.5 10t-85.5 10q-80 0 -80 -95v-95h165v-80h-165v-440h-85v440h-255v-440h-85v440
h-100v80h100z" />
    <glyph glyph-name="f_f_b" unicode="ffb" horiz-adv-x="1375" 
d="M1320 270q0 -128 -79.5 -206.5t-210.5 -78.5q-53 0 -108 10t-84 20l-28 10v665q-36 0 -89.5 10t-85.5 10q-80 0 -80 -95v-95h165v-80h-165v-440h-85v440h-255v-440h-85v440h-100v80h100v75q0 81 43 128t112 47q36 0 67 -12.5t44 -25.5l14 -12l-30 -65q-3 4 -8.5 10
t-26.5 15.5t-45 9.5q-85 0 -85 -95v-75h255v95q0 81 43 128t112 47q38 0 94.5 -10t90.5 -10h85v-320h5q2 3 5.5 9t17.5 20.5t32 26t50 20.5t70 9q106 0 175.5 -73.5t69.5 -191.5zM895 325v-235q50 -25 140 -25t145 56t55 149q0 85 -47 135t-123 50q-36 0 -67 -13.5
t-49 -32.5t-31 -38t-18 -33z" />
    <glyph glyph-name="f_f_f" unicode="fff" horiz-adv-x="1090" 
d="M810 520v75q0 81 43 128t112 47q36 0 67 -12.5t44 -25.5l14 -12l-30 -65q-3 4 -8.5 10t-26.5 15.5t-45 9.5q-85 0 -85 -95v-75h165v-80h-165v-440h-85v440h-255v-440h-85v440h-255v-440h-85v440h-100v80h100v75q0 81 43 128t112 47q36 0 67 -12.5t44 -25.5l14 -12
l-30 -65q-3 4 -8.5 10t-26.5 15.5t-45 9.5q-85 0 -85 -95v-75h255v95q0 81 43 128t112 47q36 0 67 -12.5t44 -25.5l14 -12l-30 -65q-3 4 -8.5 10t-26.5 15.5t-45 9.5q-85 0 -85 -95v-95h255z" />
    <glyph glyph-name="f_f_h" unicode="ffh" horiz-adv-x="1360" 
d="M130 520v75q0 81 43 128t112 47q36 0 67 -12.5t44 -25.5l14 -12l-30 -65q-35 35 -80 35q-85 0 -85 -95v-75h255v95q0 81 43 128t112 47q38 0 94.5 -10t90.5 -10h85v-335h5q2 4 6 11t19.5 24t34 30t49.5 24t66 11q98 0 154 -57t56 -158v-320h-85v320q0 135 -135 135
q-71 0 -120.5 -49.5t-49.5 -120.5v-285h-85v690q-36 0 -89.5 10t-85.5 10q-80 0 -80 -95v-95h165v-80h-165v-440h-85v440h-255v-440h-85v440h-100v80h100z" />
    <glyph glyph-name="f_f_j" unicode="ffj" horiz-adv-x="985" 
d="M815 -20v460h-260v-440h-85v440h-255v-440h-85v440h-100v80h100v75q0 81 43 128t112 47q36 0 67 -12.5t44 -25.5l14 -12l-30 -65q-35 35 -80 35q-85 0 -85 -95v-75h255v95q0 81 43 128t112 47q36 0 67 -12.5t44 -25.5l14 -12l-30 -65q-3 4 -8.5 10t-26.5 15.5t-45 9.5
q-85 0 -85 -95v-95h300l45 5v-545q0 -92 -44.5 -142t-125.5 -58l-15 80q54 8 77 34.5t23 85.5zM915 700q0 -25 -16 -40t-39 -15t-39 15t-16 40t16 40t39 15t39 -15t16 -40z" />
    <glyph glyph-name="f_f_k" unicode="ffk" horiz-adv-x="1285" 
d="M1175 0l-190 230l-90 -90v-140h-85v690q-36 0 -89.5 10t-85.5 10q-80 0 -80 -95v-95h165v-80h-165v-440h-85v440h-255v-440h-85v440h-100v80h100v75q0 81 43 128t112 47q36 0 67 -12.5t44 -25.5l14 -12l-30 -65q-35 35 -80 35q-85 0 -85 -95v-75h255v95q0 81 43 128
t112 47q38 0 94.5 -10t90.5 -10h85v-520l265 270h110l-225 -225l240 -295h-110z" />
    <glyph glyph-name="f_h" unicode="fh" horiz-adv-x="1020" 
d="M945 0h-85v320q0 135 -135 135q-71 0 -120.5 -49.5t-49.5 -120.5v-285h-85v690q-36 0 -89.5 10t-85.5 10q-80 0 -80 -95v-95h165v-80h-165v-440h-85v440h-100v80h100v95q0 81 43 128t112 47q38 0 94.5 -10t90.5 -10h85v-335h5q2 4 6 11t19.5 24t34 30t49.5 24t66 11
q98 0 154 -57t56 -158v-320z" />
    <glyph glyph-name="f_j" unicode="fj" horiz-adv-x="640" 
d="M130 520v95q0 81 43 128t112 47q36 0 67 -12.5t44 -25.5l14 -12l-30 -65q-3 4 -8.5 10t-26.5 15.5t-45 9.5q-85 0 -85 -95v-95h295l45 5v-545q0 -92 -44.5 -142t-125.5 -58l-15 80q54 8 77 34.5t23 85.5v460h-255v-440h-85v440h-100v80h100zM570 700q0 -25 -16 -40
t-39 -15t-39 15t-16 40t16 40t39 15t39 -15t16 -40z" />
    <glyph glyph-name="f_k" unicode="fk" horiz-adv-x="945" 
d="M835 0l-190 230l-90 -90v-140h-85v690q-36 0 -89.5 10t-85.5 10q-80 0 -80 -95v-95h165v-80h-165v-440h-85v440h-100v80h100v95q0 81 43 128t112 47q38 0 94.5 -10t90.5 -10h85v-520l265 270h110l-225 -225l240 -295h-110z" />
    <glyph glyph-name="f_t" unicode="ft" horiz-adv-x="770" 
d="M130 520v95q0 81 43 128t112 47q36 0 67 -12.5t44 -25.5l14 -12l-30 -65q-3 4 -8.5 10t-26.5 15.5t-45 9.5q-85 0 -85 -95v-95h190l135 155h5v-155h165v-80h-165v-280q0 -95 80 -95q24 0 46.5 10t32.5 20l11 10h15v-75q-5 -5 -14.5 -12.5t-39.5 -20t-61 -12.5
q-69 0 -112 47t-43 128v280h-245v-440h-85v440h-100v80h100z" />
    <glyph glyph-name="f_b" unicode="fb" horiz-adv-x="1035" 
d="M980 270q0 -128 -79.5 -206.5t-210.5 -78.5q-53 0 -108 10t-84 20l-28 10v665q-36 0 -89.5 10t-85.5 10q-80 0 -80 -95v-95h165v-80h-165v-440h-85v440h-100v80h100v95q0 81 43 128t112 47q38 0 94.5 -10t90.5 -10h85v-320h5q2 3 5.5 9t17.5 20.5t32 26t50 20.5t70 9
q106 0 175.5 -73.5t69.5 -191.5zM555 325v-235q50 -25 140 -25t145 56t55 149q0 85 -47 135t-123 50q-36 0 -67 -13.5t-49 -32.5t-31 -38t-18 -33z" />
    <glyph glyph-name=".notdef" horiz-adv-x="600" 
d="M100 730h400v-730h-400v730zM440 40l-140 280l-140 -280h280zM300 410l140 280h-280zM320 365l140 -280v560zM280 365l-140 280v-560z" />
    <glyph glyph-name=".null" horiz-adv-x="0" 
 />
    <glyph glyph-name=".null" horiz-adv-x="0" 
 />
    <glyph glyph-name="nonmarkingreturn" horiz-adv-x="333" 
 />
    <glyph glyph-name="CR" unicode="&#xd;" horiz-adv-x="0" 
 />
    <glyph glyph-name="space" unicode=" " horiz-adv-x="260" 
 />
    <glyph glyph-name="exclam" unicode="!" horiz-adv-x="280" 
d="M185 545l-20 -355h-50l-20 355v255h90v-255zM85 45q0 25 16 40t39 15t39 -15t16 -40t-16 -40t-39 -15t-39 15t-16 40z" />
    <glyph glyph-name="quotedbl" unicode="&#x22;" horiz-adv-x="400" 
d="M85 530l-15 190v80h90v-80l-15 -190h-60zM255 530l-15 190v80h90v-80l-15 -190h-60z" />
    <glyph glyph-name="numbersign" unicode="#" horiz-adv-x="725" 
d="M370 0l40 190h-165l-40 -190h-85l40 190h-120v75h135l40 200h-135v75h150l40 190h85l-40 -190h165l40 190h85l-40 -190h120v-75h-135l-40 -200h135v-75h-150l-40 -190h-85zM300 465l-40 -200h165l40 200h-165z" />
    <glyph glyph-name="dollar" unicode="$" 
d="M250 -95v80q-35 3 -69.5 14t-59 25.5t-43.5 28t-28 23.5l-10 9l35 75q2 -3 7 -8t21.5 -19t35 -25t49 -22.5t62.5 -15.5v280q-8 3 -20 8.5t-44 25.5t-56.5 43t-44.5 60t-20 78q0 33 10 60.5t26.5 45.5t36 32t39.5 21.5t36.5 12.5t26.5 7l10 1v80h90v-85q42 -7 79.5 -24.5
t54.5 -31.5l16 -14l-35 -75q-35 35 -115 60v-250q7 -3 19.5 -8t43.5 -24t54.5 -40.5t43 -57.5t19.5 -75q0 -52 -18.5 -92.5t-45 -61.5t-53 -35t-45.5 -17l-18 -4v-85h-90zM425 190q0 33 -21.5 62t-42.5 41l-21 12v-230l9 3t20.5 10.5t26 20t20.5 33t9 48.5zM160 560
q0 -31 22.5 -58.5t45.5 -39.5l22 -12v206l-5 -1q-5 -1 -13 -3t-17.5 -6t-19 -11t-17.5 -16.5t-13 -25t-5 -33.5z" />
    <glyph glyph-name="percent" unicode="%" horiz-adv-x="850" 
d="M370 580q0 -71 -47 -118t-118 -47t-118 47t-47 118t47 118t118 47t118 -47t47 -118zM290 580q0 41 -23.5 65.5t-61.5 24.5t-61.5 -24.5t-23.5 -65.5t23.5 -65.5t61.5 -24.5t61.5 24.5t23.5 65.5zM235 0h-95l475 730h95zM810 150q0 -71 -47 -118t-118 -47t-118 47t-47 118
t47 118t118 47t118 -47t47 -118zM730 150q0 41 -23.5 65.5t-61.5 24.5t-61.5 -24.5t-23.5 -65.5t23.5 -65.5t61.5 -24.5t61.5 24.5t23.5 65.5z" />
    <glyph glyph-name="ampersand" unicode="&#x26;" horiz-adv-x="705" 
d="M570 155l165 -155h-125l-105 100q-4 -5 -11.5 -12.5t-33.5 -27.5t-54.5 -35t-72 -27.5t-88.5 -12.5q-96 0 -153 52.5t-57 132.5q0 42 17 80t41.5 62.5t48.5 43t41 26.5l17 8l-8.5 8.5t-19.5 23.5t-24.5 36.5t-19 45t-8.5 51.5q0 86 52 138t138 52q74 0 122 -47t48 -118
q0 -34 -15.5 -66t-37.5 -54.5t-44 -40t-37 -25.5l-16 -9l180 -170l170 145v-105zM445 155l-195 185q-5 -3 -13.5 -8t-30 -21t-38 -33.5t-30 -44t-13.5 -53.5q0 -50 33 -80t92 -30q32 0 64 9t54.5 21t40.5 24.5t27 21.5zM395 575q0 37 -23.5 61t-61.5 24q-45 0 -72.5 -27.5
t-27.5 -72.5q0 -29 17.5 -60t34.5 -48l18 -17q5 2 12.5 6.5t27.5 19.5t35 30.5t27.5 38.5t12.5 45z" />
    <glyph glyph-name="quotesingle" unicode="'" horiz-adv-x="230" 
d="M85 530l-15 190v80h90v-80l-15 -190h-60z" />
    <glyph glyph-name="parenleft" unicode="(" horiz-adv-x="345" 
d="M155 290q0 -83 16.5 -165.5t40 -142t47 -107t39.5 -71.5l17 -24h-70q-7 9 -19 25t-42 69t-53 109t-42 140t-19 167t18 165.5t43.5 142t51.5 107t44 71.5l18 24h70q-7 -9 -17.5 -25t-38 -69t-48.5 -109t-38.5 -140t-17.5 -167z" />
    <glyph glyph-name="parenright" unicode=")" horiz-adv-x="345" 
d="M190 290q0 83 -16.5 165.5t-40 142t-47 107t-40.5 71.5l-16 24h70q7 -9 19 -25t42 -69t53 -109t42 -140t19 -167t-18 -165.5t-43.5 -142t-51.5 -107t-44 -71.5l-18 -24h-70q7 9 17.5 25t38 69t48.5 109t38.5 140t17.5 167z" />
    <glyph glyph-name="asterisk" unicode="*" horiz-adv-x="440" 
d="M220 525l-85 -105l-55 45l85 100l-125 50l25 60l120 -45v120h70v-120l120 45l25 -60l-125 -50l85 -100l-55 -45z" />
    <glyph glyph-name="plus" unicode="+" horiz-adv-x="525" 
d="M485 365v-80h-180v-180h-85v180h-180v80h180v180h85v-180h180z" />
    <glyph glyph-name="comma" unicode="," horiz-adv-x="180" 
d="M35 45q0 25 16 40t39 15q24 0 39.5 -15.5t15.5 -44.5q0 -49 -20 -92.5t-40 -63.5l-20 -19h-30q6 7 15 19.5t24.5 45.5t15.5 60q-23 0 -39 15t-16 40z" />
    <glyph glyph-name="hyphen" unicode="-" horiz-adv-x="390" 
d="M35 285v80h320v-80h-320z" />
    <glyph glyph-name="period" unicode="." horiz-adv-x="180" 
d="M145 45q0 -25 -16 -40t-39 -15t-39 15t-16 40t16 40t39 15t39 -15t16 -40z" />
    <glyph glyph-name="slash" unicode="/" horiz-adv-x="480" 
d="M0 -220l390 1020h90l-390 -1020h-90z" />
    <glyph glyph-name="zero" unicode="0" horiz-adv-x="660" 
d="M140 260q0 -82 54 -136t136 -54t136 54t54 136t-54 136t-136 54t-136 -54t-54 -136zM50 260q0 120 78.5 197.5t201.5 77.5t201.5 -77.5t78.5 -197.5t-78.5 -197.5t-201.5 -77.5t-201.5 77.5t-78.5 197.5z" />
    <glyph glyph-name="one" unicode="1" horiz-adv-x="340" 
d="M35 330v95l165 95h60v-520h-90v410z" />
    <glyph glyph-name="two" unicode="2" horiz-adv-x="505" 
d="M20 10l260 240q8 6 19.5 17t31 41t19.5 57q0 85 -105 85q-28 0 -56.5 -10.5t-49 -25t-36.5 -29t-25 -25.5l-8 -10h-15v100l9 9t26 20.5t41 26t52 20.5t62 9q92 0 143.5 -46t51.5 -119q0 -25 -11 -53t-26 -49.5t-30.5 -39.5t-26.5 -28l-11 -10l-115 -105h235v-85h-435v10z
" />
    <glyph glyph-name="three" unicode="3" horiz-adv-x="520" 
d="M230 150q-29 0 -52.5 -6t-33.5 -12l-9 -7l-50 70l215 245h-250v80h415v-10l-235 -270v-5q118 0 189 -65t71 -165t-71 -165t-189 -65q-58 0 -111.5 21.5t-78.5 42.5l-25 21l35 75l8 -8t22.5 -18t36.5 -23t50 -18t63 -8q81 0 125.5 40t44.5 105t-44.5 105t-125.5 40z" />
    <glyph glyph-name="four" unicode="4" 
d="M555 85v-85h-110v-210h-90v210h-340v10l285 510h95l-245 -435h205v195h90v-195h110z" />
    <glyph glyph-name="five" unicode="5" horiz-adv-x="565" 
d="M430 20q0 72 -46 116t-124 44q-38 0 -71.5 -15t-48.5 -30l-15 -15l-55 30l55 370h370v-85h-295l-30 -195q40 25 100 25q108 0 179 -70t71 -175q0 -106 -72.5 -175.5t-187.5 -69.5q-58 0 -113 21.5t-81 42.5l-26 21l35 75q8 -8 22.5 -20.5t63 -33.5t99.5 -21q78 0 124 44
t46 116z" />
    <glyph glyph-name="six" unicode="6" horiz-adv-x="600" 
d="M305 730h116q-8 -7 -21 -18.5t-49.5 -48.5t-67 -74t-63.5 -89t-50 -100h5q5 6 15 15t46.5 24.5t78.5 15.5q105 0 172.5 -66.5t67.5 -168.5t-69.5 -168.5t-180.5 -66.5q-114 0 -182 71t-68 194q0 71 25.5 147t62.5 133t74 104t63 72zM305 375q-75 0 -117.5 -41.5
t-42.5 -113.5t42.5 -113.5t117.5 -41.5t117.5 41.5t42.5 113.5t-42.5 113.5t-117.5 41.5z" />
    <glyph glyph-name="seven" unicode="7" horiz-adv-x="520" 
d="M220 -210h-95l245 645h-340v85h460v-10z" />
    <glyph glyph-name="eight" unicode="8" horiz-adv-x="620" 
d="M310 350q-81 0 -123 -37.5t-42 -102.5t42 -102.5t123 -37.5t123 37.5t42 102.5t-42 102.5t-123 37.5zM310 660q-63 0 -96.5 -31t-33.5 -84t33.5 -84t96.5 -31t96.5 31t33.5 84t-33.5 84t-96.5 31zM310 -15q-117 0 -186 62t-69 158q0 41 13.5 75t32.5 53.5t38 33t33 18.5
l13 5v5q-4 2 -10.5 5t-22.5 16.5t-28.5 29.5t-23 44t-10.5 60q0 84 60.5 139.5t159.5 55.5t159.5 -55.5t60.5 -139.5q0 -32 -10 -60t-24 -44.5t-27.5 -28.5t-23.5 -17l-10 -5v-5q5 -2 14 -5.5t31.5 -18t39.5 -33.5t31 -53t14 -75q0 -96 -69 -158t-186 -62z" />
    <glyph glyph-name="nine" unicode="9" horiz-adv-x="600" 
d="M295 -210h-116q8 6 21 17.5t49.5 48t67 73t63.5 89.5t50 102h-5q-5 -6 -15 -15t-46.5 -24.5t-78.5 -15.5q-105 0 -172.5 66.5t-67.5 168.5t69.5 168.5t180.5 66.5q114 0 182 -71t68 -194q0 -71 -25.5 -147t-62.5 -133t-74 -104t-63 -72zM295 145q75 0 117.5 41.5
t42.5 113.5t-42.5 113.5t-117.5 41.5t-117.5 -41.5t-42.5 -113.5q0 -71 43 -113t117 -42z" />
    <glyph glyph-name="colon" unicode=":" horiz-adv-x="190" 
d="M150 45q0 -25 -16 -40t-39 -15t-39 15t-16 40t16 40t39 15t39 -15t16 -40zM150 485q0 -25 -16 -40t-39 -15t-39 15t-16 40t16 40t39 15t39 -15t16 -40z" />
    <glyph glyph-name="semicolon" unicode=";" horiz-adv-x="190" 
d="M40 45q0 25 16 40t39 15q24 0 39.5 -15.5t15.5 -44.5q0 -49 -20 -92.5t-40 -63.5l-20 -19h-30q6 7 15 19.5t24.5 45.5t15.5 60q-23 0 -39 15t-16 40zM150 485q0 -25 -16 -40t-39 -15t-39 15t-16 40t16 40t39 15t39 -15t16 -40z" />
    <glyph glyph-name="less" unicode="&#x3c;" horiz-adv-x="525" 
d="M175 260l305 -170v-90l-450 255v20l450 255v-90l-305 -170v-10z" />
    <glyph glyph-name="equal" unicode="=" horiz-adv-x="525" 
d="M50 180v80h425v-80h-425zM50 390v80h425v-80h-425z" />
    <glyph glyph-name="greater" unicode="&#x3e;" horiz-adv-x="525" 
d="M350 270l-305 170v90l450 -255v-20l-450 -255v90l305 170v10z" />
    <glyph glyph-name="question" unicode="?" horiz-adv-x="485" 
d="M45 570v100l8 8t22.5 18t37.5 23t51.5 18t65.5 8q96 0 153 -53t57 -137q0 -39 -20 -77t-49 -70t-57.5 -64t-48.5 -69.5t-20 -74.5h-85q0 43 19 85t46 76t54.5 66.5t46.5 67t19 65.5q0 46 -30 73t-85 27q-31 0 -59.5 -9.5t-48 -22.5t-34 -26t-21.5 -22l-7 -10h-15zM150 45
q0 25 16 40t39 15t39 -15t16 -40t-16 -40t-39 -15t-39 15t-16 40z" />
    <glyph glyph-name="at" unicode="@" horiz-adv-x="990" 
d="M935 345q0 -115 -48 -175t-127 -60q-32 0 -58.5 8t-41 20t-24 24t-12.5 20l-4 8h-5q-2 -3 -5 -8.5t-16 -19.5t-28.5 -24.5t-42.5 -19t-58 -8.5q-84 0 -134.5 54.5t-50.5 150.5t50.5 150.5t134.5 54.5q44 0 79 -19t48 -37l13 -19l10 65h75v-240q0 -80 70 -80q85 0 85 155
q0 137 -95 226t-250 89q-150 0 -247.5 -97.5t-97.5 -247.5t97.5 -247.5t247.5 -97.5q67 0 123 16.5t79 32.5l23 16v-100q-8 -6 -25 -14t-75 -22t-125 -14q-187 0 -311 123t-124 307t124 307t311 123q192 0 313.5 -114.5t121.5 -285.5zM485 190q53 0 86.5 34.5t33.5 90.5
t-33.5 90.5t-86.5 34.5t-86.5 -34.5t-33.5 -90.5t33.5 -90.5t86.5 -34.5z" />
    <glyph glyph-name="A" unicode="A" horiz-adv-x="755" 
d="M530 285l-150 330h-5l-150 -330h305zM570 200h-385l-90 -200h-95l335 730h85l335 -730h-95z" />
    <glyph glyph-name="B" unicode="B" horiz-adv-x="640" 
d="M305 730q117 0 178.5 -53t61.5 -142q0 -35 -10.5 -63.5t-25 -44t-29 -25.5t-24.5 -14l-11 -3v-5q5 -1 14.5 -4t32.5 -16t41 -30.5t32.5 -50.5t14.5 -74q0 -93 -65 -149t-185 -56h-230v730h205zM190 335v-250h140q77 0 116 33.5t39 91.5t-39 91.5t-116 33.5h-140zM305 645
h-115v-230h115q73 0 109 30.5t36 84.5t-36 84.5t-109 30.5z" />
    <glyph glyph-name="C" unicode="C" horiz-adv-x="740" 
d="M150 365q0 -131 81 -213t209 -82q42 0 80.5 12.5t64 30t44.5 35t27 30.5l9 12h15v-100q-3 -4 -9 -11t-28.5 -25.5t-49 -32t-70.5 -25t-93 -11.5q-158 0 -266.5 109.5t-108.5 270.5t108.5 270.5t266.5 109.5q52 0 97.5 -11t74 -26.5t49.5 -30.5t30 -26l9 -11l-35 -75
q-3 4 -8 10.5t-24.5 22.5t-42 28.5t-60.5 23t-80 10.5q-128 0 -209 -82t-81 -213z" />
    <glyph glyph-name="D" unicode="D" horiz-adv-x="745" 
d="M310 730q164 0 272 -105t108 -260t-108 -260t-272 -105h-210v730h210zM310 645h-120v-560h120q127 0 206 78t79 202t-79 202t-206 78z" />
    <glyph glyph-name="E" unicode="E" horiz-adv-x="615" 
d="M100 0v730h450v-85h-360v-230h285v-85h-285v-245h360v-85h-450z" />
    <glyph glyph-name="F" unicode="F" horiz-adv-x="590" 
d="M475 310h-285v-310h-90v730h450v-85h-360v-250h285v-85z" />
    <glyph glyph-name="G" unicode="G" horiz-adv-x="800" 
d="M430 745q52 0 97.5 -11t74 -26.5t49.5 -30.5t30 -26l9 -11l-35 -75q-3 4 -8 10.5t-24.5 22.5t-42 28.5t-60.5 23t-80 10.5q-128 0 -209 -82t-81 -213t81 -213t209 -82q35 0 68.5 8t56.5 20t40.5 24t26.5 20l8 8v160h-245l25 85h310v-270q-4 -6 -11.5 -15.5t-35 -33.5
t-59.5 -42.5t-84.5 -33.5t-109.5 -15q-158 0 -266.5 109.5t-108.5 270.5t108.5 270.5t266.5 109.5z" />
    <glyph glyph-name="H" unicode="H" horiz-adv-x="770" 
d="M670 730v-730h-90v330h-390v-330h-90v730h90v-315h390v315h90z" />
    <glyph glyph-name="I" unicode="I" horiz-adv-x="290" 
d="M190 730v-730h-90v730h90z" />
    <glyph glyph-name="J" unicode="J" horiz-adv-x="305" 
d="M115 35v695h90v-695q0 -182 -190 -205l-15 85q61 8 88 34.5t27 85.5z" />
    <glyph glyph-name="K" unicode="K" horiz-adv-x="680" 
d="M565 0l-275 343l-100 -105v-238h-90v730h90v-370l350 370h115l-303 -321l328 -409h-115z" />
    <glyph glyph-name="L" unicode="L" horiz-adv-x="535" 
d="M190 730v-645h325v-85h-415v730h90z" />
    <glyph glyph-name="M" unicode="M" horiz-adv-x="966" 
d="M445 0l-190 545h-5l-90 -545h-95l125 730h85l205 -595h5l206 595h85l125 -730h-95l-90 545h-5l-191 -545h-75z" />
    <glyph glyph-name="N" unicode="N" horiz-adv-x="790" 
d="M690 730v-730h-85l-415 575v-575h-90v730h85l415 -575v575h90z" />
    <glyph glyph-name="O" unicode="O" horiz-adv-x="870" 
d="M150 365q0 -131 80.5 -213t204.5 -82t204.5 82t80.5 213t-80.5 213t-204.5 82t-204.5 -82t-80.5 -213zM815 365q0 -161 -109.5 -270.5t-270.5 -109.5t-270.5 109.5t-109.5 270.5t109.5 270.5t270.5 109.5t270.5 -109.5t109.5 -270.5z" />
    <glyph glyph-name="P" unicode="P" horiz-adv-x="635" 
d="M190 250v-250h-90v730h215q122 0 191 -65t69 -175t-69 -175t-191 -65h-125zM190 645v-310h125q78 0 121.5 41.5t43.5 113.5t-43.5 113.5t-121.5 41.5h-125z" />
    <glyph glyph-name="Q" unicode="Q" horiz-adv-x="870" 
d="M55 365q0 161 109.5 270.5t270.5 109.5t270.5 -109.5t109.5 -270.5q0 -59 -15.5 -112t-37.5 -86.5t-44 -59t-38 -36.5l-15 -11q1 -3 4 -9t12.5 -20.5t20 -26t28 -20.5t35.5 -9q16 0 29.5 5t19.5 10l6 5h15v-75q-25 -30 -90 -30q-31 0 -59 13t-46.5 31t-32.5 36.5
t-21 31.5l-6 13q-55 -30 -145 -30q-161 0 -270.5 109.5t-109.5 270.5zM150 365q0 -50 13 -94.5t31 -71.5t36.5 -47t31.5 -28l13 -9q1 7 4 17.5t16 38t30.5 48.5t50.5 38.5t74 17.5q32 0 62 -14t49.5 -33.5t34.5 -39.5t22 -34l7 -14q4 3 10.5 8t22.5 25t28.5 43.5t23 63.5
t10.5 85q0 131 -80.5 213t-204.5 82t-204.5 -82t-80.5 -213zM435 70q29 0 55 5t38 10l12 5q-2 4 -5 11t-13.5 25.5t-22.5 32t-30.5 25t-38.5 11.5q-42 0 -69.5 -26.5t-34.5 -52.5l-6 -26q50 -20 115 -20z" />
    <glyph glyph-name="R" unicode="R" horiz-adv-x="650" 
d="M190 645v-300h125q74 0 117 41t43 109t-43 109t-117 41h-125zM420 280l195 -280h-110l-180 265h-135v-265h-90v730h215q119 0 187 -64.5t68 -170.5q0 -48 -15.5 -87t-37.5 -61t-44 -37t-37 -20l-16 -5v-5z" />
    <glyph glyph-name="S" unicode="S" horiz-adv-x="560" 
d="M285 745q38 0 73 -7.5t58 -18.5t40.5 -22.5t25.5 -18.5l8 -8l-35 -75q-7 7 -21 18t-58 29t-91 18q-62 0 -93.5 -26.5t-31.5 -73.5q0 -34 26.5 -62.5t66.5 -47.5t87 -43.5t87 -49.5t66.5 -66t26.5 -91q0 -95 -64.5 -155t-175.5 -60q-43 0 -84 10.5t-68 25t-48 29t-30 24.5
l-10 11l35 75q3 -4 8.5 -10t25 -21.5t41 -27.5t57 -21.5t73.5 -9.5q69 0 107 33t38 87q0 45 -37 79t-90 59t-106 52.5t-90 74t-37 110.5q0 78 59 129t161 51z" />
    <glyph glyph-name="T" unicode="T" horiz-adv-x="610" 
d="M30 730h550v-85h-230v-645h-90v645h-230v85z" />
    <glyph glyph-name="U" unicode="U" horiz-adv-x="750" 
d="M90 730h90v-465q0 -90 52.5 -142.5t142.5 -52.5t142.5 52.5t52.5 142.5v465h90v-465q0 -128 -77 -204t-208 -76t-208 76t-77 204v465z" />
    <glyph glyph-name="V" unicode="V" horiz-adv-x="745" 
d="M725 730l-310 -730h-85l-310 730h95l255 -605h5l255 605h95z" />
    <glyph glyph-name="W" unicode="W" horiz-adv-x="1065" 
d="M540 730l200 -605h5l205 605h95l-255 -730h-95l-160 485h-5l-160 -485h-95l-255 730h95l205 -605h5l200 605h15z" />
    <glyph glyph-name="X" unicode="X" horiz-adv-x="690" 
d="M345 310l-220 -310h-105l265 375l-250 355h105l205 -290l205 290h105l-250 -355l265 -375h-105z" />
    <glyph glyph-name="Y" unicode="Y" horiz-adv-x="670" 
d="M380 295v-295h-90v295l-280 435h105l220 -350l220 350h105z" />
    <glyph glyph-name="Z" unicode="Z" horiz-adv-x="640" 
d="M40 60l415 585h-395v85h520v-60l-415 -585h425v-85h-550v60z" />
    <glyph glyph-name="bracketleft" unicode="[" horiz-adv-x="400" 
d="M100 -215v1015h260v-85h-170v-845h170v-85h-260z" />
    <glyph glyph-name="backslash" unicode="\" horiz-adv-x="480" 
d="M90 800l390 -1020h-90l-390 1020h90z" />
    <glyph glyph-name="bracketright" unicode="]" horiz-adv-x="400" 
d="M300 800v-1015h-260v85h170v845h-170v85h260z" />
    <glyph glyph-name="asciicircum" unicode="^" horiz-adv-x="530" 
d="M30 380l225 350h20l225 -350h-90l-140 220h-10l-140 -220h-90z" />
    <glyph glyph-name="underscore" unicode="_" horiz-adv-x="400" 
d="M-30 -150v80h460v-80h-460z" />
    <glyph glyph-name="grave" unicode="`" horiz-adv-x="240" 
d="M130 770l80 -180h-60l-120 180h100z" />
    <glyph glyph-name="a" unicode="a" 
d="M235 65q36 0 67.5 13t50.5 31.5t32.5 36.5t18.5 31l6 13q-7 4 -19.5 11t-53 18t-82.5 11q-115 0 -115 -85q0 -38 25 -59t70 -21zM285 535q97 0 153.5 -55.5t56.5 -149.5v-330h-80l-5 85h-5l-5.5 -11t-18.5 -24t-33 -30t-49.5 -24t-67.5 -11q-79 0 -127.5 44.5
t-48.5 115.5q0 75 49.5 120t135.5 45q49 0 91.5 -10t60.5 -20l18 -10v60q0 125 -135 125q-32 0 -63.5 -7.5t-53.5 -18.5t-39 -22.5t-25 -18.5l-9 -8h-15v85q10 8 27.5 19.5t73.5 31t114 19.5z" />
    <glyph glyph-name="b" unicode="b" horiz-adv-x="645" 
d="M165 325v-235q50 -25 140 -25t145 56t55 149q0 85 -47 135t-123 50q-36 0 -67 -13.5t-49 -32.5t-31 -38t-18 -33zM590 270q0 -128 -79.5 -206.5t-210.5 -78.5q-53 0 -108 10t-84 20l-28 10v735h85v-310h5q2 3 5.5 9t17.5 20.5t32 26t50 20.5t70 9q106 0 175.5 -73.5
t69.5 -191.5z" />
    <glyph glyph-name="c" unicode="c" horiz-adv-x="565" 
d="M135 260q0 -86 54.5 -140.5t140.5 -54.5q44 0 83 16.5t55 32.5l17 16h15v-85l-6.5 -6.5t-21 -14.5t-35.5 -18t-50.5 -14.5t-66.5 -6.5q-117 0 -193.5 77.5t-76.5 197.5t76.5 197.5t193.5 77.5q62 0 112 -17.5t69 -35.5l19 -17l-35 -70l-6.5 6.5t-19.5 14.5t-31.5 18
t-43 14.5t-54.5 6.5q-86 0 -140.5 -54.5t-54.5 -140.5z" />
    <glyph glyph-name="d" unicode="d" horiz-adv-x="665" 
d="M500 260q0 85 -52 140t-128 55t-128 -55t-52 -140t52 -140t128 -55t128 55t52 140zM55 260q0 118 74.5 196.5t180.5 78.5q38 0 71 -10.5t53 -25t34.5 -29t20.5 -24.5l6 -11h5v325h85v-760h-80l-5 85h-5q-2 -4 -6 -11t-20 -24t-35.5 -30t-52.5 -24t-71 -11
q-106 0 -180.5 78.5t-74.5 196.5z" />
    <glyph glyph-name="e" unicode="e" horiz-adv-x="625" 
d="M320 535q113 0 181.5 -70.5t68.5 -189.5v-30h-430q8 -80 61 -130t134 -50q56 0 102 17.5t65 35.5l18 17h15v-90q-3 -2 -8 -6.5t-24 -14.5t-41.5 -18t-59 -14.5t-77.5 -6.5q-117 0 -193.5 77.5t-76.5 197.5q0 119 76 197t189 78zM320 455q-64 0 -109 -37t-61 -93h330
q-8 55 -51.5 92.5t-108.5 37.5z" />
    <glyph glyph-name="f" unicode="f" horiz-adv-x="410" 
d="M130 520v95q0 81 43 128t112 47q36 0 67 -12.5t44 -25.5l14 -12l-30 -65q-3 4 -8.5 10t-26.5 15.5t-45 9.5q-85 0 -85 -95v-95h165v-80h-165v-440h-85v440h-100v80h100z" />
    <glyph glyph-name="g" unicode="g" horiz-adv-x="565" 
d="M65 345q0 84 58 137t157 53q27 0 52 -5t36 -10l12 -5q1 4 3 11t12 24t24.5 30t42.5 24t63 11v-85q-21 0 -38.5 -4.5t-27.5 -11.5t-17 -13.5t-10 -10.5l-2 -5q7 -5 18 -14t29 -45.5t18 -80.5q0 -67 -30 -104.5t-95 -70.5l-155 -80h85q122 0 178.5 -41.5t56.5 -113.5
q0 -73 -65.5 -121.5t-189.5 -48.5q-127 0 -186 40t-59 105q0 33 21.5 60.5t42.5 38.5l21 11h-60v50l170 90q-7 1 -18 3t-39.5 14.5t-50 30.5t-39.5 54.5t-18 82.5zM150 345q0 -50 34 -80t96 -30t96 30t34 80t-34 80t-96 30t-96 -30t-34 -80zM445 -65q0 85 -145 85h-80
q-4 -1 -11 -3t-24 -10t-30 -18t-24 -27t-11 -37q0 -80 160 -80q165 0 165 90z" />
    <glyph glyph-name="h" unicode="h" horiz-adv-x="630" 
d="M555 0h-85v320q0 135 -135 135q-71 0 -120.5 -49.5t-49.5 -120.5v-285h-85v760h85v-325h5q2 4 6 11t19.5 24t34 30t49.5 24t66 11q98 0 154 -57t56 -158v-320z" />
    <glyph glyph-name="i" unicode="i" horiz-adv-x="250" 
d="M165 525v-525h-85v525q20 -5 40 -5zM180 700q0 -25 -16 -40t-39 -15t-39 15t-16 40t16 40t39 15t39 -15t16 -40z" />
    <glyph glyph-name="j" unicode="j" horiz-adv-x="250" 
d="M80 -20v545q20 -5 40 -5l45 5v-545q0 -92 -44.5 -142t-125.5 -58l-15 80q54 8 77 34.5t23 85.5zM180 700q0 -25 -16 -40t-39 -15t-39 15t-16 40t16 40t39 15t39 -15t16 -40z" />
    <glyph glyph-name="k" unicode="k" horiz-adv-x="555" 
d="M445 0l-190 230l-90 -85v-145h-85v760h85v-510l265 270h110l-225 -225l240 -295h-110z" />
    <glyph glyph-name="l" unicode="l" horiz-adv-x="245" 
d="M165 760v-760h-85v760h85z" />
    <glyph glyph-name="m" unicode="m" horiz-adv-x="960" 
d="M885 0h-85v320q0 70 -29.5 102.5t-90.5 32.5q-65 0 -110 -48.5t-45 -121.5v-285h-85v320q0 70 -29.5 102.5t-90.5 32.5q-65 0 -110 -48t-45 -122v-285h-85v520h80l5 -85h5l5.5 11t17.5 24t31 30t45.5 24t60.5 11q39 0 71.5 -11.5t51 -27.5t31 -32t16.5 -28l5 -11h5
q2 4 5.5 11.5t18 26.5t32.5 33.5t51.5 26.5t72.5 12q91 0 143 -55.5t52 -159.5v-320z" />
    <glyph glyph-name="n" unicode="n" horiz-adv-x="630" 
d="M555 0h-85v320q0 135 -135 135q-71 0 -120.5 -49.5t-49.5 -120.5v-285h-85v520h80l5 -85h5q2 4 6 11t19.5 24t34 30t49.5 24t66 11q98 0 154 -57t56 -158v-320z" />
    <glyph glyph-name="o" unicode="o" horiz-adv-x="660" 
d="M140 260q0 -86 53.5 -140.5t136.5 -54.5t136.5 54.5t53.5 140.5t-53.5 140.5t-136.5 54.5t-136.5 -54.5t-53.5 -140.5zM605 260q0 -120 -77.5 -197.5t-197.5 -77.5t-197.5 77.5t-77.5 197.5t77.5 197.5t197.5 77.5t197.5 -77.5t77.5 -197.5z" />
    <glyph glyph-name="p" unicode="p" horiz-adv-x="665" 
d="M610 260q0 -118 -74.5 -196.5t-180.5 -78.5q-38 0 -71 10.5t-53 25t-34.5 29t-20.5 24.5l-6 11h-5v-305h-85v740h80l5 -85h5q2 4 6 11t20 24t35.5 30t52.5 24t71 11q106 0 180.5 -78.5t74.5 -196.5zM165 260q0 -85 52 -140t128 -55t128 55t52 140t-52 140t-128 55
t-128 -55t-52 -140z" />
    <glyph glyph-name="q" unicode="q" horiz-adv-x="645" 
d="M55 240q0 125 80.5 202.5t214.5 77.5h215v-740h-85v290h-5q-2 -3 -5.5 -9t-17.5 -20.5t-32 -26t-50 -20.5t-70 -9q-106 0 -175.5 71.5t-69.5 183.5zM480 195v245h-130q-97 0 -153.5 -54.5t-56.5 -145.5q0 -78 47.5 -126.5t122.5 -48.5q36 0 67 13.5t49 32.5t31 38t18 33z
" />
    <glyph glyph-name="r" unicode="r" horiz-adv-x="455" 
d="M315 455q-24 0 -48 -12.5t-41.5 -30t-32 -35t-21.5 -29.5l-7 -13v-335h-85v520h80l5 -85h5q2 4 6 11t18.5 24t31 30t43.5 24t56 11q38 0 68 -11.5t41 -22.5l11 -11l-25 -75q-3 4 -10 11t-34.5 18t-60.5 11z" />
    <glyph glyph-name="s" unicode="s" horiz-adv-x="475" 
d="M440 145q0 -74 -51.5 -117t-153.5 -43q-56 0 -106 16.5t-72 32.5l-22 16l20 75q3 -2 8.5 -6.5t23.5 -14.5t38 -18t51.5 -14.5t63.5 -6.5q115 0 115 75q0 33 -32 53.5t-77.5 32.5t-91 27.5t-77.5 49.5t-32 87q0 62 48 103.5t132 41.5q36 0 69.5 -7.5t55.5 -19t38.5 -22.5
t23.5 -18l8 -8l-35 -70q-6 7 -18 18t-53.5 29t-88.5 18t-71 -19.5t-24 -50.5q0 -27 32 -44.5t77.5 -29.5t91 -27.5t77.5 -50.5t32 -88z" />
    <glyph glyph-name="t" unicode="t" horiz-adv-x="425" 
d="M115 160v280h-100v30l180 205h5v-155h165v-80h-165v-280q0 -95 80 -95q24 0 46.5 10t33.5 20l10 10h15v-75q-5 -5 -14.5 -12.5t-39.5 -20t-61 -12.5q-69 0 -112 47t-43 128z" />
    <glyph glyph-name="u" unicode="u" horiz-adv-x="635" 
d="M80 520h85v-320q0 -135 135 -135q71 0 120.5 49.5t49.5 120.5v285h85v-520h-80l-5 85h-5q-2 -4 -6 -11t-19.5 -24t-34 -30t-49.5 -24t-66 -11q-98 0 -154 57t-56 158v320z" />
    <glyph glyph-name="v" unicode="v" horiz-adv-x="575" 
d="M110 520l175 -405h5l175 405h90l-225 -520h-85l-225 520h90z" />
    <glyph glyph-name="w" unicode="w" horiz-adv-x="845" 
d="M430 520l155 -400h5l145 400h90l-190 -520h-85l-126 325h-4l-125 -325h-85l-190 520h90l145 -400h5l155 400h15z" />
    <glyph glyph-name="x" unicode="x" horiz-adv-x="560" 
d="M280 200l-165 -200h-105l215 260l-210 260h105l160 -200l160 200h105l-210 -260l215 -260h-105z" />
    <glyph glyph-name="y" unicode="y" horiz-adv-x="575" 
d="M555 520l-300 -740h-90l90 225l-235 515h90l185 -410h5l165 410h90z" />
    <glyph glyph-name="z" unicode="z" horiz-adv-x="540" 
d="M50 440v80h440v-60l-335 -380h345v-80h-470v60l335 380h-315z" />
    <glyph glyph-name="braceleft" unicode="{" horiz-adv-x="400" 
d="M145 295v-5q4 0 10.5 -1t22.5 -8t28.5 -18t23 -34t10.5 -54v-225q0 -80 80 -80h40v-85h-40q-78 0 -124 45t-46 120v215q0 49 -21.5 69.5t-73.5 20.5v75q52 0 73.5 20.5t21.5 69.5v215q0 75 46 120t124 45h40v-85h-40q-80 0 -80 -80v-225q0 -49 -24 -77.5t-48 -32.5z" />
    <glyph glyph-name="bar" unicode="|" horiz-adv-x="265" 
d="M175 800v-1020h-85v1020h85z" />
    <glyph glyph-name="braceright" unicode="}" horiz-adv-x="400" 
d="M255 290v5q-4 0 -10.5 1t-22.5 8t-28.5 18t-23 34t-10.5 54v225q0 80 -80 80h-40v85h40q78 0 124 -45t46 -120v-215q0 -49 21.5 -69.5t73.5 -20.5v-75q-52 0 -73.5 -20.5t-21.5 -69.5v-215q0 -75 -46 -120t-124 -45h-40v85h40q80 0 80 80v225q0 49 24 77.5t48 33.5z" />
    <glyph glyph-name="asciitilde" unicode="~" horiz-adv-x="525" 
d="M160 330q-33 0 -63 -17.5t-43 -34.5l-14 -18v90q2 2 5 6.5t14 14.5t24 18t34 14.5t43 6.5q48 0 110 -40t95 -40t63 17.5t44 34.5l13 18v-90q-2 -2 -5 -6.5t-14 -14.5t-24 -18t-34 -14.5t-43 -6.5q-47 0 -109.5 40t-95.5 40z" />
    <glyph glyph-name="nbspace" unicode="&#xa0;" horiz-adv-x="260" 
 />
    <glyph glyph-name="exclamdown" unicode="&#xa1;" horiz-adv-x="280" 
d="M165 330l20 -345v-205h-90v205l20 345h50zM195 475q0 -25 -16 -40t-39 -15t-39 15t-16 40t16 40t39 15t39 -15t16 -40z" />
    <glyph glyph-name="cent" unicode="&#xa2;" horiz-adv-x="565" 
d="M485 395q-2 2 -5 5.5t-14.5 12.5t-25 16.5t-35 15t-45.5 10.5v-390q38 7 69 23t43 29l13 13h15v-85q-6 -6 -16.5 -14.5t-47 -25t-76.5 -20.5v-85h-85v90q-5 1 -13 2.5t-31.5 9.5t-44.5 19t-47 32.5t-44.5 48t-31.5 68t-13 90.5t12.5 90.5t32.5 68.5t44 48t47.5 32.5
t43.5 19t32 9.5l13 2v90h85v-85q49 -7 89 -24.5t55 -31.5l16 -14zM135 260q0 -75 38 -122.5t102 -67.5v380q-60 -16 -100 -65.5t-40 -124.5z" />
    <glyph glyph-name="sterling" unicode="&#xa3;" horiz-adv-x="560" 
d="M70 300v80h60q-2 3 -6.5 8t-14.5 21.5t-18 34.5t-14.5 45.5t-6.5 55.5q0 91 58 145.5t162 54.5q34 0 65.5 -7.5t53.5 -18.5t38.5 -22.5t24.5 -18.5l8 -8l-30 -75q-7 7 -20.5 18t-55.5 29t-84 18q-125 0 -125 -115q0 -25 7.5 -51.5t18.5 -46t22.5 -35t18.5 -24.5l8 -8h190
v-80h-155q5 -25 5 -50q0 -85 -69 -140q15 10 49 10q42 0 97 -25t83 -25q27 0 50.5 12.5t33.5 25.5l11 12h15v-90q-4 -5 -13 -12.5t-37.5 -20t-59.5 -12.5q-44 0 -111.5 27.5t-118.5 27.5q-31 0 -63.5 -10t-49.5 -20l-17 -10v80q4 3 11.5 8t26.5 21.5t33.5 35t26.5 47.5
t12 58q0 11 -2.5 23.5t-5.5 19.5l-2 7h-110z" />
    <glyph glyph-name="currency" unicode="&#xa4;" horiz-adv-x="635" 
d="M40 280v85h85v365h205q119 0 182 -59.5t63 -165.5t-63 -165.5t-182 -59.5h-115v-65h260v-85h-260v-130h-90v130h-85v85h85v65h-85zM215 645v-280h115q150 0 150 140t-150 140h-115z" />
    <glyph glyph-name="yen" unicode="&#xa5;" horiz-adv-x="690" 
d="M95 275h205v20l-20 40h-185v75h130l-205 320h105l220 -350l220 350h105l-205 -320h130v-75h-185l-20 -40v-20h205v-75h-205v-200h-90v200h-205v75z" />
    <glyph glyph-name="brokenbar" unicode="&#xa6;" horiz-adv-x="265" 
d="M90 385v415h85v-415h-85zM90 -220v415h85v-415h-85z" />
    <glyph glyph-name="section" unicode="&#xa7;" horiz-adv-x="575" 
d="M425 300q0 38 -47.5 71.5t-95.5 48.5l-47 15q-3 0 -9 -1.5t-20.5 -7t-26 -14t-20.5 -25t-9 -37.5q0 -38 47.5 -71.5t94.5 -48.5l48 -15q3 0 9 1.5t20.5 7t26 14t20.5 25t9 37.5zM510 300q0 -47 -24 -80.5t-48 -43.5l-23 -11q5 -3 12.5 -10t20 -34.5t12.5 -60.5
q0 -69 -48.5 -112t-136.5 -43q-51 0 -98.5 16.5t-69.5 32.5l-22 16l20 80q7 -7 21 -18t59.5 -29t94.5 -18q47 0 71 20t24 55q0 34 -32 59.5t-77.5 44t-91 39.5t-77.5 58.5t-32 88.5q0 29 10 54t23.5 39t27.5 24.5t24 14.5l10 3q-5 3 -12.5 10t-20 34.5t-12.5 60.5
q0 69 48 112t132 43q35 0 67.5 -7t54 -17.5t37.5 -21t24 -17.5l7 -7l-35 -70q-7 7 -19.5 17t-53 26.5t-82.5 16.5q-47 0 -71 -20t-24 -55q0 -34 32 -59.5t77.5 -44t91 -39.5t77.5 -58.5t32 -88.5z" />
    <glyph glyph-name="dieresis" unicode="&#xa8;" horiz-adv-x="370" 
d="M30 695q0 25 16 40t39 15t39 -15t16 -40t-16 -40t-39 -15t-39 15t-16 40zM230 695q0 25 16 40t39 15t39 -15t16 -40t-16 -40t-39 -15t-39 15t-16 40z" />
    <glyph glyph-name="copyright" unicode="&#xa9;" horiz-adv-x="840" 
d="M315 315q0 -57 35 -91t95 -34q31 0 57.5 11t37.5 23l10 11h15v-65q-4 -6 -13 -14t-41.5 -22t-70.5 -14q-89 0 -147 56t-58 139t58 139t147 56q40 0 74 -12.5t48 -25.5l13 -12l-25 -60q-4 4 -11.5 11t-35 18t-58.5 11q-60 0 -95 -34t-35 -91zM790 315q0 -151 -105 -253
t-265 -102t-265 102t-105 253t105 253t265 102t265 -102t105 -253zM115 315q0 -128 85.5 -211.5t219.5 -83.5t219.5 83.5t85.5 211.5t-85.5 211.5t-219.5 83.5t-219.5 -83.5t-85.5 -211.5z" />
    <glyph glyph-name="ordfeminine" unicode="&#xaa;" horiz-adv-x="385" 
d="M180 415q29 0 51.5 18.5t30.5 37.5l8 19q-3 4 -9.5 11t-27.5 18t-43 11q-36 0 -55.5 -16.5t-19.5 -43.5q0 -26 17.5 -40.5t47.5 -14.5zM190 740q160 0 160 -150v-230h-75l-5 60h-5q-1 -3 -3 -7.5t-11 -16.5t-19.5 -21.5t-30 -17t-41.5 -7.5q-59 0 -92 30t-33 80
q0 53 36 84t99 31q31 0 56 -10t34 -20l10 -10v45q0 49 -20.5 69.5t-69.5 20.5q-27 0 -57 -11t-47 -23l-16 -11h-15v65q7 6 20 14t51 22t74 14z" />
    <glyph glyph-name="guillemotleft" unicode="&#xab;" horiz-adv-x="540" 
d="M130 270l160 -220h-100l-155 215v20l155 215h100l-160 -220v-10zM345 270l160 -220h-100l-155 215v20l155 215h100l-160 -220v-10z" />
    <glyph glyph-name="logicalnot" unicode="&#xac;" horiz-adv-x="525" 
d="M65 305v80h380v-170h-90v90h-290z" />
    <glyph glyph-name="uni00AD" unicode="&#xad;" horiz-adv-x="390" 
d="M35 285v80h320v-80h-320z" />
    <glyph glyph-name="registered" unicode="&#xae;" horiz-adv-x="670" 
d="M235 670h100q52 0 81 -25t29 -70q0 -20 -5.5 -36t-13.5 -24.5t-16.5 -14.5t-13.5 -8l-6 -2l70 -100h-65l-60 90h-45v-90h-55v280zM290 525h45q55 0 55 50t-55 50h-45v-100zM110 530q0 -98 62 -159t163 -61t163 61t62 159t-62 159t-163 61t-163 -61t-62 -159zM55 530
q0 117 78.5 193.5t201.5 76.5t201.5 -76.5t78.5 -193.5t-78.5 -193.5t-201.5 -76.5t-201.5 76.5t-78.5 193.5z" />
    <glyph glyph-name="macron" unicode="&#xaf;" horiz-adv-x="410" 
d="M30 650v70h350v-70h-350z" />
    <glyph glyph-name="degree" unicode="&#xb0;" horiz-adv-x="370" 
d="M110 595q0 -37 20.5 -58.5t54.5 -21.5t54.5 21.5t20.5 58.5t-20.5 58.5t-53.5 21.5q-35 0 -55.5 -21.5t-20.5 -58.5zM330 595q0 -64 -40.5 -104.5t-104.5 -40.5t-104.5 40.5t-40.5 104.5t40.5 104.5t104.5 40.5t104.5 -40.5t40.5 -104.5z" />
    <glyph glyph-name="plusminus" unicode="&#xb1;" horiz-adv-x="525" 
d="M480 130v-80h-435v80h175v180h-175v80h175v180h85v-180h175v-80h-175v-180h175z" />
    <glyph glyph-name="twosuperior" unicode="&#xb2;" horiz-adv-x="320" 
d="M30 480l150 185q30 35 30 65q0 20 -12.5 32.5t-37.5 12.5q-27 0 -54.5 -15t-41.5 -30l-14 -15h-10v65q6 7 16 17t43 26.5t66 16.5q55 0 85 -27t30 -73q0 -24 -11 -50.5t-23 -40.5l-11 -14l-80 -100h135v-65h-260v10z" />
    <glyph glyph-name="threesuperior" unicode="&#xb3;" horiz-adv-x="320" 
d="M155 645q-18 0 -33 -5t-21 -10l-6 -5l-30 35l90 105h-105v65h230v-10l-95 -115q54 -11 79.5 -39.5t25.5 -80.5q0 -57 -36 -91t-99 -34q-36 0 -67 11t-44 23l-14 11l25 55q35 -35 100 -35q30 0 47.5 16.5t17.5 43.5t-17.5 43.5t-47.5 16.5z" />
    <glyph glyph-name="acute" unicode="&#xb4;" horiz-adv-x="240" 
d="M30 590l80 180h100l-120 -180h-60z" />
    <glyph glyph-name="mu" unicode="&#xb5;" horiz-adv-x="635" 
d="M80 520h85v-320q0 -135 135 -135q71 0 120.5 49.5t49.5 120.5v285h85v-520h-80l-5 85h-5q-2 -4 -6 -11t-19.5 -24t-34 -30t-49.5 -24t-66 -11q-29 0 -55 5.5t-41.5 14t-27.5 16.5t-16 13l-5 6l20 -235l-85 -25v740z" />
    <glyph glyph-name="paragraph" unicode="&#xb6;" horiz-adv-x="640" 
d="M55 515q0 94 60.5 154.5t154.5 60.5h335v-60h-110v-890h-45v890h-135v-890h-45v520q-94 0 -154.5 60.5t-60.5 154.5z" />
    <glyph glyph-name="periodcentered" unicode="&#xb7;" horiz-adv-x="260" 
d="M185 300q0 -25 -16 -40t-39 -15t-39 15t-16 40t16 40t39 15t39 -15t16 -40z" />
    <glyph glyph-name="cedilla" unicode="&#xb8;" horiz-adv-x="275" 
d="M155 0l-20 -50q53 -8 81.5 -33.5t28.5 -66.5q0 -43 -34.5 -71.5t-95.5 -28.5q-24 0 -45.5 5t-30.5 10l-9 5v50q30 -20 70 -20q70 0 70 50q0 24 -25 39t-50 18l-25 3l35 90h50z" />
    <glyph glyph-name="onesuperior" unicode="&#xb9;" horiz-adv-x="235" 
d="M30 705v75l90 50h45v-360h-70v270z" />
    <glyph glyph-name="ordmasculine" unicode="&#xba;" horiz-adv-x="450" 
d="M225 420q53 0 84 33t31 92t-31 92t-84 33t-84 -33t-31 -92t31 -92t84 -33zM225 350q-86 0 -140.5 54.5t-54.5 140.5t54.5 140.5t140.5 54.5t140.5 -54.5t54.5 -140.5t-54.5 -140.5t-140.5 -54.5z" />
    <glyph glyph-name="guillemotright" unicode="&#xbb;" horiz-adv-x="540" 
d="M250 50l160 220v10l-160 220h100l155 -215v-20l-155 -215h-100zM35 50l160 220v10l-160 220h100l155 -215v-20l-155 -215h-100z" />
    <glyph glyph-name="onequarter" unicode="&#xbc;" horiz-adv-x="698" 
d="M55 0l475 730h85l-475 -730h-85zM35 605v75l90 50h45v-360h-70v270zM598 360l-115 -210h60l20 75h50v-75h55v-65h-55v-85h-70v85h-165v10l145 265h75z" />
    <glyph glyph-name="onehalf" unicode="&#xbd;" horiz-adv-x="733" 
d="M55 0l475 730h85l-475 -730h-85zM35 605v75l90 50h45v-360h-70v270zM443 10l150 185q30 35 30 65q0 20 -12.5 32.5t-37.5 12.5q-27 0 -54.5 -15t-41.5 -30l-14 -15h-10v65q6 7 16 17t43 26.5t66 16.5q55 0 85 -27t30 -73q0 -24 -11.5 -50.5t-22.5 -40.5l-11 -14l-80 -100
h135v-65h-260v10z" />
    <glyph glyph-name="threequarters" unicode="&#xbe;" horiz-adv-x="762" 
d="M120 0l475 730h85l-475 -730h-85zM662 360l-115 -210h60l20 75h50v-75h55v-65h-55v-85h-70v85h-165v10l145 265h75zM155 545q-18 0 -33 -5t-21 -10l-6 -5l-30 35l90 105h-105v65h230v-10l-95 -115q54 -11 79.5 -39.5t25.5 -80.5q0 -57 -36 -91t-99 -34q-36 0 -67 11
t-44 23l-14 11l25 55q35 -35 100 -35q30 0 47.5 16.5t17.5 43.5t-17.5 43.5t-47.5 16.5z" />
    <glyph glyph-name="questiondown" unicode="&#xbf;" horiz-adv-x="485" 
d="M440 -60v-100l-8 -8t-22.5 -18t-37.5 -23t-51.5 -18t-65.5 -8q-96 0 -153 53t-57 137q0 38 20 76.5t48.5 70.5t57.5 64.5t49 72.5t20 81h85q0 -47 -19 -92t-46 -79.5t-54.5 -66.5t-46.5 -66.5t-19 -65.5q0 -46 30 -73t85 -27q31 0 59.5 9.5t48 22.5t34 26t21.5 22l7 10
h15zM335 475q0 -25 -16 -40t-39 -15t-39 15t-16 40t16 40t39 15t39 -15t16 -40z" />
    <glyph glyph-name="Agrave" unicode="&#xc0;" horiz-adv-x="755" 
d="M530 285l-150 330h-5l-150 -330h305zM570 200h-385l-90 -200h-95l335 730h85l335 -730h-95zM325 980l80 -180h-60l-120 180h100z" />
    <glyph glyph-name="Aacute" unicode="&#xc1;" horiz-adv-x="755" 
d="M530 285l-150 330h-5l-150 -330h305zM570 200h-385l-90 -200h-95l335 730h85l335 -730h-95zM350 800l80 180h100l-120 -180h-60z" />
    <glyph glyph-name="Acircumflex" unicode="&#xc2;" horiz-adv-x="755" 
d="M530 285l-150 330h-5l-150 -330h305zM570 200h-385l-90 -200h-95l335 730h85l335 -730h-95zM380 920l-120 -120h-60l150 180h60l150 -180h-60z" />
    <glyph glyph-name="Atilde" unicode="&#xc3;" horiz-adv-x="755" 
d="M530 285l-150 330h-5l-150 -330h305zM570 200h-385l-90 -200h-95l335 730h85l335 -730h-95zM300 880q-27 0 -50.5 -12.5t-33.5 -25.5l-11 -12v70q3 6 10 14t31.5 22t53.5 14q37 0 85.5 -27.5t74.5 -27.5q27 0 50.5 12.5t33.5 24.5l11 13v-70q-3 -6 -10 -14t-31.5 -22
t-53.5 -14q-37 0 -85.5 27.5t-74.5 27.5z" />
    <glyph glyph-name="Adieresis" unicode="&#xc4;" horiz-adv-x="755" 
d="M530 285l-150 330h-5l-150 -330h305zM570 200h-385l-90 -200h-95l335 730h85l335 -730h-95zM225 885q0 25 16 40t39 15t39 -15t16 -40t-16 -40t-39 -15t-39 15t-16 40zM425 885q0 25 16 40t39 15t39 -15t16 -40t-16 -40t-39 -15t-39 15t-16 40z" />
    <glyph glyph-name="Aring" unicode="&#xc5;" horiz-adv-x="755" 
d="M530 285l-150 330h-5l-150 -330h305zM570 200h-385l-90 -200h-95l335 730h85l335 -730h-95zM265 900q0 52 32.5 83.5t82.5 31.5t82.5 -31.5t32.5 -83.5t-32.5 -83.5t-82.5 -31.5t-82.5 31.5t-32.5 83.5zM325 900q0 -25 16 -40t39 -15t39 15t16 40t-16 40t-39 15
q-24 0 -39.5 -14.5t-15.5 -40.5z" />
    <glyph glyph-name="AE" unicode="&#xc6;" horiz-adv-x="930" 
d="M465 0v200h-290l-90 -200h-95l335 730h540v-85h-310v-230h235v-85h-235v-245h310v-85h-400zM380 650l-165 -365h250v365h-85z" />
    <glyph glyph-name="Ccedilla" unicode="&#xc7;" horiz-adv-x="740" 
d="M150 365q0 -131 81 -213t209 -82q42 0 80.5 12.5t64 30t44.5 35t27 30.5l9 12h15v-100q-3 -4 -9 -11t-28.5 -25.5t-49 -32t-70.5 -25t-93 -11.5h-10l-15 -35q53 -8 81.5 -33.5t28.5 -66.5q0 -43 -34.5 -71.5t-95.5 -28.5q-24 0 -45.5 5t-30.5 10l-9 5v50q30 -20 70 -20
q70 0 70 50q0 24 -25 39t-50 18l-25 3l30 80q-140 23 -227.5 126.5t-87.5 248.5q0 161 108.5 270.5t266.5 109.5q52 0 97.5 -11t74 -26.5t49.5 -30.5t30 -26l9 -11l-35 -75q-3 4 -8 10.5t-24.5 22.5t-42 28.5t-60.5 23t-80 10.5q-128 0 -209 -82t-81 -213z" />
    <glyph glyph-name="Egrave" unicode="&#xc8;" horiz-adv-x="615" 
d="M100 0v730h450v-85h-360v-230h285v-85h-285v-245h360v-85h-450zM285 980l80 -180h-60l-120 180h100z" />
    <glyph glyph-name="Eacute" unicode="&#xc9;" horiz-adv-x="615" 
d="M100 0v730h450v-85h-360v-230h285v-85h-285v-245h360v-85h-450zM280 800l80 180h100l-120 -180h-60z" />
    <glyph glyph-name="Ecircumflex" unicode="&#xca;" horiz-adv-x="615" 
d="M100 0v730h450v-85h-360v-230h285v-85h-285v-245h360v-85h-450zM320 920l-120 -120h-60l150 180h60l150 -180h-60z" />
    <glyph glyph-name="Edieresis" unicode="&#xcb;" horiz-adv-x="615" 
d="M100 0v730h450v-85h-360v-230h285v-85h-285v-245h360v-85h-450zM165 885q0 25 16 40t39 15t39 -15t16 -40t-16 -40t-39 -15t-39 15t-16 40zM365 885q0 25 16 40t39 15t39 -15t16 -40t-16 -40t-39 -15t-39 15t-16 40z" />
    <glyph glyph-name="Igrave" unicode="&#xcc;" horiz-adv-x="290" 
d="M190 730v-730h-90v730h90zM95 980l80 -180h-60l-120 180h100z" />
    <glyph glyph-name="Iacute" unicode="&#xcd;" horiz-adv-x="290" 
d="M190 730v-730h-90v730h90zM115 800l80 180h100l-120 -180h-60z" />
    <glyph glyph-name="Icircumflex" unicode="&#xce;" horiz-adv-x="290" 
d="M190 730v-730h-90v730h90zM145 920l-120 -120h-60l150 180h60l150 -180h-60z" />
    <glyph glyph-name="Idieresis" unicode="&#xcf;" horiz-adv-x="290" 
d="M190 730v-730h-90v730h90zM-10 885q0 25 16 40t39 15t39 -15t16 -40t-16 -40t-39 -15t-39 15t-16 40zM190 885q0 25 16 40t39 15t39 -15t16 -40t-16 -40t-39 -15t-39 15t-16 40z" />
    <glyph glyph-name="Eth" unicode="&#xd0;" horiz-adv-x="765" 
d="M330 730q164 0 272 -105t108 -260t-108 -260t-272 -105h-210v320h-80v85h80v325h210zM430 320h-220v-235h120q127 0 206 78t79 202t-79 202t-206 78h-120v-240h220v-85z" />
    <glyph glyph-name="Ntilde" unicode="&#xd1;" horiz-adv-x="790" 
d="M690 730v-730h-85l-415 575v-575h-90v730h85l415 -575v575h90zM315 880q-27 0 -50.5 -12.5t-34.5 -25.5l-10 -12v70q3 6 10 14t31.5 22t53.5 14q37 0 85.5 -27.5t74.5 -27.5q27 0 50.5 12.5t34.5 24.5l10 13v-70q-3 -6 -10 -14t-31.5 -22t-53.5 -14q-37 0 -85.5 27.5
t-74.5 27.5z" />
    <glyph glyph-name="Ograve" unicode="&#xd2;" horiz-adv-x="870" 
d="M150 365q0 -131 80.5 -213t204.5 -82t204.5 82t80.5 213t-80.5 213t-204.5 82t-204.5 -82t-80.5 -213zM815 365q0 -161 -109.5 -270.5t-270.5 -109.5t-270.5 109.5t-109.5 270.5t109.5 270.5t270.5 109.5t270.5 -109.5t109.5 -270.5zM380 980l80 -180h-60l-120 180h100z
" />
    <glyph glyph-name="Oacute" unicode="&#xd3;" horiz-adv-x="870" 
d="M150 365q0 -131 80.5 -213t204.5 -82t204.5 82t80.5 213t-80.5 213t-204.5 82t-204.5 -82t-80.5 -213zM815 365q0 -161 -109.5 -270.5t-270.5 -109.5t-270.5 109.5t-109.5 270.5t109.5 270.5t270.5 109.5t270.5 -109.5t109.5 -270.5zM410 800l80 180h100l-120 -180h-60z
" />
    <glyph glyph-name="Ocircumflex" unicode="&#xd4;" horiz-adv-x="870" 
d="M150 365q0 -131 80.5 -213t204.5 -82t204.5 82t80.5 213t-80.5 213t-204.5 82t-204.5 -82t-80.5 -213zM815 365q0 -161 -109.5 -270.5t-270.5 -109.5t-270.5 109.5t-109.5 270.5t109.5 270.5t270.5 109.5t270.5 -109.5t109.5 -270.5zM435 920l-120 -120h-60l150 180h60
l150 -180h-60z" />
    <glyph glyph-name="Otilde" unicode="&#xd5;" horiz-adv-x="870" 
d="M150 365q0 -131 80.5 -213t204.5 -82t204.5 82t80.5 213t-80.5 213t-204.5 82t-204.5 -82t-80.5 -213zM815 365q0 -161 -109.5 -270.5t-270.5 -109.5t-270.5 109.5t-109.5 270.5t109.5 270.5t270.5 109.5t270.5 -109.5t109.5 -270.5zM355 880q-27 0 -50.5 -12.5
t-34.5 -25.5l-10 -12v70q3 6 10 14t31.5 22t53.5 14q37 0 85.5 -27.5t74.5 -27.5q27 0 50.5 12.5t34.5 24.5l10 13v-70q-3 -6 -10 -14t-31.5 -22t-53.5 -14q-37 0 -85.5 27.5t-74.5 27.5z" />
    <glyph glyph-name="Odieresis" unicode="&#xd6;" horiz-adv-x="870" 
d="M150 365q0 -131 80.5 -213t204.5 -82t204.5 82t80.5 213t-80.5 213t-204.5 82t-204.5 -82t-80.5 -213zM815 365q0 -161 -109.5 -270.5t-270.5 -109.5t-270.5 109.5t-109.5 270.5t109.5 270.5t270.5 109.5t270.5 -109.5t109.5 -270.5zM280 885q0 25 16 40t39 15t39 -15
t16 -40t-16 -40t-39 -15t-39 15t-16 40zM480 885q0 25 16 40t39 15t39 -15t16 -40t-16 -40t-39 -15t-39 15t-16 40z" />
    <glyph glyph-name="multiply" unicode="&#xd7;" horiz-adv-x="525" 
d="M200 325l-145 145l60 60l145 -145l145 145l60 -60l-145 -145l145 -145l-60 -60l-145 145l-145 -145l-60 60z" />
    <glyph glyph-name="Oslash" unicode="&#xd8;" horiz-adv-x="870" 
d="M75 -15l90 110l-11.5 11.5t-26.5 33t-33.5 54.5t-26.5 75.5t-12 95.5q0 161 109.5 270.5t270.5 109.5q58 0 109 -15t74 -30l22 -15l50 60h105l-90 -110l11.5 -11.5t26.5 -33t33.5 -54.5t26.5 -75.5t12 -95.5q0 -161 -109.5 -270.5t-270.5 -109.5q-58 0 -109 15t-74 30
l-22 15l-50 -60h-105zM150 365q0 -60 17.5 -110t34.5 -70l18 -20l370 455q-65 40 -155 40q-124 0 -204.5 -82t-80.5 -213zM720 365q0 60 -17.5 110t-34.5 70l-18 20l-370 -455q65 -40 155 -40q124 0 204.5 82t80.5 213z" />
    <glyph glyph-name="Ugrave" unicode="&#xd9;" horiz-adv-x="750" 
d="M90 730h90v-465q0 -90 52.5 -142.5t142.5 -52.5t142.5 52.5t52.5 142.5v465h90v-465q0 -128 -77 -204t-208 -76t-208 76t-77 204v465zM335 980l80 -180h-60l-120 180h100z" />
    <glyph glyph-name="Uacute" unicode="&#xda;" horiz-adv-x="750" 
d="M90 730h90v-465q0 -90 52.5 -142.5t142.5 -52.5t142.5 52.5t52.5 142.5v465h90v-465q0 -128 -77 -204t-208 -76t-208 76t-77 204v465zM335 800l80 180h100l-120 -180h-60z" />
    <glyph glyph-name="Ucircumflex" unicode="&#xdb;" horiz-adv-x="750" 
d="M90 730h90v-465q0 -90 52.5 -142.5t142.5 -52.5t142.5 52.5t52.5 142.5v465h90v-465q0 -128 -77 -204t-208 -76t-208 76t-77 204v465zM375 920l-120 -120h-60l150 180h60l150 -180h-60z" />
    <glyph glyph-name="Udieresis" unicode="&#xdc;" horiz-adv-x="750" 
d="M90 730h90v-465q0 -90 52.5 -142.5t142.5 -52.5t142.5 52.5t52.5 142.5v465h90v-465q0 -128 -77 -204t-208 -76t-208 76t-77 204v465zM220 885q0 25 16 40t39 15t39 -15t16 -40t-16 -40t-39 -15t-39 15t-16 40zM420 885q0 25 16 40t39 15t39 -15t16 -40t-16 -40t-39 -15
t-39 15t-16 40z" />
    <glyph glyph-name="Yacute" unicode="&#xdd;" horiz-adv-x="670" 
d="M380 295v-295h-90v295l-280 435h105l220 -350l220 350h105zM305 800l80 180h100l-120 -180h-60z" />
    <glyph glyph-name="Thorn" unicode="&#xde;" horiz-adv-x="640" 
d="M190 125v-125h-90v730h90v-125h140q122 0 191 -65t69 -175t-69 -175t-191 -65h-140zM190 520v-310h140q78 0 121.5 41.5t43.5 113.5t-43.5 113.5t-121.5 41.5h-140z" />
    <glyph glyph-name="germandbls" unicode="&#xdf;" horiz-adv-x="650" 
d="M480 580q0 -41 -22.5 -76.5t-45 -63.5t-22.5 -50q0 -28 23.5 -47.5t57.5 -33t68 -31t57.5 -52.5t23.5 -86q0 -70 -49.5 -112.5t-140.5 -42.5q-38 0 -76.5 11t-58.5 22l-20 12l20 80q7 -5 19 -12.5t50 -20t76 -12.5q47 0 71 20t24 55q0 34 -23.5 57.5t-57.5 37.5t-68 29
t-57.5 44t-23.5 72q0 32 14 62t31 49.5t31 43.5t14 45q0 39 -27 62t-78 23q-125 0 -125 -140v-525h-85v525q0 104 56 162t154 58q88 0 139 -46t51 -119z" />
    <glyph glyph-name="agrave" unicode="&#xe0;" 
d="M235 65q36 0 67.5 13t50.5 31.5t32.5 36.5t18.5 31l6 13q-7 4 -19.5 11t-53 18t-82.5 11q-115 0 -115 -85q0 -38 25 -59t70 -21zM285 535q97 0 153.5 -55.5t56.5 -149.5v-330h-80l-5 85h-5l-5.5 -11t-18.5 -24t-33 -30t-49.5 -24t-67.5 -11q-79 0 -127.5 44.5
t-48.5 115.5q0 75 49.5 120t135.5 45q49 0 91.5 -10t60.5 -20l18 -10v60q0 125 -135 125q-32 0 -63.5 -7.5t-53.5 -18.5t-39 -22.5t-25 -18.5l-9 -8h-15v85q10 8 27.5 19.5t73.5 31t114 19.5zM245 780l80 -180h-60l-120 180h100z" />
    <glyph glyph-name="aacute" unicode="&#xe1;" 
d="M235 65q36 0 67.5 13t50.5 31.5t32.5 36.5t18.5 31l6 13q-7 4 -19.5 11t-53 18t-82.5 11q-115 0 -115 -85q0 -38 25 -59t70 -21zM285 535q97 0 153.5 -55.5t56.5 -149.5v-330h-80l-5 85h-5l-5.5 -11t-18.5 -24t-33 -30t-49.5 -24t-67.5 -11q-79 0 -127.5 44.5
t-48.5 115.5q0 75 49.5 120t135.5 45q49 0 91.5 -10t60.5 -20l18 -10v60q0 125 -135 125q-32 0 -63.5 -7.5t-53.5 -18.5t-39 -22.5t-25 -18.5l-9 -8h-15v85q10 8 27.5 19.5t73.5 31t114 19.5zM245 600l80 180h100l-120 -180h-60z" />
    <glyph glyph-name="acircumflex" unicode="&#xe2;" 
d="M235 65q36 0 67.5 13t50.5 31.5t32.5 36.5t18.5 31l6 13q-7 4 -19.5 11t-53 18t-82.5 11q-115 0 -115 -85q0 -38 25 -59t70 -21zM285 535q97 0 153.5 -55.5t56.5 -149.5v-330h-80l-5 85h-5l-5.5 -11t-18.5 -24t-33 -30t-49.5 -24t-67.5 -11q-79 0 -127.5 44.5
t-48.5 115.5q0 75 49.5 120t135.5 45q49 0 91.5 -10t60.5 -20l18 -10v60q0 125 -135 125q-32 0 -63.5 -7.5t-53.5 -18.5t-39 -22.5t-25 -18.5l-9 -8h-15v85q10 8 27.5 19.5t73.5 31t114 19.5zM280 720l-120 -120h-60l150 180h60l150 -180h-60z" />
    <glyph glyph-name="atilde" unicode="&#xe3;" 
d="M235 65q36 0 67.5 13t50.5 31.5t32.5 36.5t18.5 31l6 13q-7 4 -19.5 11t-53 18t-82.5 11q-115 0 -115 -85q0 -38 25 -59t70 -21zM285 535q97 0 153.5 -55.5t56.5 -149.5v-330h-80l-5 85h-5l-5.5 -11t-18.5 -24t-33 -30t-49.5 -24t-67.5 -11q-79 0 -127.5 44.5
t-48.5 115.5q0 75 49.5 120t135.5 45q49 0 91.5 -10t60.5 -20l18 -10v60q0 125 -135 125q-32 0 -63.5 -7.5t-53.5 -18.5t-39 -22.5t-25 -18.5l-9 -8h-15v85q10 8 27.5 19.5t73.5 31t114 19.5zM205 680q-27 0 -50.5 -12.5t-34.5 -25.5l-10 -12v70q3 6 10 14t31.5 22t53.5 14
q37 0 85.5 -27.5t74.5 -27.5q27 0 50.5 12.5t34.5 24.5l10 13v-70q-3 -6 -10 -14t-31.5 -22t-53.5 -14q-37 0 -85.5 27.5t-74.5 27.5z" />
    <glyph glyph-name="adieresis" unicode="&#xe4;" 
d="M235 65q36 0 67.5 13t50.5 31.5t32.5 36.5t18.5 31l6 13q-7 4 -19.5 11t-53 18t-82.5 11q-115 0 -115 -85q0 -38 25 -59t70 -21zM285 535q97 0 153.5 -55.5t56.5 -149.5v-330h-80l-5 85h-5l-5.5 -11t-18.5 -24t-33 -30t-49.5 -24t-67.5 -11q-79 0 -127.5 44.5
t-48.5 115.5q0 75 49.5 120t135.5 45q49 0 91.5 -10t60.5 -20l18 -10v60q0 125 -135 125q-32 0 -63.5 -7.5t-53.5 -18.5t-39 -22.5t-25 -18.5l-9 -8h-15v85q10 8 27.5 19.5t73.5 31t114 19.5zM140 685q0 25 16 40t39 15t39 -15t16 -40t-16 -40t-39 -15t-39 15t-16 40z
M340 685q0 25 16 40t39 15t39 -15t16 -40t-16 -40t-39 -15t-39 15t-16 40z" />
    <glyph glyph-name="aring" unicode="&#xe5;" 
d="M235 65q36 0 67.5 13t50.5 31.5t32.5 36.5t18.5 31l6 13q-7 4 -19.5 11t-53 18t-82.5 11q-115 0 -115 -85q0 -38 25 -59t70 -21zM285 535q97 0 153.5 -55.5t56.5 -149.5v-330h-80l-5 85h-5l-5.5 -11t-18.5 -24t-33 -30t-49.5 -24t-67.5 -11q-79 0 -127.5 44.5
t-48.5 115.5q0 75 49.5 120t135.5 45q49 0 91.5 -10t60.5 -20l18 -10v60q0 125 -135 125q-32 0 -63.5 -7.5t-53.5 -18.5t-39 -22.5t-25 -18.5l-9 -8h-15v85q10 8 27.5 19.5t73.5 31t114 19.5zM175 710q0 52 32.5 83.5t82.5 31.5t82.5 -31.5t32.5 -83.5t-32.5 -83.5
t-82.5 -31.5t-82.5 31.5t-32.5 83.5zM235 710q0 -25 16 -40t39 -15t39 15t16 40t-16 40t-39 15q-24 0 -39.5 -14.5t-15.5 -40.5z" />
    <glyph glyph-name="ae" unicode="&#xe6;" horiz-adv-x="980" 
d="M675 535q113 0 181.5 -70.5t68.5 -189.5v-30h-430q8 -80 61 -130t134 -50q56 0 102 17.5t64 35.5l19 17h15v-90q-3 -2 -8 -6.5t-24 -14.5t-41.5 -18t-59 -14.5t-77.5 -6.5q-46 0 -87 14t-66 33.5t-43.5 39.5t-25.5 34l-8 14h-5q-3 -5 -8 -14.5t-24.5 -32.5t-42 -41
t-60.5 -32.5t-80 -14.5q-79 0 -127 44.5t-48 115.5q0 75 49.5 120t135.5 45q49 0 91.5 -10t60.5 -20l18 -10v60q0 125 -135 125q-32 0 -63.5 -7.5t-53.5 -18.5t-39 -22.5t-25 -18.5l-9 -8h-15v85q10 8 27.5 19.5t73.5 31t114 19.5q41 0 75 -10.5t53.5 -25t33 -29t18.5 -24.5
l5 -11q3 4 8 11t24 24t40.5 30t57.5 24t75 11zM235 65q36 0 67.5 13t50.5 31.5t32.5 36.5t18.5 31l6 13q-7 4 -19.5 11t-53 18t-82.5 11q-115 0 -115 -85q0 -38 25 -59t70 -21zM675 455q-64 0 -109 -37t-61 -93h330q-8 55 -51.5 92.5t-108.5 37.5z" />
    <glyph glyph-name="ccedilla" unicode="&#xe7;" horiz-adv-x="565" 
d="M135 260q0 -86 54.5 -140.5t140.5 -54.5q44 0 83 16.5t55 32.5l17 16h15v-85q-6 -6 -17.5 -15.5t-54 -26t-93.5 -18.5l-15 -35q53 -8 81.5 -33.5t28.5 -66.5q0 -43 -34.5 -71.5t-95.5 -28.5q-24 0 -45.5 5t-30.5 10l-9 5v50q30 -20 70 -20q70 0 70 50q0 24 -25 39t-50 18
l-25 3l30 80q-101 12 -168 84.5t-67 185.5q0 120 76.5 197.5t193.5 77.5q62 0 112 -17.5t69 -35.5l19 -17l-35 -70l-6.5 6.5t-19.5 14.5t-31.5 18t-43 14.5t-54.5 6.5q-86 0 -140.5 -54.5t-54.5 -140.5z" />
    <glyph glyph-name="egrave" unicode="&#xe8;" horiz-adv-x="625" 
d="M320 535q113 0 181.5 -70.5t68.5 -189.5v-30h-430q8 -80 61 -130t134 -50q56 0 102 17.5t65 35.5l18 17h15v-90q-3 -2 -8 -6.5t-24 -14.5t-41.5 -18t-59 -14.5t-77.5 -6.5q-117 0 -193.5 77.5t-76.5 197.5q0 119 76 197t189 78zM320 455q-64 0 -109 -37t-61 -93h330
q-8 55 -51.5 92.5t-108.5 37.5zM275 780l80 -180h-60l-120 180h100z" />
    <glyph glyph-name="eacute" unicode="&#xe9;" horiz-adv-x="625" 
d="M320 535q113 0 181.5 -70.5t68.5 -189.5v-30h-430q8 -80 61 -130t134 -50q56 0 102 17.5t65 35.5l18 17h15v-90q-3 -2 -8 -6.5t-24 -14.5t-41.5 -18t-59 -14.5t-77.5 -6.5q-117 0 -193.5 77.5t-76.5 197.5q0 119 76 197t189 78zM320 455q-64 0 -109 -37t-61 -93h330
q-8 55 -51.5 92.5t-108.5 37.5zM290 600l80 180h100l-120 -180h-60z" />
    <glyph glyph-name="ecircumflex" unicode="&#xea;" horiz-adv-x="625" 
d="M320 535q113 0 181.5 -70.5t68.5 -189.5v-30h-430q8 -80 61 -130t134 -50q56 0 102 17.5t65 35.5l18 17h15v-90q-3 -2 -8 -6.5t-24 -14.5t-41.5 -18t-59 -14.5t-77.5 -6.5q-117 0 -193.5 77.5t-76.5 197.5q0 119 76 197t189 78zM320 455q-64 0 -109 -37t-61 -93h330
q-8 55 -51.5 92.5t-108.5 37.5zM320 720l-120 -120h-60l150 180h60l150 -180h-60z" />
    <glyph glyph-name="edieresis" unicode="&#xeb;" horiz-adv-x="625" 
d="M320 535q113 0 181.5 -70.5t68.5 -189.5v-30h-430q8 -80 61 -130t134 -50q56 0 102 17.5t65 35.5l18 17h15v-90q-3 -2 -8 -6.5t-24 -14.5t-41.5 -18t-59 -14.5t-77.5 -6.5q-117 0 -193.5 77.5t-76.5 197.5q0 119 76 197t189 78zM320 455q-64 0 -109 -37t-61 -93h330
q-8 55 -51.5 92.5t-108.5 37.5zM165 685q0 25 16 40t39 15t39 -15t16 -40t-16 -40t-39 -15t-39 15t-16 40zM365 685q0 25 16 40t39 15t39 -15t16 -40t-16 -40t-39 -15t-39 15t-16 40z" />
    <glyph glyph-name="igrave" unicode="&#xec;" horiz-adv-x="245" 
d="M165 520v-520h-85v520h85zM70 780l80 -180h-60l-120 180h100z" />
    <glyph glyph-name="iacute" unicode="&#xed;" horiz-adv-x="245" 
d="M165 520v-520h-85v520h85zM95 600l80 180h100l-120 -180h-60z" />
    <glyph glyph-name="icircumflex" unicode="&#xee;" horiz-adv-x="245" 
d="M165 520v-520h-85v520h85zM125 720l-120 -120h-60l150 180h60l150 -180h-60z" />
    <glyph glyph-name="idieresis" unicode="&#xef;" horiz-adv-x="245" 
d="M165 520v-520h-85v520h85zM-30 685q0 25 16 40t39 15t39 -15t16 -40t-16 -40t-39 -15t-39 15t-16 40zM170 685q0 25 16 40t39 15t39 -15t16 -40t-16 -40t-39 -15t-39 15t-16 40z" />
    <glyph glyph-name="eth" unicode="&#xf0;" horiz-adv-x="655" 
d="M265 600l-55 70h100q-45 45 -120 90h120q60 -40 105 -90h94l54 -70h-88q5 -6 12.5 -16t27.5 -44t35 -70t27.5 -90.5t12.5 -109.5q0 -126 -76.5 -205.5t-193.5 -79.5q-116 0 -190.5 74.5t-74.5 190.5q0 115 73 190t182 75q29 0 56.5 -7.5t45.5 -18.5t31.5 -22.5
t20.5 -18.5l6 -8h5q-11 33 -35 73t-42 63l-18 24h-115zM500 250q0 82 -50.5 133.5t-129.5 51.5t-129.5 -51.5t-50.5 -133.5t50.5 -133.5t129.5 -51.5t129.5 51.5t50.5 133.5z" />
    <glyph glyph-name="ntilde" unicode="&#xf1;" horiz-adv-x="630" 
d="M555 0h-85v320q0 135 -135 135q-71 0 -120.5 -49.5t-49.5 -120.5v-285h-85v520h80l5 -85h5q2 4 6 11t19.5 24t34 30t49.5 24t66 11q98 0 154 -57t56 -158v-320zM250 680q-27 0 -50.5 -12.5t-33.5 -25.5l-11 -12v70q3 6 10 14t31.5 22t53.5 14q37 0 85.5 -27.5t74.5 -27.5
q27 0 50.5 12.5t33.5 24.5l11 13v-70q-3 -6 -10 -14t-31.5 -22t-53.5 -14q-37 0 -85.5 27.5t-74.5 27.5z" />
    <glyph glyph-name="ograve" unicode="&#xf2;" horiz-adv-x="660" 
d="M140 260q0 -86 53.5 -140.5t136.5 -54.5t136.5 54.5t53.5 140.5t-53.5 140.5t-136.5 54.5t-136.5 -54.5t-53.5 -140.5zM605 260q0 -120 -77.5 -197.5t-197.5 -77.5t-197.5 77.5t-77.5 197.5t77.5 197.5t197.5 77.5t197.5 -77.5t77.5 -197.5zM285 780l80 -180h-60
l-120 180h100z" />
    <glyph glyph-name="oacute" unicode="&#xf3;" horiz-adv-x="660" 
d="M140 260q0 -86 53.5 -140.5t136.5 -54.5t136.5 54.5t53.5 140.5t-53.5 140.5t-136.5 54.5t-136.5 -54.5t-53.5 -140.5zM605 260q0 -120 -77.5 -197.5t-197.5 -77.5t-197.5 77.5t-77.5 197.5t77.5 197.5t197.5 77.5t197.5 -77.5t77.5 -197.5zM300 600l80 180h100
l-120 -180h-60z" />
    <glyph glyph-name="ocircumflex" unicode="&#xf4;" horiz-adv-x="660" 
d="M140 260q0 -86 53.5 -140.5t136.5 -54.5t136.5 54.5t53.5 140.5t-53.5 140.5t-136.5 54.5t-136.5 -54.5t-53.5 -140.5zM605 260q0 -120 -77.5 -197.5t-197.5 -77.5t-197.5 77.5t-77.5 197.5t77.5 197.5t197.5 77.5t197.5 -77.5t77.5 -197.5zM330 720l-120 -120h-60
l150 180h60l150 -180h-60z" />
    <glyph glyph-name="otilde" unicode="&#xf5;" horiz-adv-x="660" 
d="M140 260q0 -86 53.5 -140.5t136.5 -54.5t136.5 54.5t53.5 140.5t-53.5 140.5t-136.5 54.5t-136.5 -54.5t-53.5 -140.5zM605 260q0 -120 -77.5 -197.5t-197.5 -77.5t-197.5 77.5t-77.5 197.5t77.5 197.5t197.5 77.5t197.5 -77.5t77.5 -197.5zM250 680q-27 0 -50.5 -12.5
t-33.5 -25.5l-11 -12v70q3 6 10 14t31.5 22t53.5 14q37 0 85.5 -27.5t74.5 -27.5q27 0 50.5 12.5t33.5 24.5l11 13v-70q-3 -6 -10 -14t-31.5 -22t-53.5 -14q-37 0 -85.5 27.5t-74.5 27.5z" />
    <glyph glyph-name="odieresis" unicode="&#xf6;" horiz-adv-x="660" 
d="M140 260q0 -86 53.5 -140.5t136.5 -54.5t136.5 54.5t53.5 140.5t-53.5 140.5t-136.5 54.5t-136.5 -54.5t-53.5 -140.5zM605 260q0 -120 -77.5 -197.5t-197.5 -77.5t-197.5 77.5t-77.5 197.5t77.5 197.5t197.5 77.5t197.5 -77.5t77.5 -197.5zM175 685q0 25 16 40t39 15
t39 -15t16 -40t-16 -40t-39 -15t-39 15t-16 40zM375 685q0 25 16 40t39 15t39 -15t16 -40t-16 -40t-39 -15t-39 15t-16 40z" />
    <glyph glyph-name="divide" unicode="&#xf7;" horiz-adv-x="525" 
d="M65 285v80h390v-80h-390zM205 125q0 23 16.5 39t38.5 16t38.5 -16t16.5 -39t-16.5 -39t-38.5 -16t-38.5 16t-16.5 39zM205 525q0 23 16.5 39t38.5 16t38.5 -16t16.5 -39t-16.5 -39t-38.5 -16t-38.5 16t-16.5 39z" />
    <glyph glyph-name="oslash" unicode="&#xf8;" horiz-adv-x="660" 
d="M75 -15l60 80q-3 3 -8.5 8t-19.5 23t-24.5 39t-19 55t-8.5 70q0 120 77.5 197.5t197.5 77.5q36 0 68.5 -7.5t47.5 -15.5l14 -7l25 30h100l-60 -80q3 -3 8.5 -8t19.5 -23t24.5 -39t19 -55t8.5 -70q0 -120 -77.5 -197.5t-197.5 -77.5q-36 0 -68.5 7.5t-47.5 15.5l-14 7
l-25 -30h-100zM140 260q0 -38 11 -70.5t23 -45.5l11 -14l225 310q-35 15 -80 15q-83 0 -136.5 -54.5t-53.5 -140.5zM520 260q0 38 -11 70.5t-23 45.5l-11 14l-225 -310q35 -15 80 -15q83 0 136.5 54.5t53.5 140.5z" />
    <glyph glyph-name="ugrave" unicode="&#xf9;" horiz-adv-x="635" 
d="M80 520h85v-320q0 -135 135 -135q71 0 120.5 49.5t49.5 120.5v285h85v-520h-80l-5 85h-5q-2 -4 -6 -11t-19.5 -24t-34 -30t-49.5 -24t-66 -11q-98 0 -154 57t-56 158v320zM285 780l80 -180h-60l-120 180h100z" />
    <glyph glyph-name="uacute" unicode="&#xfa;" horiz-adv-x="635" 
d="M80 520h85v-320q0 -135 135 -135q71 0 120.5 49.5t49.5 120.5v285h85v-520h-80l-5 85h-5q-2 -4 -6 -11t-19.5 -24t-34 -30t-49.5 -24t-66 -11q-98 0 -154 57t-56 158v320zM285 600l80 180h100l-120 -180h-60z" />
    <glyph glyph-name="ucircumflex" unicode="&#xfb;" horiz-adv-x="635" 
d="M80 520h85v-320q0 -135 135 -135q71 0 120.5 49.5t49.5 120.5v285h85v-520h-80l-5 85h-5q-2 -4 -6 -11t-19.5 -24t-34 -30t-49.5 -24t-66 -11q-98 0 -154 57t-56 158v320zM320 720l-120 -120h-60l150 180h60l150 -180h-60z" />
    <glyph glyph-name="udieresis" unicode="&#xfc;" horiz-adv-x="635" 
d="M80 520h85v-320q0 -135 135 -135q71 0 120.5 49.5t49.5 120.5v285h85v-520h-80l-5 85h-5q-2 -4 -6 -11t-19.5 -24t-34 -30t-49.5 -24t-66 -11q-98 0 -154 57t-56 158v320zM165 685q0 25 16 40t39 15t39 -15t16 -40t-16 -40t-39 -15t-39 15t-16 40zM365 685q0 25 16 40
t39 15t39 -15t16 -40t-16 -40t-39 -15t-39 15t-16 40z" />
    <glyph glyph-name="yacute" unicode="&#xfd;" horiz-adv-x="575" 
d="M555 520l-300 -740h-90l90 225l-235 515h90l185 -410h5l165 410h90zM260 600l80 180h100l-120 -180h-60z" />
    <glyph glyph-name="thorn" unicode="&#xfe;" horiz-adv-x="665" 
d="M610 260q0 -118 -74.5 -196.5t-180.5 -78.5q-38 0 -71 10.5t-53 25t-34.5 29t-20.5 24.5l-6 11h-5v-305h-85v980h85v-325h5q2 4 6 11t20 24t35.5 30t52.5 24t71 11q106 0 180.5 -78.5t74.5 -196.5zM165 260q0 -85 52 -140t128 -55t128 55t52 140t-52 140t-128 55
t-128 -55t-52 -140z" />
    <glyph glyph-name="ydieresis" unicode="&#xff;" horiz-adv-x="575" 
d="M555 520l-300 -740h-90l90 225l-235 515h90l185 -410h5l165 410h90zM140 685q0 25 16 40t39 15t39 -15t16 -40t-16 -40t-39 -15t-39 15t-16 40zM340 685q0 25 16 40t39 15t39 -15t16 -40t-16 -40t-39 -15t-39 15t-16 40z" />
    <glyph glyph-name="Amacron" unicode="&#x100;" horiz-adv-x="755" 
d="M530 285l-150 330h-5l-150 -330h305zM570 200h-385l-90 -200h-95l335 730h85l335 -730h-95zM205 850v70h350v-70h-350z" />
    <glyph glyph-name="amacron" unicode="&#x101;" 
d="M235 65q36 0 67.5 13t50.5 31.5t32.5 36.5t18.5 31l6 13q-7 4 -19.5 11t-53 18t-82.5 11q-115 0 -115 -85q0 -38 25 -59t70 -21zM285 535q97 0 153.5 -55.5t56.5 -149.5v-330h-80l-5 85h-5l-5.5 -11t-18.5 -24t-33 -30t-49.5 -24t-67.5 -11q-79 0 -127.5 44.5
t-48.5 115.5q0 75 49.5 120t135.5 45q49 0 91.5 -10t60.5 -20l18 -10v60q0 125 -135 125q-32 0 -63.5 -7.5t-53.5 -18.5t-39 -22.5t-25 -18.5l-9 -8h-15v85q10 8 27.5 19.5t73.5 31t114 19.5zM110 650v70h350v-70h-350z" />
    <glyph glyph-name="Abreve" unicode="&#x102;" horiz-adv-x="755" 
d="M530 285l-150 330h-5l-150 -330h305zM570 200h-385l-90 -200h-95l335 730h85l335 -730h-95zM380 820q-47 0 -87 12.5t-57 25.5l-16 12v90l6.5 -6.5t19.5 -14.5t32 -18t45 -14.5t57 -6.5q47 0 87 15t57 30l16 15v-90q-6 -6 -18 -14t-53.5 -22t-88.5 -14z" />
    <glyph glyph-name="abreve" unicode="&#x103;" 
d="M235 65q36 0 67.5 13t50.5 31.5t32.5 36.5t18.5 31l6 13q-7 4 -19.5 11t-53 18t-82.5 11q-115 0 -115 -85q0 -38 25 -59t70 -21zM285 535q97 0 153.5 -55.5t56.5 -149.5v-330h-80l-5 85h-5l-5.5 -11t-18.5 -24t-33 -30t-49.5 -24t-67.5 -11q-79 0 -127.5 44.5
t-48.5 115.5q0 75 49.5 120t135.5 45q49 0 91.5 -10t60.5 -20l18 -10v60q0 125 -135 125q-32 0 -63.5 -7.5t-53.5 -18.5t-39 -22.5t-25 -18.5l-9 -8h-15v85q10 8 27.5 19.5t73.5 31t114 19.5zM280 610q-47 0 -87 12.5t-57 25.5l-16 12v90l6.5 -6.5t19.5 -14.5t32 -18
t45 -14.5t57 -6.5q47 0 87 15t57 30l16 15v-90q-6 -6 -18 -14t-53.5 -22t-88.5 -14z" />
    <glyph glyph-name="Aogonek" unicode="&#x104;" horiz-adv-x="755" 
d="M705 0h-45l-90 200h-385l-90 -200h-95l335 730h85l335 -730q-4 -2 -11.5 -6t-26.5 -17t-33.5 -27.5t-26.5 -37.5t-12 -47q0 -33 16.5 -49t43.5 -16q13 0 25.5 4t18.5 8l6 3v-45q-20 -20 -70 -20q-52 0 -81 27t-29 73q0 44 32.5 81.5t64.5 52.5zM530 285l-150 330h-5
l-150 -330h305z" />
    <glyph glyph-name="aogonek" unicode="&#x105;" 
d="M285 535q97 0 153.5 -55.5t56.5 -149.5v-330q-4 -2 -11.5 -6t-26.5 -17t-33.5 -27.5t-26.5 -37.5t-12 -47q0 -33 16.5 -49t43.5 -16q13 0 25.5 4t18.5 8l6 3v-45q-20 -20 -70 -20q-52 0 -81 27t-29 73q0 44 32.5 81.5t64.5 52.5l33 16h-30l-5 85h-5l-5.5 -11t-18.5 -24
t-33 -30t-49.5 -24t-67.5 -11q-79 0 -127.5 44.5t-48.5 115.5q0 75 49.5 120t135.5 45q49 0 91.5 -10t60.5 -20l18 -10v60q0 125 -135 125q-32 0 -63.5 -7.5t-53.5 -18.5t-39 -22.5t-25 -18.5l-9 -8h-15v85q10 8 27.5 19.5t73.5 31t114 19.5zM235 65q36 0 67.5 13t50.5 31.5
t32.5 36.5t18.5 31l6 13q-7 4 -19.5 11t-53 18t-82.5 11q-115 0 -115 -85q0 -38 25 -59t70 -21z" />
    <glyph glyph-name="Cacute" unicode="&#x106;" horiz-adv-x="740" 
d="M150 365q0 -131 81 -213t209 -82q42 0 80.5 12.5t64 30t44.5 35t27 30.5l9 12h15v-100q-3 -4 -9 -11t-28.5 -25.5t-49 -32t-70.5 -25t-93 -11.5q-158 0 -266.5 109.5t-108.5 270.5t108.5 270.5t266.5 109.5q52 0 97.5 -11t74 -26.5t49.5 -30.5t30 -26l9 -11l-35 -75
q-3 4 -8 10.5t-24.5 22.5t-42 28.5t-60.5 23t-80 10.5q-128 0 -209 -82t-81 -213zM380 800l80 180h100l-120 -180h-60z" />
    <glyph glyph-name="cacute" unicode="&#x107;" horiz-adv-x="565" 
d="M135 260q0 -86 54.5 -140.5t140.5 -54.5q44 0 83 16.5t55 32.5l17 16h15v-85l-6.5 -6.5t-21 -14.5t-35.5 -18t-50.5 -14.5t-66.5 -6.5q-117 0 -193.5 77.5t-76.5 197.5t76.5 197.5t193.5 77.5q62 0 112 -17.5t69 -35.5l19 -17l-35 -70l-6.5 6.5t-19.5 14.5t-31.5 18
t-43 14.5t-54.5 6.5q-86 0 -140.5 -54.5t-54.5 -140.5zM270 600l80 180h100l-120 -180h-60z" />
    <glyph glyph-name="Ccircumflex" unicode="&#x108;" horiz-adv-x="740" 
d="M150 365q0 -131 81 -213t209 -82q42 0 80.5 12.5t64 30t44.5 35t27 30.5l9 12h15v-100q-3 -4 -9 -11t-28.5 -25.5t-49 -32t-70.5 -25t-93 -11.5q-158 0 -266.5 109.5t-108.5 270.5t108.5 270.5t266.5 109.5q52 0 97.5 -11t74 -26.5t49.5 -30.5t30 -26l9 -11l-35 -75
q-3 4 -8 10.5t-24.5 22.5t-42 28.5t-60.5 23t-80 10.5q-128 0 -209 -82t-81 -213zM410 920l-120 -120h-60l150 180h60l150 -180h-60z" />
    <glyph glyph-name="ccircumflex" unicode="&#x109;" horiz-adv-x="565" 
d="M135 260q0 -86 54.5 -140.5t140.5 -54.5q44 0 83 16.5t55 32.5l17 16h15v-85l-6.5 -6.5t-21 -14.5t-35.5 -18t-50.5 -14.5t-66.5 -6.5q-117 0 -193.5 77.5t-76.5 197.5t76.5 197.5t193.5 77.5q62 0 112 -17.5t69 -35.5l19 -17l-35 -70l-6.5 6.5t-19.5 14.5t-31.5 18
t-43 14.5t-54.5 6.5q-86 0 -140.5 -54.5t-54.5 -140.5zM310 720l-120 -120h-60l150 180h60l150 -180h-60z" />
    <glyph glyph-name="Ccaron" unicode="&#x10c;" horiz-adv-x="740" 
d="M150 365q0 -131 81 -213t209 -82q42 0 80.5 12.5t64 30t44.5 35t27 30.5l9 12h15v-100q-3 -4 -9 -11t-28.5 -25.5t-49 -32t-70.5 -25t-93 -11.5q-158 0 -266.5 109.5t-108.5 270.5t108.5 270.5t266.5 109.5q52 0 97.5 -11t74 -26.5t49.5 -30.5t30 -26l9 -11l-35 -75
q-3 4 -8 10.5t-24.5 22.5t-42 28.5t-60.5 23t-80 10.5q-128 0 -209 -82t-81 -213zM290 980l120 -120l120 120h60l-150 -180h-60l-150 180h60z" />
    <glyph glyph-name="ccaron" unicode="&#x10d;" horiz-adv-x="565" 
d="M135 260q0 -86 54.5 -140.5t140.5 -54.5q44 0 83 16.5t55 32.5l17 16h15v-85l-6.5 -6.5t-21 -14.5t-35.5 -18t-50.5 -14.5t-66.5 -6.5q-117 0 -193.5 77.5t-76.5 197.5t76.5 197.5t193.5 77.5q62 0 112 -17.5t69 -35.5l19 -17l-35 -70l-6.5 6.5t-19.5 14.5t-31.5 18
t-43 14.5t-54.5 6.5q-86 0 -140.5 -54.5t-54.5 -140.5zM185 780l120 -120l120 120h60l-150 -180h-60l-150 180h60z" />
    <glyph glyph-name="Dcaron" unicode="&#x10e;" horiz-adv-x="745" 
d="M310 730q164 0 272 -105t108 -260t-108 -260t-272 -105h-210v730h210zM310 645h-120v-560h120q127 0 206 78t79 202t-79 202t-206 78zM230 980l120 -120l120 120h60l-150 -180h-60l-150 180h60z" />
    <glyph glyph-name="dcaron" unicode="&#x10f;" horiz-adv-x="720" 
d="M500 260q0 85 -52 140t-128 55t-128 -55t-52 -140t52 -140t128 -55t128 55t52 140zM55 260q0 118 74.5 196.5t180.5 78.5q38 0 71 -10.5t53 -25t34.5 -29t20.5 -24.5l6 -11h5v325h85v-760h-80l-5 85h-5q-2 -4 -6 -11t-20 -24t-35.5 -30t-52.5 -24t-71 -11
q-106 0 -180.5 78.5t-74.5 196.5zM750 730q0 -44 -16 -81.5t-32 -52.5l-17 -16h-30q5 6 12.5 16t20 40t12.5 59q-20 0 -32.5 11.5t-12.5 33.5q0 25 12.5 37.5t32.5 12.5q50 0 50 -60z" />
    <glyph glyph-name="Dcroat" unicode="&#x110;" horiz-adv-x="765" 
d="M330 730q164 0 272 -105t108 -260t-108 -260t-272 -105h-210v320h-80v85h80v325h210zM430 320h-220v-235h120q127 0 206 78t79 202t-79 202t-206 78h-120v-240h220v-85z" />
    <glyph glyph-name="dcroat" unicode="&#x111;" horiz-adv-x="695" 
d="M585 600v-600h-80l-5 85h-5q-2 -4 -6 -11t-20 -24t-35.5 -30t-52.5 -24t-71 -11q-106 0 -180.5 78.5t-74.5 196.5t74.5 196.5t180.5 78.5q38 0 71 -10.5t53 -25t34.5 -29t20.5 -24.5l6 -11h5v165h-170v80h170v80h85v-80h90v-80h-90zM140 260q0 -85 52 -140t128 -55
t128 55t52 140t-52 140t-128 55t-128 -54.5t-52 -140.5z" />
    <glyph glyph-name="Emacron" unicode="&#x112;" horiz-adv-x="615" 
d="M100 0v730h450v-85h-360v-230h285v-85h-285v-245h360v-85h-450zM150 850v70h350v-70h-350z" />
    <glyph glyph-name="emacron" unicode="&#x113;" horiz-adv-x="625" 
d="M320 535q113 0 181.5 -70.5t68.5 -189.5v-30h-430q8 -80 61 -130t134 -50q56 0 102 17.5t65 35.5l18 17h15v-90q-3 -2 -8 -6.5t-24 -14.5t-41.5 -18t-59 -14.5t-77.5 -6.5q-117 0 -193.5 77.5t-76.5 197.5q0 119 76 197t189 78zM320 455q-64 0 -109 -37t-61 -93h330
q-8 55 -51.5 92.5t-108.5 37.5zM145 650v70h350v-70h-350z" />
    <glyph glyph-name="Edotaccent" unicode="&#x116;" horiz-adv-x="615" 
d="M100 0v730h450v-85h-360v-230h285v-85h-285v-245h360v-85h-450zM265 885q0 25 16 40t39 15t39 -15t16 -40t-16 -40t-39 -15t-39 15t-16 40z" />
    <glyph glyph-name="edotaccent" unicode="&#x117;" horiz-adv-x="625" 
d="M320 535q113 0 181.5 -70.5t68.5 -189.5v-30h-430q8 -80 61 -130t134 -50q56 0 102 17.5t65 35.5l18 17h15v-90q-3 -2 -8 -6.5t-24 -14.5t-41.5 -18t-59 -14.5t-77.5 -6.5q-117 0 -193.5 77.5t-76.5 197.5q0 119 76 197t189 78zM320 455q-64 0 -109 -37t-61 -93h330
q-8 55 -51.5 92.5t-108.5 37.5zM265 685q0 25 16 40t39 15t39 -15t16 -40t-16 -40t-39 -15t-39 15t-16 40z" />
    <glyph glyph-name="Eogonek" unicode="&#x118;" horiz-adv-x="615" 
d="M100 0v730h450v-85h-360v-230h285v-85h-285v-245h360v-85q-4 -2 -11.5 -6t-26.5 -17t-33.5 -27.5t-26.5 -37.5t-12 -47q0 -33 16 -49t44 -16q13 0 25.5 4t18.5 8l6 3v-45q-20 -20 -70 -20q-52 0 -81 27t-29 73q0 44 32.5 81.5t65.5 52.5l32 16h-400z" />
    <glyph glyph-name="eogonek" unicode="&#x119;" horiz-adv-x="625" 
d="M320 535q113 0 181.5 -70.5t68.5 -189.5v-30h-430q8 -80 61 -130t134 -50q56 0 102 17.5t65 35.5l18 17h15v-90q-30 -30 -95 -45q-4 -2 -11.5 -6t-26.5 -17t-33.5 -27.5t-26.5 -37.5t-12 -47q0 -33 16 -49t44 -16q13 0 25.5 4t18.5 8l6 3v-45q-20 -20 -70 -20
q-52 0 -81 27t-29 73q0 38 25 71.5t50 48.5l25 15h-35q-117 0 -193.5 77.5t-76.5 197.5q0 119 76 197t189 78zM320 455q-64 0 -109 -37t-61 -93h330q-8 55 -51.5 92.5t-108.5 37.5z" />
    <glyph glyph-name="Ecaron" unicode="&#x11a;" horiz-adv-x="615" 
d="M100 0v730h450v-85h-360v-230h285v-85h-285v-245h360v-85h-450zM200 980l120 -120l120 120h60l-150 -180h-60l-150 180h60z" />
    <glyph glyph-name="ecaron" unicode="&#x11b;" horiz-adv-x="625" 
d="M320 535q113 0 181.5 -70.5t68.5 -189.5v-30h-430q8 -80 61 -130t134 -50q56 0 102 17.5t65 35.5l18 17h15v-90q-3 -2 -8 -6.5t-24 -14.5t-41.5 -18t-59 -14.5t-77.5 -6.5q-117 0 -193.5 77.5t-76.5 197.5q0 119 76 197t189 78zM320 455q-64 0 -109 -37t-61 -93h330
q-8 55 -51.5 92.5t-108.5 37.5zM200 780l120 -120l120 120h60l-150 -180h-60l-150 180h60z" />
    <glyph glyph-name="Gbreve" unicode="&#x11e;" horiz-adv-x="800" 
d="M430 745q52 0 97.5 -11t74 -26.5t49.5 -30.5t30 -26l9 -11l-35 -75q-3 4 -8 10.5t-24.5 22.5t-42 28.5t-60.5 23t-80 10.5q-128 0 -209 -82t-81 -213t81 -213t209 -82q35 0 68.5 8t56.5 20t40.5 24t26.5 20l8 8v160h-245l25 85h310v-270q-4 -6 -11.5 -15.5t-35 -33.5
t-59.5 -42.5t-84.5 -33.5t-109.5 -15q-158 0 -266.5 109.5t-108.5 270.5t108.5 270.5t266.5 109.5zM410 820q-47 0 -87 12.5t-57 25.5l-16 12v90l6.5 -6.5t19.5 -14.5t32 -18t45 -14.5t57 -6.5q47 0 87 15t57 30l16 15v-90q-6 -6 -18 -14t-53.5 -22t-88.5 -14z" />
    <glyph glyph-name="gbreve" unicode="&#x11f;" horiz-adv-x="565" 
d="M65 345q0 84 58 137t157 53q27 0 52 -5t36 -10l12 -5q1 4 3 11t12 24t24.5 30t42.5 24t63 11v-85q-21 0 -38.5 -4.5t-27.5 -11.5t-17 -13.5t-10 -10.5l-2 -5q7 -5 18 -14t29 -45.5t18 -80.5q0 -67 -30 -104.5t-95 -70.5l-155 -80h85q122 0 178.5 -41.5t56.5 -113.5
q0 -73 -65.5 -121.5t-189.5 -48.5q-127 0 -186 40t-59 105q0 33 21.5 60.5t42.5 38.5l21 11h-60v50l170 90q-7 1 -18 3t-39.5 14.5t-50 30.5t-39.5 54.5t-18 82.5zM150 345q0 -50 34 -80t96 -30t96 30t34 80t-34 80t-96 30t-96 -30t-34 -80zM445 -65q0 85 -145 85h-80
q-4 -1 -11 -3t-24 -10t-30 -18t-24 -27t-11 -37q0 -80 160 -80q165 0 165 90zM280 630q-47 0 -87 12.5t-57 25.5l-16 12v90l6.5 -6.5t19.5 -14.5t32 -18t45 -14.5t57 -6.5q47 0 87 15t57 30l16 15v-90q-6 -6 -18 -14t-53.5 -22t-88.5 -14z" />
    <glyph glyph-name="Gcommaaccent" unicode="&#x122;" horiz-adv-x="800" 
d="M430 745q52 0 97.5 -11t74 -26.5t49.5 -30.5t30 -26l9 -11l-35 -75q-3 4 -8 10.5t-24.5 22.5t-42 28.5t-60.5 23t-80 10.5q-128 0 -209 -82t-81 -213t81 -213t209 -82q35 0 68.5 8t56.5 20t40.5 24t26.5 20l8 8v160h-245l25 85h310v-270q-4 -6 -11.5 -15.5t-35 -33.5
t-59.5 -42.5t-84.5 -33.5t-109.5 -15q-158 0 -266.5 109.5t-108.5 270.5t108.5 270.5t266.5 109.5zM470 -130q0 -44 -16 -81.5t-32 -52.5l-17 -16h-30q5 6 12.5 16t20 40t12.5 59q-20 0 -32.5 11.5t-12.5 33.5q0 25 12.5 37.5t32.5 12.5q50 0 50 -60z" />
    <glyph glyph-name="gcommaaccent" unicode="&#x123;" horiz-adv-x="565" 
d="M230 670q0 44 16 81.5t32 52.5l17 16h30q-5 -6 -12.5 -16t-20 -40t-12.5 -59q20 0 32.5 -11.5t12.5 -33.5q0 -25 -12.5 -37.5t-32.5 -12.5q-50 0 -50 60zM65 345q0 84 58 137t157 53q27 0 52 -5t36 -10l12 -5q1 4 3 11t12 24t24.5 30t42.5 24t63 11v-85q-21 0 -38.5 -4.5
t-27.5 -11.5t-17 -13.5t-10 -10.5l-2 -5q7 -5 18 -14t29 -45.5t18 -80.5q0 -67 -30 -104.5t-95 -70.5l-155 -80h85q122 0 178.5 -41.5t56.5 -113.5q0 -73 -65.5 -121.5t-189.5 -48.5q-127 0 -186 40t-59 105q0 33 21.5 60.5t42.5 38.5l21 11h-60v50l170 90q-7 1 -18 3
t-39.5 14.5t-50 30.5t-39.5 54.5t-18 82.5zM150 345q0 -50 34 -80t96 -30t96 30t34 80t-34 80t-96 30t-96 -30t-34 -80zM445 -65q0 85 -145 85h-80q-4 -1 -11 -3t-24 -10t-30 -18t-24 -27t-11 -37q0 -80 160 -80q165 0 165 90z" />
    <glyph glyph-name="Imacron" unicode="&#x12a;" horiz-adv-x="290" 
d="M190 730v-730h-90v730h90zM-30 850v70h350v-70h-350z" />
    <glyph glyph-name="imacron" unicode="&#x12b;" horiz-adv-x="245" 
d="M165 520v-520h-85v520h85zM-50 650v70h350v-70h-350z" />
    <glyph glyph-name="Iogonek" unicode="&#x12e;" horiz-adv-x="290" 
d="M140 0h-40v730h90v-730q-4 -2 -11.5 -6t-26.5 -17t-33.5 -27.5t-26.5 -37.5t-12 -47q0 -33 16 -49t44 -16q13 0 25.5 4t18.5 8l6 3v-45q-20 -20 -70 -20q-52 0 -81 27t-29 73q0 44 32.5 81.5t65.5 52.5z" />
    <glyph glyph-name="iogonek" unicode="&#x12f;" horiz-adv-x="245" 
d="M115 0h-35v525q20 -5 40 -5l45 5v-525q-4 -2 -11.5 -6t-26.5 -17t-33.5 -27.5t-26.5 -37.5t-12 -47q0 -33 16.5 -49t43.5 -16q13 0 25.5 4t18.5 8l6 3v-45q-20 -20 -70 -20q-52 0 -81 27t-29 73q0 44 32.5 81.5t64.5 52.5zM180 700q0 -25 -16 -40t-39 -15t-39 15t-16 40
t16 40t39 15t39 -15t16 -40z" />
    <glyph glyph-name="Idotaccent" unicode="&#x130;" horiz-adv-x="290" 
d="M190 730v-730h-90v730h90zM90 885q0 25 16 40t39 15t39 -15t16 -40t-16 -40t-39 -15t-39 15t-16 40z" />
    <glyph glyph-name="dotlessi" unicode="&#x131;" horiz-adv-x="245" 
d="M165 520v-520h-85v520h85z" />
    <glyph glyph-name="Kcommaaccent" unicode="&#x136;" horiz-adv-x="680" 
d="M565 0l-275 343l-100 -105v-238h-90v730h90v-370l350 370h115l-303 -321l328 -409h-115zM410 -130q0 -44 -16 -81.5t-32 -52.5l-17 -16h-30q5 6 12.5 16t20 40t12.5 59q-20 0 -32.5 11.5t-12.5 33.5q0 25 12.5 37.5t32.5 12.5q50 0 50 -60z" />
    <glyph glyph-name="kcommaaccent" unicode="&#x137;" horiz-adv-x="555" 
d="M445 0l-190 230l-90 -85v-145h-85v760h85v-510l265 270h110l-225 -225l240 -295h-110zM350 -130q0 -44 -16 -81.5t-32 -52.5l-17 -16h-30q5 6 12.5 16t20 40t12.5 59q-20 0 -32.5 11.5t-12.5 33.5q0 25 12.5 37.5t32.5 12.5q50 0 50 -60z" />
    <glyph glyph-name="Lacute" unicode="&#x139;" horiz-adv-x="535" 
d="M190 730v-645h325v-85h-415v730h90zM115 800l80 180h100l-120 -180h-60z" />
    <glyph glyph-name="lacute" unicode="&#x13a;" horiz-adv-x="255" 
d="M165 760v-760h-85v760h85zM95 840l80 180h100l-120 -180h-60z" />
    <glyph glyph-name="Lcommaaccent" unicode="&#x13b;" horiz-adv-x="535" 
d="M190 730v-645h325v-85h-415v730h90zM355 -130q0 -44 -16.5 -81.5t-32.5 -52.5l-16 -16h-30q5 6 12.5 16t20 40t12.5 59q-20 0 -32.5 11.5t-12.5 33.5q0 25 12.5 37.5t32.5 12.5q50 0 50 -60z" />
    <glyph glyph-name="lcommaaccent" unicode="&#x13c;" horiz-adv-x="255" 
d="M170 760v-760h-85v760h85zM175 -130q0 -44 -16.5 -81.5t-32.5 -52.5l-16 -16h-30q5 6 12.5 16t20 40t12.5 59q-20 0 -32.5 11.5t-12.5 33.5q0 25 12.5 37.5t32.5 12.5q50 0 50 -60z" />
    <glyph glyph-name="Lcaron" unicode="&#x13d;" horiz-adv-x="535" 
d="M190 730v-645h325v-85h-415v730h90zM375 680q0 -44 -16.5 -81.5t-32.5 -52.5l-16 -16h-30q5 6 12.5 16t20 40t12.5 59q-20 0 -32.5 11.5t-12.5 33.5q0 25 12.5 37.5t32.5 12.5q50 0 50 -60z" />
    <glyph glyph-name="lcaron" unicode="&#x13e;" horiz-adv-x="300" 
d="M165 760v-760h-85v760h85zM330 730q0 -44 -16 -81.5t-32 -52.5l-17 -16h-30q5 6 12.5 16t20 40t12.5 59q-20 0 -32.5 11.5t-12.5 33.5q0 25 12.5 37.5t32.5 12.5q50 0 50 -60z" />
    <glyph glyph-name="Lslash" unicode="&#x141;" horiz-adv-x="550" 
d="M40 270v75l75 25v360h90v-330l175 60v-75l-175 -60v-240h325v-85h-415v295z" />
    <glyph glyph-name="lslash" unicode="&#x142;" horiz-adv-x="305" 
d="M30 310v75l80 25v350h85v-320l80 25v-75l-80 -25v-365h-85v335z" />
    <glyph glyph-name="Nacute" unicode="&#x143;" horiz-adv-x="790" 
d="M690 730v-730h-85l-415 575v-575h-90v730h85l415 -575v575h90zM360 800l80 180h100l-120 -180h-60z" />
    <glyph glyph-name="nacute" unicode="&#x144;" horiz-adv-x="630" 
d="M555 0h-85v320q0 135 -135 135q-71 0 -120.5 -49.5t-49.5 -120.5v-285h-85v520h80l5 -85h5q2 4 6 11t19.5 24t34 30t49.5 24t66 11q98 0 154 -57t56 -158v-320zM285 600l80 180h100l-120 -180h-60z" />
    <glyph glyph-name="Ncommaaccent" unicode="&#x145;" horiz-adv-x="790" 
d="M690 730v-730h-85l-415 575v-575h-90v730h85l415 -575v575h90zM455 -130q0 -44 -16.5 -81.5t-32.5 -52.5l-16 -16h-30q5 6 12.5 16t20 40t12.5 59q-20 0 -32.5 11.5t-12.5 33.5q0 25 12.5 37.5t32.5 12.5q50 0 50 -60z" />
    <glyph glyph-name="ncommaaccent" unicode="&#x146;" horiz-adv-x="630" 
d="M555 0h-85v320q0 135 -135 135q-71 0 -120.5 -49.5t-49.5 -120.5v-285h-85v520h80l5 -85h5q2 4 6 11t19.5 24t34 30t49.5 24t66 11q98 0 154 -57t56 -158v-320zM370 -130q0 -44 -16 -81.5t-32 -52.5l-17 -16h-30q5 6 12.5 16t20 40t12.5 59q-20 0 -32.5 11.5t-12.5 33.5
q0 25 12.5 37.5t32.5 12.5q50 0 50 -60z" />
    <glyph glyph-name="Ncaron" unicode="&#x147;" horiz-adv-x="790" 
d="M690 730v-730h-85l-415 575v-575h-90v730h85l415 -575v575h90zM280 980l120 -120l120 120h60l-150 -180h-60l-150 180h60z" />
    <glyph glyph-name="ncaron" unicode="&#x148;" horiz-adv-x="630" 
d="M555 0h-85v320q0 135 -135 135q-71 0 -120.5 -49.5t-49.5 -120.5v-285h-85v520h80l5 -85h5q2 4 6 11t19.5 24t34 30t49.5 24t66 11q98 0 154 -57t56 -158v-320zM200 780l120 -120l120 120h60l-150 -180h-60l-150 180h60z" />
    <glyph glyph-name="Omacron" unicode="&#x14c;" horiz-adv-x="870" 
d="M150 365q0 -131 80.5 -213t204.5 -82t204.5 82t80.5 213t-80.5 213t-204.5 82t-204.5 -82t-80.5 -213zM815 365q0 -161 -109.5 -270.5t-270.5 -109.5t-270.5 109.5t-109.5 270.5t109.5 270.5t270.5 109.5t270.5 -109.5t109.5 -270.5zM260 850v70h350v-70h-350z" />
    <glyph glyph-name="omacron" unicode="&#x14d;" horiz-adv-x="660" 
d="M140 260q0 -86 53.5 -140.5t136.5 -54.5t136.5 54.5t53.5 140.5t-53.5 140.5t-136.5 54.5t-136.5 -54.5t-53.5 -140.5zM605 260q0 -120 -77.5 -197.5t-197.5 -77.5t-197.5 77.5t-77.5 197.5t77.5 197.5t197.5 77.5t197.5 -77.5t77.5 -197.5zM155 650v70h350v-70h-350z
" />
    <glyph glyph-name="Ohungarumlaut" unicode="&#x150;" horiz-adv-x="870" 
d="M150 365q0 -131 80.5 -213t204.5 -82t204.5 82t80.5 213t-80.5 213t-204.5 82t-204.5 -82t-80.5 -213zM815 365q0 -161 -109.5 -270.5t-270.5 -109.5t-270.5 109.5t-109.5 270.5t109.5 270.5t270.5 109.5t270.5 -109.5t109.5 -270.5zM340 800l60 180h95l-110 -180h-45z
M485 800l80 180h95l-120 -180h-55z" />
    <glyph glyph-name="ohungarumlaut" unicode="&#x151;" horiz-adv-x="660" 
d="M140 260q0 -86 53.5 -140.5t136.5 -54.5t136.5 54.5t53.5 140.5t-53.5 140.5t-136.5 54.5t-136.5 -54.5t-53.5 -140.5zM605 260q0 -120 -77.5 -197.5t-197.5 -77.5t-197.5 77.5t-77.5 197.5t77.5 197.5t197.5 77.5t197.5 -77.5t77.5 -197.5zM240 600l60 180h95l-110 -180
h-45zM385 600l80 180h95l-120 -180h-55z" />
    <glyph glyph-name="OE" unicode="&#x152;" horiz-adv-x="1005" 
d="M435 745q29 0 55 -3.5t38 -7.5l12 -4h400v-85h-310v-230h235v-85h-235v-245h310v-85h-400q-40 -15 -105 -15q-161 0 -270.5 109.5t-109.5 270.5t109.5 270.5t270.5 109.5zM435 70q29 0 55 5t38 10l12 5v550q-40 20 -105 20q-124 0 -204.5 -82t-80.5 -213t80.5 -213
t204.5 -82z" />
    <glyph glyph-name="oe" unicode="&#x153;" horiz-adv-x="980" 
d="M675 535q113 0 181.5 -70.5t68.5 -189.5v-30h-430q8 -80 61 -130t134 -50q56 0 102 17.5t64 35.5l19 17h15v-90q-3 -2 -8 -6.5t-24 -14.5t-41.5 -18t-59 -14.5t-77.5 -6.5q-49 0 -92.5 15t-63.5 30l-19 15q-7 -7 -21 -17t-59.5 -26.5t-94.5 -16.5q-120 0 -197.5 77.5
t-77.5 197.5t77.5 197.5t197.5 77.5q51 0 95 -15t62 -30l18 -15q7 7 20 17t57 26.5t93 16.5zM330 65q38 0 69 10t43 20l13 10q-5 6 -12.5 18t-20 52.5t-12.5 84.5q0 42 11 81t23 57l11 17q-55 40 -125 40q-83 0 -136.5 -54.5t-53.5 -140.5t53.5 -140.5t136.5 -54.5zM675 455
q-64 0 -109 -37t-61 -93h330q-8 55 -51.5 92.5t-108.5 37.5z" />
    <glyph glyph-name="Racute" unicode="&#x154;" horiz-adv-x="650" 
d="M190 645v-300h125q74 0 117 41t43 109t-43 109t-117 41h-125zM420 280l195 -280h-110l-180 265h-135v-265h-90v730h215q119 0 187 -64.5t68 -170.5q0 -48 -15.5 -87t-37.5 -61t-44 -37t-37 -20l-16 -5v-5zM285 800l80 180h100l-120 -180h-60z" />
    <glyph glyph-name="racute" unicode="&#x155;" horiz-adv-x="455" 
d="M315 455q-24 0 -48 -12.5t-41.5 -30t-32 -35t-21.5 -29.5l-7 -13v-335h-85v520h80l5 -85h5q2 4 6 11t18.5 24t31 30t43.5 24t56 11q38 0 68 -11.5t41 -22.5l11 -11l-25 -75q-3 4 -10 11t-34.5 18t-60.5 11zM225 600l80 180h100l-120 -180h-60z" />
    <glyph glyph-name="Rcommaaccent" unicode="&#x156;" horiz-adv-x="650" 
d="M190 645v-300h125q74 0 117 41t43 109t-43 109t-117 41h-125zM420 280l195 -280h-110l-180 265h-135v-265h-90v730h215q119 0 187 -64.5t68 -170.5q0 -48 -15.5 -87t-37.5 -61t-44 -37t-37 -20l-16 -5v-5zM395 -130q0 -44 -16.5 -81.5t-32.5 -52.5l-16 -16h-30
q5 6 12.5 16t20 40t12.5 59q-20 0 -32.5 11.5t-12.5 33.5q0 25 12.5 37.5t32.5 12.5q50 0 50 -60z" />
    <glyph glyph-name="rcommaaccent" unicode="&#x157;" horiz-adv-x="455" 
d="M315 455q-24 0 -48 -12.5t-41.5 -30t-32 -35t-21.5 -29.5l-7 -13v-335h-85v520h80l5 -85h5q2 4 6 11t18.5 24t31 30t43.5 24t56 11q38 0 68 -11.5t41 -22.5l11 -11l-25 -75q-3 4 -10 11t-34.5 18t-60.5 11zM170 -130q0 -44 -16 -81.5t-32 -52.5l-17 -16h-30q5 6 12.5 16
t20 40t12.5 59q-20 0 -32.5 11.5t-12.5 33.5q0 25 12.5 37.5t32.5 12.5q50 0 50 -60z" />
    <glyph glyph-name="Rcaron" unicode="&#x158;" horiz-adv-x="650" 
d="M190 645v-300h125q74 0 117 41t43 109t-43 109t-117 41h-125zM420 280l195 -280h-110l-180 265h-135v-265h-90v730h215q119 0 187 -64.5t68 -170.5q0 -48 -15.5 -87t-37.5 -61t-44 -37t-37 -20l-16 -5v-5zM200 980l120 -120l120 120h60l-150 -180h-60l-150 180h60z" />
    <glyph glyph-name="rcaron" unicode="&#x159;" horiz-adv-x="455" 
d="M315 455q-24 0 -48 -12.5t-41.5 -30t-32 -35t-21.5 -29.5l-7 -13v-335h-85v520h80l5 -85h5q2 4 6 11t18.5 24t31 30t43.5 24t56 11q38 0 68 -11.5t41 -22.5l11 -11l-25 -75q-3 4 -10 11t-34.5 18t-60.5 11zM135 780l120 -120l120 120h60l-150 -180h-60l-150 180h60z" />
    <glyph glyph-name="Sacute" unicode="&#x15a;" horiz-adv-x="560" 
d="M285 745q38 0 73 -7.5t58 -18.5t40.5 -22.5t25.5 -18.5l8 -8l-35 -75q-7 7 -21 18t-58 29t-91 18q-62 0 -93.5 -26.5t-31.5 -73.5q0 -34 26.5 -62.5t66.5 -47.5t87 -43.5t87 -49.5t66.5 -66t26.5 -91q0 -95 -64.5 -155t-175.5 -60q-43 0 -84 10.5t-68 25t-48 29t-30 24.5
l-10 11l35 75q3 -4 8.5 -10t25 -21.5t41 -27.5t57 -21.5t73.5 -9.5q69 0 107 33t38 87q0 45 -37 79t-90 59t-106 52.5t-90 74t-37 110.5q0 78 59 129t161 51zM240 800l80 180h100l-120 -180h-60z" />
    <glyph glyph-name="sacute" unicode="&#x15b;" horiz-adv-x="475" 
d="M440 145q0 -74 -51.5 -117t-153.5 -43q-56 0 -106 16.5t-72 32.5l-22 16l20 75q3 -2 8.5 -6.5t23.5 -14.5t38 -18t51.5 -14.5t63.5 -6.5q115 0 115 75q0 33 -32 53.5t-77.5 32.5t-91 27.5t-77.5 49.5t-32 87q0 62 48 103.5t132 41.5q36 0 69.5 -7.5t55.5 -19t38.5 -22.5
t23.5 -18l8 -8l-35 -70q-6 7 -18 18t-53.5 29t-88.5 18t-71 -19.5t-24 -50.5q0 -27 32 -44.5t77.5 -29.5t91 -27.5t77.5 -50.5t32 -88zM195 600l80 180h100l-120 -180h-60z" />
    <glyph glyph-name="Scedilla" unicode="&#x15e;" horiz-adv-x="560" 
d="M285 745q38 0 73 -7.5t58 -18.5t40.5 -22.5t25.5 -18.5l8 -8l-35 -75q-7 7 -21 18t-58 29t-91 18q-62 0 -93.5 -26.5t-31.5 -73.5q0 -34 26.5 -62.5t66.5 -47.5t87 -43.5t87 -49.5t66.5 -66t26.5 -91q0 -90 -58.5 -149t-156.5 -66l-15 -35q53 -8 81.5 -33.5t28.5 -66.5
q0 -43 -34.5 -71.5t-95.5 -28.5q-24 0 -45.5 5t-30.5 10l-9 5v50q30 -20 70 -20q70 0 70 50q0 24 -25 39t-50 18l-25 3l30 75q-38 3 -74 14t-60.5 25.5t-43.5 28t-28 23.5l-9 9l35 75q3 -4 8.5 -10t25 -21.5t41 -27.5t57 -21.5t73.5 -9.5q69 0 107 33t38 87q0 45 -37 79
t-90 59t-106 52.5t-90 74t-37 110.5q0 78 59 129t161 51z" />
    <glyph glyph-name="scedilla" unicode="&#x15f;" horiz-adv-x="475" 
d="M440 145q0 -69 -46 -111t-134 -49l-15 -35q53 -8 81.5 -33.5t28.5 -66.5q0 -43 -34.5 -71.5t-95.5 -28.5q-24 0 -45.5 5t-30.5 10l-9 5v50q30 -20 70 -20q70 0 70 50q0 24 -25 39t-50 18l-25 3l30 75q-47 4 -90.5 20.5t-63.5 30.5l-21 14l20 75q3 -2 8.5 -6.5t23.5 -14.5
t38 -18t51.5 -14.5t63.5 -6.5q115 0 115 75q0 33 -32 53.5t-77.5 32.5t-91 27.5t-77.5 49.5t-32 87q0 62 48 103.5t132 41.5q36 0 69.5 -7.5t55.5 -19t38.5 -22.5t23.5 -18l8 -8l-35 -70q-6 7 -18 18t-53.5 29t-88.5 18t-71 -19.5t-24 -50.5q0 -27 32 -44.5t77.5 -29.5
t91 -27.5t77.5 -50.5t32 -88z" />
    <glyph glyph-name="Scaron" unicode="&#x160;" horiz-adv-x="560" 
d="M285 745q38 0 73 -7.5t58 -18.5t40.5 -22.5t25.5 -18.5l8 -8l-35 -75q-7 7 -21 18t-58 29t-91 18q-62 0 -93.5 -26.5t-31.5 -73.5q0 -34 26.5 -62.5t66.5 -47.5t87 -43.5t87 -49.5t66.5 -66t26.5 -91q0 -95 -64.5 -155t-175.5 -60q-43 0 -84 10.5t-68 25t-48 29t-30 24.5
l-10 11l35 75q3 -4 8.5 -10t25 -21.5t41 -27.5t57 -21.5t73.5 -9.5q69 0 107 33t38 87q0 45 -37 79t-90 59t-106 52.5t-90 74t-37 110.5q0 78 59 129t161 51zM160 980l120 -120l120 120h60l-150 -180h-60l-150 180h60z" />
    <glyph glyph-name="scaron" unicode="&#x161;" horiz-adv-x="475" 
d="M440 145q0 -74 -51.5 -117t-153.5 -43q-56 0 -106 16.5t-72 32.5l-22 16l20 75q3 -2 8.5 -6.5t23.5 -14.5t38 -18t51.5 -14.5t63.5 -6.5q115 0 115 75q0 33 -32 53.5t-77.5 32.5t-91 27.5t-77.5 49.5t-32 87q0 62 48 103.5t132 41.5q36 0 69.5 -7.5t55.5 -19t38.5 -22.5
t23.5 -18l8 -8l-35 -70q-6 7 -18 18t-53.5 29t-88.5 18t-71 -19.5t-24 -50.5q0 -27 32 -44.5t77.5 -29.5t91 -27.5t77.5 -50.5t32 -88zM110 780l120 -120l120 120h60l-150 -180h-60l-150 180h60z" />
    <glyph glyph-name="Tcommaaccent" unicode="&#x162;" horiz-adv-x="610" 
d="M30 730h550v-85h-230v-645h-90v645h-230v85zM355 -130q0 -44 -16.5 -81.5t-32.5 -52.5l-16 -16h-30q5 6 12.5 16t20 40t12.5 59q-20 0 -32.5 11.5t-12.5 33.5q0 25 12.5 37.5t32.5 12.5q50 0 50 -60z" />
    <glyph glyph-name="tcommaaccent" unicode="&#x163;" horiz-adv-x="425" 
d="M115 160v280h-100v30l180 205h5v-155h165v-80h-165v-280q0 -95 80 -95q24 0 46.5 10t33.5 20l10 10h15v-75q-5 -5 -14.5 -12.5t-39.5 -20t-61 -12.5q-69 0 -112 47t-43 128zM295 -130q0 -44 -16.5 -81.5t-32.5 -52.5l-16 -16h-30q5 6 12.5 16t20 40t12.5 59
q-20 0 -32.5 11.5t-12.5 33.5q0 25 12.5 37.5t32.5 12.5q50 0 50 -60z" />
    <glyph glyph-name="Tcaron" unicode="&#x164;" horiz-adv-x="610" 
d="M30 730h550v-85h-230v-645h-90v645h-230v85zM185 980l120 -120l120 120h60l-150 -180h-60l-150 180h60z" />
    <glyph glyph-name="tcaron" unicode="&#x165;" horiz-adv-x="470" 
d="M115 160v280h-100v30l180 205h5v-155h165v-80h-165v-280q0 -95 80 -95q24 0 46.5 10t33.5 20l10 10h15v-75q-5 -5 -14.5 -12.5t-39.5 -20t-61 -12.5q-69 0 -112 47t-43 128zM500 630q0 -44 -16 -81.5t-32 -52.5l-17 -16h-30q5 6 12.5 16t20 40t12.5 59q-20 0 -32.5 11.5
t-12.5 33.5q0 25 12.5 37.5t32.5 12.5q50 0 50 -60z" />
    <glyph glyph-name="Umacron" unicode="&#x16a;" horiz-adv-x="750" 
d="M90 730h90v-465q0 -90 52.5 -142.5t142.5 -52.5t142.5 52.5t52.5 142.5v465h90v-465q0 -128 -77 -204t-208 -76t-208 76t-77 204v465zM200 850v70h350v-70h-350z" />
    <glyph glyph-name="umacron" unicode="&#x16b;" horiz-adv-x="635" 
d="M80 520h85v-320q0 -135 135 -135q71 0 120.5 49.5t49.5 120.5v285h85v-520h-80l-5 85h-5q-2 -4 -6 -11t-19.5 -24t-34 -30t-49.5 -24t-66 -11q-98 0 -154 57t-56 158v320zM145 650v70h350v-70h-350z" />
    <glyph glyph-name="Uring" unicode="&#x16e;" horiz-adv-x="750" 
d="M90 730h90v-465q0 -90 52.5 -142.5t142.5 -52.5t142.5 52.5t52.5 142.5v465h90v-465q0 -128 -77 -204t-208 -76t-208 76t-77 204v465zM260 905q0 52 32.5 83.5t82.5 31.5t82.5 -31.5t32.5 -83.5t-32.5 -83.5t-82.5 -31.5t-82.5 31.5t-32.5 83.5zM320 905q0 -25 16 -40
t39 -15t39 15t16 40t-16 40t-39 15q-24 0 -39.5 -14.5t-15.5 -40.5z" />
    <glyph glyph-name="uring" unicode="&#x16f;" horiz-adv-x="635" 
d="M80 520h85v-320q0 -135 135 -135q71 0 120.5 49.5t49.5 120.5v285h85v-520h-80l-5 85h-5q-2 -4 -6 -11t-19.5 -24t-34 -30t-49.5 -24t-66 -11q-98 0 -154 57t-56 158v320zM205 695q0 52 32.5 83.5t82.5 31.5t82.5 -31.5t32.5 -83.5t-32.5 -83.5t-82.5 -31.5t-82.5 31.5
t-32.5 83.5zM265 695q0 -25 16 -40t39 -15t39 15t16 40t-16 40t-39 15q-24 0 -39.5 -14.5t-15.5 -40.5z" />
    <glyph glyph-name="Uhungarumlaut" unicode="&#x170;" horiz-adv-x="750" 
d="M90 730h90v-465q0 -90 52.5 -142.5t142.5 -52.5t142.5 52.5t52.5 142.5v465h90v-465q0 -128 -77 -204t-208 -76t-208 76t-77 204v465zM265 800l60 180h95l-110 -180h-45zM410 800l80 180h95l-120 -180h-55z" />
    <glyph glyph-name="uhungarumlaut" unicode="&#x171;" horiz-adv-x="635" 
d="M80 520h85v-320q0 -135 135 -135q71 0 120.5 49.5t49.5 120.5v285h85v-520h-80l-5 85h-5q-2 -4 -6 -11t-19.5 -24t-34 -30t-49.5 -24t-66 -11q-98 0 -154 57t-56 158v320zM215 600l60 180h95l-110 -180h-45zM360 600l80 180h95l-120 -180h-55z" />
    <glyph glyph-name="Uogonek" unicode="&#x172;" horiz-adv-x="750" 
d="M90 730h90v-465q0 -90 52.5 -142.5t142.5 -52.5t142.5 52.5t52.5 142.5v465h90v-465q0 -99 -48 -169t-137 -96q-4 -2 -11.5 -6t-26.5 -17t-33.5 -27.5t-26.5 -37.5t-12 -47q0 -33 16.5 -49t43.5 -16q13 0 25.5 4t18.5 8l6 3v-45q-20 -20 -70 -20q-52 0 -81 27t-29 73
q0 38 25 71.5t50 48.5l25 15h-20q-131 0 -208 76t-77 204v465z" />
    <glyph glyph-name="uogonek" unicode="&#x173;" horiz-adv-x="635" 
d="M505 0h-30l-5 85h-5q-2 -4 -6 -11t-19.5 -24t-34 -30t-49.5 -24t-66 -11q-98 0 -154 57t-56 158v320h85v-320q0 -135 135 -135q71 0 120.5 49.5t49.5 120.5v285h85v-520q-4 -2 -11.5 -6t-26.5 -17t-33.5 -27.5t-26.5 -37.5t-12 -47q0 -33 16.5 -49t43.5 -16q13 0 25.5 4
t18.5 8l6 3v-45q-20 -20 -70 -20q-52 0 -81 27t-29 73q0 44 32.5 81.5t64.5 52.5z" />
    <glyph glyph-name="Ydieresis" unicode="&#x178;" horiz-adv-x="670" 
d="M380 295v-295h-90v295l-280 435h105l220 -350l220 350h105zM180 885q0 25 16 40t39 15t39 -15t16 -40t-16 -40t-39 -15t-39 15t-16 40zM380 885q0 25 16 40t39 15t39 -15t16 -40t-16 -40t-39 -15t-39 15t-16 40z" />
    <glyph glyph-name="Zacute" unicode="&#x179;" horiz-adv-x="640" 
d="M40 60l415 585h-395v85h520v-60l-415 -585h425v-85h-550v60zM280 800l80 180h100l-120 -180h-60z" />
    <glyph glyph-name="zacute" unicode="&#x17a;" horiz-adv-x="540" 
d="M50 440v80h440v-60l-335 -380h345v-80h-470v60l335 380h-315zM235 600l80 180h100l-120 -180h-60z" />
    <glyph glyph-name="Zdotaccent" unicode="&#x17b;" horiz-adv-x="640" 
d="M40 60l415 585h-395v85h520v-60l-415 -585h425v-85h-550v60zM265 885q0 25 16 40t39 15t39 -15t16 -40t-16 -40t-39 -15t-39 15t-16 40z" />
    <glyph glyph-name="zdotaccent" unicode="&#x17c;" horiz-adv-x="540" 
d="M50 440v80h440v-60l-335 -380h345v-80h-470v60l335 380h-315zM215 685q0 25 16 40t39 15t39 -15t16 -40t-16 -40t-39 -15t-39 15t-16 40z" />
    <glyph glyph-name="Zcaron" unicode="&#x17d;" horiz-adv-x="640" 
d="M40 60l415 585h-395v85h520v-60l-415 -585h425v-85h-550v60zM200 980l120 -120l120 120h60l-150 -180h-60l-150 180h60z" />
    <glyph glyph-name="zcaron" unicode="&#x17e;" horiz-adv-x="540" 
d="M50 440v80h440v-60l-335 -380h345v-80h-470v60l335 380h-315zM145 780l120 -120l120 120h60l-150 -180h-60l-150 180h60z" />
    <glyph glyph-name="florin" unicode="&#x192;" horiz-adv-x="430" 
d="M65 -20l80 460h-90v80h105l20 95q19 89 62.5 132t117.5 43q31 0 57.5 -11t36.5 -23l11 -11v-80q-4 5 -11.5 12.5t-35 20t-58.5 12.5q-40 0 -62 -22.5t-33 -72.5l-20 -95h160v-80h-175l-80 -460q-17 -95 -66.5 -144t-138.5 -56v80q56 7 83 35t37 85z" />
    <glyph glyph-name="Scommaaccent" unicode="&#x218;" horiz-adv-x="560" 
d="M285 745q38 0 73 -7.5t58 -18.5t40.5 -22.5t25.5 -18.5l8 -8l-35 -75q-7 7 -21 18t-58 29t-91 18q-62 0 -93.5 -26.5t-31.5 -73.5q0 -34 26.5 -62.5t66.5 -47.5t87 -43.5t87 -49.5t66.5 -66t26.5 -91q0 -95 -64.5 -155t-175.5 -60q-43 0 -84 10.5t-68 25t-48 29t-30 24.5
l-10 11l35 75q3 -4 8.5 -10t25 -21.5t41 -27.5t57 -21.5t73.5 -9.5q69 0 107 33t38 87q0 45 -37 79t-90 59t-106 52.5t-90 74t-37 110.5q0 78 59 129t161 51zM330 -130q0 -44 -16 -81.5t-32 -52.5l-17 -16h-30q5 6 12.5 16t20 40t12.5 59q-20 0 -32.5 11.5t-12.5 33.5
q0 25 12.5 37.5t32.5 12.5q50 0 50 -60z" />
    <glyph glyph-name="scommaaccent" unicode="&#x219;" horiz-adv-x="475" 
d="M440 145q0 -74 -51.5 -117t-153.5 -43q-56 0 -106 16.5t-72 32.5l-22 16l20 75q3 -2 8.5 -6.5t23.5 -14.5t38 -18t51.5 -14.5t63.5 -6.5q115 0 115 75q0 33 -32 53.5t-77.5 32.5t-91 27.5t-77.5 49.5t-32 87q0 62 48 103.5t132 41.5q36 0 69.5 -7.5t55.5 -19t38.5 -22.5
t23.5 -18l8 -8l-35 -70q-6 7 -18 18t-53.5 29t-88.5 18t-71 -19.5t-24 -50.5q0 -27 32 -44.5t77.5 -29.5t91 -27.5t77.5 -50.5t32 -88zM290 -130q0 -44 -16 -81.5t-32 -52.5l-17 -16h-30q5 6 12.5 16t20 40t12.5 59q-20 0 -32.5 11.5t-12.5 33.5q0 25 12.5 37.5t32.5 12.5
q50 0 50 -60z" />
    <glyph glyph-name="uni021A" unicode="&#x21a;" horiz-adv-x="610" 
d="M30 730h550v-85h-230v-645h-90v645h-230v85zM355 -130q0 -44 -16.5 -81.5t-32.5 -52.5l-16 -16h-30q5 6 12.5 16t20 40t12.5 59q-20 0 -32.5 11.5t-12.5 33.5q0 25 12.5 37.5t32.5 12.5q50 0 50 -60z" />
    <glyph glyph-name="uni021B" unicode="&#x21b;" horiz-adv-x="425" 
d="M115 160v280h-100v30l180 205h5v-155h165v-80h-165v-280q0 -95 80 -95q24 0 46.5 10t33.5 20l10 10h15v-75q-5 -5 -14.5 -12.5t-39.5 -20t-61 -12.5q-69 0 -112 47t-43 128zM295 -130q0 -44 -16.5 -81.5t-32.5 -52.5l-16 -16h-30q5 6 12.5 16t20 40t12.5 59
q-20 0 -32.5 11.5t-12.5 33.5q0 25 12.5 37.5t32.5 12.5q50 0 50 -60z" />
    <glyph glyph-name="afii57929" unicode="&#x2bc;" horiz-adv-x="155" 
d="M125 720q0 -44 -16.5 -81.5t-32.5 -52.5l-16 -16h-30q5 6 12.5 16t20 40t12.5 59q-20 0 -32.5 11.5t-12.5 33.5q0 25 12.5 37.5t32.5 12.5q50 0 50 -60z" />
    <glyph glyph-name="circumflex" unicode="&#x2c6;" horiz-adv-x="420" 
d="M210 710l-120 -120h-60l150 180h60l150 -180h-60z" />
    <glyph glyph-name="caron" unicode="&#x2c7;" horiz-adv-x="420" 
d="M90 770l120 -120l120 120h60l-150 -180h-60l-150 180h60z" />
    <glyph glyph-name="breve" unicode="&#x2d8;" horiz-adv-x="380" 
d="M190 630q-47 0 -87 12.5t-57 25.5l-16 12v90l6.5 -6.5t19.5 -14.5t32 -18t45 -14.5t57 -6.5q47 0 87 15t57 30l16 15v-90q-6 -6 -18 -14t-53.5 -22t-88.5 -14z" />
    <glyph glyph-name="dotaccent" unicode="&#x2d9;" horiz-adv-x="170" 
d="M30 695q0 25 16 40t39 15t39 -15t16 -40t-16 -40t-39 -15t-39 15t-16 40z" />
    <glyph glyph-name="ring" unicode="&#x2da;" horiz-adv-x="290" 
d="M30 685q0 52 32.5 83.5t82.5 31.5t82.5 -31.5t32.5 -83.5t-32.5 -83.5t-82.5 -31.5t-82.5 31.5t-32.5 83.5zM90 685q0 -25 16 -40t39 -15t39 15t16 40t-16 40t-39 15q-24 0 -39.5 -14.5t-15.5 -40.5z" />
    <glyph glyph-name="ogonek" unicode="&#x2db;" horiz-adv-x="240" 
d="M160 0h50q-4 -2 -11.5 -6t-26.5 -17t-33.5 -27.5t-26.5 -37.5t-12 -47q0 -33 16 -49t44 -16q13 0 25.5 4t18.5 8l6 3v-45q-20 -20 -70 -20q-52 0 -81 27t-29 73q0 44 32.5 81.5t65.5 52.5z" />
    <glyph glyph-name="tilde" unicode="&#x2dc;" horiz-adv-x="410" 
d="M125 680q-27 0 -50.5 -12.5t-34.5 -25.5l-10 -12v70q3 6 10 14t31.5 22t53.5 14q37 0 85.5 -27.5t74.5 -27.5q27 0 50.5 12.5t34.5 24.5l10 13v-70q-3 -6 -10 -14t-31.5 -22t-53.5 -14q-37 0 -85.5 27.5t-74.5 27.5z" />
    <glyph glyph-name="hungarumlaut" unicode="&#x2dd;" horiz-adv-x="380" 
d="M30 590l60 180h95l-110 -180h-45zM175 590l80 180h95l-120 -180h-55z" />
    <glyph glyph-name="afii10023" unicode="&#x401;" horiz-adv-x="615" 
d="M100 0v730h450v-85h-360v-230h285v-85h-285v-245h360v-85h-450zM175 885q0 25 16 40t39 15t39 -15t16 -40t-16 -40t-39 -15t-39 15t-16 40zM375 885q0 25 16 40t39 15t39 -15t16 -40t-16 -40t-39 -15t-39 15t-16 40z" />
    <glyph glyph-name="afii10051" unicode="&#x402;" horiz-adv-x="775" 
d="M640 225q0 76 -45 118t-130 42q-49 0 -95 -13.5t-68 -27.5l-22 -14v-330h-90v645h-170v85h490v-85h-230v-225q8 6 24 14t68 22t108 14q116 0 183 -66t67 -179q0 -112 -58 -180.5t-152 -84.5l-15 85q135 25 135 180z" />
    <glyph glyph-name="afii10052" unicode="&#x403;" horiz-adv-x="525" 
d="M100 730h405v-85h-315v-645h-90v730zM270 800l80 180h100l-120 -180h-60z" />
    <glyph glyph-name="afii10053" unicode="&#x404;" horiz-adv-x="740" 
d="M430 -15q-158 0 -266.5 109.5t-108.5 270.5t108.5 270.5t266.5 109.5q52 0 97.5 -11t74 -26.5t49.5 -30.5t30 -26l9 -11l-35 -75q-3 4 -8 10.5t-24.5 22.5t-42 28.5t-60.5 23t-80 10.5q-120 0 -197 -70.5t-93 -179.5h375v-85h-375q16 -112 93 -183.5t197 -71.5
q42 0 80.5 12.5t64 30t44.5 35t27 30.5l9 12h15v-100q-3 -4 -9 -11t-28.5 -25.5t-49 -32t-70.5 -25t-93 -11.5z" />
    <glyph glyph-name="afii10054" unicode="&#x405;" horiz-adv-x="560" 
d="M285 745q38 0 73 -7.5t58 -18.5t40.5 -22.5t25.5 -18.5l8 -8l-35 -75q-7 7 -21 18t-58 29t-91 18q-62 0 -93.5 -26.5t-31.5 -73.5q0 -34 26.5 -62.5t66.5 -47.5t87 -43.5t87 -49.5t66.5 -66t26.5 -91q0 -95 -64.5 -155t-175.5 -60q-43 0 -84 10.5t-68 25t-48 29t-30 24.5
l-10 11l35 75q3 -4 8.5 -10t25 -21.5t41 -27.5t57 -21.5t73.5 -9.5q69 0 107 33t38 87q0 45 -37 79t-90 59t-106 52.5t-90 74t-37 110.5q0 78 59 129t161 51z" />
    <glyph glyph-name="afii10055" unicode="&#x406;" horiz-adv-x="290" 
d="M190 730v-730h-90v730h90z" />
    <glyph glyph-name="afii10056" unicode="&#x407;" horiz-adv-x="290" 
d="M190 730v-730h-90v730h90zM-10 885q0 25 16 40t39 15t39 -15t16 -40t-16 -40t-39 -15t-39 15t-16 40zM190 885q0 25 16 40t39 15t39 -15t16 -40t-16 -40t-39 -15t-39 15t-16 40z" />
    <glyph glyph-name="afii10057" unicode="&#x408;" horiz-adv-x="305" 
d="M115 35v695h90v-695q0 -182 -190 -205l-15 85q61 8 88 34.5t27 85.5z" />
    <glyph glyph-name="afii10058" unicode="&#x409;" horiz-adv-x="995" 
d="M585 730v-250h95q122 0 191 -65t69 -175t-69 -175t-191 -65h-185v645h-235l-30 -355q-13 -153 -65.5 -223.5t-144.5 -86.5l-20 90q60 12 92 59t43 161l40 440h410zM585 395v-310h95q78 0 121.5 41.5t43.5 113.5t-43.5 113.5t-121.5 41.5h-95z" />
    <glyph glyph-name="afii10059" unicode="&#x40a;" horiz-adv-x="1035" 
d="M615 730v-280h120q115 0 180 -61t65 -164t-65 -164t-180 -61h-210v365h-335v-365h-90v730h90v-280h335v280h90zM615 365v-280h120q71 0 110.5 38t39.5 102t-39.5 102t-110.5 38h-120z" />
    <glyph glyph-name="afii10060" unicode="&#x40b;" horiz-adv-x="810" 
d="M20 730h490v-85h-230v-225q8 6 24 14t68 22t108 14q116 0 183 -66t67 -179v-225h-90v225q0 76 -45 118t-130 42q-49 0 -95 -13.5t-68 -27.5l-22 -14v-330h-90v645h-170v85z" />
    <glyph glyph-name="afii10061" unicode="&#x40c;" horiz-adv-x="680" 
d="M190 730v-350l350 350h115l-350 -350l375 -380h-120l-370 375v-375h-90v730h90zM320 800l80 180h100l-120 -180h-60z" />
    <glyph glyph-name="afii10062" unicode="&#x40e;" horiz-adv-x="645" 
d="M265 150l25 50l-280 530h95l228 -435h4l213 435h95l-285 -580q-48 -97 -82 -131t-98 -34l-30 5l-15 90q10 -10 45 -10q28 0 46 19t39 61zM335 800q-47 0 -87 12.5t-56 25.5l-17 12v90l6.5 -6.5t19.5 -14.5t32 -18t45 -14.5t57 -6.5q47 0 87 15t56 30l17 15v-90
q-6 -6 -18 -14t-53.5 -22t-88.5 -14z" />
    <glyph glyph-name="afii10145" unicode="&#x40f;" horiz-adv-x="770" 
d="M340 0h-240v730h90v-645h390v645h90v-730h-240v-160h-90v160z" />
    <glyph glyph-name="afii10017" unicode="&#x410;" horiz-adv-x="755" 
d="M530 285l-150 330h-5l-150 -330h305zM570 200h-385l-90 -200h-95l335 730h85l335 -730h-95z" />
    <glyph glyph-name="afii10018" unicode="&#x411;" horiz-adv-x="640" 
d="M190 375v-290h140q74 0 114.5 38.5t40.5 106.5t-40.5 106.5t-114.5 38.5h-140zM190 645v-185h140q119 0 184.5 -62t65.5 -168t-65.5 -168t-184.5 -62h-230v730h435v-85h-345z" />
    <glyph glyph-name="afii10019" unicode="&#x412;" horiz-adv-x="640" 
d="M305 730q117 0 178.5 -53t61.5 -142q0 -35 -10.5 -63.5t-25 -44t-29 -25.5t-24.5 -14l-11 -3v-5q5 -1 14.5 -4t32.5 -16t41 -30.5t32.5 -50.5t14.5 -74q0 -93 -65 -149t-185 -56h-230v730h205zM190 335v-250h140q77 0 116 33.5t39 91.5t-39 91.5t-116 33.5h-140zM305 645
h-115v-230h115q73 0 109 30.5t36 84.5t-36 84.5t-109 30.5z" />
    <glyph glyph-name="afii10020" unicode="&#x413;" horiz-adv-x="525" 
d="M100 730h405v-85h-315v-645h-90v730z" />
    <glyph glyph-name="afii10021" unicode="&#x414;" horiz-adv-x="740" 
d="M5 -160v245h55q7 7 18 22t32 80.5t25 152.5l20 390h465v-645h90v-245h-90v160h-525v-160h-90zM240 645l-15 -305q-3 -54 -11 -100.5t-18 -73.5t-19.5 -46.5t-15.5 -27.5l-6 -7h375v560h-290z" />
    <glyph glyph-name="afii10022" unicode="&#x415;" horiz-adv-x="615" 
d="M100 0v730h450v-85h-360v-230h285v-85h-285v-245h360v-85h-450z" />
    <glyph glyph-name="afii10024" unicode="&#x416;" horiz-adv-x="1010" 
d="M460 380v350h90v-350l320 350h115l-325 -350l350 -380h-120l-340 375v-375h-90v375l-340 -375h-120l350 380l-325 350h115z" />
    <glyph glyph-name="afii10025" unicode="&#x417;" horiz-adv-x="595" 
d="M195 340v80h80q66 0 100.5 31.5t34.5 88.5t-34.5 88.5t-100.5 31.5q-32 0 -62.5 -9.5t-51 -22.5t-36 -26t-23.5 -22l-7 -10h-15v90q3 3 8.5 9t24 20.5t39.5 26t54.5 20.5t68.5 9q107 0 168.5 -56t61.5 -144q0 -36 -12 -65.5t-28.5 -45.5t-33.5 -26.5t-29 -13.5l-12 -4v-5
q6 -1 15.5 -4t33.5 -16.5t42.5 -32t33.5 -54t15 -78.5q0 -93 -69 -154t-186 -61q-64 0 -121.5 22.5t-83.5 44.5l-25 23l30 75q3 -3 9 -8.5t25.5 -19.5t41 -24.5t55.5 -19t69 -8.5q77 0 118.5 36.5t41.5 98.5t-41.5 98.5t-118.5 36.5h-80z" />
    <glyph glyph-name="afii10026" unicode="&#x418;" horiz-adv-x="790" 
d="M690 730v-730h-90v585l-415 -585h-85v730h90v-585l415 585h85z" />
    <glyph glyph-name="afii10027" unicode="&#x419;" horiz-adv-x="790" 
d="M690 730v-730h-90v585l-415 -585h-85v730h90v-585l415 585h85zM395 800q-47 0 -87 12.5t-56 25.5l-17 12v90l6.5 -6.5t19.5 -14.5t32 -18t45 -14.5t57 -6.5q47 0 87 15t56 30l17 15v-90q-6 -6 -18 -14t-53.5 -22t-88.5 -14z" />
    <glyph glyph-name="afii10028" unicode="&#x41a;" horiz-adv-x="680" 
d="M190 730v-350l350 350h115l-350 -350l375 -380h-120l-370 375v-375h-90v730h90z" />
    <glyph glyph-name="afii10029" unicode="&#x41b;" horiz-adv-x="720" 
d="M260 645l-30 -355q-13 -153 -65.5 -223.5t-144.5 -86.5l-20 90q60 12 92 59t43 161l40 440h445v-730h-90v645h-270z" />
    <glyph glyph-name="afii10030" unicode="&#x41c;" horiz-adv-x="966" 
d="M445 0l-190 545h-5l-90 -545h-95l125 730h85l205 -595h5l206 595h85l125 -730h-95l-90 545h-5l-191 -545h-75z" />
    <glyph glyph-name="afii10031" unicode="&#x41d;" horiz-adv-x="770" 
d="M670 730v-730h-90v330h-390v-330h-90v730h90v-315h390v315h90z" />
    <glyph glyph-name="afii10032" unicode="&#x41e;" horiz-adv-x="870" 
d="M150 365q0 -131 80.5 -213t204.5 -82t204.5 82t80.5 213t-80.5 213t-204.5 82t-204.5 -82t-80.5 -213zM815 365q0 -161 -109.5 -270.5t-270.5 -109.5t-270.5 109.5t-109.5 270.5t109.5 270.5t270.5 109.5t270.5 -109.5t109.5 -270.5z" />
    <glyph glyph-name="afii10033" unicode="&#x41f;" horiz-adv-x="770" 
d="M670 730v-730h-90v645h-390v-645h-90v730h570z" />
    <glyph glyph-name="afii10034" unicode="&#x420;" horiz-adv-x="635" 
d="M190 250v-250h-90v730h215q122 0 191 -65t69 -175t-69 -175t-191 -65h-125zM190 645v-310h125q78 0 121.5 41.5t43.5 113.5t-43.5 113.5t-121.5 41.5h-125z" />
    <glyph glyph-name="afii10035" unicode="&#x421;" horiz-adv-x="740" 
d="M150 365q0 -131 81 -213t209 -82q42 0 80.5 12.5t64 30t44.5 35t27 30.5l9 12h15v-100q-3 -4 -9 -11t-28.5 -25.5t-49 -32t-70.5 -25t-93 -11.5q-158 0 -266.5 109.5t-108.5 270.5t108.5 270.5t266.5 109.5q52 0 97.5 -11t74 -26.5t49.5 -30.5t30 -26l9 -11l-35 -75
q-3 4 -8 10.5t-24.5 22.5t-42 28.5t-60.5 23t-80 10.5q-128 0 -209 -82t-81 -213z" />
    <glyph glyph-name="afii10036" unicode="&#x422;" horiz-adv-x="610" 
d="M30 730h550v-85h-230v-645h-90v645h-230v85z" />
    <glyph glyph-name="afii10037" unicode="&#x423;" horiz-adv-x="645" 
d="M265 150l25 50l-280 530h95l228 -435h4l213 435h95l-285 -580q-48 -97 -82 -131t-98 -34l-30 5l-15 90q10 -10 45 -10q28 0 46 19t39 61z" />
    <glyph glyph-name="afii10038" unicode="&#x424;" horiz-adv-x="920" 
d="M415 -10v80q-172 7 -268.5 93t-96.5 217t96.5 217t268.5 93v80h90v-80q172 -7 268.5 -93t96.5 -217t-96.5 -217t-268.5 -93v-80h-90zM505 605v-450q131 4 203 66t72 159t-72 159t-203 66zM415 155v450q-131 -4 -203 -66t-72 -159t72 -159t203 -66z" />
    <glyph glyph-name="afii10039" unicode="&#x425;" horiz-adv-x="690" 
d="M345 310l-220 -310h-105l265 375l-250 355h105l205 -290l205 290h105l-250 -355l265 -375h-105z" />
    <glyph glyph-name="afii10040" unicode="&#x426;" horiz-adv-x="770" 
d="M100 0v730h90v-645h370v645h90v-645h90v-245h-90v160h-550z" />
    <glyph glyph-name="afii10041" unicode="&#x427;" horiz-adv-x="730" 
d="M540 0v285q-8 -6 -24 -14t-68 -22t-108 -14q-116 0 -183 66t-67 179v250h90v-250q0 -76 45 -118t130 -42q49 0 95 14t68 28l22 13v355h90v-730h-90z" />
    <glyph glyph-name="afii10042" unicode="&#x428;" horiz-adv-x="1100" 
d="M100 0v730h90v-645h315v645h90v-645h315v645h90v-730h-900z" />
    <glyph glyph-name="afii10043" unicode="&#x429;" horiz-adv-x="1120" 
d="M100 0v730h90v-645h315v645h90v-645h315v645h90v-645h90v-245h-90v160h-900z" />
    <glyph glyph-name="afii10044" unicode="&#x42a;" horiz-adv-x="695" 
d="M265 730v-250h115q122 0 191 -65t69 -175t-69 -175t-191 -65h-205v645h-155v85h245zM265 395v-310h115q78 0 121.5 41.5t43.5 113.5t-43.5 113.5t-121.5 41.5h-115z" />
    <glyph glyph-name="afii10045" unicode="&#x42b;" horiz-adv-x="880" 
d="M780 730v-730h-90v730h90zM190 730v-250h115q122 0 191 -65t69 -175t-69 -175t-191 -65h-205v730h90zM190 395v-310h115q78 0 121.5 41.5t43.5 113.5t-43.5 113.5t-121.5 41.5h-115z" />
    <glyph glyph-name="afii10046" unicode="&#x42c;" horiz-adv-x="630" 
d="M190 730v-250h125q122 0 191 -65t69 -175t-69 -175t-191 -65h-215v730h90zM190 395v-310h125q78 0 121.5 41.5t43.5 113.5t-43.5 113.5t-121.5 41.5h-125z" />
    <glyph glyph-name="afii10047" unicode="&#x42d;" horiz-adv-x="740" 
d="M310 -15q-50 0 -96 10t-75.5 23.5t-51.5 27.5t-32 24l-10 10l35 75l9 -9t26.5 -20.5t44 -26t61.5 -20.5t79 -9q120 0 197 71.5t93 183.5h-375v85h375q-15 111 -93.5 180.5t-196.5 69.5q-42 0 -80.5 -12.5t-63.5 -30t-44.5 -35t-27.5 -30.5l-9 -12h-15v100q3 4 9 11
t28.5 25.5t49 32t70.5 25t93 11.5q158 0 266.5 -109.5t108.5 -270.5t-108.5 -270.5t-266.5 -109.5z" />
    <glyph glyph-name="afii10048" unicode="&#x42e;" horiz-adv-x="1080" 
d="M1025 365q0 -167 -102.5 -273.5t-257.5 -106.5q-148 0 -246.5 95.5t-113.5 244.5h-115v-325h-90v730h90v-320h115q15 145 114 240t246 95q155 0 257.5 -106.5t102.5 -273.5zM665 70q118 0 191.5 79t73.5 216t-73.5 216t-191.5 79t-191.5 -79t-73.5 -216t73.5 -216
t191.5 -79z" />
    <glyph glyph-name="afii10049" unicode="&#x42f;" horiz-adv-x="650" 
d="M460 345v300h-125q-74 0 -117 -41t-43 -109t43 -109t117 -41h125zM35 0l195 280v5q-6 2 -16 5.5t-36 19.5t-46 37.5t-36 60.5t-16 87q0 106 68 170.5t187 64.5h215v-730h-90v265h-135l-180 -265h-110z" />
    <glyph glyph-name="afii10065" unicode="&#x430;" 
d="M235 65q36 0 67.5 13t50.5 31.5t32.5 36.5t18.5 31l6 13q-7 4 -19.5 11t-53 18t-82.5 11q-115 0 -115 -85q0 -38 25 -59t70 -21zM285 535q97 0 153.5 -55.5t56.5 -149.5v-330h-80l-5 85h-5l-5.5 -11t-18.5 -24t-33 -30t-49.5 -24t-67.5 -11q-79 0 -127.5 44.5
t-48.5 115.5q0 75 49.5 120t135.5 45q49 0 91.5 -10t60.5 -20l18 -10v60q0 125 -135 125q-32 0 -63.5 -7.5t-53.5 -18.5t-39 -22.5t-25 -18.5l-9 -8h-15v85q10 8 27.5 19.5t73.5 31t114 19.5z" />
    <glyph glyph-name="afii10066" unicode="&#x431;" horiz-adv-x="650" 
d="M330 65q79 0 129.5 51.5t50.5 133.5t-50.5 133.5t-129.5 51.5t-129.5 -51.5t-50.5 -133.5t50.5 -133.5t129.5 -51.5zM340 515q109 0 182 -75t73 -190q0 -116 -74.5 -190.5t-190.5 -74.5q-119 0 -194.5 84t-75.5 231q0 450 315 450q44 0 88 8.5t65 17.5l22 9v-85
q-6 -4 -18.5 -10t-58 -15.5t-98.5 -9.5q-103 0 -163.5 -64.5t-71.5 -190.5h5q2 4 6.5 11t21.5 25.5t37.5 32t55.5 25t74 11.5z" />
    <glyph glyph-name="afii10067" unicode="&#x432;" horiz-adv-x="555" 
d="M80 0v520h225q83 0 129 -38t46 -97q0 -24 -6.5 -43.5t-16 -30.5t-19.5 -18.5t-16 -10.5l-7 -2v-5q4 -1 11 -3t24 -11t30 -21.5t24 -36.5t11 -53q0 -66 -48 -108t-132 -42h-255zM430 155q0 34 -25.5 54.5t-69.5 20.5h-170v-150h170q44 0 69.5 20.5t25.5 54.5zM305 440
h-140v-130h140q90 0 90 65t-90 65z" />
    <glyph glyph-name="afii10068" unicode="&#x433;" horiz-adv-x="455" 
d="M445 440h-280v-440h-85v520h365v-80z" />
    <glyph glyph-name="afii10069" unicode="&#x434;" horiz-adv-x="600" 
d="M0 -140v220h55q6 6 15 18.5t25.5 59t19.5 102.5l15 260h365v-440h80v-220h-85v140h-405v-140h-85zM210 440l-10 -180q-3 -56 -17 -101t-26 -62l-12 -17h265v360h-200z" />
    <glyph glyph-name="afii10070" unicode="&#x435;" horiz-adv-x="625" 
d="M320 535q113 0 181.5 -70.5t68.5 -189.5v-30h-430q8 -80 61 -130t134 -50q56 0 102 17.5t65 35.5l18 17h15v-90q-3 -2 -8 -6.5t-24 -14.5t-41.5 -18t-59 -14.5t-77.5 -6.5q-117 0 -193.5 77.5t-76.5 197.5q0 119 76 197t189 78zM320 455q-64 0 -109 -37t-61 -93h330
q-8 55 -51.5 92.5t-108.5 37.5z" />
    <glyph glyph-name="afii10072" unicode="&#x436;" horiz-adv-x="815" 
d="M700 0l-250 260v-260h-85v260l-250 -260h-115l265 265l-250 255h110l240 -255v255h85v-255l240 255h110l-250 -255l265 -265h-115z" />
    <glyph glyph-name="afii10073" unicode="&#x437;" horiz-adv-x="500" 
d="M250 230h-55v80h45q58 0 86.5 19t28.5 51q0 75 -115 75q-47 0 -85.5 -15t-54.5 -30l-15 -15h-15v85q6 6 18.5 15t56.5 24.5t95 15.5q97 0 148.5 -41.5t51.5 -108.5q0 -25 -9.5 -45.5t-22.5 -32t-26 -19.5t-22 -10l-10 -3v-5q4 -1 11 -3t25.5 -11t32 -21.5t25 -36.5
t11.5 -53q0 -74 -52.5 -117t-157.5 -43q-34 0 -67.5 7.5t-57 18.5t-42.5 22.5t-28 18.5l-10 8l25 75q3 -3 8 -7.5t22.5 -16.5t36.5 -21.5t50 -17t63 -7.5q125 0 125 85q0 80 -120 80z" />
    <glyph glyph-name="afii10074" unicode="&#x438;" horiz-adv-x="640" 
d="M475 395l-315 -395h-80v520h85v-395l315 395h80v-520h-85v395z" />
    <glyph glyph-name="afii10075" unicode="&#x439;" horiz-adv-x="640" 
d="M475 395l-315 -395h-80v520h85v-395l315 395h80v-520h-85v395zM320 610q-36 0 -68.5 10t-47.5 20l-14 10v90q6 -7 16.5 -17t44 -26.5t69.5 -16.5t68.5 15t47.5 30l14 15v-90l-16.5 -11t-44 -18t-69.5 -11z" />
    <glyph glyph-name="afii10076" unicode="&#x43a;" horiz-adv-x="555" 
d="M440 0l-275 260v-260h-85v520h85v-255l265 255h110l-270 -255l285 -265h-115z" />
    <glyph glyph-name="afii10077" unicode="&#x43b;" horiz-adv-x="590" 
d="M215 440l-20 -220q-20 -214 -175 -230l-20 85q47 8 72.5 40.5t32.5 104.5l30 300h375v-520h-85v440h-210z" />
    <glyph glyph-name="afii10078" unicode="&#x43c;" horiz-adv-x="765" 
d="M350 0l-145 355h-5l-55 -355h-90l85 520h75l165 -405h5l165 405h75l85 -520h-90l-55 355h-5l-145 -355h-65z" />
    <glyph glyph-name="afii10079" unicode="&#x43d;" horiz-adv-x="630" 
d="M465 225h-300v-225h-85v520h85v-215h300v215h85v-520h-85v225z" />
    <glyph glyph-name="afii10080" unicode="&#x43e;" horiz-adv-x="660" 
d="M140 260q0 -86 53.5 -140.5t136.5 -54.5t136.5 54.5t53.5 140.5t-53.5 140.5t-136.5 54.5t-136.5 -54.5t-53.5 -140.5zM605 260q0 -120 -77.5 -197.5t-197.5 -77.5t-197.5 77.5t-77.5 197.5t77.5 197.5t197.5 77.5t197.5 -77.5t77.5 -197.5z" />
    <glyph glyph-name="afii10081" unicode="&#x43f;" horiz-adv-x="630" 
d="M465 440h-300v-440h-85v520h470v-520h-85v440z" />
    <glyph glyph-name="afii10082" unicode="&#x440;" horiz-adv-x="665" 
d="M610 260q0 -118 -74.5 -196.5t-180.5 -78.5q-38 0 -71 10.5t-53 25t-34.5 29t-20.5 24.5l-6 11h-5v-305h-85v740h80l5 -85h5q2 4 6 11t20 24t35.5 30t52.5 24t71 11q106 0 180.5 -78.5t74.5 -196.5zM165 260q0 -85 52 -140t128 -55t128 55t52 140t-52 140t-128 55
t-128 -55t-52 -140z" />
    <glyph glyph-name="afii10083" unicode="&#x441;" horiz-adv-x="565" 
d="M135 260q0 -86 54.5 -140.5t140.5 -54.5q44 0 83 16.5t55 32.5l17 16h15v-85l-6.5 -6.5t-21 -14.5t-35.5 -18t-50.5 -14.5t-66.5 -6.5q-117 0 -193.5 77.5t-76.5 197.5t76.5 197.5t193.5 77.5q62 0 112 -17.5t69 -35.5l19 -17l-35 -70l-6.5 6.5t-19.5 14.5t-31.5 18
t-43 14.5t-54.5 6.5q-86 0 -140.5 -54.5t-54.5 -140.5z" />
    <glyph glyph-name="afii10084" unicode="&#x442;" horiz-adv-x="495" 
d="M205 440h-185v80h455v-80h-185v-440h-85v440z" />
    <glyph glyph-name="afii10085" unicode="&#x443;" horiz-adv-x="575" 
d="M555 520l-300 -740h-90l90 225l-235 515h90l185 -410h5l165 410h90z" />
    <glyph glyph-name="afii10086" unicode="&#x444;" horiz-adv-x="765" 
d="M425 760v-225q127 -7 206 -84.5t79 -190.5t-79 -190.5t-206 -84.5v-205h-85v205q-127 7 -206 84.5t-79 190.5t79 190.5t206 84.5v225h85zM425 455v-390q90 4 145 58t55 137t-55 137t-145 58zM340 65v390q-90 -4 -145 -58t-55 -137t55 -137t145 -58z" />
    <glyph glyph-name="afii10087" unicode="&#x445;" horiz-adv-x="560" 
d="M280 200l-165 -200h-105l215 260l-210 260h105l160 -200l160 200h105l-210 -260l215 -260h-105z" />
    <glyph glyph-name="afii10088" unicode="&#x446;" horiz-adv-x="645" 
d="M535 0h-455v520h85v-440h290v440h85v-440h80v-220h-85v140z" />
    <glyph glyph-name="afii10089" unicode="&#x447;" horiz-adv-x="600" 
d="M70 520h85v-165q0 -125 125 -125q42 0 81 14t57 28l17 13v235h85v-520h-85v200q-7 -6 -19.5 -14t-55.5 -22t-90 -14q-94 0 -147 54t-53 151v165z" />
    <glyph glyph-name="afii10090" unicode="&#x448;" horiz-adv-x="895" 
d="M165 80h240v440h85v-440h240v440h85v-520h-735v520h85v-440z" />
    <glyph glyph-name="afii10091" unicode="&#x449;" horiz-adv-x="920" 
d="M165 80h240v440h85v-440h240v440h85v-440h80v-220h-85v140h-730v520h85v-440z" />
    <glyph glyph-name="afii10092" unicode="&#x44a;" horiz-adv-x="590" 
d="M150 0v435h-130v85h215v-170h130q89 0 139.5 -47.5t50.5 -127.5t-50.5 -127.5t-139.5 -47.5h-215zM235 80h130q105 0 105 95t-105 95h-130v-190z" />
    <glyph glyph-name="afii10093" unicode="&#x44b;" horiz-adv-x="745" 
d="M580 0v520h85v-520h-85zM165 80h130q105 0 105 95t-105 95h-130v-190zM80 0v520h85v-170h130q89 0 139.5 -47.5t50.5 -127.5t-50.5 -127.5t-139.5 -47.5h-215z" />
    <glyph glyph-name="afii10094" unicode="&#x44c;" horiz-adv-x="530" 
d="M165 80h140q105 0 105 95t-105 95h-140v-190zM80 0v520h85v-170h140q89 0 139.5 -47.5t50.5 -127.5t-50.5 -127.5t-139.5 -47.5h-225z" />
    <glyph glyph-name="afii10095" unicode="&#x44d;" horiz-adv-x="560" 
d="M175 225v80h240q-12 66 -62.5 108t-127.5 42q-44 0 -83 -16.5t-56 -32.5l-16 -16h-15v85l6.5 6.5t21 14.5t35.5 18t50.5 14.5t66.5 6.5q117 0 193.5 -77.5t76.5 -197.5t-76.5 -197.5t-193.5 -77.5q-56 0 -104.5 16.5t-69.5 32.5l-21 16l30 70q7 -6 20.5 -15t54 -24.5
t80.5 -15.5q80 0 131 45t59 115h-240z" />
    <glyph glyph-name="afii10096" unicode="&#x44e;" horiz-adv-x="835" 
d="M515 535q113 0 189 -78t76 -197t-76 -197t-189 -78q-106 0 -177 68t-83 172h-90v-225h-85v520h85v-215h90q12 97 83 163.5t177 66.5zM515 65q76 0 128 55t52 140q0 89 -50 142t-130 53q-76 0 -128 -55t-52 -140t52 -140t128 -55z" />
    <glyph glyph-name="afii10097" unicode="&#x44f;" 
d="M185 190q-5 1 -13 4t-28.5 15t-36.5 28.5t-29 46.5t-13 66q0 76 50.5 123t139.5 47h235v-520h-85v180h-115l-170 -180h-110l175 185v5zM405 440h-150q-51 0 -78 -24t-27 -66t27 -66t78 -24h150v180z" />
    <glyph glyph-name="afii10071" unicode="&#x451;" horiz-adv-x="625" 
d="M320 535q113 0 181.5 -70.5t68.5 -189.5v-30h-430q8 -80 61 -130t134 -50q56 0 102 17.5t65 35.5l18 17h15v-90q-3 -2 -8 -6.5t-24 -14.5t-41.5 -18t-59 -14.5t-77.5 -6.5q-117 0 -193.5 77.5t-76.5 197.5q0 119 76 197t189 78zM320 455q-64 0 -109 -37t-61 -93h330
q-8 55 -51.5 92.5t-108.5 37.5zM160 685q0 25 16 40t39 15t39 -15t16 -40t-16 -40t-39 -15t-39 15t-16 40zM360 685q0 25 16 40t39 15t39 -15t16 -40t-16 -40t-39 -15t-39 15t-16 40z" />
    <glyph glyph-name="afii10099" unicode="&#x452;" horiz-adv-x="660" 
d="M500 -20v310q0 135 -135 135q-71 0 -120.5 -49.5t-49.5 -120.5v-255h-85v600h-90v80h90v80h85v-80h170v-80h-170v-195h5q2 4 6 11t19.5 24t34 30t49.5 24t66 11q98 0 154 -57t56 -158v-310q0 -92 -44.5 -142t-125.5 -58l-15 80q54 8 77 34.5t23 85.5z" />
    <glyph glyph-name="afii10100" unicode="&#x453;" horiz-adv-x="455" 
d="M445 440h-280v-440h-85v520h365v-80zM225 600l80 180h100l-120 -180h-60z" />
    <glyph glyph-name="afii10101" unicode="&#x454;" horiz-adv-x="565" 
d="M380 305v-80h-240q8 -72 60 -116t130 -44q44 0 83 16.5t55 32.5l17 16h15v-85l-6.5 -6.5t-21 -14.5t-35.5 -18t-50.5 -14.5t-66.5 -6.5q-117 0 -193.5 77.5t-76.5 197.5t76.5 197.5t193.5 77.5q62 0 112 -17.5t69 -35.5l19 -17l-35 -70l-6.5 6.5t-19.5 14.5t-31.5 18
t-43 14.5t-54.5 6.5q-78 0 -128 -43t-62 -107h240z" />
    <glyph glyph-name="afii10102" unicode="&#x455;" horiz-adv-x="475" 
d="M440 145q0 -74 -51.5 -117t-153.5 -43q-56 0 -106 16.5t-72 32.5l-22 16l20 75q3 -2 8.5 -6.5t23.5 -14.5t38 -18t51.5 -14.5t63.5 -6.5q115 0 115 75q0 33 -32 53.5t-77.5 32.5t-91 27.5t-77.5 49.5t-32 87q0 62 48 103.5t132 41.5q36 0 69.5 -7.5t55.5 -19t38.5 -22.5
t23.5 -18l8 -8l-35 -70q-6 7 -18 18t-53.5 29t-88.5 18t-71 -19.5t-24 -50.5q0 -27 32 -44.5t77.5 -29.5t91 -27.5t77.5 -50.5t32 -88z" />
    <glyph glyph-name="afii10103" unicode="&#x456;" horiz-adv-x="250" 
d="M165 525v-525h-85v525q20 -5 40 -5zM180 700q0 -25 -16 -40t-39 -15t-39 15t-16 40t16 40t39 15t39 -15t16 -40z" />
    <glyph glyph-name="afii10104" unicode="&#x457;" horiz-adv-x="260" 
d="M175 520v-520h-85v520h85zM-25 685q0 25 16 40t39 15t39 -15t16 -40t-16 -40t-39 -15t-39 15t-16 40zM175 685q0 25 16 40t39 15t39 -15t16 -40t-16 -40t-39 -15t-39 15t-16 40z" />
    <glyph glyph-name="afii10105" unicode="&#x458;" horiz-adv-x="250" 
d="M80 -20v545q20 -5 40 -5l45 5v-545q0 -92 -44.5 -142t-125.5 -58l-15 80q54 8 77 34.5t23 85.5zM180 700q0 -25 -16 -40t-39 -15t-39 15t-16 40t16 40t39 15t39 -15t16 -40z" />
    <glyph glyph-name="afii10106" unicode="&#x459;" horiz-adv-x="835" 
d="M405 0v440h-190l-20 -220q-20 -214 -175 -230l-20 85q47 8 72.5 40.5t32.5 104.5l30 300h355v-170h120q89 0 139.5 -47.5t50.5 -127.5t-50.5 -127.5t-139.5 -47.5h-205zM490 80h120q105 0 105 95t-105 95h-120v-190z" />
    <glyph glyph-name="afii10107" unicode="&#x45a;" horiz-adv-x="860" 
d="M430 0v260h-265v-260h-85v520h85v-180h265v180h85v-180h125q85 0 135 -47t50 -123t-50 -123t-135 -47h-210zM515 80h125q48 0 74 24t26 66t-26 66t-74 24h-125v-180z" />
    <glyph glyph-name="afii10108" unicode="&#x45b;" horiz-adv-x="660" 
d="M585 0h-85v290q0 135 -135 135q-71 0 -120.5 -49.5t-49.5 -120.5v-255h-85v600h-90v80h90v80h85v-80h170v-80h-170v-195h5q2 4 6 11t19.5 24t34 30t49.5 24t66 11q98 0 154 -57t56 -158v-290z" />
    <glyph glyph-name="afii10109" unicode="&#x45c;" horiz-adv-x="555" 
d="M440 0l-275 260v-260h-85v520h85v-255l265 255h110l-270 -255l285 -265h-115zM250 600l80 180h100l-120 -180h-60z" />
    <glyph glyph-name="afii10110" unicode="&#x45e;" horiz-adv-x="575" 
d="M555 520l-300 -740h-90l90 225l-235 515h90l185 -410h5l165 410h90zM295 610q-36 0 -68.5 10t-46.5 20l-15 10v90q6 -7 16.5 -17t44 -26.5t69.5 -16.5t68.5 15t46.5 30l15 15v-90l-16.5 -11t-44 -18t-69.5 -11z" />
    <glyph glyph-name="afii10193" unicode="&#x45f;" horiz-adv-x="615" 
d="M265 -140v140h-185v520h85v-440h285v440h85v-520h-185v-140h-85z" />
    <glyph glyph-name="afii10050" unicode="&#x490;" horiz-adv-x="525" 
d="M190 645v-645h-90v730h315v150h90v-235h-315z" />
    <glyph glyph-name="afii10098" unicode="&#x491;" horiz-adv-x="455" 
d="M165 440v-440h-85v520h280v130h85v-210h-280z" />
    <glyph glyph-name="uni1E9E" unicode="&#x1e9e;" horiz-adv-x="715" 
d="M390 420l120 165q-2 3 -5.5 8t-17.5 18t-30 23t-43.5 18t-58.5 8q-76 0 -125.5 -52.5t-49.5 -137.5v-470h-90v470q0 119 76 197t189 78q56 0 103 -16t73.5 -38.5t45.5 -45.5t26 -39l7 -16l-130 -180q8 -2 21 -7t46.5 -23t59.5 -41t47 -63t21 -86q0 -89 -65 -147t-175 -58
q-49 0 -94 15t-65 30l-21 15l25 85q7 -7 20.5 -17t54 -26.5t80.5 -16.5q69 0 107 33t38 87q0 35 -19.5 65.5t-47.5 48.5t-56 31.5t-47 18.5l-20 6v60z" />
    <glyph glyph-name="endash" unicode="&#x2013;" horiz-adv-x="530" 
d="M35 285v80h460v-80h-460z" />
    <glyph glyph-name="emdash" unicode="&#x2014;" horiz-adv-x="890" 
d="M35 285v80h820v-80h-820z" />
    <glyph glyph-name="quoteleft" unicode="&#x2018;" horiz-adv-x="180" 
d="M145 610q0 -25 -16 -40t-39 -15q-24 0 -39.5 15.5t-15.5 44.5q0 49 20 92.5t40 62.5l20 20h30q-6 -7 -15 -19.5t-24.5 -45.5t-15.5 -60q23 0 39 -15t16 -40z" />
    <glyph glyph-name="quoteright" unicode="&#x2019;" horiz-adv-x="180" 
d="M35 735q0 25 16 40t39 15q24 0 39.5 -15.5t15.5 -44.5q0 -49 -20 -92.5t-40 -63.5l-20 -19h-30q6 7 15 19.5t24.5 45.5t15.5 60q-23 0 -39 15t-16 40z" />
    <glyph glyph-name="quotesinglbase" unicode="&#x201a;" horiz-adv-x="180" 
d="M35 45q0 25 16 40t39 15q24 0 39.5 -15.5t15.5 -44.5q0 -49 -20 -92.5t-40 -63.5l-20 -19h-30q6 7 15 19.5t24.5 45.5t15.5 60q-23 0 -39 15t-16 40z" />
    <glyph glyph-name="quotedblleft" unicode="&#x201c;" horiz-adv-x="350" 
d="M145 610q0 -25 -16 -40t-39 -15q-24 0 -39.5 15.5t-15.5 44.5q0 49 20 92.5t40 62.5l20 20h30q-6 -7 -15 -19.5t-24.5 -45.5t-15.5 -60q23 0 39 -15t16 -40zM315 610q0 -25 -16 -40t-39 -15q-24 0 -39.5 15.5t-15.5 44.5q0 49 20 92.5t40 62.5l20 20h30q-6 -7 -15 -19.5
t-24.5 -45.5t-15.5 -60q23 0 39 -15t16 -40z" />
    <glyph glyph-name="quotedblright" unicode="&#x201d;" horiz-adv-x="350" 
d="M205 735q0 25 16 40t39 15q24 0 39.5 -15.5t15.5 -44.5q0 -49 -20 -92.5t-40 -63.5l-20 -19h-30q6 7 15 19.5t24.5 45.5t15.5 60q-23 0 -39 15t-16 40zM35 735q0 25 16 40t39 15q24 0 39.5 -15.5t15.5 -44.5q0 -49 -20 -92.5t-40 -63.5l-20 -19h-30q6 7 15 19.5
t24.5 45.5t15.5 60q-23 0 -39 15t-16 40z" />
    <glyph glyph-name="quotedblbase" unicode="&#x201e;" horiz-adv-x="350" 
d="M35 45q0 25 16 40t39 15q24 0 39.5 -15.5t15.5 -44.5q0 -49 -20 -92.5t-40 -63.5l-20 -19h-30q6 7 15 19.5t24.5 45.5t15.5 60q-23 0 -39 15t-16 40zM205 45q0 25 16 40t39 15q24 0 39.5 -15.5t15.5 -44.5q0 -49 -20 -92.5t-40 -63.5l-20 -19h-30q6 7 15 19.5t24.5 45.5
t15.5 60q-23 0 -39 15t-16 40z" />
    <glyph glyph-name="dagger" unicode="&#x2020;" horiz-adv-x="440" 
d="M235 350l25 -120v-430h-80v430l25 120l-5 5l-120 -25h-30v80h30l120 -25l5 5l-25 120v130h80v-130l-25 -120l5 -5l120 25h30v-80h-30l-120 25z" />
    <glyph glyph-name="daggerdbl" unicode="&#x2021;" horiz-adv-x="440" 
d="M235 400l25 -120v-120l-25 -120l5 -5l120 25h30v-80h-30l-120 25l-5 -5l25 -120v-80h-80v80l25 120l-5 5l-120 -25h-30v80h30l120 -25l5 5l-25 120v120l25 120l-5 5l-120 -25h-30v80h30l120 -25l5 5l-25 120v80h80v-80l-25 -120l5 -5l120 25h30v-80h-30l-120 25z" />
    <glyph glyph-name="bullet" unicode="&#x2022;" horiz-adv-x="450" 
d="M330 350q0 -48 -29.5 -76.5t-75.5 -28.5t-75.5 28.5t-29.5 76.5t29.5 76.5t75.5 28.5t75.5 -28.5t29.5 -76.5z" />
    <glyph glyph-name="ellipsis" unicode="&#x2026;" horiz-adv-x="640" 
d="M145 45q0 -25 -16 -40t-39 -15t-39 15t-16 40t16 40t39 15t39 -15t16 -40zM375 45q0 -25 -16 -40t-39 -15t-39 15t-16 40t16 40t39 15t39 -15t16 -40zM605 45q0 -25 -16 -40t-39 -15t-39 15t-16 40t16 40t39 15t39 -15t16 -40z" />
    <glyph glyph-name="perthousand" unicode="&#x2030;" horiz-adv-x="1220" 
d="M370 580q0 -71 -47 -118t-118 -47t-118 47t-47 118t47 118t118 47t118 -47t47 -118zM290 580q0 41 -23.5 65.5t-61.5 24.5t-61.5 -24.5t-23.5 -65.5t23.5 -65.5t61.5 -24.5t61.5 24.5t23.5 65.5zM235 0h-95l475 730h95zM800 150q0 -71 -47 -118t-118 -47t-118 47t-47 118
t47 118t118 47t118 -47t47 -118zM720 150q0 41 -23.5 65.5t-61.5 24.5t-61.5 -24.5t-23.5 -65.5t23.5 -65.5t61.5 -24.5t61.5 24.5t23.5 65.5zM1180 150q0 -71 -47 -118t-118 -47t-118 47t-47 118t47 118t118 47t118 -47t47 -118zM1100 150q0 41 -23.5 65.5t-61.5 24.5
t-61.5 -24.5t-23.5 -65.5t23.5 -65.5t61.5 -24.5t61.5 24.5t23.5 65.5z" />
    <glyph glyph-name="guilsinglleft" unicode="&#x2039;" horiz-adv-x="355" 
d="M130 270l190 -220h-100l-185 215v20l185 215h100l-190 -220v-10z" />
    <glyph glyph-name="guilsinglright" unicode="&#x203a;" horiz-adv-x="355" 
d="M35 50l190 220v10l-190 220h100l185 -215v-20l-185 -215h-100z" />
    <glyph glyph-name="fraction" unicode="&#x2044;" horiz-adv-x="140" 
d="M-210 0l475 730h85l-475 -730h-85z" />
    <glyph glyph-name="zerosuperior" unicode="&#x2070;" horiz-adv-x="350" 
d="M105 650q0 -125 70 -125t70 125t-70 125t-70 -125zM315 650q0 -94 -38.5 -142t-101.5 -48t-101.5 48t-38.5 142t38.5 142t101.5 48t101.5 -48t38.5 -142z" />
    <glyph glyph-name="foursuperior" unicode="&#x2074;" horiz-adv-x="310" 
d="M210 830l-115 -210h60l20 75h50v-75h55v-65h-55v-85h-70v85h-165v10l145 265h75z" />
    <glyph glyph-name="fivesuperior" unicode="&#x2075;" horiz-adv-x="325" 
d="M220 585q0 27 -17.5 43.5t-47.5 16.5q-16 0 -31 -5t-22 -10l-7 -5l-50 25l30 180h195v-65h-140l-10 -60q15 5 35 5q63 0 99 -34t36 -91t-36 -91t-99 -34q-36 0 -67 11t-44 23l-14 11l20 55q40 -35 105 -35q30 0 47.5 16.5t17.5 43.5z" />
    <glyph glyph-name="sixsuperior" unicode="&#x2076;" horiz-adv-x="340" 
d="M35 600q0 35 13.5 71.5t32.5 63.5t38 49.5t33 33.5l13 12h95q-70 -50 -115 -115q15 5 30 5q56 0 93 -37t37 -93q0 -57 -37.5 -93.5t-97.5 -36.5t-97.5 38.5t-37.5 101.5zM105 590q0 -29 19 -47t46 -18t46 18t19 47t-19 47t-46 18t-46 -18t-19 -47z" />
    <glyph glyph-name="sevensuperior" unicode="&#x2077;" horiz-adv-x="310" 
d="M160 470h-75l110 295h-155v65h250v-10z" />
    <glyph glyph-name="eightsuperior" unicode="&#x2078;" horiz-adv-x="340" 
d="M170 525q30 0 47.5 13.5t17.5 36.5q0 26 -17.5 40.5t-47.5 14.5t-47.5 -14.5t-17.5 -40.5q0 -23 17.5 -36.5t47.5 -13.5zM170 695q50 0 50 40q0 19 -13.5 29.5t-36.5 10.5t-36.5 -10.5t-13.5 -29.5t13.5 -29.5t36.5 -10.5zM170 460q-66 0 -100.5 30.5t-34.5 84.5
q0 29 15 50t30 28l15 7q-5 2 -12.5 7t-20 24.5t-12.5 43.5q0 46 32.5 75.5t87.5 29.5t87.5 -29.5t32.5 -75.5q0 -24 -11 -43t-23 -26l-11 -6q2 -1 6.5 -2.5t14.5 -8.5t18 -16t14.5 -24.5t6.5 -33.5q0 -54 -34.5 -84.5t-100.5 -30.5z" />
    <glyph glyph-name="ninesuperior" unicode="&#x2079;" horiz-adv-x="340" 
d="M305 700q0 -35 -13.5 -71.5t-32.5 -63.5t-38 -49.5t-33 -33.5l-13 -12h-95q70 50 115 115q-15 -5 -30 -5q-56 0 -93 37t-37 93q0 57 37.5 93.5t97.5 36.5t97.5 -38.5t37.5 -101.5zM235 710q0 29 -19 47t-46 18t-46 -18t-19 -47t19 -47t46 -18t46 18t19 47z" />
    <glyph glyph-name="zeroinferior" unicode="&#x2080;" horiz-adv-x="350" 
d="M105 80q0 -125 70 -125t70 125t-70 125t-70 -125zM315 80q0 -94 -38.5 -142t-101.5 -48t-101.5 48t-38.5 142t38.5 142t101.5 48t101.5 -48t38.5 -142z" />
    <glyph glyph-name="oneinferior" unicode="&#x2081;" horiz-adv-x="235" 
d="M30 135v75l90 50h45v-360h-70v270z" />
    <glyph glyph-name="twoinferior" unicode="&#x2082;" horiz-adv-x="320" 
d="M30 -90l150 185q30 35 30 65q0 20 -12.5 32.5t-37.5 12.5q-27 0 -54.5 -15t-41.5 -30l-14 -15h-10v65q6 7 16 17t43 26.5t66 16.5q55 0 85 -27t30 -73q0 -24 -11 -50.5t-23 -40.5l-11 -14l-80 -100h135v-65h-260v10z" />
    <glyph glyph-name="threeinferior" unicode="&#x2083;" horiz-adv-x="320" 
d="M155 75q-18 0 -33 -5t-21 -10l-6 -5l-30 35l90 105h-105v65h230v-10l-95 -115q54 -11 79.5 -39.5t25.5 -80.5q0 -57 -36 -91t-99 -34q-36 0 -67 11t-44 23l-14 11l25 55q35 -35 100 -35q30 0 47.5 16.5t17.5 43.5t-17.5 43.5t-47.5 16.5z" />
    <glyph glyph-name="fourinferior" unicode="&#x2084;" horiz-adv-x="310" 
d="M210 260l-115 -210h60l20 75h50v-75h55v-65h-55v-85h-70v85h-165v10l145 265h75z" />
    <glyph glyph-name="fiveinferior" unicode="&#x2085;" horiz-adv-x="325" 
d="M220 15q0 27 -17.5 43.5t-47.5 16.5q-16 0 -31 -5t-22 -10l-7 -5l-50 25l30 180h195v-65h-140l-10 -60q15 5 35 5q63 0 99 -34t36 -91t-36 -91t-99 -34q-36 0 -67 11t-44 23l-14 11l20 55q40 -35 105 -35q30 0 47.5 16.5t17.5 43.5z" />
    <glyph glyph-name="sixinferior" unicode="&#x2086;" horiz-adv-x="340" 
d="M35 30q0 35 13.5 71.5t32.5 63.5t38 49.5t33 33.5l13 12h95q-70 -50 -115 -115q15 5 30 5q56 0 93 -37t37 -93q0 -57 -37.5 -93.5t-97.5 -36.5t-97.5 38.5t-37.5 101.5zM105 20q0 -29 19 -47t46 -18t46 18t19 47t-19 47t-46 18t-46 -18t-19 -47z" />
    <glyph glyph-name="seveninferior" unicode="&#x2087;" horiz-adv-x="310" 
d="M160 -100h-75l110 295h-155v65h250v-10z" />
    <glyph glyph-name="eightinferior" unicode="&#x2088;" horiz-adv-x="340" 
d="M170 -45q30 0 47.5 13.5t17.5 36.5q0 26 -17.5 40.5t-47.5 14.5t-47.5 -14.5t-17.5 -40.5q0 -23 17.5 -36.5t47.5 -13.5zM170 125q50 0 50 40q0 19 -13.5 29.5t-36.5 10.5t-36.5 -10.5t-13.5 -29.5t13.5 -29.5t36.5 -10.5zM170 -110q-66 0 -100.5 30.5t-34.5 84.5
q0 29 15 50t30 28l15 7q-5 2 -12.5 7t-20 24.5t-12.5 43.5q0 46 32.5 75.5t87.5 29.5t87.5 -29.5t32.5 -75.5q0 -24 -11 -43t-23 -26l-11 -6q2 -1 6.5 -2.5t14.5 -8.5t18 -16t14.5 -24.5t6.5 -33.5q0 -54 -34.5 -84.5t-100.5 -30.5z" />
    <glyph glyph-name="nineinferior" unicode="&#x2089;" horiz-adv-x="340" 
d="M305 130q0 -35 -13.5 -71.5t-32.5 -63.5t-38 -49.5t-33 -33.5l-13 -12h-95q70 50 115 115q-15 -5 -30 -5q-56 0 -93 37t-37 93q0 57 37.5 93.5t97.5 36.5t97.5 -38.5t37.5 -101.5zM235 140q0 29 -19 47t-46 18t-46 -18t-19 -47t19 -47t46 -18t46 18t19 47z" />
    <glyph glyph-name="Euro" unicode="&#x20ac;" horiz-adv-x="780" 
d="M35 340h60v50h-60v80h74l1 2q4 13 8 25t19 41t32 53.5t47 54.5t64.5 50.5t84 34.5t105.5 14q52 0 97.5 -11t74 -26.5t49.5 -30.5t30 -26l9 -11l-35 -75q-3 4 -8 10.5t-24.5 22.5t-42 28.5t-60.5 23t-80 10.5q-62 0 -113 -19.5t-79.5 -47.5t-48.5 -56t-27 -47l-7 -20h380
l-25 -80h-370v-50h355l-25 -80h-315q2 -8 7 -20.5t26.5 -45.5t49.5 -58t79 -45.5t113 -20.5q42 0 80.5 12.5t64 30t44.5 35t27 30.5l9 12h15v-100q-3 -4 -9 -11t-28.5 -25.5t-49 -32t-70.5 -25t-93 -11.5q-56 0 -106 14.5t-84 34t-64.5 51t-46.5 53.5t-32 54.5t-19 40.5
t-8 25l-1 2h-74v80z" />
    <glyph glyph-name="uni20B4" unicode="&#x20b4;" horiz-adv-x="620" 
d="M60 335h130l105 60h-235v75h320q4 4 11 11.5t18 31t11 47.5q0 47 -31.5 73.5t-93.5 26.5q-31 0 -59 -9t-46.5 -21t-32.5 -24.5t-21 -21.5l-6 -9h-15v100q2 3 6.5 7.5t20.5 16.5t35 21.5t51 17t67 7.5q102 0 161 -51t59 -129q0 -27 -6.5 -50.5t-12.5 -34.5l-6 -10h70v-75
h-130l-105 -60h235v-75h-320q-4 -4 -11 -11.5t-18 -31t-11 -47.5q0 -47 31.5 -73.5t93.5 -26.5q31 0 59 9t46.5 21t32.5 24.5t21 21.5l6 9h15v-100q-2 -3 -6.5 -7.5t-20.5 -16.5t-35 -21.5t-51 -17t-67 -7.5q-102 0 -161 51t-59 129q0 27 6.5 50.5t12.5 34.5l6 10h-70v75z
" />
    <glyph glyph-name="uni20BD" unicode="&#x20bd;" horiz-adv-x="635" 
d="M40 280v85h85v365h205q119 0 182 -59.5t63 -165.5t-63 -165.5t-182 -59.5h-115v-65h260v-85h-260v-130h-90v130h-85v85h85v65h-85zM215 645v-280h115q150 0 150 140t-150 140h-115z" />
    <glyph glyph-name="afii61352" unicode="&#x2116;" horiz-adv-x="1130" 
d="M770 290v80h300v-80h-300zM995 590q0 34 -20.5 54.5t-54.5 20.5t-54.5 -20.5t-20.5 -54.5t20.5 -54.5t54.5 -20.5t54.5 20.5t20.5 54.5zM765 590q0 67 43.5 108.5t111.5 41.5t111.5 -41.5t43.5 -108.5t-43.5 -108.5t-111.5 -41.5t-111.5 41.5t-43.5 108.5zM690 730v-730
h-85l-415 575v-575h-90v730h85l415 -575v575h90z" />
    <glyph glyph-name="trademark" unicode="&#x2122;" horiz-adv-x="800" 
d="M205 570v-270h-70v270h-115v70h300v-70h-115zM540 385l82 255h75l63 -340h-75l-38 215h-5l-72 -215h-65l-72 215h-5l-38 -215h-75l63 340h75l82 -255h5z" />
    <glyph glyph-name="arrowleft" unicode="&#x2190;" horiz-adv-x="990" 
d="M100 310l170 220h90l-140 -180h670v-80h-670l140 -180h-90z" />
    <glyph glyph-name="arrowup" unicode="&#x2191;" horiz-adv-x="640" 
d="M320 730l220 -170v-90l-180 140v-670h-80v670l-180 -140v90z" />
    <glyph glyph-name="arrowright" unicode="&#x2192;" horiz-adv-x="990" 
d="M720 530l170 -220l-170 -220h-90l140 180h-670v80h670l-140 180h90z" />
    <glyph glyph-name="arrowdown" unicode="&#x2193;" horiz-adv-x="640" 
d="M540 110l-220 -170l-220 170v90l180 -140v670h80v-670l180 140v-90z" />
    <glyph glyph-name="minus" unicode="&#x2212;" horiz-adv-x="525" 
d="M65 285v80h395v-80h-395z" />
    <glyph glyph-name="commaaccent" unicode="&#xf6c3;" horiz-adv-x="155" 
d="M125 -120q0 -44 -16.5 -81.5t-32.5 -52.5l-16 -16h-30q5 6 12.5 16t20 40t12.5 59q-20 0 -32.5 11.5t-12.5 33.5q0 25 12.5 37.5t32.5 12.5q50 0 50 -60z" />
    <glyph glyph-name="cyrBreve" unicode="&#xf6d1;" horiz-adv-x="380" 
d="M190 800q-47 0 -87 12.5t-57 25.5l-16 12v90l6.5 -6.5t19.5 -14.5t32 -18t45 -14.5t57 -6.5q47 0 87 15t57 30l16 15v-90q-6 -6 -18 -14t-53.5 -22t-88.5 -14z" />
    <glyph glyph-name="cyrbreve" unicode="&#xf6d4;" horiz-adv-x="320" 
d="M160 610q-36 0 -68.5 10t-47.5 20l-14 10v90q6 -7 16.5 -17t44 -26.5t69.5 -16.5t68.5 15t47.5 30l14 15v-90l-16.5 -11t-44 -18t-69.5 -11z" />
    <glyph glyph-name="s_t" unicode="&#xfb06;" horiz-adv-x="895" 
d="M355 140q0 33 -32 53.5t-77.5 32.5t-91 27.5t-77.5 49.5t-32 87q0 62 48 103.5t132 41.5q18 0 36.5 -2.5t28.5 -4.5l10 -3q-30 30 -30 90q0 70 53.5 117.5t141.5 47.5q97 0 151 -52t54 -143v-65h165v-80h-165v-280q0 -95 80 -95q24 0 46.5 10t33.5 20l10 10h15v-75
q-5 -5 -14.5 -12.5t-39.5 -20t-61 -12.5q-69 0 -112 47t-43 128v280h-100v30l100 115q0 60 -31.5 92.5t-88.5 32.5q-55 0 -87.5 -29.5t-32.5 -75.5q0 -38 18.5 -74t37.5 -53l19 -18l-35 -70q-6 7 -18 18t-53.5 29t-88.5 18t-71 -19.5t-24 -50.5q0 -27 32 -44.5t77.5 -29.5
t91 -27.5t77.5 -50.5t32 -88q0 -74 -51.5 -117t-153.5 -43q-56 0 -106 16.5t-72 32.5l-22 16l20 75q3 -2 8.5 -6.5t23.5 -14.5t38 -18t51.5 -14.5t63.5 -6.5q115 0 115 75z" />
    <glyph glyph-name="s_h" unicode="&#xfb10;" horiz-adv-x="1105" 
d="M465 710q-55 0 -87.5 -29.5t-32.5 -75.5q0 -38 18.5 -74t37.5 -53l19 -18l-35 -70q-6 7 -18 18t-53.5 29t-88.5 18t-71 -19.5t-24 -50.5q0 -27 32 -44.5t77.5 -29.5t91 -27.5t77.5 -50.5t32 -88q0 -74 -51.5 -117t-153.5 -43q-56 0 -106 16.5t-72 32.5l-22 16l20 75
q3 -2 8.5 -6.5t23.5 -14.5t38 -18t51.5 -14.5t63.5 -6.5q115 0 115 75q0 33 -32 53.5t-77.5 32.5t-91 27.5t-77.5 49.5t-32 87q0 62 48 103.5t132 41.5q18 0 36.5 -2.5t28.5 -4.5l10 -3q-30 30 -30 90q0 70 53.5 117.5t141.5 47.5q25 0 55 -5t55 -5h65v-335h5q2 4 6 11
t19.5 24t34 30t49.5 24t66 11q98 0 154 -57t56 -158v-320h-85v320q0 135 -135 135q-71 0 -120.5 -49.5t-49.5 -120.5v-285h-85v700q-20 0 -45 5t-45 5z" />
    <glyph glyph-name="s_k" unicode="&#xfb11;" horiz-adv-x="1030" 
d="M465 710q-55 0 -87.5 -29.5t-32.5 -75.5q0 -38 18.5 -74t37.5 -53l19 -18l-35 -70q-6 7 -18 18t-53.5 29t-88.5 18t-71 -19.5t-24 -50.5q0 -27 32 -44.5t77.5 -29.5t91 -27.5t77.5 -50.5t32 -88q0 -74 -51.5 -117t-153.5 -43q-56 0 -106 16.5t-72 32.5l-22 16l20 75
q3 -2 8.5 -6.5t23.5 -14.5t38 -18t51.5 -14.5t63.5 -6.5q115 0 115 75q0 33 -32 53.5t-77.5 32.5t-91 27.5t-77.5 49.5t-32 87q0 62 48 103.5t132 41.5q18 0 36.5 -2.5t28.5 -4.5l10 -3q-30 30 -30 90q0 70 53.5 117.5t141.5 47.5q25 0 55 -5t55 -5h65v-520l265 270h110
l-225 -225l240 -295h-110l-190 230l-90 -90v-140h-85v700q-20 0 -45 5t-45 5z" />
    <glyph glyph-name="c_h" unicode="&#xfb12;" horiz-adv-x="1190" 
d="M135 260q0 -86 54.5 -140.5t140.5 -54.5q44 0 83 16.5t55 32.5l17 16h15v-85l-6.5 -6.5t-21 -14.5t-35.5 -18t-50.5 -14.5t-66.5 -6.5q-117 0 -193.5 77.5t-76.5 197.5t76.5 197.5t193.5 77.5l60 -5q-25 30 -25 85q0 70 53.5 117.5t141.5 47.5q25 0 55 -5t55 -5h65v-335
h5q2 4 6 11t19.5 24t34 30t49.5 24t66 11q98 0 154 -57t56 -158v-320h-85v320q0 135 -135 135q-71 0 -120.5 -49.5t-49.5 -120.5v-285h-85v700q-20 0 -45 5t-45 5q-55 0 -87.5 -29.5t-32.5 -75.5q0 -33 22.5 -68t45.5 -53l22 -19l-35 -70l-6.5 6.5t-19.5 14.5t-31.5 18
t-43 14.5t-54.5 6.5q-86 0 -140.5 -54.5t-54.5 -140.5z" />
    <glyph glyph-name="c_k" unicode="&#xfb13;" horiz-adv-x="1115" 
d="M550 710q-55 0 -87.5 -29.5t-32.5 -75.5q0 -33 22.5 -68t45.5 -53l22 -19l-35 -70l-6.5 6.5t-19.5 14.5t-31.5 18t-43 14.5t-54.5 6.5q-86 0 -140.5 -54.5t-54.5 -140.5t54.5 -140.5t140.5 -54.5q44 0 83 16.5t55 32.5l17 16h15v-85l-6.5 -6.5t-21 -14.5t-35.5 -18
t-50.5 -14.5t-66.5 -6.5q-117 0 -193.5 77.5t-76.5 197.5t76.5 197.5t193.5 77.5l60 -5q-25 30 -25 85q0 70 53.5 117.5t141.5 47.5q25 0 55 -5t55 -5h65v-520l265 270h110l-225 -225l240 -295h-110l-190 230l-90 -90v-140h-85v700q-20 0 -45 5t-45 5z" />
    <glyph glyph-name="c_t" unicode="&#xfb14;" horiz-adv-x="990" 
d="M135 260q0 -86 54.5 -140.5t140.5 -54.5q44 0 83 16.5t55 32.5l17 16h15v-85l-6.5 -6.5t-21 -14.5t-35.5 -18t-50.5 -14.5t-66.5 -6.5q-117 0 -193.5 77.5t-76.5 197.5t76.5 197.5t193.5 77.5q18 0 36.5 -2.5t28.5 -4.5l10 -3q-30 30 -30 90q0 69 54 117t141 48
q97 0 151 -52t54 -143v-65h165v-80h-165v-280q0 -95 80 -95q24 0 46.5 10t32.5 20l11 10h15v-75q-5 -5 -14.5 -12.5t-39.5 -20t-61 -12.5q-69 0 -112 47t-43 128v280h-100v30l100 115q0 60 -31.5 92.5t-88.5 32.5q-55 0 -87.5 -29.5t-32.5 -75.5q0 -33 20 -68t40 -53l20 -19
l-35 -70l-6.5 6.5t-19.5 14.5t-31.5 18t-43 14.5t-54.5 6.5q-86 0 -140.5 -54.5t-54.5 -140.5z" />
    <glyph glyph-name="zero.pnum" horiz-adv-x="620" 
d="M140 365q0 -151 48 -223t122 -72t122 72t48 223t-48 223t-122 72t-122 -72t-48 -223zM570 365q0 -186 -74 -283t-186 -97t-186 97t-74 283t74 283t186 97t186 -97t74 -283z" />
    <glyph glyph-name="one.pnum" horiz-adv-x="370" 
d="M45 540v95l165 95h60v-730h-90v620z" />
    <glyph glyph-name="two.pnum" horiz-adv-x="565" 
d="M35 10l295 390q8 9 19.5 24.5t31 57.5t19.5 78q0 100 -115 100q-36 0 -71 -14.5t-59 -35t-43 -41t-28 -35.5l-9 -14h-15v100q3 5 9.5 13.5t28 30t45.5 38t62.5 30t79.5 13.5q96 0 150.5 -50t54.5 -130q0 -47 -22 -100.5t-44 -84.5l-23 -30l-201 -265h315v-85h-480v10z
" />
    <glyph glyph-name="three.pnum" horiz-adv-x="560" 
d="M255 360q-29 0 -52.5 -6t-32.5 -12l-10 -7l-50 70l215 245h-250v80h415v-10l-235 -270v-5q118 0 189 -65t71 -165t-71 -165t-189 -65q-58 0 -111.5 21.5t-78.5 42.5l-25 21l35 75l8 -8t22.5 -18t36.5 -23t50 -18t63 -8q81 0 125.5 40t44.5 105t-44.5 105t-125.5 40z" />
    <glyph glyph-name="four.pnum" horiz-adv-x="580" 
d="M560 285v-85h-110v-200h-90v200h-340v10l285 520h95l-245 -445h205v195h90v-195h110z" />
    <glyph glyph-name="five.pnum" horiz-adv-x="575" 
d="M440 230q0 72 -46 116t-124 44q-38 0 -71.5 -15t-48.5 -30l-15 -15l-55 30l55 370h370v-85h-295l-30 -195q40 25 100 25q108 0 179 -70t71 -175q0 -106 -72.5 -175.5t-187.5 -69.5q-58 0 -113 21.5t-81 42.5l-26 21l35 75q8 -8 22.5 -20.5t63 -33.5t99.5 -21q78 0 124 44
t46 116z" />
    <glyph glyph-name="six.pnum" horiz-adv-x="600" 
d="M305 730h116q-8 -7 -21 -18.5t-49.5 -48.5t-67 -74t-63.5 -89t-50 -100h5q5 6 15 15t46.5 24.5t78.5 15.5q105 0 172.5 -66.5t67.5 -168.5t-69.5 -168.5t-180.5 -66.5q-114 0 -182 71t-68 194q0 71 25.5 147t62.5 133t74 104t63 72zM305 375q-75 0 -117.5 -41.5
t-42.5 -113.5t42.5 -113.5t117.5 -41.5t117.5 41.5t42.5 113.5t-42.5 113.5t-117.5 41.5z" />
    <glyph glyph-name="seven.pnum" horiz-adv-x="520" 
d="M220 0h-95l245 645h-340v85h460v-10z" />
    <glyph glyph-name="eight.pnum" horiz-adv-x="610" 
d="M305 350q-81 0 -123 -37.5t-42 -102.5t42 -102.5t123 -37.5t123 37.5t42 102.5t-42 102.5t-123 37.5zM305 660q-63 0 -96.5 -31t-33.5 -84t33.5 -84t96.5 -31t96.5 31t33.5 84t-33.5 84t-96.5 31zM305 -15q-117 0 -186 62t-69 158q0 41 13.5 75t32.5 53.5t38 33t32 18.5
l14 5v5q-4 2 -10.5 5t-22.5 16.5t-28.5 29.5t-23 44t-10.5 60q0 84 60.5 139.5t159.5 55.5t159.5 -55.5t60.5 -139.5q0 -32 -10 -60t-23.5 -44.5t-27.5 -28.5t-24 -17l-10 -5v-5q5 -2 14 -5.5t31.5 -18t39.5 -33.5t31 -53t14 -75q0 -96 -69 -158t-186 -62z" />
    <glyph glyph-name="nine.pnum" horiz-adv-x="600" 
d="M295 0h-116q8 6 21 17.5t49.5 48t67 73t63.5 89.5t50 102h-5q-5 -6 -15 -15t-46.5 -24.5t-78.5 -15.5q-105 0 -172.5 66.5t-67.5 168.5t69.5 168.5t180.5 66.5q114 0 182 -71t68 -194q0 -71 -25.5 -147t-62.5 -133t-74 -104t-63 -72zM295 355q75 0 117.5 41.5t42.5 113.5
t-42.5 113.5t-117.5 41.5t-117.5 -41.5t-42.5 -113.5q0 -71 43 -113t117 -42z" />
    <glyph glyph-name="foundryicon" horiz-adv-x="1538" 
d="M278 460v-31h-72v-199h-35v199h-71v31h178zM519 396q32 0 54.5 -25t22.5 -59q0 -36 -22.5 -60.5t-54.5 -24.5q-29 0 -47 21v-79h-34v224h24l9 -19q19 22 48 22zM516 258q19 0 33 16t14 38q0 21 -14 36.5t-33 15.5t-33 -15.5t-14 -36.5q0 -22 13.5 -38t33.5 -16zM333 277
l44 116h37l-77 -190q-16 -34 -49 -34q-7 0 -10 1v28q23 0 31 20l6 16l-63 159h37zM701 396q32 0 54 -24.5t22 -58.5l-1 -15h-119q2 -17 14.5 -29t29.5 -12q27 0 37 17h35q-9 -22 -28.5 -34.5t-43.5 -12.5q-32 0 -55 24.5t-23 60.5q0 35 23 59.5t55 24.5zM657 325h88
q-1 17 -14.5 28.5t-29.5 11.5t-29 -11t-15 -29zM939 460v-31h-72v-199h-35v199h-71v31h178zM1180 396q32 0 54.5 -25t22.5 -59q0 -36 -22.5 -60.5t-54.5 -24.5q-29 0 -47 21v-79h-34v224h24l9 -19q19 22 48 22zM1177 258q19 0 33 16t14 38q0 21 -14 36.5t-33 15.5t-33 -15.5
t-14 -36.5q0 -22 13.5 -38t33.5 -16zM994 277l44 116h37l-77 -190q-16 -34 -49 -34q-7 0 -10 1v28q23 0 31 20l6 16l-63 159h37zM1362 396q32 0 54 -24.5t22 -58.5l-1 -15h-119q2 -17 14.5 -29t29.5 -12q27 0 37 17h35q-9 -22 -28.5 -34.5t-43.5 -12.5q-32 0 -55 24.5
t-23 60.5q0 35 23 59.5t55 24.5zM1318 325h88q-1 17 -14.5 28.5t-29.5 11.5t-29 -11t-15 -29z" />
    <glyph glyph-name="Germandbls" horiz-adv-x="715" 
d="M390 420l120 165q-2 3 -5.5 8t-17.5 18t-30 23t-43.5 18t-58.5 8q-76 0 -125.5 -52.5t-49.5 -137.5v-470h-90v470q0 119 76 197t189 78q56 0 103 -16t73.5 -38.5t45.5 -45.5t26 -39l7 -16l-130 -180q8 -2 21 -7t46.5 -23t59.5 -41t47 -63t21 -86q0 -89 -65 -147t-175 -58
q-49 0 -94 15t-65 30l-21 15l25 85q7 -7 20.5 -17t54 -26.5t80.5 -16.5q69 0 107 33t38 87q0 35 -19.5 65.5t-47.5 48.5t-56 31.5t-47 18.5l-20 6v60z" />
    <glyph glyph-name="zero.taboldstyle" 
d="M95 260q0 -82 53.5 -136t136.5 -54t136.5 54t53.5 136t-53.5 136t-136.5 54t-136.5 -54t-53.5 -136zM5 260q0 120 78.5 197.5t201.5 77.5t201.5 -77.5t78.5 -197.5t-78.5 -197.5t-201.5 -77.5t-201.5 77.5t-78.5 197.5z" />
    <glyph glyph-name="one.taboldstyle" 
d="M125 0v85h135v325l-135 -80v95l165 95h60v-435h135v-85h-360z" />
    <glyph glyph-name="two.taboldstyle" 
d="M50 10l260 240q8 6 19.5 17t31 41t19.5 57q0 85 -105 85q-28 0 -56.5 -10.5t-49 -25t-36.5 -29t-25 -25.5l-8 -10h-15v100l9 9t26 20.5t41 26t52 20.5t62 9q92 0 143.5 -46t51.5 -119q0 -25 -11 -53t-26 -49.5t-30.5 -39.5t-26.5 -28l-11 -10l-115 -105h235v-85h-435v10z
" />
    <glyph glyph-name="three.taboldstyle" 
d="M255 150q-29 0 -52.5 -6t-32.5 -12l-10 -7l-50 70l215 245h-250v80h415v-10l-235 -270v-5q118 0 189 -65t71 -165t-71 -165t-189 -65q-58 0 -111.5 21.5t-78.5 42.5l-25 21l35 75l8 -8t22.5 -18t36.5 -23t50 -18t63 -8q81 0 125.5 40t44.5 105t-44.5 105t-125.5 40z" />
    <glyph glyph-name="four.taboldstyle" 
d="M555 85v-85h-110v-210h-90v210h-340v10l285 510h95l-245 -435h205v195h90v-195h110z" />
    <glyph glyph-name="five.taboldstyle" 
d="M420 20q0 72 -46 116t-124 44q-38 0 -71.5 -15t-48.5 -30l-15 -15l-55 30l55 370h370v-85h-295l-30 -195q40 25 100 25q108 0 179 -70t71 -175q0 -106 -72.5 -175.5t-187.5 -69.5q-58 0 -113 21.5t-81 42.5l-26 21l35 75q8 -8 22.5 -20.5t63 -33.5t99.5 -21q78 0 124 44
t46 116z" />
    <glyph glyph-name="six.taboldstyle" 
d="M295 730h116q-8 -7 -21 -18.5t-49.5 -48.5t-67 -74t-63.5 -89t-50 -100h5q5 6 15 15t46.5 24.5t78.5 15.5q105 0 172.5 -66.5t67.5 -168.5t-69.5 -168.5t-180.5 -66.5q-114 0 -182 71t-68 194q0 71 25.5 147t62.5 133t74 104t63 72zM295 375q-75 0 -117.5 -41.5
t-42.5 -113.5t42.5 -113.5t117.5 -41.5t117.5 41.5t42.5 113.5t-42.5 113.5t-117.5 41.5z" />
    <glyph glyph-name="seven.taboldstyle" 
d="M245 -210h-95l245 645h-340v85h460v-10z" />
    <glyph glyph-name="eight.taboldstyle" 
d="M285 350q-81 0 -123 -37.5t-42 -102.5t42 -102.5t123 -37.5t123 37.5t42 102.5t-42 102.5t-123 37.5zM285 660q-63 0 -96.5 -31t-33.5 -84t33.5 -84t96.5 -31t96.5 31t33.5 84t-33.5 84t-96.5 31zM285 -15q-117 0 -186 62t-69 158q0 41 13.5 75t32.5 53.5t38 33t32 18.5
l14 5v5q-4 2 -10.5 5t-22.5 16.5t-28.5 29.5t-23 44t-10.5 60q0 84 60.5 139.5t159.5 55.5t159.5 -55.5t60.5 -139.5q0 -32 -10 -60t-23.5 -44.5t-27.5 -28.5t-24 -17l-10 -5v-5q5 -2 14 -5.5t31.5 -18t39.5 -33.5t31 -53t14 -75q0 -96 -69 -158t-186 -62z" />
    <glyph glyph-name="nine.taboldstyle" 
d="M275 -210h-116q8 6 21 17.5t49.5 48t67 73t63.5 89.5t50 102h-5q-5 -6 -15 -15t-46.5 -24.5t-78.5 -15.5q-105 0 -172.5 66.5t-67.5 168.5t69.5 168.5t180.5 66.5q114 0 182 -71t68 -194q0 -71 -25.5 -147t-62.5 -133t-74 -104t-63 -72zM275 145q75 0 117.5 41.5
t42.5 113.5t-42.5 113.5t-117.5 41.5t-117.5 -41.5t-42.5 -113.5q0 -71 43 -113t117 -42z" />
    <glyph glyph-name="zero.tab" 
d="M115 365q0 -151 48 -223t122 -72t122 72t48 223t-48 223t-122 72t-122 -72t-48 -223zM545 365q0 -186 -74 -283t-186 -97t-186 97t-74 283t74 283t186 97t186 -97t74 -283z" />
    <glyph glyph-name="one.tab" 
d="M125 0v85h135v535l-135 -80v95l165 95h60v-645h135v-85h-360z" />
    <glyph glyph-name="two.tab" 
d="M35 10l295 390q8 9 19.5 24.5t31 57.5t19.5 78q0 100 -115 100q-36 0 -71 -14.5t-59 -35t-43 -41t-28 -35.5l-9 -14h-15v100q3 5 9.5 13.5t28 30t45.5 38t62.5 30t79.5 13.5q96 0 150.5 -50t54.5 -130q0 -47 -22 -100.5t-44 -84.5l-23 -30l-201 -265h315v-85h-480v10z
" />
    <glyph glyph-name="three.tab" 
d="M255 360q-29 0 -52.5 -6t-32.5 -12l-10 -7l-50 70l215 245h-250v80h415v-10l-235 -270v-5q118 0 189 -65t71 -165t-71 -165t-189 -65q-58 0 -111.5 21.5t-78.5 42.5l-25 21l35 75l8 -8t22.5 -18t36.5 -23t50 -18t63 -8q81 0 125.5 40t44.5 105t-44.5 105t-125.5 40z" />
    <glyph glyph-name="four.tab" 
d="M555 285v-85h-110v-200h-90v200h-340v10l285 520h95l-245 -445h205v195h90v-195h110z" />
    <glyph glyph-name="five.tab" 
d="M425 230q0 72 -46 116t-124 44q-38 0 -71.5 -15t-48.5 -30l-15 -15l-55 30l55 370h370v-85h-295l-30 -195q40 25 100 25q108 0 179 -70t71 -175q0 -106 -72.5 -175.5t-187.5 -69.5q-58 0 -113 21.5t-81 42.5l-26 21l35 75q8 -8 22.5 -20.5t63 -33.5t99.5 -21q78 0 124 44
t46 116z" />
    <glyph glyph-name="six.tab" 
d="M295 730h116q-8 -7 -21 -18.5t-49.5 -48.5t-67 -74t-63.5 -89t-50 -100h5q5 6 15 15t46.5 24.5t78.5 15.5q105 0 172.5 -66.5t67.5 -168.5t-69.5 -168.5t-180.5 -66.5q-114 0 -182 71t-68 194q0 71 25.5 147t62.5 133t74 104t63 72zM295 375q-75 0 -117.5 -41.5
t-42.5 -113.5t42.5 -113.5t117.5 -41.5t117.5 41.5t42.5 113.5t-42.5 113.5t-117.5 41.5z" />
    <glyph glyph-name="seven.tab" 
d="M245 0h-95l245 645h-340v85h460v-10z" />
    <glyph glyph-name="eight.tab" 
d="M285 350q-81 0 -123 -37.5t-42 -102.5t42 -102.5t123 -37.5t123 37.5t42 102.5t-42 102.5t-123 37.5zM285 660q-63 0 -96.5 -31t-33.5 -84t33.5 -84t96.5 -31t96.5 31t33.5 84t-33.5 84t-96.5 31zM285 -15q-117 0 -186 62t-69 158q0 41 13.5 75t32.5 53.5t38 33t32 18.5
l14 5v5q-4 2 -10.5 5t-22.5 16.5t-28.5 29.5t-23 44t-10.5 60q0 84 60.5 139.5t159.5 55.5t159.5 -55.5t60.5 -139.5q0 -32 -10 -60t-23.5 -44.5t-27.5 -28.5t-24 -17l-10 -5v-5q5 -2 14 -5.5t31.5 -18t39.5 -33.5t31 -53t14 -75q0 -96 -69 -158t-186 -62z" />
    <glyph glyph-name="nine.tab" 
d="M275 0h-116q8 6 21 17.5t49.5 48t67 73t63.5 89.5t50 102h-5q-5 -6 -15 -15t-46.5 -24.5t-78.5 -15.5q-105 0 -172.5 66.5t-67.5 168.5t69.5 168.5t180.5 66.5q114 0 182 -71t68 -194q0 -71 -25.5 -147t-62.5 -133t-74 -104t-63 -72zM275 355q75 0 117.5 41.5t42.5 113.5
t-42.5 113.5t-117.5 41.5t-117.5 -41.5t-42.5 -113.5q0 -71 43 -113t117 -42z" />
    <glyph glyph-name="zero.numr" horiz-adv-x="350" 
d="M105 550q0 -125 70 -125t70 125t-70 125t-70 -125zM315 550q0 -94 -38.5 -142t-101.5 -48t-101.5 48t-38.5 142t38.5 142t101.5 48t101.5 -48t38.5 -142z" />
    <glyph glyph-name="one.numr" horiz-adv-x="235" 
d="M30 605v75l90 50h45v-360h-70v270z" />
    <glyph glyph-name="two.numr" horiz-adv-x="320" 
d="M30 380l150 185q30 35 30 65q0 20 -12.5 32.5t-37.5 12.5q-27 0 -54.5 -15t-41.5 -30l-14 -15h-10v65q6 7 16 17t43 26.5t66 16.5q55 0 85 -27t30 -73q0 -24 -11 -50.5t-23 -40.5l-11 -14l-80 -100h135v-65h-260v10z" />
    <glyph glyph-name="three.numr" horiz-adv-x="320" 
d="M155 545q-18 0 -33 -5t-21 -10l-6 -5l-30 35l90 105h-105v65h230v-10l-95 -115q54 -11 79.5 -39.5t25.5 -80.5q0 -57 -36 -91t-99 -34q-36 0 -67 11t-44 23l-14 11l25 55q35 -35 100 -35q30 0 47.5 16.5t17.5 43.5t-17.5 43.5t-47.5 16.5z" />
    <glyph glyph-name="four.numr" horiz-adv-x="310" 
d="M210 730l-115 -210h60l20 75h50v-75h55v-65h-55v-85h-70v85h-165v10l145 265h75z" />
    <glyph glyph-name="five.numr" horiz-adv-x="325" 
d="M220 485q0 27 -17.5 43.5t-47.5 16.5q-16 0 -31 -5t-22 -10l-7 -5l-50 25l30 180h195v-65h-140l-10 -60q15 5 35 5q63 0 99 -34t36 -91t-36 -91t-99 -34q-36 0 -67 11t-44 23l-14 11l20 55q40 -35 105 -35q30 0 47.5 16.5t17.5 43.5z" />
    <glyph glyph-name="six.numr" horiz-adv-x="340" 
d="M35 500q0 35 13.5 71.5t32.5 63.5t38 49.5t33 33.5l13 12h95q-70 -50 -115 -115q15 5 30 5q56 0 93 -37t37 -93q0 -57 -37.5 -93.5t-97.5 -36.5t-97.5 38.5t-37.5 101.5zM105 490q0 -29 19 -47t46 -18t46 18t19 47t-19 47t-46 18t-46 -18t-19 -47z" />
    <glyph glyph-name="seven.numr" horiz-adv-x="310" 
d="M160 370h-75l110 295h-155v65h250v-10z" />
    <glyph glyph-name="eight.numr" horiz-adv-x="340" 
d="M170 425q30 0 47.5 13.5t17.5 36.5q0 26 -17.5 40.5t-47.5 14.5t-47.5 -14.5t-17.5 -40.5q0 -23 17.5 -36.5t47.5 -13.5zM170 595q50 0 50 40q0 19 -13.5 29.5t-36.5 10.5t-36.5 -10.5t-13.5 -29.5t13.5 -29.5t36.5 -10.5zM170 360q-66 0 -100.5 30.5t-34.5 84.5
q0 29 15 50t30 28l15 7q-5 2 -12.5 7t-20 24.5t-12.5 43.5q0 46 32.5 75.5t87.5 29.5t87.5 -29.5t32.5 -75.5q0 -24 -11 -43t-23 -26l-11 -6q2 -1 6.5 -2.5t14.5 -8.5t18 -16t14.5 -24.5t6.5 -33.5q0 -54 -34.5 -84.5t-100.5 -30.5z" />
    <glyph glyph-name="nine.numr" horiz-adv-x="340" 
d="M305 600q0 -35 -13.5 -71.5t-32.5 -63.5t-38 -49.5t-33 -33.5l-13 -12h-95q70 50 115 115q-15 -5 -30 -5q-56 0 -93 37t-37 93q0 57 37.5 93.5t97.5 36.5t97.5 -38.5t37.5 -101.5zM235 610q0 29 -19 47t-46 18t-46 -18t-19 -47t19 -47t46 -18t46 18t19 47z" />
    <glyph glyph-name="zero.dnom" horiz-adv-x="350" 
d="M105 180q0 -125 70 -125t70 125t-70 125t-70 -125zM315 180q0 -94 -38.5 -142t-101.5 -48t-101.5 48t-38.5 142t38.5 142t101.5 48t101.5 -48t38.5 -142z" />
    <glyph glyph-name="one.dnom" horiz-adv-x="235" 
d="M30 235v75l90 50h45v-360h-70v270z" />
    <glyph glyph-name="two.dnom" horiz-adv-x="320" 
d="M30 10l150 185q30 35 30 65q0 20 -12.5 32.5t-37.5 12.5q-27 0 -54.5 -15t-41.5 -30l-14 -15h-10v65q6 7 16 17t43 26.5t66 16.5q55 0 85 -27t30 -73q0 -24 -11 -50.5t-23 -40.5l-11 -14l-80 -100h135v-65h-260v10z" />
    <glyph glyph-name="three.dnom" horiz-adv-x="320" 
d="M155 175q-18 0 -33 -5t-21 -10l-6 -5l-30 35l90 105h-105v65h230v-10l-95 -115q54 -11 79.5 -39.5t25.5 -80.5q0 -57 -36 -91t-99 -34q-36 0 -67 11t-44 23l-14 11l25 55q35 -35 100 -35q30 0 47.5 16.5t17.5 43.5t-17.5 43.5t-47.5 16.5z" />
    <glyph glyph-name="four.dnom" horiz-adv-x="310" 
d="M210 360l-115 -210h60l20 75h50v-75h55v-65h-55v-85h-70v85h-165v10l145 265h75z" />
    <glyph glyph-name="five.dnom" horiz-adv-x="325" 
d="M220 115q0 27 -17.5 43.5t-47.5 16.5q-16 0 -31 -5t-22 -10l-7 -5l-50 25l30 180h195v-65h-140l-10 -60q15 5 35 5q63 0 99 -34t36 -91t-36 -91t-99 -34q-36 0 -67 11t-44 23l-14 11l20 55q40 -35 105 -35q30 0 47.5 16.5t17.5 43.5z" />
    <glyph glyph-name="six.dnom" horiz-adv-x="340" 
d="M35 130q0 35 13.5 71.5t32.5 63.5t38 49.5t33 33.5l13 12h95q-70 -50 -115 -115q15 5 30 5q56 0 93 -37t37 -93q0 -57 -37.5 -93.5t-97.5 -36.5t-97.5 38.5t-37.5 101.5zM105 120q0 -29 19 -47t46 -18t46 18t19 47t-19 47t-46 18t-46 -18t-19 -47z" />
    <glyph glyph-name="seven.dnom" horiz-adv-x="310" 
d="M160 0h-75l110 295h-155v65h250v-10z" />
    <glyph glyph-name="eight.dnom" horiz-adv-x="340" 
d="M170 55q30 0 47.5 13.5t17.5 36.5q0 26 -17.5 40.5t-47.5 14.5t-47.5 -14.5t-17.5 -40.5q0 -23 17.5 -36.5t47.5 -13.5zM170 225q50 0 50 40q0 19 -13.5 29.5t-36.5 10.5t-36.5 -10.5t-13.5 -29.5t13.5 -29.5t36.5 -10.5zM170 -10q-66 0 -100.5 30.5t-34.5 84.5
q0 29 15 50t30 28l15 7q-5 2 -12.5 7t-20 24.5t-12.5 43.5q0 46 32.5 75.5t87.5 29.5t87.5 -29.5t32.5 -75.5q0 -24 -11 -43t-23 -26l-11 -6q2 -1 6.5 -2.5t14.5 -8.5t18 -16t14.5 -24.5t6.5 -33.5q0 -54 -34.5 -84.5t-100.5 -30.5z" />
    <glyph glyph-name="nine.dnom" horiz-adv-x="340" 
d="M305 230q0 -35 -13.5 -71.5t-32.5 -63.5t-38 -49.5t-33 -33.5l-13 -12h-95q70 50 115 115q-15 -5 -30 -5q-56 0 -93 37t-37 93q0 57 37.5 93.5t97.5 36.5t97.5 -38.5t37.5 -101.5zM235 240q0 29 -19 47t-46 18t-46 -18t-19 -47t19 -47t46 -18t46 18t19 47z" />
    <glyph glyph-name="at.case" horiz-adv-x="990" 
d="M935 395q0 -115 -48 -175t-127 -60q-32 0 -58.5 8t-41 20t-24 24t-12.5 20l-4 8h-5q-2 -3 -5 -8.5t-16 -19.5t-28.5 -24.5t-42.5 -19t-58 -8.5q-84 0 -134.5 54.5t-50.5 150.5t50.5 150.5t134.5 54.5q44 0 79 -19t48 -37l13 -19l10 65h75v-240q0 -80 70 -80q85 0 85 155
q0 137 -95 226t-250 89q-150 0 -247.5 -97.5t-97.5 -247.5t97.5 -247.5t247.5 -97.5q42 0 80.5 6.5t64 16t44.5 19.5t27 16l9 7v-100q-8 -6 -25 -14t-75 -22t-125 -14q-187 0 -311 123t-124 307t124 307t311 123q192 0 313.5 -114.5t121.5 -285.5zM485 240q53 0 86.5 34.5
t33.5 90.5t-33.5 90.5t-86.5 34.5t-86.5 -34.5t-33.5 -90.5t33.5 -90.5t86.5 -34.5z" />
    <glyph glyph-name="parenleft.case" horiz-adv-x="345" 
d="M155 362q0 -83 16.5 -165.5t40 -142t47 -107t39.5 -71.5l17 -24h-70q-7 9 -19 25t-42 69t-53 109t-42 140t-19 167t18 165.5t43.5 142t51.5 107t44 71.5l18 24h70q-7 -9 -17.5 -25t-38 -69t-48.5 -109t-38.5 -140t-17.5 -167z" />
    <glyph glyph-name="parenright.case" horiz-adv-x="345" 
d="M190 362q0 83 -16.5 165.5t-40 142t-47 107t-40.5 71.5l-16 24h70q7 -9 19 -25t42 -69t53 -109t42 -140t19 -167t-18 -165.5t-43.5 -142t-51.5 -107t-44 -71.5l-18 -24h-70q7 9 17.5 25t38 69t48.5 109t38.5 140t17.5 167z" />
    <glyph glyph-name="bracketleft.case" horiz-adv-x="400" 
d="M100 -145v1015h260v-85h-170v-845h170v-85h-260z" />
    <glyph glyph-name="bracketright.case" horiz-adv-x="400" 
d="M300 870v-1015h-260v85h170v845h-170v85h260z" />
    <glyph glyph-name="braceleft.case" horiz-adv-x="400" 
d="M145 365v-5q4 0 10.5 -1t22.5 -8t28.5 -18t23 -34t10.5 -54v-225q0 -80 80 -80h40v-85h-40q-78 0 -124 45t-46 120v215q0 49 -21.5 69.5t-73.5 20.5v75q52 0 73.5 20.5t21.5 69.5v215q0 75 46 120t124 45h40v-85h-40q-80 0 -80 -80v-225q0 -49 -24 -77.5t-48 -32.5z" />
    <glyph glyph-name="braceright.case" horiz-adv-x="400" 
d="M255 360v5q-4 0 -10.5 1t-22.5 8t-28.5 18t-23 34t-10.5 54v225q0 80 -80 80h-40v85h40q78 0 124 -45t46 -120v-215q0 -49 21.5 -69.5t73.5 -20.5v-75q-52 0 -73.5 -20.5t-21.5 -69.5v-215q0 -75 -46 -120t-124 -45h-40v85h40q80 0 80 80v225q0 49 24 77.5t48 33.5z" />
    <glyph glyph-name="exclamdown.case" horiz-adv-x="280" 
d="M95 185l20 355h50l20 -355v-255h-90v255zM195 685q0 -25 -16 -40t-39 -15t-39 15t-16 40t16 40t39 15t39 -15t16 -40z" />
    <glyph glyph-name="questiondown.case" horiz-adv-x="485" 
d="M440 160v-100l-8 -8t-22.5 -18t-37.5 -23t-51.5 -18t-65.5 -8q-96 0 -153 53t-57 137q0 39 20 77t48.5 70t57.5 64t49 69.5t20 74.5h85q0 -43 -19 -85t-46 -76t-54.5 -66.5t-46.5 -67t-19 -65.5q0 -46 30 -73t85 -27q31 0 59.5 9.5t48 22.5t34 26t21.5 22l7 10h15z
M335 685q0 -25 -16 -40t-39 -15t-39 15t-16 40t16 40t39 15t39 -15t16 -40z" />
    <glyph glyph-name="guillemotleft.case" horiz-adv-x="540" 
d="M130 360l160 -220h-100l-155 215v20l155 215h100l-160 -220v-10zM345 360l160 -220h-100l-155 215v20l155 215h100l-160 -220v-10z" />
    <glyph glyph-name="guillemotright.case" horiz-adv-x="540" 
d="M250 140l160 220v10l-160 220h100l155 -215v-20l-155 -215h-100zM35 140l160 220v10l-160 220h100l155 -215v-20l-155 -215h-100z" />
    <glyph glyph-name="guilsinglleft.case" horiz-adv-x="355" 
d="M130 360l190 -220h-100l-185 215v20l185 215h100l-190 -220v-10z" />
    <glyph glyph-name="guilsinglright.case" horiz-adv-x="355" 
d="M35 140l190 220v10l-190 220h100l185 -215v-20l-185 -215h-100z" />
    <glyph glyph-name="hyphen.case" horiz-adv-x="390" 
d="M35 325v80h320v-80h-320z" />
    <glyph glyph-name="endash.case" horiz-adv-x="530" 
d="M35 325v80h460v-80h-460z" />
    <glyph glyph-name="emdash.case" horiz-adv-x="890" 
d="M35 325v80h820v-80h-820z" />
    <glyph glyph-name="periodcentered.case" horiz-adv-x="260" 
d="M185 365q0 -25 -16 -40t-39 -15t-39 15t-16 40t16 40t39 15t39 -15t16 -40z" />
    <glyph glyph-name="bullet.case" horiz-adv-x="450" 
d="M330 367q0 -48 -29.5 -76.5t-75.5 -28.5t-75.5 28.5t-29.5 76.5t29.5 76.5t75.5 28.5t75.5 -28.5t29.5 -76.5z" />
    <glyph glyph-name="a.salt" horiz-adv-x="665" 
d="M500 260q0 85 -52 140t-128 55t-128 -55t-52 -140t52 -140t128 -55t128 55t52 140zM55 260q0 118 74.5 196.5t180.5 78.5q38 0 71 -10.5t53 -25t34.5 -29t20.5 -24.5l6 -11h5l5 85h80v-520h-80l-5 85h-5q-2 -4 -6 -11t-20 -24t-35.5 -30t-52.5 -24t-71 -11
q-106 0 -180.5 78.5t-74.5 196.5z" />
    <glyph glyph-name="atilde.salt" horiz-adv-x="665" 
d="M255 680q-27 0 -50.5 -12.5t-34.5 -25.5l-10 -12v70q3 6 10 14t31.5 22t53.5 14q37 0 85.5 -27.5t74.5 -27.5q27 0 50.5 12.5t34.5 24.5l10 13v-70q-3 -6 -10 -14t-31.5 -22t-53.5 -14q-37 0 -85.5 27.5t-74.5 27.5zM500 260q0 85 -52 140t-128 55t-128 -55t-52 -140
t52 -140t128 -55t128 55t52 140zM55 260q0 118 74.5 196.5t180.5 78.5q38 0 71 -10.5t53 -25t34.5 -29t20.5 -24.5l6 -11h5l5 85h80v-520h-80l-5 85h-5q-2 -4 -6 -11t-20 -24t-35.5 -30t-52.5 -24t-71 -11q-106 0 -180.5 78.5t-74.5 196.5z" />
    <glyph glyph-name="aring.salt" horiz-adv-x="665" 
d="M215 705q0 52 32.5 83.5t82.5 31.5t82.5 -31.5t32.5 -83.5t-32.5 -83.5t-82.5 -31.5t-82.5 31.5t-32.5 83.5zM275 705q0 -25 16 -40t39 -15t39 15t16 40t-16 40t-39 15q-24 0 -39.5 -14.5t-15.5 -40.5zM500 260q0 85 -52 140t-128 55t-128 -55t-52 -140t52 -140t128 -55
t128 55t52 140zM55 260q0 118 74.5 196.5t180.5 78.5q38 0 71 -10.5t53 -25t34.5 -29t20.5 -24.5l6 -11h5l5 85h80v-520h-80l-5 85h-5q-2 -4 -6 -11t-20 -24t-35.5 -30t-52.5 -24t-71 -11q-106 0 -180.5 78.5t-74.5 196.5z" />
    <glyph glyph-name="aogonek.salt" horiz-adv-x="665" 
d="M535 0h-30l-5 85h-5q-2 -4 -6 -11t-20 -24t-35.5 -30t-52.5 -24t-71 -11q-106 0 -180.5 78.5t-74.5 196.5t74.5 196.5t180.5 78.5q38 0 71 -10.5t53 -25t34.5 -29t20.5 -24.5l6 -11h5l5 85h80v-520q-4 -2 -11.5 -6t-26.5 -17t-33.5 -27.5t-26.5 -37.5t-12 -47
q0 -33 16.5 -49t43.5 -16q13 0 25.5 4t18.5 8l6 3v-45q-20 -20 -70 -20q-52 0 -81 27t-29 73q0 44 32.5 81.5t64.5 52.5zM500 260q0 85 -52 140t-128 55t-128 -55t-52 -140t52 -140t128 -55t128 55t52 140z" />
    <glyph glyph-name="amacron.salt" horiz-adv-x="665" 
d="M500 260q0 85 -52 140t-128 55t-128 -55t-52 -140t52 -140t128 -55t128 55t52 140zM55 260q0 118 74.5 196.5t180.5 78.5q38 0 71 -10.5t53 -25t34.5 -29t20.5 -24.5l6 -11h5l5 85h80v-520h-80l-5 85h-5q-2 -4 -6 -11t-20 -24t-35.5 -30t-52.5 -24t-71 -11
q-106 0 -180.5 78.5t-74.5 196.5zM170 650v70h350v-70h-350z" />
    <glyph glyph-name="adieresis.salt" horiz-adv-x="665" 
d="M500 260q0 85 -52 140t-128 55t-128 -55t-52 -140t52 -140t128 -55t128 55t52 140zM55 260q0 118 74.5 196.5t180.5 78.5q38 0 71 -10.5t53 -25t34.5 -29t20.5 -24.5l6 -11h5l5 85h80v-520h-80l-5 85h-5q-2 -4 -6 -11t-20 -24t-35.5 -30t-52.5 -24t-71 -11
q-106 0 -180.5 78.5t-74.5 196.5zM190 685q0 25 16 40t39 15t39 -15t16 -40t-16 -40t-39 -15t-39 15t-16 40zM390 685q0 25 16 40t39 15t39 -15t16 -40t-16 -40t-39 -15t-39 15t-16 40z" />
    <glyph glyph-name="acircumflex.salt" horiz-adv-x="665" 
d="M500 260q0 85 -52 140t-128 55t-128 -55t-52 -140t52 -140t128 -55t128 55t52 140zM55 260q0 118 74.5 196.5t180.5 78.5q38 0 71 -10.5t53 -25t34.5 -29t20.5 -24.5l6 -11h5l5 85h80v-520h-80l-5 85h-5q-2 -4 -6 -11t-20 -24t-35.5 -30t-52.5 -24t-71 -11
q-106 0 -180.5 78.5t-74.5 196.5zM330 720l-120 -120h-60l150 180h60l150 -180h-60z" />
    <glyph glyph-name="abreve.salt" horiz-adv-x="665" 
d="M330 610q-47 0 -87 12.5t-57 25.5l-16 12v90l6.5 -6.5t19.5 -14.5t32 -18t45 -14.5t57 -6.5q47 0 87 15t57 30l16 15v-90q-6 -6 -18 -14t-53.5 -22t-88.5 -14zM500 260q0 85 -52 140t-128 55t-128 -55t-52 -140t52 -140t128 -55t128 55t52 140zM55 260q0 118 74.5 196.5
t180.5 78.5q38 0 71 -10.5t53 -25t34.5 -29t20.5 -24.5l6 -11h5l5 85h80v-520h-80l-5 85h-5q-2 -4 -6 -11t-20 -24t-35.5 -30t-52.5 -24t-71 -11q-106 0 -180.5 78.5t-74.5 196.5z" />
    <glyph glyph-name="aacute.salt" horiz-adv-x="665" 
d="M295 600l80 180h100l-120 -180h-60zM500 260q0 85 -52 140t-128 55t-128 -55t-52 -140t52 -140t128 -55t128 55t52 140zM55 260q0 118 74.5 196.5t180.5 78.5q38 0 71 -10.5t53 -25t34.5 -29t20.5 -24.5l6 -11h5l5 85h80v-520h-80l-5 85h-5q-2 -4 -6 -11t-20 -24
t-35.5 -30t-52.5 -24t-71 -11q-106 0 -180.5 78.5t-74.5 196.5z" />
    <glyph glyph-name="agrave.salt" horiz-adv-x="665" 
d="M300 780l80 -180h-60l-120 180h100zM500 260q0 85 -52 140t-128 55t-128 -55t-52 -140t52 -140t128 -55t128 55t52 140zM55 260q0 118 74.5 196.5t180.5 78.5q38 0 71 -10.5t53 -25t34.5 -29t20.5 -24.5l6 -11h5l5 85h80v-520h-80l-5 85h-5q-2 -4 -6 -11t-20 -24
t-35.5 -30t-52.5 -24t-71 -11q-106 0 -180.5 78.5t-74.5 196.5z" />
    <glyph glyph-name="ae.salt" horiz-adv-x="1070" 
d="M775 535q106 0 173 -70.5t67 -189.5v-30h-430q8 -80 61 -130t134 -50q56 0 102 17.5t64 35.5l19 17h15v-90q-8 -7 -23 -17t-65.5 -26.5t-106.5 -16.5q-39 0 -73.5 10.5t-56 25t-37 29t-22.5 24.5l-6 11h-5v-85h-80l-5 85h-5q-2 -4 -6 -11t-20 -24t-35.5 -30t-52.5 -24
t-71 -11q-106 0 -180.5 78.5t-74.5 196.5t74.5 196.5t180.5 78.5q38 0 71 -10.5t53 -25t34.5 -29t20.5 -24.5l6 -11h5l5 85h80v-85h5q2 4 6.5 11t21 24t36 30t52.5 24t69 11zM500 260q0 85 -52 140t-128 55t-128 -55t-52 -140t52 -140t128 -55t128 55t52 140zM765 455
q-64 0 -109 -37t-61 -93h330q-8 55 -51.5 92.5t-108.5 37.5z" />
    <glyph glyph-name="afii10065.salt" horiz-adv-x="665" 
d="M500 260q0 85 -52 140t-128 55t-128 -55t-52 -140t52 -140t128 -55t128 55t52 140zM55 260q0 118 74.5 196.5t180.5 78.5q38 0 71 -10.5t53 -25t34.5 -29t20.5 -24.5l6 -11h5l5 85h80v-520h-80l-5 85h-5q-2 -4 -6 -11t-20 -24t-35.5 -30t-52.5 -24t-71 -11
q-106 0 -180.5 78.5t-74.5 196.5z" />
    <glyph glyph-name="ordfeminine.salt" horiz-adv-x="440" 
d="M320 545q0 59 -30 92t-80 33t-80 -33t-30 -92t30 -92t80 -33t80 33t30 92zM395 730v-370h-70l-5 40h-5q-1 -2 -3.5 -5.5t-12.5 -12t-22.5 -15t-34.5 -12t-47 -5.5q-76 0 -125.5 53t-49.5 142t49.5 142t125.5 53q40 0 70 -12.5t40 -25.5l10 -12h5l5 40h70z" />
    <glyph glyph-name="g.salt" horiz-adv-x="655" 
d="M305 -155q87 0 136 51t49 144v70h-5q-2 -4 -5.5 -10.5t-18.5 -22.5t-33 -28.5t-50 -23t-68 -10.5q-109 0 -182 74t-73 186t73 186t182 74q36 0 67.5 -10t50.5 -23.5t32.5 -27.5t19.5 -24l5 -10h5l5 80h80v-480q0 -127 -73 -201t-197 -74q-47 0 -89.5 11t-61.5 22l-19 12
l-20 95q8 -7 23 -17t64.5 -26.5t102.5 -16.5zM140 275q0 -78 50 -129t125 -51t125 51t50 129t-50 129t-125 51t-125 -51t-50 -129z" />
    <glyph glyph-name="gbreve.salt" horiz-adv-x="655" 
d="M330 630q-47 0 -87 12.5t-57 25.5l-16 12v90l6.5 -6.5t19.5 -14.5t32 -18t45 -14.5t57 -6.5q47 0 87 15t57 30l16 15v-90q-6 -6 -18 -14t-53.5 -22t-88.5 -14zM305 -155q87 0 136 51t49 144v70h-5q-2 -4 -5.5 -10.5t-18.5 -22.5t-33 -28.5t-50 -23t-68 -10.5
q-109 0 -182 74t-73 186t73 186t182 74q36 0 67.5 -10t50.5 -23.5t32.5 -27.5t19.5 -24l5 -10h5l5 80h80v-480q0 -127 -73 -201t-197 -74q-47 0 -89.5 11t-61.5 22l-19 12l-20 95q8 -7 23 -17t64.5 -26.5t102.5 -16.5zM140 275q0 -78 50 -129t125 -51t125 51t50 129t-50 129
t-125 51t-125 -51t-50 -129z" />
    <glyph glyph-name="gcommaaccent.salt" horiz-adv-x="655" 
d="M270 670q0 42 16 79.5t32 54.5l17 16h30q-45 -55 -45 -115q19 0 32 -13t13 -32q0 -22 -13 -36t-32 -14q-50 0 -50 60zM305 -155q87 0 136 51t49 144v70h-5q-2 -4 -5.5 -10.5t-18.5 -22.5t-33 -28.5t-50 -23t-68 -10.5q-109 0 -182 74t-73 186t73 186t182 74
q36 0 67.5 -10t50.5 -23.5t32.5 -27.5t19.5 -24l5 -10h5l5 80h80v-480q0 -127 -73 -201t-197 -74q-47 0 -89.5 11t-61.5 22l-19 12l-20 95q8 -7 23 -17t64.5 -26.5t102.5 -16.5zM140 275q0 -78 50 -129t125 -51t125 51t50 129t-50 129t-125 51t-125 -51t-50 -129z" />
    <glyph glyph-name="l.salt" horiz-adv-x="280" 
d="M260 70v-65q-25 -20 -65 -20q-53 0 -84 33.5t-31 96.5v645h85v-645q0 -30 11.5 -42.5t38.5 -12.5q9 0 16.5 2.5t10.5 5.5l3 2h15z" />
    <glyph glyph-name="lacute.salt" horiz-adv-x="280" 
d="M90 840l80 180h100l-120 -180h-60zM260 70v-65q-25 -20 -65 -20q-53 0 -84 33.5t-31 96.5v645h85v-645q0 -30 11.5 -42.5t38.5 -12.5q9 0 16.5 2.5t10.5 5.5l3 2h15z" />
    <glyph glyph-name="lcaron.salt" horiz-adv-x="295" 
d="M260 70v-65q-25 -20 -65 -20q-53 0 -84 33.5t-31 96.5v645h85v-645q0 -30 11.5 -42.5t38.5 -12.5q9 0 16.5 2.5t10.5 5.5l3 2h15zM325 726q0 -44 -16.5 -81.5t-32.5 -52.5l-16 -16h-30q5 6 12.5 16t20 40t12.5 59q-20 0 -32.5 11.5t-12.5 33.5q0 25 12.5 37.5t32.5 12.5
q50 0 50 -60z" />
    <glyph glyph-name="lslash.salt" horiz-adv-x="280" 
d="M80 115v220l-80 -25v75l80 25v350h85v-320l80 25v-75l-80 -25v-250q0 -30 11.5 -42.5t38.5 -12.5q9 0 16.5 2.5t10.5 5.5l3 2h15v-65q-25 -20 -65 -20q-53 0 -84 33.5t-31 96.5z" />
    <glyph glyph-name="lcommaaccent.salt" horiz-adv-x="280" 
d="M260 70v-65q-25 -20 -65 -20q-53 0 -84 33.5t-31 96.5v645h85v-645q0 -30 11.5 -42.5t38.5 -12.5q9 0 16.5 2.5t10.5 5.5l3 2h15zM220 -130q0 -44 -16 -81.5t-32 -52.5l-17 -16h-30q5 6 12.5 16t20 40t12.5 59q-20 0 -32.5 11.5t-12.5 33.5q0 25 12.5 37.5t32.5 12.5
q50 0 50 -60z" />
    <glyph glyph-name="y.salt" horiz-adv-x="575" 
d="M555 520l-210 -515q-62 -152 -97.5 -196t-92.5 -44q-13 0 -25.5 2.5t-18.5 4.5l-6 3l-10 75q20 -10 45 -10q32 0 55.5 32t59.5 133l-235 515h90l185 -410h5l165 410h90z" />
    <glyph glyph-name="yacute.salt" horiz-adv-x="575" 
d="M260 600l80 180h100l-120 -180h-60zM555 520l-210 -515q-62 -152 -97.5 -196t-92.5 -44q-13 0 -25.5 2.5t-18.5 4.5l-6 3l-10 75q20 -10 45 -10q32 0 55.5 32t59.5 133l-235 515h90l185 -410h5l165 410h90z" />
    <glyph glyph-name="ydieresis.salt" horiz-adv-x="575" 
d="M555 520l-210 -515q-62 -152 -97.5 -196t-92.5 -44q-13 0 -25.5 2.5t-18.5 4.5l-6 3l-10 75q20 -10 45 -10q32 0 55.5 32t59.5 133l-235 515h90l185 -410h5l165 410h90zM135 684q0 25 16 40t39 15t39 -15t16 -40t-16 -40t-39 -15t-39 15t-16 40zM335 684q0 25 16 40
t39 15t39 -15t16 -40t-16 -40t-39 -15t-39 15t-16 40z" />
    <glyph glyph-name="afii10085.salt" horiz-adv-x="575" 
d="M555 520l-210 -515q-62 -152 -97.5 -196t-92.5 -44q-13 0 -25.5 2.5t-18.5 4.5l-6 3l-10 75q20 -10 45 -10q32 0 55.5 32t59.5 133l-235 515h90l185 -410h5l165 410h90z" />
    <glyph glyph-name="afii10110.salt" horiz-adv-x="575" 
d="M555 520l-210 -515q-62 -152 -97.5 -196t-92.5 -44q-13 0 -25.5 2.5t-18.5 4.5l-6 3l-10 75q20 -10 45 -10q32 0 55.5 32t59.5 133l-235 515h90l185 -410h5l165 410h90zM289 610q-36 0 -68.5 10t-46.5 20l-15 10v90q6 -7 16.5 -17t44 -26.5t69.5 -16.5t68.5 15t46.5 30
l15 15v-90l-16.5 -11t-44 -18t-69.5 -11z" />
    <glyph glyph-name="f_l.salt" horiz-adv-x="670" 
d="M470 115v575q-36 0 -89.5 10t-85.5 10q-80 0 -80 -95v-95h165v-80h-165v-440h-85v440h-100v80h100v95q0 81 43 128t112 47q38 0 94.5 -10t90.5 -10h85v-655q0 -30 11.5 -42.5t38.5 -12.5q9 0 16.5 2.5t10.5 5.5l3 2h15v-65q-25 -20 -65 -20q-53 0 -84 33.5t-31 96.5z" />
    <glyph glyph-name="f_f_l.salt" horiz-adv-x="1010" 
d="M810 115v575q-36 0 -89.5 10t-85.5 10q-80 0 -80 -95v-95h165v-80h-165v-440h-85v440h-255v-440h-85v440h-100v80h100v75q0 81 43 128t112 47q36 0 67 -12.5t44 -25.5l14 -12l-30 -65q-35 35 -80 35q-85 0 -85 -95v-75h255v95q0 81 43 128t112 47q38 0 94.5 -10t90.5 -10
h85v-655q0 -30 11.5 -42.5t38.5 -12.5q9 0 16.5 2.5t10.5 5.5l3 2h15v-65q-25 -20 -65 -20q-53 0 -84 33.5t-31 96.5z" />
    </font>
</defs>
</svg>
