<?xml version="1.0" standalone="no"?>
<!DOCTYPE svg PUBLIC "-//W3C//DTD SVG 1.1//EN" "http://www.w3.org/Graphics/SVG/1.1/DTD/svg11.dtd" >
<svg xmlns="http://www.w3.org/2000/svg" xmlns:xlink="http://www.w3.org/1999/xlink" version="1.1">
<metadata>
Created by FontForge 20170731 at Wed Dec  6 20:30:05 2017
 By Aleksey,,,
Copyright (c) 2018 by TypeType. Designer Ivan Gladkikh, technical designers Philipp Nurullin, Nadyr Rakhimov, Olexa Volochay, Vika Usmanova. All rights reserved.
</metadata>
<defs>
<font id="TTWellingtons-ThinItalic" horiz-adv-x="540" >
  <font-face 
    font-family="TT Wellingtons Thin"
    font-weight="250"
    font-style="italic"
    font-stretch="normal"
    units-per-em="1000"
    panose-1="2 0 5 3 2 0 0 9 0 4"
    ascent="800"
    descent="-200"
    x-height="510"
    cap-height="730"
    bbox="-240 -255 1438 1010"
    underline-thickness="50"
    underline-position="-250"
    unicode-range="U+000D-FB14"
  />
<missing-glyph horiz-adv-x="650" 
d="M150 730h400v-730h-400v730zM170 40l170 325l-170 325v-650zM530 690l-170 -325l170 -325v650zM180 710l170 -325l170 325h-340zM520 20l-170 325l-170 -325h340z" />
    <glyph glyph-name="f_f" unicode="ff" horiz-adv-x="660" 
d="M498 510l26 120q15 74 55.5 112t97.5 38q29 0 52 -12.5t32 -25.5l9 -12l-9 -20q-3 6 -8.5 14t-27 22t-48.5 14q-106 0 -133 -130l-26 -120h170l-4 -20h-170l-104 -490h-20l104 490h-280l-104 -490h-20l104 490h-100l4 20h101l21 100q15 74 55.5 112t97.5 38
q29 0 52 -12.5t32 -25.5l9 -12l-9 -20q-3 6 -8.5 14t-27.5 22t-49 14q-105 0 -132 -130l-21 -100h279z" />
    <glyph glyph-name="f_i" unicode="fi" horiz-adv-x="565" 
d="M198 510l26 120q15 74 55.5 112t97.5 38q29 0 52 -12.5t32 -25.5l9 -12l-9 -20q-3 6 -8.5 14t-27 22t-48.5 14q-106 0 -133 -130l-26 -120h300l-108 -510h-20l104 490h-280l-104 -490h-20l104 490h-100l4 20h100zM523 700q0 13 9 21.5t22 8.5q21 0 21 -20q0 -13 -9 -21.5
t-22 -8.5q-21 0 -21 20z" />
    <glyph glyph-name="f_l" unicode="fl" horiz-adv-x="590" 
d="M524 20l-4 -20q-14 -15 -49 -15q-67 0 -67 66q0 14 5 39l138 650q-29 0 -83 10t-87 10q-106 0 -133 -130l-26 -120h170l-4 -20h-170l-104 -490h-20l104 490h-100l4 20h100l26 120q15 74 55.5 112t97.5 38q33 0 89 -10t85 -10h20l-142 -670q-5 -27 -5 -39
q0 -25 11.5 -35.5t35.5 -10.5q13 0 25 3.5t18 7.5l5 4h5z" />
    <glyph glyph-name="f_f_i" unicode="ffi" horiz-adv-x="865" 
d="M498 510l26 120q15 74 55.5 112t97.5 38q29 0 52 -12.5t32 -25.5l9 -12l-9 -20q-3 6 -8.5 14t-27 22t-48.5 14q-106 0 -133 -130l-26 -120h300l-108 -510h-20l104 490h-280l-104 -490h-20l104 490h-280l-104 -490h-20l104 490h-100l4 20h101l21 100q15 74 55.5 112
t97.5 38q29 0 52 -12.5t32 -25.5l9 -12l-9 -20q-3 6 -8.5 14t-27.5 22t-49 14q-105 0 -132 -130l-21 -100h279zM823 700q0 13 9 21.5t22 8.5q21 0 21 -20q0 -13 -9 -21.5t-22 -8.5q-21 0 -21 20z" />
    <glyph glyph-name="f_f_l" unicode="ffl" horiz-adv-x="890" 
d="M824 20l-4 -20q-14 -15 -49 -15q-67 0 -67 66q0 14 5 39l138 650q-29 0 -83 10t-87 10q-106 0 -133 -130l-26 -120h170l-4 -20h-170l-104 -490h-20l104 490h-280l-104 -490h-20l104 490h-100l4 20h101l21 100q15 74 55.5 112t97.5 38q29 0 52 -12.5t32 -25.5l9 -12
l-9 -20q-3 6 -8.5 14t-27.5 22t-49 14q-105 0 -132 -130l-21 -100h279l26 120q15 74 55.5 112t97.5 38q33 0 89.5 -10t85.5 -10h19l-142 -670q-5 -27 -5 -39q0 -25 11.5 -35.5t35.5 -10.5q13 0 25 3.5t18 7.5l5 4h5z" />
    <glyph glyph-name="f_f_b" unicode="ffb" horiz-adv-x="1270" 
d="M1027 525q84 0 135.5 -56t51.5 -148q0 -146 -95.5 -241t-237.5 -95q-51 0 -98 8.5t-68 17.5l-21 9l153 720q-29 0 -83 10t-87 10q-106 0 -133 -130l-26 -120h170l-4 -20h-170l-104 -490h-20l104 490h-280l-104 -490h-20l104 490h-100l4 20h101l21 100q15 74 55 112t97 38
q29 0 52.5 -12.5t32.5 -25.5l9 -12l-9 -20q-3 6 -8.5 14t-27.5 22t-49 14q-105 0 -132 -130l-21 -100h279l26 120q15 74 55.5 112t97.5 38q33 0 89.5 -10t85.5 -10h20l-81 -375h5q4 6 10.5 15.5t29 33.5t47.5 42.5t64 33.5t80 15zM1027 505q-46 0 -88.5 -18.5t-70.5 -44.5
t-49 -52.5t-31 -45.5l-9 -18l-62 -291q64 -30 164 -30q134 0 223.5 89t89.5 227q0 85 -45.5 134.5t-121.5 49.5z" />
    <glyph glyph-name="f_f_f" unicode="fff" horiz-adv-x="960" 
d="M840 610l-21 -100h169l-4 -20h-170l-104 -490h-20l104 490h-280l-104 -490h-20l104 490h-280l-104 -490h-20l104 490h-100l4 20h101l21 100q15 74 55.5 112t97.5 38q29 0 52 -12.5t32 -25.5l9 -12l-9 -20q-3 6 -8.5 14t-27.5 22t-49 14q-105 0 -132 -130l-21 -100h279
l26 120q15 74 55.5 112t97.5 38q29 0 52 -12.5t32 -25.5l9 -12l-9 -20q-3 6 -8.5 14t-27 22t-48.5 14q-106 0 -133 -130l-26 -120h281l21 100q15 74 55 112t97 38q29 0 52.5 -12.5t32.5 -25.5l9 -12l-9 -20q-3 6 -8.5 14t-27.5 22t-49 14q-105 0 -132 -130z" />
    <glyph glyph-name="f_f_h" unicode="ffh" horiz-adv-x="1255" 
d="M1115 0h-20l66 310q6 29 6 53q0 66 -38 104t-102 38q-86 0 -163 -72t-102 -188l-52 -245h-20l157 740q-29 0 -83 10t-87 10q-106 0 -133 -130l-26 -120h170l-4 -20h-170l-104 -490h-20l104 490h-280l-104 -490h-20l104 490h-100l4 20h101l21 100q15 74 55.5 112t97.5 38
q29 0 52 -12.5t32 -25.5l9 -12l-9 -20q-3 6 -8.5 14t-27.5 22t-49 14q-105 0 -132 -130l-21 -100h279l26 120q15 74 55.5 112t97.5 38q33 0 89.5 -10t85.5 -10h20l-83 -386h5q4 6 10.5 16.5t29.5 36.5t48.5 45.5t64.5 36t80 16.5q71 0 115.5 -44t44.5 -117q0 -26 -6 -54z
" />
    <glyph glyph-name="f_f_j" unicode="ffj" horiz-adv-x="865" 
d="M498 510l26 120q15 74 55.5 112t97.5 38q29 0 52 -12.5t32 -25.5l9 -12l-9 -20q-3 6 -8.5 14t-27 22t-48.5 14q-106 0 -133 -130l-26 -120h300l-119 -560q-30 -144 -153 -160l-1 20q108 16 134 140l115 540h-280l-104 -490h-20l104 490h-280l-104 -490h-20l104 490h-100
l4 20h101l21 100q15 74 55.5 112t97.5 38q29 0 52 -12.5t32 -25.5l9 -12l-9 -20q-3 6 -8.5 14t-27.5 22t-49 14q-105 0 -132 -130l-21 -100h279zM823 700q0 13 9 21.5t22 8.5q21 0 21 -20q0 -13 -9 -21.5t-22 -8.5q-21 0 -21 20z" />
    <glyph glyph-name="f_f_k" unicode="ffk" horiz-adv-x="1145" 
d="M1060 0l-188 277l-123 -92l-39 -185h-20l157 740q-29 0 -83 10t-87 10q-106 0 -133 -130l-26 -120h170l-4 -20h-170l-104 -490h-20l104 490h-280l-104 -490h-20l104 490h-100l4 20h101l21 100q15 74 55.5 112t97.5 38q29 0 52 -12.5t32 -25.5l9 -12l-9 -20q-3 6 -8.5 14
t-27.5 22t-49 14q-105 0 -132 -130l-21 -100h279l26 120q15 74 55.5 112t97.5 38q33 0 89.5 -10t85.5 -10h20l-117 -545l394 295h34l-295 -221l197 -289h-25z" />
    <glyph glyph-name="f_h" unicode="fh" horiz-adv-x="955" 
d="M815 0h-20l66 310q6 29 6 53q0 66 -38 104t-102 38q-86 0 -163 -72t-102 -188l-52 -245h-20l157 740q-29 0 -83 10t-87 10q-106 0 -133 -130l-26 -120h170l-4 -20h-170l-104 -490h-20l104 490h-100l4 20h100l26 120q15 74 55.5 112t97.5 38q33 0 89.5 -10t85.5 -10h20
l-83 -386h5q4 6 10.5 16.5t29.5 36.5t48.5 45.5t64.5 36t80 16.5q71 0 115.5 -44t44.5 -117q0 -26 -6 -54z" />
    <glyph glyph-name="f_j" unicode="fj" horiz-adv-x="565" 
d="M198 510l26 120q16 73 56 111.5t97 38.5q29 0 52 -12.5t32 -25.5l9 -12l-9 -20q-3 6 -8.5 14t-27 22t-48.5 14q-106 0 -133 -130l-26 -120h300l-119 -560q-30 -144 -153 -160l-1 20q108 16 134 140l115 540h-280l-104 -490h-20l104 490h-100l4 20h100zM523 700
q0 13 9 21.5t22 8.5q21 0 21 -20q0 -13 -9 -21.5t-22 -8.5q-21 0 -21 20z" />
    <glyph glyph-name="f_k" unicode="fk" horiz-adv-x="845" 
d="M760 0l-188 277l-123 -92l-39 -185h-20l157 740q-29 0 -83 10t-87 10q-106 0 -133 -130l-26 -120h170l-4 -20h-170l-104 -490h-20l104 490h-100l4 20h100l26 120q15 74 55.5 112t97.5 38q33 0 89.5 -10t85.5 -10h20l-117 -545l394 295h34l-295 -221l197 -289h-25z" />
    <glyph glyph-name="f_t" unicode="ft" horiz-adv-x="690" 
d="M399 135l75 355h-260l-104 -490h-20l104 490h-100l4 20h100l26 120q15 74 55.5 112t97.5 38q29 0 52 -12.5t32 -25.5l9 -12l-9 -20q-3 6 -8.5 14t-27 22t-48.5 14q-106 0 -133 -130l-26 -120h260l29 135l22 10l-31 -145h170l-4 -20h-170l-75 -355q-6 -27 -6 -47
q0 -83 83 -83q27 0 51.5 11t36.5 22l11 12h5l-4 -20q-4 -5 -12.5 -12.5t-35.5 -20t-56 -12.5q-47 0 -73 25.5t-26 74.5q0 23 6 50z" />
    <glyph glyph-name="f_b" unicode="fb" horiz-adv-x="970" 
d="M727 525q84 0 135.5 -56t51.5 -148q0 -146 -95.5 -241t-237.5 -95q-51 0 -98 8.5t-68 17.5l-21 9l153 720q-29 0 -83 10t-87 10q-106 0 -133 -130l-26 -120h170l-4 -20h-170l-104 -490h-20l104 490h-100l4 20h100l26 120q15 74 55.5 112t97.5 38q33 0 89.5 -10t85.5 -10
h20l-81 -375h5q4 6 10.5 15.5t29 33.5t47.5 42.5t64 33.5t80 15zM727 505q-46 0 -88.5 -18.5t-70.5 -44.5t-49 -52.5t-31 -45.5l-9 -18l-62 -291q64 -30 164 -30q134 0 223.5 89t89.5 227q0 85 -45.5 134.5t-121.5 49.5z" />
    <glyph glyph-name=".notdef" horiz-adv-x="650" 
d="M150 730h400v-730h-400v730zM170 40l170 325l-170 325v-650zM530 690l-170 -325l170 -325v650zM180 710l170 -325l170 325h-340zM520 20l-170 325l-170 -325h340z" />
    <glyph glyph-name=".null" horiz-adv-x="0" 
 />
    <glyph glyph-name=".null" horiz-adv-x="0" 
 />
    <glyph glyph-name="nonmarkingreturn" horiz-adv-x="333" 
 />
    <glyph glyph-name="CR" unicode="&#xd;" horiz-adv-x="0" 
 />
    <glyph glyph-name="space" unicode=" " horiz-adv-x="240" 
 />
    <glyph glyph-name="exclam" unicode="!" horiz-adv-x="290" 
d="M119 160l136 640h20l-136 -640h-20zM74 15q0 13 9 21.5t22 8.5q20 0 20 -20q0 -13 -9 -21.5t-22 -8.5q-20 0 -20 20z" />
    <glyph glyph-name="quotedbl" unicode="&#x22;" horiz-adv-x="330" 
d="M149 560l51 240h20l-51 -240h-20zM299 560l51 240h20l-51 -240h-20z" />
    <glyph glyph-name="numbersign" unicode="#" horiz-adv-x="700" 
d="M651 730h20l-90 -210h135l-4 -20h-140l-113 -270h155l-4 -20h-160l-90 -210h-20l90 210h-235l-90 -210h-20l90 210h-135l4 20h140l113 270h-155l4 20h160l90 210h20l-90 -210h235zM317 500l-113 -270h235l113 270h-235z" />
    <glyph glyph-name="dollar" unicode="$" horiz-adv-x="555" 
d="M155 554q0 80 60 134t158 57l19 90h20l-19 -90q48 -2 86 -22t53 -39l14 -19l-9 -20q-2 3 -5 8t-15.5 18.5t-28 23.5t-42 19.5t-57.5 10.5l-70 -331q32 -19 48.5 -29.5t42 -30.5t38.5 -36.5t23.5 -40.5t10.5 -50q0 -93 -68.5 -157t-181.5 -65l-19 -90h-20l19 90
q-37 3 -69 14.5t-51 26.5t-33 29.5t-19 24.5l-6 10l14 20l5.5 -11t17.5 -24.5t31.5 -31t48 -25.5t65.5 -13l80 378q-68 41 -104.5 78.5t-36.5 92.5zM461 203q0 29 -11.5 53.5t-35.5 46t-44.5 35.5t-55.5 34l-78 -367q99 0 162 57.5t63 140.5zM175 557q0 -48 32.5 -82.5
t93.5 -70.5l68 321q-90 -4 -142 -52t-52 -116z" />
    <glyph glyph-name="percent" unicode="%" horiz-adv-x="820" 
d="M440 622q0 -75 -54.5 -126t-130.5 -51q-55 0 -88.5 35t-33.5 88q0 75 54.5 126t130.5 51q55 0 88.5 -35t33.5 -88zM420 620q0 46 -29 75.5t-77 29.5q-65 0 -113 -45t-48 -110q0 -46 29 -75.5t77 -29.5q65 0 113 45t48 110zM740 730h25l-630 -730h-25zM742 162
q0 -75 -54.5 -126t-130.5 -51q-55 0 -88.5 35t-33.5 88q0 75 54.5 126t130.5 51q55 0 88.5 -35t33.5 -88zM722 160q0 46 -29 75.5t-77 29.5q-65 0 -113 -45t-48 -110q0 -46 29 -75.5t77 -29.5q65 0 113 45t48 110z" />
    <glyph glyph-name="ampersand" unicode="&#x26;" horiz-adv-x="695" 
d="M423 745q51 0 84.5 -33t33.5 -86q0 -71 -52.5 -125t-167.5 -109l193 -232l172 150l-7 -30l-153 -135l119 -145h-25l-109 133q-6 -6 -16.5 -16t-43.5 -35.5t-66 -45t-79.5 -35.5t-88.5 -16q-79 0 -122.5 40.5t-43.5 107.5q0 48 24.5 93t59.5 75t70.5 53.5t60.5 34.5l24 11
q-7 7 -16.5 20.5t-26 54.5t-16.5 81q0 81 55 135t137 54zM221 5q39 0 82 14.5t76.5 35.5t61.5 42.5t43 36.5l15 14l-197 237q-9 -4 -25 -11t-55.5 -31t-70 -51t-55.5 -69t-25 -87q0 -61 39 -96t111 -35zM252 561q0 -38 14.5 -77t29.5 -58l14 -20q110 55 160 104.5t50 113.5
q0 47 -27 74t-74 27q-70 0 -118.5 -47t-48.5 -117z" />
    <glyph glyph-name="quotesingle" unicode="'" horiz-adv-x="180" 
d="M149 560l51 240h20l-51 -240h-20z" />
    <glyph glyph-name="parenleft" unicode="(" horiz-adv-x="360" 
d="M124 135q0 -96 20 -184.5t40 -129.5l19 -41h-20q-9 16 -22 45t-35 121.5t-22 188.5q0 102 30.5 208t74 184.5t87 142.5t74.5 97l30 33h20q-12 -12 -32 -34.5t-71 -94t-90 -145.5t-71 -181.5t-32 -209.5z" />
    <glyph glyph-name="parenright" unicode=")" horiz-adv-x="360" 
d="M259 445q0 60 -8 119t-19.5 99.5t-23.5 73t-20 47.5l-8 16h20q9 -16 22 -45t35 -121.5t22 -188.5q0 -102 -30.5 -208t-74 -184.5t-87 -142.5t-73.5 -97l-31 -33h-20q12 12 32 34.5t71 94t90 145.5t71 181.5t32 209.5z" />
    <glyph glyph-name="asterisk" unicode="*" horiz-adv-x="420" 
d="M329 750l-30 -140l157 55l1 -20l-157 -55l69 -125l-17 -10l-68 123l-121 -125l-14 12l122 126l-133 55l8 19l133 -55l30 140h20z" />
    <glyph glyph-name="plus" unicode="+" 
d="M301 335h200l-4 -20h-200l-45 -210h-20l45 210h-200l4 20h200l45 210h20z" />
    <glyph glyph-name="comma" unicode="," horiz-adv-x="210" 
d="M84 23q0 -24 -22 -72t-60 -81h-10q50 50 67 125h-5q-21 0 -21 20q0 13 9 21.5t22 8.5q20 0 20 -22z" />
    <glyph glyph-name="hyphen" unicode="-" horiz-adv-x="420" 
d="M77 315l4 20h300l-4 -20h-300z" />
    <glyph glyph-name="period" unicode="." horiz-adv-x="210" 
d="M85 25q0 -13 -9 -21.5t-22 -8.5q-20 0 -20 20q0 13 9 21.5t22 8.5q20 0 20 -20z" />
    <glyph glyph-name="slash" unicode="/" horiz-adv-x="410" 
d="M-97 -220l607 1020h20l-607 -1020h-20z" />
    <glyph glyph-name="zero" unicode="0" horiz-adv-x="670" 
d="M67 207q0 131 97.5 224.5t227.5 93.5q97 0 158 -62.5t61 -159.5q0 -131 -97.5 -224.5t-227.5 -93.5q-97 0 -158 62.5t-61 159.5zM591 303q0 89 -54.5 145.5t-144.5 56.5q-122 0 -213 -87t-91 -211q0 -89 54.5 -145.5t143.5 -56.5q122 0 213.5 87t91.5 211z" />
    <glyph glyph-name="one" unicode="1" horiz-adv-x="330" 
d="M83 390l5 25l181 95h10l-109 -510h-20l102 480z" />
    <glyph glyph-name="two" unicode="2" horiz-adv-x="475" 
d="M419 401q0 46 -34 75t-98 29q-49 0 -93.5 -16.5t-64.5 -32.5l-20 -16h-5l4 20q7 7 21 18t60.5 29t97.5 18q70 0 111 -34t41 -87q0 -32 -13.5 -62.5t-40 -57.5t-47 -44t-52.5 -40l-254 -180h337l-4 -20h-385l1 5l292 210q32 23 52 39.5t44.5 41t37 51t12.5 54.5z" />
    <glyph glyph-name="three" unicode="3" horiz-adv-x="500" 
d="M98 155l-8 10l348 325h-329l4 20h370l-1 -5l-327 -305l-1 -5q20 10 65 10q83 0 133 -49.5t50 -129.5q0 -111 -77.5 -186t-190.5 -75q-38 0 -71 10.5t-53.5 25t-35.5 29t-22 24.5l-6 11l14 20l5.5 -11t18 -24t33 -30t50 -24t67.5 -11q106 0 177 68.5t71 172.5
q0 73 -43.5 116t-119.5 43q-33 0 -63.5 -7.5t-43.5 -15.5z" />
    <glyph glyph-name="four" unicode="4" horiz-adv-x="520" 
d="M375 510h25l-387 -490h311l49 230h20l-49 -230h110l-4 -20h-110l-47 -220h-20l47 220h-345l1 5z" />
    <glyph glyph-name="five" unicode="5" horiz-adv-x="525" 
d="M159 -235q-38 0 -71 10.5t-53.5 25t-35.5 29t-21 24.5l-7 11l14 20l5.5 -11t18 -24t33 -30t50 -24t67.5 -11q108 0 179.5 72t71.5 185q0 76 -43 119.5t-119 43.5q-32 0 -62.5 -7.5t-51 -18.5t-36.5 -22.5t-24 -18.5l-7 -8l-14 5l135 375h325l-4 -20h-307l-118 -326
q6 7 18 17t54.5 27t91.5 17q83 0 132.5 -50t49.5 -133q0 -120 -78 -198.5t-193 -78.5z" />
    <glyph glyph-name="six" unicode="6" horiz-adv-x="580" 
d="M59 170q0 119 123.5 286t267.5 274h25q-9 -7 -25 -19.5t-60.5 -53t-84.5 -82t-86.5 -102t-77.5 -118.5h5q3 3 8 8.5t22.5 19.5t37.5 24.5t52.5 19t66.5 8.5q84 0 135.5 -52t51.5 -133q0 -109 -83.5 -187t-190.5 -78q-84 0 -135.5 52t-51.5 133zM333 415q-104 0 -179 -71
t-75 -174q0 -74 45.5 -119.5t121.5 -45.5q99 0 176.5 72t77.5 173q0 74 -45.5 119.5t-121.5 45.5z" />
    <glyph glyph-name="seven" unicode="7" horiz-adv-x="485" 
d="M94 490l4 20h405l-1 -5l-421 -725h-23l413 710h-377z" />
    <glyph glyph-name="eight" unicode="8" horiz-adv-x="600" 
d="M332 385q-111 0 -183.5 -65t-72.5 -161q0 -69 46.5 -111.5t128.5 -42.5q111 0 183 65t72 161q0 69 -46 111.5t-128 42.5zM404 725q-95 0 -154.5 -54.5t-59.5 -137.5q0 -58 38.5 -93t107.5 -35q95 0 154 54.5t59 137.5q0 58 -38 93t-107 35zM404 745q77 0 121 -41t44 -107
q0 -46 -16.5 -83.5t-40.5 -58t-48 -35t-40 -18.5l-17 -5l-1 -4q5 -1 13 -4t28.5 -15t36.5 -28.5t29 -47t13 -67.5q0 -103 -78 -174.5t-197 -71.5q-90 0 -142.5 48.5t-52.5 125.5q0 55 21 99.5t51 68.5t60 40t51 21l21 5l1 4q-4 1 -10 3.5t-21.5 13.5t-27.5 25t-22 39t-10 55
q0 90 66 151t168 61z" />
    <glyph glyph-name="nine" unicode="9" horiz-adv-x="580" 
d="M529 340q0 -119 -123.5 -286t-267.5 -274h-25q9 7 25 19.5t60.5 53t84.5 82t86.5 102t77.5 118.5h-5q-3 -3 -8 -8.5t-22.5 -19.5t-37.5 -24.5t-52.5 -19t-66.5 -8.5q-84 0 -135.5 52t-51.5 133q0 109 83.5 187t190.5 78q84 0 135.5 -52t51.5 -133zM255 95q104 0 179 71
t75 174q0 74 -45.5 119.5t-121.5 45.5q-99 0 -176.5 -72t-77.5 -173q0 -74 45.5 -119.5t121.5 -45.5z" />
    <glyph glyph-name="colon" unicode=":" horiz-adv-x="210" 
d="M85 25q0 -13 -9 -21.5t-22 -8.5q-20 0 -20 20q0 13 9 21.5t22 8.5q20 0 20 -20zM189 515q0 -13 -9 -21.5t-22 -8.5q-20 0 -20 20q0 13 9 21.5t22 8.5q20 0 20 -20z" />
    <glyph glyph-name="semicolon" unicode=";" horiz-adv-x="210" 
d="M84 23q0 -24 -22 -72t-60 -81h-10q50 50 67 125h-5q-21 0 -21 20q0 13 9 21.5t22 8.5q20 0 20 -22zM189 515q0 -13 -9 -21.5t-22 -8.5q-20 0 -20 20q0 13 9 21.5t22 8.5q20 0 20 -20z" />
    <glyph glyph-name="less" unicode="&#x3c;" 
d="M90 264l353 -228l-5 -21l-378 245l2 10l482 245l-5 -25z" />
    <glyph glyph-name="equal" unicode="=" 
d="M65 210l4 20h400l-4 -20h-400zM110 420l4 20h400l-4 -20h-400z" />
    <glyph glyph-name="greater" unicode="&#x3e;" 
d="M462 266l-353 228l5 21l378 -245l-2 -10l-482 -245l5 25z" />
    <glyph glyph-name="question" unicode="?" horiz-adv-x="470" 
d="M196 170h-20q13 61 48 111.5t74.5 84t78 66t63.5 74.5t25 93q0 57 -36.5 91.5t-99.5 34.5q-31 0 -61.5 -7.5t-52 -18.5t-38.5 -22.5t-25 -18.5l-9 -8h-5l4 20q8 8 23 20.5t64 33.5t100 21q71 0 113.5 -41t42.5 -105q0 -53 -25.5 -96.5t-64 -76.5t-78 -66.5t-74.5 -82.5
t-47 -107zM180 25q0 -13 -9 -21.5t-22 -8.5q-20 0 -20 20q0 13 9 21.5t22 8.5q20 0 20 -20z" />
    <glyph glyph-name="at" unicode="@" horiz-adv-x="1010" 
d="M973 413q0 -139 -65 -221t-155 -82q-32 0 -54 10.5t-31 25t-14 29t-4 25.5v10q-2 -4 -6.5 -11t-21 -24t-35.5 -30t-49.5 -24t-64.5 -11q-64 0 -103.5 42.5t-39.5 115.5q0 112 64.5 182t157.5 70q34 0 60.5 -11t40 -26t22.5 -30.5t11 -26.5l3 -11l30 95h9l-55 -260
q-13 -59 8.5 -89.5t71.5 -30.5q83 0 141.5 75.5t58.5 207.5q0 137 -92.5 224.5t-251.5 87.5q-130 0 -245.5 -64.5t-186 -177t-70.5 -243.5q0 -146 91.5 -240.5t236.5 -94.5q62 0 120.5 15t85.5 30l27 15h5l-4 -20q-11 -7 -30 -17t-80.5 -26.5t-123.5 -16.5
q-153 0 -250.5 101t-97.5 254q0 136 73.5 253t193.5 184.5t255 67.5q167 0 265.5 -94t98.5 -238zM473 130q85 0 143 64t58 168q0 66 -33 102t-89 36q-85 0 -143 -64t-58 -168q0 -66 33 -102t89 -36z" />
    <glyph glyph-name="A" unicode="A" horiz-adv-x="745" 
d="M577 270l-102 425h-5l-284 -425h391zM583 250h-411l-168 -250h-24l490 730h15l180 -730h-20z" />
    <glyph glyph-name="B" unicode="B" horiz-adv-x="630" 
d="M274 0h-204l155 730h176q89 0 137 -41t48 -108q0 -46 -17 -83t-41 -57t-48 -33.5t-41 -17.5l-17 -5l-1 -5q5 -1 13.5 -3.5t30 -14t38 -27t30 -44.5t13.5 -65q0 -95 -75.5 -160.5t-196.5 -65.5zM526 226q0 65 -46 104.5t-131 39.5h-180l-75 -350h180q113 0 182.5 59.5
t69.5 146.5zM401 710h-160l-68 -320h160q110 0 171.5 53.5t61.5 137.5q0 60 -41.5 94.5t-123.5 34.5z" />
    <glyph glyph-name="C" unicode="C" horiz-adv-x="780" 
d="M396 -15q-130 0 -214 89.5t-84 223.5q0 90 38.5 173.5t101.5 143t145 95t166 35.5q48 0 90.5 -12.5t69 -30t46.5 -35t29 -29.5l8 -13l-14 -20q-3 5 -8 13t-25 28.5t-44 36.5t-65 29t-87 13q-108 0 -207 -56.5t-161.5 -156.5t-62.5 -214q0 -127 78 -210t200 -83
q46 0 92 12.5t78.5 30t58 35t38.5 29.5l13 13h5l-5 -25q-4 -5 -12.5 -12.5t-37 -27.5t-59 -35t-77 -27.5t-94.5 -12.5z" />
    <glyph glyph-name="D" unicode="D" horiz-adv-x="740" 
d="M70 0l155 730h176q129 0 212 -86.5t83 -216.5q0 -113 -63 -212.5t-165 -157t-214 -57.5h-184zM401 710h-160l-147 -690h160q107 0 204.5 54.5t157.5 149t60 203.5q0 123 -76.5 203t-198.5 80z" />
    <glyph glyph-name="E" unicode="E" horiz-adv-x="605" 
d="M168 365l-74 -345h405l-4 -20h-425l155 730h425l-4 -20h-405l-69 -325h330l-4 -20h-330z" />
    <glyph glyph-name="F" unicode="F" horiz-adv-x="585" 
d="M164 350l-74 -350h-20l155 730h425l-4 -20h-405l-72 -340h330l-5 -20h-330z" />
    <glyph glyph-name="G" unicode="G" horiz-adv-x="825" 
d="M396 -15q-130 0 -214 89.5t-84 223.5q0 90 38.5 173.5t101.5 143t145 95t166 35.5q48 0 90.5 -12.5t69 -30t46.5 -35t29 -29.5l8 -13l-14 -20q-3 5 -8 13t-25 28.5t-44 36.5t-65 29t-87 13q-108 0 -207 -56.5t-161.5 -156.5t-62.5 -214q0 -127 78 -210t200 -83
q48 0 95 13t80 31.5t59 36.5t39 31l13 13l47 220h-290l9 20h305l-52 -245q-5 -6 -13.5 -15.5t-39 -33.5t-63.5 -42.5t-84.5 -33.5t-104.5 -15z" />
    <glyph glyph-name="H" unicode="H" horiz-adv-x="760" 
d="M168 365l-78 -365h-20l155 730h20l-73 -345h480l73 345h20l-155 -730h-20l78 365h-480z" />
    <glyph glyph-name="I" unicode="I" horiz-adv-x="260" 
d="M70 0l155 730h20l-155 -730h-20z" />
    <glyph glyph-name="J" unicode="J" horiz-adv-x="275" 
d="M260 730l-151 -710q-31 -150 -188 -180l-1 20q140 24 169 160l151 710h20z" />
    <glyph glyph-name="K" unicode="K" horiz-adv-x="620" 
d="M536 0l-233 406l-153 -126l-60 -280h-20l155 730h20l-89 -419l507 419h32l-376 -310l241 -420h-24z" />
    <glyph glyph-name="L" unicode="L" 
d="M70 0l155 730h20l-151 -710h370l-4 -20h-390z" />
    <glyph glyph-name="M" unicode="M" horiz-adv-x="935" 
d="M430 0h-20l-100 689l-250 -689h-20l265 730h19l101 -702l399 702h21l-45 -730h-20l42 689z" />
    <glyph glyph-name="N" unicode="N" horiz-adv-x="780" 
d="M237 694l-147 -694h-20l155 730h15l358 -694l147 694h20l-155 -730h-15z" />
    <glyph glyph-name="O" unicode="O" horiz-adv-x="890" 
d="M98 298q0 90 38.5 173.5t101.5 143t145 95t166 35.5q130 0 214 -89.5t84 -223.5q0 -90 -38.5 -173.5t-101.5 -143t-145 -95t-166 -35.5q-130 0 -214 89.5t-84 223.5zM119 298q0 -127 77.5 -210t199.5 -83q80 0 158.5 34t138 90.5t96.5 136.5t37 166q0 127 -77.5 210
t-199.5 83q-80 0 -158.5 -34t-138 -90.5t-96.5 -136.5t-37 -166z" />
    <glyph glyph-name="P" unicode="P" horiz-adv-x="625" 
d="M156 310h180q113 0 185.5 68.5t72.5 172.5q0 73 -45.5 116t-127.5 43h-180zM225 730h196q90 0 141.5 -49t51.5 -130q0 -112 -78.5 -186.5t-199.5 -74.5h-184l-62 -290h-20z" />
    <glyph glyph-name="Q" unicode="Q" horiz-adv-x="890" 
d="M847 432q0 -56 -14 -108.5t-36.5 -91t-49.5 -72t-53.5 -56t-49 -38.5t-36.5 -23l-14 -7q0 -4 1.5 -11.5t8 -25.5t16 -32t28 -25.5t42.5 -11.5q22 0 42.5 9t29.5 17l10 9h5l-4 -20q-33 -35 -88 -35q-25 0 -45.5 12t-32 29t-19.5 34t-10 29l-3 12q-80 -41 -179 -41
q-130 0 -214 89.5t-84 223.5q0 90 38.5 173.5t101.5 143t145 95t166 35.5q130 0 214 -89.5t84 -223.5zM826 432q0 127 -77.5 210t-199.5 83q-80 0 -158.5 -34t-138 -90.5t-96.5 -136.5t-37 -166q0 -49 12.5 -93t30.5 -71t36 -47t30 -29l13 -8q2 7 7 17.5t23 38t40 48.5
t59 38.5t79 17.5q34 0 60.5 -16t41 -38.5t23.5 -45.5t12 -39l3 -16q10 5 26 14.5t56.5 43.5t72 74t57 106t25.5 139zM259 39q55 -34 137 -34q44 0 87.5 10t65.5 21l22 10q-1 6 -2.5 15.5t-10.5 34.5t-21.5 44t-36.5 34.5t-55 15.5q-38 0 -71 -15.5t-53 -37.5t-35 -44.5
t-21 -38.5z" />
    <glyph glyph-name="R" unicode="R" horiz-adv-x="630" 
d="M225 730h195q86 0 135.5 -48t49.5 -126q0 -103 -73.5 -175t-177.5 -81l166 -300h-24l-166 300h-176l-64 -300h-20zM158 320h175q103 0 177.5 68t74.5 166q0 70 -45 113t-124 43h-175z" />
    <glyph glyph-name="S" unicode="S" horiz-adv-x="555" 
d="M379 745q34 0 63.5 -8t47.5 -20t31.5 -24t18.5 -20l6 -8l-9 -20q-2 3 -5.5 8.5t-17 19.5t-30 24.5t-45 19t-60.5 8.5q-93 0 -148.5 -48.5t-55.5 -118.5q0 -44 31.5 -80t77 -63t90.5 -54.5t76.5 -66.5t31.5 -87q0 -93 -70 -157.5t-181 -64.5q-41 0 -76 11t-56.5 26
t-37 30.5t-21.5 26.5l-6 11l14 20l5.5 -11t18.5 -25.5t33.5 -32t52.5 -25t73 -11.5q103 0 166.5 57.5t63.5 140.5q0 45 -31.5 82t-76.5 64l-90 54t-76.5 65.5t-31.5 85.5q0 80 61.5 135.5t162.5 55.5z" />
    <glyph glyph-name="T" unicode="T" horiz-adv-x="600" 
d="M666 710h-255l-151 -710h-20l151 710h-255l4 20h530z" />
    <glyph glyph-name="U" unicode="U" horiz-adv-x="740" 
d="M321 5q113 0 190 64.5t102 180.5l102 480h20l-102 -480q-26 -124 -109 -194.5t-203 -70.5q-121 0 -177.5 71t-30.5 194l102 480h20l-102 -480q-25 -116 25 -180.5t163 -64.5z" />
    <glyph glyph-name="V" unicode="V" horiz-adv-x="715" 
d="M290 0l-155 730h20l146 -691h5l440 691h24l-465 -730h-15z" />
    <glyph glyph-name="W" unicode="W" horiz-adv-x="1025" 
d="M593 665l-348 -665h-15l-95 730h20l88 -680h5l357 680h5l66 -680h5l376 680h23l-405 -730h-15l-62 665h-5z" />
    <glyph glyph-name="X" unicode="X" horiz-adv-x="670" 
d="M710 730l-333 -357l193 -373h-23l-185 360l-333 -360h-29l352 377l-182 353h23l174 -340l315 340h28z" />
    <glyph glyph-name="Y" unicode="Y" horiz-adv-x="660" 
d="M260 0l64 300l-194 430h22l185 -410l356 410h27l-376 -430l-64 -300h-20z" />
    <glyph glyph-name="Z" unicode="Z" horiz-adv-x="610" 
d="M2 10l616 700h-447l4 20h480l-2 -10l-616 -700h477l-4 -20h-510z" />
    <glyph glyph-name="bracketleft" unicode="[" horiz-adv-x="380" 
d="M24 -215l216 1015h210l-5 -20h-190l-207 -975h190l-4 -20h-210z" />
    <glyph glyph-name="backslash" unicode="\" horiz-adv-x="410" 
d="M140 800l173 -1020h-20l-173 1020h20z" />
    <glyph glyph-name="bracketright" unicode="]" horiz-adv-x="380" 
d="M380 800l-216 -1015h-210l4 20h190l207 975h-190l5 20h210z" />
    <glyph glyph-name="asciicircum" unicode="^" horiz-adv-x="500" 
d="M85 400l265 330h10l125 -330h-18l-115 305l-245 -305h-22z" />
    <glyph glyph-name="underscore" unicode="_" horiz-adv-x="400" 
d="M-96 -120l4 20h440l-4 -20h-440z" />
    <glyph glyph-name="grave" unicode="`" horiz-adv-x="180" 
d="M169 750l56 -160h-18l-68 160h30z" />
    <glyph glyph-name="a" unicode="a" horiz-adv-x="608" 
d="M245 5q43 0 83.5 18.5t67.5 45t47.5 53t30.5 44.5l9 19l65 305h-160q-126 0 -213.5 -87t-87.5 -218q0 -81 44.5 -130.5t113.5 -49.5zM245 -15q-77 0 -127.5 56t-50.5 144q0 138 94 231.5t227 93.5h184l-108 -510h-15l22 125h-5q-3 -6 -9.5 -15.5t-28 -33.5t-45.5 -42.5
t-61.5 -33.5t-76.5 -15z" />
    <glyph glyph-name="b" unicode="b" horiz-adv-x="625" 
d="M382 505q-46 0 -88.5 -18.5t-70.5 -44.5t-49 -52.5t-30 -45.5l-10 -18l-62 -291q64 -30 164 -30q134 0 223.5 89t89.5 227q0 85 -45.5 134.5t-121.5 49.5zM382 525q84 0 135.5 -56t51.5 -148q0 -146 -95.5 -241t-237.5 -95q-51 0 -98 8.5t-68 17.5l-21 9l157 740h20
l-80 -375h5q4 6 10.5 15.5t29 33.5t47.5 42.5t64 33.5t80 15z" />
    <glyph glyph-name="c" unicode="c" horiz-adv-x="570" 
d="M478 85l-6 -25q-3 -3 -9 -8t-25.5 -18t-41 -23t-54 -18t-66.5 -8q-91 0 -150 63t-59 159q0 130 96.5 224t218.5 94q35 0 66 -8t50.5 -20t34 -24t20.5 -20l6 -8l-14 -20q-2 3 -6 8.5t-18.5 19.5t-31.5 24.5t-46 19t-61 8.5q-115 0 -205 -88t-90 -210q0 -89 52.5 -145.5
t136.5 -56.5q51 0 100.5 20t73.5 40l23 20h5z" />
    <glyph glyph-name="d" unicode="d" horiz-adv-x="645" 
d="M368 505q-109 0 -195 -87.5t-86 -215.5q0 -88 48.5 -142.5t125.5 -54.5q108 0 194.5 89t86.5 214q0 88 -49 142.5t-125 54.5zM368 525q44 0 79.5 -16t54.5 -38.5t31.5 -45.5t16.5 -39l4 -16h5l83 390h20l-162 -760h-15l21 124h-5q-3 -6 -10 -15t-30 -33t-48.5 -42.5
t-67 -33.5t-84.5 -15q-84 0 -139 60.5t-55 156.5q0 135 92 229t209 94z" />
    <glyph glyph-name="e" unicode="e" horiz-adv-x="610" 
d="M98 285h437q6 25 6 55q0 74 -45 119.5t-119 45.5q-91 0 -172.5 -63.5t-106.5 -156.5zM276 5q51 0 100.5 20t73.5 40l23 20h5l-6 -25q-3 -3 -9 -8t-25.5 -18t-41 -23t-54 -18t-66.5 -8q-91 0 -150 63t-59 159q0 130 95.5 224t214.5 94q81 0 132 -51.5t51 -134.5
q0 -20 -2 -38.5t-4 -26.5l-3 -9h-458q-6 -25 -6 -58q0 -89 52.5 -145.5t136.5 -56.5z" />
    <glyph glyph-name="f" unicode="f" horiz-adv-x="360" 
d="M198 510l26 120q15 74 55.5 112t97.5 38q29 0 52 -12.5t32 -25.5l9 -12l-9 -20q-3 6 -8.5 14t-27 22t-48.5 14q-106 0 -133 -130l-26 -120h170l-4 -20h-170l-104 -490h-20l104 490h-100l4 20h100z" />
    <glyph glyph-name="g" unicode="g" horiz-adv-x="645" 
d="M268 35q104 0 190 86t86 194q0 83 -49.5 136.5t-126.5 53.5q-106 0 -191 -83t-85 -197q0 -83 49 -136.5t127 -53.5zM486 25l26 127h-6q-3 -6 -9.5 -15t-28.5 -32.5t-47 -41.5t-66.5 -33t-86.5 -15q-85 0 -141 60t-56 150q0 122 92 211t205 89q45 0 80.5 -15t55 -36.5
t32 -42.5t16.5 -36l4 -15h5l33 130h15l-103 -485q-26 -123 -104 -191.5t-188 -68.5q-53 0 -94.5 15t-56.5 30l-15 15l1 30q2 -3 5.5 -7.5t17 -16.5t30.5 -21.5t47 -17t65 -7.5q103 0 175.5 62.5t96.5 177.5z" />
    <glyph glyph-name="h" unicode="h" horiz-adv-x="610" 
d="M470 0h-20l66 310q6 28 6 53q0 66 -38 104t-102 38q-86 0 -163 -72t-102 -188l-52 -245h-20l162 760h20l-83 -386h5q4 6 10.5 16.5t29.5 36.5t48.5 45.5t64.5 36t80 16.5q71 0 115.5 -44t44.5 -117q0 -26 -6 -54z" />
    <glyph glyph-name="i" unicode="i" horiz-adv-x="230" 
d="M183 510l-108 -510h-20l108 510h20zM188 700q0 13 9 21.5t22 8.5q21 0 21 -20q0 -13 -9 -21.5t-22 -8.5q-21 0 -21 20z" />
    <glyph glyph-name="j" unicode="j" horiz-adv-x="230" 
d="M183 510l-119 -560q-30 -144 -153 -160l-1 20q108 16 134 140l119 560h20zM188 700q0 13 9 21.5t22 8.5q21 0 21 -20q0 -13 -9 -21.5t-22 -8.5q-21 0 -21 20z" />
    <glyph glyph-name="k" unicode="k" horiz-adv-x="500" 
d="M415 0l-188 277l-123 -92l-39 -185h-20l162 760h20l-117 -545l394 295h34l-295 -221l197 -289h-25z" />
    <glyph glyph-name="l" unicode="l" horiz-adv-x="245" 
d="M179 20l-4 -20q-14 -15 -49 -15q-67 0 -67 66q0 14 5 39l142 670h20l-142 -670q-5 -27 -5 -39q0 -25 11.5 -35.5t35.5 -10.5q13 0 25 3.5t17 7.5l6 4h5z" />
    <glyph glyph-name="m" unicode="m" horiz-adv-x="945" 
d="M491 265l-56 -265h-20l70 330q5 22 5 50q0 59 -33 92t-90 33q-78 0 -151 -67.5t-95 -172.5l-56 -265h-20l108 510h15l-22 -130h5q3 6 9 15.5t26.5 34.5t44 44.5t60.5 35t76 15.5q30 0 54 -8t39 -20t26 -29t16 -31t7.5 -29.5t3 -21.5t0.5 -11h4q3 6 9.5 16t27.5 36t45 46
t61.5 36t76.5 16q65 0 104.5 -38.5t39.5 -105.5q0 -24 -6 -51l-70 -330h-20l70 330q5 23 5 50q0 59 -33 92t-90 33q-78 0 -151 -67.5t-95 -172.5z" />
    <glyph glyph-name="n" unicode="n" horiz-adv-x="610" 
d="M470 0h-20l66 310q6 28 6 53q0 66 -38 104t-102 38q-86 0 -163 -72t-102 -188l-52 -245h-20l108 510h15l-24 -136h5q4 6 10.5 16.5t29.5 36.5t48.5 45.5t64.5 36t80 16.5q71 0 115.5 -44t44.5 -117q0 -26 -6 -54z" />
    <glyph glyph-name="o" unicode="o" horiz-adv-x="650" 
d="M276 5q115 0 205 88t90 210q0 89 -52.5 145.5t-136.5 56.5q-115 0 -205 -88t-90 -210q0 -89 52.5 -145.5t136.5 -56.5zM67 207q0 130 96.5 224t218.5 94q91 0 150 -63t59 -159q0 -130 -96.5 -224t-218.5 -94q-91 0 -150 63t-59 159z" />
    <glyph glyph-name="p" unicode="p" horiz-adv-x="645" 
d="M285 5q109 0 195 87.5t86 215.5q0 88 -48.5 142.5t-125.5 54.5q-108 0 -194.5 -89t-86.5 -214q0 -88 49 -142.5t125 -54.5zM285 -15q-44 0 -79.5 16t-54.5 38.5t-31.5 45.5t-16.5 39l-4 16h-5l-76 -360h-20l155 730h15l-21 -124h5q3 6 10 15t30 33t48.5 42.5t67 33.5
t84.5 15q84 0 139 -60.5t55 -156.5q0 -135 -92 -229t-209 -94z" />
    <glyph glyph-name="q" unicode="q" horiz-adv-x="625" 
d="M251 5q46 0 88.5 18.5t70.5 45t49 53t31 44.5l9 19l65 305h-170q-133 0 -222 -87t-89 -218q0 -82 46 -131t122 -49zM251 -15q-83 0 -135.5 55.5t-52.5 144.5q0 139 95.5 232t235.5 93h194l-155 -730h-20l74 345h-5q-3 -6 -9.5 -15.5t-28.5 -33.5t-47 -42.5t-64.5 -33.5
t-81.5 -15z" />
    <glyph glyph-name="r" unicode="r" horiz-adv-x="425" 
d="M459 465l-9 -20q-4 7 -11.5 17t-34 26.5t-57.5 16.5q-38 0 -74 -20.5t-61 -50t-44 -59t-28 -49.5l-10 -21l-65 -305h-20l108 510h15l-23 -130h5q3 6 9 15.5t25.5 34.5t41 44.5t54.5 35t67 15.5q33 0 61 -15t40 -30z" />
    <glyph glyph-name="s" unicode="s" horiz-adv-x="485" 
d="M298 505q-79 0 -125.5 -38.5t-46.5 -92.5q0 -34 29 -55t70 -32.5t82 -24t70 -40.5t29 -72q0 -68 -57.5 -116.5t-147.5 -48.5q-34 0 -64.5 8t-50 20t-34.5 24t-22 20l-6 8l10 25l6 -9t18.5 -20.5t32 -26t47 -20.5t63.5 -9q83 0 134 42.5t51 102.5q0 38 -29 62t-70 35.5
t-82.5 24t-70.5 37.5t-29 65q0 62 53.5 106.5t139.5 44.5q47 0 84 -17.5t51 -35.5l14 -17l-14 -20q-1 3 -4 7.5t-14.5 16.5t-25.5 21.5t-38.5 17t-52.5 7.5z" />
    <glyph glyph-name="t" unicode="t" horiz-adv-x="410" 
d="M119 135l75 355h-100l4 20h100l29 135l22 10l-31 -145h170l-4 -20h-170l-75 -355q-6 -27 -6 -47q0 -83 83 -83q27 0 51.5 11t36.5 22l11 12h5l-4 -20q-4 -5 -12.5 -12.5t-35.5 -20t-56 -12.5q-47 0 -73 25.5t-26 74.5q0 23 6 50z" />
    <glyph glyph-name="u" unicode="u" horiz-adv-x="615" 
d="M153 510h20l-66 -310q-6 -28 -6 -53q0 -66 38 -104t102 -38q86 0 163 72t102 188l52 245h20l-108 -510h-15l24 136h-5q-4 -6 -10.5 -16.5t-29.5 -36.5t-48.5 -45.5t-64.5 -36t-80 -16.5q-71 0 -115.5 44t-44.5 117q0 26 6 54z" />
    <glyph glyph-name="v" unicode="v" horiz-adv-x="535" 
d="M104 510l108 -471h5l307 471h24l-333 -510h-15l-117 510h21z" />
    <glyph glyph-name="w" unicode="w" horiz-adv-x="815" 
d="M453 510h5l66 -462h5l275 462h24l-303 -510h-15l-64 450h-5l-256 -450h-15l-87 510h22l79 -462h5z" />
    <glyph glyph-name="x" unicode="x" horiz-adv-x="530" 
d="M543 510l-261 -250l163 -260h-24l-153 245l-254 -245h-29l273 261l-155 249h24l145 -234l242 234h29z" />
    <glyph glyph-name="y" unicode="y" horiz-adv-x="535" 
d="M211 5l-128 505h21l120 -474h5l295 474h24l-373 -600q-52 -83 -89.5 -114t-85.5 -31q-11 0 -20.5 2.5t-13.5 4.5l-4 2l-1 21q13 -10 43 -10q37 0 68.5 27t77.5 98z" />
    <glyph glyph-name="z" unicode="z" horiz-adv-x="510" 
d="M114 490l4 20h400l-2 -10l-485 -480h393l-4 -20h-430l2 10l485 480h-363z" />
    <glyph glyph-name="braceleft" unicode="{" horiz-adv-x="380" 
d="M147 295l-1 -5q5 -2 13 -6t21 -23t13 -46q0 -18 -4 -35l-58 -270q-4 -17 -4 -35q0 -70 72 -70h40l-4 -20h-40q-41 0 -64.5 23t-23.5 65q0 20 4 37l58 270q4 24 4 33q0 72 -92 72l3 15q110 0 133 105l57 270q13 59 48 92t84 33h44l-4 -20h-40q-42 0 -71.5 -26.5
t-40.5 -78.5l-57 -270q-9 -42 -31.5 -69.5t-40.5 -33.5z" />
    <glyph glyph-name="bar" unicode="|" horiz-adv-x="300" 
d="M43 -220l217 1020h20l-217 -1020h-20z" />
    <glyph glyph-name="braceright" unicode="}" horiz-adv-x="380" 
d="M257 290l1 5q-5 2 -13 6t-21 23t-13 46q0 18 4 35l58 270q4 17 4 35q0 70 -72 70h-40l4 20h40q41 0 64.5 -23t23.5 -65q0 -20 -4 -37l-58 -270q-4 -24 -4 -33q0 -72 92 -72l-3 -15q-110 0 -133 -105l-57 -270q-13 -59 -48 -92t-84 -33h-44l4 20h40q42 0 71.5 26.5
t40.5 78.5l57 270q9 42 31.5 69.5t40.5 34.5z" />
    <glyph glyph-name="asciitilde" unicode="~" 
d="M202 360q-33 0 -67.5 -20t-52.5 -40l-17 -20l5 25q6 8 17.5 20.5t46.5 33.5t68 21q36 0 64.5 -20t55 -40t57.5 -20q33 0 67.5 20t51.5 40l18 20l-5 -25q-6 -8 -17.5 -20.5t-46.5 -33.5t-68 -21q-36 0 -64.5 20t-55 40t-57.5 20z" />
    <glyph glyph-name="nbspace" unicode="&#xa0;" horiz-adv-x="240" 
 />
    <glyph glyph-name="exclamdown" unicode="&#xa1;" horiz-adv-x="270" 
d="M28 -220l121 570h20l-121 -570h-20zM163 485q0 13 9 21.5t22 8.5q21 0 21 -20q0 -13 -9 -21.5t-22 -8.5q-21 0 -21 20z" />
    <glyph glyph-name="cent" unicode="&#xa2;" horiz-adv-x="570" 
d="M478 85l-6 -25q-8 -8 -24 -20.5t-68 -33.5t-108 -21l-20 -95h-20l20 96q-83 11 -134 70.5t-51 150.5q0 125 90 218t209 99l21 96h20l-20 -95q33 0 63 -8t49 -20t33.5 -24t21.5 -20l6 -8l-15 -20q-2 3 -6 8.5t-18.5 19.5t-31.5 24.5t-46 19t-61 8.5l-106 -500
q51 0 100.5 20t73.5 40l23 20h5zM87 207q0 -84 46.5 -139.5t122.5 -61.5l106 498q-107 -8 -191 -93t-84 -204z" />
    <glyph glyph-name="sterling" unicode="&#xa3;" horiz-adv-x="560" 
d="M100 330l4 20h115q-2 6 -19.5 46.5t-25.5 70.5t-8 64q0 94 58.5 154t159.5 60q32 0 60.5 -8t46.5 -20t31 -24t18 -20l6 -8l-9 -20q-2 3 -5 8.5t-16 19.5t-28.5 24.5t-43.5 19t-60 8.5q-93 0 -145.5 -53.5t-52.5 -140.5q0 -44 26 -110t27 -71h205l-4 -20h-195q8 -32 8 -68
q0 -38 -14.5 -73.5t-35.5 -59.5t-42 -42.5t-35 -27.5l-15 -9q32 10 72 10q59 0 110.5 -27.5t87.5 -27.5q31 0 60.5 15t43.5 30l14 15h5l-5 -25q-6 -6 -16.5 -15t-42.5 -24.5t-63 -15.5q-44 0 -95.5 27.5t-102.5 27.5q-27 0 -61.5 -10t-55.5 -20l-22 -10l5 25q8 4 20.5 11
t45 30.5t57 49.5t45 65.5t20.5 80.5q0 16 -2 33t-4 26l-2 9h-125z" />
    <glyph glyph-name="currency" unicode="&#xa4;" horiz-adv-x="610" 
d="M586 560q0 69 -43.5 109.5t-121.5 40.5h-160l-81 -380h160q109 0 177.5 64.5t68.5 165.5zM606 560q0 -108 -74.5 -179t-191.5 -71h-164l-25 -115h285l-4 -20h-285l-37 -175h-20l37 175h-90l4 20h90l25 115h-90l4 20h90l85 400h176q86 0 135.5 -46.5t49.5 -123.5z" />
    <glyph glyph-name="yen" unicode="&#xa5;" horiz-adv-x="660" 
d="M101 240h210l13 60l-27 60h-170l4 20h157l-158 350h22l185 -410l356 410h27l-306 -350h157l-4 -20h-170l-53 -60l-13 -60h210l-4 -20h-210l-47 -220h-20l47 220h-210z" />
    <glyph glyph-name="brokenbar" unicode="&#xa6;" horiz-adv-x="300" 
d="M172 385l88 415h20l-88 -415h-20zM43 -220l88 415h20l-88 -415h-20z" />
    <glyph glyph-name="section" unicode="&#xa7;" horiz-adv-x="565" 
d="M493 322q0 -34 -15.5 -63t-37.5 -46.5t-43.5 -30t-36.5 -17.5l-16 -5q3 -1 7 -3t14.5 -10.5t19 -18.5t15 -28t6.5 -38q0 -64 -53 -110.5t-139 -46.5q-47 0 -84 17.5t-51 35.5l-14 17l10 25q1 -3 4 -8t14.5 -18t26 -23t40 -18t54.5 -8q79 0 125.5 40t46.5 97
q0 38 -28.5 64t-68.5 42.5t-80.5 33.5t-69 48.5t-28.5 77.5q0 34 15 63t37 46.5t44 30t37 17.5l15 5q-3 1 -7 3t-14.5 10.5t-19 18.5t-15 28t-6.5 38q0 64 53 110.5t139 46.5q29 0 55.5 -7t43 -17.5t28.5 -21t18 -17.5l5 -7l-14 -20q-1 3 -4.5 7.5t-15 16.5t-25.5 21.5
t-38.5 17t-52.5 7.5q-79 0 -125.5 -40t-46.5 -97q0 -38 28.5 -64t69 -42.5t81 -33.5t69 -48.5t28.5 -77.5zM472 322q0 26 -10.5 46.5t-34.5 37.5t-41.5 26t-56 25t-52.5 23q-6 -2 -16 -5t-35 -16t-44 -28.5t-35 -43t-16 -59.5q0 -26 10.5 -46.5t34.5 -37.5t41.5 -26t56 -25
t52.5 -23q6 2 16 5t35 16t44 28.5t35 43t16 59.5z" />
    <glyph glyph-name="dieresis" unicode="&#xa8;" horiz-adv-x="300" 
d="M128 700q0 13 9 21.5t22 8.5q21 0 21 -20q0 -13 -9 -21.5t-22 -8.5q-21 0 -21 20zM318 700q0 13 9 21.5t22 8.5q21 0 21 -20q0 -13 -9 -21.5t-22 -8.5q-21 0 -21 20z" />
    <glyph glyph-name="copyright" unicode="&#xa9;" horiz-adv-x="870" 
d="M800 315q0 139 -99 237t-241 98t-241 -98t-99 -237t99 -237t241 -98t241 98t99 237zM820 315q0 -147 -105 -251t-255 -104t-255 104t-105 251t105 251t255 104t255 -104t105 -251zM315 315q0 -74 43.5 -119.5t111.5 -45.5q33 0 62 12.5t41 25.5l12 12h5v-20
q-4 -6 -13 -14t-40 -22t-67 -14q-76 0 -125.5 51.5t-49.5 133.5t49.5 133.5t125.5 51.5q38 0 69 -14t43 -28l13 -13l-10 -15q-4 6 -13 14t-39 22t-63 14q-68 0 -111.5 -45.5t-43.5 -119.5z" />
    <glyph glyph-name="ordfeminine" unicode="&#xaa;" horiz-adv-x="435" 
d="M461 709l-133 1q-85 1 -144 -58t-59 -148q0 -62 32.5 -98t86.5 -36q64 0 115 49.5t64 110.5zM328 730h157l-78 -370h-15l13 83h-5q-2 -4 -6 -10t-18.5 -22t-31 -28.5t-44 -22.5t-56.5 -10q-61 0 -100 42t-39 112q0 96 65 161t158 65z" />
    <glyph glyph-name="guillemotleft" unicode="&#xab;" horiz-adv-x="450" 
d="M79 272l116 -222h-23l-115 220l2 10l206 220h26zM244 272l116 -222h-23l-115 220l2 10l206 220h26z" />
    <glyph glyph-name="logicalnot" unicode="&#xac;" 
d="M111 335l4 20h350l-27 -130h-20l23 110h-330z" />
    <glyph glyph-name="uni00AD" unicode="&#xad;" horiz-adv-x="420" 
d="M77 315l4 20h300l-4 -20h-300z" />
    <glyph glyph-name="registered" unicode="&#xae;" horiz-adv-x="640" 
d="M290 670h95q42 0 68.5 -24.5t26.5 -65.5q0 -31 -16 -52.5t-32 -27.5l-17 -6l75 -104h-24l-71 100h-85v-100h-20v280zM310 510h75q34 0 54.5 18.5t20.5 51.5t-20.5 51.5t-54.5 18.5h-75v-140zM620 530q0 101 -69.5 170.5t-170.5 69.5t-170.5 -69.5t-69.5 -170.5
t69.5 -170.5t170.5 -69.5t170.5 69.5t69.5 170.5zM640 530q0 -109 -75.5 -184.5t-184.5 -75.5t-184.5 75.5t-75.5 184.5t75.5 184.5t184.5 75.5t184.5 -75.5t75.5 -184.5z" />
    <glyph glyph-name="macron" unicode="&#xaf;" horiz-adv-x="360" 
d="M124 680l4 20h300l-4 -20h-300z" />
    <glyph glyph-name="degree" unicode="&#xb0;" horiz-adv-x="350" 
d="M363 634q0 40 -23 63t-62 23q-55 0 -93.5 -37t-38.5 -97q0 -40 23 -63t62 -23q55 0 93.5 37t38.5 97zM383 634q0 -67 -45 -110.5t-107 -43.5q-46 0 -75.5 29t-29.5 77q0 67 45 110.5t107 43.5q46 0 75.5 -29t29.5 -77z" />
    <glyph glyph-name="plusminus" unicode="&#xb1;" 
d="M280 330h-200l4 20h200l45 210h20l-45 -210h200l-4 -20h-200l-49 -230h200l-4 -20h-420l4 20h200z" />
    <glyph glyph-name="twosuperior" unicode="&#xb2;" horiz-adv-x="320" 
d="M350 765q0 55 -62 55q-20 0 -39.5 -6.5t-34 -16t-26 -19.5t-17.5 -16l-6 -7h-5l4 20q5 7 14.5 18t41.5 29t68 18q39 0 61 -21t22 -54q0 -64 -64 -120l-174 -155h195l-4 -20h-235l1 5l199 180q61 56 61 110z" />
    <glyph glyph-name="threesuperior" unicode="&#xb3;" horiz-adv-x="320" 
d="M182 645l-12 15l172 150h-160l4 20h200l-1 -5l-160 -142q10 2 25 2q44 0 69.5 -25t25.5 -66q0 -58 -38.5 -96t-99.5 -38q-33 0 -60.5 12.5t-38.5 25.5l-10 12l13 15q3 -5 9 -12.5t31 -20t56 -12.5q53 0 85 31.5t32 82.5q0 33 -20 52t-58 19q-18 0 -34 -5t-23 -10z" />
    <glyph glyph-name="acute" unicode="&#xb4;" horiz-adv-x="180" 
d="M105 590l124 160h30l-136 -160h-18z" />
    <glyph glyph-name="mu" unicode="&#xb5;" horiz-adv-x="615" 
d="M153 510h20l-66 -310q-6 -28 -6 -53q0 -66 38 -104t102 -38q86 0 163 72t102 188l52 245h20l-108 -510h-15l24 136h-5q-4 -6 -10.5 -16.5t-29.5 -36.5t-48.5 -45.5t-65 -36t-80.5 -16.5q-38 0 -67.5 12t-45 29t-25.5 34t-13 29l-3 12h-5l-61 -311l-22 -10z" />
    <glyph glyph-name="paragraph" unicode="&#xb6;" horiz-adv-x="640" 
d="M136 471q0 110 72.5 184.5t181.5 74.5h315l-4 -20h-115l-198 -930h-20l198 930h-160l-198 -930h-20l115 540q-80 0 -123.5 39t-43.5 112z" />
    <glyph glyph-name="periodcentered" unicode="&#xb7;" horiz-adv-x="240" 
d="M159 305q0 -13 -9 -21.5t-22 -8.5q-20 0 -20 20q0 13 9 21.5t22 8.5q20 0 20 -20z" />
    <glyph glyph-name="cedilla" unicode="&#xb8;" horiz-adv-x="230" 
d="M65 0l-32 -55q86 -13 86 -83q0 -42 -30 -69.5t-80 -27.5q-20 0 -39 5t-28 10l-8 5l4 20q26 -20 71 -20q43 0 66.5 21t23.5 56q0 62 -94 68l40 70h20z" />
    <glyph glyph-name="onesuperior" unicode="&#xb9;" horiz-adv-x="245" 
d="M156 760l5 25l90 45h10l-77 -360h-20l71 330z" />
    <glyph glyph-name="ordmasculine" unicode="&#xba;" horiz-adv-x="450" 
d="M475 592q0 -98 -67.5 -170t-154.5 -72q-66 0 -107 39.5t-41 108.5q0 98 67.5 170t155.5 72q65 0 106 -40t41 -108zM253 370q79 0 140.5 65.5t61.5 156.5q0 61 -34.5 94.5t-92.5 33.5q-80 0 -141.5 -65.5t-61.5 -156.5q0 -61 35 -94.5t93 -33.5z" />
    <glyph glyph-name="guillemotright" unicode="&#xbb;" horiz-adv-x="450" 
d="M388 278l-116 222h23l115 -220l-2 -10l-206 -220h-26zM223 278l-116 222h23l115 -220l-2 -10l-206 -220h-26z" />
    <glyph glyph-name="onequarter" unicode="&#xbc;" horiz-adv-x="675" 
d="M135 660l5 25l90 45h10l-77 -360h-20l71 330zM30 0l630 730h25l-630 -730h-25zM563 360h23l-189 -245h152l23 105h20l-23 -105h50l-4 -20h-50l-20 -95h-20l20 95h-185l1 5z" />
    <glyph glyph-name="onehalf" unicode="&#xbd;" horiz-adv-x="735" 
d="M135 660l5 25l90 45h10l-77 -360h-20l71 330zM30 0l630 730h25l-630 -730h-25zM665 295q0 55 -62 55q-20 0 -39.5 -6.5t-34 -16t-26 -19.5t-17.5 -16l-6 -7h-5l4 20q5 7 14.5 18t41.5 29t68 18q39 0 61 -21t22 -54q0 -64 -64 -120l-174 -155h195l-4 -20h-235l1 5l199 180
q61 56 61 110z" />
    <glyph glyph-name="threequarters" unicode="&#xbe;" horiz-adv-x="750" 
d="M161 545l-12 15l172 150h-160l4 20h200l-1 -5l-160 -142q10 2 25 2q44 0 69.5 -25t25.5 -66q0 -58 -38.5 -96t-99.5 -38q-33 0 -60.5 12.5t-37.5 25.5l-11 12l13 15q3 -5 9 -12.5t31 -20t56 -12.5q53 0 85 31.5t32 82.5q0 33 -20 52t-58 19q-18 0 -34 -5t-23 -10zM105 0
l630 730h25l-630 -730h-25zM638 360h23l-189 -245h152l23 105h20l-23 -105h50l-4 -20h-50l-20 -95h-20l20 95h-185l1 5z" />
    <glyph glyph-name="questiondown" unicode="&#xbf;" horiz-adv-x="470" 
d="M282 340h20q-13 -61 -48 -112t-74.5 -85t-78 -66.5t-63.5 -74t-25 -91.5q0 -57 36.5 -91.5t99.5 -34.5q31 0 61.5 7.5t52 18.5t38.5 22.5t25 18.5l9 8h5l-4 -20q-8 -8 -23 -20.5t-64 -33.5t-100 -21q-71 0 -113.5 41t-42.5 105q0 39 13.5 72.5t36 59.5t50 50t57 49.5
t55.5 52.5t47 64.5t30 80.5zM350 495q0 -13 -9 -21.5t-22 -8.5q-21 0 -21 20q0 13 9 21.5t23 8.5q20 0 20 -20z" />
    <glyph glyph-name="Agrave" unicode="&#xc0;" horiz-adv-x="745" 
d="M577 270l-102 425h-5l-284 -425h391zM583 250h-411l-168 -250h-24l490 730h15l180 -730h-20zM436 970l56 -160h-18l-68 160h30z" />
    <glyph glyph-name="Aacute" unicode="&#xc1;" horiz-adv-x="745" 
d="M577 270l-102 425h-5l-284 -425h391zM583 250h-411l-168 -250h-24l490 730h15l180 -730h-20zM487 810l124 160h30l-136 -160h-18z" />
    <glyph glyph-name="Acircumflex" unicode="&#xc2;" horiz-adv-x="745" 
d="M577 270l-102 425h-5l-284 -425h391zM583 250h-411l-168 -250h-24l490 730h15l180 -730h-20zM622 810l-104 138l-161 -138h-30l189 160h10l121 -160h-25z" />
    <glyph glyph-name="Atilde" unicode="&#xc3;" horiz-adv-x="745" 
d="M577 270l-102 425h-5l-284 -425h391zM583 250h-411l-168 -250h-24l490 730h15l180 -730h-20zM432 905q-22 0 -45 -13.5t-35 -27.5l-12 -14l5 25q4 6 10.5 14t29.5 22t47 14q36 0 74 -30t67 -30q22 0 45 13.5t35 27.5l12 14l-5 -25q-4 -6 -10.5 -14t-29.5 -22t-47 -14
q-36 0 -74 30t-67 30z" />
    <glyph glyph-name="Adieresis" unicode="&#xc4;" horiz-adv-x="745" 
d="M577 270l-102 425h-5l-284 -425h391zM583 250h-411l-168 -250h-24l490 730h15l180 -730h-20zM382 880q0 13 9 21.5t22 8.5q21 0 21 -20q0 -13 -9 -21.5t-22 -8.5q-21 0 -21 20zM572 880q0 13 9 21.5t22 8.5q21 0 21 -20q0 -13 -9 -21.5t-22 -8.5q-21 0 -21 20z" />
    <glyph glyph-name="Aring" unicode="&#xc5;" horiz-adv-x="745" 
d="M577 270l-102 425h-5l-284 -425h391zM583 250h-411l-168 -250h-24l490 730h15l180 -730h-20zM603 916q0 -47 -33 -79t-81 -32q-36 0 -58.5 22.5t-22.5 56.5q0 47 33 79t80 32q36 0 59 -22.5t23 -56.5zM583 916q0 27 -16.5 43t-45.5 16q-39 0 -66 -26t-27 -65
q0 -27 16.5 -43t44.5 -16q40 0 67 26t27 65z" />
    <glyph glyph-name="AE" unicode="&#xc6;" horiz-adv-x="900" 
d="M533 365l-74 -345h335l-4 -20h-355l53 250h-336l-168 -250h-24l490 730h495l-4 -20h-335l-69 -325h260l-4 -20h-260zM460 710l-294 -440h326l94 440h-126z" />
    <glyph glyph-name="Ccedilla" unicode="&#xc7;" horiz-adv-x="780" 
d="M396 -15h-24l-23 -40q86 -13 86 -83q0 -42 -30 -69.5t-80 -27.5q-20 0 -38.5 5t-27.5 10l-9 5l4 20q26 -20 71 -20q43 0 66.5 21t23.5 56q0 62 -94 68l33 58q-114 14 -185 100.5t-71 209.5q0 90 38.5 173.5t101.5 143t145 95t166 35.5q48 0 90.5 -12.5t69 -30t46.5 -35
t29 -29.5l8 -13l-14 -20q-3 5 -8 13t-25 28.5t-44 36.5t-65 29t-87 13q-108 0 -207 -56.5t-161.5 -156.5t-62.5 -214q0 -127 78 -210t200 -83q46 0 92 12.5t78.5 30t58 35t38.5 29.5l13 13h5l-5 -25q-4 -5 -12.5 -12.5t-37 -27.5t-59 -35t-77 -27.5t-94.5 -12.5z" />
    <glyph glyph-name="Egrave" unicode="&#xc8;" horiz-adv-x="605" 
d="M168 365l-74 -345h405l-4 -20h-425l155 730h425l-4 -20h-405l-69 -325h330l-4 -20h-330zM406 970l56 -160h-18l-68 160h30z" />
    <glyph glyph-name="Eacute" unicode="&#xc9;" horiz-adv-x="605" 
d="M168 365l-74 -345h405l-4 -20h-425l155 730h425l-4 -20h-405l-69 -325h330l-4 -20h-330zM422 810l124 160h30l-136 -160h-18z" />
    <glyph glyph-name="Ecircumflex" unicode="&#xca;" horiz-adv-x="605" 
d="M168 365l-74 -345h405l-4 -20h-425l155 730h425l-4 -20h-405l-69 -325h330l-4 -20h-330zM582 810l-104 138l-161 -138h-30l189 160h10l121 -160h-25z" />
    <glyph glyph-name="Edieresis" unicode="&#xcb;" horiz-adv-x="605" 
d="M168 365l-74 -345h405l-4 -20h-425l155 730h425l-4 -20h-405l-69 -325h330l-4 -20h-330zM332 880q0 13 9 21.5t22 8.5q21 0 21 -20q0 -13 -9 -21.5t-22 -8.5q-21 0 -21 20zM522 880q0 13 9 21.5t22 8.5q21 0 21 -20q0 -13 -9 -21.5t-22 -8.5q-21 0 -21 20z" />
    <glyph glyph-name="Igrave" unicode="&#xcc;" horiz-adv-x="260" 
d="M70 0l155 730h20l-155 -730h-20zM206 970l56 -160h-18l-68 160h30z" />
    <glyph glyph-name="Iacute" unicode="&#xcd;" horiz-adv-x="260" 
d="M70 0l155 730h20l-155 -730h-20zM242 810l124 160h30l-136 -160h-18z" />
    <glyph glyph-name="Icircumflex" unicode="&#xce;" horiz-adv-x="260" 
d="M70 0l155 730h20l-155 -730h-20zM377 810l-104 138l-161 -138h-30l189 160h10l121 -160h-25z" />
    <glyph glyph-name="Idieresis" unicode="&#xcf;" horiz-adv-x="260" 
d="M70 0l155 730h20l-155 -730h-20zM136 880q0 13 9 21.5t22 8.5q21 0 21 -20q0 -13 -9 -21.5t-22 -8.5q-21 0 -21 20zM326 880q0 13 9 21.5t22 8.5q21 0 21 -20q0 -13 -9 -21.5t-22 -8.5q-21 0 -21 20z" />
    <glyph glyph-name="Eth" unicode="&#xd0;" horiz-adv-x="755" 
d="M85 0l75 355h-95l4 20h95l76 355h176q129 0 212 -86.5t83 -216.5q0 -113 -63 -212.5t-165 -157t-214 -57.5h-184zM416 710h-160l-72 -335h255l-4 -20h-255l-71 -335h160q107 0 204.5 54.5t157.5 149t60 203.5q0 123 -76.5 203t-198.5 80z" />
    <glyph glyph-name="Ntilde" unicode="&#xd1;" horiz-adv-x="780" 
d="M237 694l-147 -694h-20l155 730h15l358 -694l147 694h20l-155 -730h-15zM457 905q-22 0 -45 -13.5t-35 -27.5l-12 -14l5 25q4 6 10.5 14t29.5 22t47 14q36 0 74 -30t67 -30q22 0 45 13.5t35 27.5l12 14l-5 -25q-4 -6 -10.5 -14t-29.5 -22t-47 -14q-36 0 -74 30t-67 30z
" />
    <glyph glyph-name="Ograve" unicode="&#xd2;" horiz-adv-x="890" 
d="M98 298q0 90 38.5 173.5t101.5 143t145 95t166 35.5q130 0 214 -89.5t84 -223.5q0 -90 -38.5 -173.5t-101.5 -143t-145 -95t-166 -35.5q-130 0 -214 89.5t-84 223.5zM119 298q0 -127 77.5 -210t199.5 -83q80 0 158.5 34t138 90.5t96.5 136.5t37 166q0 127 -77.5 210
t-199.5 83q-80 0 -158.5 -34t-138 -90.5t-96.5 -136.5t-37 -166zM511 970l56 -160h-18l-68 160h30z" />
    <glyph glyph-name="Oacute" unicode="&#xd3;" horiz-adv-x="890" 
d="M98 298q0 90 38.5 173.5t101.5 143t145 95t166 35.5q130 0 214 -89.5t84 -223.5q0 -90 -38.5 -173.5t-101.5 -143t-145 -95t-166 -35.5q-130 0 -214 89.5t-84 223.5zM119 298q0 -127 77.5 -210t199.5 -83q80 0 158.5 34t138 90.5t96.5 136.5t37 166q0 127 -77.5 210
t-199.5 83q-80 0 -158.5 -34t-138 -90.5t-96.5 -136.5t-37 -166zM547 810l124 160h30l-136 -160h-18z" />
    <glyph glyph-name="Ocircumflex" unicode="&#xd4;" horiz-adv-x="890" 
d="M98 298q0 90 38.5 173.5t101.5 143t145 95t166 35.5q130 0 214 -89.5t84 -223.5q0 -90 -38.5 -173.5t-101.5 -143t-145 -95t-166 -35.5q-130 0 -214 89.5t-84 223.5zM119 298q0 -127 77.5 -210t199.5 -83q80 0 158.5 34t138 90.5t96.5 136.5t37 166q0 127 -77.5 210
t-199.5 83q-80 0 -158.5 -34t-138 -90.5t-96.5 -136.5t-37 -166zM692 810l-104 138l-161 -138h-30l189 160h10l121 -160h-25z" />
    <glyph glyph-name="Otilde" unicode="&#xd5;" horiz-adv-x="890" 
d="M98 298q0 90 38.5 173.5t101.5 143t145 95t166 35.5q130 0 214 -89.5t84 -223.5q0 -90 -38.5 -173.5t-101.5 -143t-145 -95t-166 -35.5q-130 0 -214 89.5t-84 223.5zM119 298q0 -127 77.5 -210t199.5 -83q80 0 158.5 34t138 90.5t96.5 136.5t37 166q0 127 -77.5 210
t-199.5 83q-80 0 -158.5 -34t-138 -90.5t-96.5 -136.5t-37 -166zM502 905q-22 0 -45 -13.5t-35 -27.5l-12 -14l5 25q4 6 10.5 14t29.5 22t47 14q36 0 74 -30t67 -30q22 0 45 13.5t35 27.5l12 14l-5 -25q-4 -6 -10.5 -14t-29.5 -22t-47 -14q-36 0 -74 30t-67 30z" />
    <glyph glyph-name="Odieresis" unicode="&#xd6;" horiz-adv-x="890" 
d="M98 298q0 90 38.5 173.5t101.5 143t145 95t166 35.5q130 0 214 -89.5t84 -223.5q0 -90 -38.5 -173.5t-101.5 -143t-145 -95t-166 -35.5q-130 0 -214 89.5t-84 223.5zM119 298q0 -127 77.5 -210t199.5 -83q80 0 158.5 34t138 90.5t96.5 136.5t37 166q0 127 -77.5 210
t-199.5 83q-80 0 -158.5 -34t-138 -90.5t-96.5 -136.5t-37 -166zM452 880q0 13 9 21.5t22 8.5q21 0 21 -20q0 -13 -9 -21.5t-22 -8.5q-21 0 -21 20zM642 880q0 13 9 21.5t22 8.5q21 0 21 -20q0 -13 -9 -21.5t-22 -8.5q-21 0 -21 20z" />
    <glyph glyph-name="multiply" unicode="&#xd7;" 
d="M148 485l15 15l126 -160l194 160l15 -15l-194 -160l126 -160l-15 -15l-126 160l-194 -160l-15 15l194 160z" />
    <glyph glyph-name="Oslash" unicode="&#xd8;" horiz-adv-x="890" 
d="M98 298q0 90 38.5 173.5t101.5 143t145 95t166 35.5q135 0 220 -96l105 96h29l-122 -111q66 -85 66 -202q0 -90 -38.5 -173.5t-101.5 -143t-145 -95t-166 -35.5q-135 0 -220 96l-105 -96h-29l121 111q-65 86 -65 202zM826 432q0 109 -60 188l-575 -526q78 -89 205 -89
q80 0 158.5 34t138 90.5t96.5 136.5t37 166zM119 298q0 -111 59 -189l576 526q-79 90 -205 90q-80 0 -158.5 -34t-138 -90.5t-96.5 -136.5t-37 -166z" />
    <glyph glyph-name="Ugrave" unicode="&#xd9;" horiz-adv-x="740" 
d="M321 5q113 0 190 64.5t102 180.5l102 480h20l-102 -480q-26 -124 -109 -194.5t-203 -70.5q-121 0 -177.5 71t-30.5 194l102 480h20l-102 -480q-25 -116 25 -180.5t163 -64.5zM446 970l56 -160h-18l-68 160h30z" />
    <glyph glyph-name="Uacute" unicode="&#xda;" horiz-adv-x="740" 
d="M321 5q113 0 190 64.5t102 180.5l102 480h20l-102 -480q-26 -124 -109 -194.5t-203 -70.5q-121 0 -177.5 71t-30.5 194l102 480h20l-102 -480q-25 -116 25 -180.5t163 -64.5zM462 810l124 160h30l-136 -160h-18z" />
    <glyph glyph-name="Ucircumflex" unicode="&#xdb;" horiz-adv-x="740" 
d="M321 5q113 0 190 64.5t102 180.5l102 480h20l-102 -480q-26 -124 -109 -194.5t-203 -70.5q-121 0 -177.5 71t-30.5 194l102 480h20l-102 -480q-25 -116 25 -180.5t163 -64.5zM617 810l-104 138l-161 -138h-30l189 160h10l121 -160h-25z" />
    <glyph glyph-name="Udieresis" unicode="&#xdc;" horiz-adv-x="740" 
d="M321 5q113 0 190 64.5t102 180.5l102 480h20l-102 -480q-26 -124 -109 -194.5t-203 -70.5q-121 0 -177.5 71t-30.5 194l102 480h20l-102 -480q-25 -116 25 -180.5t163 -64.5zM377 880q0 13 9 21.5t22 8.5q21 0 21 -20q0 -13 -9 -21.5t-22 -8.5q-21 0 -21 20zM567 880
q0 13 9 21.5t22 8.5q21 0 21 -20q0 -13 -9 -21.5t-22 -8.5q-21 0 -21 20z" />
    <glyph glyph-name="Yacute" unicode="&#xdd;" horiz-adv-x="660" 
d="M260 0l64 300l-194 430h22l185 -410l356 410h27l-376 -430l-64 -300h-20zM422 810l124 160h30l-136 -160h-18z" />
    <glyph glyph-name="Thorn" unicode="&#xde;" horiz-adv-x="640" 
d="M225 730h20l-31 -145h186q90 0 141.5 -49t51.5 -130q0 -112 -78.5 -186.5t-199.5 -74.5h-194l-31 -145h-20zM125 165h190q113 0 185.5 68.5t72.5 172.5q0 73 -45.5 116t-127.5 43h-190z" />
    <glyph glyph-name="germandbls" unicode="&#xdf;" horiz-adv-x="615" 
d="M521 625q0 -39 -16 -68t-38.5 -46.5t-45.5 -34.5t-39 -41.5t-16 -57.5q0 -26 20.5 -46t50 -35.5t58.5 -33t49.5 -47.5t20.5 -70q0 -70 -49 -115t-135 -45q-38 0 -72 15t-49 30l-15 15l9 20q2 -2 5.5 -6.5t16 -14.5t26 -18t35.5 -14.5t44 -6.5q78 0 120.5 38.5t42.5 101.5
q0 36 -20.5 63.5t-49.5 44.5t-58 33t-49.5 39t-20.5 52q0 36 16 62.5t39 43.5t45.5 34.5t38.5 44.5t16 63q0 46 -30 73t-87 27q-164 0 -206 -195l-113 -530h-20l113 530q46 215 226 215q64 0 100.5 -33t36.5 -87z" />
    <glyph glyph-name="agrave" unicode="&#xe0;" horiz-adv-x="608" 
d="M245 5q43 0 83.5 18.5t67.5 45t47.5 53t30.5 44.5l9 19l65 305h-160q-126 0 -213.5 -87t-87.5 -218q0 -81 44.5 -130.5t113.5 -49.5zM245 -15q-77 0 -127.5 56t-50.5 144q0 138 94 231.5t227 93.5h184l-108 -510h-15l22 125h-5q-3 -6 -9.5 -15.5t-28 -33.5t-45.5 -42.5
t-61.5 -33.5t-76.5 -15zM343 770l56 -160h-18l-68 160h30z" />
    <glyph glyph-name="aacute" unicode="&#xe1;" horiz-adv-x="608" 
d="M245 5q43 0 83.5 18.5t67.5 45t47.5 53t30.5 44.5l9 19l65 305h-160q-126 0 -213.5 -87t-87.5 -218q0 -81 44.5 -130.5t113.5 -49.5zM245 -15q-77 0 -127.5 56t-50.5 144q0 138 94 231.5t227 93.5h184l-108 -510h-15l22 125h-5q-3 -6 -9.5 -15.5t-28 -33.5t-45.5 -42.5
t-61.5 -33.5t-76.5 -15zM384 610l124 160h30l-136 -160h-18z" />
    <glyph glyph-name="acircumflex" unicode="&#xe2;" horiz-adv-x="608" 
d="M245 5q43 0 83.5 18.5t67.5 45t47.5 53t30.5 44.5l9 19l65 305h-160q-126 0 -213.5 -87t-87.5 -218q0 -81 44.5 -130.5t113.5 -49.5zM245 -15q-77 0 -127.5 56t-50.5 144q0 138 94 231.5t227 93.5h184l-108 -510h-15l22 125h-5q-3 -6 -9.5 -15.5t-28 -33.5t-45.5 -42.5
t-61.5 -33.5t-76.5 -15zM534 610l-104 138l-161 -138h-30l189 160h10l121 -160h-25z" />
    <glyph glyph-name="atilde" unicode="&#xe3;" horiz-adv-x="608" 
d="M245 5q43 0 83.5 18.5t67.5 45t47.5 53t30.5 44.5l9 19l65 305h-160q-126 0 -213.5 -87t-87.5 -218q0 -81 44.5 -130.5t113.5 -49.5zM245 -15q-77 0 -127.5 56t-50.5 144q0 138 94 231.5t227 93.5h184l-108 -510h-15l22 125h-5q-3 -6 -9.5 -15.5t-28 -33.5t-45.5 -42.5
t-61.5 -33.5t-76.5 -15zM340 705q-22 0 -45 -13.5t-35 -27.5l-12 -14l5 25q4 6 10.5 14t29.5 22t47 14q36 0 74 -30t67 -30q22 0 45 13.5t35 27.5l12 14l-5 -25q-4 -6 -10.5 -14t-29.5 -22t-47 -14q-36 0 -74 30t-67 30z" />
    <glyph glyph-name="adieresis" unicode="&#xe4;" horiz-adv-x="608" 
d="M245 5q43 0 83.5 18.5t67.5 45t47.5 53t30.5 44.5l9 19l65 305h-160q-126 0 -213.5 -87t-87.5 -218q0 -81 44.5 -130.5t113.5 -49.5zM245 -15q-77 0 -127.5 56t-50.5 144q0 138 94 231.5t227 93.5h184l-108 -510h-15l22 125h-5q-3 -6 -9.5 -15.5t-28 -33.5t-45.5 -42.5
t-61.5 -33.5t-76.5 -15zM289 680q0 13 9 21.5t22 8.5q21 0 21 -20q0 -13 -9 -21.5t-22 -8.5q-21 0 -21 20zM479 680q0 13 9 21.5t22 8.5q21 0 21 -20q0 -13 -9 -21.5t-22 -8.5q-21 0 -21 20z" />
    <glyph glyph-name="aring" unicode="&#xe5;" horiz-adv-x="608" 
d="M245 5q43 0 83.5 18.5t67.5 45t47.5 53t30.5 44.5l9 19l65 305h-160q-126 0 -213.5 -87t-87.5 -218q0 -81 44.5 -130.5t113.5 -49.5zM245 -15q-77 0 -127.5 56t-50.5 144q0 138 94 231.5t227 93.5h184l-108 -510h-15l22 125h-5q-3 -6 -9.5 -15.5t-28 -33.5t-45.5 -42.5
t-61.5 -33.5t-76.5 -15zM512 720q0 -47 -33 -79t-81 -32q-36 0 -58.5 22.5t-22.5 56.5q0 47 33 79t80 32q36 0 59 -22.5t23 -56.5zM492 720q0 27 -16.5 43t-45.5 16q-39 0 -66 -26t-27 -65q0 -27 16.5 -43t44.5 -16q40 0 67 26t27 65z" />
    <glyph glyph-name="ae" unicode="&#xe6;" horiz-adv-x="1037" 
d="M703 5q51 0 100.5 20t72.5 40l24 20h5l-6 -25q-3 -3 -9 -8t-25.5 -18t-41 -23t-54 -18t-66.5 -8q-50 0 -89 17.5t-59 42.5t-33 50t-16 43l-4 17h-5l-33 -155h-15l22 125h-5q-3 -6 -9.5 -15.5t-28 -33.5t-45.5 -42.5t-61.5 -33.5t-76.5 -15q-77 0 -127.5 56t-50.5 144
q0 138 94 231.5t227 93.5h184l-28 -130h5q4 6 11 15.5t31.5 34.5t52 44.5t71 35t89.5 15.5q81 0 132 -51.5t51 -134.5q0 -20 -2.5 -38.5t-4.5 -26.5l-2 -9h-458q-6 -25 -6 -58q0 -89 52.5 -145.5t136.5 -56.5zM245 5q43 0 83.5 18.5t67.5 45t47.5 53t30.5 44.5l9 19l65 305
h-160q-126 0 -213.5 -87t-87.5 -218q0 -81 44.5 -130.5t113.5 -49.5zM525 285h437q6 25 6 55q0 74 -45 119.5t-119 45.5q-91 0 -172.5 -63.5t-106.5 -156.5z" />
    <glyph glyph-name="ccedilla" unicode="&#xe7;" horiz-adv-x="570" 
d="M478 85l-6 -25q-3 -3 -9 -8t-25.5 -18t-41 -23t-54 -18t-66.5 -8h-10l-23 -40q86 -13 86 -83q0 -42 -30 -69.5t-80 -27.5q-20 0 -38.5 5t-27.5 10l-9 5l4 20q26 -20 71 -20q43 0 66.5 21t23.5 56q0 62 -94 68l32 57q-80 10 -130 71t-50 149q0 130 96.5 224t218.5 94
q35 0 66 -8t50.5 -20t34 -24t20.5 -20l6 -8l-14 -20q-2 3 -6 8.5t-18.5 19.5t-31.5 24.5t-46 19t-61 8.5q-115 0 -205 -88t-90 -210q0 -89 52.5 -145.5t136.5 -56.5q51 0 100.5 20t73.5 40l23 20h5z" />
    <glyph glyph-name="egrave" unicode="&#xe8;" horiz-adv-x="610" 
d="M98 285h437q6 25 6 55q0 74 -45 119.5t-119 45.5q-91 0 -172.5 -63.5t-106.5 -156.5zM276 5q51 0 100.5 20t73.5 40l23 20h5l-6 -25q-3 -3 -9 -8t-25.5 -18t-41 -23t-54 -18t-66.5 -8q-91 0 -150 63t-59 159q0 130 95.5 224t214.5 94q81 0 132 -51.5t51 -134.5
q0 -20 -2 -38.5t-4 -26.5l-3 -9h-458q-6 -25 -6 -58q0 -89 52.5 -145.5t136.5 -56.5zM343 770l56 -160h-18l-68 160h30z" />
    <glyph glyph-name="eacute" unicode="&#xe9;" horiz-adv-x="610" 
d="M98 285h437q6 25 6 55q0 74 -45 119.5t-119 45.5q-91 0 -172.5 -63.5t-106.5 -156.5zM276 5q51 0 100.5 20t73.5 40l23 20h5l-6 -25q-3 -3 -9 -8t-25.5 -18t-41 -23t-54 -18t-66.5 -8q-91 0 -150 63t-59 159q0 130 95.5 224t214.5 94q81 0 132 -51.5t51 -134.5
q0 -20 -2 -38.5t-4 -26.5l-3 -9h-458q-6 -25 -6 -58q0 -89 52.5 -145.5t136.5 -56.5zM379 610l124 160h30l-136 -160h-18z" />
    <glyph glyph-name="ecircumflex" unicode="&#xea;" horiz-adv-x="610" 
d="M98 285h437q6 25 6 55q0 74 -45 119.5t-119 45.5q-91 0 -172.5 -63.5t-106.5 -156.5zM276 5q51 0 100.5 20t73.5 40l23 20h5l-6 -25q-3 -3 -9 -8t-25.5 -18t-41 -23t-54 -18t-66.5 -8q-91 0 -150 63t-59 159q0 130 95.5 224t214.5 94q81 0 132 -51.5t51 -134.5
q0 -20 -2 -38.5t-4 -26.5l-3 -9h-458q-6 -25 -6 -58q0 -89 52.5 -145.5t136.5 -56.5zM524 610l-104 138l-161 -138h-30l189 160h10l121 -160h-25z" />
    <glyph glyph-name="edieresis" unicode="&#xeb;" horiz-adv-x="610" 
d="M98 285h437q6 25 6 55q0 74 -45 119.5t-119 45.5q-91 0 -172.5 -63.5t-106.5 -156.5zM276 5q51 0 100.5 20t73.5 40l23 20h5l-6 -25q-3 -3 -9 -8t-25.5 -18t-41 -23t-54 -18t-66.5 -8q-91 0 -150 63t-59 159q0 130 95.5 224t214.5 94q81 0 132 -51.5t51 -134.5
q0 -20 -2 -38.5t-4 -26.5l-3 -9h-458q-6 -25 -6 -58q0 -89 52.5 -145.5t136.5 -56.5zM284 680q0 13 9 21.5t22 8.5q21 0 21 -20q0 -13 -9 -21.5t-22 -8.5q-21 0 -21 20zM474 680q0 13 9 21.5t22 8.5q21 0 21 -20q0 -13 -9 -21.5t-22 -8.5q-21 0 -21 20z" />
    <glyph glyph-name="igrave" unicode="&#xec;" horiz-adv-x="210" 
d="M173 510l-108 -510h-20l108 510h20zM138 770l56 -160h-18l-68 160h30z" />
    <glyph glyph-name="iacute" unicode="&#xed;" horiz-adv-x="210" 
d="M173 510l-108 -510h-20l108 510h20zM174 610l124 160h30l-136 -160h-18z" />
    <glyph glyph-name="icircumflex" unicode="&#xee;" horiz-adv-x="210" 
d="M173 510l-108 -510h-20l108 510h20zM309 610l-104 138l-161 -138h-30l189 160h10l121 -160h-25z" />
    <glyph glyph-name="idieresis" unicode="&#xef;" horiz-adv-x="210" 
d="M173 510l-108 -510h-20l108 510h20zM69 680q0 13 9 21.5t22 8.5q21 0 21 -20q0 -13 -9 -21.5t-22 -8.5q-21 0 -21 20zM259 680q0 13 9 21.5t22 8.5q21 0 21 -20q0 -13 -9 -21.5t-22 -8.5q-21 0 -21 20z" />
    <glyph glyph-name="eth" unicode="&#xf0;" horiz-adv-x="645" 
d="M359 630l-10 20h110q-21 27 -49 54.5t-42 39t-20 16.5h30q59 -49 106 -110h125l10 -20h-125q4 -5 9.5 -14.5t21 -40.5t27 -64t21 -84t9.5 -102q0 -156 -90 -248t-220 -92q-94 0 -151 57.5t-57 147.5q0 124 90 209.5t215 85.5q39 0 72.5 -10.5t53 -25t33 -29t18.5 -24.5
l6 -11h5q-3 58 -25 119t-42 94l-21 32h-110zM556 280q0 83 -50.5 134t-136.5 51q-118 0 -201.5 -79.5t-83.5 -195.5q0 -83 51 -134t137 -51q118 0 201 79.5t83 195.5z" />
    <glyph glyph-name="ntilde" unicode="&#xf1;" horiz-adv-x="610" 
d="M470 0h-20l66 310q6 28 6 53q0 66 -38 104t-102 38q-86 0 -163 -72t-102 -188l-52 -245h-20l108 510h15l-24 -136h5q4 6 10.5 16.5t29.5 36.5t48.5 45.5t64.5 36t80 16.5q71 0 115.5 -44t44.5 -117q0 -26 -6 -54zM325 705q-22 0 -45 -13.5t-35 -27.5l-12 -14l5 25
q4 6 10.5 14t29.5 22t47 14q36 0 74 -30t67 -30q22 0 45 13.5t35 27.5l12 14l-5 -25q-4 -6 -10.5 -14t-29.5 -22t-47 -14q-36 0 -74 30t-67 30z" />
    <glyph glyph-name="ograve" unicode="&#xf2;" horiz-adv-x="650" 
d="M276 5q115 0 205 88t90 210q0 89 -52.5 145.5t-136.5 56.5q-115 0 -205 -88t-90 -210q0 -89 52.5 -145.5t136.5 -56.5zM67 207q0 130 96.5 224t218.5 94q91 0 150 -63t59 -159q0 -130 -96.5 -224t-218.5 -94q-91 0 -150 63t-59 159zM348 770l56 -160h-18l-68 160h30z" />
    <glyph glyph-name="oacute" unicode="&#xf3;" horiz-adv-x="650" 
d="M276 5q115 0 205 88t90 210q0 89 -52.5 145.5t-136.5 56.5q-115 0 -205 -88t-90 -210q0 -89 52.5 -145.5t136.5 -56.5zM67 207q0 130 96.5 224t218.5 94q91 0 150 -63t59 -159q0 -130 -96.5 -224t-218.5 -94q-91 0 -150 63t-59 159zM384 610l124 160h30l-136 -160h-18z
" />
    <glyph glyph-name="ocircumflex" unicode="&#xf4;" horiz-adv-x="650" 
d="M276 5q115 0 205 88t90 210q0 89 -52.5 145.5t-136.5 56.5q-115 0 -205 -88t-90 -210q0 -89 52.5 -145.5t136.5 -56.5zM67 207q0 130 96.5 224t218.5 94q91 0 150 -63t59 -159q0 -130 -96.5 -224t-218.5 -94q-91 0 -150 63t-59 159zM529 610l-104 138l-161 -138h-30
l189 160h10l121 -160h-25z" />
    <glyph glyph-name="otilde" unicode="&#xf5;" horiz-adv-x="650" 
d="M276 5q115 0 205 88t90 210q0 89 -52.5 145.5t-136.5 56.5q-115 0 -205 -88t-90 -210q0 -89 52.5 -145.5t136.5 -56.5zM67 207q0 130 96.5 224t218.5 94q91 0 150 -63t59 -159q0 -130 -96.5 -224t-218.5 -94q-91 0 -150 63t-59 159zM340 705q-22 0 -45 -13.5t-35 -27.5
l-12 -14l5 25q4 6 10.5 14t29.5 22t47 14q36 0 74 -30t67 -30q22 0 45 13.5t35 27.5l12 14l-5 -25q-4 -6 -10.5 -14t-29.5 -22t-47 -14q-36 0 -74 30t-67 30z" />
    <glyph glyph-name="odieresis" unicode="&#xf6;" horiz-adv-x="650" 
d="M276 5q115 0 205 88t90 210q0 89 -52.5 145.5t-136.5 56.5q-115 0 -205 -88t-90 -210q0 -89 52.5 -145.5t136.5 -56.5zM67 207q0 130 96.5 224t218.5 94q91 0 150 -63t59 -159q0 -130 -96.5 -224t-218.5 -94q-91 0 -150 63t-59 159zM289 680q0 13 9 21.5t22 8.5
q21 0 21 -20q0 -13 -9 -21.5t-22 -8.5q-21 0 -21 20zM479 680q0 13 9 21.5t22 8.5q21 0 21 -20q0 -13 -9 -21.5t-22 -8.5q-21 0 -21 20z" />
    <glyph glyph-name="divide" unicode="&#xf7;" 
d="M102 315l4 20h370l-4 -20h-370zM271 125q0 -13 -9 -21.5t-22 -8.5q-20 0 -20 20q0 13 9 21.5t22 8.5q20 0 20 -20zM307 525q0 13 9 21.5t22 8.5q20 0 20 -20q0 -13 -9 -21.5t-22 -8.5q-20 0 -20 20z" />
    <glyph glyph-name="oslash" unicode="&#xf8;" horiz-adv-x="650" 
d="M67 207q0 130 96.5 224t218.5 94q90 0 149 -62l64 62h27l-79 -76q48 -62 48 -146q0 -130 -96.5 -224t-218.5 -94q-90 0 -149 61l-63 -61h-27l78 75q-48 60 -48 147zM87 207q0 -80 42 -133l388 376q-52 55 -135 55q-115 0 -205 -88t-90 -210zM276 5q115 0 205 88t90 210
q0 79 -42 132l-388 -375q52 -55 135 -55z" />
    <glyph glyph-name="ugrave" unicode="&#xf9;" horiz-adv-x="615" 
d="M153 510h20l-66 -310q-6 -28 -6 -53q0 -66 38 -104t102 -38q86 0 163 72t102 188l52 245h20l-108 -510h-15l24 136h-5q-4 -6 -10.5 -16.5t-29.5 -36.5t-48.5 -45.5t-64.5 -36t-80 -16.5q-71 0 -115.5 44t-44.5 117q0 26 6 54zM338 770l56 -160h-18l-68 160h30z" />
    <glyph glyph-name="uacute" unicode="&#xfa;" horiz-adv-x="615" 
d="M153 510h20l-66 -310q-6 -28 -6 -53q0 -66 38 -104t102 -38q86 0 163 72t102 188l52 245h20l-108 -510h-15l24 136h-5q-4 -6 -10.5 -16.5t-29.5 -36.5t-48.5 -45.5t-64.5 -36t-80 -16.5q-71 0 -115.5 44t-44.5 117q0 26 6 54zM364 610l124 160h30l-136 -160h-18z" />
    <glyph glyph-name="ucircumflex" unicode="&#xfb;" horiz-adv-x="615" 
d="M153 510h20l-66 -310q-6 -28 -6 -53q0 -66 38 -104t102 -38q86 0 163 72t102 188l52 245h20l-108 -510h-15l24 136h-5q-4 -6 -10.5 -16.5t-29.5 -36.5t-48.5 -45.5t-64.5 -36t-80 -16.5q-71 0 -115.5 44t-44.5 117q0 26 6 54zM519 610l-104 138l-161 -138h-30l189 160h10
l121 -160h-25z" />
    <glyph glyph-name="udieresis" unicode="&#xfc;" horiz-adv-x="615" 
d="M153 510h20l-66 -310q-6 -28 -6 -53q0 -66 38 -104t102 -38q86 0 163 72t102 188l52 245h20l-108 -510h-15l24 136h-5q-4 -6 -10.5 -16.5t-29.5 -36.5t-48.5 -45.5t-64.5 -36t-80 -16.5q-71 0 -115.5 44t-44.5 117q0 26 6 54zM274 680q0 13 9 21.5t22 8.5q21 0 21 -20
q0 -13 -9 -21.5t-22 -8.5q-21 0 -21 20zM464 680q0 13 9 21.5t22 8.5q21 0 21 -20q0 -13 -9 -21.5t-22 -8.5q-21 0 -21 20z" />
    <glyph glyph-name="yacute" unicode="&#xfd;" horiz-adv-x="535" 
d="M211 5l-128 505h21l120 -474h5l295 474h24l-373 -600q-52 -83 -89.5 -114t-85.5 -31q-11 0 -20.5 2.5t-13.5 4.5l-4 2l-1 21q13 -10 43 -10q37 0 68.5 27t77.5 98zM314 610l124 160h30l-136 -160h-18z" />
    <glyph glyph-name="thorn" unicode="&#xfe;" horiz-adv-x="645" 
d="M285 5q109 0 195 87.5t86 215.5q0 88 -48.5 142.5t-125.5 54.5q-108 0 -194.5 -89t-86.5 -214q0 -88 49 -142.5t125 -54.5zM285 -15q-44 0 -79.5 16t-54.5 38.5t-31.5 45.5t-16.5 39l-4 16h-5l-76 -360h-20l208 980h20l-79 -374h5q3 6 10 15t30 33t48.5 42.5t67 33.5
t84.5 15q84 0 139 -60.5t55 -156.5q0 -135 -92 -229t-209 -94z" />
    <glyph glyph-name="ydieresis" unicode="&#xff;" horiz-adv-x="535" 
d="M211 5l-128 505h21l120 -474h5l295 474h24l-373 -600q-52 -83 -89.5 -114t-85.5 -31q-11 0 -20.5 2.5t-13.5 4.5l-4 2l-1 21q13 -10 43 -10q37 0 68.5 27t77.5 98zM219 680q0 13 9 21.5t22 8.5q21 0 21 -20q0 -13 -9 -21.5t-22 -8.5q-21 0 -21 20zM409 680q0 13 9 21.5
t22 8.5q21 0 21 -20q0 -13 -9 -21.5t-22 -8.5q-21 0 -21 20z" />
    <glyph glyph-name="Amacron" unicode="&#x100;" horiz-adv-x="745" 
d="M577 270l-102 425h-5l-284 -425h391zM583 250h-411l-168 -250h-24l490 730h15l180 -730h-20zM351 875l4 20h300l-4 -20h-300z" />
    <glyph glyph-name="amacron" unicode="&#x101;" horiz-adv-x="608" 
d="M245 5q43 0 83.5 18.5t67.5 45t47.5 53t30.5 44.5l9 19l65 305h-160q-126 0 -213.5 -87t-87.5 -218q0 -81 44.5 -130.5t113.5 -49.5zM245 -15q-77 0 -127.5 56t-50.5 144q0 138 94 231.5t227 93.5h184l-108 -510h-15l22 125h-5q-3 -6 -9.5 -15.5t-28 -33.5t-45.5 -42.5
t-61.5 -33.5t-76.5 -15zM259 675l4 20h300l-4 -20h-300z" />
    <glyph glyph-name="Abreve" unicode="&#x102;" horiz-adv-x="745" 
d="M577 270l-102 425h-5l-284 -425h391zM583 250h-411l-168 -250h-24l490 730h15l180 -730h-20zM497 840q-47 0 -82 15t-47 30l-12 15l6 30q1 -3 4 -7.5t14.5 -16.5t25.5 -21.5t38.5 -17t52.5 -7.5q44 0 85.5 17.5t60.5 34.5l19 18l-6 -30q-6 -7 -18 -17t-53 -26.5
t-88 -16.5z" />
    <glyph glyph-name="abreve" unicode="&#x103;" horiz-adv-x="608" 
d="M245 5q43 0 83.5 18.5t67.5 45t47.5 53t30.5 44.5l9 19l65 305h-160q-126 0 -213.5 -87t-87.5 -218q0 -81 44.5 -130.5t113.5 -49.5zM245 -15q-77 0 -127.5 56t-50.5 144q0 138 94 231.5t227 93.5h184l-108 -510h-15l22 125h-5q-3 -6 -9.5 -15.5t-28 -33.5t-45.5 -42.5
t-61.5 -33.5t-76.5 -15zM407 630q-47 0 -82 15t-47 30l-12 15l6 30q1 -3 4 -7.5t14.5 -16.5t25.5 -21.5t38.5 -17t52.5 -7.5q44 0 85.5 17.5t60.5 34.5l19 18l-6 -30q-6 -7 -18 -17t-53 -26.5t-88 -16.5z" />
    <glyph glyph-name="Aogonek" unicode="&#x104;" horiz-adv-x="745" 
d="M645 0l-62 250h-411l-168 -250h-24l490 730h15l180 -730q-7 -2 -17.5 -7t-38.5 -20.5t-49.5 -32.5t-39 -43.5t-17.5 -53.5q0 -53 58 -53q16 0 32 5t24 10l8 5l-4 -20q-25 -20 -60 -20q-36 0 -57 19t-21 54q0 45 40.5 84t80.5 56zM577 270l-102 425h-5l-284 -425h391z" />
    <glyph glyph-name="aogonek" unicode="&#x105;" horiz-adv-x="608" 
d="M449 3l22 122h-5q-3 -6 -9.5 -15.5t-28 -33.5t-45.5 -42.5t-61.5 -33.5t-76.5 -15q-77 0 -127.5 56t-50.5 144q0 138 94 231.5t227 93.5h184l-108 -510q-7 -2 -17.5 -7t-38.5 -20.5t-49.5 -32.5t-39 -43.5t-17.5 -53.5q0 -53 58 -53q16 0 32 5t24 10l8 5l-4 -20
q-25 -20 -60 -20q-36 0 -57 19t-21 54q0 28 17 55t41.5 45t49.5 32.5t42 20.5zM245 5q43 0 83.5 18.5t67.5 45t47.5 53t30.5 44.5l9 19l65 305h-160q-126 0 -213.5 -87t-87.5 -218q0 -81 44.5 -130.5t113.5 -49.5z" />
    <glyph glyph-name="Cacute" unicode="&#x106;" horiz-adv-x="780" 
d="M396 -15q-130 0 -214 89.5t-84 223.5q0 90 38.5 173.5t101.5 143t145 95t166 35.5q48 0 90.5 -12.5t69 -30t46.5 -35t29 -29.5l8 -13l-14 -20q-3 5 -8 13t-25 28.5t-44 36.5t-65 29t-87 13q-108 0 -207 -56.5t-161.5 -156.5t-62.5 -214q0 -127 78 -210t200 -83
q46 0 92 12.5t78.5 30t58 35t38.5 29.5l13 13h5l-5 -25q-4 -5 -12.5 -12.5t-37 -27.5t-59 -35t-77 -27.5t-94.5 -12.5zM547 810l124 160h30l-136 -160h-18z" />
    <glyph glyph-name="cacute" unicode="&#x107;" horiz-adv-x="570" 
d="M478 85l-6 -25q-3 -3 -9 -8t-25.5 -18t-41 -23t-54 -18t-66.5 -8q-91 0 -150 63t-59 159q0 130 96.5 224t218.5 94q35 0 66 -8t50.5 -20t34 -24t20.5 -20l6 -8l-14 -20q-2 3 -6 8.5t-18.5 19.5t-31.5 24.5t-46 19t-61 8.5q-115 0 -205 -88t-90 -210q0 -89 52.5 -145.5
t136.5 -56.5q51 0 100.5 20t73.5 40l23 20h5zM374 610l124 160h30l-136 -160h-18z" />
    <glyph glyph-name="Ccircumflex" unicode="&#x108;" horiz-adv-x="780" 
d="M396 -15q-130 0 -214 89.5t-84 223.5q0 90 38.5 173.5t101.5 143t145 95t166 35.5q48 0 90.5 -12.5t69 -30t46.5 -35t29 -29.5l8 -13l-14 -20q-3 5 -8 13t-25 28.5t-44 36.5t-65 29t-87 13q-108 0 -207 -56.5t-161.5 -156.5t-62.5 -214q0 -127 78 -210t200 -83
q46 0 92 12.5t78.5 30t58 35t38.5 29.5l13 13h5l-5 -25q-4 -5 -12.5 -12.5t-37 -27.5t-59 -35t-77 -27.5t-94.5 -12.5zM687 810l-104 138l-161 -138h-30l189 160h10l121 -160h-25z" />
    <glyph glyph-name="ccircumflex" unicode="&#x109;" horiz-adv-x="570" 
d="M478 85l-6 -25q-3 -3 -9 -8t-25.5 -18t-41 -23t-54 -18t-66.5 -8q-91 0 -150 63t-59 159q0 130 96.5 224t218.5 94q35 0 66 -8t50.5 -20t34 -24t20.5 -20l6 -8l-14 -20q-2 3 -6 8.5t-18.5 19.5t-31.5 24.5t-46 19t-61 8.5q-115 0 -205 -88t-90 -210q0 -89 52.5 -145.5
t136.5 -56.5q51 0 100.5 20t73.5 40l23 20h5zM524 610l-104 138l-161 -138h-30l189 160h10l121 -160h-25z" />
    <glyph glyph-name="Ccaron" unicode="&#x10c;" horiz-adv-x="780" 
d="M396 -15q-130 0 -214 89.5t-84 223.5q0 90 38.5 173.5t101.5 143t145 95t166 35.5q48 0 90.5 -12.5t69 -30t46.5 -35t29 -29.5l8 -13l-14 -20q-3 5 -8 13t-25 28.5t-44 36.5t-65 29t-87 13q-108 0 -207 -56.5t-161.5 -156.5t-62.5 -214q0 -127 78 -210t200 -83
q46 0 92 12.5t78.5 30t58 35t38.5 29.5l13 13h5l-5 -25q-4 -5 -12.5 -12.5t-37 -27.5t-59 -35t-77 -27.5t-94.5 -12.5zM451 970l104 -138l161 138h30l-189 -160h-10l-121 160h25z" />
    <glyph glyph-name="ccaron" unicode="&#x10d;" horiz-adv-x="570" 
d="M478 85l-6 -25q-3 -3 -9 -8t-25.5 -18t-41 -23t-54 -18t-66.5 -8q-91 0 -150 63t-59 159q0 130 96.5 224t218.5 94q35 0 66 -8t50.5 -20t34 -24t20.5 -20l6 -8l-14 -20q-2 3 -6 8.5t-18.5 19.5t-31.5 24.5t-46 19t-61 8.5q-115 0 -205 -88t-90 -210q0 -89 52.5 -145.5
t136.5 -56.5q51 0 100.5 20t73.5 40l23 20h5zM283 770l104 -138l161 138h30l-189 -160h-10l-121 160h25z" />
    <glyph glyph-name="Dcaron" unicode="&#x10e;" horiz-adv-x="740" 
d="M70 0l155 730h176q129 0 212 -86.5t83 -216.5q0 -113 -63 -212.5t-165 -157t-214 -57.5h-184zM401 710h-160l-147 -690h160q107 0 204.5 54.5t157.5 149t60 203.5q0 123 -76.5 203t-198.5 80zM366 970l104 -138l161 138h30l-189 -160h-10l-121 160h25z" />
    <glyph glyph-name="dcaron" unicode="&#x10f;" horiz-adv-x="690" 
d="M368 505q-109 0 -195 -87.5t-86 -215.5q0 -88 48.5 -142.5t125.5 -54.5q108 0 194.5 89t86.5 214q0 88 -49 142.5t-125 54.5zM368 525q44 0 79.5 -16t54.5 -38.5t31.5 -45.5t16.5 -39l4 -16h5l83 390h20l-162 -760h-15l21 124h-5q-3 -6 -10 -15t-30 -33t-48.5 -42.5
t-67 -33.5t-84.5 -15q-84 0 -139 60.5t-55 156.5q0 135 92 229t209 94zM811 768q0 -21 -20.5 -67.5t-60.5 -85.5h-10q50 50 66 125h-5q-20 0 -20 20q0 13 9 21.5t22 8.5q19 0 19 -22z" />
    <glyph glyph-name="Dcroat" unicode="&#x110;" horiz-adv-x="755" 
d="M85 0l75 355h-95l4 20h95l76 355h176q129 0 212 -86.5t83 -216.5q0 -113 -63 -212.5t-165 -157t-214 -57.5h-184zM416 710h-160l-72 -335h255l-4 -20h-255l-71 -335h160q107 0 204.5 54.5t157.5 149t60 203.5q0 123 -76.5 203t-198.5 80z" />
    <glyph glyph-name="dcroat" unicode="&#x111;" horiz-adv-x="675" 
d="M368 525q44 0 79.5 -16t54.5 -38.5t31.5 -45.5t16.5 -39l4 -16h5l55 260h-200l4 20h200l24 110h20l-24 -110h105l-4 -20h-105l-134 -630h-15l21 124h-5q-3 -6 -10 -15t-30 -33t-48.5 -42.5t-67 -33.5t-84.5 -15q-84 0 -139 60.5t-55 156.5q0 135 92 229t209 94zM368 505
q-109 0 -195 -87.5t-86 -215.5q0 -88 48.5 -142.5t125.5 -54.5q108 0 194.5 89t86.5 214q0 88 -49 142.5t-125 54.5z" />
    <glyph glyph-name="Emacron" unicode="&#x112;" horiz-adv-x="605" 
d="M168 365l-74 -345h405l-4 -20h-425l155 730h425l-4 -20h-405l-69 -325h330l-4 -20h-330zM306 875l4 20h300l-4 -20h-300z" />
    <glyph glyph-name="emacron" unicode="&#x113;" horiz-adv-x="610" 
d="M98 285h437q6 25 6 55q0 74 -45 119.5t-119 45.5q-91 0 -172.5 -63.5t-106.5 -156.5zM276 5q51 0 100.5 20t73.5 40l23 20h5l-6 -25q-3 -3 -9 -8t-25.5 -18t-41 -23t-54 -18t-66.5 -8q-91 0 -150 63t-59 159q0 130 95.5 224t214.5 94q81 0 132 -51.5t51 -134.5
q0 -20 -2 -38.5t-4 -26.5l-3 -9h-458q-6 -25 -6 -58q0 -89 52.5 -145.5t136.5 -56.5zM254 675l4 20h300l-4 -20h-300z" />
    <glyph glyph-name="Edotaccent" unicode="&#x116;" horiz-adv-x="605" 
d="M168 365l-74 -345h405l-4 -20h-425l155 730h425l-4 -20h-405l-69 -325h330l-4 -20h-330zM427 880q0 13 9 21.5t22 8.5q21 0 21 -20q0 -13 -9 -21.5t-22 -8.5q-21 0 -21 20z" />
    <glyph glyph-name="edotaccent" unicode="&#x117;" horiz-adv-x="610" 
d="M98 285h437q6 25 6 55q0 74 -45 119.5t-119 45.5q-91 0 -172.5 -63.5t-106.5 -156.5zM276 5q51 0 100.5 20t73.5 40l23 20h5l-6 -25q-3 -3 -9 -8t-25.5 -18t-41 -23t-54 -18t-66.5 -8q-91 0 -150 63t-59 159q0 130 95.5 224t214.5 94q81 0 132 -51.5t51 -134.5
q0 -20 -2 -38.5t-4 -26.5l-3 -9h-458q-6 -25 -6 -58q0 -89 52.5 -145.5t136.5 -56.5zM369 680q0 13 9 21.5t22 8.5q21 0 21 -20q0 -13 -9 -21.5t-22 -8.5q-21 0 -21 20z" />
    <glyph glyph-name="Eogonek" unicode="&#x118;" horiz-adv-x="605" 
d="M168 365l-74 -345h405l-4 -20q-7 -2 -17.5 -7t-38.5 -20.5t-49.5 -32.5t-39 -43.5t-17.5 -53.5q0 -53 58 -53q16 0 32 5t24 10l8 5l-4 -20q-25 -20 -60 -20q-36 0 -57 19t-21 54q0 45 40.5 84t80.5 56l41 17h-405l155 730h425l-4 -20h-405l-69 -325h330l-4 -20h-330z" />
    <glyph glyph-name="eogonek" unicode="&#x119;" horiz-adv-x="610" 
d="M276 5q51 0 100.5 20t73.5 40l23 20h5l-6 -25q-49 -49 -130 -67q-6 -2 -15.5 -7t-34.5 -20t-44.5 -31.5t-35 -41.5t-15.5 -50q0 -53 58 -53q16 0 32 5t24 10l8 5l-4 -20q-25 -20 -60 -20q-36 0 -57 19t-21 54q0 25 13.5 49t32.5 40.5t38 29.5t33 19l13 6q-15 -2 -31 -2
q-91 0 -150 63t-59 159q0 130 95.5 224t214.5 94q81 0 132 -51.5t51 -134.5q0 -20 -2 -38.5t-4 -26.5l-3 -9h-458q-6 -25 -6 -58q0 -89 52.5 -145.5t136.5 -56.5zM98 285h437q6 25 6 55q0 74 -45 119.5t-119 45.5q-91 0 -172.5 -63.5t-106.5 -156.5z" />
    <glyph glyph-name="Ecaron" unicode="&#x11a;" horiz-adv-x="605" 
d="M168 365l-74 -345h405l-4 -20h-425l155 730h425l-4 -20h-405l-69 -325h330l-4 -20h-330zM346 970l104 -138l161 138h30l-189 -160h-10l-121 160h25z" />
    <glyph glyph-name="ecaron" unicode="&#x11b;" horiz-adv-x="610" 
d="M98 285h437q6 25 6 55q0 74 -45 119.5t-119 45.5q-91 0 -172.5 -63.5t-106.5 -156.5zM276 5q51 0 100.5 20t73.5 40l23 20h5l-6 -25q-3 -3 -9 -8t-25.5 -18t-41 -23t-54 -18t-66.5 -8q-91 0 -150 63t-59 159q0 130 95.5 224t214.5 94q81 0 132 -51.5t51 -134.5
q0 -20 -2 -38.5t-4 -26.5l-3 -9h-458q-6 -25 -6 -58q0 -89 52.5 -145.5t136.5 -56.5zM283 770l104 -138l161 138h30l-189 -160h-10l-121 160h25z" />
    <glyph glyph-name="Gbreve" unicode="&#x11e;" horiz-adv-x="825" 
d="M396 -15q-130 0 -214 89.5t-84 223.5q0 90 38.5 173.5t101.5 143t145 95t166 35.5q48 0 90.5 -12.5t69 -30t46.5 -35t29 -29.5l8 -13l-14 -20q-3 5 -8 13t-25 28.5t-44 36.5t-65 29t-87 13q-108 0 -207 -56.5t-161.5 -156.5t-62.5 -214q0 -127 78 -210t200 -83
q48 0 95 13t80 31.5t59 36.5t39 31l13 13l47 220h-290l9 20h305l-52 -245q-5 -6 -13.5 -15.5t-39 -33.5t-63.5 -42.5t-84.5 -33.5t-104.5 -15zM552 840q-47 0 -82 15t-47 30l-12 15l6 30q1 -3 4 -7.5t14.5 -16.5t25.5 -21.5t38.5 -17t52.5 -7.5q44 0 85.5 17.5t60.5 34.5
l19 18l-6 -30q-6 -7 -18 -17t-53 -26.5t-88 -16.5z" />
    <glyph glyph-name="gbreve" unicode="&#x11f;" horiz-adv-x="645" 
d="M268 35q104 0 190 86t86 194q0 83 -49.5 136.5t-126.5 53.5q-106 0 -191 -83t-85 -197q0 -83 49 -136.5t127 -53.5zM486 25l26 127h-6q-3 -6 -9.5 -15t-28.5 -32.5t-47 -41.5t-66.5 -33t-86.5 -15q-85 0 -141 60t-56 150q0 122 92 211t205 89q45 0 80.5 -15t55 -36.5
t32 -42.5t16.5 -36l4 -15h5l33 130h15l-103 -485q-26 -123 -104 -191.5t-188 -68.5q-53 0 -94.5 15t-56.5 30l-15 15l1 30q2 -3 5.5 -7.5t17 -16.5t30.5 -21.5t47 -17t65 -7.5q103 0 175.5 62.5t96.5 177.5zM402 650q-47 0 -82 15t-47 30l-12 15l6 30q1 -3 4 -7.5
t14.5 -16.5t25.5 -21.5t38.5 -17t52.5 -7.5q44 0 85.5 17.5t60.5 34.5l19 18l-6 -30q-6 -7 -18 -17t-53 -26.5t-88 -16.5z" />
    <glyph glyph-name="Gcommaaccent" unicode="&#x122;" horiz-adv-x="825" 
d="M396 -15q-130 0 -214 89.5t-84 223.5q0 90 38.5 173.5t101.5 143t145 95t166 35.5q48 0 90.5 -12.5t69 -30t46.5 -35t29 -29.5l8 -13l-14 -20q-3 5 -8 13t-25 28.5t-44 36.5t-65 29t-87 13q-108 0 -207 -56.5t-161.5 -156.5t-62.5 -214q0 -127 78 -210t200 -83
q48 0 95 13t80 31.5t59 36.5t39 31l13 13l47 220h-290l9 20h305l-52 -245q-5 -6 -13.5 -15.5t-39 -33.5t-63.5 -42.5t-84.5 -33.5t-104.5 -15zM407 -102q0 -21 -20.5 -67.5t-60.5 -85.5h-10q50 50 66 125h-5q-20 0 -20 20q0 13 9 21.5t22 8.5q19 0 19 -22z" />
    <glyph glyph-name="gcommaaccent" unicode="&#x123;" horiz-adv-x="645" 
d="M374 652q0 21 20.5 67.5t60.5 85.5h10q-50 -50 -66 -125h5q20 0 20 -20q0 -13 -9 -21.5t-22 -8.5q-19 0 -19 22zM268 35q104 0 190 86t86 194q0 83 -49.5 136.5t-126.5 53.5q-106 0 -191 -83t-85 -197q0 -83 49 -136.5t127 -53.5zM486 25l26 127h-6q-3 -6 -9.5 -15
t-28.5 -32.5t-47 -41.5t-66.5 -33t-86.5 -15q-85 0 -141 60t-56 150q0 122 92 211t205 89q45 0 80.5 -15t55 -36.5t32 -42.5t16.5 -36l4 -15h5l33 130h15l-103 -485q-26 -123 -104 -191.5t-188 -68.5q-53 0 -94.5 15t-56.5 30l-15 15l1 30q2 -3 5.5 -7.5t17 -16.5
t30.5 -21.5t47 -17t65 -7.5q103 0 175.5 62.5t96.5 177.5z" />
    <glyph glyph-name="Imacron" unicode="&#x12a;" horiz-adv-x="260" 
d="M70 0l155 730h20l-155 -730h-20zM107 880l4 20h300l-4 -20h-300z" />
    <glyph glyph-name="imacron" unicode="&#x12b;" horiz-adv-x="210" 
d="M173 510l-108 -510h-20l108 510h20zM39 675l4 20h300l-4 -20h-300z" />
    <glyph glyph-name="Iogonek" unicode="&#x12e;" horiz-adv-x="260" 
d="M70 0l155 730h20l-155 -730q-7 -2 -17.5 -7t-38.5 -20.5t-49.5 -32.5t-39 -43.5t-17.5 -53.5q0 -53 58 -53q16 0 32 5t24 10l8 5l-4 -20q-25 -20 -60 -20q-36 0 -57 19t-21 54q0 45 40.5 84t81.5 56z" />
    <glyph glyph-name="iogonek" unicode="&#x12f;" horiz-adv-x="210" 
d="M45 0l108 510h20l-108 -510q-7 -2 -17.5 -7t-38.5 -20.5t-49.5 -32.5t-39 -43.5t-17.5 -53.5q0 -53 58 -53q16 0 32 5t24 10l8 5l-4 -20q-25 -20 -60 -20q-36 0 -57 19t-21 54q0 45 40.5 84t80.5 56zM178 700q0 13 9 21.5t22 8.5q21 0 21 -20q0 -13 -9 -21.5t-22 -8.5
q-21 0 -21 20z" />
    <glyph glyph-name="Idotaccent" unicode="&#x130;" horiz-adv-x="260" 
d="M70 0l155 730h20l-155 -730h-20zM242 880q0 13 9 21.5t22 8.5q21 0 21 -20q0 -13 -9 -21.5t-22 -8.5q-21 0 -21 20z" />
    <glyph glyph-name="dotlessi" unicode="&#x131;" horiz-adv-x="210" 
d="M173 510l-108 -510h-20l108 510h20z" />
    <glyph glyph-name="Kcommaaccent" unicode="&#x136;" horiz-adv-x="620" 
d="M536 0l-233 406l-153 -126l-60 -280h-20l155 730h20l-89 -419l507 419h32l-376 -310l241 -420h-24zM317 -102q0 -21 -20.5 -67.5t-60.5 -85.5h-10q50 50 66 125h-5q-20 0 -20 20q0 13 9 21.5t22 8.5q19 0 19 -22z" />
    <glyph glyph-name="kcommaaccent" unicode="&#x137;" horiz-adv-x="500" 
d="M415 0l-188 277l-123 -92l-39 -185h-20l162 760h20l-117 -545l394 295h34l-295 -221l197 -289h-25zM247 -102q0 -21 -20.5 -67.5t-60.5 -85.5h-10q50 50 66 125h-5q-20 0 -20 20q0 13 9 21.5t22 8.5q19 0 19 -22z" />
    <glyph glyph-name="Lacute" unicode="&#x139;" 
d="M70 0l155 730h20l-151 -710h370l-4 -20h-390zM247 810l124 160h30l-136 -160h-18z" />
    <glyph glyph-name="lacute" unicode="&#x13a;" horiz-adv-x="245" 
d="M179 20l-4 -20q-14 -15 -49 -15q-67 0 -67 66q0 14 5 39l142 670h20l-142 -670q-5 -27 -5 -39q0 -25 11.5 -35.5t35.5 -10.5q13 0 25 3.5t17 7.5l6 4h5zM230 850l124 160h30l-136 -160h-18z" />
    <glyph glyph-name="Lcommaaccent" unicode="&#x13b;" 
d="M70 0l155 730h20l-151 -710h370l-4 -20h-390zM277 -102q0 -21 -20.5 -67.5t-60.5 -85.5h-10q50 50 66 125h-5q-20 0 -20 20q0 13 9 21.5t22 8.5q19 0 19 -22z" />
    <glyph glyph-name="lcommaaccent" unicode="&#x13c;" horiz-adv-x="245" 
d="M179 20l-4 -20q-14 -15 -49 -15q-67 0 -67 66q0 14 5 39l142 670h20l-142 -670q-5 -27 -5 -39q0 -25 11.5 -35.5t35.5 -10.5q13 0 25 3.5t17 7.5l6 4h5zM112 -102q0 -21 -20.5 -67.5t-60.5 -85.5h-10q50 50 66 125h-5q-20 0 -20 20q0 13 9 21.5t22 8.5q19 0 19 -22z" />
    <glyph glyph-name="Lcaron" unicode="&#x13d;" 
d="M70 0l155 730h20l-151 -710h370l-4 -20h-390zM441 718q0 -21 -20.5 -67.5t-60.5 -85.5h-10q50 50 66 125h-5q-20 0 -20 20q0 13 9 21.5t22 8.5q19 0 19 -22z" />
    <glyph glyph-name="lcaron" unicode="&#x13e;" horiz-adv-x="255" 
d="M179 20l-4 -20q-14 -15 -49 -15q-67 0 -67 66q0 14 5 39l142 670h20l-142 -670q-5 -27 -5 -39q0 -25 11.5 -35.5t35.5 -10.5q13 0 25 3.5t17 7.5l6 4h5zM376 768q0 -21 -20.5 -67.5t-60.5 -85.5h-10q50 50 66 125h-5q-20 0 -20 20q0 13 9 21.5t22 8.5q19 0 19 -22z" />
    <glyph glyph-name="Lslash" unicode="&#x141;" horiz-adv-x="550" 
d="M172 339l-68 -319h370l-4 -20h-390l70 330l-96 -30l4 20l97 30l80 380h20l-78 -371l204 66l-5 -20z" />
    <glyph glyph-name="lslash" unicode="&#x142;" horiz-adv-x="260" 
d="M160 375l-61 -285q-5 -27 -5 -39q0 -25 11.5 -35.5t35.5 -10.5q13 0 25 3.5t18 7.5l5 4h5l-4 -20q-14 -15 -49 -15q-67 0 -67 66q0 14 5 39l60 280l-97 -30l4 20l97 30l78 370h20l-77 -365l96 30l-4 -20z" />
    <glyph glyph-name="Nacute" unicode="&#x143;" horiz-adv-x="780" 
d="M237 694l-147 -694h-20l155 730h15l358 -694l147 694h20l-155 -730h-15zM492 810l124 160h30l-136 -160h-18z" />
    <glyph glyph-name="nacute" unicode="&#x144;" horiz-adv-x="610" 
d="M470 0h-20l66 310q6 28 6 53q0 66 -38 104t-102 38q-86 0 -163 -72t-102 -188l-52 -245h-20l108 510h15l-24 -136h5q4 6 10.5 16.5t29.5 36.5t48.5 45.5t64.5 36t80 16.5q71 0 115.5 -44t44.5 -117q0 -26 -6 -54zM369 610l124 160h30l-136 -160h-18z" />
    <glyph glyph-name="Ncommaaccent" unicode="&#x145;" horiz-adv-x="780" 
d="M237 694l-147 -694h-20l155 730h15l358 -694l147 694h20l-155 -730h-15zM362 -102q0 -21 -20.5 -67.5t-60.5 -85.5h-10q50 50 66 125h-5q-20 0 -20 20q0 13 9 21.5t22 8.5q19 0 19 -22z" />
    <glyph glyph-name="ncommaaccent" unicode="&#x146;" horiz-adv-x="610" 
d="M470 0h-20l66 310q6 28 6 53q0 66 -38 104t-102 38q-86 0 -163 -72t-102 -188l-52 -245h-20l108 510h15l-24 -136h5q4 6 10.5 16.5t29.5 36.5t48.5 45.5t64.5 36t80 16.5q71 0 115.5 -44t44.5 -117q0 -26 -6 -54zM277 -102q0 -21 -20.5 -67.5t-60.5 -85.5h-10
q50 50 66 125h-5q-20 0 -20 20q0 13 9 21.5t22 8.5q19 0 19 -22z" />
    <glyph glyph-name="Ncaron" unicode="&#x147;" horiz-adv-x="780" 
d="M237 694l-147 -694h-20l155 730h15l358 -694l147 694h20l-155 -730h-15zM401 970l104 -138l161 138h30l-189 -160h-10l-121 160h25z" />
    <glyph glyph-name="ncaron" unicode="&#x148;" horiz-adv-x="610" 
d="M470 0h-20l66 310q6 28 6 53q0 66 -38 104t-102 38q-86 0 -163 -72t-102 -188l-52 -245h-20l108 510h15l-24 -136h5q4 6 10.5 16.5t29.5 36.5t48.5 45.5t64.5 36t80 16.5q71 0 115.5 -44t44.5 -117q0 -26 -6 -54zM278 770l104 -138l161 138h30l-189 -160h-10l-121 160h25
z" />
    <glyph glyph-name="Omacron" unicode="&#x14c;" horiz-adv-x="890" 
d="M98 298q0 90 38.5 173.5t101.5 143t145 95t166 35.5q130 0 214 -89.5t84 -223.5q0 -90 -38.5 -173.5t-101.5 -143t-145 -95t-166 -35.5q-130 0 -214 89.5t-84 223.5zM119 298q0 -127 77.5 -210t199.5 -83q80 0 158.5 34t138 90.5t96.5 136.5t37 166q0 127 -77.5 210
t-199.5 83q-80 0 -158.5 -34t-138 -90.5t-96.5 -136.5t-37 -166zM420 875l4 20h300l-4 -20h-300z" />
    <glyph glyph-name="omacron" unicode="&#x14d;" horiz-adv-x="650" 
d="M276 5q115 0 205 88t90 210q0 89 -52.5 145.5t-136.5 56.5q-115 0 -205 -88t-90 -210q0 -89 52.5 -145.5t136.5 -56.5zM67 207q0 130 96.5 224t218.5 94q91 0 150 -63t59 -159q0 -130 -96.5 -224t-218.5 -94q-91 0 -150 63t-59 159zM259 675l4 20h300l-4 -20h-300z" />
    <glyph glyph-name="Ohungarumlaut" unicode="&#x150;" horiz-adv-x="890" 
d="M98 298q0 90 38.5 173.5t101.5 143t145 95t166 35.5q130 0 214 -89.5t84 -223.5q0 -90 -38.5 -173.5t-101.5 -143t-145 -95t-166 -35.5q-130 0 -214 89.5t-84 223.5zM119 298q0 -127 77.5 -210t199.5 -83q80 0 158.5 34t138 90.5t96.5 136.5t37 166q0 127 -77.5 210
t-199.5 83q-80 0 -158.5 -34t-138 -90.5t-96.5 -136.5t-37 -166zM492 810l99 160h25l-106 -160h-18zM602 810l124 160h30l-136 -160h-18z" />
    <glyph glyph-name="ohungarumlaut" unicode="&#x151;" horiz-adv-x="650" 
d="M276 5q115 0 205 88t90 210q0 89 -52.5 145.5t-136.5 56.5q-115 0 -205 -88t-90 -210q0 -89 52.5 -145.5t136.5 -56.5zM67 207q0 130 96.5 224t218.5 94q91 0 150 -63t59 -159q0 -130 -96.5 -224t-218.5 -94q-91 0 -150 63t-59 159zM324 610l99 160h25l-106 -160h-18z
M434 610l124 160h30l-136 -160h-18z" />
    <glyph glyph-name="OE" unicode="&#x152;" horiz-adv-x="960" 
d="M592 365l-73 -345h335l-4 -20h-355q-39 -15 -99 -15q-130 0 -214 89.5t-84 223.5q0 90 38.5 173.5t101.5 143t145 95t166 35.5q27 0 52 -3.5t37 -7.5l12 -4h355l-5 -20h-335l-69 -325h260l-4 -20h-260zM396 5q27 0 52.5 3.5t37.5 7.5l13 4l146 690q-36 15 -96 15
q-108 0 -207 -56.5t-161.5 -156.5t-62.5 -214q0 -127 78 -210t200 -83z" />
    <glyph glyph-name="oe" unicode="&#x153;" horiz-adv-x="960" 
d="M626 5q51 0 100.5 20t73.5 40l23 20h5l-6 -25q-3 -3 -9 -8t-25.5 -18t-41 -23t-54 -18t-66.5 -8q-98 0 -158 71q-89 -71 -192 -71q-91 0 -150 63t-59 159q0 130 96.5 224t218.5 94q96 0 156 -71q89 71 189 71q81 0 132 -51.5t51 -134.5q0 -20 -2 -38.5t-4 -26.5l-3 -9
h-458q-6 -25 -6 -58q0 -89 52.5 -145.5t136.5 -56.5zM276 5q98 0 181 66q-40 57 -40 136q0 138 107 235q-55 63 -142 63q-115 0 -205 -88t-90 -210q0 -89 52.5 -145.5t136.5 -56.5zM448 285h437q6 25 6 55q0 74 -45 119.5t-119 45.5q-91 0 -172.5 -63.5t-106.5 -156.5z" />
    <glyph glyph-name="Racute" unicode="&#x154;" horiz-adv-x="630" 
d="M225 730h195q86 0 135.5 -48t49.5 -126q0 -103 -73.5 -175t-177.5 -81l166 -300h-24l-166 300h-176l-64 -300h-20zM158 320h175q103 0 177.5 68t74.5 166q0 70 -45 113t-124 43h-175zM416 810l124 160h30l-136 -160h-18z" />
    <glyph glyph-name="racute" unicode="&#x155;" horiz-adv-x="425" 
d="M459 465l-9 -20q-4 7 -11.5 17t-34 26.5t-57.5 16.5q-38 0 -74 -20.5t-61 -50t-44 -59t-28 -49.5l-10 -21l-65 -305h-20l108 510h15l-23 -130h5q3 6 9 15.5t25.5 34.5t41 44.5t54.5 35t67 15.5q33 0 61 -15t40 -30zM299 610l124 160h30l-136 -160h-18z" />
    <glyph glyph-name="Rcommaaccent" unicode="&#x156;" horiz-adv-x="630" 
d="M225 730h195q86 0 135.5 -48t49.5 -126q0 -103 -73.5 -175t-177.5 -81l166 -300h-24l-166 300h-176l-64 -300h-20zM158 320h175q103 0 177.5 68t74.5 166q0 70 -45 113t-124 43h-175zM301 -102q0 -21 -20.5 -67.5t-60.5 -85.5h-10q50 50 66 125h-5q-20 0 -20 20
q0 13 9 21.5t22 8.5q19 0 19 -22z" />
    <glyph glyph-name="rcommaaccent" unicode="&#x157;" horiz-adv-x="425" 
d="M459 465l-9 -20q-4 7 -11.5 17t-34 26.5t-57.5 16.5q-38 0 -74 -20.5t-61 -50t-44 -59t-28 -49.5l-10 -21l-65 -305h-20l108 510h15l-23 -130h5q3 6 9 15.5t25.5 34.5t41 44.5t54.5 35t67 15.5q33 0 61 -15t40 -30zM62 -102q0 -21 -20.5 -67.5t-60.5 -85.5h-10
q50 50 66 125h-5q-20 0 -20 20q0 13 9 21.5t22 8.5q19 0 19 -22z" />
    <glyph glyph-name="Rcaron" unicode="&#x158;" horiz-adv-x="630" 
d="M225 730h195q86 0 135.5 -48t49.5 -126q0 -103 -73.5 -175t-177.5 -81l166 -300h-24l-166 300h-176l-64 -300h-20zM158 320h175q103 0 177.5 68t74.5 166q0 70 -45 113t-124 43h-175zM325 970l104 -138l161 138h30l-189 -160h-10l-121 160h25z" />
    <glyph glyph-name="rcaron" unicode="&#x159;" horiz-adv-x="425" 
d="M459 465l-9 -20q-4 7 -11.5 17t-34 26.5t-57.5 16.5q-38 0 -74 -20.5t-61 -50t-44 -59t-28 -49.5l-10 -21l-65 -305h-20l108 510h15l-23 -130h5q3 6 9 15.5t25.5 34.5t41 44.5t54.5 35t67 15.5q33 0 61 -15t40 -30zM213 770l104 -138l161 138h30l-189 -160h-10l-121 160
h25z" />
    <glyph glyph-name="Sacute" unicode="&#x15a;" horiz-adv-x="555" 
d="M379 745q34 0 63.5 -8t47.5 -20t31.5 -24t18.5 -20l6 -8l-9 -20q-2 3 -5.5 8.5t-17 19.5t-30 24.5t-45 19t-60.5 8.5q-93 0 -148.5 -48.5t-55.5 -118.5q0 -44 31.5 -80t77 -63t90.5 -54.5t76.5 -66.5t31.5 -87q0 -93 -70 -157.5t-181 -64.5q-41 0 -76 11t-56.5 26
t-37 30.5t-21.5 26.5l-6 11l14 20l5.5 -11t18.5 -25.5t33.5 -32t52.5 -25t73 -11.5q103 0 166.5 57.5t63.5 140.5q0 45 -31.5 82t-76.5 64l-90 54t-76.5 65.5t-31.5 85.5q0 80 61.5 135.5t162.5 55.5zM372 810l124 160h30l-136 -160h-18z" />
    <glyph glyph-name="sacute" unicode="&#x15b;" horiz-adv-x="485" 
d="M298 505q-79 0 -125.5 -38.5t-46.5 -92.5q0 -34 29 -55t70 -32.5t82 -24t70 -40.5t29 -72q0 -68 -57.5 -116.5t-147.5 -48.5q-34 0 -64.5 8t-50 20t-34.5 24t-22 20l-6 8l10 25l6 -9t18.5 -20.5t32 -26t47 -20.5t63.5 -9q83 0 134 42.5t51 102.5q0 38 -29 62t-70 35.5
t-82.5 24t-70.5 37.5t-29 65q0 62 53.5 106.5t139.5 44.5q47 0 84 -17.5t51 -35.5l14 -17l-14 -20q-1 3 -4 7.5t-14.5 16.5t-25.5 21.5t-38.5 17t-52.5 7.5zM299 610l124 160h30l-136 -160h-18z" />
    <glyph glyph-name="Scedilla" unicode="&#x15e;" horiz-adv-x="555" 
d="M379 745q34 0 63.5 -8t47.5 -20t31.5 -24t18.5 -20l6 -8l-9 -20q-2 3 -5.5 8.5t-17 19.5t-30 24.5t-45 19t-60.5 8.5q-93 0 -148.5 -48.5t-55.5 -118.5q0 -44 31.5 -80t77 -63t90.5 -54.5t76.5 -66.5t31.5 -87q0 -90 -67 -154t-174 -68l-23 -40q86 -13 86 -83
q0 -42 -30 -69.5t-80 -27.5q-20 0 -39 5t-27 10l-9 5l4 20q26 -20 71 -20q43 0 66.5 21t23.5 56q0 62 -94 68l31 55q-38 1 -71.5 12.5t-54 26.5t-35 30t-20.5 26l-6 10l14 20l5.5 -11t18.5 -25.5t33.5 -32t52.5 -25t73 -11.5q103 0 166.5 57.5t63.5 140.5q0 45 -31.5 82
t-76.5 64l-90 54t-76.5 65.5t-31.5 85.5q0 80 61.5 135.5t162.5 55.5z" />
    <glyph glyph-name="scedilla" unicode="&#x15f;" horiz-adv-x="485" 
d="M298 505q-79 0 -125.5 -38.5t-46.5 -92.5q0 -34 29 -55t70 -32.5t82 -24t70 -40.5t29 -72q0 -68 -57.5 -116.5t-147.5 -48.5h-10l-23 -40q86 -13 86 -83q0 -42 -30 -69.5t-80 -27.5q-20 0 -39 5t-27 10l-9 5l4 20q26 -20 71 -20q43 0 66.5 21t23.5 56q0 62 -94 68l32 57
q-44 5 -81 24.5t-52 36.5l-15 17l10 25l6 -9t18.5 -20.5t32 -26t47 -20.5t63.5 -9q83 0 134 42.5t51 102.5q0 38 -29 62t-70 35.5t-82.5 24t-70.5 37.5t-29 65q0 62 53.5 106.5t139.5 44.5q47 0 84 -17.5t51 -35.5l14 -17l-14 -20q-1 3 -4 7.5t-14.5 16.5t-25.5 21.5
t-38.5 17t-52.5 7.5z" />
    <glyph glyph-name="Scaron" unicode="&#x160;" horiz-adv-x="555" 
d="M379 745q34 0 63.5 -8t47.5 -20t31.5 -24t18.5 -20l6 -8l-9 -20q-2 3 -5.5 8.5t-17 19.5t-30 24.5t-45 19t-60.5 8.5q-93 0 -148.5 -48.5t-55.5 -118.5q0 -44 31.5 -80t77 -63t90.5 -54.5t76.5 -66.5t31.5 -87q0 -93 -70 -157.5t-181 -64.5q-41 0 -76 11t-56.5 26
t-37 30.5t-21.5 26.5l-6 11l14 20l5.5 -11t18.5 -25.5t33.5 -32t52.5 -25t73 -11.5q103 0 166.5 57.5t63.5 140.5q0 45 -31.5 82t-76.5 64l-90 54t-76.5 65.5t-31.5 85.5q0 80 61.5 135.5t162.5 55.5zM291 970l104 -138l161 138h30l-189 -160h-10l-121 160h25z" />
    <glyph glyph-name="scaron" unicode="&#x161;" horiz-adv-x="485" 
d="M298 505q-79 0 -125.5 -38.5t-46.5 -92.5q0 -34 29 -55t70 -32.5t82 -24t70 -40.5t29 -72q0 -68 -57.5 -116.5t-147.5 -48.5q-34 0 -64.5 8t-50 20t-34.5 24t-22 20l-6 8l10 25l6 -9t18.5 -20.5t32 -26t47 -20.5t63.5 -9q83 0 134 42.5t51 102.5q0 38 -29 62t-70 35.5
t-82.5 24t-70.5 37.5t-29 65q0 62 53.5 106.5t139.5 44.5q47 0 84 -17.5t51 -35.5l14 -17l-14 -20q-1 3 -4 7.5t-14.5 16.5t-25.5 21.5t-38.5 17t-52.5 7.5zM208 770l104 -138l161 138h30l-189 -160h-10l-121 160h25z" />
    <glyph glyph-name="Tcommaaccent" unicode="&#x162;" horiz-adv-x="600" 
d="M666 710h-255l-151 -710h-20l151 710h-255l4 20h530zM257 -102q0 -21 -20.5 -67.5t-60.5 -85.5h-10q50 50 66 125h-5q-20 0 -20 20q0 13 9 21.5t22 8.5q19 0 19 -22z" />
    <glyph glyph-name="tcommaaccent" unicode="&#x163;" horiz-adv-x="410" 
d="M119 135l75 355h-100l4 20h100l29 135l22 10l-31 -145h170l-4 -20h-170l-75 -355q-6 -27 -6 -47q0 -83 83 -83q27 0 51.5 11t36.5 22l11 12h5l-4 -20q-4 -5 -12.5 -12.5t-35.5 -20t-56 -12.5q-47 0 -73 25.5t-26 74.5q0 23 6 50zM202 -102q0 -21 -20.5 -67.5t-60.5 -85.5
h-10q50 50 66 125h-5q-20 0 -20 20q0 13 9 21.5t22 8.5q19 0 19 -22z" />
    <glyph glyph-name="Tcaron" unicode="&#x164;" horiz-adv-x="600" 
d="M666 710h-255l-151 -710h-20l151 710h-255l4 20h530zM311 970l104 -138l161 138h30l-189 -160h-10l-121 160h25z" />
    <glyph glyph-name="tcaron" unicode="&#x165;" horiz-adv-x="445" 
d="M119 135l75 355h-100l4 20h100l29 135l22 10l-31 -145h170l-4 -20h-170l-75 -355q-6 -27 -6 -47q0 -83 83 -83q27 0 51.5 11t36.5 22l11 12h5l-4 -20q-4 -5 -12.5 -12.5t-35.5 -20t-56 -12.5q-47 0 -73 25.5t-26 74.5q0 23 6 50zM546 668q0 -21 -20.5 -67.5t-60.5 -85.5
h-10q50 50 66 125h-5q-20 0 -20 20q0 13 9 21.5t22 8.5q19 0 19 -22z" />
    <glyph glyph-name="Umacron" unicode="&#x16a;" horiz-adv-x="740" 
d="M321 5q113 0 190 64.5t102 180.5l102 480h20l-102 -480q-26 -124 -109 -194.5t-203 -70.5q-121 0 -177.5 71t-30.5 194l102 480h20l-102 -480q-25 -116 25 -180.5t163 -64.5zM345 875l4 20h300l-4 -20h-300z" />
    <glyph glyph-name="umacron" unicode="&#x16b;" horiz-adv-x="615" 
d="M153 510h20l-66 -310q-6 -28 -6 -53q0 -66 38 -104t102 -38q86 0 163 72t102 188l52 245h20l-108 -510h-15l24 136h-5q-4 -6 -10.5 -16.5t-29.5 -36.5t-48.5 -45.5t-64.5 -36t-80 -16.5q-71 0 -115.5 44t-44.5 117q0 26 6 54zM249 675l4 20h300l-4 -20h-300z" />
    <glyph glyph-name="Uring" unicode="&#x16e;" horiz-adv-x="740" 
d="M321 5q113 0 190 64.5t102 180.5l102 480h20l-102 -480q-26 -124 -109 -194.5t-203 -70.5q-121 0 -177.5 71t-30.5 194l102 480h20l-102 -480q-25 -116 25 -180.5t163 -64.5zM596 901q0 -47 -33 -79t-81 -32q-36 0 -58.5 22.5t-22.5 56.5q0 47 33 79t80 32q36 0 59 -22.5
t23 -56.5zM576 901q0 27 -16.5 43t-45.5 16q-39 0 -66 -26t-27 -65q0 -27 16.5 -43t44.5 -16q40 0 67 26t27 65z" />
    <glyph glyph-name="uring" unicode="&#x16f;" horiz-adv-x="615" 
d="M153 510h20l-66 -310q-6 -28 -6 -53q0 -66 38 -104t102 -38q86 0 163 72t102 188l52 245h20l-108 -510h-15l24 136h-5q-4 -6 -10.5 -16.5t-29.5 -36.5t-48.5 -45.5t-64.5 -36t-80 -16.5q-71 0 -115.5 44t-44.5 117q0 26 6 54zM495 711q0 -47 -33 -79t-81 -32
q-36 0 -58.5 22.5t-22.5 56.5q0 47 33 79t80 32q36 0 59 -22.5t23 -56.5zM475 711q0 27 -16.5 43t-45.5 16q-39 0 -66 -26t-27 -65q0 -27 16.5 -43t44.5 -16q40 0 67 26t27 65z" />
    <glyph glyph-name="Uhungarumlaut" unicode="&#x170;" horiz-adv-x="740" 
d="M321 5q113 0 190 64.5t102 180.5l102 480h20l-102 -480q-26 -124 -109 -194.5t-203 -70.5q-121 0 -177.5 71t-30.5 194l102 480h20l-102 -480q-25 -116 25 -180.5t163 -64.5zM412 810l99 160h25l-106 -160h-18zM522 810l124 160h30l-136 -160h-18z" />
    <glyph glyph-name="uhungarumlaut" unicode="&#x171;" horiz-adv-x="615" 
d="M153 510h20l-66 -310q-6 -28 -6 -53q0 -66 38 -104t102 -38q86 0 163 72t102 188l52 245h20l-108 -510h-15l24 136h-5q-4 -6 -10.5 -16.5t-29.5 -36.5t-48.5 -45.5t-64.5 -36t-80 -16.5q-71 0 -115.5 44t-44.5 117q0 26 6 54zM314 610l99 160h25l-106 -160h-18zM424 610
l124 160h30l-136 -160h-18z" />
    <glyph glyph-name="Uogonek" unicode="&#x172;" horiz-adv-x="740" 
d="M321 5q113 0 190 64.5t102 180.5l102 480h20l-102 -480q-22 -103 -83 -169.5t-151 -86.5q-6 -3 -16 -7.5t-35 -20t-44 -32t-35 -41.5t-16 -50q0 -53 58 -53q16 0 32 5t24 10l8 5l-4 -20q-25 -20 -60 -20q-36 0 -57 19t-21 54q0 40 33 76t66 53l33 16q-21 -3 -44 -3
q-121 0 -177.5 71t-30.5 194l102 480h20l-102 -480q-25 -116 25 -180.5t163 -64.5z" />
    <glyph glyph-name="uogonek" unicode="&#x173;" horiz-adv-x="615" 
d="M455 3l24 133h-5q-4 -6 -10.5 -16.5t-29.5 -36.5t-48.5 -45.5t-64.5 -36t-80 -16.5q-71 0 -115.5 44t-44.5 117q0 26 6 54l66 310h20l-66 -310q-6 -28 -6 -53q0 -66 38 -104t102 -38q86 0 163 72t102 188l52 245h20l-108 -510q-7 -2 -17.5 -7t-38.5 -20.5t-49.5 -32.5
t-39 -43.5t-17.5 -53.5q0 -53 58 -53q16 0 32 5t24 10l8 5l-4 -20q-25 -20 -60 -20q-36 0 -57 19t-21 54q0 28 17 55t41.5 45t49.5 32.5t42 20.5z" />
    <glyph glyph-name="Ydieresis" unicode="&#x178;" horiz-adv-x="660" 
d="M260 0l64 300l-194 430h22l185 -410l356 410h27l-376 -430l-64 -300h-20zM327 880q0 13 9 21.5t22 8.5q21 0 21 -20q0 -13 -9 -21.5t-22 -8.5q-21 0 -21 20zM517 880q0 13 9 21.5t22 8.5q21 0 21 -20q0 -13 -9 -21.5t-22 -8.5q-21 0 -21 20z" />
    <glyph glyph-name="Zacute" unicode="&#x179;" horiz-adv-x="610" 
d="M2 10l616 700h-447l4 20h480l-2 -10l-616 -700h477l-4 -20h-510zM402 810l124 160h30l-136 -160h-18z" />
    <glyph glyph-name="zacute" unicode="&#x17a;" horiz-adv-x="510" 
d="M114 490l4 20h400l-2 -10l-485 -480h393l-4 -20h-430l2 10l485 480h-363zM319 610l124 160h30l-136 -160h-18z" />
    <glyph glyph-name="Zdotaccent" unicode="&#x17b;" horiz-adv-x="610" 
d="M2 10l616 700h-447l4 20h480l-2 -10l-616 -700h477l-4 -20h-510zM402 880q0 13 9 21.5t22 8.5q21 0 21 -20q0 -13 -9 -21.5t-22 -8.5q-21 0 -21 20z" />
    <glyph glyph-name="zdotaccent" unicode="&#x17c;" horiz-adv-x="510" 
d="M114 490l4 20h400l-2 -10l-485 -480h393l-4 -20h-430l2 10l485 480h-363zM320 680q0 13 9 21.5t22 8.5q21 0 21 -20q0 -13 -9 -21.5t-22 -8.5q-21 0 -21 20z" />
    <glyph glyph-name="Zcaron" unicode="&#x17d;" horiz-adv-x="610" 
d="M2 10l616 700h-447l4 20h480l-2 -10l-616 -700h477l-4 -20h-510zM316 970l104 -138l161 138h30l-189 -160h-10l-121 160h25z" />
    <glyph glyph-name="zcaron" unicode="&#x17e;" horiz-adv-x="510" 
d="M114 490l4 20h400l-2 -10l-485 -480h393l-4 -20h-430l2 10l485 480h-363zM228 770l104 -138l161 138h30l-189 -160h-10l-121 160h25z" />
    <glyph glyph-name="florin" unicode="&#x192;" horiz-adv-x="360" 
d="M206 510l27 120q15 71 56 110.5t101 39.5q27 0 47.5 -10t28.5 -20l7 -10l-1 -30q-3 6 -8.5 14t-26.5 22t-48 14q-52 0 -87.5 -34.5t-48.5 -95.5l-27 -120h170l-1 -20h-175l-118 -540q-16 -71 -56.5 -111.5t-101.5 -48.5l2 20q108 16 136 140l118 540h-95l1 20h100z" />
    <glyph glyph-name="Scommaaccent" unicode="&#x218;" horiz-adv-x="555" 
d="M379 745q34 0 63.5 -8t47.5 -20t31.5 -24t18.5 -20l6 -8l-9 -20q-2 3 -5.5 8.5t-17 19.5t-30 24.5t-45 19t-60.5 8.5q-93 0 -148.5 -48.5t-55.5 -118.5q0 -44 31.5 -80t77 -63t90.5 -54.5t76.5 -66.5t31.5 -87q0 -93 -70 -157.5t-181 -64.5q-41 0 -76 11t-56.5 26
t-37 30.5t-21.5 26.5l-6 11l14 20l5.5 -11t18.5 -25.5t33.5 -32t52.5 -25t73 -11.5q103 0 166.5 57.5t63.5 140.5q0 45 -31.5 82t-76.5 64l-90 54t-76.5 65.5t-31.5 85.5q0 80 61.5 135.5t162.5 55.5zM247 -102q0 -21 -20.5 -67.5t-60.5 -85.5h-10q50 50 66 125h-5
q-20 0 -20 20q0 13 9 21.5t22 8.5q19 0 19 -22z" />
    <glyph glyph-name="scommaaccent" unicode="&#x219;" horiz-adv-x="485" 
d="M298 505q-79 0 -125.5 -38.5t-46.5 -92.5q0 -34 29 -55t70 -32.5t82 -24t70 -40.5t29 -72q0 -68 -57.5 -116.5t-147.5 -48.5q-34 0 -64.5 8t-50 20t-34.5 24t-22 20l-6 8l10 25l6 -9t18.5 -20.5t32 -26t47 -20.5t63.5 -9q83 0 134 42.5t51 102.5q0 38 -29 62t-70 35.5
t-82.5 24t-70.5 37.5t-29 65q0 62 53.5 106.5t139.5 44.5q47 0 84 -17.5t51 -35.5l14 -17l-14 -20q-1 3 -4 7.5t-14.5 16.5t-25.5 21.5t-38.5 17t-52.5 7.5zM217 -102q0 -21 -20.5 -67.5t-60.5 -85.5h-10q50 50 66 125h-5q-20 0 -20 20q0 13 9 21.5t22 8.5q19 0 19 -22z" />
    <glyph glyph-name="uni021A" unicode="&#x21a;" horiz-adv-x="600" 
d="M666 710h-255l-151 -710h-20l151 710h-255l4 20h530zM257 -102q0 -21 -20.5 -67.5t-60.5 -85.5h-10q50 50 66 125h-5q-20 0 -20 20q0 13 9 21.5t22 8.5q19 0 19 -22z" />
    <glyph glyph-name="uni021B" unicode="&#x21b;" horiz-adv-x="410" 
d="M119 135l75 355h-100l4 20h100l29 135l22 10l-31 -145h170l-4 -20h-170l-75 -355q-6 -27 -6 -47q0 -83 83 -83q27 0 51.5 11t36.5 22l11 12h5l-4 -20q-4 -5 -12.5 -12.5t-35.5 -20t-56 -12.5q-47 0 -73 25.5t-26 74.5q0 23 6 50zM202 -102q0 -21 -20.5 -67.5t-60.5 -85.5
h-10q50 50 66 125h-5q-20 0 -20 20q0 13 9 21.5t22 8.5q19 0 19 -22z" />
    <glyph glyph-name="afii57929" unicode="&#x2bc;" horiz-adv-x="120" 
d="M200 758q0 -21 -20.5 -67.5t-60.5 -85.5h-10q50 50 66 125h-5q-20 0 -20 20q0 13 9 21.5t22 8.5q19 0 19 -22z" />
    <glyph glyph-name="circumflex" unicode="&#x2c6;" horiz-adv-x="380" 
d="M400 590l-104 138l-161 -138h-30l189 160h10l121 -160h-25z" />
    <glyph glyph-name="caron" unicode="&#x2c7;" horiz-adv-x="380" 
d="M164 750l104 -138l161 138h30l-189 -160h-10l-121 160h25z" />
    <glyph glyph-name="breve" unicode="&#x2d8;" horiz-adv-x="360" 
d="M272 650q-47 0 -82 15t-47 30l-12 15l6 30q1 -3 4 -7.5t14.5 -16.5t25.5 -21.5t38.5 -17t52.5 -7.5q44 0 85.5 17.5t60.5 34.5l19 18l-6 -30q-6 -7 -18 -17t-53 -26.5t-88 -16.5z" />
    <glyph glyph-name="dotaccent" unicode="&#x2d9;" horiz-adv-x="110" 
d="M128 700q0 13 9 21.5t22 8.5q21 0 21 -20q0 -13 -9 -21.5t-22 -8.5q-21 0 -21 20z" />
    <glyph glyph-name="ring" unicode="&#x2da;" horiz-adv-x="250" 
d="M318 701q0 -47 -33 -79t-81 -32q-36 0 -58.5 22.5t-22.5 56.5q0 47 33 79t80 32q36 0 59 -22.5t23 -56.5zM298 701q0 27 -16.5 43t-45.5 16q-39 0 -66 -26t-27 -65q0 -27 16.5 -43t44.5 -16q40 0 67 26t27 65z" />
    <glyph glyph-name="ogonek" unicode="&#x2db;" horiz-adv-x="210" 
d="M110 0h20q-7 -2 -17.5 -7t-38.5 -20.5t-49.5 -32.5t-39 -43.5t-17.5 -53.5q0 -53 58 -53q16 0 32 5t24 10l8 5l-4 -20q-25 -20 -60 -20q-36 0 -57 19t-21 54q0 45 40.5 84t81.5 56z" />
    <glyph glyph-name="tilde" unicode="&#x2dc;" horiz-adv-x="370" 
d="M210 705q-22 0 -45 -13.5t-35 -27.5l-12 -14l5 25q4 6 10.5 14t29.5 22t47 14q36 0 74 -30t67 -30q22 0 45 13.5t35 27.5l12 14l-5 -25q-4 -6 -10.5 -14t-29.5 -22t-47 -14q-36 0 -74 30t-67 30z" />
    <glyph glyph-name="hungarumlaut" unicode="&#x2dd;" horiz-adv-x="290" 
d="M105 590l99 160h25l-106 -160h-18zM215 590l124 160h30l-136 -160h-18z" />
    <glyph glyph-name="afii10023" unicode="&#x401;" horiz-adv-x="605" 
d="M168 365l-74 -345h405l-4 -20h-425l155 730h425l-4 -20h-405l-69 -325h330l-4 -20h-330zM337 880q0 13 9 21.5t22 8.5q21 0 21 -20q0 -13 -9 -21.5t-22 -8.5q-21 0 -21 20zM527 880q0 13 9 21.5t22 8.5q21 0 21 -20q0 -13 -9 -21.5t-22 -8.5q-21 0 -21 20z" />
    <glyph glyph-name="afii10051" unicode="&#x402;" horiz-adv-x="765" 
d="M590 710h-265l-71 -335q5 3 14 9t37 20.5t56.5 26t69 20.5t78.5 9q92 0 141.5 -43.5t49.5 -125.5q0 -68 -22.5 -127t-59 -98t-77.5 -63.5t-83 -32.5l-1 20q82 14 152.5 95.5t70.5 205.5q0 73 -43.5 111t-127.5 38q-60 0 -125 -22.5t-100 -45.5l-35 -22l-74 -350h-20
l150 710h-185l5 20h470z" />
    <glyph glyph-name="afii10052" unicode="&#x403;" horiz-adv-x="525" 
d="M412 810l124 160h30l-136 -160h-18zM225 730h380l-4 -20h-360l-151 -710h-20z" />
    <glyph glyph-name="afii10053" unicode="&#x404;" horiz-adv-x="780" 
d="M396 -15q-130 0 -214 89.5t-84 223.5q0 90 38.5 173.5t101.5 143t145 95t166 35.5q48 0 90.5 -12.5t69 -30t46.5 -35t29 -29.5l8 -13l-14 -20q-3 5 -8 13t-25 28.5t-44 36.5t-65 29t-87 13q-145 0 -268.5 -99.5t-154.5 -245.5h435l-4 -20h-434q-5 -33 -5 -62
q0 -127 78 -210t200 -83q46 0 92 12.5t78.5 30t58 35t38.5 29.5l13 13h5l-5 -25q-4 -5 -12.5 -12.5t-37 -27.5t-59 -35t-77 -27.5t-94.5 -12.5z" />
    <glyph glyph-name="afii10054" unicode="&#x405;" horiz-adv-x="555" 
d="M379 745q34 0 63.5 -8t47.5 -20t31.5 -24t18.5 -20l6 -8l-9 -20q-2 3 -5.5 8.5t-17 19.5t-30 24.5t-45 19t-60.5 8.5q-93 0 -148.5 -48.5t-55.5 -118.5q0 -44 31.5 -80t77 -63t90.5 -54.5t76.5 -66.5t31.5 -87q0 -93 -70 -157.5t-181 -64.5q-41 0 -76 11t-56.5 26
t-37 30.5t-21.5 26.5l-6 11l14 20l5.5 -11t18.5 -25.5t33.5 -32t52.5 -25t73 -11.5q103 0 166.5 57.5t63.5 140.5q0 45 -31.5 82t-76.5 64l-90 54t-76.5 65.5t-31.5 85.5q0 80 61.5 135.5t162.5 55.5z" />
    <glyph glyph-name="afii10055" unicode="&#x406;" horiz-adv-x="260" 
d="M70 0l155 730h20l-155 -730h-20z" />
    <glyph glyph-name="afii10056" unicode="&#x407;" horiz-adv-x="280" 
d="M80 0l155 730h20l-155 -730h-20zM157 880q0 13 9 21.5t22 8.5q21 0 21 -20q0 -13 -9 -21.5t-22 -8.5q-21 0 -21 20zM347 880q0 13 9 21.5t22 8.5q21 0 21 -20q0 -13 -9 -21.5t-22 -8.5q-21 0 -21 20z" />
    <glyph glyph-name="afii10057" unicode="&#x408;" horiz-adv-x="275" 
d="M260 730l-151 -710q-31 -150 -188 -180l-1 20q140 24 169 160l151 710h20z" />
    <glyph glyph-name="afii10058" unicode="&#x409;" horiz-adv-x="970" 
d="M624 0h-164l151 710h-297l-127 -420q-50 -166 -104.5 -234t-121.5 -76l-1 20q61 8 110.5 70.5t96.5 219.5l133 440h335l-61 -290h135q90 0 142 -49t52 -130q0 -111 -79 -186t-200 -75zM709 420h-140l-85 -400h140q113 0 185.5 68.5t72.5 172.5q0 73 -45.5 116t-127.5 43z
" />
    <glyph glyph-name="afii10059" unicode="&#x40a;" horiz-adv-x="1010" 
d="M940 250q0 -108 -74.5 -179t-191.5 -71h-174l85 400h-410l-85 -400h-20l155 730h20l-66 -310h410l66 310h20l-66 -310h146q86 0 135.5 -46.5t49.5 -123.5zM524 20h150q109 0 177.5 64.5t68.5 165.5q0 69 -43.5 109.5t-121.5 40.5h-150z" />
    <glyph glyph-name="afii10060" unicode="&#x40b;" horiz-adv-x="795" 
d="M591 710h-265l-71 -335q5 3 13.5 9t36.5 20.5t56.5 26t69 20.5t78.5 9q92 0 141.5 -43.5t49.5 -125.5q0 -32 -7 -66l-48 -225h-20l48 225q8 38 8 66q0 73 -44 111t-128 38q-60 0 -125 -22.5t-100 -45.5l-35 -22l-74 -350h-20l151 710h-185l4 20h470z" />
    <glyph glyph-name="afii10061" unicode="&#x40c;" horiz-adv-x="620" 
d="M560 0h-28l-361 380l-81 -380h-20l155 730h20l-74 -350l490 350h34l-494 -352zM432 810l124 160h30l-136 -160h-18z" />
    <glyph glyph-name="afii10062" unicode="&#x40e;" horiz-adv-x="645" 
d="M309 192l-174 538h20l167 -515h4l360 515h24l-413 -590q-63 -90 -102.5 -122.5t-87.5 -32.5q-13 0 -25 3.5t-17 7.5l-5 4l4 20q17 -15 47 -15q38 0 73 28.5t89 106.5zM434 820q-29 0 -54.5 6t-41 15t-26.5 18t-16 15l-4 6l6 30q1 -3 4.5 -7.5t15 -16.5t25.5 -21.5
t38.5 -17t52.5 -7.5q44 0 85 17.5t60 34.5l19 18l-6 -30l-6.5 -6.5t-19 -14.5t-31.5 -18t-44.5 -14.5t-56.5 -6.5z" />
    <glyph glyph-name="afii10145" unicode="&#x40f;" horiz-adv-x="760" 
d="M245 730l-151 -710h480l151 710h20l-155 -730h-250l-36 -170h-20l36 170h-250l155 730h20z" />
    <glyph glyph-name="afii10017" unicode="&#x410;" horiz-adv-x="745" 
d="M577 270l-102 425h-5l-284 -425h391zM583 250h-411l-168 -250h-24l490 730h15l180 -730h-20z" />
    <glyph glyph-name="afii10018" unicode="&#x411;" horiz-adv-x="630" 
d="M94 20h185q108 0 180 67t72 167q0 70 -45 113t-124 43h-185zM279 0h-209l155 730h385l-4 -20h-365l-60 -280h181q86 0 137.5 -49t51.5 -127q0 -108 -78 -181t-194 -73z" />
    <glyph glyph-name="afii10019" unicode="&#x412;" horiz-adv-x="630" 
d="M274 0h-204l155 730h176q89 0 137 -41t48 -108q0 -46 -17 -83t-41 -57t-48 -33.5t-41 -17.5l-17 -5l-1 -5q5 -1 13.5 -3.5t30 -14t38 -27t30 -44.5t13.5 -65q0 -95 -75.5 -160.5t-196.5 -65.5zM526 226q0 65 -46 104.5t-131 39.5h-180l-75 -350h180q113 0 182.5 59.5
t69.5 146.5zM401 710h-160l-68 -320h160q110 0 171.5 53.5t61.5 137.5q0 60 -41.5 94.5t-123.5 34.5z" />
    <glyph glyph-name="afii10020" unicode="&#x413;" horiz-adv-x="525" 
d="M225 730h380l-4 -20h-360l-151 -710h-20z" />
    <glyph glyph-name="afii10021" unicode="&#x414;" horiz-adv-x="725" 
d="M539 20h100l-40 -190h-20l36 170h-635l-36 -170h-20l40 190h70q4 5 10.5 14t25.5 39.5t36.5 65t39 89.5t36.5 112l103 390h405zM666 710h-365l-99 -370q-24 -91 -60 -171t-60 -115l-23 -34h460z" />
    <glyph glyph-name="afii10022" unicode="&#x415;" horiz-adv-x="605" 
d="M168 365l-74 -345h405l-4 -20h-425l155 730h425l-4 -20h-405l-69 -325h330l-4 -20h-330z" />
    <glyph glyph-name="afii10024" unicode="&#x416;" horiz-adv-x="880" 
d="M461 380l74 350h20l-74 -350l440 350h34l-445 -353l310 -377h-27l-312 380l-81 -380h-20l81 380l-468 -380h-33l472 382l-297 348h27z" />
    <glyph glyph-name="afii10025" unicode="&#x417;" horiz-adv-x="575" 
d="M379 725q-53 0 -104 -21.5t-75 -42.5l-24 -21h-5l4 20l9 9t26.5 20.5t42.5 26t56.5 20.5t69.5 9q77 0 121 -41t44 -109q0 -48 -16.5 -87t-40 -60.5t-47.5 -36.5t-40 -19l-17 -5l-1 -5q4 -1 11.5 -3.5t26.5 -14.5t33 -27.5t26 -44.5t12 -65q0 -103 -74.5 -172.5
t-190.5 -69.5q-41 0 -76 11.5t-56 27.5t-36.5 32t-21.5 28l-6 11l9 20q2 -4 5.5 -11.5t18.5 -26.5t34.5 -33.5t53.5 -26.5t75 -12q108 0 176 63t68 159q0 67 -43 107.5t-122 40.5h-75l4 20h75q96 0 155.5 56t59.5 144q0 60 -38 95t-107 35z" />
    <glyph glyph-name="afii10026" unicode="&#x418;" horiz-adv-x="780" 
d="M590 0l146 688l-651 -688h-15l155 730h20l-146 -688l651 688h15l-155 -730h-20z" />
    <glyph glyph-name="afii10027" unicode="&#x419;" horiz-adv-x="780" 
d="M509 820q-29 0 -54.5 6t-41 15t-26.5 18t-15 15l-5 6l6 30q1 -3 4.5 -7.5t15 -16.5t25.5 -21.5t38.5 -17t52.5 -7.5q44 0 85 17.5t60 34.5l19 18l-6 -30l-6.5 -6.5t-19 -14.5t-31.5 -18t-44.5 -14.5t-56.5 -6.5zM590 0l146 688l-651 -688h-15l155 730h20l-146 -688
l651 688h15l-155 -730h-20z" />
    <glyph glyph-name="afii10028" unicode="&#x41a;" horiz-adv-x="620" 
d="M560 0h-28l-361 380l-81 -380h-20l155 730h20l-74 -350l490 350h34l-494 -352z" />
    <glyph glyph-name="afii10029" unicode="&#x41b;" horiz-adv-x="710" 
d="M671 710h-357l-127 -420q-50 -166 -104.5 -234t-121.5 -76l-1 20q61 8 110.5 70.5t96.5 219.5l133 440h395l-155 -730h-20z" />
    <glyph glyph-name="afii10030" unicode="&#x41c;" horiz-adv-x="935" 
d="M430 0h-20l-100 689l-250 -689h-20l265 730h19l101 -702l399 702h21l-45 -730h-20l42 689z" />
    <glyph glyph-name="afii10031" unicode="&#x41d;" horiz-adv-x="760" 
d="M168 365l-78 -365h-20l155 730h20l-73 -345h480l73 345h20l-155 -730h-20l78 365h-480z" />
    <glyph glyph-name="afii10032" unicode="&#x41e;" horiz-adv-x="890" 
d="M98 298q0 90 38.5 173.5t101.5 143t145 95t166 35.5q130 0 214 -89.5t84 -223.5q0 -90 -38.5 -173.5t-101.5 -143t-145 -95t-166 -35.5q-130 0 -214 89.5t-84 223.5zM119 298q0 -127 77.5 -210t199.5 -83q80 0 158.5 34t138 90.5t96.5 136.5t37 166q0 127 -77.5 210
t-199.5 83q-80 0 -158.5 -34t-138 -90.5t-96.5 -136.5t-37 -166z" />
    <glyph glyph-name="afii10033" unicode="&#x41f;" horiz-adv-x="760" 
d="M241 710l-151 -710h-20l155 730h520l-155 -730h-20l151 710h-480z" />
    <glyph glyph-name="afii10034" unicode="&#x420;" horiz-adv-x="625" 
d="M156 310h180q113 0 185.5 68.5t72.5 172.5q0 73 -45.5 116t-127.5 43h-180zM225 730h196q90 0 141.5 -49t51.5 -130q0 -112 -78.5 -186.5t-199.5 -74.5h-184l-62 -290h-20z" />
    <glyph glyph-name="afii10035" unicode="&#x421;" horiz-adv-x="780" 
d="M396 -15q-130 0 -214 89.5t-84 223.5q0 90 38.5 173.5t101.5 143t145 95t166 35.5q48 0 90.5 -12.5t69 -30t46.5 -35t29 -29.5l8 -13l-14 -20q-3 5 -8 13t-25 28.5t-44 36.5t-65 29t-87 13q-108 0 -207 -56.5t-161.5 -156.5t-62.5 -214q0 -127 78 -210t200 -83
q46 0 92 12.5t78.5 30t58 35t38.5 29.5l13 13h5l-5 -25q-4 -5 -12.5 -12.5t-37 -27.5t-59 -35t-77 -27.5t-94.5 -12.5z" />
    <glyph glyph-name="afii10036" unicode="&#x422;" horiz-adv-x="600" 
d="M666 710h-255l-151 -710h-20l151 710h-255l4 20h530z" />
    <glyph glyph-name="afii10037" unicode="&#x423;" horiz-adv-x="645" 
d="M309 192l-174 538h20l167 -515h4l360 515h24l-413 -590q-63 -90 -102.5 -122.5t-87.5 -32.5q-13 0 -25 3.5t-17 7.5l-5 4l4 20q17 -15 47 -15q38 0 73 28.5t89 106.5z" />
    <glyph glyph-name="afii10038" unicode="&#x424;" horiz-adv-x="930" 
d="M589 770l-17 -80q149 -3 232.5 -76t83.5 -185q0 -147 -122.5 -251t-325.5 -108l-17 -80h-20l17 80q-149 3 -232.5 76t-83.5 185q0 147 122.5 251t325.5 108l17 80h20zM424 90l124 580q-192 -4 -308 -101.5t-116 -237.5q0 -105 78 -171.5t222 -69.5zM568 670l-124 -580
q192 4 307.5 101.5t115.5 237.5q0 105 -77.5 171.5t-221.5 69.5z" />
    <glyph glyph-name="afii10039" unicode="&#x425;" horiz-adv-x="670" 
d="M710 730l-333 -357l193 -373h-23l-185 360l-333 -360h-29l352 377l-182 353h23l174 -340l315 340h28z" />
    <glyph glyph-name="afii10040" unicode="&#x426;" horiz-adv-x="760" 
d="M574 20h100l-40 -190h-20l36 170h-580l155 730h20l-151 -710h460l151 710h20z" />
    <glyph glyph-name="afii10041" unicode="&#x427;" horiz-adv-x="720" 
d="M530 0l70 330q-5 -3 -13.5 -9t-36.5 -20.5t-56.5 -26t-69 -20.5t-78.5 -9q-92 0 -142 43.5t-50 124.5q0 29 8 67l53 250h20l-53 -250q-8 -38 -8 -66q0 -73 44 -111t128 -38q60 0 125 22.5t99 44.5l35 23l80 375h20l-155 -730h-20z" />
    <glyph glyph-name="afii10042" unicode="&#x428;" horiz-adv-x="1080" 
d="M655 730l-151 -710h390l151 710h20l-155 -730h-840l155 730h20l-151 -710h390l151 710h20z" />
    <glyph glyph-name="afii10043" unicode="&#x429;" horiz-adv-x="1100" 
d="M914 20h100l-40 -190h-20l36 170h-920l155 730h20l-151 -710h390l151 710h20l-151 -710h390l151 710h20z" />
    <glyph glyph-name="afii10044" unicode="&#x42a;" horiz-adv-x="685" 
d="M339 0h-189l151 710h-190l4 20h210l-61 -290h160q90 0 142 -49t52 -130q0 -112 -79 -186.5t-200 -74.5zM424 420h-165l-85 -400h165q113 0 185.5 68.5t72.5 172.5q0 73 -45.5 116t-127.5 43z" />
    <glyph glyph-name="afii10045" unicode="&#x42b;" horiz-adv-x="850" 
d="M660 0l155 730h20l-155 -730h-20zM344 420h-165l-85 -400h165q113 0 185.5 68.5t72.5 172.5q0 73 -45.5 116t-127.5 43zM259 0h-189l155 730h20l-61 -290h160q90 0 142 -49t52 -130q0 -112 -79 -186.5t-200 -74.5z" />
    <glyph glyph-name="afii10046" unicode="&#x42c;" horiz-adv-x="615" 
d="M354 420h-175l-85 -400h175q113 0 185.5 68.5t72.5 172.5q0 73 -45.5 116t-127.5 43zM269 0h-199l155 730h20l-61 -290h170q90 0 142 -49t52 -130q0 -112 -79 -186.5t-200 -74.5z" />
    <glyph glyph-name="afii10047" unicode="&#x42d;" horiz-adv-x="775" 
d="M281 -15q-49 0 -92.5 13t-71 31.5t-47.5 36.5t-28 31l-9 13l14 20q3 -5 8 -13.5t25.5 -30t45 -38t66 -30t89.5 -13.5q148 0 273 103t151 252h-434l4 20h434q3 18 3 52q0 127 -78 210t-200 83q-46 0 -92 -12.5t-78.5 -30t-58.5 -35t-39 -29.5l-13 -13h-5l6 25
q4 5 12.5 12.5t37 27.5t59 35t77 27.5t94.5 12.5q130 0 214 -89.5t84 -223.5q0 -90 -38.5 -173.5t-101.5 -143t-145 -95t-166 -35.5z" />
    <glyph glyph-name="afii10048" unicode="&#x42e;" horiz-adv-x="1060" 
d="M596 -15q-117 0 -193 85t-76 220q0 33 5 70h-165l-77 -360h-20l155 730h20l-74 -350h165q30 158 152 261.5t261 103.5q117 0 193 -85t76 -220q0 -95 -37 -181t-96 -145t-135 -94t-154 -35zM596 5q99 0 191 55.5t151.5 157t59.5 222.5q0 127 -69.5 206t-179.5 79
q-99 0 -191 -55.5t-151.5 -157t-59.5 -222.5q0 -127 69.5 -206t179.5 -79z" />
    <glyph glyph-name="afii10049" unicode="&#x42f;" horiz-adv-x="630" 
d="M416 730h199l-155 -730h-20l64 300h-172l-294 -300h-28l294 300q-73 7 -116.5 54t-43.5 122q0 108 78 181t194 73zM333 320h175l83 390h-175q-108 0 -180 -67t-72 -167q0 -70 45 -113t124 -43z" />
    <glyph glyph-name="afii10065" unicode="&#x430;" horiz-adv-x="608" 
d="M245 5q43 0 83.5 18.5t67.5 45t47.5 53t30.5 44.5l9 19l65 305h-160q-126 0 -213.5 -87t-87.5 -218q0 -81 44.5 -130.5t113.5 -49.5zM245 -15q-77 0 -127.5 56t-50.5 144q0 138 94 231.5t227 93.5h184l-108 -510h-15l22 125h-5q-3 -6 -9.5 -15.5t-28 -33.5t-45.5 -42.5
t-61.5 -33.5t-76.5 -15z" />
    <glyph glyph-name="afii10066" unicode="&#x431;" horiz-adv-x="625" 
d="M89 305q93 435 379 435q47 0 91 7.5t65 14.5l20 8l-5 -20q-66 -30 -171 -30q-256 0 -349 -367h5q3 5 9.5 14t29 32t48 40t67 31.5t86.5 14.5q87 0 142 -57.5t55 -146.5q0 -123 -88.5 -209.5t-206.5 -86.5q-87 0 -142 57.5t-55 146.5q0 25 20 116zM266 5q110 0 192.5 80
t82.5 196q0 82 -48.5 133t-128.5 51q-110 0 -192.5 -80t-82.5 -196q0 -82 48.5 -133t128.5 -51z" />
    <glyph glyph-name="afii10067" unicode="&#x432;" horiz-adv-x="535" 
d="M45 0l108 510h196q64 0 99.5 -30t35.5 -79t-27 -82.5t-53 -42.5l-27 -10l-1 -4q3 -1 9 -2.5t21 -8.5t26 -17.5t20.5 -30t9.5 -44.5q0 -70 -49.5 -114.5t-138.5 -44.5h-229zM442 159q0 43 -30 67t-89 24h-205l-49 -230h205q82 0 125 38t43 101zM349 490h-180l-47 -220h180
q76 0 119 36.5t43 94.5q0 41 -29 65t-86 24z" />
    <glyph glyph-name="afii10068" unicode="&#x433;" horiz-adv-x="450" 
d="M45 0l108 510h340l-4 -20h-320l-104 -490h-20z" />
    <glyph glyph-name="afii10069" unicode="&#x434;" horiz-adv-x="585" 
d="M494 490h-265l-66 -240q-13 -49 -31 -90.5t-33.5 -66t-29.5 -42.5t-22 -25l-8 -6h355zM-25 0l-32 -150h-20l36 170h55q3 2 9 7t22.5 24t32 42.5t34 65.5t31.5 91l70 260h305l-104 -490h90l-36 -170h-20l32 150h-505z" />
    <glyph glyph-name="afii10070" unicode="&#x435;" horiz-adv-x="610" 
d="M98 285h437q6 25 6 55q0 74 -45 119.5t-119 45.5q-91 0 -172.5 -63.5t-106.5 -156.5zM276 5q51 0 100.5 20t73.5 40l23 20h5l-6 -25q-3 -3 -9 -8t-25.5 -18t-41 -23t-54 -18t-66.5 -8q-91 0 -150 63t-59 159q0 130 95.5 224t214.5 94q81 0 132 -51.5t51 -134.5
q0 -20 -2 -38.5t-4 -26.5l-3 -9h-458q-6 -25 -6 -58q0 -89 52.5 -145.5t136.5 -56.5z" />
    <glyph glyph-name="afii10072" unicode="&#x436;" horiz-adv-x="690" 
d="M340 260l53 250h20l-53 -250l335 250h33l-340 -253l242 -257h-25l-245 260l-55 -260h-20l55 260l-347 -260h-33l350 262l-232 248h28z" />
    <glyph glyph-name="afii10073" unicode="&#x437;" horiz-adv-x="480" 
d="M371 155q0 47 -34 73.5t-103 26.5h-45l5 20h45q79 0 125.5 39t46.5 96q0 42 -31.5 68.5t-91.5 26.5q-42 0 -84.5 -17.5t-63.5 -35.5l-22 -17h-5l5 25q8 7 22.5 18t59 29t88.5 18q67 0 105 -32.5t38 -82.5q0 -32 -12 -58.5t-29.5 -41.5t-35 -25t-29.5 -13l-12 -4l-1 -5
q3 -1 8.5 -3t19.5 -10t24.5 -19t19 -31.5t8.5 -44.5q0 -75 -55 -122.5t-156 -47.5q-32 0 -61 7.5t-48 18.5t-33 22.5t-20 18.5l-6 8l10 25q2 -3 5.5 -8.5t17 -19.5t30 -24.5t45 -19t60.5 -8.5q94 0 142 41.5t48 108.5z" />
    <glyph glyph-name="afii10074" unicode="&#x438;" horiz-adv-x="610" 
d="M445 0l101 473l-486 -473h-15l108 510h20l-101 -473l486 473h15l-108 -510h-20z" />
    <glyph glyph-name="afii10075" unicode="&#x439;" horiz-adv-x="610" 
d="M389 640q-22 0 -42 4.5t-32.5 11t-22 13.5t-13.5 11l-4 5l6 30q1 -2 4 -6t12.5 -13.5t21 -16.5t30.5 -13t40 -6q33 0 66 14t49 28l17 13l-6 -30q-5 -5 -15 -12.5t-42.5 -20t-68.5 -12.5zM445 0l101 473l-486 -473h-15l108 510h20l-101 -473l486 473h15l-108 -510h-20z
" />
    <glyph glyph-name="afii10076" unicode="&#x43a;" horiz-adv-x="500" 
d="M173 510l-53 -250l382 250h36l-385 -252l287 -258h-30l-290 260l-55 -260h-20l108 510h20z" />
    <glyph glyph-name="afii10077" unicode="&#x43b;" horiz-adv-x="565" 
d="M504 490h-277l-85 -270q-37 -117 -82 -169.5t-102 -60.5l-1 20q51 8 90.5 54.5t74.5 155.5l92 290h314l-108 -510h-20z" />
    <glyph glyph-name="afii10078" unicode="&#x43c;" horiz-adv-x="750" 
d="M624 466l-289 -466h-20l-90 470l-180 -470h-20l193 510h20l92 -480l298 480h20l-23 -510h-20z" />
    <glyph glyph-name="afii10079" unicode="&#x43d;" horiz-adv-x="600" 
d="M435 0l53 250h-370l-53 -250h-20l108 510h20l-51 -240h370l51 240h20l-108 -510h-20z" />
    <glyph glyph-name="afii10080" unicode="&#x43e;" horiz-adv-x="650" 
d="M276 5q115 0 205 88t90 210q0 89 -52.5 145.5t-136.5 56.5q-115 0 -205 -88t-90 -210q0 -89 52.5 -145.5t136.5 -56.5zM67 207q0 130 96.5 224t218.5 94q91 0 150 -63t59 -159q0 -130 -96.5 -224t-218.5 -94q-91 0 -150 63t-59 159z" />
    <glyph glyph-name="afii10081" unicode="&#x43f;" horiz-adv-x="600" 
d="M435 0l104 490h-370l-104 -490h-20l108 510h410l-108 -510h-20z" />
    <glyph glyph-name="afii10082" unicode="&#x440;" horiz-adv-x="645" 
d="M285 5q109 0 195 87.5t86 215.5q0 88 -48.5 142.5t-125.5 54.5q-108 0 -194.5 -89t-86.5 -214q0 -88 49 -142.5t125 -54.5zM285 -15q-44 0 -79.5 16t-54.5 38.5t-31.5 45.5t-16.5 39l-4 16h-5l-76 -360h-20l155 730h15l-21 -124h5q3 6 10 15t30 33t48.5 42.5t67 33.5
t84.5 15q84 0 139 -60.5t55 -156.5q0 -135 -92 -229t-209 -94z" />
    <glyph glyph-name="afii10083" unicode="&#x441;" horiz-adv-x="570" 
d="M478 85l-6 -25q-3 -3 -9 -8t-25.5 -18t-41 -23t-54 -18t-66.5 -8q-91 0 -150 63t-59 159q0 130 96.5 224t218.5 94q35 0 66 -8t50.5 -20t34 -24t20.5 -20l6 -8l-14 -20q-2 3 -6 8.5t-18.5 19.5t-31.5 24.5t-46 19t-61 8.5q-115 0 -205 -88t-90 -210q0 -89 52.5 -145.5
t136.5 -56.5q51 0 100.5 20t73.5 40l23 20h5z" />
    <glyph glyph-name="afii10084" unicode="&#x442;" horiz-adv-x="460" 
d="M274 490h-200l4 20h420l-4 -20h-200l-104 -490h-20z" />
    <glyph glyph-name="afii10085" unicode="&#x443;" horiz-adv-x="535" 
d="M211 5l-128 505h21l120 -474h5l295 474h24l-373 -600q-52 -83 -89.5 -114t-85.5 -31q-11 0 -20.5 2.5t-13.5 4.5l-4 2l-1 21q13 -10 43 -10q37 0 68.5 27t77.5 98z" />
    <glyph glyph-name="afii10086" unicode="&#x444;" horiz-adv-x="730" 
d="M487 760l-50 -235q108 -7 171 -68.5t63 -155.5q0 -129 -97 -218t-252 -98l-43 -205h-20l43 205q-108 7 -171 68.5t-63 154.5q0 130 97 219t252 98l50 235h20zM306 5l107 500q-145 -9 -235 -92t-90 -204q0 -87 57.5 -142t160.5 -62zM433 505l-107 -500q145 9 235 92
t90 204q0 87 -57.5 142t-160.5 62z" />
    <glyph glyph-name="afii10087" unicode="&#x445;" horiz-adv-x="530" 
d="M543 510l-261 -250l163 -260h-24l-153 245l-254 -245h-29l273 261l-155 249h24l145 -234l242 234h29z" />
    <glyph glyph-name="afii10088" unicode="&#x446;" horiz-adv-x="620" 
d="M483 -150l32 150h-470l108 510h20l-104 -490h360l104 490h20l-104 -490h90l-36 -170h-20z" />
    <glyph glyph-name="afii10089" unicode="&#x447;" horiz-adv-x="570" 
d="M144 510h20l-31 -145q-8 -38 -7 -61q0 -114 139 -114q49 0 97 15t72 30l24 15l55 260h20l-108 -510h-20l48 225q-9 -6 -25 -15t-65 -24.5t-98 -15.5q-159 0 -159 134q0 30 7 61z" />
    <glyph glyph-name="afii10090" unicode="&#x448;" horiz-adv-x="860" 
d="M173 510l-104 -490h305l104 490h20l-104 -490h305l104 490h20l-108 -510h-670l108 510h20z" />
    <glyph glyph-name="afii10091" unicode="&#x449;" horiz-adv-x="890" 
d="M699 20l104 490h20l-104 -490h90l-36 -170h-20l32 150h-740l108 510h20l-104 -490h305l104 490h20l-104 -490h305z" />
    <glyph glyph-name="afii10092" unicode="&#x44a;" horiz-adv-x="570" 
d="M206 310h155q70 0 108 -33.5t38 -90.5q0 -83 -53.5 -134.5t-149.5 -51.5h-184l104 490h-160l4 20h180zM361 290h-160l-57 -270h160q88 0 135.5 45t47.5 121q0 50 -31.5 77t-94.5 27z" />
    <glyph glyph-name="afii10093" unicode="&#x44b;" horiz-adv-x="690" 
d="M525 0l108 510h20l-108 -510h-20zM131 310h156q69 0 107 -33.5t38 -90.5q0 -83 -53.5 -134.5t-149.5 -51.5h-184l108 510h20zM287 290h-160l-58 -270h160q88 0 135.5 45t47.5 121q0 50 -31.5 77t-93.5 27z" />
    <glyph glyph-name="afii10094" unicode="&#x44c;" horiz-adv-x="505" 
d="M131 310h165q70 0 108 -33.5t38 -90.5q0 -83 -53.5 -134.5t-149.5 -51.5h-194l108 510h20zM296 290h-169l-58 -270h170q88 0 135.5 45t47.5 121q0 50 -31.5 77t-94.5 27z" />
    <glyph glyph-name="afii10095" unicode="&#x44d;" horiz-adv-x="570" 
d="M15 70l14 20l6 -9t18.5 -20.5t32 -26t47 -20.5t63.5 -9q102 0 186 70.5t104 174.5h-283l5 20h281q2 24 2 33q0 89 -52.5 145.5t-136.5 56.5q-51 0 -100.5 -20t-73.5 -40l-23 -20h-5l6 25q3 3 9 8t25.5 18t41 23t54 18t66.5 8q91 0 150 -63t59 -159q0 -130 -96.5 -224
t-218.5 -94q-58 0 -103 21.5t-61 42.5z" />
    <glyph glyph-name="afii10096" unicode="&#x44e;" horiz-adv-x="810" 
d="M752 308q0 -136 -92.5 -229.5t-213.5 -93.5q-87 0 -143.5 60.5t-56.5 156.5q0 27 4 48h-132l-53 -250h-20l108 510h20l-51 -240h131q22 111 108.5 183t190.5 72q87 0 143.5 -60.5t56.5 -156.5zM446 5q113 0 199 87t86 216q0 88 -49.5 142.5t-129.5 54.5q-113 0 -199 -87
t-86 -216q0 -88 49.5 -142.5t129.5 -54.5z" />
    <glyph glyph-name="afii10097" unicode="&#x44f;" horiz-adv-x="535" 
d="M413 200h-176l-217 -200h-30l218 200l1 5q-5 0 -12.5 0.5t-27 7t-34.5 17.5t-27 35.5t-12 58.5q0 83 53.5 134.5t149.5 51.5h199l-108 -510h-20zM116 324q0 -50 31.5 -77t94.5 -27h175l57 270h-175q-88 0 -135.5 -45t-47.5 -121z" />
    <glyph glyph-name="afii10071" unicode="&#x451;" horiz-adv-x="610" 
d="M98 285h437q6 25 6 55q0 74 -45 119.5t-119 45.5q-91 0 -172.5 -63.5t-106.5 -156.5zM276 5q51 0 100.5 20t73.5 40l23 20h5l-6 -25q-3 -3 -9 -8t-25.5 -18t-41 -23t-54 -18t-66.5 -8q-91 0 -150 63t-59 159q0 130 95.5 224t214.5 94q81 0 132 -51.5t51 -134.5
q0 -20 -2 -38.5t-4 -26.5l-3 -9h-458q-6 -25 -6 -58q0 -89 52.5 -145.5t136.5 -56.5zM274 680q0 13 9 21.5t22 8.5q21 0 21 -20q0 -13 -9 -21.5t-22 -8.5q-21 0 -21 20zM464 680q0 13 9 21.5t22 8.5q21 0 21 -20q0 -13 -9 -21.5t-22 -8.5q-21 0 -21 20z" />
    <glyph glyph-name="afii10099" unicode="&#x452;" horiz-adv-x="640" 
d="M104 630l4 20h105l24 110h20l-24 -110h200l-4 -20h-200l-64 -296h5q4 6 10.5 16.5t30 36.5t48.5 45.5t64.5 36t80.5 16.5q71 0 115 -43.5t44 -116.5q0 -27 -6 -55l-68 -320q-30 -144 -154 -160v20q108 16 134 140l68 320q6 28 6 54q0 66 -37.5 103.5t-101.5 37.5
q-86 0 -163 -72t-102 -188l-44 -205h-20l134 630h-105z" />
    <glyph glyph-name="afii10100" unicode="&#x453;" horiz-adv-x="450" 
d="M324 610l124 160h30l-136 -160h-18zM45 0l108 510h340l-4 -20h-320l-104 -490h-20z" />
    <glyph glyph-name="afii10101" unicode="&#x454;" horiz-adv-x="575" 
d="M478 85l-6 -25q-3 -3 -9 -8t-25.5 -18t-41 -23t-54 -18t-66.5 -8q-91 0 -150 63t-59 159q0 130 96.5 224t218.5 94q35 0 66 -8t50.5 -20t34 -24t20.5 -20l6 -8l-14 -20q-2 3 -6 8.5t-18.5 19.5t-31.5 24.5t-46 19t-61 8.5q-101 0 -186 -70.5t-104 -174.5h283l-4 -20h-282
q-2 -11 -2 -33q0 -89 52.5 -145.5t136.5 -56.5q51 0 100.5 20t73.5 40l23 20h5z" />
    <glyph glyph-name="afii10102" unicode="&#x455;" horiz-adv-x="485" 
d="M298 505q-79 0 -125.5 -38.5t-46.5 -92.5q0 -34 29 -55t70 -32.5t82 -24t70 -40.5t29 -72q0 -68 -57.5 -116.5t-147.5 -48.5q-34 0 -64.5 8t-50 20t-34.5 24t-22 20l-6 8l10 25l6 -9t18.5 -20.5t32 -26t47 -20.5t63.5 -9q83 0 134 42.5t51 102.5q0 38 -29 62t-70 35.5
t-82.5 24t-70.5 37.5t-29 65q0 62 53.5 106.5t139.5 44.5q47 0 84 -17.5t51 -35.5l14 -17l-14 -20q-1 3 -4 7.5t-14.5 16.5t-25.5 21.5t-38.5 17t-52.5 7.5z" />
    <glyph glyph-name="afii10103" unicode="&#x456;" horiz-adv-x="230" 
d="M183 510l-108 -510h-20l108 510h20zM188 700q0 13 9 21.5t22 8.5q21 0 21 -20q0 -13 -9 -21.5t-22 -8.5q-21 0 -21 20z" />
    <glyph glyph-name="afii10104" unicode="&#x457;" horiz-adv-x="240" 
d="M188 510l-108 -510h-20l108 510h20zM94 680q0 13 9 21.5t22 8.5q21 0 21 -20q0 -13 -9 -21.5t-22 -8.5q-21 0 -21 20zM284 680q0 13 9 21.5t22 8.5q21 0 21 -20q0 -13 -9 -21.5t-22 -8.5q-21 0 -21 20z" />
    <glyph glyph-name="afii10105" unicode="&#x458;" horiz-adv-x="230" 
d="M183 510l-119 -560q-30 -144 -153 -160l-1 20q108 16 134 140l119 560h20zM188 700q0 13 9 21.5t22 8.5q21 0 21 -20q0 -13 -9 -21.5t-22 -8.5q-21 0 -21 20z" />
    <glyph glyph-name="afii10106" unicode="&#x459;" horiz-adv-x="810" 
d="M466 310h136q69 0 107 -33.5t38 -90.5q0 -83 -53.5 -134.5t-149.5 -51.5h-164l104 490h-257l-85 -270q-37 -117 -82 -169.5t-102 -60.5l-1 20q51 8 90.5 54.5t74.5 155.5l92 290h294zM602 290h-140l-58 -270h140q88 0 135.5 45t47.5 121q0 50 -31.5 77t-93.5 27z" />
    <glyph glyph-name="afii10107" unicode="&#x45a;" horiz-adv-x="830" 
d="M424 20h145q91 0 134 43t43 119q0 98 -121 98h-145zM569 0h-169l60 280h-335l-60 -280h-20l108 510h20l-44 -210h335l44 210h20l-44 -210h141q69 0 105.5 -31t36.5 -87q0 -84 -49.5 -133t-148.5 -49z" />
    <glyph glyph-name="afii10108" unicode="&#x45b;" horiz-adv-x="640" 
d="M104 630l4 20h105l24 110h20l-24 -110h200l-4 -20h-200l-64 -296h5q4 6 10.5 16.5t30 36.5t48.5 45.5t64.5 36t80.5 16.5q71 0 115 -43.5t44 -116.5q0 -27 -6 -55l-57 -270h-20l57 270q6 29 6 53q0 66 -37.5 104t-101.5 38q-86 0 -163 -72t-102 -188l-44 -205h-20
l134 630h-105z" />
    <glyph glyph-name="afii10109" unicode="&#x45c;" horiz-adv-x="500" 
d="M173 510l-53 -250l382 250h36l-385 -252l287 -258h-30l-290 260l-55 -260h-20l108 510h20zM319 610l124 160h30l-136 -160h-18z" />
    <glyph glyph-name="afii10110" unicode="&#x45e;" horiz-adv-x="535" 
d="M211 5l-128 505h21l120 -474h5l295 474h24l-373 -600q-52 -83 -89.5 -114t-85.5 -31q-11 0 -20.5 2.5t-13.5 4.5l-4 2l-1 21q13 -10 43 -10q37 0 68.5 27t77.5 98zM334 630q-22 0 -42 4.5t-32.5 11t-22 13.5t-13.5 11l-4 5l6 30q1 -2 4 -6t12.5 -13.5t21 -16.5t30.5 -13
t40 -6q33 0 66 14t50 28l16 13l-6 -30q-5 -5 -15 -12.5t-42.5 -20t-68.5 -12.5z" />
    <glyph glyph-name="afii10193" unicode="&#x45f;" horiz-adv-x="600" 
d="M439 20l104 490h20l-108 -510h-195l-32 -150h-20l32 150h-195l108 510h20l-104 -490h370z" />
    <glyph glyph-name="afii10050" unicode="&#x490;" horiz-adv-x="525" 
d="M225 730h360l32 150h20l-36 -170h-360l-151 -710h-20z" />
    <glyph glyph-name="afii10098" unicode="&#x491;" horiz-adv-x="450" 
d="M45 0l108 510h320l28 130h20l-32 -150h-320l-104 -490h-20z" />
    <glyph glyph-name="uni1E9E" unicode="&#x1e9e;" horiz-adv-x="690" 
d="M625 594q-1 5 -4 14t-16.5 31.5t-31.5 40t-52.5 31.5t-76.5 14q-92 0 -164.5 -64t-95.5 -171l-104 -490h-20l104 490q24 115 102.5 185t177.5 70q48 0 86 -16t58.5 -38.5t34.5 -45.5t18 -39l4 -16l-176 -190q6 -2 17 -6.5t38.5 -21t48.5 -36.5t38 -54.5t17 -73.5
q0 -94 -70 -158.5t-177 -64.5q-31 0 -59 8t-46 20t-31.5 24t-19.5 20l-6 8l9 20q2 -3 6 -8.5t18 -19.5t30 -24.5t43 -19t56 -8.5q100 0 163 58.5t63 144.5q0 37 -17 69.5t-41 52.5t-48 34t-41 20l-17 6l2 10z" />
    <glyph glyph-name="endash" unicode="&#x2013;" horiz-adv-x="560" 
d="M77 315l4 20h440l-4 -20h-440z" />
    <glyph glyph-name="emdash" unicode="&#x2014;" horiz-adv-x="920" 
d="M77 315l4 20h800l-4 -20h-800z" />
    <glyph glyph-name="quoteleft" unicode="&#x2018;" horiz-adv-x="210" 
d="M161 617q0 24 22 72t60 81h10q-50 -50 -67 -125h5q21 0 21 -20q0 -13 -9 -21.5t-22 -8.5q-20 0 -20 22z" />
    <glyph glyph-name="quoteright" unicode="&#x2019;" horiz-adv-x="210" 
d="M238 748q0 -24 -22 -72t-60 -81h-10q50 50 67 125h-5q-21 0 -21 20q0 13 9 21.5t22 8.5q20 0 20 -22z" />
    <glyph glyph-name="quotesinglbase" unicode="&#x201a;" horiz-adv-x="210" 
d="M84 23q0 -24 -22 -72t-60 -81h-10q50 50 67 125h-5q-21 0 -21 20q0 13 9 21.5t22 8.5q20 0 20 -22z" />
    <glyph glyph-name="quotedblleft" unicode="&#x201c;" horiz-adv-x="350" 
d="M301 617q0 24 22 72t60 81h10q-50 -50 -67 -125h5q21 0 21 -20q0 -13 -9 -21.5t-22 -8.5q-20 0 -20 22zM161 617q0 24 22 72t60 81h10q-50 -50 -67 -125h5q21 0 21 -20q0 -13 -9 -21.5t-22 -8.5q-20 0 -20 22z" />
    <glyph glyph-name="quotedblright" unicode="&#x201d;" horiz-adv-x="350" 
d="M238 748q0 -24 -22 -72t-60 -81h-10q50 50 67 125h-5q-21 0 -21 20q0 13 9 21.5t22 8.5q20 0 20 -22zM378 748q0 -24 -22 -72t-60 -81h-10q50 50 67 125h-5q-21 0 -21 20q0 13 9 21.5t22 8.5q20 0 20 -22z" />
    <glyph glyph-name="quotedblbase" unicode="&#x201e;" horiz-adv-x="350" 
d="M84 23q0 -24 -22 -72t-60 -81h-10q50 50 67 125h-5q-21 0 -21 20q0 13 9 21.5t22 8.5q20 0 20 -22zM224 23q0 -24 -22 -72t-60 -81h-10q50 50 67 125h-5q-21 0 -21 20q0 13 9 21.5t22 8.5q20 0 20 -22z" />
    <glyph glyph-name="dagger" unicode="&#x2020;" horiz-adv-x="470" 
d="M268 365l-19 -115l-96 -450h-20l96 450l29 115l-4 5l-106 -5h-50l4 20h50l104 -5l6 5l20 115l29 140h20l-29 -140l-30 -115l4 -5l106 5h50l-4 -20h-50l-104 5z" />
    <glyph glyph-name="daggerdbl" unicode="&#x2021;" horiz-adv-x="470" 
d="M239 300l29 115l-4 5l-106 -5h-50l4 20h50l104 -5l6 5l20 115l19 90h20l-19 -90l-30 -115l4 -5l106 5h50l-4 -20h-50l-104 5l-6 -5l-19 -115l-34 -160l-30 -115l4 -5l106 5h50l-4 -20h-50l-104 5l-6 -5l-19 -115l-20 -90h-20l20 90l29 115l-4 5l-106 -5h-50l4 20h50
l104 -5l6 5l20 115z" />
    <glyph glyph-name="bullet" unicode="&#x2022;" horiz-adv-x="340" 
d="M244 350q0 -22 -14 -36t-36 -14t-36 14t-14 36t14 36t36 14t36 -14t14 -36z" />
    <glyph glyph-name="ellipsis" unicode="&#x2026;" horiz-adv-x="600" 
d="M85 25q0 -13 -9 -21.5t-22 -8.5q-20 0 -20 20q0 13 9 21.5t22 8.5q20 0 20 -20zM280 25q0 -13 -9 -21.5t-22 -8.5q-20 0 -20 20q0 13 9 21.5t22 8.5q20 0 20 -20zM475 25q0 -13 -9 -21.5t-22 -8.5q-20 0 -20 20q0 13 9 21.5t22 8.5q20 0 20 -20z" />
    <glyph glyph-name="perthousand" unicode="&#x2030;" horiz-adv-x="1180" 
d="M440 622q0 -75 -54.5 -126t-130.5 -51q-55 0 -88.5 35t-33.5 88q0 75 54.5 126t130.5 51q55 0 88.5 -35t33.5 -88zM420 620q0 46 -29 75.5t-77 29.5q-65 0 -113 -45t-48 -110q0 -46 29 -75.5t77 -29.5q65 0 113 45t48 110zM740 730h25l-630 -730h-25zM732 162
q0 -75 -54.5 -126t-130.5 -51q-55 0 -88.5 35t-33.5 88q0 75 54.5 126t130.5 51q55 0 88.5 -35t33.5 -88zM712 160q0 46 -29 75.5t-77 29.5q-65 0 -113 -45t-48 -110q0 -46 29 -75.5t77 -29.5q65 0 113 45t48 110zM1102 162q0 -75 -54.5 -126t-130.5 -51q-55 0 -88.5 35
t-33.5 88q0 75 54.5 126t130.5 51q55 0 88.5 -35t33.5 -88zM1082 160q0 46 -29 75.5t-77 29.5q-65 0 -113 -45t-48 -110q0 -46 29 -75.5t77 -29.5q65 0 113 45t48 110z" />
    <glyph glyph-name="guilsinglleft" unicode="&#x2039;" horiz-adv-x="355" 
d="M341 500l-241 -228l145 -222h-25l-143 220l2 10l234 220h28z" />
    <glyph glyph-name="guilsinglright" unicode="&#x203a;" horiz-adv-x="355" 
d="M30 50l241 228l-145 222h25l143 -220l-2 -10l-234 -220h-28z" />
    <glyph glyph-name="fraction" unicode="&#x2044;" horiz-adv-x="120" 
d="M-240 0l630 730h25l-630 -730h-25z" />
    <glyph glyph-name="zerosuperior" unicode="&#x2070;" horiz-adv-x="340" 
d="M148 569q0 -89 73 -89q59 0 102 72.5t43 178.5q0 89 -73 89q-59 0 -102 -72.5t-43 -178.5zM386 731q0 -113 -49.5 -192t-115.5 -79q-44 0 -68.5 27.5t-24.5 81.5q0 115 49 193t116 78q44 0 68.5 -27.5t24.5 -81.5z" />
    <glyph glyph-name="foursuperior" unicode="&#x2074;" horiz-adv-x="285" 
d="M273 830h23l-189 -245h152l23 105h20l-23 -105h50l-4 -20h-50l-20 -95h-20l20 95h-185l1 5z" />
    <glyph glyph-name="fivesuperior" unicode="&#x2075;" horiz-adv-x="320" 
d="M206 460q-33 0 -59.5 15t-36.5 30l-10 15l13 15l3 -6t9.5 -13.5t17.5 -16.5t26.5 -13t36.5 -6q54 0 86.5 32t32.5 85q0 35 -20.5 54t-57.5 19q-24 0 -46 -8.5t-32 -17.5l-10 -9l-13 11l70 184h170l-4 -20h-155l-56 -145q26 25 76 25q45 0 71.5 -25.5t26.5 -67.5
q0 -60 -39 -98.5t-100 -38.5z" />
    <glyph glyph-name="sixsuperior" unicode="&#x2076;" horiz-adv-x="335" 
d="M119 555q0 63 59 142.5t143 132.5h25q-5 -3 -13 -8.5t-31 -23t-43 -36t-44 -47t-40 -56.5q32 31 87 31q46 0 74.5 -26t28.5 -69q0 -59 -41 -97t-102 -38q-46 0 -74.5 26t-28.5 69zM262 670q-53 0 -88 -31.5t-35 -83.5q0 -35 22 -55t61 -20q53 0 88 31.5t35 83.5
q0 35 -22.5 55t-60.5 20z" />
    <glyph glyph-name="sevensuperior" unicode="&#x2077;" horiz-adv-x="285" 
d="M166 810l5 20h215l-2 -5l-217 -355h-23l209 340h-187z" />
    <glyph glyph-name="eightsuperior" unicode="&#x2078;" horiz-adv-x="350" 
d="M226 480q55 0 90 28.5t35 71.5q0 31 -23.5 50.5t-65.5 19.5q-55 0 -90 -28.5t-35 -71.5q0 -31 23.5 -50.5t65.5 -19.5zM267 670q47 0 77 25t30 64q0 28 -20 44.5t-55 16.5q-47 0 -77.5 -25t-30.5 -64q0 -27 20.5 -44t55.5 -17zM226 460q-49 0 -79 25.5t-30 64.5
t24.5 66.5t48.5 35.5l25 8q-5 2 -12.5 6.5t-20 23t-12.5 41.5q0 47 36.5 78t92.5 31q43 0 69.5 -23t26.5 -58q0 -34 -20 -59t-40 -32l-20 -8q2 -1 6 -2.5t14 -8t17.5 -15t13.5 -23t6 -31.5q0 -51 -41.5 -85.5t-104.5 -34.5z" />
    <glyph glyph-name="ninesuperior" unicode="&#x2079;" horiz-adv-x="335" 
d="M392 745q0 -63 -59 -142.5t-143 -132.5h-25q5 3 13 8.5t31 23t43 36t44 47t40 56.5q-32 -31 -87 -31q-46 0 -74.5 26t-28.5 69q0 59 41 97t102 38q46 0 74.5 -26t28.5 -69zM249 630q53 0 88 31.5t35 83.5q0 35 -22 55t-61 20q-53 0 -88 -31.5t-35 -83.5q0 -35 22.5 -55
t60.5 -20z" />
    <glyph glyph-name="zeroinferior" unicode="&#x2080;" horiz-adv-x="340" 
d="M28 -1q0 -89 73 -89q59 0 102 72.5t43 178.5q0 89 -73 89q-59 0 -102 -72.5t-43 -178.5zM266 161q0 -113 -49.5 -192t-115.5 -79q-44 0 -68.5 27.5t-24.5 81.5q0 115 49 193t116 78q44 0 68.5 -27.5t24.5 -81.5z" />
    <glyph glyph-name="oneinferior" unicode="&#x2081;" horiz-adv-x="245" 
d="M35 190l5 25l90 45h10l-77 -360h-20l71 330z" />
    <glyph glyph-name="twoinferior" unicode="&#x2082;" horiz-adv-x="320" 
d="M229 195q0 55 -62 55q-20 0 -39.5 -6.5t-34 -16t-26 -19.5t-17.5 -16l-6 -7h-5l4 20q5 7 14.5 18t41.5 29t68 18q39 0 61 -21t22 -54q0 -64 -64 -120l-174 -155h195l-4 -20h-235l1 5l199 180q61 56 61 110z" />
    <glyph glyph-name="threeinferior" unicode="&#x2083;" horiz-adv-x="320" 
d="M61 75l-12 15l172 150h-160l4 20h200l-1 -5l-160 -142q10 2 25 2q44 0 69.5 -25t25.5 -66q0 -58 -38.5 -96t-99.5 -38q-33 0 -60.5 12.5t-37.5 25.5l-11 12l13 15q3 -5 9 -12.5t31 -20t56 -12.5q53 0 85 31.5t32 82.5q0 33 -20 52t-58 19q-18 0 -34 -5t-23 -10z" />
    <glyph glyph-name="fourinferior" unicode="&#x2084;" horiz-adv-x="285" 
d="M152 260h23l-189 -245h152l23 105h20l-23 -105h50l-4 -20h-50l-20 -95h-20l20 95h-185l1 5z" />
    <glyph glyph-name="fiveinferior" unicode="&#x2085;" horiz-adv-x="320" 
d="M85 -110q-33 0 -59.5 15t-36.5 30l-10 15l13 15l3 -6t9.5 -13.5t17.5 -16.5t26.5 -13t36.5 -6q54 0 86.5 32t32.5 85q0 35 -20.5 54t-57.5 19q-24 0 -46 -9t-32 -17l-10 -9l-13 11l70 184h170l-4 -20h-155l-56 -145q26 25 76 25q45 0 71.5 -25.5t26.5 -67.5
q0 -60 -39 -98.5t-100 -38.5z" />
    <glyph glyph-name="sixinferior" unicode="&#x2086;" horiz-adv-x="335" 
d="M-2 -15q0 63 59 142.5t143 132.5h25q-5 -3 -13 -8.5t-31 -23t-43 -36t-44 -47t-40 -56.5q32 31 87 31q46 0 74.5 -26t28.5 -69q0 -59 -41 -97t-102 -38q-46 0 -74.5 26t-28.5 69zM141 100q-53 0 -88 -31.5t-35 -83.5q0 -35 22 -55t61 -20q53 0 88 31.5t35 83.5
q0 35 -22.5 55t-60.5 20z" />
    <glyph glyph-name="seveninferior" unicode="&#x2087;" horiz-adv-x="285" 
d="M45 240l5 20h215l-2 -5l-217 -355h-23l209 340h-187z" />
    <glyph glyph-name="eightinferior" unicode="&#x2088;" horiz-adv-x="350" 
d="M105 -90q55 0 90 28.5t35 71.5q0 31 -23.5 50.5t-65.5 19.5q-55 0 -90 -28.5t-35 -71.5q0 -31 23.5 -50.5t65.5 -19.5zM146 100q47 0 77 25t30 64q0 28 -20 44.5t-55 16.5q-47 0 -77.5 -25t-30.5 -64q0 -27 20.5 -44t55.5 -17zM105 -110q-49 0 -79 25.5t-30 64.5
t24.5 66.5t49.5 35.5l24 8q-5 2 -12.5 6.5t-20 23t-12.5 41.5q0 47 36.5 78t92.5 31q43 0 69.5 -23t26.5 -58q0 -34 -20 -59t-40 -32l-20 -8q2 -1 6 -2.5t14 -8t17.5 -15t13.5 -23t6 -31.5q0 -51 -41.5 -85.5t-104.5 -34.5z" />
    <glyph glyph-name="nineinferior" unicode="&#x2089;" horiz-adv-x="335" 
d="M270 175q0 -63 -59 -142.5t-143 -132.5h-25q5 3 13 8.5t31 23t43 36t44 47t40 56.5q-32 -31 -87 -31q-46 0 -74.5 26t-28.5 69q0 59 41 97t102 38q46 0 74.5 -26t28.5 -69zM127 60q53 0 88 31.5t35 83.5q0 35 -22 55t-61 20q-53 0 -88 -31.5t-35 -83.5q0 -35 22.5 -55
t60.5 -20z" />
    <glyph glyph-name="Euro" unicode="&#x20ac;" horiz-adv-x="810" 
d="M427 -15q-132 0 -217 85.5t-81 219.5h-67l4 20h63q0 50 19 110h-58l4 20h60q53 136 171.5 220.5t254.5 84.5q48 0 90.5 -12.5t69 -30t46.5 -35t28 -29.5l9 -13l-14 -20q-3 5 -8 13t-25 28.5t-44 36.5t-65 29t-87 13q-130 0 -242 -79.5t-163 -205.5h434l-9 -20h-432
q-19 -60 -19 -110h392l-9 -20h-383q-2 -124 76.5 -204.5t201.5 -80.5q46 0 92 12.5t78.5 30t58 35t38.5 29.5l13 13h5l-5 -25q-4 -5 -12.5 -12.5t-37 -27.5t-59 -35t-77 -27.5t-94.5 -12.5z" />
    <glyph glyph-name="uni20B4" unicode="&#x20b4;" horiz-adv-x="590" 
d="M82 290l4 20h122l197 110h-295l4 20h315q4 2 11 7t25 21.5t31.5 34.5t24.5 46.5t11 58.5q0 53 -37 85t-106 32q-47 0 -90.5 -18.5t-64.5 -37.5l-20 -19h-5l4 20q7 8 21 20.5t60 33.5t95 21q77 0 120.5 -38t43.5 -99q0 -30 -9.5 -58.5t-23.5 -47.5t-28 -33.5t-24 -21.5
l-9 -7h105l-4 -20h-122l-197 -110h295l-4 -20h-315q-4 -2 -11 -7t-25 -21.5t-32 -34.5t-25 -46.5t-11 -58.5q0 -53 37 -85t106 -32q29 0 58 7.5t49.5 18.5t36.5 22.5t24 18.5l8 8h5l-4 -20l-8 -8t-22.5 -18t-36.5 -23t-49 -18t-61 -8q-76 0 -119.5 38t-43.5 99
q0 30 9.5 58.5t23.5 47.5t28 33.5t24 21.5l9 7h-105z" />
    <glyph glyph-name="uni20BD" unicode="&#x20bd;" horiz-adv-x="610" 
d="M586 560q0 69 -43.5 109.5t-121.5 40.5h-160l-81 -380h160q109 0 177.5 64.5t68.5 165.5zM606 560q0 -108 -74.5 -179t-191.5 -71h-164l-25 -115h285l-4 -20h-285l-37 -175h-20l37 175h-90l4 20h90l25 115h-90l4 20h90l85 400h176q86 0 135.5 -46.5t49.5 -123.5z" />
    <glyph glyph-name="afii61352" unicode="&#x2116;" horiz-adv-x="1100" 
d="M793 320l4 20h260l-4 -20h-260zM1101 626q0 43 -25.5 68.5t-67.5 25.5q-59 0 -101.5 -41t-42.5 -105q0 -43 25.5 -68.5t67.5 -25.5q59 0 101.5 41t42.5 105zM844 574q0 72 49 119t115 47q49 0 81 -31.5t32 -82.5q0 -72 -49 -119t-115 -47q-49 0 -81 31.5t-32 82.5z
M237 694l-147 -694h-20l155 730h15l358 -694l147 694h20l-155 -730h-15z" />
    <glyph glyph-name="trademark" unicode="&#x2122;" horiz-adv-x="745" 
d="M706 590l-177 -290h-10l-53 290l-107 -290h-20l127 340h10l55 -305l185 305h10l-17 -340h-20zM252 620l-68 -320h-20l68 320h-130l4 20h280l-4 -20h-130z" />
    <glyph glyph-name="arrowleft" unicode="&#x2190;" horiz-adv-x="990" 
d="M270 90l-170 220l170 220h25l-165 -210h760v-20h-760l165 -210h-25z" />
    <glyph glyph-name="arrowup" unicode="&#x2191;" horiz-adv-x="640" 
d="M320 730l220 -170v-25l-210 165v-760h-20v760l-210 -165v25z" />
    <glyph glyph-name="arrowright" unicode="&#x2192;" horiz-adv-x="990" 
d="M720 530l170 -220l-170 -220h-25l165 210h-760v20h760l-165 210h25z" />
    <glyph glyph-name="arrowdown" unicode="&#x2193;" horiz-adv-x="640" 
d="M540 110l-220 -170l-220 170v25l210 -165v760h20v-760l210 165v-25z" />
    <glyph glyph-name="minus" unicode="&#x2212;" 
d="M481 335l-4 -20h-380l4 20h380z" />
    <glyph glyph-name="commaaccent" unicode="&#xf6c3;" horiz-adv-x="120" 
d="M21 -82q0 -21 -20.5 -67.5t-60.5 -85.5h-10q50 50 66 125h-5q-20 0 -20 20q0 13 9 21.5t22 8.5q19 0 19 -22z" />
    <glyph glyph-name="cyrBreve" unicode="&#xf6d1;" horiz-adv-x="360" 
d="M309 820q-29 0 -54.5 6t-41 15t-26.5 18t-15 15l-5 6l6 30q1 -3 4.5 -7.5t15 -16.5t25.5 -21.5t38.5 -17t52.5 -7.5q44 0 85 17.5t60 34.5l19 18l-6 -30l-6.5 -6.5t-19 -14.5t-31.5 -18t-44.5 -14.5t-56.5 -6.5z" />
    <glyph glyph-name="cyrbreve" unicode="&#xf6d4;" horiz-adv-x="300" 
d="M239 635q-36 0 -64.5 11.5t-38.5 22.5l-11 11l6 30q1 -2 4 -6t12.5 -13.5t21 -16.5t30.5 -13t40 -6q33 0 66 13.5t49 27.5l17 14l-6 -30q-5 -5 -15 -12.5t-42.5 -20t-68.5 -12.5z" />
    <glyph glyph-name="s_t" unicode="&#xfb06;" horiz-adv-x="870" 
d="M298 505q-79 0 -125.5 -38.5t-46.5 -92.5q0 -34 29 -55t70 -32.5t82 -24t70 -40.5t29 -72q0 -68 -57.5 -116.5t-147.5 -48.5q-34 0 -64.5 8t-50 20t-34.5 24t-22 20l-6 8l10 25l6 -9t18.5 -20.5t32 -26t47 -20.5t63.5 -9q83 0 134 42.5t51 102.5q0 38 -29 62t-70 35.5
t-82.5 24t-70.5 37.5t-29 65q0 62 53.5 106.5t139.5 44.5q24 0 46.5 -5t33.5 -10l10 -5q-21 34 -21 86q0 76 56.5 127.5t141.5 51.5q64 0 101 -33.5t37 -92.5q0 -19 -5 -44l-20 -90h170l-4 -20h-170l-75 -355q-6 -27 -6 -47q0 -83 83 -83q27 0 51.5 11t36.5 22l11 12h5
l-4 -20q-4 -5 -12.5 -12.5t-35.5 -20t-56 -12.5q-47 0 -73 25.5t-26 74.5q0 23 6 50l75 355h-100l4 20h100l20 90q5 25 5 43q0 51 -31 79t-87 28q-77 0 -127 -45.5t-50 -113.5q0 -36 15 -70t29 -50l15 -16l-14 -20q-1 3 -4 7.5t-14.5 16.5t-25.5 21.5t-38.5 17t-52.5 7.5z
" />
    <glyph glyph-name="s_h" unicode="&#xfb10;" horiz-adv-x="1085" 
d="M945 0h-20l66 310q6 29 6 53q0 66 -38 104t-102 38q-86 0 -163 -72t-102 -188l-52 -245h-20l157 740q-19 0 -57.5 5t-64.5 5q-73 0 -122.5 -45t-49.5 -112q0 -37 16 -71.5t32 -50.5l16 -16l-14 -20q-1 3 -4 7.5t-14.5 16.5t-25.5 21.5t-38.5 17t-52.5 7.5
q-79 0 -125.5 -38.5t-46.5 -92.5q0 -34 29 -55t70 -32.5t82 -24t70 -40.5t29 -72q0 -68 -57.5 -116.5t-147.5 -48.5q-34 0 -64.5 8t-50 20t-34.5 24t-22 20l-6 8l10 25l6 -9t18.5 -20.5t32 -26t47 -20.5t63.5 -9q83 0 134 42.5t51 102.5q0 38 -29 62t-70 35.5t-82.5 24
t-70.5 37.5t-29 65q0 62 53.5 106.5t139.5 44.5q22 0 42.5 -3.5t29.5 -7.5l9 -4q-17 37 -17 83q0 74 56 125.5t137 51.5q26 0 67 -5t60 -5h20l-83 -386h5q4 6 10.5 16.5t29.5 36.5t48.5 45.5t64.5 36t80 16.5q71 0 115.5 -44t44.5 -117q0 -26 -6 -54z" />
    <glyph glyph-name="s_k" unicode="&#xfb11;" horiz-adv-x="975" 
d="M890 0l-188 277l-123 -92l-39 -185h-20l157 740q-19 0 -57.5 5t-64.5 5q-73 0 -122.5 -45t-49.5 -112q0 -37 16 -71.5t32 -50.5l16 -16l-14 -20q-1 3 -4 7.5t-14.5 16.5t-25.5 21.5t-38.5 17t-52.5 7.5q-79 0 -125.5 -38.5t-46.5 -92.5q0 -34 29 -55t70 -32.5t82 -24
t70 -40.5t29 -72q0 -68 -57.5 -116.5t-147.5 -48.5q-34 0 -64.5 8t-50 20t-34.5 24t-22 20l-6 8l10 25l6 -9t18.5 -20.5t32 -26t47 -20.5t63.5 -9q83 0 134 42.5t51 102.5q0 38 -29 62t-70 35.5t-82.5 24t-70.5 37.5t-29 65q0 62 53.5 106.5t139.5 44.5q22 0 42.5 -3.5
t29.5 -7.5l9 -4q-17 37 -17 83q0 74 56 125.5t137 51.5q26 0 67 -5t60 -5h20l-117 -545l394 295h34l-295 -221l197 -289h-25z" />
    <glyph glyph-name="c_h" unicode="&#xfb12;" horiz-adv-x="1175" 
d="M1034 0h-20l66 310q6 29 6 53q0 66 -38 104t-102 38q-86 0 -163 -72t-102 -188l-52 -245h-20l158 740q-12 0 -41 5t-56 5q-73 0 -122.5 -45t-49.5 -112q0 -36 15 -73t31 -56l15 -19l-14 -20q-2 3 -6 8.5t-18.5 19.5t-31.5 24.5t-46 19t-61 8.5q-115 0 -205 -88t-90 -210
q0 -89 52.5 -145.5t136.5 -56.5q51 0 100.5 20t73.5 40l23 20h5l-6 -25q-3 -3 -9 -8t-25.5 -18t-41 -23t-54 -18t-66.5 -8q-91 0 -150 63t-59 159q0 130 96.5 224t218.5 94q29 0 57.5 -6.5t42.5 -12.5l14 -6q-19 40 -19 93q0 74 56 125.5t137 51.5q28 0 58 -5t43 -5h20
l-83 -386h5q4 6 10.5 16.5t29.5 36.5t48.5 45.5t64.5 36t80 16.5q71 0 115.5 -44t44.5 -117q0 -26 -6 -54z" />
    <glyph glyph-name="c_k" unicode="&#xfb13;" horiz-adv-x="1065" 
d="M979 0l-188 277l-123 -92l-39 -185h-20l158 740q-12 0 -41 5t-56 5q-73 0 -122.5 -45t-49.5 -112q0 -36 15 -73t31 -56l15 -19l-14 -20q-2 3 -6 8.5t-18.5 19.5t-31.5 24.5t-46 19t-61 8.5q-115 0 -205 -88t-90 -210q0 -89 52.5 -145.5t136.5 -56.5q51 0 100.5 20
t73.5 40l23 20h5l-6 -25q-3 -3 -9 -8t-25.5 -18t-41 -23t-54 -18t-66.5 -8q-91 0 -150 63t-59 159q0 130 96.5 224t218.5 94q29 0 57.5 -6.5t42.5 -12.5l14 -6q-19 40 -19 93q0 74 56 125.5t137 51.5q28 0 58 -5t43 -5h20l-117 -545l394 295h34l-295 -221l197 -289h-25z" />
    <glyph glyph-name="c_t" unicode="&#xfb14;" horiz-adv-x="980" 
d="M670 770q64 0 103 -33.5t39 -92.5q0 -19 -5 -44l-20 -90h170l-4 -20h-170l-75 -355q-6 -27 -6 -47q0 -83 83 -83q27 0 51.5 11t35.5 22l12 12h5l-4 -20q-4 -5 -12.5 -12.5t-35.5 -20t-56 -12.5q-47 0 -73 25.5t-26 74.5q0 23 6 50l75 355h-100l4 20h100l20 90q5 25 5 43
q0 52 -32.5 79.5t-89.5 27.5q-73 0 -122.5 -45t-49.5 -112q0 -36 15 -73t31 -56l15 -19l-14 -20q-2 3 -6 8.5t-18.5 19.5t-31.5 24.5t-46 19t-61 8.5q-115 0 -205 -88t-90 -210q0 -89 52.5 -145.5t136.5 -56.5q51 0 100.5 20t73.5 40l23 20h5l-6 -25q-3 -3 -9 -8t-25.5 -18
t-41 -23t-54 -18t-66.5 -8q-91 0 -150 63t-59 159q0 130 96.5 224t218.5 94q29 0 57.5 -6.5t42.5 -12.5l14 -6q-19 40 -19 93q0 74 56 125.5t137 51.5z" />
    <glyph glyph-name="afii10085.salt" horiz-adv-x="535" 
d="M548 510l-456 -730h-24l142 227l-127 503h21l120 -474h4l296 474h24z" />
    <glyph glyph-name="y.salt" horiz-adv-x="535" 
d="M548 510l-456 -730h-24l142 227l-127 503h21l120 -474h4l296 474h24z" />
    <glyph glyph-name="l.salt" horiz-adv-x="210" 
d="M227 760l-162 -760h-20l162 760h20z" />
    <glyph glyph-name="g.salt" horiz-adv-x="535" 
d="M94 313q0 90 65 151t163 61q22 0 43.5 -4.5t32.5 -9.5l10 -5q1 4 4 10t14.5 22.5t27 29t44.5 22.5t64 10l-4 -20q-32 0 -57.5 -9t-39 -21.5t-22 -25t-11.5 -21.5l-2 -9q6 -4 15.5 -11.5t25 -38t15.5 -67.5q0 -131 -140 -197l-265 -125h160q99 0 148 -34.5t49 -90.5
q0 -71 -63.5 -118t-196.5 -47q-104 0 -155.5 34.5t-51.5 87.5q0 35 16.5 63.5t40 43.5t47 25t39.5 13l17 3h-100l4 15l239 115h-16q-74 0 -117 41t-43 107zM114 313q0 -58 37 -93t103 -35q91 0 149.5 55t58.5 137q0 58 -37 93t-103 35q-91 0 -149.5 -55t-58.5 -137zM414 -70
q0 48 -43 76.5t-134 28.5h-55q-8 -1 -21 -3t-46.5 -13t-59.5 -25.5t-47 -43t-21 -63.5q0 -46 45 -74t142 -28q125 0 182.5 41t57.5 104z" />
    <glyph glyph-name="a.salt" horiz-adv-x="545" 
d="M177 5q41 0 81 18t69 43.5t51.5 51.5t33.5 44l12 18q-2 4 -6 10.5t-20 22.5t-34.5 28.5t-51 23t-68.5 10.5q-86 0 -137 -46t-51 -118q0 -49 31 -77.5t90 -28.5zM318 525q76 0 118.5 -39t42.5 -110q0 -30 -7 -61l-67 -315h-15l24 136h-5q-4 -6 -10.5 -16.5t-29.5 -36.5
t-48 -45.5t-64 -36t-80 -16.5q-66 0 -103.5 35t-37.5 91q0 80 57 132t151 52q36 0 68.5 -9.5t53 -22.5t35.5 -26t21 -23l7 -9l23 110q7 38 7 60q0 64 -36.5 97t-104.5 33q-47 0 -95.5 -16.5t-73.5 -32.5l-25 -16h-5l4 20q10 7 27 18t68 29t100 18z" />
    <glyph glyph-name="zero.pnum" horiz-adv-x="620" 
d="M109 200q0 -97 42 -146t110 -49q82 0 152.5 72t111.5 193t41 260q0 97 -42 146t-110 49q-82 0 -152.5 -72t-111.5 -193t-41 -260zM586 530q0 -144 -43.5 -270t-119 -200.5t-162.5 -74.5q-75 0 -123.5 55.5t-48.5 159.5q0 144 43.5 270t119 200.5t162.5 74.5
q75 0 123.5 -55.5t48.5 -159.5z" />
    <glyph glyph-name="one.pnum" horiz-adv-x="330" 
d="M120 610l5 25l181 95h10l-156 -730h-20l149 700z" />
    <glyph glyph-name="two.pnum" 
d="M511 606q0 54 -34.5 86.5t-97.5 32.5q-39 0 -77.5 -14t-65.5 -33.5t-48.5 -39.5t-31.5 -34l-11 -14h-5l5 20q3 5 10 14.5t29.5 32.5t47.5 41t65 32.5t82 14.5q70 0 111.5 -38.5t41.5 -100.5q0 -34 -14.5 -70.5t-35 -65t-40.5 -52t-34 -36.5l-15 -12l-360 -350h401l-4 -20
h-440l1 5l385 375q5 5 14.5 13.5t32.5 34.5t41 51.5t32.5 60.5t14.5 66z" />
    <glyph glyph-name="three.pnum" horiz-adv-x="535" 
d="M165 375l-8 10l348 325h-329l4 20h370l-1 -5l-327 -305l-1 -5q20 10 65 10q83 0 133 -49.5t50 -129.5q0 -111 -77.5 -186t-190.5 -75q-38 0 -71 10.5t-53.5 25t-35.5 29t-21 24.5l-7 11l14 20l5.5 -11t18 -24t33 -30t50 -24t67.5 -11q106 0 177 68.5t71 172.5
q0 73 -43.5 116t-119.5 43q-33 0 -63.5 -7.5t-44.5 -15.5z" />
    <glyph glyph-name="four.pnum" horiz-adv-x="535" 
d="M437 730h26l-392 -510h311l49 230h20l-49 -230h110l-4 -20h-110l-43 -200h-20l43 200h-345l1 5z" />
    <glyph glyph-name="five.pnum" horiz-adv-x="545" 
d="M211 -15q-38 0 -71 10.5t-53.5 25t-35.5 29t-21 24.5l-7 11l14 20l5.5 -11t18 -24t33 -30t50 -24t67.5 -11q108 0 179.5 72t71.5 185q0 76 -43 119.5t-119 43.5q-32 0 -62.5 -7.5t-51 -18.5t-36.5 -22.5t-24 -18.5l-7 -8l-14 5l135 375h325l-4 -20h-307l-118 -326
q6 7 18 17t54.5 27t91.5 17q83 0 132.5 -50t49.5 -133q0 -120 -78 -198.5t-193 -78.5z" />
    <glyph glyph-name="six.pnum" horiz-adv-x="580" 
d="M59 170q0 119 123.5 286t267.5 274h25q-9 -7 -25 -19.5t-60.5 -53t-84.5 -82t-86.5 -102t-77.5 -118.5h5q3 3 8 8.5t22.5 19.5t37.5 24.5t52.5 19t66.5 8.5q84 0 135.5 -52t51.5 -133q0 -109 -83.5 -187t-190.5 -78q-84 0 -135.5 52t-51.5 133zM333 415q-104 0 -179 -71
t-75 -174q0 -74 45.5 -119.5t121.5 -45.5q99 0 176.5 72t77.5 173q0 74 -45.5 119.5t-121.5 45.5z" />
    <glyph glyph-name="seven.pnum" horiz-adv-x="485" 
d="M141 710l4 20h405l-1 -5l-421 -725h-23l413 710h-377z" />
    <glyph glyph-name="eight.pnum" horiz-adv-x="600" 
d="M332 385q-111 0 -183.5 -65t-72.5 -161q0 -69 46.5 -111.5t128.5 -42.5q111 0 183 65t72 161q0 69 -46 111.5t-128 42.5zM404 725q-95 0 -154.5 -54.5t-59.5 -137.5q0 -58 38.5 -93t107.5 -35q95 0 154 54.5t59 137.5q0 58 -38 93t-107 35zM404 745q77 0 121 -41t44 -107
q0 -46 -16.5 -83.5t-40.5 -58t-48 -35t-40 -18.5l-17 -5l-1 -4q5 -1 13 -4t28.5 -15t36.5 -28.5t29 -47t13 -67.5q0 -103 -78 -174.5t-197 -71.5q-90 0 -142.5 48.5t-52.5 125.5q0 55 21 99.5t51 68.5t60 40t51 21l21 5l1 4q-4 1 -10 3.5t-21.5 13.5t-27.5 25t-22 39t-10 55
q0 90 66 151t168 61z" />
    <glyph glyph-name="nine.pnum" horiz-adv-x="580" 
d="M576 560q0 -119 -123.5 -286t-267.5 -274h-25q9 7 25 19.5t60.5 53t84.5 82t86.5 102t77.5 118.5h-5q-3 -3 -8 -8.5t-22.5 -19.5t-37.5 -24.5t-52.5 -19t-66.5 -8.5q-84 0 -135.5 52t-51.5 133q0 109 83.5 187t190.5 78q84 0 135.5 -52t51.5 -133zM302 315q104 0 179 71
t75 174q0 74 -45.5 119.5t-121.5 45.5q-99 0 -176.5 -72t-77.5 -173q0 -74 45.5 -119.5t121.5 -45.5z" />
    <glyph glyph-name="afii10110.salt" horiz-adv-x="535" 
d="M548 510l-456 -730h-24l142 227l-127 503h21l120 -474h4l296 474h24zM344 640q-22 0 -42 4.5t-32.5 11t-22 13.5t-13.5 11l-4 5l6 30q1 -2 4 -6t12.5 -13.5t21 -16.5t30.5 -13t40 -6q33 0 66 14t50 28l16 13l-6 -30q-5 -5 -15 -12.5t-42.5 -20t-68.5 -12.5z" />
    <glyph glyph-name="atilde.salt" horiz-adv-x="545" 
d="M177 5q41 0 81 18t69 43.5t51.5 51.5t33.5 44l12 18q-2 4 -6 10.5t-20 22.5t-34.5 28.5t-51 23t-68.5 10.5q-86 0 -137 -46t-51 -118q0 -49 31 -77.5t90 -28.5zM318 525q76 0 118.5 -39t42.5 -110q0 -30 -7 -61l-67 -315h-15l24 136h-5q-4 -6 -10.5 -16.5t-29.5 -36.5
t-48 -45.5t-64 -36t-80 -16.5q-66 0 -103.5 35t-37.5 91q0 80 57 132t151 52q36 0 68.5 -9.5t53 -22.5t35.5 -26t21 -23l7 -9l23 110q7 38 7 60q0 64 -36.5 97t-104.5 33q-47 0 -95.5 -16.5t-73.5 -32.5l-25 -16h-5l4 20q10 7 27 18t68 29t100 18zM285 705q-22 0 -45 -13.5
t-35 -27.5l-12 -14l5 25q4 6 10.5 14t29.5 22t47 14q36 0 74 -30t67 -30q22 0 45 13.5t35 27.5l12 14l-5 -25q-4 -6 -10.5 -14t-29.5 -22t-47 -14q-36 0 -74 30t-67 30z" />
    <glyph glyph-name="aring.salt" horiz-adv-x="545" 
d="M177 5q41 0 81 18t69 43.5t51.5 51.5t33.5 44l12 18q-2 4 -6 10.5t-20 22.5t-34.5 28.5t-51 23t-68.5 10.5q-86 0 -137 -46t-51 -118q0 -49 31 -77.5t90 -28.5zM318 525q76 0 118.5 -39t42.5 -110q0 -30 -7 -61l-67 -315h-15l24 136h-5q-4 -6 -10.5 -16.5t-29.5 -36.5
t-48 -45.5t-64 -36t-80 -16.5q-66 0 -103.5 35t-37.5 91q0 80 57 132t151 52q36 0 68.5 -9.5t53 -22.5t35.5 -26t21 -23l7 -9l23 110q7 38 7 60q0 64 -36.5 97t-104.5 33q-47 0 -95.5 -16.5t-73.5 -32.5l-25 -16h-5l4 20q10 7 27 18t68 29t100 18zM458 731q0 -47 -33 -79
t-81 -32q-36 0 -58.5 22.5t-22.5 56.5q0 47 33 79t80 32q36 0 59 -22.5t23 -56.5zM438 731q0 27 -16.5 43t-45.5 16q-39 0 -66 -26t-27 -65q0 -27 16.5 -43t44.5 -16q40 0 67 26t27 65z" />
    <glyph glyph-name="aogonek.salt" horiz-adv-x="545" 
d="M177 5q41 0 81 18t69 43.5t51.5 51.5t33.5 44l12 18q-2 4 -6 10.5t-20 22.5t-34.5 28.5t-51 23t-68.5 10.5q-86 0 -137 -46t-51 -118q0 -49 31 -77.5t90 -28.5zM390 3l24 133h-5q-4 -6 -10.5 -16.5t-29.5 -36.5t-48 -45.5t-64 -36t-80 -16.5q-66 0 -103.5 35t-37.5 91
q0 80 57 132t151 52q36 0 68.5 -9.5t53 -22.5t35.5 -26t21 -23l7 -9l23 110q7 38 7 60q0 64 -36.5 97t-104.5 33q-47 0 -95.5 -16.5t-73.5 -32.5l-25 -16h-5l4 20q10 7 27 18t68 29t100 18q76 0 118.5 -39t42.5 -110q0 -30 -7 -61l-67 -315q-7 -2 -17.5 -7t-38.5 -20.5
t-49.5 -32.5t-39 -43.5t-17.5 -53.5q0 -53 58 -53q16 0 32 5t24 10l8 5l-4 -20q-25 -20 -60 -20q-36 0 -57 19t-21 54q0 28 17 55t41.5 45t49.5 32.5t42 20.5z" />
    <glyph glyph-name="amacron.salt" horiz-adv-x="545" 
d="M177 5q41 0 81 18t69 43.5t51.5 51.5t33.5 44l12 18q-2 4 -6 10.5t-20 22.5t-34.5 28.5t-51 23t-68.5 10.5q-86 0 -137 -46t-51 -118q0 -49 31 -77.5t90 -28.5zM318 525q76 0 118.5 -39t42.5 -110q0 -30 -7 -61l-67 -315h-15l24 136h-5q-4 -6 -10.5 -16.5t-29.5 -36.5
t-48 -45.5t-64 -36t-80 -16.5q-66 0 -103.5 35t-37.5 91q0 80 57 132t151 52q36 0 68.5 -9.5t53 -22.5t35.5 -26t21 -23l7 -9l23 110q7 38 7 60q0 64 -36.5 97t-104.5 33q-47 0 -95.5 -16.5t-73.5 -32.5l-25 -16h-5l4 20q10 7 27 18t68 29t100 18zM204 680l4 20h300l-4 -20
h-300z" />
    <glyph glyph-name="adieresis.salt" horiz-adv-x="545" 
d="M177 5q41 0 81 18t69 43.5t51.5 51.5t33.5 44l12 18q-2 4 -6 10.5t-20 22.5t-34.5 28.5t-51 23t-68.5 10.5q-86 0 -137 -46t-51 -118q0 -49 31 -77.5t90 -28.5zM318 525q76 0 118.5 -39t42.5 -110q0 -30 -7 -61l-67 -315h-15l24 136h-5q-4 -6 -10.5 -16.5t-29.5 -36.5
t-48 -45.5t-64 -36t-80 -16.5q-66 0 -103.5 35t-37.5 91q0 80 57 132t151 52q36 0 68.5 -9.5t53 -22.5t35.5 -26t21 -23l7 -9l23 110q7 38 7 60q0 64 -36.5 97t-104.5 33q-47 0 -95.5 -16.5t-73.5 -32.5l-25 -16h-5l4 20q10 7 27 18t68 29t100 18zM234 680q0 13 9 21.5
t22 8.5q21 0 21 -20q0 -13 -9 -21.5t-22 -8.5q-21 0 -21 20zM424 680q0 13 9 21.5t22 8.5q21 0 21 -20q0 -13 -9 -21.5t-22 -8.5q-21 0 -21 20z" />
    <glyph glyph-name="acircumflex.salt" horiz-adv-x="545" 
d="M177 5q41 0 81 18t69 43.5t51.5 51.5t33.5 44l12 18q-2 4 -6 10.5t-20 22.5t-34.5 28.5t-51 23t-68.5 10.5q-86 0 -137 -46t-51 -118q0 -49 31 -77.5t90 -28.5zM318 525q76 0 118.5 -39t42.5 -110q0 -30 -7 -61l-67 -315h-15l24 136h-5q-4 -6 -10.5 -16.5t-29.5 -36.5
t-48 -45.5t-64 -36t-80 -16.5q-66 0 -103.5 35t-37.5 91q0 80 57 132t151 52q36 0 68.5 -9.5t53 -22.5t35.5 -26t21 -23l7 -9l23 110q7 38 7 60q0 64 -36.5 97t-104.5 33q-47 0 -95.5 -16.5t-73.5 -32.5l-25 -16h-5l4 20q10 7 27 18t68 29t100 18zM469 610l-104 138
l-161 -138h-30l189 160h10l121 -160h-25z" />
    <glyph glyph-name="abreve.salt" horiz-adv-x="545" 
d="M177 5q41 0 81 18t69 43.5t51.5 51.5t33.5 44l12 18q-2 4 -6 10.5t-20 22.5t-34.5 28.5t-51 23t-68.5 10.5q-86 0 -137 -46t-51 -118q0 -49 31 -77.5t90 -28.5zM318 525q76 0 118.5 -39t42.5 -110q0 -30 -7 -61l-67 -315h-15l24 136h-5q-4 -6 -10.5 -16.5t-29.5 -36.5
t-48 -45.5t-64 -36t-80 -16.5q-66 0 -103.5 35t-37.5 91q0 80 57 132t151 52q36 0 68.5 -9.5t53 -22.5t35.5 -26t21 -23l7 -9l23 110q7 38 7 60q0 64 -36.5 97t-104.5 33q-47 0 -95.5 -16.5t-73.5 -32.5l-25 -16h-5l4 20q10 7 27 18t68 29t100 18zM342 630q-47 0 -82 15
t-47 30l-12 15l6 30q1 -3 4 -7.5t14.5 -16.5t25.5 -21.5t38.5 -17t52.5 -7.5q44 0 85.5 17.5t60.5 34.5l19 18l-6 -30q-6 -7 -18 -17t-53 -26.5t-88 -16.5z" />
    <glyph glyph-name="aacute.salt" horiz-adv-x="545" 
d="M177 5q41 0 81 18t69 43.5t51.5 51.5t33.5 44l12 18q-2 4 -6 10.5t-20 22.5t-34.5 28.5t-51 23t-68.5 10.5q-86 0 -137 -46t-51 -118q0 -49 31 -77.5t90 -28.5zM318 525q76 0 118.5 -39t42.5 -110q0 -30 -7 -61l-67 -315h-15l24 136h-5q-4 -6 -10.5 -16.5t-29.5 -36.5
t-48 -45.5t-64 -36t-80 -16.5q-66 0 -103.5 35t-37.5 91q0 80 57 132t151 52q36 0 68.5 -9.5t53 -22.5t35.5 -26t21 -23l7 -9l23 110q7 38 7 60q0 64 -36.5 97t-104.5 33q-47 0 -95.5 -16.5t-73.5 -32.5l-25 -16h-5l4 20q10 7 27 18t68 29t100 18zM319 610l124 160h30
l-136 -160h-18z" />
    <glyph glyph-name="agrave.salt" horiz-adv-x="545" 
d="M177 5q41 0 81 18t69 43.5t51.5 51.5t33.5 44l12 18q-2 4 -6 10.5t-20 22.5t-34.5 28.5t-51 23t-68.5 10.5q-86 0 -137 -46t-51 -118q0 -49 31 -77.5t90 -28.5zM318 525q76 0 118.5 -39t42.5 -110q0 -30 -7 -61l-67 -315h-15l24 136h-5q-4 -6 -10.5 -16.5t-29.5 -36.5
t-48 -45.5t-64 -36t-80 -16.5q-66 0 -103.5 35t-37.5 91q0 80 57 132t151 52q36 0 68.5 -9.5t53 -22.5t35.5 -26t21 -23l7 -9l23 110q7 38 7 60q0 64 -36.5 97t-104.5 33q-47 0 -95.5 -16.5t-73.5 -32.5l-25 -16h-5l4 20q10 7 27 18t68 29t100 18zM298 770l56 -160h-18
l-68 160h30z" />
    <glyph glyph-name="lslash.salt" horiz-adv-x="260" 
d="M52 340l4 20l97 30l78 370h20l-77 -365l96 30l-4 -20l-97 -30l-79 -375h-20l78 370z" />
    <glyph glyph-name="lcommaaccent.salt" horiz-adv-x="210" 
d="M227 760l-162 -760h-20l162 760h20zM62 -102q0 -21 -20.5 -67.5t-60.5 -85.5h-10q50 50 66 125h-5q-20 0 -20 20q0 13 9 21.5t22 8.5q19 0 19 -22z" />
    <glyph glyph-name="lcaron.salt" horiz-adv-x="255" 
d="M227 760l-162 -760h-20l162 760h20zM377 768q0 -21 -20.5 -67.5t-60.5 -85.5h-10q50 50 66 125h-5q-20 0 -20 20q0 13 9 21.5t22 8.5q19 0 19 -22z" />
    <glyph glyph-name="lacute.salt" horiz-adv-x="210" 
d="M227 760l-162 -760h-20l162 760h20zM230 850l124 160h30l-136 -160h-18z" />
    <glyph glyph-name="gcommaaccent.salt" horiz-adv-x="535" 
d="M324 652q0 21 20.5 67.5t60.5 85.5h10q-50 -50 -66 -125h5q20 0 20 -20q0 -13 -9 -21.5t-22 -8.5q-19 0 -19 22zM94 313q0 90 65 151t163 61q22 0 43.5 -4.5t32.5 -9.5l10 -5q1 4 4 10t14.5 22.5t27 29t44.5 22.5t64 10l-4 -20q-32 0 -57.5 -9t-39 -21.5t-22 -25
t-11.5 -21.5l-2 -9q6 -4 15.5 -11.5t25 -38t15.5 -67.5q0 -131 -140 -197l-265 -125h160q99 0 148 -34.5t49 -90.5q0 -71 -63.5 -118t-196.5 -47q-104 0 -155.5 34.5t-51.5 87.5q0 35 16.5 63.5t40 43.5t47 25t39.5 13l17 3h-100l4 15l239 115h-16q-74 0 -117 41t-43 107z
M114 313q0 -58 37 -93t103 -35q91 0 149.5 55t58.5 137q0 58 -37 93t-103 35q-91 0 -149.5 -55t-58.5 -137zM414 -70q0 48 -43 76.5t-134 28.5h-55q-8 -1 -21 -3t-46.5 -13t-59.5 -25.5t-47 -43t-21 -63.5q0 -46 45 -74t142 -28q125 0 182.5 41t57.5 104z" />
    <glyph glyph-name="gbreve.salt" horiz-adv-x="535" 
d="M94 313q0 90 65 151t163 61q22 0 43.5 -4.5t32.5 -9.5l10 -5q1 4 4 10t14.5 22.5t27 29t44.5 22.5t64 10l-4 -20q-32 0 -57.5 -9t-39 -21.5t-22 -25t-11.5 -21.5l-2 -9q6 -4 15.5 -11.5t25 -38t15.5 -67.5q0 -131 -140 -197l-265 -125h160q99 0 148 -34.5t49 -90.5
q0 -71 -63.5 -118t-196.5 -47q-104 0 -155.5 34.5t-51.5 87.5q0 35 16.5 63.5t40 43.5t47 25t39.5 13l17 3h-100l4 15l239 115h-16q-74 0 -117 41t-43 107zM114 313q0 -58 37 -93t103 -35q91 0 149.5 55t58.5 137q0 58 -37 93t-103 35q-91 0 -149.5 -55t-58.5 -137zM414 -70
q0 48 -43 76.5t-134 28.5h-55q-8 -1 -21 -3t-46.5 -13t-59.5 -25.5t-47 -43t-21 -63.5q0 -46 45 -74t142 -28q125 0 182.5 41t57.5 104zM352 650q-47 0 -82 15t-47 30l-12 15l6 30q1 -3 4 -7.5t14.5 -16.5t25.5 -21.5t38.5 -17t52.5 -7.5q44 0 85.5 17.5t60.5 34.5l19 18
l-6 -30q-6 -7 -18 -17t-53 -26.5t-88 -16.5z" />
    <glyph glyph-name="ydieresis.salt" horiz-adv-x="535" 
d="M548 510l-456 -730h-24l142 227l-127 503h21l120 -474h4l296 474h24zM219 680q0 13 9 21.5t22 8.5q21 0 21 -20q0 -13 -9 -21.5t-22 -8.5q-21 0 -21 20zM409 680q0 13 9 21.5t22 8.5q21 0 21 -20q0 -13 -9 -21.5t-22 -8.5q-21 0 -21 20z" />
    <glyph glyph-name="yacute.salt" horiz-adv-x="535" 
d="M548 510l-456 -730h-24l142 227l-127 503h21l120 -474h4l296 474h24zM319 610l124 160h30l-136 -160h-18z" />
    <glyph glyph-name="ae.salt" horiz-adv-x="975" 
d="M642 5q51 0 100.5 20t73.5 40l23 20h5l-6 -25q-3 -3 -9 -8t-25.5 -18t-41 -23t-54 -18t-66.5 -8q-37 0 -68.5 9.5t-52 25t-36.5 34t-24.5 37.5t-14.5 34.5t-8 24.5l-1 10h-5q-4 -7 -11.5 -19t-33.5 -42t-53.5 -53t-70.5 -42t-86 -19q-66 0 -103.5 35t-37.5 91
q0 80 57 132t151 52q36 0 68.5 -9.5t53 -22.5t35.5 -26t21 -23l7 -9l23 110q7 38 7 60q0 64 -36.5 97t-104.5 33q-47 0 -95.5 -16.5t-73.5 -32.5l-25 -16h-5l4 20q10 7 27 18t68 29t100 18q76 0 119 -38.5t43 -107.5v-9l11 16.5t32.5 37.5t53.5 47t73 37t93 17
q81 0 132 -51.5t51 -133.5q0 -20 -2 -39t-4 -27l-3 -9h-458q-6 -25 -6 -58q0 -89 52.5 -145.5t136.5 -56.5zM177 5q41 0 81 18t69 43.5t51.5 51.5t33.5 44l12 18q-2 4 -6 10.5t-20 22.5t-34.5 28.5t-51 23t-68.5 10.5q-86 0 -137 -46t-51 -118q0 -49 31 -77.5t90 -28.5z
M464 285h437q6 25 6 55q0 74 -45 119.5t-119 45.5q-91 0 -172.5 -63.5t-106.5 -156.5z" />
    <glyph glyph-name="Germandbls" horiz-adv-x="690" 
d="M625 594q-1 5 -4 14t-16.5 31.5t-31.5 40t-52.5 31.5t-76.5 14q-92 0 -164.5 -64t-95.5 -171l-104 -490h-20l104 490q24 115 102.5 185t177.5 70q48 0 86 -16t58.5 -38.5t34.5 -45.5t18 -39l4 -16l-176 -190q6 -2 17 -6.5t38.5 -21t48.5 -36.5t38 -54.5t17 -73.5
q0 -94 -70 -158.5t-177 -64.5q-31 0 -59 8t-46 20t-31.5 24t-19.5 20l-6 8l9 20q2 -3 6 -8.5t18 -19.5t30 -24.5t43 -19t56 -8.5q100 0 163 58.5t63 144.5q0 37 -17 69.5t-41 52.5t-48 34t-41 20l-17 6l2 10z" />
    <glyph glyph-name="foundryicon" horiz-adv-x="1538" 
d="M278 460v-31h-72v-199h-35v199h-71v31h178zM519 396q32 0 54.5 -25t22.5 -59q0 -36 -22.5 -60.5t-54.5 -24.5q-29 0 -47 21v-79h-34v224h24l9 -19q19 22 48 22zM516 258q19 0 33 16t14 38q0 21 -14 36.5t-33 15.5t-33 -15.5t-14 -36.5q0 -22 13.5 -38t33.5 -16zM333 277
l44 116h37l-77 -190q-16 -34 -49 -34q-7 0 -10 1v28q23 0 31 20l6 16l-63 159h37zM701 396q32 0 54 -24.5t22 -58.5l-1 -15h-119q2 -17 14.5 -29t29.5 -12q27 0 37 17h35q-9 -22 -28.5 -34.5t-43.5 -12.5q-32 0 -55 24.5t-23 60.5q0 35 23 59.5t55 24.5zM657 325h88
q-1 17 -14.5 28.5t-29.5 11.5t-29 -11t-15 -29zM939 460v-31h-72v-199h-35v199h-71v31h178zM1180 396q32 0 54.5 -25t22.5 -59q0 -36 -22.5 -60.5t-54.5 -24.5q-29 0 -47 21v-79h-34v224h24l9 -19q19 22 48 22zM1177 258q19 0 33 16t14 38q0 21 -14 36.5t-33 15.5t-33 -15.5
t-14 -36.5q0 -22 13.5 -38t33.5 -16zM994 277l44 116h37l-77 -190q-16 -34 -49 -34q-7 0 -10 1v28q23 0 31 20l6 16l-63 159h37zM1362 396q32 0 54 -24.5t22 -58.5l-1 -15h-119q2 -17 14.5 -29t29.5 -12q27 0 37 17h35q-9 -22 -28.5 -34.5t-43.5 -12.5q-32 0 -55 24.5
t-23 60.5q0 35 23 59.5t55 24.5zM1318 325h88q-1 17 -14.5 28.5t-29.5 11.5t-29 -11t-15 -29z" />
    <glyph glyph-name="afii10065.salt" horiz-adv-x="545" 
d="M177 5q41 0 81 18t69 43.5t51.5 51.5t33.5 44l12 18q-2 4 -6 10.5t-20 22.5t-34.5 28.5t-51 23t-68.5 10.5q-86 0 -137 -46t-51 -118q0 -49 31 -77.5t90 -28.5zM318 525q76 0 118.5 -39t42.5 -110q0 -30 -7 -61l-67 -315h-15l24 136h-5q-4 -6 -10.5 -16.5t-29.5 -36.5
t-48 -45.5t-64 -36t-80 -16.5q-66 0 -103.5 35t-37.5 91q0 80 57 132t151 52q36 0 68.5 -9.5t53 -22.5t35.5 -26t21 -23l7 -9l23 110q7 38 7 60q0 64 -36.5 97t-104.5 33q-47 0 -95.5 -16.5t-73.5 -32.5l-25 -16h-5l4 20q10 7 27 18t68 29t100 18z" />
    <glyph glyph-name="zero.taboldstyle" 
d="M2 207q0 131 97.5 224.5t227.5 93.5q97 0 158 -62.5t61 -159.5q0 -131 -97.5 -224.5t-227.5 -93.5q-97 0 -158 62.5t-61 159.5zM526 303q0 89 -54.5 145.5t-144.5 56.5q-122 0 -213 -87t-91 -211q0 -89 54.5 -145.5t143.5 -56.5q122 0 213.5 87t91.5 211z" />
    <glyph glyph-name="one.taboldstyle" 
d="M70 0l4 20h150l98 460l-169 -90l5 25l180 95h10l-104 -490h150l-4 -20h-320z" />
    <glyph glyph-name="two.taboldstyle" 
d="M454 401q0 46 -34 75t-98 29q-49 0 -93.5 -16.5t-64.5 -32.5l-20 -16h-5l4 20q7 7 21 18t60.5 29t97.5 18q70 0 111 -34t41 -87q0 -32 -13.5 -62.5t-40 -57.5t-47 -44t-52.5 -40l-254 -180h337l-4 -20h-385l1 5l292 210q32 23 52 39.5t44.5 41t37 51t12.5 54.5z" />
    <glyph glyph-name="three.taboldstyle" 
d="M118 155l-8 10l348 325h-329l4 20h370l-1 -5l-327 -305l-1 -5q20 10 65 10q83 0 133 -49.5t50 -129.5q0 -111 -77.5 -186t-190.5 -75q-38 0 -71 10.5t-53.5 25t-35.5 29t-22 24.5l-6 11l14 20l5.5 -11t18 -24t33 -30t50 -24t67.5 -11q106 0 177 68.5t71 172.5
q0 73 -43.5 116t-119.5 43q-33 0 -63.5 -7.5t-43.5 -15.5z" />
    <glyph glyph-name="four.taboldstyle" 
d="M385 510h25l-387 -490h311l49 230h20l-49 -230h110l-4 -20h-110l-47 -220h-20l47 220h-345l1 5z" />
    <glyph glyph-name="five.taboldstyle" 
d="M164 -235q-38 0 -71 10.5t-53.5 25t-35.5 29t-22 24.5l-6 11l14 20l5.5 -11t18 -24t33 -30t50 -24t67.5 -11q108 0 179.5 72t71.5 185q0 76 -43 119.5t-119 43.5q-32 0 -62.5 -7.5t-51 -18.5t-36.5 -22.5t-23 -18.5l-8 -8l-14 5l135 375h325l-4 -20h-307l-118 -326
q6 7 18 17t54.5 27t91.5 17q83 0 132.5 -50t49.5 -133q0 -120 -78 -198.5t-193 -78.5z" />
    <glyph glyph-name="six.taboldstyle" 
d="M39 170q0 119 123.5 286t267.5 274h25q-9 -7 -25 -19.5t-60.5 -53t-84.5 -82t-86.5 -102t-77.5 -118.5h5q3 3 8 8.5t22.5 19.5t37.5 24.5t52.5 19t66.5 8.5q84 0 135.5 -52t51.5 -133q0 -109 -83.5 -187t-190.5 -78q-84 0 -135.5 52t-51.5 133zM313 415q-104 0 -179 -71
t-75 -174q0 -74 45.5 -119.5t121.5 -45.5q99 0 176.5 72t77.5 173q0 74 -45.5 119.5t-121.5 45.5z" />
    <glyph glyph-name="seven.taboldstyle" 
d="M119 490l4 20h405l-1 -5l-421 -725h-23l413 710h-377z" />
    <glyph glyph-name="eight.taboldstyle" 
d="M302 385q-111 0 -183.5 -65t-72.5 -161q0 -69 46.5 -111.5t128.5 -42.5q111 0 183 65t72 161q0 69 -46 111.5t-128 42.5zM374 725q-95 0 -154.5 -54.5t-59.5 -137.5q0 -58 38.5 -93t107.5 -35q95 0 154 54.5t59 137.5q0 58 -38 93t-107 35zM374 745q77 0 121 -41t44 -107
q0 -46 -16.5 -83.5t-40.5 -58t-48 -35t-40 -18.5l-17 -5l-1 -4q5 -1 13 -4t28.5 -15t36.5 -28.5t29 -47t13 -67.5q0 -103 -78 -174.5t-197 -71.5q-90 0 -142.5 48.5t-52.5 125.5q0 55 21 99.5t51 68.5t60 40t51 21l21 5l1 4q-4 1 -10 3.5t-21.5 13.5t-27.5 25t-22 39t-10 55
q0 90 66 151t168 61z" />
    <glyph glyph-name="nine.taboldstyle" 
d="M509 340q0 -119 -123.5 -286t-267.5 -274h-25q9 7 25 19.5t60.5 53t84.5 82t86.5 102t77.5 118.5h-5q-3 -3 -8 -8.5t-22.5 -19.5t-37.5 -24.5t-52.5 -19t-66.5 -8.5q-84 0 -135.5 52t-51.5 133q0 109 83.5 187t190.5 78q84 0 135.5 -52t51.5 -133zM235 95q104 0 179 71
t75 174q0 74 -45.5 119.5t-121.5 45.5q-99 0 -176.5 -72t-77.5 -173q0 -74 45.5 -119.5t121.5 -45.5z" />
    <glyph glyph-name="zero.tab" 
d="M69 200q0 -97 42 -146t110 -49q82 0 152.5 72t111.5 193t41 260q0 97 -42 146t-110 49q-82 0 -152.5 -72t-111.5 -193t-41 -260zM546 530q0 -144 -43.5 -270t-119 -200.5t-162.5 -74.5q-75 0 -123.5 55.5t-48.5 159.5q0 144 43.5 270t119 200.5t162.5 74.5
q75 0 123.5 -55.5t48.5 -159.5z" />
    <glyph glyph-name="one.tab" 
d="M70 0l4 20h150l145 680l-169 -90l5 25l180 95h10l-151 -710h150l-4 -20h-320z" />
    <glyph glyph-name="two.tab" 
d="M511 606q0 54 -34.5 86.5t-97.5 32.5q-39 0 -77.5 -14t-65.5 -33.5t-48.5 -39.5t-31.5 -34l-11 -14h-5l5 20q3 5 10 14.5t29.5 32.5t47.5 41t65 32.5t82 14.5q70 0 111.5 -38.5t41.5 -100.5q0 -34 -14.5 -70.5t-35 -65t-40.5 -52t-34 -36.5l-15 -12l-360 -350h401l-4 -20
h-440l1 5l385 375q5 5 14.5 13.5t32.5 34.5t41 51.5t32.5 60.5t14.5 66z" />
    <glyph glyph-name="three.tab" 
d="M165 375l-8 10l348 325h-329l4 20h370l-1 -5l-327 -305l-1 -5q20 10 65 10q83 0 133 -49.5t50 -129.5q0 -111 -77.5 -186t-190.5 -75q-38 0 -71 10.5t-53.5 25t-35.5 29t-21 24.5l-7 11l14 20l5.5 -11t18 -24t33 -30t50 -24t67.5 -11q106 0 177 68.5t71 172.5
q0 73 -43.5 116t-119.5 43q-33 0 -63.5 -7.5t-44.5 -15.5z" />
    <glyph glyph-name="four.tab" 
d="M442 730h26l-392 -510h311l49 230h20l-49 -230h110l-4 -20h-110l-43 -200h-20l43 200h-345l1 5z" />
    <glyph glyph-name="five.tab" 
d="M211 -15q-38 0 -71 10.5t-53.5 25t-35.5 29t-21 24.5l-7 11l14 20l5.5 -11t18 -24t33 -30t50 -24t67.5 -11q108 0 179.5 72t71.5 185q0 76 -43 119.5t-119 43.5q-32 0 -62.5 -7.5t-51 -18.5t-36.5 -22.5t-24 -18.5l-7 -8l-14 5l135 375h325l-4 -20h-307l-118 -326
q6 7 18 17t54.5 27t91.5 17q83 0 132.5 -50t49.5 -133q0 -120 -78 -198.5t-193 -78.5z" />
    <glyph glyph-name="six.tab" 
d="M39 170q0 119 123.5 286t267.5 274h25q-9 -7 -25 -19.5t-60.5 -53t-84.5 -82t-86.5 -102t-77.5 -118.5h5q3 3 8 8.5t22.5 19.5t37.5 24.5t52.5 19t66.5 8.5q84 0 135.5 -52t51.5 -133q0 -109 -83.5 -187t-190.5 -78q-84 0 -135.5 52t-51.5 133zM313 415q-104 0 -179 -71
t-75 -174q0 -74 45.5 -119.5t121.5 -45.5q99 0 176.5 72t77.5 173q0 74 -45.5 119.5t-121.5 45.5z" />
    <glyph glyph-name="seven.tab" 
d="M166 710l4 20h405l-1 -5l-421 -725h-23l413 710h-377z" />
    <glyph glyph-name="eight.tab" 
d="M302 385q-111 0 -183.5 -65t-72.5 -161q0 -69 46.5 -111.5t128.5 -42.5q111 0 183 65t72 161q0 69 -46 111.5t-128 42.5zM374 725q-95 0 -154.5 -54.5t-59.5 -137.5q0 -58 38.5 -93t107.5 -35q95 0 154 54.5t59 137.5q0 58 -38 93t-107 35zM374 745q77 0 121 -41t44 -107
q0 -46 -16.5 -83.5t-40.5 -58t-48 -35t-40 -18.5l-17 -5l-1 -4q5 -1 13 -4t28.5 -15t36.5 -28.5t29 -47t13 -67.5q0 -103 -78 -174.5t-197 -71.5q-90 0 -142.5 48.5t-52.5 125.5q0 55 21 99.5t51 68.5t60 40t51 21l21 5l1 4q-4 1 -10 3.5t-21.5 13.5t-27.5 25t-22 39t-10 55
q0 90 66 151t168 61z" />
    <glyph glyph-name="nine.tab" 
d="M555 560q0 -119 -123.5 -286t-267.5 -274h-25q9 7 25 19.5t60.5 53t84.5 82t86.5 102t77.5 118.5h-5q-3 -3 -8 -8.5t-22.5 -19.5t-37.5 -24.5t-52.5 -19t-66.5 -8.5q-84 0 -135.5 52t-51.5 133q0 109 83.5 187t190.5 78q84 0 135.5 -52t51.5 -133zM281 315q104 0 179 71
t75 174q0 74 -45.5 119.5t-121.5 45.5q-99 0 -176.5 -72t-77.5 -173q0 -74 45.5 -119.5t121.5 -45.5z" />
    <glyph glyph-name="zero.numr" horiz-adv-x="340" 
d="M128 469q0 -89 73 -89q59 0 102 72.5t43 178.5q0 89 -73 89q-59 0 -102 -72.5t-43 -178.5zM366 631q0 -113 -49.5 -192t-115.5 -79q-44 0 -68.5 27.5t-24.5 81.5q0 115 49 193t116 78q44 0 68.5 -27.5t24.5 -81.5z" />
    <glyph glyph-name="one.numr" horiz-adv-x="245" 
d="M135 660l5 25l90 45h10l-77 -360h-20l71 330z" />
    <glyph glyph-name="two.numr" horiz-adv-x="320" 
d="M330 665q0 55 -62 55q-20 0 -39.5 -6.5t-34 -16t-26 -19.5t-17.5 -16l-6 -7h-5l4 20q5 7 14.5 18t41.5 29t68 18q39 0 61 -21t22 -54q0 -64 -64 -120l-174 -155h195l-4 -20h-235l1 5l199 180q61 56 61 110z" />
    <glyph glyph-name="three.numr" horiz-adv-x="320" 
d="M161 545l-12 15l172 150h-160l4 20h200l-1 -5l-160 -142q10 2 25 2q44 0 69.5 -25t25.5 -66q0 -58 -38.5 -96t-99.5 -38q-33 0 -60.5 12.5t-37.5 25.5l-11 12l13 15q3 -5 9 -12.5t31 -20t56 -12.5q53 0 85 31.5t32 82.5q0 33 -20 52t-58 19q-18 0 -34 -5t-23 -10z" />
    <glyph glyph-name="four.numr" horiz-adv-x="285" 
d="M252 730h23l-189 -245h152l23 105h20l-23 -105h50l-4 -20h-50l-20 -95h-20l20 95h-185l1 5z" />
    <glyph glyph-name="five.numr" horiz-adv-x="320" 
d="M185 360q-33 0 -59.5 15t-36.5 30l-10 15l13 15l3 -6t9.5 -13.5t17.5 -16.5t26.5 -13t36.5 -6q54 0 86.5 32t32.5 85q0 35 -20.5 54t-57.5 19q-24 0 -46 -8.5t-32 -17.5l-10 -9l-13 11l70 184h170l-4 -20h-155l-56 -145q26 25 76 25q45 0 71.5 -25.5t26.5 -67.5
q0 -60 -39 -98.5t-100 -38.5z" />
    <glyph glyph-name="six.numr" horiz-adv-x="335" 
d="M98 455q0 63 59 142.5t143 132.5h25q-5 -3 -13 -8.5t-31 -23t-43 -36t-44 -47t-40 -56.5q32 31 87 31q46 0 74.5 -26t28.5 -69q0 -59 -41 -97t-102 -38q-46 0 -74.5 26t-28.5 69zM241 570q-53 0 -88 -31.5t-35 -83.5q0 -35 22 -55t61 -20q53 0 88 31.5t35 83.5
q0 35 -22.5 55t-60.5 20z" />
    <glyph glyph-name="seven.numr" horiz-adv-x="285" 
d="M146 710l5 20h215l-2 -5l-217 -355h-23l209 340h-187z" />
    <glyph glyph-name="eight.numr" horiz-adv-x="350" 
d="M206 380q55 0 90 28.5t35 71.5q0 31 -23.5 50.5t-65.5 19.5q-55 0 -90 -28.5t-35 -71.5q0 -31 23.5 -50.5t65.5 -19.5zM247 570q47 0 77 25t30 64q0 28 -20 44.5t-55 16.5q-47 0 -77.5 -25t-30.5 -64q0 -27 20.5 -44t55.5 -17zM206 360q-49 0 -79 25.5t-30 64.5
t24.5 66.5t48.5 35.5l25 8q-5 2 -12.5 6.5t-20 23t-12.5 41.5q0 47 36.5 78t92.5 31q43 0 69.5 -23t26.5 -58q0 -34 -20 -59t-40 -32l-20 -8q2 -1 6 -2.5t14 -8t17.5 -15t13.5 -23t6 -31.5q0 -51 -41.5 -85.5t-104.5 -34.5z" />
    <glyph glyph-name="nine.numr" horiz-adv-x="335" 
d="M371 645q0 -63 -59 -142.5t-143 -132.5h-25q5 3 13 8.5t31 23t43 36t44 47t40 56.5q-32 -31 -87 -31q-46 0 -74.5 26t-28.5 69q0 59 41 97t102 38q46 0 74.5 -26t28.5 -69zM228 530q53 0 88 31.5t35 83.5q0 35 -22 55t-61 20q-53 0 -88 -31.5t-35 -83.5q0 -35 22.5 -55
t60.5 -20z" />
    <glyph glyph-name="zero.dnom" horiz-adv-x="340" 
d="M49 99q0 -89 73 -89q59 0 102 72.5t43 178.5q0 89 -73 89q-59 0 -102 -72.5t-43 -178.5zM287 261q0 -113 -49.5 -192t-115.5 -79q-44 0 -68.5 27.5t-24.5 81.5q0 115 49 193t116 78q44 0 68.5 -27.5t24.5 -81.5z" />
    <glyph glyph-name="one.dnom" horiz-adv-x="245" 
d="M57 290l5 25l90 45h10l-77 -360h-20l71 330z" />
    <glyph glyph-name="two.dnom" horiz-adv-x="320" 
d="M251 295q0 55 -62 55q-20 0 -39.5 -6.5t-34 -16t-26 -19.5t-17.5 -16l-6 -7h-5l4 20q5 7 14.5 18t41.5 29t68 18q39 0 61 -21t22 -54q0 -64 -64 -120l-174 -155h195l-4 -20h-235l1 5l199 180q61 56 61 110z" />
    <glyph glyph-name="three.dnom" horiz-adv-x="320" 
d="M82 175l-12 15l172 150h-160l4 20h200l-1 -5l-160 -142q10 2 25 2q44 0 69.5 -25t25.5 -66q0 -58 -38.5 -96t-99.5 -38q-33 0 -60.5 12.5t-38.5 25.5l-10 12l13 15q3 -5 9 -12.5t31 -20t56 -12.5q53 0 85 31.5t32 82.5q0 33 -20 52t-58 19q-18 0 -34 -5t-23 -10z" />
    <glyph glyph-name="four.dnom" horiz-adv-x="285" 
d="M173 360h23l-189 -245h152l23 105h20l-23 -105h50l-4 -20h-50l-20 -95h-20l20 95h-185l1 5z" />
    <glyph glyph-name="five.dnom" horiz-adv-x="320" 
d="M106 -10q-33 0 -59.5 15t-36.5 30l-10 15l13 15l3 -6t9.5 -13.5t17.5 -16.5t26.5 -13t36.5 -6q54 0 86.5 32t32.5 85q0 35 -20.5 54t-57.5 19q-24 0 -46 -9t-32 -17l-10 -9l-13 11l70 184h170l-4 -20h-155l-56 -145q26 25 76 25q45 0 71.5 -25.5t26.5 -67.5
q0 -60 -39 -98.5t-100 -38.5z" />
    <glyph glyph-name="six.dnom" horiz-adv-x="335" 
d="M19 85q0 63 59 142.5t143 132.5h25q-5 -3 -13 -8.5t-31 -23t-43 -36t-44 -47t-40 -56.5q32 31 87 31q46 0 74.5 -26t28.5 -69q0 -59 -41 -97t-102 -38q-46 0 -74.5 26t-28.5 69zM162 200q-53 0 -88 -31.5t-35 -83.5q0 -35 22 -55t61 -20q53 0 88 31.5t35 83.5
q0 35 -22.5 55t-60.5 20z" />
    <glyph glyph-name="seven.dnom" horiz-adv-x="285" 
d="M67 340l5 20h215l-2 -5l-217 -355h-23l209 340h-187z" />
    <glyph glyph-name="eight.dnom" horiz-adv-x="350" 
d="M127 10q55 0 90 28.5t35 71.5q0 31 -23.5 50.5t-65.5 19.5q-55 0 -90 -28.5t-35 -71.5q0 -31 23.5 -50.5t65.5 -19.5zM168 200q47 0 77 25t30 64q0 28 -20 44.5t-55 16.5q-47 0 -77.5 -25t-30.5 -64q0 -27 20.5 -44t55.5 -17zM127 -10q-49 0 -79 25.5t-30 64.5t24.5 66.5
t49.5 35.5l24 8q-5 2 -12.5 6.5t-20 23t-12.5 41.5q0 47 36.5 78t92.5 31q43 0 69.5 -23t26.5 -58q0 -34 -20 -59t-40 -32l-20 -8q2 -1 6 -2.5t14 -8t17.5 -15t13.5 -23t6 -31.5q0 -51 -41.5 -85.5t-104.5 -34.5z" />
    <glyph glyph-name="nine.dnom" horiz-adv-x="335" 
d="M291 275q0 -63 -59 -142.5t-143 -132.5h-25q5 3 13 8.5t31 23t43 36t44 47t40 56.5q-32 -31 -87 -31q-46 0 -74.5 26t-28.5 69q0 59 41 97t102 38q46 0 74.5 -26t28.5 -69zM148 160q53 0 88 31.5t35 83.5q0 35 -22 55t-61 20q-53 0 -88 -31.5t-35 -83.5q0 -35 22.5 -55
t60.5 -20z" />
    <glyph glyph-name="ordfeminine.salt" horiz-adv-x="375" 
d="M194 370q42 0 83 29t61 57l20 29q-1 3 -4 7.5t-13.5 16.5t-22.5 21.5t-32.5 17t-42.5 7.5q-64 0 -98.5 -32.5t-34.5 -81.5q0 -33 21.5 -52t62.5 -19zM288 740q54 0 85.5 -29t31.5 -82q0 -17 -5 -44l-48 -225h-15l12 80h-5q-2 -4 -7 -10t-20 -21.5t-31.5 -27.5
t-41.5 -21.5t-50 -9.5q-48 0 -76 25.5t-28 65.5q0 57 41 95.5t112 38.5q36 0 66 -16.5t43 -32.5l12 -16l16 75q5 27 5 44q0 91 -97 91q-33 0 -67 -14t-51 -28l-18 -13h-5l4 20q6 6 18 15t47.5 24.5t71.5 15.5z" />
    <glyph glyph-name="f_l.salt" horiz-adv-x="555" 
d="M572 760l-162 -760h-20l157 740q-29 0 -83 10t-87 10q-106 0 -133 -130l-26 -120h170l-4 -20h-170l-104 -490h-20l104 490h-100l4 20h100l26 120q15 74 55.5 112t97.5 38q33 0 89.5 -10t85.5 -10h20z" />
    <glyph glyph-name="f_f_l.salt" horiz-adv-x="855" 
d="M199 510l21 100q15 74 55.5 112t97.5 38q29 0 52 -12.5t32 -25.5l9 -12l-9 -20q-3 6 -8.5 14t-27.5 22t-49 14q-105 0 -132 -130l-21 -100h279l26 120q15 74 55.5 112t97.5 38q33 0 89.5 -10t85.5 -10h20l-162 -760h-20l157 740q-29 0 -83 10t-87 10q-106 0 -133 -130
l-26 -120h170l-4 -20h-170l-104 -490h-20l104 490h-280l-104 -490h-20l104 490h-100l4 20h101z" />
    <glyph glyph-name="at.case" horiz-adv-x="1010" 
d="M983 463q0 -139 -65 -221t-155 -82q-32 0 -54 10.5t-31 25t-14 29t-4 25.5v10q-2 -4 -6.5 -11t-21 -24t-35.5 -30t-49.5 -24t-64.5 -11q-64 0 -103.5 42.5t-39.5 115.5q0 112 64.5 182t157.5 70q34 0 60.5 -11t40 -26t22.5 -30.5t11 -26.5l3 -11l30 95h9l-55 -260
q-13 -59 8.5 -89.5t71.5 -30.5q83 0 141.5 75.5t58.5 207.5q0 137 -92.5 224.5t-251.5 87.5q-130 0 -245.5 -64.5t-186 -177t-70.5 -243.5q0 -146 91.5 -240.5t236.5 -94.5q62 0 120.5 15t85.5 30l27 15h5l-4 -20q-11 -7 -30 -17t-80.5 -26.5t-123.5 -16.5
q-153 0 -250.5 101t-97.5 254q0 136 73.5 253t193.5 184.5t255 67.5q167 0 265.5 -94t98.5 -238zM483 180q85 0 143 64t58 168q0 66 -33 102t-89 36q-85 0 -143 -64t-58 -168q0 -66 33 -102t89 -36z" />
    <glyph glyph-name="parenleft.case" horiz-adv-x="360" 
d="M139 205q0 -60 8 -119t19.5 -99.5t23.5 -73t20 -47.5l8 -16h-20q-9 16 -22 45t-35 121.5t-22 188.5q0 102 30.5 208t74 184.5t87 142.5t73.5 97l31 33h20q-12 -12 -32 -34.5t-71 -94t-90 -145.5t-71 -181.5t-32 -209.5z" />
    <glyph glyph-name="parenright.case" horiz-adv-x="360" 
d="M274 515q0 96 -20 184.5t-40 129.5l-19 41h20q9 -16 22 -45t35 -121.5t22 -188.5q0 -102 -30.5 -208t-74 -184.5t-87 -142.5t-74.5 -97l-30 -33h-20q12 12 32 34.5t71 94t90 145.5t71 181.5t32 209.5z" />
    <glyph glyph-name="bracketleft.case" horiz-adv-x="380" 
d="M39 -145l216 1015h210l-5 -20h-190l-207 -975h190l-4 -20h-210z" />
    <glyph glyph-name="bracketright.case" horiz-adv-x="380" 
d="M395 870l-216 -1015h-210l4 20h190l207 975h-190l5 20h210z" />
    <glyph glyph-name="braceleft.case" horiz-adv-x="380" 
d="M161 365l-1 -5q5 -2 13 -6t21 -23t13 -46q0 -18 -4 -35l-58 -270q-4 -17 -4 -35q0 -70 72 -70h40l-4 -20h-40q-41 0 -64.5 23t-23.5 65q0 20 4 37l58 270q4 24 4 33q0 72 -92 72l3 15q110 0 133 105l57 270q13 59 48 92t84 33h44l-4 -20h-40q-42 0 -71.5 -26.5
t-40.5 -78.5l-57 -270q-9 -42 -31.5 -69.5t-40.5 -33.5z" />
    <glyph glyph-name="braceright.case" horiz-adv-x="380" 
d="M272 360l1 5q-5 2 -13 6t-21 23t-13 46q0 18 4 35l58 270q4 17 4 35q0 70 -72 70h-40l4 20h40q41 0 64.5 -23t23.5 -65q0 -20 -4 -37l-58 -270q-4 -24 -4 -33q0 -72 92 -72l-3 -15q-111 0 -133 -105l-57 -270q-13 -59 -48 -92t-84 -33h-44l4 20h40q89 0 112 105l57 270
q9 42 31.5 69.5t40.5 34.5z" />
    <glyph glyph-name="exclamdown.case" horiz-adv-x="290" 
d="M226 570l-136 -640h-20l136 640h20zM271 715q0 -13 -9 -21.5t-22 -8.5q-20 0 -20 20q0 13 9 21.5t22 8.5q20 0 20 -20z" />
    <glyph glyph-name="questiondown.case" horiz-adv-x="470" 
d="M329 560h20q-13 -61 -48 -111.5t-74.5 -84t-78 -66t-63.5 -74.5t-25 -93q0 -57 36.5 -91.5t99.5 -34.5q31 0 61.5 7.5t52 18.5t38.5 22.5t26 18.5l8 8h5l-4 -20q-8 -8 -23 -20.5t-64 -33.5t-100 -21q-71 0 -113.5 41t-42.5 105q0 53 25.5 96.5t64 76.5t78 66.5t74.5 82.5
t47 107zM345 705q0 13 9 21.5t22 8.5q20 0 20 -20q0 -13 -9 -21.5t-22 -8.5q-20 0 -20 20z" />
    <glyph glyph-name="guillemotleft.case" horiz-adv-x="450" 
d="M98 362l116 -222h-23l-115 220l2 10l206 220h26zM263 362l116 -222h-23l-115 220l2 10l206 220h26z" />
    <glyph glyph-name="guillemotright.case" horiz-adv-x="450" 
d="M406 368l-116 222h23l115 -220l-2 -10l-206 -220h-26zM241 368l-116 222h23l115 -220l-2 -10l-206 -220h-26z" />
    <glyph glyph-name="guilsinglleft.case" horiz-adv-x="355" 
d="M360 590l-241 -228l145 -222h-25l-143 220l2 10l234 220h28z" />
    <glyph glyph-name="guilsinglright.case" horiz-adv-x="355" 
d="M49 140l241 228l-145 222h25l143 -220l-2 -10l-234 -220h-28z" />
    <glyph glyph-name="hyphen.case" horiz-adv-x="420" 
d="M85 355l4 20h300l-4 -20h-300z" />
    <glyph glyph-name="endash.case" horiz-adv-x="560" 
d="M85 355l4 20h440l-4 -20h-440z" />
    <glyph glyph-name="emdash.case" horiz-adv-x="920" 
d="M85 355l4 20h800l-4 -20h-800z" />
    <glyph glyph-name="periodcentered.case" horiz-adv-x="240" 
d="M173 370q0 -13 -9 -21.5t-22 -8.5q-20 0 -20 20q0 13 9 21.5t22 8.5q20 0 20 -20z" />
    <glyph glyph-name="bullet.case" horiz-adv-x="340" 
d="M247 365q0 -23 -13.5 -36.5t-36.5 -13.5t-36.5 13.5t-13.5 36.5t13.5 36.5t36.5 13.5t36.5 -13.5t13.5 -36.5z" />
    </font>
</defs>
</svg>
