<?xml version="1.0" standalone="no"?>
<!DOCTYPE svg PUBLIC "-//W3C//DTD SVG 1.1//EN" "http://www.w3.org/Graphics/SVG/1.1/DTD/svg11.dtd" >
<svg xmlns="http://www.w3.org/2000/svg" xmlns:xlink="http://www.w3.org/1999/xlink" version="1.1">
<metadata>
Created by FontForge 20170731 at Wed Dec  6 20:29:50 2017
 By Aleksey,,,
Copyright (c) 2018 by TypeType. Designer Ivan Gladkikh, technical designers Philipp Nurullin, Nadyr Rakhimov, Olexa Volochay, Vika Usmanova. All rights reserved.
</metadata>
<defs>
<font id="TTWellingtons-MediumItalic" horiz-adv-x="570" >
  <font-face 
    font-family="TT Wellingtons Light"
    font-weight="500"
    font-style="italic"
    font-stretch="normal"
    units-per-em="1000"
    panose-1="2 0 8 3 0 0 0 9 0 4"
    ascent="800"
    descent="-200"
    x-height="520"
    cap-height="730"
    bbox="-260 -280 1438 1020"
    underline-thickness="50"
    underline-position="-250"
    unicode-range="U+000D-FB14"
  />
<missing-glyph horiz-adv-x="650" 
d="M150 730h400v-730h-400v730zM490 40l-140 280l-140 -280h280zM350 410l140 280h-280zM370 365l140 -280v560zM330 365l-140 280v-560z" />
    <glyph glyph-name="f_f" unicode="ff" horiz-adv-x="755" 
d="M536 520l20 95q37 175 190 175q36 0 65 -12.5t41 -25.5l11 -12l-44 -65q-2 4 -6.5 10t-23.5 15.5t-43 9.5q-85 0 -105 -95l-20 -95h165l-17 -80h-165l-94 -440h-85l94 440h-260l-94 -440h-85l94 440h-100l17 80h100l16 75q37 175 190 175q36 0 65 -12.5t40 -25.5l12 -12
l-44 -65q-2 4 -6.5 10t-23.5 15.5t-43 9.5q-85 0 -105 -95l-16 -75h260z" />
    <glyph glyph-name="f_i" unicode="fi" horiz-adv-x="640" 
d="M191 520l20 95q37 175 190 175q36 0 65 -12.5t40 -25.5l12 -12l-44 -65q-2 4 -6.5 10t-23.5 15.5t-43 9.5q-85 0 -105 -95l-20 -95h295l46 5l-112 -525h-85l94 440h-255l-94 -440h-85l94 440h-100l17 80h100zM557 689q0 29 20.5 47.5t47.5 18.5q20 0 32.5 -11.5
t12.5 -32.5q0 -29 -20.5 -47.5t-47.5 -18.5q-20 0 -32.5 11.5t-12.5 32.5z" />
    <glyph glyph-name="f_l" unicode="fl" horiz-adv-x="673" 
d="M615 70l-14 -65q-24 -20 -64 -20q-44 0 -70.5 24.5t-26.5 67.5q0 19 4 38l122 575q-36 0 -87.5 10t-82.5 10q-80 0 -100 -95l-20 -95h165l-17 -80h-165l-94 -440h-85l94 440h-100l17 80h100l20 95q37 175 185 175q38 0 96 -10t92 -10h85l-140 -655q-3 -14 -3 -22
q0 -33 41 -33q9 0 17 2.5t12 5.5l4 2h15z" />
    <glyph glyph-name="f_f_i" unicode="ffi" horiz-adv-x="986" 
d="M191 520l16 75q37 175 190 175q36 0 65 -12.5t40 -25.5l12 -12l-44 -65q-2 4 -6.5 10t-23.5 15.5t-43 9.5q-85 0 -105 -95l-16 -75h255l20 95q37 175 190 175q36 0 65 -12.5t40 -25.5l12 -12l-44 -65q-2 4 -6.5 10t-23.5 15.5t-43 9.5q-85 0 -105 -95l-20 -95h300l46 5
l-112 -525h-85l94 440h-260l-94 -440h-85l94 440h-255l-94 -440h-85l94 440h-100l17 80h100zM903 689q0 29 20.5 47.5t47.5 18.5q20 0 32.5 -11.5t12.5 -32.5q0 -29 -20.5 -47.5t-47.5 -18.5q-20 0 -32.5 11.5t-12.5 32.5z" />
    <glyph glyph-name="f_f_l" unicode="ffl" horiz-adv-x="1013" 
d="M955 70l-14 -65q-24 -20 -64 -20q-44 0 -70.5 24.5t-26.5 67.5q0 19 4 38l122 575q-36 0 -87.5 10t-82.5 10q-80 0 -100 -95l-21 -95h165l-17 -80h-165l-93 -440h-85l93 440h-254l-94 -440h-85l94 440h-100l17 80h100l16 75q37 175 190 175q36 0 65 -12.5t40 -25.5
l12 -12l-44 -65q-2 4 -6.5 10t-23.5 15.5t-43 9.5q-85 0 -105 -95l-16 -75h254l21 95q37 175 185 175q38 0 96 -10t92 -10h85l-140 -655q-3 -14 -3 -22q0 -33 41 -33q9 0 17 2.5t12 5.5l4 2h15z" />
    <glyph glyph-name="f_f_b" unicode="ffb" horiz-adv-x="1375" 
d="M1335 312q0 -141 -96 -234t-240 -93q-53 0 -111.5 10t-90.5 20l-32 10l141 665q-36 0 -87.5 10t-82.5 10q-80 0 -100 -95l-20 -95h165l-17 -80h-165l-94 -440h-85l94 440h-255l-94 -440h-85l94 440h-100l17 80h100l16 75q37 175 190 175q36 0 65 -12.5t40 -25.5l12 -12
l-44 -65q-2 4 -7.5 10.5t-23.5 15.5t-42 9q-85 0 -105 -95l-16 -75h255l20 95q37 175 185 175q38 0 96 -10t92 -10h85l-66 -310h5q8 8 22 20.5t60.5 33.5t95.5 21q99 0 154 -60.5t55 -162.5zM914 325l-52 -243q47 -17 137 -17q106 0 177.5 70t71.5 177q0 67 -37 105t-100 38
q-36 0 -70 -13.5t-56 -32.5t-39 -38t-24 -33z" />
    <glyph glyph-name="f_f_f" unicode="fff" horiz-adv-x="1086" 
d="M871 520l16 75q17 83 66.5 129t123.5 46q36 0 65 -12.5t40 -25.5l12 -12l-44 -65q-2 4 -6.5 10t-23.5 15.5t-43 9.5q-85 0 -105 -95l-16 -75h165l-17 -80h-165l-94 -440h-85l94 440h-255l-94 -440h-85l94 440h-255l-94 -440h-85l94 440h-100l17 80h100l16 75
q37 175 190 175q36 0 65 -12.5t40 -25.5l12 -12l-44 -65q-2 4 -6.5 10t-23.5 15.5t-43 9.5q-85 0 -105 -95l-16 -75h255l20 95q37 175 190 175q36 0 65 -12.5t40 -25.5l12 -12l-44 -65q-2 4 -6.5 10t-23.5 15.5t-43 9.5q-85 0 -105 -95l-20 -95h255z" />
    <glyph glyph-name="f_f_h" unicode="ffh" horiz-adv-x="1360" 
d="M1235 0h-85l68 320q5 27 5 43q0 92 -111 92q-71 0 -131 -49.5t-75 -120.5l-61 -285h-85l146 690q-36 0 -87.5 10t-82.5 10q-80 0 -100 -95l-20 -95h165l-17 -80h-165l-94 -440h-85l94 440h-255l-94 -440h-85l94 440h-100l17 80h100l16 75q37 175 190 175q36 0 65 -12.5
t40 -25.5l12 -12l-44 -65q-2 4 -6.5 10t-23.5 15.5t-43 9.5q-85 0 -105 -95l-16 -75h255l20 95q37 175 185 175q38 0 96 -10t92 -10h85l-69 -320h5q3 3 8.5 9t24 20.5t38 26t50 20.5t61.5 9q88 0 135 -44t47 -119q0 -25 -6 -52z" />
    <glyph glyph-name="f_f_j" unicode="ffj" horiz-adv-x="986" 
d="M761 -20l98 460h-260l-94 -440h-85l94 440h-255l-94 -440h-85l94 440h-100l17 80h100l16 75q37 175 190 175q36 0 65 -12.5t40 -25.5l12 -12l-44 -65l-2 3q-2 2 -4.5 5t-6.5 6.5t-10 7t-13 6.5t-16.5 5t-20.5 2q-85 0 -105 -95l-16 -75h255l20 95q37 175 190 175
q36 0 65 -12.5t40 -25.5l12 -12l-44 -65q-2 4 -6.5 10t-23.5 15.5t-43 9.5q-85 0 -105 -95l-20 -95h300l46 5l-116 -545q-20 -94 -72 -143t-140 -57l2 80q55 8 83.5 34.5t41.5 85.5zM903 689q0 29 20.5 47.5t47.5 18.5q20 0 32.5 -11.5t12.5 -32.5q0 -29 -20.5 -47.5
t-47.5 -18.5q-20 0 -32.5 11.5t-12.5 32.5z" />
    <glyph glyph-name="f_f_k" unicode="ffk" horiz-adv-x="1285" 
d="M1135 0l-144 240l-115 -95l-31 -145h-85l147 690q-36 0 -87.5 10t-83.5 10q-80 0 -100 -95l-20 -95h165l-17 -80h-165l-94 -440h-85l94 440h-255l-94 -440h-85l94 440h-100l17 80h100l16 75q37 175 190 175q36 0 65 -12.5t40 -25.5l12 -12l-44 -65q-2 4 -6.5 10
t-23.5 15.5t-43 9.5q-85 0 -105 -95l-16 -75h255l20 95q37 175 185 175q38 0 96 -10t92 -10h85l-108 -505l309 255h121l-273 -225l177 -295h-100z" />
    <glyph glyph-name="f_h" unicode="fh" horiz-adv-x="1020" 
d="M895 0h-85l68 320q5 27 5 43q0 92 -111 92q-71 0 -131 -49.5t-75 -120.5l-61 -285h-85l146 690q-36 0 -87.5 10t-82.5 10q-80 0 -100 -95l-20 -95h165l-17 -80h-165l-94 -440h-85l94 440h-100l17 80h100l20 95q37 175 185 175q38 0 96 -10t92 -10h85l-69 -320h5
q3 3 8.5 9t24 20.5t38 26t50 20.5t61.5 9q88 0 135 -44t47 -119q0 -25 -6 -52z" />
    <glyph glyph-name="f_j" unicode="fj" horiz-adv-x="641" 
d="M191 520l20 95q37 175 190 175q36 0 65 -12.5t40 -25.5l12 -12l-44 -65q-2 4 -6.5 10t-23.5 15.5t-43 9.5q-85 0 -105 -95l-20 -95h295l46 5l-116 -545q-20 -94 -72 -143t-140 -57l2 80q55 8 83.5 34.5t41.5 85.5l98 460h-255l-94 -440h-85l94 440h-100l17 80h100z
M558 689q0 29 20.5 47.5t47.5 18.5q20 0 32.5 -11.5t12.5 -32.5q0 -29 -20.5 -47.5t-47.5 -18.5q-20 0 -32.5 11.5t-12.5 32.5z" />
    <glyph glyph-name="f_k" unicode="fk" horiz-adv-x="945" 
d="M795 0l-144 240l-115 -95l-31 -145h-85l147 690q-36 0 -87.5 10t-83.5 10q-80 0 -100 -95l-20 -95h165l-17 -80h-165l-94 -440h-85l94 440h-100l17 80h100l20 95q37 175 185 175q38 0 96 -10t92 -10h85l-108 -505l309 255h121l-273 -225l177 -295h-100z" />
    <glyph glyph-name="f_t" unicode="ft" horiz-adv-x="771" 
d="M445 160l59 280h-245l-94 -440h-85l94 440h-100l17 80h100l20 95q37 175 190 175q36 0 65 -12.5t40 -25.5l12 -12l-44 -65q-2 4 -6.5 10t-23.5 15.5t-43 9.5q-85 0 -105 -95l-20 -95h189l170 155h5l-34 -155h166l-18 -80h-165l-59 -280q-4 -16 -4 -33q0 -62 64 -62
q24 0 49 10t37 20l13 10h15l-16 -75q-4 -5 -12.5 -12.5t-36.5 -20t-59 -12.5q-60 0 -100 36t-40 97q0 17 5 42z" />
    <glyph glyph-name="f_b" unicode="fb" horiz-adv-x="1035" 
d="M995 312q0 -141 -96 -234t-240 -93q-53 0 -111.5 10t-90.5 20l-32 10l141 665q-36 0 -87.5 10t-82.5 10q-80 0 -100 -95l-20 -95h165l-17 -80h-165l-94 -440h-85l94 440h-100l17 80h100l20 95q37 175 185 175q38 0 96 -10t92 -10h85l-66 -310h5q8 8 22 20.5t60.5 33.5
t95.5 21q99 0 154 -60.5t55 -162.5zM574 325l-52 -243q47 -17 137 -17q106 0 177.5 70t71.5 177q0 67 -37 105t-100 38q-36 0 -70 -13.5t-56 -32.5t-39 -38t-24 -33z" />
    <glyph glyph-name=".notdef" horiz-adv-x="650" 
d="M150 730h400v-730h-400v730zM490 40l-140 280l-140 -280h280zM350 410l140 280h-280zM370 365l140 -280v560zM330 365l-140 280v-560z" />
    <glyph glyph-name=".null" horiz-adv-x="0" 
 />
    <glyph glyph-name=".null" horiz-adv-x="0" 
 />
    <glyph glyph-name="nonmarkingreturn" horiz-adv-x="333" 
 />
    <glyph glyph-name="CR" unicode="&#xd;" horiz-adv-x="0" 
 />
    <glyph glyph-name="space" unicode=" " horiz-adv-x="260" 
 />
    <glyph glyph-name="exclam" unicode="!" horiz-adv-x="280" 
d="M251 545l-96 -355h-50l56 355l54 255h90zM156 56q0 -30 -20 -48t-48 -18q-20 0 -32.5 11.5t-12.5 32.5q0 30 20 48t48 18q20 0 32.5 -11.5t12.5 -32.5z" />
    <glyph glyph-name="quotedbl" unicode="&#x22;" horiz-adv-x="400" 
d="M148 530l25 190l17 80h90l-17 -80l-55 -190h-60zM318 530l25 190l17 80h90l-17 -80l-55 -190h-60z" />
    <glyph glyph-name="numbersign" unicode="#" horiz-adv-x="725" 
d="M320 0l80 190h-165l-80 -190h-85l80 190h-120l16 75h135l82 200h-135l16 75h150l81 190h85l-81 -190h165l81 190h85l-81 -190h120l-16 -75h-135l-82 -200h135l-16 -75h-150l-80 -190h-85zM348 465l-82 -200h165l82 200h-165z" />
    <glyph glyph-name="dollar" unicode="$" 
d="M180 -95l17 84q-35 4 -67 16t-53.5 25t-37.5 25.5t-23 20.5l-8 9l51 75q2 -3 5.5 -8.5t17 -19.5t30 -25t44.5 -22t59 -14l60 283q-33 19 -54 35t-44 39.5t-34.5 53t-11.5 64.5q0 79 63.5 136t163.5 62l17 81h90l-19 -88q40 -8 74 -25t48 -30l14 -12l-51 -75
q-35 42 -103 58l-54 -254q32 -21 53 -37.5t43.5 -40t34 -52t11.5 -61.5q0 -82 -64.5 -145t-164.5 -75l-17 -83h-90zM418 208q0 50 -64 97l-48 -228q53 14 82.5 49.5t29.5 81.5zM227 546q0 -47 68 -96l44 207q-55 -8 -83.5 -38.5t-28.5 -72.5z" />
    <glyph glyph-name="percent" unicode="%" horiz-adv-x="850" 
d="M447 600q0 -78 -55 -131.5t-133 -53.5q-71 0 -110.5 40.5t-39.5 104.5q0 78 55 131.5t133 53.5q71 0 110.5 -40.5t39.5 -104.5zM366 600q0 32 -18.5 51t-50.5 19q-45 0 -76 -31t-31 -79q0 -32 18.5 -51t50.5 -19q45 0 76 31t31 79zM796 170q0 -78 -55 -131.5t-133 -53.5
q-71 0 -110.5 40.5t-39.5 104.5q0 78 55 131.5t133 53.5q71 0 110.5 -40.5t39.5 -104.5zM715 170q0 32 -18.5 51t-50.5 19q-45 0 -76 -31t-31 -79q0 -32 18.5 -51t50.5 -19q45 0 76 31t31 79zM90 0l615 730h100l-615 -730h-100z" />
    <glyph glyph-name="ampersand" unicode="&#x26;" horiz-adv-x="705" 
d="M551 151l127 -151h-118l-79 94q-5 -4 -13.5 -11.5t-36.5 -26.5t-57.5 -33t-73 -26t-85.5 -12q-92 0 -145 47.5t-53 125.5q0 47 21.5 88.5t52.5 67.5t62.5 45.5t52.5 27.5l22 8q-5 6 -12 18t-19 51t-12 79q0 87 61 144.5t155 57.5q70 0 113.5 -40t43.5 -113
q0 -38 -20 -74.5t-49 -61t-57.5 -44t-48.5 -28.5l-20 -9l137 -162l207 150l-27 -119zM429 156l-148 174q-7 -2 -18.5 -7t-40.5 -21t-51.5 -34.5t-41 -48t-18.5 -61.5q0 -40 27 -64t77 -24q51 0 104.5 21.5t81.5 42.5zM470 592q0 35 -21.5 51.5t-52.5 16.5q-50 0 -84.5 -34
t-34.5 -83q0 -25 9.5 -52t19.5 -41l10 -15q6 3 16.5 8t37 21.5t47 33.5t37 43t16.5 51z" />
    <glyph glyph-name="quotesingle" unicode="'" horiz-adv-x="230" 
d="M148 530l25 190l17 80h90l-17 -80l-55 -190h-60z" />
    <glyph glyph-name="parenleft" unicode="(" horiz-adv-x="345" 
d="M148 124q0 -94 17.5 -180t34.5 -125l18 -39h-70q-3 5 -9 15.5t-20.5 44.5t-25.5 71.5t-20 95.5t-9 117q0 106 30 214t72.5 187.5t85.5 144t73 97.5l30 33h80q-12 -12 -31 -34.5t-68.5 -94.5t-87.5 -146.5t-69 -184.5t-31 -216z" />
    <glyph glyph-name="parenright" unicode=")" horiz-adv-x="345" 
d="M220 456q0 94 -17.5 180t-34.5 125l-18 39h70q3 -5 9 -15.5t20.5 -44.5t25.5 -71.5t20 -95.5t9 -117q0 -106 -30 -214t-72.5 -187.5t-85.5 -144t-73 -97.5l-30 -33h-80q12 12 31 34.5t68.5 94.5t87.5 146.5t69 184.5t31 216z" />
    <glyph glyph-name="asterisk" unicode="*" horiz-adv-x="440" 
d="M288 525l-107 -105l-49 49l103 97l-114 50l37 59l111 -45l26 120h70l-26 -120l127 45l14 -67l-131 -49l61 -97l-59 -42z" />
    <glyph glyph-name="plus" unicode="+" horiz-adv-x="525" 
d="M513 365l-17 -80h-180l-38 -180h-85l38 180h-180l17 80h180l38 180h85l-38 -180h180z" />
    <glyph glyph-name="comma" unicode="," horiz-adv-x="180" 
d="M-7 34q0 30 20 48t48 18q20 0 32.5 -11.5t12.5 -32.5q0 -38 -34 -95t-86 -96h-30q8 7 19.5 19.5t34 45.5t28.5 60q-20 0 -32.5 11.5t-12.5 32.5z" />
    <glyph glyph-name="hyphen" unicode="-" horiz-adv-x="390" 
d="M46 285l17 80h320l-17 -80h-320z" />
    <glyph glyph-name="period" unicode="." horiz-adv-x="180" 
d="M106 56q0 -30 -20 -48t-48 -18q-20 0 -32.5 11.5t-12.5 32.5q0 30 20 48t48 18q20 0 32.5 -11.5t12.5 -32.5z" />
    <glyph glyph-name="slash" unicode="/" horiz-adv-x="480" 
d="M-97 -220l602 1020h95l-602 -1020h-95z" />
    <glyph glyph-name="zero" unicode="0" horiz-adv-x="660" 
d="M140 224q0 -68 42.5 -111t112.5 -43q95 0 165 66t70 160q0 68 -42 111t-112 43q-96 0 -166 -66t-70 -160zM48 224q0 128 97.5 219.5t230.5 91.5q113 0 179.5 -67.5t66.5 -171.5q0 -128 -97 -219.5t-230 -91.5q-114 0 -180.5 67.5t-66.5 171.5z" />
    <glyph glyph-name="one" unicode="1" horiz-adv-x="340" 
d="M55 330l20 95l185 95h60l-110 -520h-90l87 410z" />
    <glyph glyph-name="two" unicode="2" horiz-adv-x="505" 
d="M-28 10l311 240q48 36 72.5 68t24.5 67q0 65 -89 65q-44 0 -93.5 -25t-76.5 -50l-27 -25h-15l22 100q4 3 10.5 9t28 20.5t43.5 26t54.5 20.5t63.5 9q82 0 127 -41.5t45 -108.5q0 -33 -12 -63t-36 -56t-40 -40t-45 -36l-137 -105h220l-18 -85h-435z" />
    <glyph glyph-name="three" unicode="3" horiz-adv-x="520" 
d="M212 150q-29 0 -54 -6t-36 -12l-11 -7l-35 70l257 245h-240l17 80h415l-2 -10l-287 -270l-1 -5q96 0 153.5 -57t57.5 -145q0 -109 -82.5 -183.5t-213.5 -74.5q-58 0 -111.5 21.5t-78.5 42.5l-25 21l51 75q2 -3 6 -8t18.5 -18t32 -23t46.5 -18t61 -8q94 0 149.5 49
t55.5 124q0 53 -37 85t-106 32z" />
    <glyph glyph-name="four" unicode="4" 
d="M523 85l-18 -85h-110l-45 -210h-90l45 210h-340l2 10l384 510h105l-328 -435h195l42 195h90l-42 -195h110z" />
    <glyph glyph-name="five" unicode="5" horiz-adv-x="565" 
d="M388 52q0 58 -37 93t-103 35q-38 0 -75 -15t-55 -30l-18 -15l-48 30l133 370h370l-18 -85h-295l-69 -189q35 19 85 19q103 0 162.5 -60t59.5 -153q0 -116 -86 -196.5t-214 -80.5q-58 0 -113 21.5t-81 42.5l-26 21l51 75q2 -3 6.5 -8t20 -18t33.5 -23t47.5 -18t61.5 -8
q91 0 149.5 55t58.5 137z" />
    <glyph glyph-name="six" unicode="6" horiz-adv-x="600" 
d="M410 730h116q-9 -6 -24 -17.5t-57.5 -46.5t-79.5 -70t-78.5 -84t-66.5 -92h5q4 4 12.5 10t40 15.5t67.5 9.5q100 0 156.5 -55t56.5 -146q0 -117 -79.5 -193t-205.5 -76q-106 0 -164.5 55t-58.5 146q0 78 37 163t90 150t106 119t90 83zM335 375q-88 0 -140.5 -52.5
t-52.5 -136.5q0 -56 34 -88.5t97 -32.5q88 0 140.5 52.5t52.5 136.5q0 56 -34 88.5t-97 32.5z" />
    <glyph glyph-name="seven" unicode="7" horiz-adv-x="520" 
d="M130 -210h-100l377 645h-335l18 85h460l-2 -10z" />
    <glyph glyph-name="eight" unicode="8" horiz-adv-x="620" 
d="M334 350q-95 0 -147 -47t-52 -122q0 -52 35.5 -81.5t104.5 -29.5q95 0 146.5 47t51.5 122q0 52 -35 81.5t-104 29.5zM400 660q-74 0 -116 -38.5t-42 -100.5q0 -42 28 -66.5t81 -24.5q74 0 116 38.5t42 100.5q0 42 -28 66.5t-81 24.5zM275 -15q-112 0 -172 54.5t-60 141.5
q0 49 17 89.5t41.5 62.5t48.5 37t41 20l17 5l1 5q-2 1 -6 4t-14 13t-17.5 22.5t-13.5 34.5t-6 47q0 96 68.5 160t179.5 64q96 0 148.5 -49t52.5 -127q0 -39 -13.5 -71.5t-33 -50.5t-39 -30.5t-33.5 -16.5l-13 -5l-1 -5q4 -2 10.5 -5t22.5 -15.5t28.5 -28t23 -43t10.5 -59.5
q0 -110 -78 -182t-210 -72z" />
    <glyph glyph-name="nine" unicode="9" horiz-adv-x="600" 
d="M201 -210h-116q9 6 24 17.5t57.5 46.5t79.5 70t78.5 84t66.5 92h-5q-4 -4 -12.5 -10t-40 -15.5t-67.5 -9.5q-100 0 -156.5 55t-56.5 146q0 117 79.5 193t205.5 76q106 0 164.5 -55t58.5 -146q0 -78 -37 -163t-90 -150t-106 -119t-90 -83zM276 145q88 0 140.5 52.5
t52.5 136.5q0 56 -34 88.5t-97 32.5q-88 0 -140.5 -52.5t-52.5 -136.5q0 -56 34 -88.5t97 -32.5z" />
    <glyph glyph-name="colon" unicode=":" horiz-adv-x="190" 
d="M111 56q0 -30 -20 -48t-48 -18q-20 0 -32.5 11.5t-12.5 32.5q0 30 20 48t48 18q20 0 32.5 -11.5t12.5 -32.5zM205 496q0 -30 -20 -48t-48 -18q-20 0 -32.5 11.5t-12.5 32.5q0 30 20 48t48 18q20 0 32.5 -11.5t12.5 -32.5z" />
    <glyph glyph-name="semicolon" unicode=";" horiz-adv-x="190" 
d="M205 496q0 -30 -20 -48t-48 -18q-20 0 -32.5 11.5t-12.5 32.5q0 30 20 48t48 18q20 0 32.5 -11.5t12.5 -32.5zM-2 34q0 30 20 48t48 18q20 0 32.5 -11.5t12.5 -32.5q0 -38 -34 -95t-86 -96h-30q8 7 19.5 19.5t34 45.5t28.5 60q-20 0 -32.5 11.5t-12.5 32.5z" />
    <glyph glyph-name="less" unicode="&#x3c;" horiz-adv-x="525" 
d="M180 252l267 -172l-17 -80l-396 255l4 20l504 255l-20 -96l-340 -172z" />
    <glyph glyph-name="equal" unicode="=" horiz-adv-x="525" 
d="M38 180l17 80h425l-17 -80h-425zM83 390l17 80h425l-17 -80h-425z" />
    <glyph glyph-name="greater" unicode="&#x3e;" horiz-adv-x="525" 
d="M357 278l-267 172l17 80l396 -255l-4 -20l-504 -255l20 96l340 172z" />
    <glyph glyph-name="question" unicode="?" horiz-adv-x="485" 
d="M116 570l21 100q3 3 8.5 8t24.5 18t40 23t53.5 18t66.5 8q83 0 133 -47t50 -118q0 -46 -25.5 -88.5t-63 -76.5t-76.5 -66t-70.5 -71t-39.5 -78h-85q10 45 41 90t67.5 80t72 68.5t59.5 70t24 71.5q0 37 -25.5 58.5t-71.5 21.5q-49 0 -96 -22.5t-70 -45.5l-23 -22h-15z
M221 56q0 -30 -20 -48t-48 -18q-20 0 -32.5 11.5t-12.5 32.5q0 30 20 48t48 18q20 0 32.5 -11.5t12.5 -32.5z" />
    <glyph glyph-name="at" unicode="@" horiz-adv-x="990" 
d="M967 403q0 -129 -64 -211t-163 -82q-27 0 -48.5 7t-33.5 17.5t-20 21t-10 17.5l-3 7h-5q-7 -8 -20 -19.5t-51 -31t-74 -19.5q-87 0 -136 49.5t-49 129.5q0 98 69 164.5t169 66.5q40 0 71 -16t43 -32l11 -17l20 55h75l-51 -240q-4 -22 -4 -28q0 -52 57 -52q61 0 93.5 56
t32.5 157q0 114 -76.5 185.5t-209.5 71.5q-174 0 -300.5 -120t-126.5 -291q0 -124 76 -201.5t204 -77.5q67 0 126.5 16.5t86.5 32.5l26 16l-21 -100q-8 -6 -23.5 -14t-71.5 -22t-123 -14q-170 0 -271 103.5t-101 260.5q0 132 73 247t193 182t253 67q176 0 276.5 -97.5
t100.5 -244.5zM475 190q62 0 106 43.5t44 107.5q0 45 -26 72t-71 27q-62 0 -106 -43.5t-44 -107.5q0 -45 26 -72t71 -27z" />
    <glyph glyph-name="A" unicode="A" horiz-adv-x="750" 
d="M545 285l-80 324h-5l-217 -324h302zM566 200h-380l-134 -200h-102l490 730h85l180 -730h-90z" />
    <glyph glyph-name="B" unicode="B" horiz-adv-x="640" 
d="M392 730q105 0 163.5 -50.5t58.5 -125.5q0 -38 -13 -70t-32 -50.5t-37.5 -31.5t-31.5 -18l-13 -4l-1 -5q4 -1 10 -4t22 -15t28 -26.5t22 -40t10 -54.5q0 -96 -80 -165.5t-200 -69.5h-248l155 730h187zM211 335l-53 -250h140q90 0 137.5 41.5t47.5 108.5q0 47 -33 73.5
t-99 26.5h-140zM392 645h-115l-49 -230h115q86 0 129.5 38t43.5 101q0 91 -124 91z" />
    <glyph glyph-name="C" unicode="C" horiz-adv-x="740" 
d="M168 305q0 -106 64 -170.5t172 -64.5q42 0 83.5 12.5t70 30t51.5 35t35 30.5l11 12h15l-21 -100q-3 -4 -9.5 -11t-29 -25.5t-49 -32t-69 -25t-88.5 -11.5q-150 0 -240.5 91t-90.5 229q0 181 135.5 310.5t321.5 129.5q49 0 92.5 -11t70.5 -26.5t46.5 -30.5t28.5 -26l8 -11
l-51 -75q-2 4 -6 10.5t-19.5 22.5t-35.5 28.5t-56 23t-78 10.5q-155 0 -258.5 -101.5t-103.5 -253.5z" />
    <glyph glyph-name="D" unicode="D" horiz-adv-x="745" 
d="M397 730h18q138 0 224.5 -88.5t86.5 -220.5q0 -113 -62 -210.5t-165.5 -154t-220.5 -56.5h-228l155 730h192zM397 645h-120l-119 -560h120q148 0 250.5 96.5t102.5 239.5q0 100 -63 162t-171 62z" />
    <glyph glyph-name="E" unicode="E" horiz-adv-x="615" 
d="M50 0l155 730h450l-18 -85h-360l-49 -230h285l-18 -85h-285l-52 -245h360l-18 -85h-450z" />
    <glyph glyph-name="F" unicode="F" horiz-adv-x="590" 
d="M491 310h-285l-66 -310h-90l155 730h450l-18 -85h-360l-53 -250h285z" />
    <glyph glyph-name="G" unicode="G" horiz-adv-x="800" 
d="M530 745q49 0 92.5 -11t70.5 -26.5t46.5 -30.5t28.5 -26l8 -11l-51 -75q-2 4 -6 10.5t-19.5 22.5t-35.5 28.5t-56 23t-78 10.5q-155 0 -258.5 -101.5t-103.5 -253.5q0 -106 64 -170.5t172 -64.5q60 0 114 20t78 40l25 20l34 160h-245l44 85h310l-58 -270
q-4 -6 -11.5 -15.5t-35.5 -33.5t-60 -42.5t-85 -33.5t-110 -15q-150 0 -240.5 91t-90.5 229q0 181 135.5 310.5t321.5 129.5z" />
    <glyph glyph-name="H" unicode="H" horiz-adv-x="770" 
d="M775 730l-155 -730h-90l70 330h-390l-70 -330h-90l155 730h90l-67 -315h390l67 315h90z" />
    <glyph glyph-name="I" unicode="I" horiz-adv-x="290" 
d="M295 730l-155 -730h-90l155 730h90z" />
    <glyph glyph-name="J" unicode="J" horiz-adv-x="305" 
d="M73 35l148 695h90l-148 -695q-21 -95 -76 -144.5t-158 -60.5l3 85q63 8 96 34.5t45 85.5z" />
    <glyph glyph-name="K" unicode="K" horiz-adv-x="680" 
d="M532 0l-208 353l-133 -115l-51 -238h-90l155 730h90l-76 -360l416 360h125l-371 -321l241 -409h-98z" />
    <glyph glyph-name="L" unicode="L" horiz-adv-x="535" 
d="M295 730l-137 -645h325l-18 -85h-415l155 730h90z" />
    <glyph glyph-name="M" unicode="M" horiz-adv-x="956" 
d="M395 0l-72 527h-5l-202 -527h-101l280 730h78l82 -597h5l347 597h74l-30 -730h-95l25 527h-5l-306 -527h-75z" />
    <glyph glyph-name="N" unicode="N" horiz-adv-x="790" 
d="M795 730l-155 -730h-85l-290 588l-125 -588h-90l155 730h85l290 -588l125 588h90z" />
    <glyph glyph-name="O" unicode="O" horiz-adv-x="870" 
d="M168 305q0 -105 63 -170t168 -65q152 0 254.5 101.5t102.5 253.5q0 105 -63 170t-168 65q-152 0 -254.5 -101.5t-102.5 -253.5zM851 425q0 -89 -37 -171t-98 -140.5t-144.5 -93.5t-172.5 -35q-147 0 -236.5 91t-89.5 229q0 89 37 171t98 140.5t144.5 93.5t172.5 35
q147 0 236.5 -91t89.5 -229z" />
    <glyph glyph-name="P" unicode="P" horiz-adv-x="635" 
d="M193 250l-53 -250h-90l155 730h197q108 0 171 -59t63 -148q0 -113 -88 -193t-212 -80h-143zM277 645l-66 -310h125q93 0 148 52t55 136q0 57 -35.5 89.5t-101.5 32.5h-125z" />
    <glyph glyph-name="Q" unicode="Q" horiz-adv-x="870" 
d="M73 305q0 89 37 171t98 140.5t144.5 93.5t172.5 35q147 0 236.5 -91t89.5 -229q0 -53 -12 -102t-31.5 -85.5t-43 -68.5t-47.5 -53.5t-43.5 -37t-31.5 -22.5l-12 -7q1 -3 2 -8t7.5 -18t14.5 -22.5t23 -17.5t33 -8q16 0 30.5 5t21.5 10l7 5h15l-16 -75q-31 -30 -96 -30
q-30 0 -54.5 12.5t-38.5 30.5t-24 35.5t-13 29.5l-4 13q-56 -26 -139 -26q-147 0 -236.5 91t-89.5 229zM168 305q0 -37 8.5 -70t20.5 -53.5t24 -35.5t21 -22l8 -6q2 6 7 16.5t22.5 37.5t38 47t54.5 37t72 17q35 0 64.5 -14.5t47 -35t30 -41t16.5 -34.5l5 -15q6 4 16 11
t36 33.5t45.5 57.5t35.5 82t16 108q0 105 -63 170t-168 65q-152 0 -254.5 -101.5t-102.5 -253.5zM399 70q29 0 58.5 5t44.5 9l15 5q-1 4 -3 11.5t-10.5 25.5t-18.5 32t-27 25.5t-37 11.5q-27 0 -50 -10.5t-37.5 -25.5t-24.5 -30t-15 -25l-4 -11q44 -23 109 -23z" />
    <glyph glyph-name="R" unicode="R" horiz-adv-x="650" 
d="M277 645l-64 -300h125q88 0 142 51.5t54 131.5q0 53 -35 85t-97 32h-125zM436 275l129 -275h-100l-124 265h-145l-56 -265h-90l155 730h197q105 0 167.5 -58.5t62.5 -143.5q0 -56 -20 -102t-49 -72t-57.5 -44t-48.5 -24l-20 -6z" />
    <glyph glyph-name="S" unicode="S" horiz-adv-x="560" 
d="M375 745q38 0 73 -7.5t58.5 -18.5t41.5 -22.5t26 -18.5l8 -8l-51 -75q-6 7 -17 18t-51.5 29t-87.5 18q-72 0 -110 -32.5t-38 -81.5q0 -34 30 -64t72.5 -55.5t84.5 -53.5t72 -70.5t30 -94.5q0 -91 -78 -157t-193 -66q-43 0 -83.5 10.5t-67 25t-47 29t-29.5 24.5l-10 11
l51 75q2 -4 6.5 -10t20.5 -21.5t35.5 -27.5t52.5 -21.5t71 -9.5q80 0 126.5 39.5t46.5 98.5q0 32 -21.5 59t-53 45.5t-69 42t-69 47t-53 61t-21.5 83.5q0 82 69 140.5t175 58.5z" />
    <glyph glyph-name="T" unicode="T" horiz-adv-x="610" 
d="M135 730h550l-18 -85h-230l-137 -645h-90l137 645h-230z" />
    <glyph glyph-name="U" unicode="U" horiz-adv-x="750" 
d="M195 730h90l-99 -465q-6 -27 -6 -52q0 -67 42 -105t118 -38q90 0 153 52.5t83 142.5l99 465h90l-99 -465q-28 -130 -112.5 -205t-213.5 -75q-114 0 -182.5 58.5t-68.5 157.5q0 32 7 64z" />
    <glyph glyph-name="V" unicode="V" horiz-adv-x="745" 
d="M820 730l-465 -730h-85l-155 730h87l128 -603h5l384 603h101z" />
    <glyph glyph-name="W" unicode="W" horiz-adv-x="1065" 
d="M635 730l65 -598h5l336 598h99l-410 -730h-97l-52 479h-5l-266 -479h-95l-100 730h86l82 -598h5l332 598h15z" />
    <glyph glyph-name="X" unicode="X" horiz-adv-x="690" 
d="M760 730l-334 -360l194 -370h-98l-159 303l-281 -303h-112l353 380l-183 350h98l147 -283l263 283h112z" />
    <glyph glyph-name="Y" unicode="Y" horiz-adv-x="670" 
d="M383 295l-63 -295h-90l63 295l-188 435h95l150 -350l292 350h113z" />
    <glyph glyph-name="Z" unicode="Z" horiz-adv-x="640" 
d="M3 60l529 585h-385l18 85h520l-13 -60l-529 -585h415l-18 -85h-550z" />
    <glyph glyph-name="bracketleft" unicode="[" horiz-adv-x="400" 
d="M4 -215l216 1015h260l-18 -85h-170l-180 -845h170l-18 -85h-260z" />
    <glyph glyph-name="backslash" unicode="\" horiz-adv-x="480" 
d="M204 800l179 -1020h-84l-179 1020h84z" />
    <glyph glyph-name="bracketright" unicode="]" horiz-adv-x="400" 
d="M420 800l-216 -1015h-260l18 85h170l180 845h-170l18 85h260z" />
    <glyph glyph-name="asciicircum" unicode="^" horiz-adv-x="530" 
d="M61 380l299 350h20l151 -350h-85l-93 217h-10l-185 -217h-97z" />
    <glyph glyph-name="underscore" unicode="_" horiz-adv-x="400" 
d="M-112 -150l17 80h460l-17 -80h-460z" />
    <glyph glyph-name="grave" unicode="`" horiz-adv-x="240" 
d="M244 770l42 -180h-70l-72 180h100z" />
    <glyph glyph-name="a" unicode="a" horiz-adv-x="628" 
d="M53 204q0 134 95.5 225t239.5 91h221l-110 -520h-80l11 70h-5q-3 -3 -8.5 -9t-23 -20.5t-36.5 -26t-47.5 -20.5t-56.5 -9q-92 0 -146 60.5t-54 158.5zM455 195l52 245h-119q-107 0 -177.5 -68t-70.5 -168q0 -63 35.5 -101t92.5 -38q34 0 65.5 13.5t52.5 32.5t37.5 38
t24.5 33z" />
    <glyph glyph-name="b" unicode="b" horiz-adv-x="645" 
d="M184 325l-52 -243q47 -17 137 -17q106 0 177.5 70t71.5 177q0 67 -37 105t-100 38q-36 0 -70 -13.5t-56 -32.5t-39 -38t-24 -33zM605 312q0 -141 -96 -234t-240 -93q-53 0 -111.5 10t-90.5 20l-32 10l156 735h85l-63 -300h5q8 8 22 20.5t60.5 33.5t95.5 21
q99 0 154 -60.5t55 -162.5z" />
    <glyph glyph-name="c" unicode="c" horiz-adv-x="565" 
d="M135 221q0 -70 43 -113t116 -43q44 0 86 16.5t62 32.5l20 16h15l-18 -85q-2 -2 -7 -6.5t-21 -14.5t-33.5 -18t-46 -14.5t-57.5 -6.5q-116 0 -181 65t-65 171q0 133 95.5 223.5t233.5 90.5q58 0 106 -17.5t67 -35.5l19 -17l-50 -70q-2 2 -5.5 6.5t-16 14.5t-27.5 18
t-40 14.5t-53 6.5q-101 0 -171.5 -67.5t-70.5 -166.5z" />
    <glyph glyph-name="d" unicode="d" horiz-adv-x="665" 
d="M466 70h-5l-9 -9t-25.5 -20.5t-40.5 -26t-53 -20.5t-64 -9q-100 0 -158 65.5t-58 170.5q0 131 93.5 222.5t219.5 91.5q38 0 69.5 -10.5t49.5 -25t30.5 -29t16.5 -24.5l5 -11h5l69 325h85l-161 -760h-80zM510 299q0 69 -40 112.5t-104 43.5q-89 0 -157.5 -68.5
t-68.5 -165.5q0 -69 40 -112.5t104 -43.5q89 0 157.5 68.5t68.5 165.5z" />
    <glyph glyph-name="e" unicode="e" horiz-adv-x="625" 
d="M367 535q96 0 157 -58t61 -142q0 -22 -3.5 -44.5t-6.5 -34.5l-3 -11h-430q-2 -11 -2 -24q0 -70 43 -113t116 -43q56 0 106 17.5t72 35.5l22 17h15l-20 -90l-6.5 -6.5t-20.5 -14.5t-36.5 -18t-55.5 -14.5t-76 -6.5q-116 0 -181 65t-65 171q0 132 93.5 223t220.5 91z
M367 455q-65 0 -120 -37.5t-83 -92.5h335v10q0 51 -35 85.5t-97 34.5z" />
    <glyph glyph-name="f" unicode="f" horiz-adv-x="410" 
d="M190 520l21 95q37 175 190 175q36 0 65 -12.5t40 -25.5l12 -12l-44 -65q-2 4 -6.5 10t-23.5 15.5t-43 9.5q-85 0 -105 -95l-21 -95h165l-17 -80h-165l-93 -440h-85l93 440h-100l17 80h100z" />
    <glyph glyph-name="g" unicode="g" horiz-adv-x="655" 
d="M222 -155q87 0 147 51t79 144l15 60h-5q-3 -3 -8.5 -9t-24.5 -20.5t-39 -26t-51.5 -20.5t-62.5 -9q-99 0 -157 62t-58 159q0 125 91.5 212t217.5 87q35 0 65 -9t47.5 -21.5t29.5 -25t17 -21.5l5 -9h5l20 71h80l-102 -480q-28 -132 -108 -203.5t-203 -71.5q-47 0 -91 11
t-65 22l-21 12v95l6.5 -6.5t21 -14.5t35.5 -18t49.5 -14.5t64.5 -6.5zM144 236q0 -62 38 -101.5t100 -39.5q89 0 155.5 64t66.5 155q0 62 -38 101.5t-100 39.5q-89 0 -155.5 -64t-66.5 -155z" />
    <glyph glyph-name="h" unicode="h" horiz-adv-x="630" 
d="M505 0h-85l68 320q5 27 5 43q0 92 -111 92q-71 0 -131 -49.5t-75 -120.5l-61 -285h-85l161 760h85l-66 -310h5q3 3 8.5 9t24 20.5t38 26t50 20.5t61.5 9q88 0 135 -44t47 -119q0 -25 -6 -52z" />
    <glyph glyph-name="i" unicode="i" horiz-adv-x="250" 
d="M226 525l-111 -525h-85l111 525q19 -5 39 -5zM167 689q0 29 20.5 47.5t47.5 18.5q20 0 32.5 -11.5t12.5 -32.5q0 -29 -20.5 -47.5t-47.5 -18.5q-20 0 -32.5 11.5t-12.5 32.5z" />
    <glyph glyph-name="j" unicode="j" horiz-adv-x="250" 
d="M25 -20l116 545q19 -5 39 -5l46 5l-116 -545q-20 -94 -72 -143t-140 -57l2 80q55 8 83.5 34.5t41.5 85.5zM167 689q0 29 20.5 47.5t47.5 18.5q20 0 32.5 -11.5t12.5 -32.5q0 -29 -20.5 -47.5t-47.5 -18.5q-20 0 -32.5 11.5t-12.5 32.5z" />
    <glyph glyph-name="k" unicode="k" horiz-adv-x="555" 
d="M405 0l-144 240l-115 -95l-31 -145h-85l162 760h85l-106 -495l309 255h121l-273 -225l177 -295h-100z" />
    <glyph glyph-name="l" unicode="l" horiz-adv-x="280" 
d="M225 70l-14 -65q-24 -20 -64 -20q-44 0 -70.5 24.5t-26.5 67.5q0 19 4 38l137 645h85l-137 -645q-3 -13 -3 -22q0 -33 41 -33q9 0 17 2.5t12 5.5l4 2h15z" />
    <glyph glyph-name="m" unicode="m" horiz-adv-x="960" 
d="M835 0h-85l68 320q6 28 6 50q0 85 -97 85q-65 0 -120 -48.5t-71 -121.5l-61 -285h-85l68 320q6 28 6 50q0 85 -97 85q-65 0 -120.5 -48t-70.5 -122l-61 -285h-85l111 520h80l-11 -70h5q3 3 8 9t22 20.5t35 26t46 20.5t56 9q38 0 68 -10.5t46.5 -25t27.5 -29t14 -24.5
l4 -11h5q3 4 9 11t25 24t40.5 30t54 24t66.5 11q73 0 120.5 -41t47.5 -114q0 -29 -7 -60z" />
    <glyph glyph-name="n" unicode="n" horiz-adv-x="630" 
d="M505 0h-85l68 320q5 27 5 43q0 92 -111 92q-71 0 -131 -49.5t-75 -120.5l-61 -285h-85l111 520h80l-11 -70h5q3 3 8.5 9t24 20.5t38 26t50 20.5t61.5 9q87 0 134.5 -44t47.5 -119q0 -25 -6 -52z" />
    <glyph glyph-name="o" unicode="o" horiz-adv-x="660" 
d="M140 221q0 -70 41.5 -113t111.5 -43q97 0 167 68t70 166q0 70 -41.5 113t-111.5 43q-97 0 -167 -68t-70 -166zM617 299q0 -132 -95 -223t-229 -91q-113 0 -176.5 65.5t-63.5 170.5q0 132 95 223t229 91q113 0 176.5 -65.5t63.5 -170.5z" />
    <glyph glyph-name="p" unicode="p" horiz-adv-x="665" 
d="M209 450h5l9 9t25.5 20.5t40.5 26t53 20.5t64 9q100 0 158 -65.5t58 -170.5q0 -131 -93.5 -222.5t-219.5 -91.5q-38 0 -69.5 10.5t-49.5 25t-30.5 29t-17.5 24.5l-4 11h-5l-65 -305h-85l157 740h80zM165 221q0 -69 40 -112.5t104 -43.5q89 0 157.5 68.5t68.5 165.5
q0 69 -40 112.5t-104 43.5q-89 0 -157.5 -68.5t-68.5 -165.5z" />
    <glyph glyph-name="q" unicode="q" horiz-adv-x="645" 
d="M49 204q0 135 97 225.5t248 90.5h231l-157 -740h-85l59 280h-5q-8 -8 -22 -20.5t-60.5 -33.5t-95.5 -21q-99 0 -154.5 60t-55.5 159zM471 195l52 245h-129q-113 0 -185.5 -67.5t-72.5 -168.5q0 -63 37.5 -101t100.5 -38q36 0 70 13.5t56 32.5t39 38t25 33z" />
    <glyph glyph-name="r" unicode="r" horiz-adv-x="455" 
d="M362 455q-24 0 -51 -12.5t-48 -30t-39 -35t-28 -29.5l-10 -13l-71 -335h-85l111 520h80l-12 -70h5q2 3 6.5 9t20 20.5t32.5 26t44 20.5t55 9q37 0 69 -11.5t45 -22.5l13 -11l-41 -75q-2 4 -8 11t-30.5 18t-57.5 11z" />
    <glyph glyph-name="s" unicode="s" horiz-adv-x="475" 
d="M425 151q0 -73 -56 -119.5t-165 -46.5q-56 0 -108 16.5t-76 32.5l-24 16l36 75q8 -7 22 -17t61.5 -26.5t98.5 -16.5q65 0 94.5 24t29.5 62q0 27 -27 45.5t-66 31t-77.5 27.5t-65.5 46t-27 76q0 67 53.5 112.5t143.5 45.5q36 0 70 -7.5t55.5 -19t38.5 -22.5t24 -18l8 -8
l-50 -70q-5 7 -15.5 18t-48.5 29t-82 18q-53 0 -82 -23t-29 -55q0 -23 27 -39.5t66 -29.5t78 -30t66 -49.5t27 -77.5z" />
    <glyph glyph-name="t" unicode="t" horiz-adv-x="425" 
d="M99 160l59 280h-100l7 30l224 205h5l-34 -155h166l-18 -80h-165l-59 -280q-4 -16 -4 -33q0 -62 64 -62q24 0 49 10t37 20l13 10h15l-16 -75q-4 -5 -12.5 -12.5t-36.5 -20t-59 -12.5q-60 0 -100 36t-40 97q0 17 5 42z" />
    <glyph glyph-name="u" unicode="u" horiz-adv-x="635" 
d="M141 520h85l-68 -320q-5 -27 -5 -43q0 -92 111 -92q71 0 131 49.5t75 120.5l61 285h85l-111 -520h-80l11 70h-5q-3 -3 -8 -9t-22.5 -20.5t-36.5 -26t-49 -20.5t-61 -9q-88 0 -137.5 44.5t-49.5 118.5q0 25 6 52z" />
    <glyph glyph-name="v" unicode="v" horiz-adv-x="575" 
d="M155 520l88 -402h5l260 402h98l-336 -520h-85l-114 520h84z" />
    <glyph glyph-name="w" unicode="w" horiz-adv-x="845" 
d="M481 520l65 -398h5l230 398h95l-301 -520h-88l-52 320h-4l-196 -320h-85l-79 520h85l61 -398h5l244 398h15z" />
    <glyph glyph-name="x" unicode="x" horiz-adv-x="560" 
d="M606 520l-270 -262l164 -258h-95l-128 201l-207 -201h-110l275 267l-159 253h95l123 -195l202 195h110z" />
    <glyph glyph-name="y" unicode="y" horiz-adv-x="575" 
d="M606 520l-318 -515q-93 -153 -137 -196.5t-105 -43.5q-13 0 -25.5 2.5t-18.5 4.5l-5 3l6 75q18 -10 43 -10q32 0 62 32t88 133l-126 515h84l101 -419h5l254 419h92z" />
    <glyph glyph-name="z" unicode="z" horiz-adv-x="540" 
d="M94 440l17 80h440l-13 -60l-407 -380h336l-17 -80h-470l13 60l407 380h-306z" />
    <glyph glyph-name="braceleft" unicode="{" horiz-adv-x="400" 
d="M178 295l-2 -5q2 -1 5.5 -2.5t13 -8.5t16.5 -16t13 -25t6 -34q0 -12 -3 -29l-48 -225q-3 -15 -3 -28q0 -52 66 -52h40l-18 -85h-22q-71 0 -114 32.5t-43 93.5q0 20 4 39l46 215q4 17 4 34q0 30 -19 43t-61 13l16 75q52 0 77.5 20.5t36.5 69.5l46 215q35 165 187 165h58
l-18 -85h-40q-80 0 -97 -80l-48 -225q-11 -49 -35.5 -77.5t-43.5 -32.5z" />
    <glyph glyph-name="bar" unicode="|" horiz-adv-x="265" 
d="M295 800l-217 -1020h-85l217 1020h85z" />
    <glyph glyph-name="braceright" unicode="}" horiz-adv-x="400" 
d="M246 290l2 5q-2 1 -5.5 2.5t-13 8.5t-16.5 16t-13 25t-6 34q0 13 3 29l48 225q3 15 3 28q0 52 -66 52h-40l18 85h22q71 0 114 -32.5t43 -93.5q0 -20 -4 -39l-46 -215q-4 -17 -4 -34q0 -30 19 -43t61 -13l-16 -75q-52 0 -77.5 -20.5t-36.5 -69.5l-46 -215
q-35 -165 -187 -165h-58l18 85h40q80 0 97 80l48 225q11 49 35.5 77.5t43.5 33.5z" />
    <glyph glyph-name="asciitilde" unicode="~" horiz-adv-x="525" 
d="M180 330q-33 0 -67 -17.5t-51 -34.5l-17 -18l19 90q6 7 17.5 17t44.5 26.5t64 16.5q42 0 76 -20t62.5 -40t56.5 -20q33 0 67 17.5t51 34.5l17 18l-19 -90q-6 -7 -17.5 -17t-44.5 -26.5t-64 -16.5q-42 0 -76 20t-62.5 40t-56.5 20z" />
    <glyph glyph-name="nbspace" unicode="&#xa0;" horiz-adv-x="260" 
 />
    <glyph glyph-name="exclamdown" unicode="&#xa1;" horiz-adv-x="280" 
d="M185 330l-53 -345l-44 -205h-90l44 205l93 345h50zM134 464q0 30 20 48t48 18q20 0 32.5 -11.5t12.5 -32.5q0 -30 -20 -48t-48 -18q-20 0 -32.5 11.5t-12.5 32.5z" />
    <glyph glyph-name="cent" unicode="&#xa2;" horiz-adv-x="565" 
d="M442 620l-19 -88q44 -6 80.5 -23t50.5 -31l15 -13l-50 -70q-4 5 -11.5 13.5t-37 24.5t-64.5 20l-82 -386q37 5 71.5 20.5t50.5 28.5l16 14h15l-18 -85q-6 -6 -18 -15.5t-51.5 -25.5t-82.5 -18l-18 -86h-85l19 93q-84 18 -129.5 79t-45.5 149q0 123 82.5 210.5
t207.5 100.5l19 88h85zM135 221q0 -56 28 -95.5t77 -53.5l80 377q-81 -18 -133 -81t-52 -147z" />
    <glyph glyph-name="sterling" unicode="&#xa3;" horiz-adv-x="555" 
d="M89 300l17 80h60q-31 61 -31 135q0 97 71 163.5t179 66.5q53 0 101 -18.5t70 -37.5l21 -19l-46 -75q-6 7 -17 18t-49 29t-80 18q-77 0 -115 -38.5t-38 -106.5q0 -33 11 -67t22 -51l11 -17h190l-17 -80h-155q-1 -25 -6 -50q-3 -14 -8 -28t-11.5 -25.5t-13.5 -22t-14.5 -19
t-14 -15t-13 -12.5t-11 -9t-8.5 -6l-4 -3q15 10 51 10q43 0 92 -25t77 -25q27 0 53.5 12.5t39.5 25.5l13 12h15l-20 -90q-3 -5 -10.5 -12.5t-33.5 -20t-57 -12.5q-44 0 -114.5 27.5t-121.5 27.5q-31 0 -66 -10t-54 -20l-19 -10l17 80q6 3 16 9t36 25t45.5 40t35.5 53t16 64
l-2 29h-110z" />
    <glyph glyph-name="currency" unicode="&#xa4;" horiz-adv-x="635" 
d="M50 280l18 85h85l78 365h186q100 0 161.5 -55t61.5 -137q0 -109 -80.5 -183.5t-201.5 -74.5h-133l-14 -65h260l-18 -85h-260l-28 -130h-90l28 130h-85l18 85h85l14 65h-85zM302 645l-59 -280h115q90 0 137 46.5t47 126.5q0 50 -34 78.5t-91 28.5h-115z" />
    <glyph glyph-name="yen" unicode="&#xa5;" horiz-adv-x="690" 
d="M94 275h205l4 20l-17 40h-179l16 75h130l-138 320h95l150 -350l292 350h113l-273 -320h131l-16 -75h-180l-34 -40l-4 -20h205l-16 -75h-205l-43 -200h-90l43 200h-205z" />
    <glyph glyph-name="brokenbar" unicode="&#xa6;" horiz-adv-x="265" 
d="M122 385l88 415h85l-88 -415h-85zM-7 -220l88 415h85l-88 -415h-85z" />
    <glyph glyph-name="section" unicode="&#xa7;" horiz-adv-x="575" 
d="M440 310q0 31 -40.5 62t-81.5 47l-40 16q-4 0 -11 -1.5t-25 -8t-32 -16t-25 -28t-11 -41.5q0 -31 40.5 -62t81.5 -47l40 -16q4 0 11 1.5t25 8t32 16t25 28t11 41.5zM528 310q0 -32 -13 -58.5t-32 -42t-38 -26t-32 -14.5l-13 -4q27 -39 27 -93q0 -72 -53.5 -119.5
t-146.5 -47.5q-51 0 -100.5 16.5t-73.5 32.5l-24 16l37 80q6 -7 17.5 -18t53 -29t90.5 -18q55 0 84 24.5t29 62.5q0 29 -26 52t-63.5 41.5t-75 39.5t-63.5 55.5t-26 79.5q0 32 13 58.5t32 42t38 26t32 14.5l13 4q-27 39 -27 93q0 72 53.5 119.5t146.5 47.5q35 0 67.5 -7
t54 -17.5t38.5 -21t25 -17.5l7 -7l-50 -70q-2 2 -5.5 6.5t-17 14.5t-28.5 18t-39.5 14.5t-51.5 6.5q-55 0 -84 -24.5t-29 -62.5q0 -29 26 -52t63.5 -41.5t75 -39.5t63.5 -55.5t26 -79.5z" />
    <glyph glyph-name="dieresis" unicode="&#xa8;" horiz-adv-x="370" 
d="M126 684q0 29 20.5 47.5t47.5 18.5q20 0 32.5 -11.5t12.5 -32.5q0 -29 -20.5 -47.5t-47.5 -18.5q-20 0 -32.5 11.5t-12.5 32.5zM326 684q0 29 20.5 47.5t47.5 18.5q20 0 32.5 -11.5t12.5 -32.5q0 -29 -20.5 -47.5t-47.5 -18.5q-20 0 -32.5 11.5t-12.5 32.5z" />
    <glyph glyph-name="copyright" unicode="&#xa9;" horiz-adv-x="890" 
d="M365 315q0 -57 35 -91t95 -34q31 0 57.5 11t37.5 23l10 11h15v-65q-4 -6 -13 -14t-41.5 -22t-70.5 -14q-89 0 -147 56t-58 139t58 139t147 56q40 0 74 -12.5t48 -25.5l13 -12l-25 -60q-4 4 -11.5 11t-35 18t-58.5 11q-60 0 -95 -34t-35 -91zM840 315q0 -151 -105 -253
t-265 -102t-265 102t-105 253t105 253t265 102t265 -102t105 -253zM165 315q0 -128 85.5 -211.5t219.5 -83.5t219.5 83.5t85.5 211.5t-85.5 211.5t-219.5 83.5t-219.5 -83.5t-85.5 -211.5z" />
    <glyph glyph-name="ordfeminine" unicode="&#xaa;" horiz-adv-x="430" 
d="M380 571l19 89h-92q-53 0 -94.5 -44.5t-41.5 -106.5q0 -40 22 -64.5t56 -24.5q99 0 131 151zM490 730l-78 -370h-70l8 50h-5q-2 -2 -5.5 -6.5t-15 -14.5t-24.5 -18t-32 -14.5t-39 -6.5q-59 0 -99 46t-40 113q0 89 65.5 155t151.5 66h183z" />
    <glyph glyph-name="guillemotleft" unicode="&#xab;" horiz-adv-x="540" 
d="M134 260l116 -210h-90l-119 215l4 20l196 215h105l-210 -230zM349 260l116 -210h-90l-119 215l4 20l196 215h105l-210 -230z" />
    <glyph glyph-name="logicalnot" unicode="&#xac;" horiz-adv-x="525" 
d="M80 305l17 80h380l-36 -170h-90l19 90h-290z" />
    <glyph glyph-name="uni00AD" unicode="&#xad;" horiz-adv-x="390" 
d="M46 285l17 80h320l-17 -80h-320z" />
    <glyph glyph-name="registered" unicode="&#xae;" horiz-adv-x="680" 
d="M300 670h100q52 0 81 -25t29 -70q0 -31 -14 -52.5t-28 -26.5l-13 -6l70 -100h-65l-60 90h-45v-90h-55v280zM355 525h45q55 0 55 50t-55 50h-45v-100zM175 530q0 -98 62 -159t163 -61t163 61t62 159t-62 159t-163 61t-163 -61t-62 -159zM120 530q0 117 78.5 193.5
t201.5 76.5t201.5 -76.5t78.5 -193.5t-78.5 -193.5t-201.5 -76.5t-201.5 76.5t-78.5 193.5z" />
    <glyph glyph-name="macron" unicode="&#xaf;" horiz-adv-x="410" 
d="M118 650l15 70h350l-15 -70h-350z" />
    <glyph glyph-name="degree" unicode="&#xb0;" horiz-adv-x="370" 
d="M184 577q0 -29 16 -45.5t44 -16.5q41 0 68 27.5t27 70.5q0 29 -16 45.5t-44 16.5q-41 0 -68 -27.5t-27 -70.5zM410 613q0 -70 -47.5 -116.5t-118.5 -46.5q-61 0 -96 35t-35 92q0 70 47.5 116.5t118.5 46.5q61 0 96 -35t35 -92z" />
    <glyph glyph-name="plusminus" unicode="&#xb1;" horiz-adv-x="525" 
d="M458 130l-17 -80h-435l17 80h175l38 180h-175l17 80h175l39 180h85l-39 -180h175l-17 -80h-175l-38 -180h175z" />
    <glyph glyph-name="twosuperior" unicode="&#xb2;" horiz-adv-x="320" 
d="M81 480l189 185q46 46 46 74q0 36 -42 36q-27 0 -57.5 -15t-48.5 -30l-17 -15h-10l14 65q6 7 17 17t45 26.5t67 16.5q48 0 76.5 -25t28.5 -66q0 -57 -60 -114l-101 -100h125l-14 -65h-260z" />
    <glyph glyph-name="threesuperior" unicode="&#xb3;" horiz-adv-x="320" 
d="M242 645q-18 0 -34 -5t-23 -10l-7 -5l-23 35l112 105h-105l14 65h230l-2 -10l-119 -115q37 -8 60 -35.5t23 -72.5q0 -61 -42 -99t-110 -38q-36 0 -68 11t-46 23l-15 11l37 55q3 -4 9.5 -10t30 -15.5t52.5 -9.5q34 0 57 20.5t23 51.5q0 21 -14.5 34.5t-39.5 13.5z" />
    <glyph glyph-name="acute" unicode="&#xb4;" horiz-adv-x="240" 
d="M105 590l118 180h100l-153 -180h-65z" />
    <glyph glyph-name="mu" unicode="&#xb5;" horiz-adv-x="635" 
d="M141 520h85l-68 -320q-5 -27 -5 -43q0 -92 111 -92q71 0 131 49.5t75 120.5l61 285h85l-111 -520h-80l11 70h-5q-3 -3 -8 -9t-22.5 -20.5t-36.5 -26t-49 -20.5t-61 -9q-49 0 -87 14.5t-51 28.5l-13 15l-30 -238l-90 -25z" />
    <glyph glyph-name="paragraph" unicode="&#xb6;" horiz-adv-x="640" 
d="M109 474q0 107 78.5 181.5t187.5 74.5h335l-13 -60h-110l-189 -890h-45l189 890h-135l-189 -890h-45l111 520q-80 0 -127.5 48.5t-47.5 125.5z" />
    <glyph glyph-name="periodcentered" unicode="&#xb7;" horiz-adv-x="260" 
d="M200 311q0 -30 -20 -48t-48 -18q-20 0 -32.5 11.5t-12.5 32.5q0 30 20 48t48 18q20 0 32.5 -11.5t12.5 -32.5z" />
    <glyph glyph-name="cedilla" unicode="&#xb8;" horiz-adv-x="275" 
d="M105 0l-31 -50q39 -8 65 -33t26 -60q0 -44 -40 -75.5t-108 -31.5q-22 0 -43.5 5t-31.5 10l-11 5l11 50q25 -20 65 -20q82 0 82 57q0 21 -22 34.5t-44 16.5l-22 2l54 90h50z" />
    <glyph glyph-name="onesuperior" unicode="&#xb9;" horiz-adv-x="235" 
d="M129 705l16 75l101 50h45l-77 -360h-70l57 270z" />
    <glyph glyph-name="ordmasculine" unicode="&#xba;" horiz-adv-x="450" 
d="M265 420q64 0 104.5 42.5t40.5 112.5q0 45 -24 70t-68 25q-64 0 -105 -42.5t-41 -112.5q0 -45 24.5 -70t68.5 -25zM265 350q-80 0 -127 46t-47 119q0 97 64.5 161t162.5 64q80 0 126.5 -46t46.5 -119q0 -97 -64.5 -161t-161.5 -64z" />
    <glyph glyph-name="guillemotright" unicode="&#xbb;" horiz-adv-x="540" 
d="M423 290l-116 210h90l119 -215l-4 -20l-196 -215h-105l210 230zM208 290l-116 210h90l119 -215l-4 -20l-196 -215h-105l210 230z" />
    <glyph glyph-name="onequarter" unicode="&#xbc;" horiz-adv-x="698" 
d="M5 0l615 730h100l-615 -730h-100zM114 605l16 75l101 50h45l-77 -360h-70l57 270zM624 360l-159 -210h60l36 75h50l-16 -75h55l-14 -65h-55l-18 -85h-70l18 85h-165l2 10l201 265h75z" />
    <glyph glyph-name="onehalf" unicode="&#xbd;" horiz-adv-x="733" 
d="M5 0l615 730h100l-615 -730h-100zM114 605l16 75l101 50h45l-77 -360h-70l57 270zM395 10l189 185q46 46 46 74q0 36 -42 36q-27 0 -57.5 -15t-48.5 -30l-17 -15h-10l14 65q6 7 17 17t45 26.5t67 16.5q48 0 76.5 -25t28.5 -66q0 -57 -60 -114l-101 -100h125l-14 -65h-260
z" />
    <glyph glyph-name="threequarters" unicode="&#xbe;" horiz-adv-x="762" 
d="M70 0l615 730h100l-615 -730h-100zM688 360l-159 -210h60l36 75h50l-16 -75h55l-14 -65h-55l-18 -85h-70l18 85h-165l2 10l201 265h75zM221 545q-18 0 -34 -5t-23 -10l-7 -5l-23 35l112 105h-105l14 65h230l-2 -10l-119 -115q37 -8 60 -35.5t23 -72.5q0 -61 -42 -99
t-110 -38q-36 0 -68 11t-47 23l-14 11l37 55q3 -4 9.5 -10t30 -15.5t52.5 -9.5q34 0 57 20.5t23 51.5q0 21 -14.5 34.5t-39.5 13.5z" />
    <glyph glyph-name="questiondown" unicode="&#xbf;" horiz-adv-x="485" 
d="M380 -60l-21 -100q-3 -3 -8.5 -8t-24.5 -18t-40 -23t-53.5 -18t-66.5 -8q-83 0 -133 47t-50 118q0 46 25.5 88.5t63 76t76.5 66.5t70.5 74t39.5 85h85q-10 -50 -41 -97t-67.5 -82.5t-72 -69.5t-59.5 -70t-24 -71q0 -37 25.5 -58.5t71.5 -21.5q49 0 96 22.5t70 45.5l23 22
h15zM275 464q0 30 20 48t48 18q20 0 32.5 -11.5t12.5 -32.5q0 -30 -20 -48t-48 -18q-20 0 -32.5 11.5t-12.5 32.5z" />
    <glyph glyph-name="Agrave" unicode="&#xc0;" horiz-adv-x="750" 
d="M545 285l-80 324h-5l-217 -324h302zM566 200h-380l-134 -200h-102l490 730h85l180 -730h-90zM473 980l42 -180h-70l-72 180h100z" />
    <glyph glyph-name="Aacute" unicode="&#xc1;" horiz-adv-x="750" 
d="M545 285l-80 324h-5l-217 -324h302zM566 200h-380l-134 -200h-102l490 730h85l180 -730h-90zM470 800l118 180h100l-153 -180h-65z" />
    <glyph glyph-name="Acircumflex" unicode="&#xc2;" horiz-adv-x="750" 
d="M545 285l-80 324h-5l-217 -324h302zM566 200h-380l-134 -200h-102l490 730h85l180 -730h-90zM615 800l-94 120l-151 -120h-60l188 180h60l112 -180h-55z" />
    <glyph glyph-name="Atilde" unicode="&#xc3;" horiz-adv-x="750" 
d="M545 285l-80 324h-5l-217 -324h302zM566 200h-380l-134 -200h-102l490 730h85l180 -730h-90zM427 880q-27 0 -53.5 -12.5t-39.5 -25.5l-13 -12l15 70q4 6 12 14t34 22t55 14q37 0 81.5 -27.5t70.5 -27.5q27 0 53.5 12.5t39.5 24.5l13 13l-15 -70q-4 -6 -12 -14t-34 -22
t-55 -14q-37 0 -81.5 27.5t-70.5 27.5z" />
    <glyph glyph-name="Adieresis" unicode="&#xc4;" horiz-adv-x="750" 
d="M545 285l-80 324h-5l-217 -324h302zM566 200h-380l-134 -200h-102l490 730h85l180 -730h-90zM351 874q0 29 20.5 47.5t47.5 18.5q20 0 32.5 -11.5t12.5 -32.5q0 -29 -20.5 -47.5t-47.5 -18.5q-20 0 -32.5 11.5t-12.5 32.5zM551 874q0 29 20.5 47.5t47.5 18.5
q20 0 32.5 -11.5t12.5 -32.5q0 -29 -20.5 -47.5t-47.5 -18.5q-20 0 -32.5 11.5t-12.5 32.5z" />
    <glyph glyph-name="Aring" unicode="&#xc5;" horiz-adv-x="750" 
d="M545 285l-80 324h-5l-217 -324h302zM566 200h-380l-134 -200h-102l490 730h85l180 -730h-90zM393 889q0 56 37.5 91t91.5 35q46 0 76.5 -28.5t30.5 -75.5q0 -56 -37.5 -91t-91.5 -35q-46 0 -76.5 28.5t-30.5 75.5zM455 889q0 -21 12.5 -32.5t32.5 -11.5q27 0 47 18t20 48
q0 21 -12.5 32.5t-32.5 11.5q-27 0 -47 -18t-20 -48z" />
    <glyph glyph-name="AE" unicode="&#xc6;" horiz-adv-x="930" 
d="M415 0l43 200h-282l-134 -200h-102l490 730h540l-18 -85h-310l-49 -230h235l-18 -85h-235l-52 -245h310l-18 -85h-400zM476 650l-243 -365h243l77 365h-77z" />
    <glyph glyph-name="Ccedilla" unicode="&#xc7;" horiz-adv-x="740" 
d="M168 305q0 -106 64 -170.5t172 -64.5q42 0 83.5 12.5t70 30t51.5 35t35 30.5l11 12h15l-21 -100q-3 -4 -9.5 -11t-29 -25.5t-49 -32t-69 -25t-88.5 -11.5q-13 0 -37 2l-23 -37q39 -8 65 -33t26 -60q0 -44 -40 -75.5t-108 -31.5q-22 0 -43.5 5t-31.5 10l-11 5l11 50
q25 -20 65 -20q82 0 82 57q0 21 -22 34.5t-44 16.5l-22 2l50 84q-116 24 -182 108.5t-66 202.5q0 181 135.5 310.5t321.5 129.5q49 0 92.5 -11t70.5 -26.5t46.5 -30.5t28.5 -26l8 -11l-51 -75q-2 4 -6 10.5t-19.5 22.5t-35.5 28.5t-56 23t-78 10.5q-155 0 -258.5 -101.5
t-103.5 -253.5z" />
    <glyph glyph-name="Egrave" unicode="&#xc8;" horiz-adv-x="615" 
d="M50 0l155 730h450l-18 -85h-360l-49 -230h285l-18 -85h-285l-52 -245h360l-18 -85h-450zM433 980l42 -180h-70l-72 180h100z" />
    <glyph glyph-name="Eacute" unicode="&#xc9;" horiz-adv-x="615" 
d="M50 0l155 730h450l-18 -85h-360l-49 -230h285l-18 -85h-285l-52 -245h360l-18 -85h-450zM390 800l118 180h100l-153 -180h-65z" />
    <glyph glyph-name="Ecircumflex" unicode="&#xca;" horiz-adv-x="615" 
d="M50 0l155 730h450l-18 -85h-360l-49 -230h285l-18 -85h-285l-52 -245h360l-18 -85h-450zM555 800l-94 120l-151 -120h-60l188 180h60l112 -180h-55z" />
    <glyph glyph-name="Edieresis" unicode="&#xcb;" horiz-adv-x="615" 
d="M50 0l155 730h450l-18 -85h-360l-49 -230h285l-18 -85h-285l-52 -245h360l-18 -85h-450zM291 874q0 29 20.5 47.5t47.5 18.5q20 0 32.5 -11.5t12.5 -32.5q0 -29 -20.5 -47.5t-47.5 -18.5q-20 0 -32.5 11.5t-12.5 32.5zM491 874q0 29 20.5 47.5t47.5 18.5q20 0 32.5 -11.5
t12.5 -32.5q0 -29 -20.5 -47.5t-47.5 -18.5q-20 0 -32.5 11.5t-12.5 32.5z" />
    <glyph glyph-name="Igrave" unicode="&#xcc;" horiz-adv-x="290" 
d="M295 730l-155 -730h-90l155 730h90zM243 980l42 -180h-70l-72 180h100z" />
    <glyph glyph-name="Iacute" unicode="&#xcd;" horiz-adv-x="290" 
d="M295 730l-155 -730h-90l155 730h90zM235 800l118 180h100l-153 -180h-65z" />
    <glyph glyph-name="Icircumflex" unicode="&#xce;" horiz-adv-x="290" 
d="M295 730l-155 -730h-90l155 730h90zM380 800l-94 120l-151 -120h-60l188 180h60l112 -180h-55z" />
    <glyph glyph-name="Idieresis" unicode="&#xcf;" horiz-adv-x="290" 
d="M295 730l-155 -730h-90l155 730h90zM116 874q0 29 20.5 47.5t47.5 18.5q20 0 32.5 -11.5t12.5 -32.5q0 -29 -20.5 -47.5t-47.5 -18.5q-20 0 -32.5 11.5t-12.5 32.5zM316 874q0 29 20.5 47.5t47.5 18.5q20 0 32.5 -11.5t12.5 -32.5q0 -29 -20.5 -47.5t-47.5 -18.5
q-20 0 -32.5 11.5t-12.5 32.5z" />
    <glyph glyph-name="Eth" unicode="&#xd0;" horiz-adv-x="765" 
d="M435 730q138 0 224.5 -88.5t86.5 -220.5q0 -113 -62 -210.5t-165.5 -154t-220.5 -56.5h-228l68 320h-80l18 85h80l69 325h210zM417 645h-120l-51 -240h220l-18 -85h-220l-50 -235h120q148 0 250.5 96.5t102.5 239.5q0 100 -63 162t-171 62z" />
    <glyph glyph-name="Ntilde" unicode="&#xd1;" horiz-adv-x="790" 
d="M795 730l-155 -730h-85l-290 588l-125 -588h-90l155 730h85l290 -588l125 588h90zM442 880q-27 0 -53.5 -12.5t-39.5 -25.5l-13 -12l15 70q4 6 12 14t34 22t55 14q37 0 81.5 -27.5t70.5 -27.5q27 0 53.5 12.5t39.5 24.5l13 13l-15 -70q-4 -6 -12 -14t-34 -22t-55 -14
q-37 0 -81.5 27.5t-70.5 27.5z" />
    <glyph glyph-name="Ograve" unicode="&#xd2;" horiz-adv-x="870" 
d="M168 305q0 -105 63 -170t168 -65q152 0 254.5 101.5t102.5 253.5q0 105 -63 170t-168 65q-152 0 -254.5 -101.5t-102.5 -253.5zM851 425q0 -89 -37 -171t-98 -140.5t-144.5 -93.5t-172.5 -35q-147 0 -236.5 91t-89.5 229q0 89 37 171t98 140.5t144.5 93.5t172.5 35
q147 0 236.5 -91t89.5 -229zM518 980l42 -180h-70l-72 180h100z" />
    <glyph glyph-name="Oacute" unicode="&#xd3;" horiz-adv-x="870" 
d="M168 305q0 -105 63 -170t168 -65q152 0 254.5 101.5t102.5 253.5q0 105 -63 170t-168 65q-152 0 -254.5 -101.5t-102.5 -253.5zM851 425q0 -89 -37 -171t-98 -140.5t-144.5 -93.5t-172.5 -35q-147 0 -236.5 91t-89.5 229q0 89 37 171t98 140.5t144.5 93.5t172.5 35
q147 0 236.5 -91t89.5 -229zM510 800l118 180h100l-153 -180h-65z" />
    <glyph glyph-name="Ocircumflex" unicode="&#xd4;" horiz-adv-x="870" 
d="M168 305q0 -105 63 -170t168 -65q152 0 254.5 101.5t102.5 253.5q0 105 -63 170t-168 65q-152 0 -254.5 -101.5t-102.5 -253.5zM851 425q0 -89 -37 -171t-98 -140.5t-144.5 -93.5t-172.5 -35q-147 0 -236.5 91t-89.5 229q0 89 37 171t98 140.5t144.5 93.5t172.5 35
q147 0 236.5 -91t89.5 -229zM660 800l-94 120l-151 -120h-60l188 180h60l112 -180h-55z" />
    <glyph glyph-name="Otilde" unicode="&#xd5;" horiz-adv-x="870" 
d="M168 305q0 -105 63 -170t168 -65q152 0 254.5 101.5t102.5 253.5q0 105 -63 170t-168 65q-152 0 -254.5 -101.5t-102.5 -253.5zM851 425q0 -89 -37 -171t-98 -140.5t-144.5 -93.5t-172.5 -35q-147 0 -236.5 91t-89.5 229q0 89 37 171t98 140.5t144.5 93.5t172.5 35
q147 0 236.5 -91t89.5 -229zM472 880q-27 0 -53.5 -12.5t-39.5 -25.5l-13 -12l15 70q4 6 12 14t34 22t55 14q37 0 81.5 -27.5t70.5 -27.5q27 0 53.5 12.5t39.5 24.5l13 13l-15 -70q-4 -6 -12 -14t-34 -22t-55 -14q-37 0 -81.5 27.5t-70.5 27.5z" />
    <glyph glyph-name="Odieresis" unicode="&#xd6;" horiz-adv-x="870" 
d="M168 305q0 -105 63 -170t168 -65q152 0 254.5 101.5t102.5 253.5q0 105 -63 170t-168 65q-152 0 -254.5 -101.5t-102.5 -253.5zM851 425q0 -89 -37 -171t-98 -140.5t-144.5 -93.5t-172.5 -35q-147 0 -236.5 91t-89.5 229q0 89 37 171t98 140.5t144.5 93.5t172.5 35
q147 0 236.5 -91t89.5 -229zM396 874q0 29 20.5 47.5t47.5 18.5q20 0 32.5 -11.5t12.5 -32.5q0 -29 -20.5 -47.5t-47.5 -18.5q-20 0 -32.5 11.5t-12.5 32.5zM596 874q0 29 20.5 47.5t47.5 18.5q20 0 32.5 -11.5t12.5 -32.5q0 -29 -20.5 -47.5t-47.5 -18.5q-20 0 -32.5 11.5
t-12.5 32.5z" />
    <glyph glyph-name="multiply" unicode="&#xd7;" horiz-adv-x="525" 
d="M387 120l-115 145l-175 -145l-54 66l177 145l-114 145l66 54l114 -145l175 145l54 -66l-177 -145l115 -145z" />
    <glyph glyph-name="Oslash" unicode="&#xd8;" horiz-adv-x="870" 
d="M851 425q0 -89 -37 -171t-98 -140.5t-144.5 -93.5t-172.5 -35q-121 0 -206 64l-66 -64h-105l118 116q-67 86 -67 204q0 89 37 171t98 140.5t144.5 93.5t172.5 35q120 0 207 -66l67 66h105l-120 -117q67 -86 67 -203zM168 305q0 -82 38 -140l462 452q-61 43 -143 43
q-152 0 -254.5 -101.5t-102.5 -253.5zM756 425q0 82 -38 138l-461 -451q58 -42 142 -42q152 0 254.5 101.5t102.5 253.5z" />
    <glyph glyph-name="Ugrave" unicode="&#xd9;" horiz-adv-x="750" 
d="M195 730h90l-99 -465q-6 -27 -6 -52q0 -67 42 -105t118 -38q90 0 153 52.5t83 142.5l99 465h90l-99 -465q-28 -130 -112.5 -205t-213.5 -75q-114 0 -182.5 58.5t-68.5 157.5q0 32 7 64zM483 980l42 -180h-70l-72 180h100z" />
    <glyph glyph-name="Uacute" unicode="&#xda;" horiz-adv-x="750" 
d="M195 730h90l-99 -465q-6 -27 -6 -52q0 -67 42 -105t118 -38q90 0 153 52.5t83 142.5l99 465h90l-99 -465q-28 -130 -112.5 -205t-213.5 -75q-114 0 -182.5 58.5t-68.5 157.5q0 32 7 64zM445 800l118 180h100l-153 -180h-65z" />
    <glyph glyph-name="Ucircumflex" unicode="&#xdb;" horiz-adv-x="750" 
d="M195 730h90l-99 -465q-6 -27 -6 -52q0 -67 42 -105t118 -38q90 0 153 52.5t83 142.5l99 465h90l-99 -465q-28 -130 -112.5 -205t-213.5 -75q-114 0 -182.5 58.5t-68.5 157.5q0 32 7 64zM610 800l-94 120l-151 -120h-60l188 180h60l112 -180h-55z" />
    <glyph glyph-name="Udieresis" unicode="&#xdc;" horiz-adv-x="750" 
d="M195 730h90l-99 -465q-6 -27 -6 -52q0 -67 42 -105t118 -38q90 0 153 52.5t83 142.5l99 465h90l-99 -465q-28 -130 -112.5 -205t-213.5 -75q-114 0 -182.5 58.5t-68.5 157.5q0 32 7 64zM346 874q0 29 20.5 47.5t47.5 18.5q20 0 32.5 -11.5t12.5 -32.5q0 -29 -20.5 -47.5
t-47.5 -18.5q-20 0 -32.5 11.5t-12.5 32.5zM546 874q0 29 20.5 47.5t47.5 18.5q20 0 32.5 -11.5t12.5 -32.5q0 -29 -20.5 -47.5t-47.5 -18.5q-20 0 -32.5 11.5t-12.5 32.5z" />
    <glyph glyph-name="Yacute" unicode="&#xdd;" horiz-adv-x="670" 
d="M383 295l-63 -295h-90l63 295l-188 435h95l150 -350l292 350h113zM405 800l118 180h100l-153 -180h-65z" />
    <glyph glyph-name="Thorn" unicode="&#xde;" horiz-adv-x="640" 
d="M167 125l-27 -125h-90l155 730h90l-26 -125h121q108 0 171 -59t63 -148q0 -113 -88 -193t-212 -80h-157zM251 520l-66 -310h139q93 0 148 52t55 136q0 57 -35.5 89.5t-101.5 32.5h-139z" />
    <glyph glyph-name="germandbls" unicode="&#xdf;" horiz-adv-x="650" 
d="M557 596q0 -42 -21.5 -76.5t-46.5 -53t-46.5 -42t-21.5 -45.5q0 -23 19 -40t45.5 -31t53.5 -31t46 -48t19 -74q0 -74 -53.5 -122t-146.5 -48q-38 0 -81 11t-67 22l-25 12l37 80q6 -5 16.5 -12.5t46 -20t73.5 -12.5q55 0 84 25t29 65q0 27 -19 47.5t-46 35t-54 31
t-46 44.5t-19 66q0 30 14 56t34 44t40.5 35t34.5 38t14 44q0 32 -22.5 50.5t-66.5 18.5q-125 0 -154 -140l-112 -525h-85l112 525q47 220 239 220q87 0 131.5 -40.5t44.5 -108.5z" />
    <glyph glyph-name="agrave" unicode="&#xe0;" horiz-adv-x="628" 
d="M53 204q0 134 95.5 225t239.5 91h221l-110 -520h-80l11 70h-5q-3 -3 -8.5 -9t-23 -20.5t-36.5 -26t-47.5 -20.5t-56.5 -9q-92 0 -146 60.5t-54 158.5zM455 195l52 245h-119q-107 0 -177.5 -68t-70.5 -168q0 -63 35.5 -101t92.5 -38q34 0 65.5 13.5t52.5 32.5t37.5 38
t24.5 33zM405 780l42 -180h-70l-72 180h100z" />
    <glyph glyph-name="aacute" unicode="&#xe1;" horiz-adv-x="628" 
d="M53 204q0 134 95.5 225t239.5 91h221l-110 -520h-80l11 70h-5q-3 -3 -8.5 -9t-23 -20.5t-36.5 -26t-47.5 -20.5t-56.5 -9q-92 0 -146 60.5t-54 158.5zM455 195l52 245h-119q-107 0 -177.5 -68t-70.5 -168q0 -63 35.5 -101t92.5 -38q34 0 65.5 13.5t52.5 32.5t37.5 38
t24.5 33zM362 600l118 180h100l-153 -180h-65z" />
    <glyph glyph-name="acircumflex" unicode="&#xe2;" horiz-adv-x="628" 
d="M53 204q0 134 95.5 225t239.5 91h221l-110 -520h-80l11 70h-5q-3 -3 -8.5 -9t-23 -20.5t-36.5 -26t-47.5 -20.5t-56.5 -9q-92 0 -146 60.5t-54 158.5zM455 195l52 245h-119q-107 0 -177.5 -68t-70.5 -168q0 -63 35.5 -101t92.5 -38q34 0 65.5 13.5t52.5 32.5t37.5 38
t24.5 33zM522 600l-94 120l-151 -120h-60l188 180h60l112 -180h-55z" />
    <glyph glyph-name="atilde" unicode="&#xe3;" horiz-adv-x="628" 
d="M53 204q0 134 95.5 225t239.5 91h221l-110 -520h-80l11 70h-5q-3 -3 -8.5 -9t-23 -20.5t-36.5 -26t-47.5 -20.5t-56.5 -9q-92 0 -146 60.5t-54 158.5zM455 195l52 245h-119q-107 0 -177.5 -68t-70.5 -168q0 -63 35.5 -101t92.5 -38q34 0 65.5 13.5t52.5 32.5t37.5 38
t24.5 33zM339 680q-27 0 -53.5 -12.5t-39.5 -25.5l-13 -12l15 70q4 6 12 14t34 22t55 14q37 0 81.5 -27.5t70.5 -27.5q27 0 53.5 12.5t39.5 24.5l13 13l-15 -70q-4 -6 -12 -14t-34 -22t-55 -14q-37 0 -81.5 27.5t-70.5 27.5z" />
    <glyph glyph-name="adieresis" unicode="&#xe4;" horiz-adv-x="628" 
d="M53 204q0 134 95.5 225t239.5 91h221l-110 -520h-80l11 70h-5q-3 -3 -8.5 -9t-23 -20.5t-36.5 -26t-47.5 -20.5t-56.5 -9q-92 0 -146 60.5t-54 158.5zM455 195l52 245h-119q-107 0 -177.5 -68t-70.5 -168q0 -63 35.5 -101t92.5 -38q34 0 65.5 13.5t52.5 32.5t37.5 38
t24.5 33zM273 674q0 29 20.5 47.5t47.5 18.5q20 0 32.5 -11.5t12.5 -32.5q0 -29 -20.5 -47.5t-47.5 -18.5q-20 0 -32.5 11.5t-12.5 32.5zM473 674q0 29 20.5 47.5t47.5 18.5q20 0 32.5 -11.5t12.5 -32.5q0 -29 -20.5 -47.5t-47.5 -18.5q-20 0 -32.5 11.5t-12.5 32.5z" />
    <glyph glyph-name="aring" unicode="&#xe5;" horiz-adv-x="628" 
d="M53 204q0 134 95.5 225t239.5 91h221l-110 -520h-80l11 70h-5q-3 -3 -8.5 -9t-23 -20.5t-36.5 -26t-47.5 -20.5t-56.5 -9q-92 0 -146 60.5t-54 158.5zM455 195l52 245h-119q-107 0 -177.5 -68t-70.5 -168q0 -63 35.5 -101t92.5 -38q34 0 65.5 13.5t52.5 32.5t37.5 38
t24.5 33zM301 694q0 56 37.5 91t91.5 35q46 0 76.5 -28.5t30.5 -75.5q0 -56 -37.5 -91t-91.5 -35q-46 0 -76.5 28.5t-30.5 75.5zM363 694q0 -21 12.5 -32.5t32.5 -11.5q27 0 47 18t20 48q0 21 -12.5 32.5t-32.5 11.5q-27 0 -47 -18t-20 -48z" />
    <glyph glyph-name="ae" unicode="&#xe6;" horiz-adv-x="1035" 
d="M53 204q0 134 95.5 225t239.5 91h221l-14 -60h5l8 8t22.5 18t36.5 23t49 18t61 8q96 0 157 -58t61 -142q0 -22 -3.5 -44.5t-6.5 -34.5l-3 -11h-430q-2 -11 -2 -24q0 -70 43 -113t116 -43q56 0 106 17.5t72 35.5l22 17h15l-20 -90l-6.5 -6.5t-20.5 -14.5t-36.5 -18
t-55.5 -14.5t-76 -6.5q-134 0 -190 90h-4l-16 -75h-80l11 70h-5q-3 -3 -8.5 -9t-23 -20.5t-36.5 -26t-47.5 -20.5t-56.5 -9q-92 0 -146 60.5t-54 158.5zM455 195l52 245h-119q-107 0 -177.5 -68t-70.5 -168q0 -63 35.5 -101t92.5 -38q34 0 65.5 13.5t52.5 32.5t37.5 38
t24.5 33zM777 455q-65 0 -120 -37.5t-83 -92.5h335v10q0 51 -35 85.5t-97 34.5z" />
    <glyph glyph-name="ccedilla" unicode="&#xe7;" horiz-adv-x="565" 
d="M135 221q0 -70 43 -113t116 -43q44 0 86 16.5t62 32.5l20 16h15l-18 -85q-2 -2 -7 -6.5t-21 -14.5t-33.5 -18t-46 -14.5t-57.5 -6.5h-14l-21 -35q39 -8 65 -33t26 -60q0 -44 -40 -75.5t-108 -31.5q-22 0 -43.5 5t-32.5 10l-10 5l11 50q25 -20 65 -20q82 0 82 57
q0 21 -22 34.5t-44 16.5l-22 2l48 80q-89 16 -137.5 78t-48.5 153q0 133 95.5 223.5t233.5 90.5q58 0 106 -17.5t67 -35.5l19 -17l-50 -70q-2 2 -5.5 6.5t-16 14.5t-27.5 18t-40 14.5t-53 6.5q-101 0 -171.5 -67.5t-70.5 -166.5z" />
    <glyph glyph-name="egrave" unicode="&#xe8;" horiz-adv-x="625" 
d="M367 535q96 0 157 -58t61 -142q0 -22 -3.5 -44.5t-6.5 -34.5l-3 -11h-430q-2 -11 -2 -24q0 -70 43 -113t116 -43q56 0 106 17.5t72 35.5l22 17h15l-20 -90l-6.5 -6.5t-20.5 -14.5t-36.5 -18t-55.5 -14.5t-76 -6.5q-116 0 -181 65t-65 171q0 132 93.5 223t220.5 91z
M367 455q-65 0 -120 -37.5t-83 -92.5h335v10q0 51 -35 85.5t-97 34.5zM370 780l42 -180h-70l-72 180h100z" />
    <glyph glyph-name="eacute" unicode="&#xe9;" horiz-adv-x="625" 
d="M367 535q96 0 157 -58t61 -142q0 -22 -3.5 -44.5t-6.5 -34.5l-3 -11h-430q-2 -11 -2 -24q0 -70 43 -113t116 -43q56 0 106 17.5t72 35.5l22 17h15l-20 -90l-6.5 -6.5t-20.5 -14.5t-36.5 -18t-55.5 -14.5t-76 -6.5q-116 0 -181 65t-65 171q0 132 93.5 223t220.5 91z
M367 455q-65 0 -120 -37.5t-83 -92.5h335v10q0 51 -35 85.5t-97 34.5zM347 600l118 180h100l-153 -180h-65z" />
    <glyph glyph-name="ecircumflex" unicode="&#xea;" horiz-adv-x="625" 
d="M367 535q96 0 157 -58t61 -142q0 -22 -3.5 -44.5t-6.5 -34.5l-3 -11h-430q-2 -11 -2 -24q0 -70 43 -113t116 -43q56 0 106 17.5t72 35.5l22 17h15l-20 -90l-6.5 -6.5t-20.5 -14.5t-36.5 -18t-55.5 -14.5t-76 -6.5q-116 0 -181 65t-65 171q0 132 93.5 223t220.5 91z
M367 455q-65 0 -120 -37.5t-83 -92.5h335v10q0 51 -35 85.5t-97 34.5zM502 600l-94 120l-151 -120h-60l188 180h60l112 -180h-55z" />
    <glyph glyph-name="edieresis" unicode="&#xeb;" horiz-adv-x="625" 
d="M367 535q96 0 157 -58t61 -142q0 -22 -3.5 -44.5t-6.5 -34.5l-3 -11h-430q-2 -11 -2 -24q0 -70 43 -113t116 -43q56 0 106 17.5t72 35.5l22 17h15l-20 -90l-6.5 -6.5t-20.5 -14.5t-36.5 -18t-55.5 -14.5t-76 -6.5q-116 0 -181 65t-65 171q0 132 93.5 223t220.5 91z
M367 455q-65 0 -120 -37.5t-83 -92.5h335v10q0 51 -35 85.5t-97 34.5zM238 674q0 29 20.5 47.5t47.5 18.5q20 0 32.5 -11.5t12.5 -32.5q0 -29 -20.5 -47.5t-47.5 -18.5q-20 0 -32.5 11.5t-12.5 32.5zM438 674q0 29 20.5 47.5t47.5 18.5q20 0 32.5 -11.5t12.5 -32.5
q0 -29 -20.5 -47.5t-47.5 -18.5q-20 0 -32.5 11.5t-12.5 32.5z" />
    <glyph glyph-name="igrave" unicode="&#xec;" horiz-adv-x="245" 
d="M226 520l-111 -520h-85l111 520h85zM185 780l42 -180h-70l-72 180h100z" />
    <glyph glyph-name="iacute" unicode="&#xed;" horiz-adv-x="245" 
d="M226 520l-111 -520h-85l111 520h85zM172 600l118 180h100l-153 -180h-65z" />
    <glyph glyph-name="icircumflex" unicode="&#xee;" horiz-adv-x="245" 
d="M226 520l-111 -520h-85l111 520h85zM317 600l-94 120l-151 -120h-60l188 180h60l112 -180h-55z" />
    <glyph glyph-name="idieresis" unicode="&#xef;" horiz-adv-x="245" 
d="M226 520l-111 -520h-85l111 520h85zM54 674q0 29 20.5 47.5t47.5 18.5q20 0 32.5 -11.5t12.5 -32.5q0 -29 -20.5 -47.5t-47.5 -18.5q-20 0 -32.5 11.5t-12.5 32.5zM254 674q0 29 20.5 47.5t47.5 18.5q20 0 32.5 -11.5t12.5 -32.5q0 -29 -20.5 -47.5t-47.5 -18.5
q-20 0 -32.5 11.5t-12.5 32.5z" />
    <glyph glyph-name="eth" unicode="&#xf0;" horiz-adv-x="655" 
d="M342 600l-40 70h100q-43 55 -101 90h120q52 -40 86 -90h94l39 -70h-88q6 -11 15.5 -31.5t25 -87t15.5 -134.5q0 -167 -94 -264.5t-230 -97.5q-110 0 -171.5 62.5t-61.5 164.5q0 129 90.5 216t220.5 87q29 0 55.5 -7.5t42.5 -17.5t28.5 -20.5t17.5 -17.5l5 -8h5
q-4 33 -19 72t-27 62l-13 22h-115zM508 288q0 66 -39.5 106.5t-106.5 40.5q-93 0 -158.5 -64t-65.5 -159q0 -66 39.5 -106.5t106.5 -40.5q93 0 158.5 64t65.5 159z" />
    <glyph glyph-name="ntilde" unicode="&#xf1;" horiz-adv-x="630" 
d="M505 0h-85l68 320q5 27 5 43q0 92 -111 92q-71 0 -131 -49.5t-75 -120.5l-61 -285h-85l111 520h80l-11 -70h5q3 3 8.5 9t24 20.5t38 26t50 20.5t61.5 9q87 0 134.5 -44t47.5 -119q0 -25 -6 -52zM334 680q-27 0 -53.5 -12.5t-39.5 -25.5l-13 -12l15 70q4 6 12 14t34 22
t55 14q37 0 81.5 -27.5t70.5 -27.5q27 0 53.5 12.5t39.5 24.5l13 13l-15 -70q-4 -6 -12 -14t-34 -22t-55 -14q-37 0 -81.5 27.5t-70.5 27.5z" />
    <glyph glyph-name="ograve" unicode="&#xf2;" horiz-adv-x="660" 
d="M140 221q0 -70 41.5 -113t111.5 -43q97 0 167 68t70 166q0 70 -41.5 113t-111.5 43q-97 0 -167 -68t-70 -166zM617 299q0 -132 -95 -223t-229 -91q-113 0 -176.5 65.5t-63.5 170.5q0 132 95 223t229 91q113 0 176.5 -65.5t63.5 -170.5zM390 780l42 -180h-70l-72 180h100z
" />
    <glyph glyph-name="oacute" unicode="&#xf3;" horiz-adv-x="660" 
d="M140 221q0 -70 41.5 -113t111.5 -43q97 0 167 68t70 166q0 70 -41.5 113t-111.5 43q-97 0 -167 -68t-70 -166zM617 299q0 -132 -95 -223t-229 -91q-113 0 -176.5 65.5t-63.5 170.5q0 132 95 223t229 91q113 0 176.5 -65.5t63.5 -170.5zM367 600l118 180h100l-153 -180
h-65z" />
    <glyph glyph-name="ocircumflex" unicode="&#xf4;" horiz-adv-x="660" 
d="M140 221q0 -70 41.5 -113t111.5 -43q97 0 167 68t70 166q0 70 -41.5 113t-111.5 43q-97 0 -167 -68t-70 -166zM617 299q0 -132 -95 -223t-229 -91q-113 0 -176.5 65.5t-63.5 170.5q0 132 95 223t229 91q113 0 176.5 -65.5t63.5 -170.5zM522 600l-94 120l-151 -120h-60
l188 180h60l112 -180h-55z" />
    <glyph glyph-name="otilde" unicode="&#xf5;" horiz-adv-x="660" 
d="M140 221q0 -70 41.5 -113t111.5 -43q97 0 167 68t70 166q0 70 -41.5 113t-111.5 43q-97 0 -167 -68t-70 -166zM617 299q0 -132 -95 -223t-229 -91q-113 0 -176.5 65.5t-63.5 170.5q0 132 95 223t229 91q113 0 176.5 -65.5t63.5 -170.5zM334 680q-27 0 -53.5 -12.5
t-39.5 -25.5l-13 -12l15 70q4 6 12 14t34 22t55 14q37 0 81.5 -27.5t70.5 -27.5q27 0 53.5 12.5t39.5 24.5l13 13l-15 -70q-4 -6 -12 -14t-34 -22t-55 -14q-37 0 -81.5 27.5t-70.5 27.5z" />
    <glyph glyph-name="odieresis" unicode="&#xf6;" horiz-adv-x="660" 
d="M140 221q0 -70 41.5 -113t111.5 -43q97 0 167 68t70 166q0 70 -41.5 113t-111.5 43q-97 0 -167 -68t-70 -166zM617 299q0 -132 -95 -223t-229 -91q-113 0 -176.5 65.5t-63.5 170.5q0 132 95 223t229 91q113 0 176.5 -65.5t63.5 -170.5zM259 674q0 29 20.5 47.5t47.5 18.5
q20 0 32.5 -11.5t12.5 -32.5q0 -29 -20.5 -47.5t-47.5 -18.5q-20 0 -32.5 11.5t-12.5 32.5zM459 674q0 29 20.5 47.5t47.5 18.5q20 0 32.5 -11.5t12.5 -32.5q0 -29 -20.5 -47.5t-47.5 -18.5q-20 0 -32.5 11.5t-12.5 32.5z" />
    <glyph glyph-name="divide" unicode="&#xf7;" horiz-adv-x="525" 
d="M76 285l17 80h390l-17 -80h-390zM182 125q4 22 24 38.5t43 16.5q19 0 31.5 -13t12.5 -33q0 -25 -21 -44.5t-47 -19.5q-22 0 -35 16t-8 39zM267 525q4 22 24 38.5t43 16.5q19 0 31.5 -13t12.5 -33q0 -25 -21 -44.5t-47 -19.5q-22 0 -35 16t-8 39z" />
    <glyph glyph-name="oslash" unicode="&#xf8;" horiz-adv-x="660" 
d="M617 299q0 -132 -95 -223t-229 -91q-78 0 -135 33l-31 -33h-105l79 83q-48 60 -48 153q0 132 95 223t229 91q78 0 135 -34l32 34h105l-80 -84q48 -62 48 -152zM140 221q0 -50 22 -88l290 305q-34 17 -75 17q-97 0 -167 -68t-70 -166zM530 299q0 49 -22 87l-290 -305
q35 -16 75 -16q97 0 167 68t70 166z" />
    <glyph glyph-name="ugrave" unicode="&#xf9;" horiz-adv-x="635" 
d="M141 520h85l-68 -320q-5 -27 -5 -43q0 -92 111 -92q71 0 131 49.5t75 120.5l61 285h85l-111 -520h-80l11 70h-5q-3 -3 -8 -9t-22.5 -20.5t-36.5 -26t-49 -20.5t-61 -9q-88 0 -137.5 44.5t-49.5 118.5q0 25 6 52zM390 780l42 -180h-70l-72 180h100z" />
    <glyph glyph-name="uacute" unicode="&#xfa;" horiz-adv-x="635" 
d="M141 520h85l-68 -320q-5 -27 -5 -43q0 -92 111 -92q71 0 131 49.5t75 120.5l61 285h85l-111 -520h-80l11 70h-5q-3 -3 -8 -9t-22.5 -20.5t-36.5 -26t-49 -20.5t-61 -9q-88 0 -137.5 44.5t-49.5 118.5q0 25 6 52zM352 600l118 180h100l-153 -180h-65z" />
    <glyph glyph-name="ucircumflex" unicode="&#xfb;" horiz-adv-x="635" 
d="M141 520h85l-68 -320q-5 -27 -5 -43q0 -92 111 -92q71 0 131 49.5t75 120.5l61 285h85l-111 -520h-80l11 70h-5q-3 -3 -8 -9t-22.5 -20.5t-36.5 -26t-49 -20.5t-61 -9q-88 0 -137.5 44.5t-49.5 118.5q0 25 6 52zM512 600l-94 120l-151 -120h-60l188 180h60l112 -180h-55z
" />
    <glyph glyph-name="udieresis" unicode="&#xfc;" horiz-adv-x="635" 
d="M141 520h85l-68 -320q-5 -27 -5 -43q0 -92 111 -92q71 0 131 49.5t75 120.5l61 285h85l-111 -520h-80l11 70h-5q-3 -3 -8 -9t-22.5 -20.5t-36.5 -26t-49 -20.5t-61 -9q-88 0 -137.5 44.5t-49.5 118.5q0 25 6 52zM249 674q0 29 20.5 47.5t47.5 18.5q20 0 32.5 -11.5
t12.5 -32.5q0 -29 -20.5 -47.5t-47.5 -18.5q-20 0 -32.5 11.5t-12.5 32.5zM449 674q0 29 20.5 47.5t47.5 18.5q20 0 32.5 -11.5t12.5 -32.5q0 -29 -20.5 -47.5t-47.5 -18.5q-20 0 -32.5 11.5t-12.5 32.5z" />
    <glyph glyph-name="yacute" unicode="&#xfd;" horiz-adv-x="575" 
d="M317 600l118 180h100l-153 -180h-65zM606 520l-318 -515q-93 -153 -137 -196.5t-105 -43.5q-13 0 -25.5 2.5t-18.5 4.5l-5 3l6 75q18 -10 43 -10q32 0 62 32t88 133l-126 515h84l101 -419h5l254 419h92z" />
    <glyph glyph-name="thorn" unicode="&#xfe;" horiz-adv-x="665" 
d="M210 450h5l9 9t25 20.5t40 26t53 20.5t64 9q100 0 158 -65.5t58 -170.5q0 -131 -93.5 -222.5t-219.5 -91.5q-38 0 -69.5 10.5t-49.5 25t-30.5 29t-17.5 24.5l-4 11h-5l-65 -305h-85l208 980h85zM165 221q0 -69 40 -112.5t104 -43.5q89 0 157.5 68.5t68.5 165.5
q0 69 -40 112.5t-104 43.5q-89 0 -157.5 -68.5t-68.5 -165.5z" />
    <glyph glyph-name="ydieresis" unicode="&#xff;" horiz-adv-x="575" 
d="M606 520l-318 -515q-93 -153 -137 -196.5t-105 -43.5q-13 0 -25.5 2.5t-18.5 4.5l-5 3l6 75q18 -10 43 -10q32 0 62 32t88 133l-126 515h84l101 -419h5l254 419h92zM208 673q0 29 20.5 47.5t47.5 18.5q20 0 32.5 -11.5t12.5 -32.5q0 -29 -20.5 -47.5t-47.5 -18.5
q-20 0 -32.5 11.5t-12.5 32.5zM408 673q0 29 20.5 47.5t47.5 18.5q20 0 32.5 -11.5t12.5 -32.5q0 -29 -20.5 -47.5t-47.5 -18.5q-20 0 -32.5 11.5t-12.5 32.5z" />
    <glyph glyph-name="Amacron" unicode="&#x100;" horiz-adv-x="750" 
d="M545 285l-80 324h-5l-217 -324h302zM566 200h-380l-134 -200h-102l490 730h85l180 -730h-90zM325 850l15 70h350l-15 -70h-350z" />
    <glyph glyph-name="amacron" unicode="&#x101;" horiz-adv-x="628" 
d="M53 204q0 134 95.5 225t239.5 91h221l-110 -520h-80l11 70h-5q-3 -3 -8.5 -9t-23 -20.5t-36.5 -26t-47.5 -20.5t-56.5 -9q-92 0 -146 60.5t-54 158.5zM455 195l52 245h-119q-107 0 -177.5 -68t-70.5 -168q0 -63 35.5 -101t92.5 -38q34 0 65.5 13.5t52.5 32.5t37.5 38
t24.5 33zM248 650l15 70h350l-15 -70h-350z" />
    <glyph glyph-name="Abreve" unicode="&#x102;" horiz-adv-x="750" 
d="M545 285l-80 324h-5l-217 -324h302zM566 200h-380l-134 -200h-102l490 730h85l180 -730h-90zM500 820q-47 0 -86 12.5t-54 25.5l-16 12l19 90q2 -2 5.5 -6.5t16 -14.5t28 -18t42 -14.5t55.5 -6.5q47 0 90 15t63 30l20 15l-19 -90q-7 -6 -19.5 -14t-55 -22t-89.5 -14z" />
    <glyph glyph-name="abreve" unicode="&#x103;" horiz-adv-x="628" 
d="M53 204q0 134 95.5 225t239.5 91h221l-110 -520h-80l11 70h-5q-3 -3 -8.5 -9t-23 -20.5t-36.5 -26t-47.5 -20.5t-56.5 -9q-92 0 -146 60.5t-54 158.5zM455 195l52 245h-119q-107 0 -177.5 -68t-70.5 -168q0 -63 35.5 -101t92.5 -38q34 0 65.5 13.5t52.5 32.5t37.5 38
t24.5 33zM406 610q-47 0 -86 12.5t-54 25.5l-16 12l19 90q2 -2 5.5 -6.5t16 -14.5t28 -18t42 -14.5t55.5 -6.5q47 0 90 15t63 30l20 15l-19 -90q-7 -6 -19.5 -14t-55 -22t-89.5 -14z" />
    <glyph glyph-name="Aogonek" unicode="&#x104;" horiz-adv-x="750" 
d="M566 200h-380l-134 -200h-102l490 730h85l180 -730q-6 -2 -15.5 -6.5t-33.5 -19t-42.5 -30.5t-33.5 -41.5t-15 -52.5q0 -50 47 -50q12 0 25.5 4t20.5 8l7 3l-9 -45q-21 -20 -71 -20q-41 0 -68 23t-27 57q0 32 16.5 61.5t40 48.5t47.5 33t40 21l17 6h-36zM545 285l-80 324
h-5l-217 -324h302z" />
    <glyph glyph-name="aogonek" unicode="&#x105;" horiz-adv-x="628" 
d="M53 204q0 134 95.5 225t239.5 91h221l-110 -520q-6 -2 -15.5 -6.5t-33.5 -19t-42.5 -30.5t-33.5 -41.5t-15 -52.5q0 -50 47 -50q12 0 25.5 4t20.5 8l7 3l-9 -45q-21 -20 -71 -20q-41 0 -68 23t-27 57q0 32 16.5 61.5t40 48.5t47.5 33t40 21l17 6h-26l11 70h-5
q-3 -3 -8.5 -9t-23 -20.5t-36.5 -26t-47.5 -20.5t-56.5 -9q-92 0 -146 60.5t-54 158.5zM455 195l52 245h-119q-107 0 -177.5 -68t-70.5 -168q0 -63 35.5 -101t92.5 -38q34 0 65.5 13.5t52.5 32.5t37.5 38t24.5 33z" />
    <glyph glyph-name="Cacute" unicode="&#x106;" horiz-adv-x="740" 
d="M168 305q0 -106 64 -170.5t172 -64.5q42 0 83.5 12.5t70 30t51.5 35t35 30.5l11 12h15l-21 -100q-3 -4 -9.5 -11t-29 -25.5t-49 -32t-69 -25t-88.5 -11.5q-150 0 -240.5 91t-90.5 229q0 181 135.5 310.5t321.5 129.5q49 0 92.5 -11t70.5 -26.5t46.5 -30.5t28.5 -26l8 -11
l-51 -75q-2 4 -6 10.5t-19.5 22.5t-35.5 28.5t-56 23t-78 10.5q-155 0 -258.5 -101.5t-103.5 -253.5zM480 800l118 180h100l-153 -180h-65z" />
    <glyph glyph-name="cacute" unicode="&#x107;" horiz-adv-x="565" 
d="M135 221q0 -70 43 -113t116 -43q44 0 86 16.5t62 32.5l20 16h15l-18 -85q-2 -2 -7 -6.5t-21 -14.5t-33.5 -18t-46 -14.5t-57.5 -6.5q-116 0 -181 65t-65 171q0 133 95.5 223.5t233.5 90.5q58 0 106 -17.5t67 -35.5l19 -17l-50 -70q-2 2 -5.5 6.5t-16 14.5t-27.5 18
t-40 14.5t-53 6.5q-101 0 -171.5 -67.5t-70.5 -166.5zM327 600l118 180h100l-153 -180h-65z" />
    <glyph glyph-name="Ccircumflex" unicode="&#x108;" horiz-adv-x="740" 
d="M168 305q0 -106 64 -170.5t172 -64.5q42 0 83.5 12.5t70 30t51.5 35t35 30.5l11 12h15l-21 -100q-3 -4 -9.5 -11t-29 -25.5t-49 -32t-69 -25t-88.5 -11.5q-150 0 -240.5 91t-90.5 229q0 181 135.5 310.5t321.5 129.5q49 0 92.5 -11t70.5 -26.5t46.5 -30.5t28.5 -26l8 -11
l-51 -75q-2 4 -6 10.5t-19.5 22.5t-35.5 28.5t-56 23t-78 10.5q-155 0 -258.5 -101.5t-103.5 -253.5zM635 800l-94 120l-151 -120h-60l188 180h60l112 -180h-55z" />
    <glyph glyph-name="ccircumflex" unicode="&#x109;" horiz-adv-x="565" 
d="M135 221q0 -70 43 -113t116 -43q44 0 86 16.5t62 32.5l20 16h15l-18 -85q-2 -2 -7 -6.5t-21 -14.5t-33.5 -18t-46 -14.5t-57.5 -6.5q-116 0 -181 65t-65 171q0 133 95.5 223.5t233.5 90.5q58 0 106 -17.5t67 -35.5l19 -17l-50 -70q-2 2 -5.5 6.5t-16 14.5t-27.5 18
t-40 14.5t-53 6.5q-101 0 -171.5 -67.5t-70.5 -166.5zM492 600l-94 120l-151 -120h-60l188 180h60l112 -180h-55z" />
    <glyph glyph-name="Ccaron" unicode="&#x10c;" horiz-adv-x="740" 
d="M168 305q0 -106 64 -170.5t172 -64.5q42 0 83.5 12.5t70 30t51.5 35t35 30.5l11 12h15l-21 -100q-3 -4 -9.5 -11t-29 -25.5t-49 -32t-69 -25t-88.5 -11.5q-150 0 -240.5 91t-90.5 229q0 181 135.5 310.5t321.5 129.5q49 0 92.5 -11t70.5 -26.5t46.5 -30.5t28.5 -26l8 -11
l-51 -75q-2 4 -6 10.5t-19.5 22.5t-35.5 28.5t-56 23t-78 10.5q-155 0 -258.5 -101.5t-103.5 -253.5zM423 980l94 -120l151 120h60l-188 -180h-60l-112 180h55z" />
    <glyph glyph-name="ccaron" unicode="&#x10d;" horiz-adv-x="565" 
d="M135 221q0 -70 43 -113t116 -43q44 0 86 16.5t62 32.5l20 16h15l-18 -85q-2 -2 -7 -6.5t-21 -14.5t-33.5 -18t-46 -14.5t-57.5 -6.5q-116 0 -181 65t-65 171q0 133 95.5 223.5t233.5 90.5q58 0 106 -17.5t67 -35.5l19 -17l-50 -70q-2 2 -5.5 6.5t-16 14.5t-27.5 18
t-40 14.5t-53 6.5q-101 0 -171.5 -67.5t-70.5 -166.5zM275 780l94 -120l151 120h60l-188 -180h-60l-112 180h55z" />
    <glyph glyph-name="Dcaron" unicode="&#x10e;" horiz-adv-x="745" 
d="M397 730h18q138 0 224.5 -88.5t86.5 -220.5q0 -113 -62 -210.5t-165.5 -154t-220.5 -56.5h-228l155 730h192zM397 645h-120l-119 -560h120q148 0 250.5 96.5t102.5 239.5q0 100 -63 162t-171 62zM393 980l94 -120l151 120h60l-188 -180h-60l-112 180h55z" />
    <glyph glyph-name="dcaron" unicode="&#x10f;" horiz-adv-x="720" 
d="M466 70h-5l-9 -9t-25.5 -20.5t-40.5 -26t-53 -20.5t-64 -9q-100 0 -158 65.5t-58 170.5q0 131 93.5 222.5t219.5 91.5q38 0 69.5 -10.5t49.5 -25t30.5 -29t16.5 -24.5l5 -11h5l69 325h85l-161 -760h-80zM510 299q0 69 -40 112.5t-104 43.5q-89 0 -157.5 -68.5
t-68.5 -165.5q0 -69 40 -112.5t104 -43.5q89 0 157.5 68.5t68.5 165.5zM858 754q0 -39 -29.5 -92t-70.5 -82h-30q57 55 70 115q-16 0 -26.5 10t-10.5 27q0 26 18 42t42 16q16 0 26.5 -9.5t10.5 -26.5z" />
    <glyph glyph-name="Dcroat" unicode="&#x110;" horiz-adv-x="765" 
d="M435 730q138 0 224.5 -88.5t86.5 -220.5q0 -113 -62 -210.5t-165.5 -154t-220.5 -56.5h-228l68 320h-80l18 85h80l69 325h210zM417 645h-120l-51 -240h220l-18 -85h-220l-50 -235h120q148 0 250.5 96.5t102.5 239.5q0 100 -63 162t-171 62z" />
    <glyph glyph-name="dcroat" unicode="&#x111;" horiz-adv-x="695" 
d="M466 70h-5l-9 -9t-25.5 -20.5t-40.5 -26t-53 -20.5t-64 -9q-100 0 -158 65.5t-58 170.5q0 131 93.5 222.5t219.5 91.5q38 0 69.5 -10.5t49.5 -25t30.5 -29t16.5 -24.5l5 -11h5l35 165h-170l17 80h170l17 80h85l-17 -80h90l-17 -80h-90l-127 -600h-80zM510 299
q0 69 -40 112.5t-104 43.5q-89 0 -157.5 -68.5t-68.5 -165.5q0 -69 40 -112.5t104 -43.5q89 0 157.5 68.5t68.5 165.5z" />
    <glyph glyph-name="Emacron" unicode="&#x112;" horiz-adv-x="615" 
d="M50 0l155 730h450l-18 -85h-360l-49 -230h285l-18 -85h-285l-52 -245h360l-18 -85h-450zM270 850l15 70h350l-15 -70h-350z" />
    <glyph glyph-name="emacron" unicode="&#x113;" horiz-adv-x="625" 
d="M367 535q96 0 157 -58t61 -142q0 -22 -3.5 -44.5t-6.5 -34.5l-3 -11h-430q-2 -11 -2 -24q0 -70 43 -113t116 -43q56 0 106 17.5t72 35.5l22 17h15l-20 -90l-6.5 -6.5t-20.5 -14.5t-36.5 -18t-55.5 -14.5t-76 -6.5q-116 0 -181 65t-65 171q0 132 93.5 223t220.5 91z
M367 455q-65 0 -120 -37.5t-83 -92.5h335v10q0 51 -35 85.5t-97 34.5zM213 650l15 70h350l-15 -70h-350z" />
    <glyph glyph-name="Edotaccent" unicode="&#x116;" horiz-adv-x="615" 
d="M50 0l155 730h450l-18 -85h-360l-49 -230h285l-18 -85h-285l-52 -245h360l-18 -85h-450zM391 874q0 29 20.5 47.5t47.5 18.5q20 0 32.5 -11.5t12.5 -32.5q0 -29 -20.5 -47.5t-47.5 -18.5q-20 0 -32.5 11.5t-12.5 32.5z" />
    <glyph glyph-name="edotaccent" unicode="&#x117;" horiz-adv-x="625" 
d="M367 535q96 0 157 -58t61 -142q0 -22 -3.5 -44.5t-6.5 -34.5l-3 -11h-430q-2 -11 -2 -24q0 -70 43 -113t116 -43q56 0 106 17.5t72 35.5l22 17h15l-20 -90l-6.5 -6.5t-20.5 -14.5t-36.5 -18t-55.5 -14.5t-76 -6.5q-116 0 -181 65t-65 171q0 132 93.5 223t220.5 91z
M367 455q-65 0 -120 -37.5t-83 -92.5h335v10q0 51 -35 85.5t-97 34.5zM338 674q0 29 20.5 47.5t47.5 18.5q20 0 32.5 -11.5t12.5 -32.5q0 -29 -20.5 -47.5t-47.5 -18.5q-20 0 -32.5 11.5t-12.5 32.5z" />
    <glyph glyph-name="Eogonek" unicode="&#x118;" horiz-adv-x="615" 
d="M50 0l155 730h450l-18 -85h-360l-49 -230h285l-18 -85h-285l-52 -245h360l-18 -85q-6 -2 -15.5 -6.5t-33.5 -19t-42.5 -30.5t-33.5 -41.5t-15 -52.5q0 -50 47 -50q12 0 25.5 4t20.5 8l7 3l-9 -45q-21 -20 -71 -20q-41 0 -68 23t-27 57q0 32 16.5 61.5t40 48.5t47 33
t39.5 21l17 6h-395z" />
    <glyph glyph-name="eogonek" unicode="&#x119;" horiz-adv-x="625" 
d="M367 535q96 0 157 -58t61 -142q0 -22 -3.5 -44.5t-6.5 -34.5l-3 -11h-430q-2 -11 -2 -24q0 -70 43 -113t116 -43q56 0 106 17.5t72 35.5l22 17h15l-20 -90q-4 -5 -12.5 -12t-41 -22t-72.5 -21q-5 -2 -13 -6.5t-28 -18.5t-35.5 -29t-28.5 -38.5t-13 -47.5q0 -50 47 -50
q12 0 25.5 4t20.5 8l7 3l-9 -45q-21 -20 -71 -20q-41 0 -68 23t-27 57q0 28 13 54.5t31.5 44t37 30.5t31.5 19l13 7h-2q-116 0 -181 65t-65 171q0 132 93.5 223t220.5 91zM367 455q-65 0 -120 -37.5t-83 -92.5h335v10q0 51 -35 85.5t-97 34.5z" />
    <glyph glyph-name="Ecaron" unicode="&#x11a;" horiz-adv-x="615" 
d="M50 0l155 730h450l-18 -85h-360l-49 -230h285l-18 -85h-285l-52 -245h360l-18 -85h-450zM343 980l94 -120l151 120h60l-188 -180h-60l-112 180h55z" />
    <glyph glyph-name="ecaron" unicode="&#x11b;" horiz-adv-x="625" 
d="M367 535q96 0 157 -58t61 -142q0 -22 -3.5 -44.5t-6.5 -34.5l-3 -11h-430q-2 -11 -2 -24q0 -70 43 -113t116 -43q56 0 106 17.5t72 35.5l22 17h15l-20 -90l-6.5 -6.5t-20.5 -14.5t-36.5 -18t-55.5 -14.5t-76 -6.5q-116 0 -181 65t-65 171q0 132 93.5 223t220.5 91z
M367 455q-65 0 -120 -37.5t-83 -92.5h335v10q0 51 -35 85.5t-97 34.5zM290 780l94 -120l151 120h60l-188 -180h-60l-112 180h55z" />
    <glyph glyph-name="Gbreve" unicode="&#x11e;" horiz-adv-x="800" 
d="M530 745q49 0 92.5 -11t70.5 -26.5t46.5 -30.5t28.5 -26l8 -11l-51 -75q-2 4 -6 10.5t-19.5 22.5t-35.5 28.5t-56 23t-78 10.5q-155 0 -258.5 -101.5t-103.5 -253.5q0 -106 64 -170.5t172 -64.5q60 0 114 20t78 40l25 20l34 160h-245l44 85h310l-58 -270
q-4 -6 -11.5 -15.5t-35.5 -33.5t-60 -42.5t-85 -33.5t-110 -15q-150 0 -240.5 91t-90.5 229q0 181 135.5 310.5t321.5 129.5zM530 820q-47 0 -86 12.5t-54 25.5l-16 12l19 90q2 -2 5.5 -6.5t16 -14.5t28 -18t42 -14.5t55.5 -6.5q47 0 90 15t63 30l20 15l-19 -90
q-7 -6 -19.5 -14t-55 -22t-89.5 -14z" />
    <glyph glyph-name="gbreve" unicode="&#x11f;" horiz-adv-x="655" 
d="M410 630q-47 0 -86 12.5t-54 25.5l-16 12l19 90q2 -2 5.5 -6.5t16 -14.5t28 -18t42 -14.5t55.5 -6.5q47 0 90 15t63 30l20 15l-19 -90q-7 -6 -19.5 -14t-55 -22t-89.5 -14zM222 -155q87 0 147 51t79 144l15 60h-5q-3 -3 -8.5 -9t-24.5 -20.5t-39 -26t-51.5 -20.5
t-62.5 -9q-99 0 -157 62t-58 159q0 125 91.5 212t217.5 87q35 0 65 -9t47.5 -21.5t29.5 -25t17 -21.5l5 -9h5l20 71h80l-102 -480q-28 -132 -108 -203.5t-203 -71.5q-47 0 -91 11t-65 22l-21 12v95l6.5 -6.5t21 -14.5t35.5 -18t49.5 -14.5t64.5 -6.5zM144 236
q0 -62 38 -101.5t100 -39.5q89 0 155.5 64t66.5 155q0 62 -38 101.5t-100 39.5q-89 0 -155.5 -64t-66.5 -155z" />
    <glyph glyph-name="Gcommaaccent" unicode="&#x122;" horiz-adv-x="800" 
d="M530 745q49 0 92.5 -11t70.5 -26.5t46.5 -30.5t28.5 -26l8 -11l-51 -75q-2 4 -6 10.5t-19.5 22.5t-35.5 28.5t-56 23t-78 10.5q-155 0 -258.5 -101.5t-103.5 -253.5q0 -106 64 -170.5t172 -64.5q60 0 114 20t78 40l25 20l34 160h-245l44 85h310l-58 -270
q-4 -6 -11.5 -15.5t-35.5 -33.5t-60 -42.5t-85 -33.5t-110 -15q-150 0 -240.5 91t-90.5 229q0 181 135.5 310.5t321.5 129.5zM425 -106q0 -39 -29.5 -92t-70.5 -82h-30q57 55 70 115q-16 0 -26.5 10t-10.5 27q0 26 18 42t42 16q16 0 26.5 -9.5t10.5 -26.5z" />
    <glyph glyph-name="gcommaaccent" unicode="&#x123;" horiz-adv-x="655" 
d="M349 646q0 39 29.5 92t70.5 82h30q-57 -55 -70 -115q16 0 26.5 -10t10.5 -27q0 -26 -18 -42t-42 -16q-16 0 -26.5 9.5t-10.5 26.5zM222 -155q87 0 147 51t79 144l15 60h-5q-3 -3 -8.5 -9t-24.5 -20.5t-39 -26t-51.5 -20.5t-62.5 -9q-99 0 -157 62t-58 159q0 125 91.5 212
t217.5 87q35 0 65 -9t47.5 -21.5t29.5 -25t17 -21.5l5 -9h5l20 71h80l-102 -480q-28 -132 -108 -203.5t-203 -71.5q-47 0 -91 11t-65 22l-21 12v95l6.5 -6.5t21 -14.5t35.5 -18t49.5 -14.5t64.5 -6.5zM144 236q0 -62 38 -101.5t100 -39.5q89 0 155.5 64t66.5 155
q0 62 -38 101.5t-100 39.5q-89 0 -155.5 -64t-66.5 -155z" />
    <glyph glyph-name="Imacron" unicode="&#x12a;" horiz-adv-x="290" 
d="M295 730l-155 -730h-90l155 730h90zM90 850l15 70h350l-15 -70h-350z" />
    <glyph glyph-name="imacron" unicode="&#x12b;" horiz-adv-x="245" 
d="M226 520l-111 -520h-85l111 520h85zM28 650l15 70h350l-15 -70h-350z" />
    <glyph glyph-name="Iogonek" unicode="&#x12e;" horiz-adv-x="290" 
d="M295 730l-155 -730q-6 -2 -15.5 -6.5t-33.5 -19t-42.5 -30.5t-33.5 -41.5t-15 -52.5q0 -50 47 -50q12 0 25.5 4t20.5 8l7 3l-9 -45q-21 -20 -71 -20q-41 0 -68 23t-27 57q0 32 16.5 61.5t40 48.5t47 33t39.5 21l17 6h-35l155 730h90z" />
    <glyph glyph-name="iogonek" unicode="&#x12f;" horiz-adv-x="250" 
d="M226 525l-111 -525q-6 -2 -15.5 -6.5t-33.5 -19t-42.5 -30.5t-33.5 -41.5t-15 -52.5q0 -50 47 -50q12 0 25.5 4t20.5 8l7 3l-9 -45q-21 -20 -71 -20q-41 0 -68 23t-27 57q0 32 16.5 61.5t40 48.5t47 33t40.5 21l16 6h-30l111 525q19 -5 39 -5zM167 689q0 29 20.5 47.5
t47.5 18.5q20 0 32.5 -11.5t12.5 -32.5q0 -29 -20.5 -47.5t-47.5 -18.5q-20 0 -32.5 11.5t-12.5 32.5z" />
    <glyph glyph-name="Idotaccent" unicode="&#x130;" horiz-adv-x="290" 
d="M295 730l-155 -730h-90l155 730h90zM226 874q0 29 20.5 47.5t47.5 18.5q20 0 32.5 -11.5t12.5 -32.5q0 -29 -20.5 -47.5t-47.5 -18.5q-20 0 -32.5 11.5t-12.5 32.5z" />
    <glyph glyph-name="dotlessi" unicode="&#x131;" horiz-adv-x="245" 
d="M226 520l-111 -520h-85l111 520h85z" />
    <glyph glyph-name="Kcommaaccent" unicode="&#x136;" horiz-adv-x="680" 
d="M532 0l-208 353l-133 -115l-51 -238h-90l155 730h90l-76 -360l416 360h125l-371 -321l241 -409h-98zM365 -106q0 -39 -29.5 -92t-70.5 -82h-30q57 55 70 115q-16 0 -26.5 10t-10.5 27q0 26 18 42t42 16q16 0 26.5 -9.5t10.5 -26.5z" />
    <glyph glyph-name="kcommaaccent" unicode="&#x137;" horiz-adv-x="555" 
d="M405 0l-144 240l-115 -95l-31 -145h-85l162 760h85l-106 -495l309 255h121l-273 -225l177 -295h-100zM295 -106q0 -39 -29.5 -92t-70.5 -82h-30q57 55 70 115q-16 0 -26.5 10t-10.5 27q0 26 18 42t42 16q16 0 26.5 -9.5t10.5 -26.5z" />
    <glyph glyph-name="Lacute" unicode="&#x139;" horiz-adv-x="535" 
d="M295 730l-137 -645h325l-18 -85h-415l155 730h90zM235 800l118 180h100l-153 -180h-65z" />
    <glyph glyph-name="lacute" unicode="&#x13a;" horiz-adv-x="280" 
d="M218 840l118 180h100l-153 -180h-65zM225 70l-14 -65q-24 -20 -64 -20q-44 0 -70.5 24.5t-26.5 67.5q0 19 4 38l137 645h85l-137 -645q-3 -13 -3 -22q0 -33 41 -33q9 0 17 2.5t12 5.5l4 2h15z" />
    <glyph glyph-name="Lcommaaccent" unicode="&#x13b;" horiz-adv-x="535" 
d="M295 730l-137 -645h325l-18 -85h-415l155 730h90zM300 -106q0 -39 -29.5 -92t-70.5 -82h-30q57 55 70 115q-16 0 -26.5 10t-10.5 27q0 26 18 42t42 16q16 0 26.5 -9.5t10.5 -26.5z" />
    <glyph glyph-name="lcommaaccent" unicode="&#x13c;" horiz-adv-x="280" 
d="M225 70l-14 -65q-24 -20 -64 -20q-44 0 -70.5 24.5t-26.5 67.5q0 19 4 38l137 645h85l-137 -645q-3 -13 -3 -22q0 -33 41 -33q9 0 17 2.5t12 5.5l4 2h15zM155 -106q0 -39 -29.5 -92t-70.5 -82h-30q57 55 70 115q-16 0 -26.5 10t-10.5 27q0 26 18 42t42 16q16 0 26.5 -9.5
t10.5 -26.5z" />
    <glyph glyph-name="Lcaron" unicode="&#x13d;" horiz-adv-x="535" 
d="M295 730l-137 -645h325l-18 -85h-415l155 730h90zM472 704q0 -39 -29.5 -92t-70.5 -82h-30q57 55 70 115q-16 0 -26.5 10t-10.5 27q0 26 18 42t42 16q16 0 26.5 -9.5t10.5 -26.5z" />
    <glyph glyph-name="lcaron" unicode="&#x13e;" horiz-adv-x="295" 
d="M225 70l-14 -65q-24 -20 -64 -20q-44 0 -70.5 24.5t-26.5 67.5q0 19 4 38l137 645h85l-137 -645q-3 -13 -3 -22q0 -33 41 -33q9 0 17 2.5t12 5.5l4 2h15zM432 750q0 -39 -29.5 -92t-70.5 -82h-30q57 55 70 115q-16 0 -26.5 10t-10.5 27q0 26 18 42t42 16q16 0 26.5 -9.5
t10.5 -26.5z" />
    <glyph glyph-name="Lslash" unicode="&#x141;" horiz-adv-x="550" 
d="M47 270l16 75l80 25l77 360h90l-70 -330l187 60l-16 -75l-187 -60l-51 -240h325l-18 -85h-415l62 295z" />
    <glyph glyph-name="lslash" unicode="&#x142;" horiz-adv-x="280" 
d="M225 70l-14 -65q-24 -20 -64 -20q-44 0 -70.5 24.5t-26.5 67.5q0 19 4 38l47 221l-85 -26l16 75l85 26l74 349h85l-68 -322l86 27l-16 -75l-86 -27l-53 -248q-3 -13 -3 -22q0 -33 41 -33q9 0 17 2.5t12 5.5l4 2h15z" />
    <glyph glyph-name="Nacute" unicode="&#x143;" horiz-adv-x="790" 
d="M795 730l-155 -730h-85l-290 588l-125 -588h-90l155 730h85l290 -588l125 588h90zM470 800l118 180h100l-153 -180h-65z" />
    <glyph glyph-name="nacute" unicode="&#x144;" horiz-adv-x="630" 
d="M505 0h-85l68 320q5 27 5 43q0 92 -111 92q-71 0 -131 -49.5t-75 -120.5l-61 -285h-85l111 520h80l-11 -70h5q3 3 8.5 9t24 20.5t38 26t50 20.5t61.5 9q87 0 134.5 -44t47.5 -119q0 -25 -6 -52zM352 600l118 180h100l-153 -180h-65z" />
    <glyph glyph-name="Ncommaaccent" unicode="&#x145;" horiz-adv-x="790" 
d="M795 730l-155 -730h-85l-290 588l-125 -588h-90l155 730h85l290 -588l125 588h90zM390 -106q0 -39 -29.5 -92t-70.5 -82h-30q57 55 70 115q-16 0 -26.5 10t-10.5 27q0 26 18 42t42 16q16 0 26.5 -9.5t10.5 -26.5z" />
    <glyph glyph-name="ncommaaccent" unicode="&#x146;" horiz-adv-x="630" 
d="M505 0h-85l68 320q5 27 5 43q0 92 -111 92q-71 0 -131 -49.5t-75 -120.5l-61 -285h-85l111 520h80l-11 -70h5q3 3 8.5 9t24 20.5t38 26t50 20.5t61.5 9q87 0 134.5 -44t47.5 -119q0 -25 -6 -52zM315 -106q0 -39 -29.5 -92t-70.5 -82h-30q57 55 70 115q-16 0 -26.5 10
t-10.5 27q0 26 18 42t42 16q16 0 26.5 -9.5t10.5 -26.5z" />
    <glyph glyph-name="Ncaron" unicode="&#x147;" horiz-adv-x="790" 
d="M795 730l-155 -730h-85l-290 588l-125 -588h-90l155 730h85l290 -588l125 588h90zM423 980l94 -120l151 120h60l-188 -180h-60l-112 180h55z" />
    <glyph glyph-name="ncaron" unicode="&#x148;" horiz-adv-x="630" 
d="M505 0h-85l68 320q5 27 5 43q0 92 -111 92q-71 0 -131 -49.5t-75 -120.5l-61 -285h-85l111 520h80l-11 -70h5q3 3 8.5 9t24 20.5t38 26t50 20.5t61.5 9q87 0 134.5 -44t47.5 -119q0 -25 -6 -52zM300 780l94 -120l151 120h60l-188 -180h-60l-112 180h55z" />
    <glyph glyph-name="Omacron" unicode="&#x14c;" horiz-adv-x="870" 
d="M168 305q0 -105 63 -170t168 -65q152 0 254.5 101.5t102.5 253.5q0 105 -63 170t-168 65q-152 0 -254.5 -101.5t-102.5 -253.5zM851 425q0 -89 -37 -171t-98 -140.5t-144.5 -93.5t-172.5 -35q-147 0 -236.5 91t-89.5 229q0 89 37 171t98 140.5t144.5 93.5t172.5 35
q147 0 236.5 -91t89.5 -229zM370 850l15 70h350l-15 -70h-350z" />
    <glyph glyph-name="omacron" unicode="&#x14d;" horiz-adv-x="660" 
d="M140 221q0 -70 41.5 -113t111.5 -43q97 0 167 68t70 166q0 70 -41.5 113t-111.5 43q-97 0 -167 -68t-70 -166zM617 299q0 -132 -95 -223t-229 -91q-113 0 -176.5 65.5t-63.5 170.5q0 132 95 223t229 91q113 0 176.5 -65.5t63.5 -170.5zM233 650l15 70h350l-15 -70h-350z
" />
    <glyph glyph-name="Ohungarumlaut" unicode="&#x150;" horiz-adv-x="870" 
d="M168 305q0 -105 63 -170t168 -65q152 0 254.5 101.5t102.5 253.5q0 105 -63 170t-168 65q-152 0 -254.5 -101.5t-102.5 -253.5zM851 425q0 -89 -37 -171t-98 -140.5t-144.5 -93.5t-172.5 -35q-147 0 -236.5 91t-89.5 229q0 89 37 171t98 140.5t144.5 93.5t172.5 35
q147 0 236.5 -91t89.5 -229zM440 800l98 180h95l-138 -180h-55zM585 800l118 180h95l-148 -180h-65z" />
    <glyph glyph-name="ohungarumlaut" unicode="&#x151;" horiz-adv-x="660" 
d="M140 221q0 -70 41.5 -113t111.5 -43q97 0 167 68t70 166q0 70 -41.5 113t-111.5 43q-97 0 -167 -68t-70 -166zM617 299q0 -132 -95 -223t-229 -91q-113 0 -176.5 65.5t-63.5 170.5q0 132 95 223t229 91q113 0 176.5 -65.5t63.5 -170.5zM307 600l98 180h95l-138 -180h-55z
M452 600l118 180h95l-148 -180h-65z" />
    <glyph glyph-name="OE" unicode="&#x152;" horiz-adv-x="1005" 
d="M525 745q29 0 55 -3.5t38 -7.5l12 -4h415l-18 -85h-310l-49 -230h235l-18 -85h-235l-52 -245h310l-18 -85h-377q-49 -15 -114 -15q-147 0 -236.5 91t-89.5 229q0 89 37 171t98 140.5t144.5 93.5t172.5 35zM399 70q27 0 54.5 4t40.5 8l14 3l118 555q-36 20 -101 20
q-152 0 -254.5 -101.5t-102.5 -253.5q0 -105 63 -170t168 -65z" />
    <glyph glyph-name="oe" unicode="&#x153;" horiz-adv-x="980" 
d="M722 535q96 0 157 -58t61 -142q0 -22 -3 -44.5t-7 -34.5l-3 -11h-430q-2 -11 -2 -24q0 -70 43 -113t116 -43q56 0 106 17.5t72 35.5l22 17h15l-20 -90l-6.5 -6.5t-20.5 -14.5t-36.5 -18t-55.5 -14.5t-76 -6.5q-108 0 -173 57q-84 -57 -188 -57q-113 0 -176.5 65.5
t-63.5 170.5q0 132 95 223t229 91q101 0 167 -56q82 56 178 56zM293 65q75 0 138 44q-23 46 -23 112q0 113 72 199q-41 35 -103 35q-97 0 -167 -68t-70 -166q0 -70 41.5 -113t111.5 -43zM722 455q-65 0 -120 -37.5t-83 -92.5h335v10q0 51 -35 85.5t-97 34.5z" />
    <glyph glyph-name="Racute" unicode="&#x154;" horiz-adv-x="650" 
d="M277 645l-64 -300h125q88 0 142 51.5t54 131.5q0 53 -35 85t-97 32h-125zM436 275l129 -275h-100l-124 265h-145l-56 -265h-90l155 730h197q105 0 167.5 -58.5t62.5 -143.5q0 -56 -20 -102t-49 -72t-57.5 -44t-48.5 -24l-20 -6zM395 800l118 180h100l-153 -180h-65z" />
    <glyph glyph-name="racute" unicode="&#x155;" horiz-adv-x="455" 
d="M362 455q-24 0 -51 -12.5t-48 -30t-39 -35t-28 -29.5l-10 -13l-71 -335h-85l111 520h80l-12 -70h5q2 3 6.5 9t20 20.5t32.5 26t44 20.5t55 9q37 0 69 -11.5t45 -22.5l13 -11l-41 -75q-2 4 -8 11t-30.5 18t-57.5 11zM292 600l118 180h100l-153 -180h-65z" />
    <glyph glyph-name="Rcommaaccent" unicode="&#x156;" horiz-adv-x="650" 
d="M277 645l-64 -300h125q88 0 142 51.5t54 131.5q0 53 -35 85t-97 32h-125zM436 275l129 -275h-100l-124 265h-145l-56 -265h-90l155 730h197q105 0 167.5 -58.5t62.5 -143.5q0 -56 -20 -102t-49 -72t-57.5 -44t-48.5 -24l-20 -6zM340 -106q0 -39 -29.5 -92t-70.5 -82h-30
q57 55 70 115q-16 0 -26.5 10t-10.5 27q0 26 18 42t42 16q16 0 26.5 -9.5t10.5 -26.5z" />
    <glyph glyph-name="rcommaaccent" unicode="&#x157;" horiz-adv-x="455" 
d="M362 455q-24 0 -51 -12.5t-48 -30t-39 -35t-28 -29.5l-10 -13l-71 -335h-85l111 520h80l-12 -70h5q2 3 6.5 9t20 20.5t32.5 26t44 20.5t55 9q37 0 69 -11.5t45 -22.5l13 -11l-41 -75q-2 4 -8 11t-30.5 18t-57.5 11zM105 -106q0 -39 -29.5 -92t-70.5 -82h-30q57 55 70 115
q-16 0 -26.5 10t-10.5 27q0 26 18 42t42 16q16 0 26.5 -9.5t10.5 -26.5z" />
    <glyph glyph-name="Rcaron" unicode="&#x158;" horiz-adv-x="650" 
d="M277 645l-64 -300h125q88 0 142 51.5t54 131.5q0 53 -35 85t-97 32h-125zM436 275l129 -275h-100l-124 265h-145l-56 -265h-90l155 730h197q105 0 167.5 -58.5t62.5 -143.5q0 -56 -20 -102t-49 -72t-57.5 -44t-48.5 -24l-20 -6zM343 980l94 -120l151 120h60l-188 -180
h-60l-112 180h55z" />
    <glyph glyph-name="rcaron" unicode="&#x159;" horiz-adv-x="455" 
d="M362 455q-24 0 -51 -12.5t-48 -30t-39 -35t-28 -29.5l-10 -13l-71 -335h-85l111 520h80l-12 -70h5q2 3 6.5 9t20 20.5t32.5 26t44 20.5t55 9q37 0 69 -11.5t45 -22.5l13 -11l-41 -75q-2 4 -8 11t-30.5 18t-57.5 11zM235 780l94 -120l151 120h60l-188 -180h-60l-112 180
h55z" />
    <glyph glyph-name="Sacute" unicode="&#x15a;" horiz-adv-x="560" 
d="M375 745q38 0 73 -7.5t58.5 -18.5t41.5 -22.5t26 -18.5l8 -8l-51 -75q-6 7 -17 18t-51.5 29t-87.5 18q-72 0 -110 -32.5t-38 -81.5q0 -34 30 -64t72.5 -55.5t84.5 -53.5t72 -70.5t30 -94.5q0 -91 -78 -157t-193 -66q-43 0 -83.5 10.5t-67 25t-47 29t-29.5 24.5l-10 11
l51 75q2 -4 6.5 -10t20.5 -21.5t35.5 -27.5t52.5 -21.5t71 -9.5q80 0 126.5 39.5t46.5 98.5q0 32 -21.5 59t-53 45.5t-69 42t-69 47t-53 61t-21.5 83.5q0 82 69 140.5t175 58.5zM350 800l118 180h100l-153 -180h-65z" />
    <glyph glyph-name="sacute" unicode="&#x15b;" horiz-adv-x="475" 
d="M425 151q0 -73 -56 -119.5t-165 -46.5q-56 0 -108 16.5t-76 32.5l-24 16l36 75q8 -7 22 -17t61.5 -26.5t98.5 -16.5q65 0 94.5 24t29.5 62q0 27 -27 45.5t-66 31t-77.5 27.5t-65.5 46t-27 76q0 67 53.5 112.5t143.5 45.5q36 0 70 -7.5t55.5 -19t38.5 -22.5t24 -18l8 -8
l-50 -70q-5 7 -15.5 18t-48.5 29t-82 18q-53 0 -82 -23t-29 -55q0 -23 27 -39.5t66 -29.5t78 -30t66 -49.5t27 -77.5zM262 600l118 180h100l-153 -180h-65z" />
    <glyph glyph-name="Scedilla" unicode="&#x15e;" horiz-adv-x="560" 
d="M375 745q38 0 73 -7.5t58.5 -18.5t41.5 -22.5t26 -18.5l8 -8l-51 -75q-6 7 -17 18t-51.5 29t-87.5 18q-72 0 -110 -32.5t-38 -81.5q0 -34 30 -64t72.5 -55.5t84.5 -53.5t72 -70.5t30 -94.5q0 -90 -77 -156t-190 -67l-21 -35q39 -8 65 -33t26 -60q0 -44 -40 -75.5
t-108 -31.5q-22 0 -43.5 5t-31.5 10l-11 5l11 50q25 -20 65 -20q82 0 82 57q0 21 -22 34.5t-44 16.5l-22 2l46 78q-56 7 -104.5 31.5t-68.5 44.5l-20 21l51 75q2 -4 6.5 -10t20.5 -21.5t35.5 -27.5t52.5 -21.5t71 -9.5q80 0 126.5 39.5t46.5 98.5q0 32 -21.5 59t-53 45.5
t-69 42t-69 47t-53 61t-21.5 83.5q0 82 69 140.5t175 58.5z" />
    <glyph glyph-name="scedilla" unicode="&#x15f;" horiz-adv-x="475" 
d="M425 151q0 -72 -56 -118.5t-164 -47.5l-21 -35q39 -8 65 -33t26 -60q0 -44 -40 -75.5t-108 -31.5q-22 0 -43.5 5t-31.5 10l-11 5l11 50q25 -20 65 -20q82 0 82 57q0 21 -22 34.5t-44 16.5l-22 2l47 78q-44 5 -84.5 20.5t-59.5 28.5l-18 13l36 75q8 -7 22 -17t61.5 -26.5
t98.5 -16.5q65 0 94.5 24t29.5 62q0 27 -27 45.5t-66 31t-77.5 27.5t-65.5 46t-27 76q0 67 53.5 112.5t143.5 45.5q36 0 70 -7.5t55.5 -19t38.5 -22.5t24 -18l8 -8l-50 -70q-5 7 -15.5 18t-48.5 29t-82 18q-53 0 -82 -23t-29 -55q0 -23 27 -39.5t66 -29.5t78 -30t66 -49.5
t27 -77.5z" />
    <glyph glyph-name="Scaron" unicode="&#x160;" horiz-adv-x="560" 
d="M375 745q38 0 73 -7.5t58.5 -18.5t41.5 -22.5t26 -18.5l8 -8l-51 -75q-6 7 -17 18t-51.5 29t-87.5 18q-72 0 -110 -32.5t-38 -81.5q0 -34 30 -64t72.5 -55.5t84.5 -53.5t72 -70.5t30 -94.5q0 -91 -78 -157t-193 -66q-43 0 -83.5 10.5t-67 25t-47 29t-29.5 24.5l-10 11
l51 75q2 -4 6.5 -10t20.5 -21.5t35.5 -27.5t52.5 -21.5t71 -9.5q80 0 126.5 39.5t46.5 98.5q0 32 -21.5 59t-53 45.5t-69 42t-69 47t-53 61t-21.5 83.5q0 82 69 140.5t175 58.5zM303 980l94 -120l151 120h60l-188 -180h-60l-112 180h55z" />
    <glyph glyph-name="scaron" unicode="&#x161;" horiz-adv-x="475" 
d="M425 151q0 -73 -56 -119.5t-165 -46.5q-56 0 -108 16.5t-76 32.5l-24 16l36 75q8 -7 22 -17t61.5 -26.5t98.5 -16.5q65 0 94.5 24t29.5 62q0 27 -27 45.5t-66 31t-77.5 27.5t-65.5 46t-27 76q0 67 53.5 112.5t143.5 45.5q36 0 70 -7.5t55.5 -19t38.5 -22.5t24 -18l8 -8
l-50 -70q-5 7 -15.5 18t-48.5 29t-82 18q-53 0 -82 -23t-29 -55q0 -23 27 -39.5t66 -29.5t78 -30t66 -49.5t27 -77.5zM210 780l94 -120l151 120h60l-188 -180h-60l-112 180h55z" />
    <glyph glyph-name="Tcommaaccent" unicode="&#x162;" horiz-adv-x="610" 
d="M135 730h550l-18 -85h-230l-137 -645h-90l137 645h-230zM290 -106q0 -39 -29.5 -92t-70.5 -82h-30q57 55 70 115q-16 0 -26.5 10t-10.5 27q0 26 18 42t42 16q16 0 26.5 -9.5t10.5 -26.5z" />
    <glyph glyph-name="tcommaaccent" unicode="&#x163;" horiz-adv-x="425" 
d="M99 160l59 280h-100l7 30l224 205h5l-34 -155h166l-18 -80h-165l-59 -280q-4 -16 -4 -33q0 -62 64 -62q24 0 49 10t37 20l13 10h15l-16 -75q-4 -5 -12.5 -12.5t-36.5 -20t-59 -12.5q-60 0 -100 36t-40 97q0 17 5 42zM240 -106q0 -39 -29.5 -92t-70.5 -82h-30
q57 55 70 115q-16 0 -26.5 10t-10.5 27q0 26 18 42t42 16q16 0 26.5 -9.5t10.5 -26.5z" />
    <glyph glyph-name="Tcaron" unicode="&#x164;" horiz-adv-x="610" 
d="M135 730h550l-18 -85h-230l-137 -645h-90l137 645h-230zM328 980l94 -120l151 120h60l-188 -180h-60l-112 180h55z" />
    <glyph glyph-name="tcaron" unicode="&#x165;" horiz-adv-x="470" 
d="M99 160l59 280h-100l7 30l224 205h5l-34 -155h166l-18 -80h-165l-59 -280q-4 -16 -4 -33q0 -62 64 -62q24 0 49 10t37 20l13 10h15l-16 -75q-4 -5 -12.5 -12.5t-36.5 -20t-59 -12.5q-60 0 -100 36t-40 97q0 17 5 42zM587 654q0 -39 -29.5 -92t-70.5 -82h-30q57 55 70 115
q-16 0 -26.5 10t-10.5 27q0 26 18 42t42 16q16 0 26.5 -9.5t10.5 -26.5z" />
    <glyph glyph-name="Umacron" unicode="&#x16a;" horiz-adv-x="750" 
d="M195 730h90l-99 -465q-6 -27 -6 -52q0 -67 42 -105t118 -38q90 0 153 52.5t83 142.5l99 465h90l-99 -465q-28 -130 -112.5 -205t-213.5 -75q-114 0 -182.5 58.5t-68.5 157.5q0 32 7 64zM320 850l15 70h350l-15 -70h-350z" />
    <glyph glyph-name="umacron" unicode="&#x16b;" horiz-adv-x="635" 
d="M141 520h85l-68 -320q-5 -27 -5 -43q0 -92 111 -92q71 0 131 49.5t75 120.5l61 285h85l-111 -520h-80l11 70h-5q-3 -3 -8 -9t-22.5 -20.5t-36.5 -26t-49 -20.5t-61 -9q-88 0 -137.5 44.5t-49.5 118.5q0 25 6 52zM223 650l15 70h350l-15 -70h-350z" />
    <glyph glyph-name="Uring" unicode="&#x16e;" horiz-adv-x="750" 
d="M195 730h90l-99 -465q-6 -27 -6 -52q0 -67 42 -105t118 -38q90 0 153 52.5t83 142.5l99 465h90l-99 -465q-28 -130 -112.5 -205t-213.5 -75q-114 0 -182.5 58.5t-68.5 157.5q0 32 7 64zM389 894q0 56 37.5 91t91.5 35q46 0 76.5 -28.5t30.5 -75.5q0 -56 -37.5 -91
t-91.5 -35q-46 0 -76.5 28.5t-30.5 75.5zM451 894q0 -21 12.5 -32.5t32.5 -11.5q27 0 47 18t20 48q0 21 -12.5 32.5t-32.5 11.5q-27 0 -47 -18t-20 -48z" />
    <glyph glyph-name="uring" unicode="&#x16f;" horiz-adv-x="635" 
d="M141 520h85l-68 -320q-5 -27 -5 -43q0 -92 111 -92q71 0 131 49.5t75 120.5l61 285h85l-111 -520h-80l11 70h-5q-3 -3 -8 -9t-22.5 -20.5t-36.5 -26t-49 -20.5t-61 -9q-88 0 -137.5 44.5t-49.5 118.5q0 25 6 52zM289 684q0 56 37.5 91t91.5 35q46 0 76.5 -28.5
t30.5 -75.5q0 -56 -37.5 -91t-91.5 -35q-46 0 -76.5 28.5t-30.5 75.5zM351 684q0 -21 12.5 -32.5t32.5 -11.5q27 0 47 18t20 48q0 21 -12.5 32.5t-32.5 11.5q-27 0 -47 -18t-20 -48z" />
    <glyph glyph-name="Uhungarumlaut" unicode="&#x170;" horiz-adv-x="750" 
d="M195 730h90l-99 -465q-6 -27 -6 -52q0 -67 42 -105t118 -38q90 0 153 52.5t83 142.5l99 465h90l-99 -465q-28 -130 -112.5 -205t-213.5 -75q-114 0 -182.5 58.5t-68.5 157.5q0 32 7 64zM375 800l98 180h95l-138 -180h-55zM520 800l118 180h95l-148 -180h-65z" />
    <glyph glyph-name="uhungarumlaut" unicode="&#x171;" horiz-adv-x="635" 
d="M141 520h85l-68 -320q-5 -27 -5 -43q0 -92 111 -92q71 0 131 49.5t75 120.5l61 285h85l-111 -520h-80l11 70h-5q-3 -3 -8 -9t-22.5 -20.5t-36.5 -26t-49 -20.5t-61 -9q-88 0 -137.5 44.5t-49.5 118.5q0 25 6 52zM282 600l98 180h95l-138 -180h-55zM427 600l118 180h95
l-148 -180h-65z" />
    <glyph glyph-name="Uogonek" unicode="&#x172;" horiz-adv-x="750" 
d="M195 730h90l-99 -465q-6 -27 -6 -52q0 -67 42 -105t118 -38q90 0 153 52.5t83 142.5l99 465h90l-99 -465q-24 -113 -92 -185.5t-171 -89.5q-5 -2 -13 -6.5t-28 -18.5t-35.5 -29t-28.5 -38.5t-13 -47.5q0 -50 47 -50q12 0 25.5 4t20.5 8l7 3l-9 -45q-21 -20 -71 -20
q-41 0 -68 23t-27 57q0 28 13 54.5t31.5 44t37 30.5t31.5 19l13 7q-114 1 -180.5 58.5t-66.5 157.5q0 32 7 64z" />
    <glyph glyph-name="uogonek" unicode="&#x173;" horiz-adv-x="635" 
d="M141 520h85l-68 -320q-5 -27 -5 -43q0 -92 111 -92q71 0 131 49.5t75 120.5l61 285h85l-111 -520q-6 -2 -15.5 -6.5t-33.5 -19t-42.5 -30.5t-33.5 -41.5t-15 -52.5q0 -50 47 -50q12 0 25.5 4t20.5 8l7 3l-9 -45q-21 -20 -71 -20q-41 0 -68 23t-27 57q0 32 16.5 61.5
t40 48.5t47 33t40.5 21l16 6h-25l10 70h-5q-3 -3 -8 -9t-22.5 -20.5t-36.5 -26t-48.5 -20.5t-60.5 -9q-88 0 -137.5 44.5t-49.5 118.5q0 25 6 52z" />
    <glyph glyph-name="Ydieresis" unicode="&#x178;" horiz-adv-x="670" 
d="M383 295l-63 -295h-90l63 295l-188 435h95l150 -350l292 350h113zM296 874q0 29 20.5 47.5t47.5 18.5q20 0 32.5 -11.5t12.5 -32.5q0 -29 -20.5 -47.5t-47.5 -18.5q-20 0 -32.5 11.5t-12.5 32.5zM496 874q0 29 20.5 47.5t47.5 18.5q20 0 32.5 -11.5t12.5 -32.5
q0 -29 -20.5 -47.5t-47.5 -18.5q-20 0 -32.5 11.5t-12.5 32.5z" />
    <glyph glyph-name="Zacute" unicode="&#x179;" horiz-adv-x="640" 
d="M3 60l529 585h-385l18 85h520l-13 -60l-529 -585h415l-18 -85h-550zM390 800l118 180h100l-153 -180h-65z" />
    <glyph glyph-name="zacute" unicode="&#x17a;" horiz-adv-x="540" 
d="M94 440l17 80h440l-13 -60l-407 -380h336l-17 -80h-470l13 60l407 380h-306zM302 600l118 180h100l-153 -180h-65z" />
    <glyph glyph-name="Zdotaccent" unicode="&#x17b;" horiz-adv-x="640" 
d="M3 60l529 585h-385l18 85h520l-13 -60l-529 -585h415l-18 -85h-550zM391 874q0 29 20.5 47.5t47.5 18.5q20 0 32.5 -11.5t12.5 -32.5q0 -29 -20.5 -47.5t-47.5 -18.5q-20 0 -32.5 11.5t-12.5 32.5z" />
    <glyph glyph-name="zdotaccent" unicode="&#x17c;" horiz-adv-x="540" 
d="M94 440l17 80h440l-13 -60l-407 -380h336l-17 -80h-470l13 60l407 380h-306zM299 674q0 29 20.5 47.5t47.5 18.5q20 0 32.5 -11.5t12.5 -32.5q0 -29 -20.5 -47.5t-47.5 -18.5q-20 0 -32.5 11.5t-12.5 32.5z" />
    <glyph glyph-name="Zcaron" unicode="&#x17d;" horiz-adv-x="640" 
d="M3 60l529 585h-385l18 85h520l-13 -60l-529 -585h415l-18 -85h-550zM343 980l94 -120l151 120h60l-188 -180h-60l-112 180h55z" />
    <glyph glyph-name="zcaron" unicode="&#x17e;" horiz-adv-x="540" 
d="M94 440l17 80h440l-13 -60l-407 -380h336l-17 -80h-470l13 60l407 380h-306zM245 780l94 -120l151 120h60l-188 -180h-60l-112 180h55z" />
    <glyph glyph-name="florin" unicode="&#x192;" horiz-adv-x="410" 
d="M79 -20l105 460h-90l4 80h105l25 95q23 89 69 132t120 43q31 0 57 -11t36 -23l10 -11l-5 -80q-4 5 -11 12.5t-33.5 20t-57.5 12.5q-41 0 -64 -22.5t-36 -72.5l-25 -95h160l-4 -80h-175l-105 -460q-21 -94 -73 -143.5t-141 -56.5l4 80q56 7 84.5 35t40.5 85z" />
    <glyph glyph-name="Scommaaccent" unicode="&#x218;" horiz-adv-x="560" 
d="M375 745q38 0 73 -7.5t58.5 -18.5t41.5 -22.5t26 -18.5l8 -8l-51 -75q-6 7 -17 18t-51.5 29t-87.5 18q-72 0 -110 -32.5t-38 -81.5q0 -34 30 -64t72.5 -55.5t84.5 -53.5t72 -70.5t30 -94.5q0 -91 -78 -157t-193 -66q-43 0 -83.5 10.5t-67 25t-47 29t-29.5 24.5l-10 11
l51 75q2 -4 6.5 -10t20.5 -21.5t35.5 -27.5t52.5 -21.5t71 -9.5q80 0 126.5 39.5t46.5 98.5q0 32 -21.5 59t-53 45.5t-69 42t-69 47t-53 61t-21.5 83.5q0 82 69 140.5t175 58.5zM275 -106q0 -39 -29.5 -92t-70.5 -82h-30q57 55 70 115q-16 0 -26.5 10t-10.5 27q0 26 18 42
t42 16q16 0 26.5 -9.5t10.5 -26.5z" />
    <glyph glyph-name="scommaaccent" unicode="&#x219;" horiz-adv-x="475" 
d="M425 151q0 -73 -56 -119.5t-165 -46.5q-56 0 -108 16.5t-76 32.5l-24 16l36 75q8 -7 22 -17t61.5 -26.5t98.5 -16.5q65 0 94.5 24t29.5 62q0 27 -27 45.5t-66 31t-77.5 27.5t-65.5 46t-27 76q0 67 53.5 112.5t143.5 45.5q36 0 70 -7.5t55.5 -19t38.5 -22.5t24 -18l8 -8
l-50 -70q-5 7 -15.5 18t-48.5 29t-82 18q-53 0 -82 -23t-29 -55q0 -23 27 -39.5t66 -29.5t78 -30t66 -49.5t27 -77.5zM235 -106q0 -39 -29.5 -92t-70.5 -82h-30q57 55 70 115q-16 0 -26.5 10t-10.5 27q0 26 18 42t42 16q16 0 26.5 -9.5t10.5 -26.5z" />
    <glyph glyph-name="uni021A" unicode="&#x21a;" horiz-adv-x="610" 
d="M135 730h550l-18 -85h-230l-137 -645h-90l137 645h-230zM290 -106q0 -39 -29.5 -92t-70.5 -82h-30q57 55 70 115q-16 0 -26.5 10t-10.5 27q0 26 18 42t42 16q16 0 26.5 -9.5t10.5 -26.5z" />
    <glyph glyph-name="uni021B" unicode="&#x21b;" horiz-adv-x="425" 
d="M99 160l59 280h-100l7 30l224 205h5l-34 -155h166l-18 -80h-165l-59 -280q-4 -16 -4 -33q0 -62 64 -62q24 0 49 10t37 20l13 10h15l-16 -75q-4 -5 -12.5 -12.5t-36.5 -20t-59 -12.5q-60 0 -100 36t-40 97q0 17 5 42zM240 -106q0 -39 -29.5 -92t-70.5 -82h-30
q57 55 70 115q-16 0 -26.5 10t-10.5 27q0 26 18 42t42 16q16 0 26.5 -9.5t10.5 -26.5z" />
    <glyph glyph-name="afii57929" unicode="&#x2bc;" horiz-adv-x="155" 
d="M231 744q0 -39 -29.5 -92t-70.5 -82h-30q57 55 70 115q-16 0 -26.5 10t-10.5 27q0 26 18 42t42 16q16 0 26.5 -9.5t10.5 -26.5z" />
    <glyph glyph-name="circumflex" unicode="&#x2c6;" horiz-adv-x="420" 
d="M410 590l-94 120l-151 -120h-60l188 180h60l112 -180h-55z" />
    <glyph glyph-name="caron" unicode="&#x2c7;" horiz-adv-x="420" 
d="M199 770l94 -120l151 120h60l-188 -180h-60l-112 180h55z" />
    <glyph glyph-name="breve" unicode="&#x2d8;" horiz-adv-x="380" 
d="M281 630q-47 0 -86 12.5t-55 25.5l-15 12l19 90q2 -2 5.5 -6.5t16 -14.5t28 -18t42 -14.5t55.5 -6.5q47 0 90 15t63 30l20 15l-19 -90q-7 -6 -19.5 -14t-55 -22t-89.5 -14z" />
    <glyph glyph-name="dotaccent" unicode="&#x2d9;" horiz-adv-x="170" 
d="M126 684q0 29 20.5 47.5t47.5 18.5q20 0 32.5 -11.5t12.5 -32.5q0 -29 -20.5 -47.5t-47.5 -18.5q-20 0 -32.5 11.5t-12.5 32.5z" />
    <glyph glyph-name="ring" unicode="&#x2da;" horiz-adv-x="290" 
d="M123 674q0 56 37.5 91t91.5 35q46 0 76.5 -28.5t30.5 -75.5q0 -56 -37.5 -91t-91.5 -35q-46 0 -76.5 28.5t-30.5 75.5zM185 674q0 -21 12.5 -32.5t32.5 -11.5q27 0 47 18t20 48q0 21 -12.5 32.5t-32.5 11.5q-27 0 -47 -18t-20 -48z" />
    <glyph glyph-name="ogonek" unicode="&#x2db;" horiz-adv-x="240" 
d="M106 0h54q-6 -2 -15.5 -6.5t-33.5 -19t-42.5 -30.5t-33.5 -41.5t-15 -52.5q0 -50 47 -50q12 0 25.5 4t20.5 8l7 3l-9 -45q-21 -20 -71 -20q-41 0 -68 23t-27 57q0 32 16.5 61.5t40 48.5t47.5 33t41 21z" />
    <glyph glyph-name="tilde" unicode="&#x2dc;" horiz-adv-x="410" 
d="M220 680q-27 0 -53.5 -12.5t-39.5 -25.5l-13 -12l15 70q4 6 12 14t34 22t55 14q37 0 81.5 -27.5t70.5 -27.5q27 0 53.5 12.5t39.5 24.5l13 13l-15 -70q-4 -6 -12 -14t-34 -22t-55 -14q-37 0 -81.5 27.5t-70.5 27.5z" />
    <glyph glyph-name="hungarumlaut" unicode="&#x2dd;" horiz-adv-x="380" 
d="M105 590l98 180h95l-138 -180h-55zM250 590l118 180h95l-148 -180h-65z" />
    <glyph glyph-name="afii10023" unicode="&#x401;" horiz-adv-x="615" 
d="M50 0l155 730h450l-18 -85h-360l-49 -230h285l-18 -85h-285l-52 -245h360l-18 -85h-450zM301 874q0 29 20.5 47.5t47.5 18.5q20 0 32.5 -11.5t12.5 -32.5q0 -29 -20.5 -47.5t-47.5 -18.5q-20 0 -32.5 11.5t-12.5 32.5zM501 874q0 29 20.5 47.5t47.5 18.5q20 0 32.5 -11.5
t12.5 -32.5q0 -29 -20.5 -47.5t-47.5 -18.5q-20 0 -32.5 11.5t-12.5 32.5z" />
    <glyph glyph-name="afii10051" unicode="&#x402;" horiz-adv-x="775" 
d="M643 261q0 59 -37 91.5t-109 32.5q-49 0 -98 -13.5t-74 -27.5l-25 -14l-70 -330h-90l137 645h-170l18 85h490l-18 -85h-230l-47 -225q8 6 23 14t64 22t100 14q107 0 167.5 -59t60.5 -150q0 -119 -77 -201t-197 -100l3 85q81 15 130 71t49 145z" />
    <glyph glyph-name="afii10052" unicode="&#x403;" horiz-adv-x="525" 
d="M205 730h405l-18 -85h-315l-137 -645h-90zM380 800l118 180h100l-153 -180h-65z" />
    <glyph glyph-name="afii10053" unicode="&#x404;" horiz-adv-x="740" 
d="M168 305q0 -106 64 -170.5t172 -64.5q42 0 83.5 12.5t70 30t51.5 35t35 30.5l11 12h15l-21 -100q-3 -4 -9.5 -11t-29 -25.5t-49 -32t-69 -25t-88.5 -11.5q-150 0 -240.5 91t-90.5 229q0 181 135.5 310.5t321.5 129.5q49 0 92.5 -11t70.5 -26.5t46.5 -30.5t28.5 -26l8 -11
l-51 -75q-2 4 -6 10.5t-19.5 22.5t-35.5 28.5t-56 23t-78 10.5q-126 0 -220.5 -69t-127.5 -181h380l-18 -85h-376v-20z" />
    <glyph glyph-name="afii10054" unicode="&#x405;" horiz-adv-x="560" 
d="M375 745q38 0 73 -7.5t58.5 -18.5t41.5 -22.5t26 -18.5l8 -8l-51 -75q-6 7 -17 18t-51.5 29t-87.5 18q-72 0 -110 -32.5t-38 -81.5q0 -34 30 -64t72.5 -55.5t84.5 -53.5t72 -70.5t30 -94.5q0 -91 -78 -157t-193 -66q-43 0 -83.5 10.5t-67 25t-47 29t-29.5 24.5l-10 11
l51 75q2 -4 6.5 -10t20.5 -21.5t35.5 -27.5t52.5 -21.5t71 -9.5q80 0 126.5 39.5t46.5 98.5q0 32 -21.5 59t-53 45.5t-69 42t-69 47t-53 61t-21.5 83.5q0 82 69 140.5t175 58.5z" />
    <glyph glyph-name="afii10055" unicode="&#x406;" horiz-adv-x="290" 
d="M295 730l-155 -730h-90l155 730h90z" />
    <glyph glyph-name="afii10056" unicode="&#x407;" horiz-adv-x="290" 
d="M295 730l-155 -730h-90l155 730h90zM116 874q0 29 20.5 47.5t47.5 18.5q20 0 32.5 -11.5t12.5 -32.5q0 -29 -20.5 -47.5t-47.5 -18.5q-20 0 -32.5 11.5t-12.5 32.5zM316 874q0 29 20.5 47.5t47.5 18.5q20 0 32.5 -11.5t12.5 -32.5q0 -29 -20.5 -47.5t-47.5 -18.5
q-20 0 -32.5 11.5t-12.5 32.5z" />
    <glyph glyph-name="afii10057" unicode="&#x408;" horiz-adv-x="305" 
d="M73 35l148 695h90l-148 -695q-21 -95 -76 -144.5t-158 -60.5l3 85q63 8 96 34.5t45 85.5z" />
    <glyph glyph-name="afii10058" unicode="&#x409;" horiz-adv-x="995" 
d="M690 730l-53 -250h77q108 0 171 -59t63 -148q0 -113 -88 -193t-212 -80h-203l137 645h-235l-105 -355q-47 -159 -111 -226.5t-165 -83.5l-1 90q63 12 105 59t77 161l134 440h409zM619 395l-66 -310h95q93 0 148 52t55 136q0 57 -35.5 89.5t-101.5 32.5h-95z" />
    <glyph glyph-name="afii10059" unicode="&#x40a;" horiz-adv-x="1035" 
d="M720 730l-59 -280h102q102 0 161.5 -56.5t59.5 -139.5q0 -103 -83.5 -178.5t-197.5 -75.5h-228l78 365h-335l-78 -365h-90l155 730h90l-59 -280h335l59 280h90zM643 365l-60 -280h120q83 0 133.5 47.5t50.5 121.5q0 52 -32.5 81.5t-91.5 29.5h-120z" />
    <glyph glyph-name="afii10060" unicode="&#x40b;" horiz-adv-x="810" 
d="M125 730h490l-18 -85h-230l-47 -225q8 6 23 14t64 22t100 14q105 0 166 -50.5t61 -138.5q0 -26 -6 -56l-48 -225h-90l48 225q5 25 5 43q0 56 -37 86.5t-109 30.5q-49 0 -98 -13.5t-74 -27.5l-25 -14l-70 -330h-90l137 645h-170z" />
    <glyph glyph-name="afii10061" unicode="&#x40c;" horiz-adv-x="680" 
d="M295 730l-74 -350l419 350h120l-434 -357l304 -373h-105l-305 375l-80 -375h-90l155 730h90zM420 800l118 180h100l-153 -180h-65z" />
    <glyph glyph-name="afii10062" unicode="&#x40e;" horiz-adv-x="645" 
d="M237 150l35 50l-167 530h88l137 -440h5l305 440h100l-403 -580q-51 -72 -73.5 -99.5t-54.5 -46.5t-74 -19l-47 5l4 90q8 -10 43 -10q28 0 49.5 18.5t52.5 61.5zM431 800q-47 0 -86 12.5t-55 25.5l-15 12l19 90q2 -2 5.5 -6.5t16 -14.5t28 -18t42 -14.5t55.5 -6.5
q47 0 90 15t63 30l20 15l-19 -90q-7 -6 -19.5 -14t-55 -22t-89.5 -14z" />
    <glyph glyph-name="afii10145" unicode="&#x40f;" horiz-adv-x="770" 
d="M290 0h-240l155 730h90l-137 -645h390l137 645h90l-155 -730h-240l-34 -160h-90z" />
    <glyph glyph-name="afii10017" unicode="&#x410;" horiz-adv-x="750" 
d="M545 285l-80 324h-5l-217 -324h302zM566 200h-380l-134 -200h-102l490 730h85l180 -730h-90z" />
    <glyph glyph-name="afii10018" unicode="&#x411;" horiz-adv-x="640" 
d="M220 375l-62 -290h140q89 0 140 49t51 128q0 53 -33 83t-96 30h-140zM277 645l-39 -185h122q105 0 165.5 -56t60.5 -142q0 -108 -84 -185t-204 -77h-248l155 730h435l-18 -85h-345z" />
    <glyph glyph-name="afii10019" unicode="&#x412;" horiz-adv-x="640" 
d="M392 730q105 0 163.5 -50.5t58.5 -125.5q0 -38 -13 -70t-32 -50.5t-37.5 -31.5t-31.5 -18l-13 -4l-1 -5q4 -1 10 -4t22 -15t28 -26.5t22 -40t10 -54.5q0 -96 -80 -165.5t-200 -69.5h-248l155 730h187zM211 335l-53 -250h140q90 0 137.5 41.5t47.5 108.5q0 47 -33 73.5
t-99 26.5h-140zM392 645h-115l-49 -230h115q86 0 129.5 38t43.5 101q0 91 -124 91z" />
    <glyph glyph-name="afii10020" unicode="&#x413;" horiz-adv-x="525" 
d="M205 730h405l-18 -85h-315l-137 -645h-90z" />
    <glyph glyph-name="afii10021" unicode="&#x414;" horiz-adv-x="740" 
d="M-79 -160l52 245h55q3 2 8.5 7.5t22 26.5t31.5 47t34 72.5t33 101.5l103 390h465l-137 -645h90l-52 -245h-90l34 160h-525l-34 -160h-90zM327 645l-80 -305q-23 -86 -54 -150t-51 -84l-19 -21h375l119 560h-290z" />
    <glyph glyph-name="afii10022" unicode="&#x415;" horiz-adv-x="615" 
d="M50 0l155 730h450l-18 -85h-360l-49 -230h285l-18 -85h-285l-52 -245h360l-18 -85h-450z" />
    <glyph glyph-name="afii10024" unicode="&#x416;" horiz-adv-x="1010" 
d="M491 380l74 350h90l-74 -350l389 350h120l-399 -358l269 -372h-105l-275 375l-80 -375h-90l80 375l-415 -375h-125l428 386l-248 344h105z" />
    <glyph glyph-name="afii10025" unicode="&#x417;" horiz-adv-x="595" 
d="M217 340l17 80h80q80 0 122.5 40t42.5 107q0 44 -29 68.5t-85 24.5q-32 0 -64.5 -9.5t-55.5 -22.5t-41.5 -26t-27.5 -22l-10 -10h-15l19 90l9 9t26 20.5t41.5 26t54 20.5t64.5 9q99 0 155 -50.5t56 -127.5q0 -42 -14.5 -76.5t-35 -54t-41 -32.5t-35.5 -18l-14 -4l-1 -5
l10 -5t22 -15.5t28.5 -28t22.5 -41.5t10 -56q0 -100 -83.5 -173t-204.5 -73q-41 0 -79.5 9.5t-64.5 22.5t-46 26t-30 23l-9 9l46 75q2 -3 7 -8.5t21.5 -19.5t36 -24.5t51.5 -19t67 -8.5q90 0 141 45.5t51 115.5q0 50 -34.5 79.5t-100.5 29.5h-80z" />
    <glyph glyph-name="afii10026" unicode="&#x418;" horiz-adv-x="790" 
d="M795 730l-155 -730h-90l122 574l-537 -574h-85l155 730h90l-122 -574l537 574h85z" />
    <glyph glyph-name="afii10027" unicode="&#x419;" horiz-adv-x="790" 
d="M795 730l-155 -730h-90l122 574l-537 -574h-85l155 730h90l-122 -574l537 574h85zM511 800q-47 0 -86 12.5t-55 25.5l-15 12l19 90q2 -2 5.5 -6.5t16 -14.5t28 -18t42 -14.5t55.5 -6.5q47 0 90 15t63 30l20 15l-19 -90q-7 -6 -19.5 -14t-55 -22t-89.5 -14z" />
    <glyph glyph-name="afii10028" unicode="&#x41a;" horiz-adv-x="680" 
d="M295 730l-74 -350l419 350h120l-434 -357l304 -373h-105l-305 375l-80 -375h-90l155 730h90z" />
    <glyph glyph-name="afii10029" unicode="&#x41b;" horiz-adv-x="720" 
d="M347 645l-105 -355q-47 -159 -111 -226.5t-165 -83.5l-1 90q63 12 105 59t77 161l134 440h444l-155 -730h-90l137 645h-270z" />
    <glyph glyph-name="afii10030" unicode="&#x41c;" horiz-adv-x="956" 
d="M395 0l-72 527h-5l-202 -527h-101l280 730h78l82 -597h5l347 597h74l-30 -730h-95l25 527h-5l-306 -527h-75z" />
    <glyph glyph-name="afii10031" unicode="&#x41d;" horiz-adv-x="770" 
d="M775 730l-155 -730h-90l70 330h-390l-70 -330h-90l155 730h90l-67 -315h390l67 315h90z" />
    <glyph glyph-name="afii10032" unicode="&#x41e;" horiz-adv-x="870" 
d="M168 305q0 -105 63 -170t168 -65q152 0 254.5 101.5t102.5 253.5q0 105 -63 170t-168 65q-152 0 -254.5 -101.5t-102.5 -253.5zM851 425q0 -89 -37 -171t-98 -140.5t-144.5 -93.5t-172.5 -35q-147 0 -236.5 91t-89.5 229q0 89 37 171t98 140.5t144.5 93.5t172.5 35
q147 0 236.5 -91t89.5 -229z" />
    <glyph glyph-name="afii10033" unicode="&#x41f;" horiz-adv-x="770" 
d="M775 730l-155 -730h-90l137 645h-390l-137 -645h-90l155 730h570z" />
    <glyph glyph-name="afii10034" unicode="&#x420;" horiz-adv-x="635" 
d="M193 250l-53 -250h-90l155 730h197q108 0 171 -59t63 -148q0 -113 -88 -193t-212 -80h-143zM277 645l-66 -310h125q93 0 148 52t55 136q0 57 -35.5 89.5t-101.5 32.5h-125z" />
    <glyph glyph-name="afii10035" unicode="&#x421;" horiz-adv-x="740" 
d="M168 305q0 -106 64 -170.5t172 -64.5q42 0 83.5 12.5t70 30t51.5 35t35 30.5l11 12h15l-21 -100q-3 -4 -9.5 -11t-29 -25.5t-49 -32t-69 -25t-88.5 -11.5q-150 0 -240.5 91t-90.5 229q0 181 135.5 310.5t321.5 129.5q49 0 92.5 -11t70.5 -26.5t46.5 -30.5t28.5 -26l8 -11
l-51 -75q-2 4 -6 10.5t-19.5 22.5t-35.5 28.5t-56 23t-78 10.5q-155 0 -258.5 -101.5t-103.5 -253.5z" />
    <glyph glyph-name="afii10036" unicode="&#x422;" horiz-adv-x="610" 
d="M135 730h550l-18 -85h-230l-137 -645h-90l137 645h-230z" />
    <glyph glyph-name="afii10037" unicode="&#x423;" horiz-adv-x="645" 
d="M237 150l35 50l-167 530h88l137 -440h5l305 440h100l-403 -580q-51 -72 -73.5 -99.5t-54.5 -46.5t-74 -19l-47 5l4 90q8 -10 43 -10q28 0 49.5 18.5t52.5 61.5z" />
    <glyph glyph-name="afii10038" unicode="&#x424;" horiz-adv-x="920" 
d="M363 -10l17 80q-141 7 -223.5 82t-82.5 189q0 144 116.5 242.5t321.5 106.5l17 80h90l-17 -80q141 -7 223.5 -82t82.5 -189q0 -144 -116.5 -242.5t-321.5 -106.5l-17 -80h-90zM584 605l-96 -450q151 4 239.5 79.5t88.5 184.5q0 81 -59.5 132t-172.5 54zM398 155l96 450
q-151 -4 -239.5 -79.5t-88.5 -184.5q0 -81 59.5 -132t172.5 -54z" />
    <glyph glyph-name="afii10039" unicode="&#x425;" horiz-adv-x="690" 
d="M760 730l-334 -360l194 -370h-98l-159 303l-281 -303h-112l353 380l-183 350h98l147 -283l263 283h112z" />
    <glyph glyph-name="afii10040" unicode="&#x426;" horiz-adv-x="770" 
d="M50 0l155 730h90l-137 -645h370l137 645h90l-137 -645h90l-52 -245h-90l34 160h-550z" />
    <glyph glyph-name="afii10041" unicode="&#x427;" horiz-adv-x="730" 
d="M490 0l60 285q-7 -6 -20.5 -14t-62 -22t-104.5 -14q-105 0 -166 50.5t-61 137.5q0 27 6 57l53 250h90l-53 -250q-5 -27 -5 -44q0 -56 37 -86t109 -30q49 0 98 14t74 28l25 13l75 355h90l-155 -730h-90z" />
    <glyph glyph-name="afii10042" unicode="&#x428;" horiz-adv-x="1100" 
d="M50 0l155 730h90l-137 -645h315l137 645h90l-137 -645h315l137 645h90l-155 -730h-900z" />
    <glyph glyph-name="afii10043" unicode="&#x429;" horiz-adv-x="1120" 
d="M50 0l155 730h90l-137 -645h315l137 645h90l-137 -645h315l137 645h90l-137 -645h90l-52 -245h-90l34 160h-900z" />
    <glyph glyph-name="afii10044" unicode="&#x42a;" horiz-adv-x="695" 
d="M370 730l-53 -250h97q108 0 171 -59t63 -148q0 -113 -88 -193t-212 -80h-223l137 645h-155l18 85h245zM299 395l-66 -310h115q93 0 148 52t55 136q0 57 -35.5 89.5t-101.5 32.5h-115z" />
    <glyph glyph-name="afii10045" unicode="&#x42b;" horiz-adv-x="880" 
d="M885 730l-155 -730h-90l155 730h90zM295 730l-53 -250h97q108 0 171 -59t63 -148q0 -113 -88 -193t-212 -80h-223l155 730h90zM224 395l-66 -310h115q93 0 148 52t55 136q0 57 -35.5 89.5t-101.5 32.5h-115z" />
    <glyph glyph-name="afii10046" unicode="&#x42c;" horiz-adv-x="630" 
d="M295 730l-53 -250h107q108 0 171 -59t63 -148q0 -113 -88 -193t-212 -80h-233l155 730h90zM224 395l-66 -310h125q93 0 148 52t55 136q0 57 -35.5 89.5t-101.5 32.5h-125z" />
    <glyph glyph-name="afii10047" unicode="&#x42d;" horiz-adv-x="740" 
d="M627 425q0 106 -64 170.5t-172 64.5q-42 0 -83.5 -12.5t-70 -30t-51.5 -35t-34 -30.5l-12 -12h-15l21 100q3 4 9.5 11t29 25.5t49 32t69 25t88.5 11.5q150 0 240.5 -91t90.5 -229q0 -181 -135.5 -310.5t-321.5 -129.5q-49 0 -93 10t-72 23.5t-49 27.5t-30 24l-9 10l51 75
q2 -3 7 -9t22.5 -20.5t38.5 -26t57 -20.5t77 -9q127 0 222 70.5t127 184.5h-380l18 85h374q0 2 0.5 7t0.5 8z" />
    <glyph glyph-name="afii10048" unicode="&#x42e;" horiz-adv-x="1080" 
d="M1063 434q0 -191 -127 -320t-306 -129q-141 0 -224.5 86.5t-83.5 224.5l1 29h-114l-69 -325h-90l155 730h90l-68 -320h109q36 151 154.5 243t264.5 92q141 0 224.5 -86.5t83.5 -224.5zM630 70q142 0 239.5 102t97.5 262q0 105 -57 165.5t-155 60.5q-142 0 -239.5 -102
t-97.5 -262q0 -105 57 -165.5t155 -60.5z" />
    <glyph glyph-name="afii10049" unicode="&#x42f;" horiz-adv-x="650" 
d="M483 345l64 300h-125q-87 0 -141.5 -51t-54.5 -130q0 -54 34.5 -86.5t97.5 -32.5h125zM-15 0l255 280l1 5q-5 2 -12.5 5.5t-26.5 18t-34 33t-27 51t-12 71.5q0 108 87.5 187t205.5 79h233l-155 -730h-90l56 265h-127l-236 -265h-118z" />
    <glyph glyph-name="afii10065" unicode="&#x430;" horiz-adv-x="628" 
d="M53 204q0 134 95.5 225t239.5 91h221l-110 -520h-80l11 70h-5q-3 -3 -8.5 -9t-23 -20.5t-36.5 -26t-47.5 -20.5t-56.5 -9q-92 0 -146 60.5t-54 158.5zM455 195l52 245h-119q-107 0 -177.5 -68t-70.5 -168q0 -63 35.5 -101t92.5 -38q34 0 65.5 13.5t52.5 32.5t37.5 38
t24.5 33z" />
    <glyph glyph-name="afii10066" unicode="&#x431;" horiz-adv-x="650" 
d="M294 65q93 0 158.5 64t65.5 159q0 66 -39.5 106.5t-106.5 40.5q-93 0 -158.5 -64t-65.5 -159q0 -66 39.5 -106.5t106.5 -40.5zM382 515q103 0 163 -63t60 -164q0 -130 -92 -216.5t-229 -86.5q-102 0 -161.5 64.5t-59.5 162.5q0 97 28 192t78.5 172.5t128 125.5t168.5 48
q51 0 101.5 8.5t74.5 17.5l25 9l-18 -85q-63 -35 -183 -35q-100 0 -173.5 -63t-112.5 -177h5q3 4 9 10t25.5 21.5t41 27.5t54.5 21.5t67 9.5z" />
    <glyph glyph-name="afii10067" unicode="&#x432;" horiz-adv-x="555" 
d="M30 0l111 520h208q81 0 123.5 -36t42.5 -97q0 -22 -8 -41.5t-20 -32t-24 -21.5t-20 -13l-8 -4l-2 -5q3 -1 7.5 -3t16 -10.5t20.5 -19t16 -29t7 -40.5q0 -73 -55 -120.5t-143 -47.5h-272zM415 168q0 28 -21.5 45t-59.5 17h-170l-32 -150h170q51 0 82 24.5t31 63.5z
M349 440h-140l-28 -130h140q51 0 78 21t27 56q0 53 -77 53z" />
    <glyph glyph-name="afii10068" unicode="&#x433;" horiz-adv-x="455" 
d="M489 440h-280l-94 -440h-85l111 520h365z" />
    <glyph glyph-name="afii10069" unicode="&#x434;" horiz-adv-x="600" 
d="M-80 -140l47 220h55q7 6 18.5 18.5t38 59t41.5 102.5l70 260h365l-93 -440h80l-47 -220h-85l30 140h-405l-30 -140h-85zM253 440l-48 -180q-15 -56 -38 -101t-39 -62l-16 -17h265l76 360h-200z" />
    <glyph glyph-name="afii10070" unicode="&#x435;" horiz-adv-x="625" 
d="M367 535q96 0 157 -58t61 -142q0 -22 -3.5 -44.5t-6.5 -34.5l-3 -11h-430q-2 -11 -2 -24q0 -70 43 -113t116 -43q56 0 106 17.5t72 35.5l22 17h15l-20 -90l-6.5 -6.5t-20.5 -14.5t-36.5 -18t-55.5 -14.5t-76 -6.5q-116 0 -181 65t-65 171q0 132 93.5 223t220.5 91z
M367 455q-65 0 -120 -37.5t-83 -92.5h335v10q0 51 -35 85.5t-97 34.5z" />
    <glyph glyph-name="afii10072" unicode="&#x436;" horiz-adv-x="815" 
d="M670 0l-215 260l-55 -260h-85l55 260l-305 -260h-115l320 269l-194 251h95l200 -255l55 255h85l-55 -255l295 255h110l-310 -262l214 -258h-95z" />
    <glyph glyph-name="afii10073" unicode="&#x437;" horiz-adv-x="500" 
d="M249 230h-55l17 80h45q65 0 98.5 23t33.5 60q0 62 -101 62q-47 0 -89 -15t-60 -30l-19 -15h-15l18 85q7 6 19.5 15t55.5 24.5t90 15.5q94 0 141.5 -39t47.5 -103q0 -27 -11 -49.5t-27 -35t-31.5 -21.5t-26.5 -12l-11 -3l-1 -5q3 -1 7.5 -3.5t17 -11t22 -19.5t17 -29
t7.5 -39q0 -82 -57.5 -131t-172.5 -49q-53 0 -104.5 18.5t-76.5 37.5l-25 19l41 75q2 -3 6 -7.5t19 -16.5t32.5 -21.5t46.5 -17t61 -7.5q145 0 145 100q0 65 -105 65z" />
    <glyph glyph-name="afii10074" unicode="&#x438;" horiz-adv-x="640" 
d="M507 384l-397 -384h-80l111 520h85l-82 -384l397 384h80l-111 -520h-85z" />
    <glyph glyph-name="afii10075" unicode="&#x439;" horiz-adv-x="640" 
d="M507 384l-397 -384h-80l111 520h85l-82 -384l397 384h80l-111 -520h-85zM395 610q-36 0 -67.5 10t-45.5 20l-14 10l19 90q2 -2 5 -6.5t13.5 -14.5t23 -18t33.5 -14.5t43 -6.5q36 0 71.5 15t53.5 30l17 15l-19 -90q-53 -40 -133 -40z" />
    <glyph glyph-name="afii10076" unicode="&#x43a;" horiz-adv-x="555" 
d="M405 0l-235 260l-55 -260h-85l111 520h85l-55 -255l320 255h110l-332 -259l236 -261h-100z" />
    <glyph glyph-name="afii10077" unicode="&#x43b;" horiz-adv-x="590" 
d="M259 440l-67 -220q-34 -112 -88.5 -167t-135.5 -63l-2 85q49 8 81.5 40.5t54.5 104.5l94 300h375l-111 -520h-85l94 440h-210z" />
    <glyph glyph-name="afii10078" unicode="&#x43c;" horiz-adv-x="761" 
d="M305 0l-72 342h-5l-129 -342h-94l196 520h70l83 -396h5l252 396h75l-26 -520h-88l17 342h-5l-219 -342h-60z" />
    <glyph glyph-name="afii10079" unicode="&#x43d;" horiz-adv-x="630" 
d="M463 225h-300l-48 -225h-85l111 520h85l-46 -215h300l46 215h85l-111 -520h-85z" />
    <glyph glyph-name="afii10080" unicode="&#x43e;" horiz-adv-x="660" 
d="M140 221q0 -70 41.5 -113t111.5 -43q97 0 167 68t70 166q0 70 -41.5 113t-111.5 43q-97 0 -167 -68t-70 -166zM617 299q0 -132 -95 -223t-229 -91q-113 0 -176.5 65.5t-63.5 170.5q0 132 95 223t229 91q113 0 176.5 -65.5t63.5 -170.5z" />
    <glyph glyph-name="afii10081" unicode="&#x43f;" horiz-adv-x="630" 
d="M509 440h-300l-94 -440h-85l111 520h470l-111 -520h-85z" />
    <glyph glyph-name="afii10082" unicode="&#x440;" horiz-adv-x="665" 
d="M209 450h5l9 9t25.5 20.5t40.5 26t53 20.5t64 9q100 0 158 -65.5t58 -170.5q0 -131 -93.5 -222.5t-219.5 -91.5q-38 0 -69.5 10.5t-49.5 25t-30.5 29t-17.5 24.5l-4 11h-5l-65 -305h-85l157 740h80zM165 221q0 -69 40 -112.5t104 -43.5q89 0 157.5 68.5t68.5 165.5
q0 69 -40 112.5t-104 43.5q-89 0 -157.5 -68.5t-68.5 -165.5z" />
    <glyph glyph-name="afii10083" unicode="&#x441;" horiz-adv-x="565" 
d="M135 221q0 -70 43 -113t116 -43q44 0 86 16.5t62 32.5l20 16h15l-18 -85q-2 -2 -7 -6.5t-21 -14.5t-33.5 -18t-46 -14.5t-57.5 -6.5q-116 0 -181 65t-65 171q0 133 95.5 223.5t233.5 90.5q58 0 106 -17.5t67 -35.5l19 -17l-50 -70q-2 2 -5.5 6.5t-16 14.5t-27.5 18
t-40 14.5t-53 6.5q-101 0 -171.5 -67.5t-70.5 -166.5z" />
    <glyph glyph-name="afii10084" unicode="&#x442;" horiz-adv-x="495" 
d="M249 440h-185l17 80h455l-17 -80h-185l-94 -440h-85z" />
    <glyph glyph-name="afii10085" unicode="&#x443;" horiz-adv-x="575" 
d="M606 520l-318 -515q-93 -153 -137 -196.5t-105 -43.5q-13 0 -25.5 2.5t-18.5 4.5l-5 3l6 75q18 -10 43 -10q32 0 62 32t88 133l-126 515h84l101 -419h5l254 419h92z" />
    <glyph glyph-name="afii10086" unicode="&#x444;" horiz-adv-x="765" 
d="M537 760l-48 -225q101 -7 167 -74.5t66 -164.5q0 -126 -98.5 -214.5t-251.5 -96.5l-44 -205h-85l44 205q-102 7 -167.5 74t-65.5 165q0 126 98 214.5t252 96.5l48 225h85zM472 455l-83 -390q105 5 175.5 71t70.5 160q0 68 -44 112t-119 47zM304 65l83 390
q-105 -5 -175.5 -71t-70.5 -160q0 -69 43.5 -112.5t119.5 -46.5z" />
    <glyph glyph-name="afii10087" unicode="&#x445;" horiz-adv-x="560" 
d="M606 520l-270 -262l164 -258h-95l-128 201l-207 -201h-110l275 267l-159 253h95l123 -195l202 195h110z" />
    <glyph glyph-name="afii10088" unicode="&#x446;" horiz-adv-x="645" 
d="M485 0h-455l111 520h85l-94 -440h290l94 440h85l-94 -440h80l-47 -220h-85z" />
    <glyph glyph-name="afii10089" unicode="&#x447;" horiz-adv-x="600" 
d="M131 520h85l-35 -165q-5 -27 -5 -42q0 -83 103 -83q42 0 84 14t63 28l20 13l50 235h85l-111 -520h-85l43 200q-7 -6 -20.5 -14t-56.5 -22t-87 -14q-83 0 -128.5 39t-45.5 110q0 26 6 56z" />
    <glyph glyph-name="afii10090" unicode="&#x448;" horiz-adv-x="895" 
d="M132 80h240l94 440h85l-94 -440h240l94 440h85l-111 -520h-735l111 520h85z" />
    <glyph glyph-name="afii10091" unicode="&#x449;" horiz-adv-x="920" 
d="M132 80h240l94 440h85l-94 -440h240l94 440h85l-94 -440h80l-47 -220h-85l30 140h-730l111 520h85z" />
    <glyph glyph-name="afii10092" unicode="&#x44a;" horiz-adv-x="590" 
d="M100 0l92 435h-130l18 85h215l-36 -170h113q87 0 131 -41t44 -112q0 -87 -58 -142t-157 -55h-232zM202 80h130q61 0 94.5 32t33.5 85q0 73 -88 73h-130z" />
    <glyph glyph-name="afii10093" unicode="&#x44b;" horiz-adv-x="745" 
d="M530 0l111 520h85l-111 -520h-85zM132 80h130q61 0 94.5 32t33.5 85q0 73 -88 73h-130zM30 0l111 520h85l-37 -170h113q86 0 130.5 -41t44.5 -112q0 -87 -58 -142t-157 -55h-232z" />
    <glyph glyph-name="afii10094" unicode="&#x44c;" horiz-adv-x="530" 
d="M132 80h140q61 0 94.5 32t33.5 85q0 73 -88 73h-140zM30 0l111 520h85l-37 -170h123q87 0 131 -41t44 -112q0 -87 -58 -142t-157 -55h-242z" />
    <glyph glyph-name="afii10095" unicode="&#x44d;" horiz-adv-x="560" 
d="M173 225l17 80h241q-2 68 -44.5 109t-114.5 41q-44 0 -86 -16.5t-62 -32.5l-20 -16h-15l18 85q2 2 7 6.5t21 14.5t33.5 18t46 14.5t57.5 6.5q116 0 181 -65t65 -171q0 -133 -95.5 -223.5t-233.5 -90.5q-56 0 -103 16.5t-66 32.5l-20 16l45 70q6 -6 17.5 -15t49 -24.5
t77.5 -15.5q80 0 143 44t87 116h-246z" />
    <glyph glyph-name="afii10096" unicode="&#x44e;" horiz-adv-x="835" 
d="M562 535q110 0 170 -63t60 -169q0 -131 -94 -224.5t-219 -93.5q-110 0 -170 64.5t-60 175.5h-86l-48 -225h-85l111 520h85l-46 -215h81q32 100 113.5 165t187.5 65zM479 65q88 0 157.5 70.5t69.5 167.5q0 70 -38.5 111t-105.5 41q-88 0 -157.5 -70.5t-69.5 -167.5
q0 -70 38.5 -111t105.5 -41z" />
    <glyph glyph-name="afii10097" unicode="&#x44f;" 
d="M180 190q-4 1 -10.5 3.5t-22.5 13.5t-28.5 25.5t-23 40.5t-10.5 58q0 82 58 135.5t156 53.5h252l-111 -520h-85l38 180h-105l-208 -180h-120l219 185zM449 440h-150q-61 0 -94 -30t-33 -79q0 -33 22.5 -52t65.5 -19h150z" />
    <glyph glyph-name="afii10071" unicode="&#x451;" horiz-adv-x="625" 
d="M367 535q96 0 157 -58t61 -142q0 -22 -3.5 -44.5t-6.5 -34.5l-3 -11h-430q-2 -11 -2 -24q0 -70 43 -113t116 -43q56 0 106 17.5t72 35.5l22 17h15l-20 -90l-6.5 -6.5t-20.5 -14.5t-36.5 -18t-55.5 -14.5t-76 -6.5q-116 0 -181 65t-65 171q0 132 93.5 223t220.5 91z
M367 455q-65 0 -120 -37.5t-83 -92.5h335v10q0 51 -35 85.5t-97 34.5zM244 674q0 29 20.5 47.5t47.5 18.5q20 0 32.5 -11.5t12.5 -32.5q0 -29 -20.5 -47.5t-47.5 -18.5q-20 0 -32.5 11.5t-12.5 32.5zM444 674q0 29 20.5 47.5t47.5 18.5q20 0 32.5 -11.5t12.5 -32.5
q0 -29 -20.5 -47.5t-47.5 -18.5q-20 0 -32.5 11.5t-12.5 32.5z" />
    <glyph glyph-name="afii10099" unicode="&#x452;" horiz-adv-x="660" 
d="M597 290l-66 -310q-20 -94 -72 -143t-140 -57l2 80q55 8 83.5 34.5t41.5 85.5l66 310q5 27 5 43q0 92 -111 92q-71 0 -131.5 -49.5t-75.5 -120.5l-54 -255h-85l128 600h-90l17 80h89l17 80h85l-17 -80h171l-17 -80h-170l-40 -185h5q3 4 8.5 10t24 21.5t38.5 27.5
t50.5 21.5t61.5 9.5q88 0 135 -44t47 -119q0 -25 -6 -52z" />
    <glyph glyph-name="afii10100" unicode="&#x453;" horiz-adv-x="455" 
d="M489 440h-280l-94 -440h-85l111 520h365zM292 600l118 180h100l-153 -180h-65z" />
    <glyph glyph-name="afii10101" unicode="&#x454;" horiz-adv-x="565" 
d="M135 221q0 -70 43 -113t116 -43q44 0 86 16.5t62 32.5l20 16h15l-18 -85q-2 -2 -7 -6.5t-21 -14.5t-33.5 -18t-46 -14.5t-57.5 -6.5q-116 0 -181 65t-65 171q0 133 95.5 223.5t233.5 90.5q58 0 106 -17.5t67 -35.5l19 -17l-50 -70q-2 2 -5.5 6.5t-16 14.5t-27.5 18
t-40 14.5t-53 6.5q-77 0 -138.5 -41.5t-88.5 -108.5h245l-17 -80h-243v-4z" />
    <glyph glyph-name="afii10102" unicode="&#x455;" horiz-adv-x="475" 
d="M425 151q0 -73 -56 -119.5t-165 -46.5q-56 0 -108 16.5t-76 32.5l-24 16l36 75q8 -7 22 -17t61.5 -26.5t98.5 -16.5q65 0 94.5 24t29.5 62q0 27 -27 45.5t-66 31t-77.5 27.5t-65.5 46t-27 76q0 67 53.5 112.5t143.5 45.5q36 0 70 -7.5t55.5 -19t38.5 -22.5t24 -18l8 -8
l-50 -70q-5 7 -15.5 18t-48.5 29t-82 18q-53 0 -82 -23t-29 -55q0 -23 27 -39.5t66 -29.5t78 -30t66 -49.5t27 -77.5z" />
    <glyph glyph-name="afii10103" unicode="&#x456;" horiz-adv-x="250" 
d="M226 525l-111 -525h-85l111 525q19 -5 39 -5zM167 689q0 29 20.5 47.5t47.5 18.5q20 0 32.5 -11.5t12.5 -32.5q0 -29 -20.5 -47.5t-47.5 -18.5q-20 0 -32.5 11.5t-12.5 32.5z" />
    <glyph glyph-name="afii10104" unicode="&#x457;" horiz-adv-x="260" 
d="M236 520l-111 -520h-85l111 520h85zM58 674q0 29 20.5 47.5t47.5 18.5q20 0 32.5 -11.5t12.5 -32.5q0 -29 -20.5 -47.5t-47.5 -18.5q-20 0 -32.5 11.5t-12.5 32.5zM258 674q0 29 20.5 47.5t47.5 18.5q20 0 32.5 -11.5t12.5 -32.5q0 -29 -20.5 -47.5t-47.5 -18.5
q-20 0 -32.5 11.5t-12.5 32.5z" />
    <glyph glyph-name="afii10105" unicode="&#x458;" horiz-adv-x="250" 
d="M25 -20l116 545q19 -5 39 -5l46 5l-116 -545q-20 -94 -72 -143t-140 -57l2 80q55 8 83.5 34.5t41.5 85.5zM167 689q0 29 20.5 47.5t47.5 18.5q20 0 32.5 -11.5t12.5 -32.5q0 -29 -20.5 -47.5t-47.5 -18.5q-20 0 -32.5 11.5t-12.5 32.5z" />
    <glyph glyph-name="afii10106" unicode="&#x459;" horiz-adv-x="835" 
d="M355 0l94 440h-190l-67 -220q-34 -112 -88.5 -167t-135.5 -63l-2 85q49 8 81.5 40.5t54.5 104.5l94 300h355l-37 -170h103q87 0 131 -41t44 -112q0 -87 -58 -142t-157 -55h-222zM457 80h120q61 0 94.5 32t33.5 85q0 73 -88 73h-120z" />
    <glyph glyph-name="afii10107" unicode="&#x45a;" horiz-adv-x="860" 
d="M380 0l55 260h-265l-55 -260h-85l111 520h85l-39 -180h265l39 180h85l-39 -180h108q84 0 127.5 -41t43.5 -110q0 -82 -57.5 -135.5t-151.5 -53.5h-227zM482 80h125q57 0 89.5 30.5t32.5 78.5q0 33 -21.5 52t-62.5 19h-125z" />
    <glyph glyph-name="afii10108" unicode="&#x45b;" horiz-adv-x="660" 
d="M535 0h-85l62 290q5 27 5 43q0 92 -111 92q-71 0 -131.5 -49.5t-75.5 -120.5l-54 -255h-85l128 600h-90l17 80h89l17 80h85l-17 -80h171l-17 -80h-170l-40 -185h5q3 4 8.5 10t24 21.5t38.5 27.5t50.5 21.5t61.5 9.5q88 0 135 -44t47 -119q0 -25 -6 -52z" />
    <glyph glyph-name="afii10109" unicode="&#x45c;" horiz-adv-x="555" 
d="M405 0l-235 260l-55 -260h-85l111 520h85l-55 -255l320 255h110l-332 -259l236 -261h-100zM317 600l118 180h100l-153 -180h-65z" />
    <glyph glyph-name="afii10110" unicode="&#x45e;" horiz-adv-x="575" 
d="M606 520l-318 -515q-93 -153 -137 -196.5t-105 -43.5q-13 0 -25.5 2.5t-18.5 4.5l-5 3l6 75q18 -10 43 -10q32 0 62 32t88 133l-126 515h84l101 -419h5l254 419h92zM354 610q-36 0 -67.5 10t-45.5 20l-14 10l19 90q2 -2 5 -6.5t13.5 -14.5t23 -18t33.5 -14.5t43 -6.5
q36 0 71.5 15t52.5 30l18 15l-19 -90q-53 -40 -133 -40z" />
    <glyph glyph-name="afii10193" unicode="&#x45f;" horiz-adv-x="615" 
d="M185 -140l30 140h-185l111 520h85l-94 -440h285l94 440h85l-111 -520h-185l-30 -140h-85z" />
    <glyph glyph-name="afii10050" unicode="&#x490;" horiz-adv-x="525" 
d="M277 645l-137 -645h-90l155 730h315l32 150h90l-50 -235h-315z" />
    <glyph glyph-name="afii10098" unicode="&#x491;" horiz-adv-x="455" 
d="M209 440l-94 -440h-85l111 520h280l27 130h85l-44 -210h-280z" />
    <glyph glyph-name="uni1E9E" unicode="&#x1e9e;" horiz-adv-x="715" 
d="M429 420l150 170q-1 3 -3.5 7.5t-12.5 16.5t-23.5 21.5t-38.5 17t-56 7.5q-78 0 -137 -50t-78 -140l-100 -470h-90l100 470q26 125 112 200t193 75q56 0 101.5 -16t70 -38.5t41 -45.5t22.5 -39l5 -16l-163 -180q6 -2 16 -7t35.5 -23t45 -39.5t35.5 -56.5t16 -74
q0 -94 -74.5 -159.5t-195.5 -65.5q-49 0 -95 15t-68 30l-22 15l43 85q6 -7 17 -17t48 -26.5t77 -16.5q80 0 126.5 40t46.5 100q0 31 -16 57.5t-39 43t-46 28t-39 16.5l-16 5z" />
    <glyph glyph-name="endash" unicode="&#x2013;" horiz-adv-x="530" 
d="M46 285l17 80h460l-17 -80h-460z" />
    <glyph glyph-name="emdash" unicode="&#x2014;" horiz-adv-x="890" 
d="M46 285l17 80h820l-17 -80h-820z" />
    <glyph glyph-name="quoteleft" unicode="&#x2018;" horiz-adv-x="180" 
d="M226 621q0 -30 -20 -48t-48 -18q-20 0 -32.5 11.5t-12.5 32.5q0 38 34 95t86 96h30q-8 -7 -19.5 -19.5t-34 -45.5t-28.5 -60q20 0 32.5 -11.5t12.5 -32.5z" />
    <glyph glyph-name="quoteright" unicode="&#x2019;" horiz-adv-x="180" 
d="M139 724q0 30 20 48t48 18q20 0 32.5 -11.5t12.5 -32.5q0 -38 -34 -95t-86 -96h-30q8 7 19.5 19.5t34 45.5t28.5 60q-20 0 -32.5 11.5t-12.5 32.5z" />
    <glyph glyph-name="quotesinglbase" unicode="&#x201a;" horiz-adv-x="180" 
d="M-7 34q0 30 20 48t48 18q20 0 32.5 -11.5t12.5 -32.5q0 -38 -34 -95t-86 -96h-30q8 7 19.5 19.5t34 45.5t28.5 60q-20 0 -32.5 11.5t-12.5 32.5z" />
    <glyph glyph-name="quotedblleft" unicode="&#x201c;" horiz-adv-x="350" 
d="M226 621q0 -30 -20 -48t-48 -18q-20 0 -32.5 11.5t-12.5 32.5q0 38 34 95t86 96h30q-8 -7 -19.5 -19.5t-34 -45.5t-28.5 -60q20 0 32.5 -11.5t12.5 -32.5zM396 621q0 -30 -20 -48t-48 -18q-20 0 -32.5 11.5t-12.5 32.5q0 38 34 95t86 96h30q-8 -7 -19.5 -19.5t-34 -45.5
t-28.5 -60q20 0 32.5 -11.5t12.5 -32.5z" />
    <glyph glyph-name="quotedblright" unicode="&#x201d;" horiz-adv-x="350" 
d="M309 724q0 30 20 48t48 18q20 0 32.5 -11.5t12.5 -32.5q0 -38 -34 -95t-86 -96h-30q8 7 19.5 19.5t34 45.5t28.5 60q-20 0 -32.5 11.5t-12.5 32.5zM139 724q0 30 20 48t48 18q20 0 32.5 -11.5t12.5 -32.5q0 -38 -34 -95t-86 -96h-30q8 7 19.5 19.5t34 45.5t28.5 60
q-20 0 -32.5 11.5t-12.5 32.5z" />
    <glyph glyph-name="quotedblbase" unicode="&#x201e;" horiz-adv-x="350" 
d="M-7 34q0 30 20 48t48 18q20 0 32.5 -11.5t12.5 -32.5q0 -38 -34 -95t-86 -96h-30q8 7 19.5 19.5t34 45.5t28.5 60q-20 0 -32.5 11.5t-12.5 32.5zM163 34q0 30 20 48t48 18q20 0 32.5 -11.5t12.5 -32.5q0 -38 -34 -95t-86 -96h-30q8 7 19.5 19.5t34 45.5t28.5 60
q-20 0 -32.5 11.5t-12.5 32.5z" />
    <glyph glyph-name="dagger" unicode="&#x2020;" horiz-adv-x="440" 
d="M259 350v-120l-92 -430h-80l92 430l50 120l-4 5l-125 -25h-30l17 80h30l115 -25l6 5v120l28 130h80l-28 -130l-50 -120l4 -5l125 25h30l-17 -80h-30l-115 25z" />
    <glyph glyph-name="daggerdbl" unicode="&#x2021;" horiz-adv-x="440" 
d="M270 400v-120l-26 -120l-50 -120l4 -5l125 25h30l-17 -80h-30l-115 25l-6 -5v-120l-17 -80h-80l17 80l50 120l-4 5l-125 -25h-30l17 80h30l115 -25l6 5v120l26 120l50 120l-4 5l-125 -25h-30l17 80h30l115 -25l6 5v120l17 80h80l-17 -80l-50 -120l4 -5l125 25h30l-17 -80
h-30l-115 25z" />
    <glyph glyph-name="bullet" unicode="&#x2022;" horiz-adv-x="450" 
d="M355 350q0 -48 -29.5 -76.5t-75.5 -28.5t-75.5 28.5t-29.5 76.5t29.5 76.5t75.5 28.5t75.5 -28.5t29.5 -76.5z" />
    <glyph glyph-name="ellipsis" unicode="&#x2026;" horiz-adv-x="640" 
d="M106 56q0 -30 -20 -48t-48 -18q-20 0 -32.5 11.5t-12.5 32.5q0 30 20 48t48 18q20 0 32.5 -11.5t12.5 -32.5zM336 56q0 -30 -20 -48t-48 -18q-20 0 -32.5 11.5t-12.5 32.5q0 30 20 48t48 18q20 0 32.5 -11.5t12.5 -32.5zM566 56q0 -30 -20 -48t-48 -18q-20 0 -32.5 11.5
t-12.5 32.5q0 30 20 48t48 18q20 0 32.5 -11.5t12.5 -32.5z" />
    <glyph glyph-name="perthousand" unicode="&#x2030;" horiz-adv-x="1220" 
d="M447 600q0 -78 -55 -131.5t-133 -53.5q-71 0 -110.5 40.5t-39.5 104.5q0 78 55 131.5t133 53.5q71 0 110.5 -40.5t39.5 -104.5zM366 600q0 32 -18.5 51t-50.5 19q-45 0 -76 -31t-31 -79q0 -32 18.5 -51t50.5 -19q45 0 76 31t31 79zM786 170q0 -78 -55 -131.5t-133 -53.5
q-71 0 -110.5 40.5t-39.5 104.5q0 78 55 131.5t133 53.5q71 0 110.5 -40.5t39.5 -104.5zM705 170q0 32 -18.5 51t-50.5 19q-45 0 -76 -31t-31 -79q0 -32 18.5 -51t50.5 -19q45 0 76 31t31 79zM90 0l615 730h100l-615 -730h-100zM1166 170q0 -78 -55 -131.5t-133 -53.5
q-71 0 -110.5 40.5t-39.5 104.5q0 78 55 131.5t133 53.5q71 0 110.5 -40.5t39.5 -104.5zM1085 170q0 32 -18.5 51t-50.5 19q-45 0 -76 -31t-31 -79q0 -32 18.5 -51t50.5 -19q45 0 76 31t31 79z" />
    <glyph glyph-name="guilsinglleft" unicode="&#x2039;" horiz-adv-x="355" 
d="M136 264l144 -214h-95l-144 215l4 20l226 215h105l-238 -226z" />
    <glyph glyph-name="guilsinglright" unicode="&#x203a;" horiz-adv-x="355" 
d="M236 286l-144 214h95l144 -215l-4 -20l-226 -215h-105l238 226z" />
    <glyph glyph-name="fraction" unicode="&#x2044;" horiz-adv-x="140" 
d="M-260 0l615 730h100l-615 -730h-100z" />
    <glyph glyph-name="zerosuperior" unicode="&#x2070;" horiz-adv-x="350" 
d="M186 601q0 -76 56 -76q45 0 71.5 45t26.5 129q0 76 -56 76q-45 0 -71.5 -45t-26.5 -129zM411 699q0 -110 -47 -174.5t-122 -64.5q-59 0 -93 37t-34 104q0 110 47 174.5t122 64.5q59 0 93 -37t34 -104z" />
    <glyph glyph-name="foursuperior" unicode="&#x2074;" horiz-adv-x="310" 
d="M336 830l-159 -210h60l36 75h50l-16 -75h55l-14 -65h-55l-18 -85h-70l18 85h-165l2 10l201 265h75z" />
    <glyph glyph-name="fivesuperior" unicode="&#x2075;" horiz-adv-x="325" 
d="M296 597q0 21 -14.5 34.5t-39.5 13.5q-16 0 -32 -5t-24 -10l-8 -5l-45 25l68 180h195l-14 -65h-140l-22 -60q16 5 36 5q49 0 80 -31t31 -82q0 -61 -41.5 -99t-109.5 -38q-36 0 -68 11t-46 23l-15 11l32 55q32 -35 97 -35q34 0 57 20.5t23 51.5z" />
    <glyph glyph-name="sixsuperior" unicode="&#x2076;" horiz-adv-x="340" 
d="M108 572q0 36 19 76t45.5 71t53.5 57t46 40l19 14h95q-80 -50 -139 -115q16 5 31 5q47 0 76 -33t29 -84q0 -61 -43.5 -102t-108.5 -41q-55 0 -89 32t-34 80zM178 577q0 -24 15 -38t38 -14q32 0 56.5 22t24.5 56q0 24 -15 38t-38 14q-32 0 -56.5 -22t-24.5 -56z" />
    <glyph glyph-name="sevensuperior" unicode="&#x2077;" horiz-adv-x="310" 
d="M209 470h-75l173 295h-155l14 65h250l-3 -10z" />
    <glyph glyph-name="eightsuperior" unicode="&#x2078;" horiz-adv-x="340" 
d="M232 525q34 0 55.5 16.5t21.5 44.5q0 44 -55 44q-35 0 -56.5 -17.5t-21.5 -45.5q0 -19 15 -30.5t41 -11.5zM268 695q26 0 42.5 12.5t16.5 34.5q0 33 -42 33q-26 0 -43 -13t-17 -34q0 -33 43 -33zM232 460q-62 0 -95 28.5t-33 78.5q0 21 8.5 38.5t20 27t23.5 16t20 9.5
l9 2q-31 25 -31 68q0 49 36 80.5t95 31.5q52 0 83 -27.5t31 -70.5q0 -27 -16 -47.5t-32 -27.5l-16 -7q5 -2 12.5 -7.5t19.5 -24.5t12 -42q0 -59 -38.5 -92.5t-108.5 -33.5z" />
    <glyph glyph-name="ninesuperior" unicode="&#x2079;" horiz-adv-x="340" 
d="M407 728q0 -36 -19 -76t-45.5 -71t-53.5 -57t-46 -40l-19 -14h-95q80 50 139 115q-16 -5 -31 -5q-47 0 -76 33t-29 84q0 61 43.5 102t108.5 41q55 0 89 -32t34 -80zM337 723q0 24 -15 38t-38 14q-32 0 -56.5 -22t-24.5 -56q0 -24 15 -38t38 -14q32 0 56.5 22t24.5 56z
" />
    <glyph glyph-name="zeroinferior" unicode="&#x2080;" horiz-adv-x="350" 
d="M65 31q0 -76 56 -76q45 0 71.5 45t26.5 129q0 76 -56 76q-45 0 -71.5 -45t-26.5 -129zM290 129q0 -110 -47 -174.5t-122 -64.5q-59 0 -93 37t-34 104q0 110 47 174.5t122 64.5q59 0 93 -37t34 -104z" />
    <glyph glyph-name="oneinferior" unicode="&#x2081;" horiz-adv-x="235" 
d="M8 135l16 75l101 50h45l-77 -360h-70l57 270z" />
    <glyph glyph-name="twoinferior" unicode="&#x2082;" horiz-adv-x="320" 
d="M-40 -90l189 185q46 46 46 74q0 36 -42 36q-27 0 -57.5 -15t-47.5 -30l-18 -15h-10l14 65q6 7 17 17t45 26.5t67 16.5q48 0 76.5 -25t28.5 -66q0 -57 -60 -114l-101 -100h125l-14 -65h-260z" />
    <glyph glyph-name="threeinferior" unicode="&#x2083;" horiz-adv-x="320" 
d="M120 75q-18 0 -34 -5t-23 -10l-7 -5l-23 35l112 105h-105l14 65h230l-2 -10l-119 -115q37 -8 60 -35.5t23 -72.5q0 -61 -42 -99t-110 -38q-36 0 -68 11t-46 23l-15 11l37 55q3 -4 9.5 -10t30 -15.5t52.5 -9.5q34 0 57 20.5t23 51.5q0 21 -14.5 34.5t-39.5 13.5z" />
    <glyph glyph-name="fourinferior" unicode="&#x2084;" horiz-adv-x="310" 
d="M214 260l-159 -210h60l36 75h50l-16 -75h55l-14 -65h-55l-18 -85h-70l18 85h-165l2 10l201 265h75z" />
    <glyph glyph-name="fiveinferior" unicode="&#x2085;" horiz-adv-x="325" 
d="M174 27q0 21 -14.5 34.5t-39.5 13.5q-16 0 -32 -5t-24 -10l-8 -5l-45 25l68 180h195l-14 -65h-140l-22 -60q16 5 36 5q49 0 80 -31t31 -82q0 -61 -41.5 -99t-109.5 -38q-36 0 -68 11t-46 23l-15 11l32 55q32 -35 97 -35q34 0 57 20.5t23 51.5z" />
    <glyph glyph-name="sixinferior" unicode="&#x2086;" horiz-adv-x="340" 
d="M-13 2q0 36 19 76t45.5 71t53.5 57t46 40l19 14h95q-80 -50 -139 -115q16 5 31 5q47 0 76 -33t29 -84q0 -61 -43.5 -102t-108.5 -41q-55 0 -89 32t-34 80zM57 7q0 -24 15 -38t38 -14q32 0 56.5 22t24.5 56q0 24 -15 38t-38 14q-32 0 -56.5 -22t-24.5 -56z" />
    <glyph glyph-name="seveninferior" unicode="&#x2087;" horiz-adv-x="310" 
d="M88 -100h-75l173 295h-155l14 65h250l-3 -10z" />
    <glyph glyph-name="eightinferior" unicode="&#x2088;" horiz-adv-x="340" 
d="M111 -45q34 0 55.5 16.5t21.5 44.5q0 44 -55 44q-35 0 -56.5 -17.5t-21.5 -45.5q0 -19 15 -30.5t41 -11.5zM147 125q26 0 42.5 12.5t16.5 34.5q0 33 -42 33q-26 0 -43 -13t-17 -34q0 -33 43 -33zM111 -110q-62 0 -95 28.5t-33 78.5q0 33 20.5 56.5t40.5 30.5l20 6
q-31 25 -31 68q0 49 36 80.5t95 31.5q52 0 83 -27.5t31 -70.5q0 -27 -16 -47.5t-32 -27.5l-16 -7q5 -2 12.5 -7.5t19.5 -24.5t12 -42q0 -59 -38.5 -92.5t-108.5 -33.5z" />
    <glyph glyph-name="nineinferior" unicode="&#x2089;" horiz-adv-x="340" 
d="M286 158q0 -36 -19 -76t-46 -71t-53.5 -57t-45.5 -40l-19 -14h-95q80 50 139 115q-16 -5 -31 -5q-47 0 -76 33t-29 84q0 61 43.5 102t108.5 41q55 0 89 -32t34 -80zM216 153q0 24 -15 38t-38 14q-32 0 -56.5 -22t-24.5 -56q0 -24 15 -38t38 -14q32 0 56.5 22t24.5 56z
" />
    <glyph glyph-name="Euro" unicode="&#x20ac;" horiz-adv-x="780" 
d="M57 340h57q4 32 8 50h-54l17 80h62q52 122 168 198.5t255 76.5q49 0 92.5 -11t70.5 -26.5t46.5 -30.5t28.5 -26l8 -11l-51 -75q-2 4 -6 10.5t-19.5 22.5t-35.5 28.5t-56 23t-78 10.5q-108 0 -193.5 -51t-130.5 -139h389l-42 -80h-376q-6 -30 -8 -50h358l-42 -80h-314
q13 -87 75 -138.5t158 -51.5q42 0 83.5 12.5t70 30t51.5 35t35 30.5l11 12h15l-21 -100q-3 -4 -9.5 -11t-29 -25.5t-49 -32t-69 -25t-88.5 -11.5q-138 0 -226 76.5t-103 198.5h-75z" />
    <glyph glyph-name="uni20B4" unicode="&#x20b4;" horiz-adv-x="620" 
d="M81 335h130l118 60h-235l16 75h320q7 5 17 14t27 37.5t17 58.5q0 37 -26.5 58.5t-79.5 21.5q-31 0 -61 -9t-51 -21t-38 -24.5t-25 -21.5l-8 -9h-15l21 100q8 8 22 19.5t60 31t95 19.5q96 0 150 -47.5t54 -117.5q0 -30 -12.5 -57.5t-24.5 -40.5l-12 -12h70l-16 -75h-130
l-118 -60h235l-16 -75h-320q-7 -5 -17 -14t-27 -37.5t-17 -58.5q0 -37 26.5 -58.5t79.5 -21.5q31 0 61 9t51 21t38 24.5t25 21.5l8 9h15l-21 -100q-8 -8 -22 -19.5t-60 -31t-95 -19.5q-96 0 -150 47.5t-54 117.5q0 30 12 57.5t24 40.5l13 12h-70z" />
    <glyph glyph-name="uni20BD" unicode="&#x20bd;" horiz-adv-x="635" 
d="M50 280l18 85h85l78 365h186q100 0 161.5 -55t61.5 -137q0 -109 -80.5 -183.5t-201.5 -74.5h-133l-14 -65h260l-18 -85h-260l-28 -130h-90l28 130h-85l18 85h85l14 65h-85zM302 645l-59 -280h115q90 0 137 46.5t47 126.5q0 50 -34 78.5t-91 28.5h-115z" />
    <glyph glyph-name="afii61352" unicode="&#x2116;" horiz-adv-x="1130" 
d="M782 290l17 80h300l-17 -80h-300zM1073 606q0 27 -16.5 43t-45.5 16q-39 0 -66 -26t-27 -65q0 -27 16.5 -43t44.5 -16q40 0 67 26t27 65zM836 574q0 72 50.5 119t124.5 47q63 0 103 -37t40 -97q0 -73 -50.5 -119.5t-124.5 -46.5q-63 0 -103 37t-40 97zM795 730l-155 -730
h-85l-290 588l-125 -588h-90l155 730h85l290 -588l125 588h90z" />
    <glyph glyph-name="trademark" unicode="&#x2122;" horiz-adv-x="800" 
d="M276 570l-57 -270h-70l57 270h-115l15 70h300l-15 -70h-115zM572 385l136 255h75l-9 -340h-75l7 215h-5l-117 -215h-65l-27 215h-5l-83 -215h-75l135 340h75l28 -255h5z" />
    <glyph glyph-name="arrowleft" unicode="&#x2190;" horiz-adv-x="990" 
d="M100 310l170 220h90l-140 -180h670v-80h-670l140 -180h-90z" />
    <glyph glyph-name="arrowup" unicode="&#x2191;" horiz-adv-x="640" 
d="M320 730l220 -170v-90l-180 140v-670h-80v670l-180 -140v90z" />
    <glyph glyph-name="arrowright" unicode="&#x2192;" horiz-adv-x="990" 
d="M720 530l170 -220l-170 -220h-90l140 180h-670v80h670l-140 180h90z" />
    <glyph glyph-name="arrowdown" unicode="&#x2193;" horiz-adv-x="640" 
d="M540 110l-220 -170l-220 170v90l180 -140v670h80v-670l180 140v-90z" />
    <glyph glyph-name="minus" unicode="&#x2212;" horiz-adv-x="525" 
d="M76 285l17 80h395l-17 -80h-395z" />
    <glyph glyph-name="commaaccent" unicode="&#xf6c3;" horiz-adv-x="155" 
d="M53 -96q0 -39 -29.5 -92t-70.5 -82h-30q57 55 70 115q-16 0 -26.5 10t-10.5 27q0 26 18 42t42 16q16 0 26.5 -9.5t10.5 -26.5z" />
    <glyph glyph-name="cyrBreve" unicode="&#xf6d1;" horiz-adv-x="380" 
d="M317 800q-47 0 -86 12.5t-55 25.5l-15 12l19 90q2 -2 5.5 -6.5t16 -14.5t28 -18t42 -14.5t55.5 -6.5q47 0 90 15t63 30l20 15l-19 -90q-7 -6 -19.5 -14t-55 -22t-89.5 -14z" />
    <glyph glyph-name="cyrbreve" unicode="&#xf6d4;" horiz-adv-x="320" 
d="M245 610q-36 0 -67.5 10t-45.5 20l-14 10l19 90q2 -2 5 -6.5t13.5 -14.5t23 -18t33.5 -14.5t43 -6.5q36 0 71.5 15t53.5 30l17 15l-19 -90q-53 -40 -133 -40z" />
    <glyph glyph-name="s_t" unicode="&#xfb06;" horiz-adv-x="896" 
d="M570 160l59 280h-100l7 30l124 114q4 17 4 36q0 43 -25.5 66.5t-72.5 23.5q-64 0 -104.5 -37t-40.5 -93q0 -32 11.5 -62t23.5 -44l12 -14l-50 -70q-5 7 -15.5 18t-48.5 29t-82 18q-53 0 -82 -23t-29 -55q0 -23 27 -39.5t66 -29.5t78 -30t66 -49.5t27 -77.5
q0 -73 -56 -119.5t-165 -46.5q-56 0 -108 16.5t-76 32.5l-24 16l36 75q8 -7 22 -17t61.5 -26.5t98.5 -16.5q65 0 94.5 24t29.5 62q0 27 -27 45.5t-66 31t-77.5 27.5t-65.5 46t-27 76q0 67 53.5 112.5t143.5 45.5q24 0 48 -3.5t36 -7.5l12 -4q-21 26 -21 67q0 79 61.5 136
t157.5 57q85 0 134.5 -40t49.5 -110q0 -18 -5 -45l-14 -65h166l-18 -80h-165l-59 -280q-4 -16 -4 -33q0 -62 64 -62q24 0 49 10t38 20l12 10h15l-16 -75q-4 -5 -12.5 -12.5t-36.5 -20t-59 -12.5q-60 0 -100 36t-40 97q0 17 5 42z" />
    <glyph glyph-name="s_h" unicode="&#xfb10;" horiz-adv-x="1105" 
d="M980 0h-85l68 320q5 27 5 43q0 92 -111 92q-71 0 -131 -49.5t-75 -120.5l-61 -285h-85l148 700q-19 0 -43 5t-44 5q-64 0 -104.5 -37t-40.5 -93q0 -32 11.5 -62t23.5 -44l12 -14l-50 -70q-5 7 -15.5 18t-48.5 29t-82 18q-53 0 -82 -23t-29 -55q0 -23 27 -39.5t66 -29.5
t78 -30t66 -49.5t27 -77.5q0 -73 -56 -119.5t-165 -46.5q-56 0 -108 16.5t-76 32.5l-24 16l36 75q8 -7 22 -17t61.5 -26.5t98.5 -16.5q65 0 94.5 24t29.5 62q0 27 -27 45.5t-66 31t-77.5 27.5t-65.5 46t-27 76q0 67 53.5 112.5t143.5 45.5q24 0 48 -3.5t36 -7.5l12 -4
q-21 26 -21 67q0 79 61.5 136t157.5 57q24 0 58 -5t65 -5h65l-68 -320h5q3 3 8.5 9t23.5 20.5t38 26t50 20.5t61 9q88 0 135 -44t47 -119q0 -25 -6 -52z" />
    <glyph glyph-name="s_k" unicode="&#xfb11;" horiz-adv-x="1030" 
d="M880 0l-144 240l-115 -95l-31 -145h-85l149 700q-20 0 -44 5t-44 5q-64 0 -104.5 -37t-40.5 -93q0 -32 11.5 -62t23.5 -44l12 -14l-50 -70q-5 7 -15.5 18t-48.5 29t-82 18q-53 0 -82 -23t-29 -55q0 -23 27 -39.5t66 -29.5t78 -30t66 -49.5t27 -77.5q0 -73 -56 -119.5
t-165 -46.5q-56 0 -108 16.5t-76 32.5l-24 16l36 75q8 -7 22 -17t61.5 -26.5t98.5 -16.5q65 0 94.5 24t29.5 62q0 27 -27 45.5t-66 31t-77.5 27.5t-65.5 46t-27 76q0 67 53.5 112.5t143.5 45.5q24 0 48 -3.5t36 -7.5l12 -4q-21 26 -21 67q0 79 61.5 136t157.5 57q24 0 58 -5
t65 -5h65l-108 -505l309 255h121l-273 -225l177 -295h-100z" />
    <glyph glyph-name="c_h" unicode="&#xfb12;" horiz-adv-x="1191" 
d="M1066 0h-85l68 320q5 27 5 43q0 92 -111 92q-71 0 -131 -49.5t-75 -120.5l-61 -285h-85l148 700q-20 0 -44 5t-44 5q-63 0 -104 -35.5t-41 -86.5q0 -30 16 -60.5t32 -46.5l15 -16l-50 -70q-2 2 -5.5 6.5t-16 14.5t-27.5 18t-40 14.5t-53 6.5q-101 0 -171.5 -67.5
t-70.5 -166.5q0 -70 43 -113t116 -43q44 0 86 16.5t62 32.5l20 16h15l-18 -85q-2 -2 -7 -6.5t-21 -14.5t-33.5 -18t-46 -14.5t-57.5 -6.5q-116 0 -181 65t-65 171q0 133 95.5 223.5t233.5 90.5q18 0 35 -1.5t26 -3.5l8 -2q-14 22 -14 58q0 80 61.5 137t157.5 57q24 0 58 -5
t65 -5h65l-67 -320h5q3 3 8.5 9t23.5 20.5t38 26t50 20.5t61 9q88 0 135 -44t47 -119q0 -25 -6 -52z" />
    <glyph glyph-name="c_k" unicode="&#xfb13;" horiz-adv-x="1120" 
d="M965 0l-144 240l-115 -95l-31 -145h-85l149 700q-20 0 -44 5t-44 5q-63 0 -104 -35.5t-41 -86.5q0 -30 16 -60.5t32 -46.5l15 -16l-50 -70q-2 2 -5.5 6.5t-16 14.5t-27.5 18t-40 14.5t-53 6.5q-101 0 -171.5 -67.5t-70.5 -166.5q0 -70 43 -113t116 -43q44 0 86 16.5
t62 32.5l20 16h15l-18 -85q-2 -2 -7 -6.5t-21 -14.5t-33.5 -18t-46 -14.5t-57.5 -6.5q-116 0 -181 65t-65 171q0 133 95.5 223.5t233.5 90.5q18 0 35 -1.5t26 -3.5l8 -2q-14 22 -14 58q0 80 61.5 137t157.5 57q24 0 58 -5t65 -5h65l-108 -505l309 255h121l-273 -225
l177 -295h-100z" />
    <glyph glyph-name="c_t" unicode="&#xfb14;" horiz-adv-x="981" 
d="M651 710q-63 0 -104 -35.5t-41 -86.5q0 -30 16 -60.5t32 -46.5l15 -16l-50 -70q-2 2 -5.5 6.5t-16 14.5t-27.5 18t-40 14.5t-53 6.5q-101 0 -171.5 -67.5t-70.5 -166.5q0 -70 43 -113t116 -43q44 0 86 16.5t62 32.5l20 16h15l-18 -85q-2 -2 -7 -6.5t-21 -14.5t-33.5 -18
t-46 -14.5t-57.5 -6.5q-116 0 -181 65t-65 171q0 133 95.5 223.5t233.5 90.5q18 0 35 -1.5t26 -3.5l8 -2q-14 22 -14 58q0 80 61.5 137t157.5 57q85 0 134.5 -40t49.5 -110q0 -18 -5 -45l-14 -65h166l-18 -80h-165l-59 -280q-4 -16 -4 -33q0 -62 64 -62q24 0 49 10t37 20
l13 10h15l-16 -75q-4 -5 -12.5 -12.5t-36.5 -20t-59 -12.5q-60 0 -100 36t-40 97q0 17 5 42l59 280h-100l7 30l124 114q4 17 4 36q0 43 -25.5 66.5t-72.5 23.5z" />
    <glyph glyph-name="afii10085.salt" horiz-adv-x="575" 
d="M605 520l-457 -740h-90l138 225l-126 515h84l100 -415h5l256 415h90z" />
    <glyph glyph-name="y.salt" horiz-adv-x="575" 
d="M605 520l-457 -740h-90l138 225l-126 515h84l100 -415h5l256 415h90z" />
    <glyph glyph-name="a.salt" 
d="M199 65q38 0 72.5 13t57 31.5t40 36.5t25.5 31l7 13q-6 4 -17 11t-49.5 18t-80.5 11q-135 0 -135 -101q0 -30 20.5 -47t59.5 -17zM322 535q98 0 148 -44t50 -120q0 -16 -5 -41l-70 -330h-80l11 70h-5q-3 -3 -8.5 -9t-23 -20.5t-36.5 -26t-47.5 -20.5t-56.5 -9
q-82 0 -124.5 39t-42.5 105q0 78 59.5 129.5t162.5 51.5q44 0 85 -10t60 -20l19 -10l12 60q4 26 4 35q0 90 -112 90q-51 0 -102.5 -18.5t-77.5 -37.5l-26 -19h-15l18 85q10 8 27.5 19.5t71 31t104.5 19.5z" />
    <glyph glyph-name="l.salt" horiz-adv-x="245" 
d="M277 760l-162 -760h-85l162 760h85z" />
    <glyph glyph-name="g.salt" horiz-adv-x="565" 
d="M84 324q0 91 66.5 151t176.5 60q36 0 64 -6.5t39 -12.5l10 -6l5.5 11t17 25.5t30.5 32t47.5 25t65.5 11.5l-18 -85q-35 0 -61 -12.5t-35 -25.5l-9 -12q4 -4 11 -13t18 -38.5t11 -62.5q0 -65 -36 -116t-107 -80l-186 -80h60q221 0 221 -140q0 -81 -69 -133t-209 -52
q-114 0 -174 41.5t-60 106.5q0 22 10.5 41t25 31t29.5 20t26 11l10 4h-50l11 55l200 85q-6 1 -15.5 3t-33.5 13t-43 27t-34 48t-15 73zM171 324q0 -41 28 -65t81 -24q72 0 114 37t42 94q0 41 -28 65t-81 24q-72 0 -114 -37t-42 -94zM383 -50q0 70 -129 70h-70
q-5 -1 -14 -3.5t-31.5 -11.5t-40 -20t-31.5 -30.5t-14 -41.5q0 -30 37 -49t107 -19q186 0 186 105z" />
    <glyph glyph-name="afii10110.salt" horiz-adv-x="575" 
d="M605 520l-457 -740h-90l138 225l-126 515h84l100 -415h5l256 415h90zM350 610q-36 0 -67.5 10t-45.5 20l-14 10l19 90q2 -2 5 -6.5t13.5 -14.5t23 -18t33.5 -14.5t43 -6.5q36 0 71.5 15t52.5 30l18 15l-19 -90q-53 -40 -133 -40z" />
    <glyph glyph-name="zero.pnum" horiz-adv-x="620" 
d="M153 260q0 -96 33.5 -143t88.5 -47q100 0 174 105.5t74 294.5q0 96 -33.5 143t-88.5 47q-100 0 -174 -105.5t-74 -294.5zM614 470q0 -111 -30 -204.5t-78.5 -153.5t-108.5 -93.5t-122 -33.5q-98 0 -155.5 72.5t-57.5 202.5q0 111 30 204.5t78.5 153.5t108.5 93.5
t122 33.5q98 0 155.5 -72.5t57.5 -202.5z" />
    <glyph glyph-name="one.pnum" horiz-adv-x="370" 
d="M110 540l20 95l185 95h60l-155 -730h-90l132 620z" />
    <glyph glyph-name="two.pnum" horiz-adv-x="565" 
d="M-13 10l378 390q107 112 107 184q0 76 -97 76q-36 0 -74 -14.5t-66.5 -35t-51.5 -41t-35 -35.5l-12 -14h-15l21 100q4 5 12 13.5t33 30t52 38t67 30t79 13.5q86 0 133 -44t47 -117q0 -100 -130 -234l-257 -265h305l-18 -85h-480z" />
    <glyph glyph-name="three.pnum" horiz-adv-x="560" 
d="M281 360q-29 0 -54 -6t-36 -12l-11 -7l-35 70l257 245h-240l17 80h415l-2 -10l-287 -270l-1 -5q96 0 153.5 -57t57.5 -145q0 -109 -82.5 -183.5t-213.5 -74.5q-58 0 -111.5 21.5t-78.5 42.5l-25 21l51 75q2 -3 6 -8t18.5 -18t32 -23t46.5 -18t61 -8q94 0 149.5 49
t55.5 124q0 53 -37 85t-106 32z" />
    <glyph glyph-name="four.pnum" horiz-adv-x="580" 
d="M571 285l-18 -85h-110l-43 -200h-90l43 200h-340l2 10l386 520h105l-330 -445h195l42 195h90l-42 -195h110z" />
    <glyph glyph-name="five.pnum" horiz-adv-x="575" 
d="M442 262q0 58 -37 93t-103 35q-38 0 -75 -15t-55 -30l-18 -15l-48 30l133 370h370l-18 -85h-295l-69 -189q35 19 85 19q103 0 162.5 -60t59.5 -153q0 -116 -86 -196.5t-214 -80.5q-58 0 -113 21.5t-81 42.5l-26 21l51 75q2 -3 6.5 -8t20 -18t33.5 -23t47.5 -18t61.5 -8
q91 0 149.5 55t58.5 137z" />
    <glyph glyph-name="six.pnum" horiz-adv-x="600" 
d="M410 730h116q-9 -6 -24 -17.5t-57.5 -46.5t-79.5 -70t-78.5 -84t-66.5 -92h5q4 4 12.5 10t40 15.5t67.5 9.5q100 0 156.5 -55t56.5 -146q0 -117 -79.5 -193t-205.5 -76q-106 0 -164.5 55t-58.5 146q0 78 37 163t90 150t106 119t90 83zM335 375q-88 0 -140.5 -52.5
t-52.5 -136.5q0 -56 34 -88.5t97 -32.5q88 0 140.5 52.5t52.5 136.5q0 56 -34 88.5t-97 32.5z" />
    <glyph glyph-name="seven.pnum" horiz-adv-x="520" 
d="M175 0h-100l377 645h-335l18 85h460l-2 -10z" />
    <glyph glyph-name="eight.pnum" horiz-adv-x="610" 
d="M329 350q-95 0 -147 -47t-52 -122q0 -52 35.5 -81.5t104.5 -29.5q95 0 146.5 47t51.5 122q0 52 -35 81.5t-104 29.5zM395 660q-74 0 -116 -38.5t-42 -100.5q0 -42 28 -66.5t81 -24.5q74 0 116 38.5t42 100.5q0 42 -28 66.5t-81 24.5zM270 -15q-112 0 -172 54.5t-60 141.5
q0 49 17 89.5t41 62.5t48.5 37t41.5 20l17 5l1 5q-2 1 -6 4t-14 13t-17.5 22.5t-13.5 34.5t-6 47q0 96 68.5 160t179.5 64q96 0 148.5 -49t52.5 -127q0 -39 -13.5 -71.5t-33 -50.5t-39 -30.5t-32.5 -16.5l-14 -5l-1 -5q4 -2 10.5 -5t22.5 -15.5t28.5 -28t23 -43t10.5 -59.5
q0 -110 -78 -182t-210 -72z" />
    <glyph glyph-name="nine.pnum" horiz-adv-x="600" 
d="M245 0h-116q9 6 24 17.5t57.5 46.5t79.5 70t78.5 84t66.5 92h-5q-4 -4 -12.5 -10t-40 -15.5t-67.5 -9.5q-100 0 -156.5 55t-56.5 146q0 117 79.5 193t205.5 76q106 0 164.5 -55t58.5 -146q0 -78 -37 -163t-90 -150t-106 -119t-90 -83zM320 355q88 0 140.5 52.5
t52.5 136.5q0 56 -34 88.5t-97 32.5q-88 0 -140.5 -52.5t-52.5 -136.5q0 -56 34 -88.5t97 -32.5z" />
    <glyph glyph-name="foundryicon" horiz-adv-x="1538" 
d="M278 460v-31h-72v-199h-35v199h-71v31h178zM519 396q32 0 54.5 -25t22.5 -59q0 -36 -22.5 -60.5t-54.5 -24.5q-29 0 -47 21v-79h-34v224h24l9 -19q19 22 48 22zM516 258q19 0 33 16t14 38q0 21 -14 36.5t-33 15.5t-33 -15.5t-14 -36.5q0 -22 13.5 -38t33.5 -16zM333 277
l44 116h37l-77 -190q-16 -34 -49 -34q-7 0 -10 1v28q23 0 31 20l6 16l-63 159h37zM701 396q32 0 54 -24.5t22 -58.5l-1 -15h-119q2 -17 14.5 -29t29.5 -12q27 0 37 17h35q-9 -22 -28.5 -34.5t-43.5 -12.5q-32 0 -55 24.5t-23 60.5q0 35 23 59.5t55 24.5zM657 325h88
q-1 17 -14.5 28.5t-29.5 11.5t-29 -11t-15 -29zM939 460v-31h-72v-199h-35v199h-71v31h178zM1180 396q32 0 54.5 -25t22.5 -59q0 -36 -22.5 -60.5t-54.5 -24.5q-29 0 -47 21v-79h-34v224h24l9 -19q19 22 48 22zM1177 258q19 0 33 16t14 38q0 21 -14 36.5t-33 15.5t-33 -15.5
t-14 -36.5q0 -22 13.5 -38t33.5 -16zM994 277l44 116h37l-77 -190q-16 -34 -49 -34q-7 0 -10 1v28q23 0 31 20l6 16l-63 159h37zM1362 396q32 0 54 -24.5t22 -58.5l-1 -15h-119q2 -17 14.5 -29t29.5 -12q27 0 37 17h35q-9 -22 -28.5 -34.5t-43.5 -12.5q-32 0 -55 24.5
t-23 60.5q0 35 23 59.5t55 24.5zM1318 325h88q-1 17 -14.5 28.5t-29.5 11.5t-29 -11t-15 -29z" />
    <glyph glyph-name="lslash.salt" horiz-adv-x="305" 
d="M46 310l16 75l85 25l75 350h85l-68 -320l85 25l-16 -75l-85 -25l-78 -365h-85l71 335z" />
    <glyph glyph-name="lcommaaccent.salt" horiz-adv-x="255" 
d="M282 760l-162 -760h-85l162 760h85zM109 -106q0 -39 -29.5 -92t-70.5 -82h-30q57 55 70 115q-16 0 -26.5 10t-10.5 27q0 26 18 42t42 16q16 0 26.5 -9.5t10.5 -26.5z" />
    <glyph glyph-name="lcaron.salt" horiz-adv-x="300" 
d="M277 760l-162 -760h-85l162 760h85zM437 754q0 -39 -29.5 -92t-70.5 -82h-30q57 55 70 115q-16 0 -26.5 10t-10.5 27q0 26 18 42t42 16q16 0 26.5 -9.5t10.5 -26.5z" />
    <glyph glyph-name="lacute.salt" horiz-adv-x="255" 
d="M277 760l-162 -760h-85l162 760h85zM223 840l118 180h100l-153 -180h-65z" />
    <glyph glyph-name="gcommaaccent.salt" horiz-adv-x="565" 
d="M309 646q0 39 29.5 92t70.5 82h30q-57 -55 -70 -115q16 0 26.5 -10t10.5 -27q0 -26 -18 -42t-42 -16q-16 0 -26.5 9.5t-10.5 26.5zM84 324q0 91 66.5 151t176.5 60q36 0 64 -6.5t39 -12.5l10 -6l5.5 11t17 25.5t30.5 32t47.5 25t65.5 11.5l-18 -85q-35 0 -61 -12.5
t-35 -25.5l-9 -12q4 -4 11 -13t18 -38.5t11 -62.5q0 -65 -36 -116t-107 -80l-186 -80h60q221 0 221 -140q0 -81 -69 -133t-209 -52q-114 0 -174 41.5t-60 106.5q0 22 10.5 41t25 31t29.5 20t26 11l10 4h-50l11 55l200 85q-6 1 -15.5 3t-33.5 13t-43 27t-34 48t-15 73z
M171 324q0 -41 28 -65t81 -24q72 0 114 37t42 94q0 41 -28 65t-81 24q-72 0 -114 -37t-42 -94zM383 -50q0 70 -129 70h-70q-5 -1 -14 -3.5t-31.5 -11.5t-40 -20t-31.5 -30.5t-14 -41.5q0 -30 37 -49t107 -19q186 0 186 105z" />
    <glyph glyph-name="agrave.salt" 
d="M199 65q38 0 72.5 13t57 31.5t40 36.5t25.5 31l7 13q-6 4 -17 11t-49.5 18t-80.5 11q-135 0 -135 -101q0 -30 20.5 -47t59.5 -17zM322 535q98 0 148 -44t50 -120q0 -16 -5 -41l-70 -330h-80l11 70h-5q-3 -3 -8.5 -9t-23 -20.5t-36.5 -26t-47.5 -20.5t-56.5 -9
q-82 0 -124.5 39t-42.5 105q0 78 59.5 129.5t162.5 51.5q44 0 85 -10t60 -20l19 -10l12 60q4 26 4 35q0 90 -112 90q-51 0 -102.5 -18.5t-77.5 -37.5l-26 -19h-15l18 85q10 8 27.5 19.5t71 31t104.5 19.5zM350 780l42 -180h-70l-72 180h100z" />
    <glyph glyph-name="aacute.salt" 
d="M199 65q38 0 72.5 13t57 31.5t40 36.5t25.5 31l7 13q-6 4 -17 11t-49.5 18t-80.5 11q-135 0 -135 -101q0 -30 20.5 -47t59.5 -17zM322 535q98 0 148 -44t50 -120q0 -16 -5 -41l-70 -330h-80l11 70h-5q-3 -3 -8.5 -9t-23 -20.5t-36.5 -26t-47.5 -20.5t-56.5 -9
q-82 0 -124.5 39t-42.5 105q0 78 59.5 129.5t162.5 51.5q44 0 85 -10t60 -20l19 -10l12 60q4 26 4 35q0 90 -112 90q-51 0 -102.5 -18.5t-77.5 -37.5l-26 -19h-15l18 85q10 8 27.5 19.5t71 31t104.5 19.5zM312 600l118 180h100l-153 -180h-65z" />
    <glyph glyph-name="abreve.salt" 
d="M199 65q38 0 72.5 13t57 31.5t40 36.5t25.5 31l7 13q-6 4 -17 11t-49.5 18t-80.5 11q-135 0 -135 -101q0 -30 20.5 -47t59.5 -17zM322 535q98 0 148 -44t50 -120q0 -16 -5 -41l-70 -330h-80l11 70h-5q-3 -3 -8.5 -9t-23 -20.5t-36.5 -26t-47.5 -20.5t-56.5 -9
q-82 0 -124.5 39t-42.5 105q0 78 59.5 129.5t162.5 51.5q44 0 85 -10t60 -20l19 -10l12 60q4 26 4 35q0 90 -112 90q-51 0 -102.5 -18.5t-77.5 -37.5l-26 -19h-15l18 85q10 8 27.5 19.5t71 31t104.5 19.5zM356 610q-47 0 -86 12.5t-54 25.5l-16 12l19 90q2 -2 5.5 -6.5
t16 -14.5t28 -18t42 -14.5t55.5 -6.5q47 0 90 15t63 30l20 15l-19 -90q-7 -6 -19.5 -14t-55 -22t-89.5 -14z" />
    <glyph glyph-name="acircumflex.salt" 
d="M199 65q38 0 72.5 13t57 31.5t40 36.5t25.5 31l7 13q-6 4 -17 11t-49.5 18t-80.5 11q-135 0 -135 -101q0 -30 20.5 -47t59.5 -17zM322 535q98 0 148 -44t50 -120q0 -16 -5 -41l-70 -330h-80l11 70h-5q-3 -3 -8.5 -9t-23 -20.5t-36.5 -26t-47.5 -20.5t-56.5 -9
q-82 0 -124.5 39t-42.5 105q0 78 59.5 129.5t162.5 51.5q44 0 85 -10t60 -20l19 -10l12 60q4 26 4 35q0 90 -112 90q-51 0 -102.5 -18.5t-77.5 -37.5l-26 -19h-15l18 85q10 8 27.5 19.5t71 31t104.5 19.5zM472 600l-94 120l-151 -120h-60l188 180h60l112 -180h-55z" />
    <glyph glyph-name="adieresis.salt" 
d="M199 65q38 0 72.5 13t57 31.5t40 36.5t25.5 31l7 13q-6 4 -17 11t-49.5 18t-80.5 11q-135 0 -135 -101q0 -30 20.5 -47t59.5 -17zM322 535q98 0 148 -44t50 -120q0 -16 -5 -41l-70 -330h-80l11 70h-5q-3 -3 -8.5 -9t-23 -20.5t-36.5 -26t-47.5 -20.5t-56.5 -9
q-82 0 -124.5 39t-42.5 105q0 78 59.5 129.5t162.5 51.5q44 0 85 -10t60 -20l19 -10l12 60q4 26 4 35q0 90 -112 90q-51 0 -102.5 -18.5t-77.5 -37.5l-26 -19h-15l18 85q10 8 27.5 19.5t71 31t104.5 19.5zM224 674q0 29 20.5 47.5t47.5 18.5q20 0 32.5 -11.5t12.5 -32.5
q0 -29 -20.5 -47.5t-47.5 -18.5q-20 0 -32.5 11.5t-12.5 32.5zM424 674q0 29 20.5 47.5t47.5 18.5q20 0 32.5 -11.5t12.5 -32.5q0 -29 -20.5 -47.5t-47.5 -18.5q-20 0 -32.5 11.5t-12.5 32.5z" />
    <glyph glyph-name="amacron.salt" 
d="M199 65q38 0 72.5 13t57 31.5t40 36.5t25.5 31l7 13q-6 4 -17 11t-49.5 18t-80.5 11q-135 0 -135 -101q0 -30 20.5 -47t59.5 -17zM322 535q98 0 148 -44t50 -120q0 -16 -5 -41l-70 -330h-80l11 70h-5q-3 -3 -8.5 -9t-23 -20.5t-36.5 -26t-47.5 -20.5t-56.5 -9
q-82 0 -124.5 39t-42.5 105q0 78 59.5 129.5t162.5 51.5q44 0 85 -10t60 -20l19 -10l12 60q4 26 4 35q0 90 -112 90q-51 0 -102.5 -18.5t-77.5 -37.5l-26 -19h-15l18 85q10 8 27.5 19.5t71 31t104.5 19.5zM188 650l15 70h350l-15 -70h-350z" />
    <glyph glyph-name="aogonek.salt" 
d="M322 535q98 0 148 -44t50 -120q0 -16 -5 -41l-70 -330q-6 -2 -15.5 -6.5t-33.5 -19t-42.5 -30.5t-33.5 -41.5t-15 -52.5q0 -50 47 -50q12 0 25.5 4t20.5 8l7 3l-9 -45q-21 -20 -71 -20q-41 0 -68 23t-27 57q0 32 16.5 61.5t40 48.5t47.5 33t40 21l17 6h-26l11 70h-5
q-3 -3 -8.5 -9t-23 -20.5t-36.5 -26t-47.5 -20.5t-56.5 -9q-82 0 -124.5 39t-42.5 105q0 78 59.5 129.5t162.5 51.5q44 0 85 -10t60 -20l19 -10l12 60q4 26 4 35q0 90 -112 90q-51 0 -102.5 -18.5t-77.5 -37.5l-26 -19h-15l18 85q10 8 27.5 19.5t71 31t104.5 19.5zM199 65
q38 0 72.5 13t57 31.5t40 36.5t25.5 31l7 13q-6 4 -17 11t-49.5 18t-80.5 11q-135 0 -135 -101q0 -30 20.5 -47t59.5 -17z" />
    <glyph glyph-name="aring.salt" 
d="M199 65q38 0 72.5 13t57 31.5t40 36.5t25.5 31l7 13q-6 4 -17 11t-49.5 18t-80.5 11q-135 0 -135 -101q0 -30 20.5 -47t59.5 -17zM322 535q98 0 148 -44t50 -120q0 -16 -5 -41l-70 -330h-80l11 70h-5q-3 -3 -8.5 -9t-23 -20.5t-36.5 -26t-47.5 -20.5t-56.5 -9
q-82 0 -124.5 39t-42.5 105q0 78 59.5 129.5t162.5 51.5q44 0 85 -10t60 -20l19 -10l12 60q4 26 4 35q0 90 -112 90q-51 0 -102.5 -18.5t-77.5 -37.5l-26 -19h-15l18 85q10 8 27.5 19.5t71 31t104.5 19.5zM262 699q0 56 37.5 91t91.5 35q46 0 76.5 -28.5t30.5 -75.5
q0 -56 -37.5 -91t-91.5 -35q-46 0 -76.5 28.5t-30.5 75.5zM324 699q0 -21 12.5 -32.5t32.5 -11.5q27 0 47 18t20 48q0 21 -12.5 32.5t-32.5 11.5q-27 0 -47 -18t-20 -48z" />
    <glyph glyph-name="atilde.salt" 
d="M199 65q38 0 72.5 13t57 31.5t40 36.5t25.5 31l7 13q-6 4 -17 11t-49.5 18t-80.5 11q-135 0 -135 -101q0 -30 20.5 -47t59.5 -17zM322 535q98 0 148 -44t50 -120q0 -16 -5 -41l-70 -330h-80l11 70h-5q-3 -3 -8.5 -9t-23 -20.5t-36.5 -26t-47.5 -20.5t-56.5 -9
q-82 0 -124.5 39t-42.5 105q0 78 59.5 129.5t162.5 51.5q44 0 85 -10t60 -20l19 -10l12 60q4 26 4 35q0 90 -112 90q-51 0 -102.5 -18.5t-77.5 -37.5l-26 -19h-15l18 85q10 8 27.5 19.5t71 31t104.5 19.5zM290 680q-27 0 -53.5 -12.5t-39.5 -25.5l-13 -12l15 70q4 6 12 14
t34 22t55 14q37 0 81.5 -27.5t70.5 -27.5q27 0 53.5 12.5t39.5 24.5l13 13l-15 -70q-4 -6 -12 -14t-34 -22t-55 -14q-37 0 -81.5 27.5t-70.5 27.5z" />
    <glyph glyph-name="gbreve.salt" horiz-adv-x="565" 
d="M84 324q0 91 66.5 151t176.5 60q36 0 64 -6.5t39 -12.5l10 -6l5.5 11t17 25.5t30.5 32t47.5 25t65.5 11.5l-18 -85q-35 0 -61 -12.5t-35 -25.5l-9 -12q4 -4 11 -13t18 -38.5t11 -62.5q0 -65 -36 -116t-107 -80l-186 -80h60q221 0 221 -140q0 -81 -69 -133t-209 -52
q-114 0 -174 41.5t-60 106.5q0 22 10.5 41t25 31t29.5 20t26 11l10 4h-50l11 55l200 85q-6 1 -15.5 3t-33.5 13t-43 27t-34 48t-15 73zM171 324q0 -41 28 -65t81 -24q72 0 114 37t42 94q0 41 -28 65t-81 24q-72 0 -114 -37t-42 -94zM383 -50q0 70 -129 70h-70
q-5 -1 -14 -3.5t-31.5 -11.5t-40 -20t-31.5 -30.5t-14 -41.5q0 -30 37 -49t107 -19q186 0 186 105zM360 630q-47 0 -86 12.5t-54 25.5l-16 12l19 90q2 -2 5.5 -6.5t16 -14.5t28 -18t42 -14.5t55.5 -6.5q47 0 90 15t63 30l20 15l-19 -90q-7 -6 -19.5 -14t-55 -22t-89.5 -14z
" />
    <glyph glyph-name="ydieresis.salt" horiz-adv-x="575" 
d="M605 520l-457 -740h-90l138 225l-126 515h84l100 -415h5l256 415h90zM204 674q0 29 20.5 47.5t47.5 18.5q20 0 32.5 -11.5t12.5 -32.5q0 -29 -20.5 -47.5t-47.5 -18.5q-20 0 -32.5 11.5t-12.5 32.5zM404 674q0 29 20.5 47.5t47.5 18.5q20 0 32.5 -11.5t12.5 -32.5
q0 -29 -20.5 -47.5t-47.5 -18.5q-20 0 -32.5 11.5t-12.5 32.5z" />
    <glyph glyph-name="yacute.salt" horiz-adv-x="575" 
d="M605 520l-457 -740h-90l138 225l-126 515h84l100 -415h5l256 415h90zM307 600l118 180h100l-153 -180h-65z" />
    <glyph glyph-name="ae.salt" horiz-adv-x="980" 
d="M722 535q96 0 157 -58t61 -142q0 -22 -3 -44.5t-7 -34.5l-3 -11h-430q-2 -11 -2 -24q0 -70 43 -113t116 -43q56 0 106 17.5t72 35.5l22 17h15l-20 -90l-6.5 -6.5t-20.5 -14.5t-36.5 -18t-55.5 -14.5t-76 -6.5q-52 0 -94 14t-66 33.5t-40.5 39.5t-21.5 34l-6 14h-5
q-3 -5 -8.5 -14.5t-26 -32.5t-44.5 -41t-62.5 -32.5t-80.5 -14.5q-82 0 -124.5 39t-42.5 105q0 78 59.5 129.5t162.5 51.5q44 0 85 -10t60 -20l19 -10l12 60q4 24 4 35q0 90 -112 90q-51 0 -102.5 -18.5t-77.5 -37.5l-26 -19h-15l18 85q10 8 27.5 19.5t71 31t104.5 19.5
q43 0 78 -9t53.5 -22t31 -26.5t15.5 -22.5l4 -9q3 4 9.5 10t28 21t45.5 27t60.5 21.5t74.5 9.5zM199 65q38 0 72.5 13t57 31.5t40 36.5t25.5 31l7 13q-6 4 -17 11t-49.5 18t-80.5 11q-135 0 -135 -101q0 -30 20.5 -47t59.5 -17zM722 455q-65 0 -120 -37.5t-83 -92.5h335v10
q0 51 -35 85.5t-97 34.5z" />
    <glyph glyph-name="Germandbls" horiz-adv-x="715" 
d="M429 420l150 170q-1 3 -3.5 7.5t-12.5 16.5t-23.5 21.5t-38.5 17t-56 7.5q-78 0 -137 -50t-78 -140l-100 -470h-90l100 470q26 125 112 200t193 75q56 0 101.5 -16t70 -38.5t41 -45.5t22.5 -39l5 -16l-163 -180q6 -2 16 -7t35.5 -23t45 -39.5t35.5 -56.5t16 -74
q0 -94 -74.5 -159.5t-195.5 -65.5q-49 0 -95 15t-68 30l-22 15l43 85q6 -7 17 -17t48 -26.5t77 -16.5q80 0 126.5 40t46.5 100q0 31 -16 57.5t-39 43t-46 28t-39 16.5l-16 5z" />
    <glyph glyph-name="afii10065.salt" 
d="M199 65q38 0 72.5 13t57 31.5t40 36.5t25.5 31l7 13q-6 4 -17 11t-49.5 18t-80.5 11q-135 0 -135 -101q0 -30 20.5 -47t59.5 -17zM322 535q98 0 148 -44t50 -120q0 -16 -5 -41l-70 -330h-80l11 70h-5q-3 -3 -8.5 -9t-23 -20.5t-36.5 -26t-47.5 -20.5t-56.5 -9
q-82 0 -124.5 39t-42.5 105q0 78 59.5 129.5t162.5 51.5q44 0 85 -10t60 -20l19 -10l12 60q4 26 4 35q0 90 -112 90q-51 0 -102.5 -18.5t-77.5 -37.5l-26 -19h-15l18 85q10 8 27.5 19.5t71 31t104.5 19.5z" />
    <glyph glyph-name="zero.taboldstyle" 
d="M95 224q0 -68 42.5 -111t112.5 -43q95 0 165 66t70 160q0 68 -42 111t-112 43q-96 0 -166 -66t-70 -160zM3 224q0 128 97.5 219.5t230.5 91.5q113 0 179.5 -67.5t66.5 -171.5q0 -128 -97 -219.5t-230 -91.5q-114 0 -180.5 67.5t-66.5 171.5z" />
    <glyph glyph-name="one.taboldstyle" 
d="M75 0l18 85h135l69 325l-152 -80l20 95l186 95h60l-93 -435h135l-18 -85h-360z" />
    <glyph glyph-name="two.taboldstyle" 
d="M2 10l311 240q48 36 72.5 68t24.5 67q0 65 -89 65q-44 0 -93.5 -25t-76.5 -50l-27 -25h-15l22 100q4 3 10.5 9t28 20.5t43.5 26t54.5 20.5t63.5 9q82 0 127 -41.5t45 -108.5q0 -33 -12 -63t-36 -56t-40 -40t-45 -36l-137 -105h220l-18 -85h-435z" />
    <glyph glyph-name="three.taboldstyle" 
d="M237 150q-29 0 -54 -6t-36 -12l-11 -7l-35 70l257 245h-240l17 80h415l-2 -10l-287 -270l-1 -5q96 0 153.5 -57t57.5 -145q0 -109 -82.5 -183.5t-213.5 -74.5q-58 0 -111.5 21.5t-78.5 42.5l-25 21l51 75q2 -3 6 -8t18.5 -18t32 -23t46.5 -18t61 -8q94 0 149.5 49
t55.5 124q0 53 -37 85t-106 32z" />
    <glyph glyph-name="four.taboldstyle" 
d="M523 85l-18 -85h-110l-45 -210h-90l45 210h-340l2 10l384 510h105l-328 -435h195l42 195h90l-42 -195h110z" />
    <glyph glyph-name="five.taboldstyle" 
d="M378 52q0 58 -37 93t-103 35q-38 0 -75 -15t-55 -30l-18 -15l-48 30l133 370h370l-18 -85h-295l-69 -189q35 19 85 19q103 0 162.5 -60t59.5 -153q0 -116 -86 -196.5t-214 -80.5q-58 0 -113 21.5t-81 42.5l-26 21l51 75q2 -3 6.5 -8t20 -18t33.5 -23t47.5 -18t61.5 -8
q91 0 149.5 55t58.5 137z" />
    <glyph glyph-name="six.taboldstyle" 
d="M400 730h116q-9 -6 -24 -17.5t-57.5 -46.5t-79.5 -70t-78.5 -84t-66.5 -92h5q4 4 12.5 10t40 15.5t67.5 9.5q100 0 156.5 -55t56.5 -146q0 -117 -79.5 -193t-205.5 -76q-106 0 -164.5 55t-58.5 146q0 78 37 163t90 150t106 119t90 83zM325 375q-88 0 -140.5 -52.5
t-52.5 -136.5q0 -56 34 -88.5t97 -32.5q88 0 140.5 52.5t52.5 136.5q0 56 -34 88.5t-97 32.5z" />
    <glyph glyph-name="seven.taboldstyle" 
d="M155 -210h-100l377 645h-335l18 85h460l-2 -10z" />
    <glyph glyph-name="eight.taboldstyle" 
d="M309 350q-95 0 -147 -47t-52 -122q0 -52 35.5 -81.5t104.5 -29.5q95 0 146.5 47t51.5 122q0 52 -35 81.5t-104 29.5zM375 660q-74 0 -116 -38.5t-42 -100.5q0 -42 28 -66.5t81 -24.5q74 0 116 38.5t42 100.5q0 42 -28 66.5t-81 24.5zM250 -15q-112 0 -172 54.5t-60 141.5
q0 49 17 89.5t41 62.5t48.5 37t41.5 20l17 5l1 5q-2 1 -6 4t-14 13t-17.5 22.5t-13.5 34.5t-6 47q0 96 68.5 160t179.5 64q96 0 148.5 -49t52.5 -127q0 -39 -13.5 -71.5t-33 -50.5t-39 -30.5t-32.5 -16.5l-14 -5l-1 -5q4 -2 10.5 -5t22.5 -15.5t28.5 -28t23 -43t10.5 -59.5
q0 -110 -78 -182t-210 -72z" />
    <glyph glyph-name="nine.taboldstyle" 
d="M181 -210h-116q9 6 24 17.5t57.5 46.5t79.5 70t78.5 84t66.5 92h-5q-4 -4 -12.5 -10t-40 -15.5t-67.5 -9.5q-100 0 -156.5 55t-56.5 146q0 117 79.5 193t205.5 76q106 0 164.5 -55t58.5 -146q0 -78 -37 -163t-90 -150t-106 -119t-90 -83zM256 145q88 0 140.5 52.5
t52.5 136.5q0 56 -34 88.5t-97 32.5q-88 0 -140.5 -52.5t-52.5 -136.5q0 -56 34 -88.5t97 -32.5z" />
    <glyph glyph-name="zero.tab" 
d="M128 260q0 -96 33.5 -143t88.5 -47q100 0 174 105.5t74 294.5q0 96 -33.5 143t-88.5 47q-100 0 -174 -105.5t-74 -294.5zM589 470q0 -111 -30 -204.5t-78.5 -153.5t-108.5 -93.5t-122 -33.5q-98 0 -155.5 72.5t-57.5 202.5q0 111 30 204.5t78.5 153.5t108.5 93.5
t122 33.5q98 0 155.5 -72.5t57.5 -202.5z" />
    <glyph glyph-name="one.tab" 
d="M75 0l18 85h135l114 535l-152 -80l20 95l185 95h60l-137 -645h135l-18 -85h-360z" />
    <glyph glyph-name="two.tab" 
d="M-13 10l378 390q107 112 107 184q0 76 -97 76q-36 0 -74 -14.5t-66.5 -35t-51.5 -41t-35 -35.5l-12 -14h-15l21 100q4 5 12 13.5t33 30t52 38t67 30t79 13.5q86 0 133 -44t47 -117q0 -100 -130 -234l-257 -265h305l-18 -85h-480z" />
    <glyph glyph-name="three.tab" 
d="M281 360q-29 0 -54 -6t-36 -12l-11 -7l-35 70l257 245h-240l17 80h415l-2 -10l-287 -270l-1 -5q96 0 153.5 -57t57.5 -145q0 -109 -82.5 -183.5t-213.5 -74.5q-58 0 -111.5 21.5t-78.5 42.5l-25 21l51 75q2 -3 6 -8t18.5 -18t32 -23t46.5 -18t61 -8q94 0 149.5 49
t55.5 124q0 53 -37 85t-106 32z" />
    <glyph glyph-name="four.tab" 
d="M565 285l-18 -85h-110l-43 -200h-90l43 200h-340l2 10l386 520h105l-330 -445h195l42 195h90l-42 -195h110z" />
    <glyph glyph-name="five.tab" 
d="M427 262q0 58 -37 93t-103 35q-38 0 -75 -15t-55 -30l-18 -15l-48 30l133 370h370l-18 -85h-295l-69 -189q35 19 85 19q103 0 162.5 -60t59.5 -153q0 -116 -86 -196.5t-214 -80.5q-58 0 -113 21.5t-81 42.5l-26 21l51 75q2 -3 6.5 -8t20 -18t33.5 -23t47.5 -18t61.5 -8
q91 0 149.5 55t58.5 137z" />
    <glyph glyph-name="six.tab" 
d="M400 730h116q-9 -6 -24 -17.5t-57.5 -46.5t-79.5 -70t-78.5 -84t-66.5 -92h5q4 4 12.5 10t40 15.5t67.5 9.5q100 0 156.5 -55t56.5 -146q0 -117 -79.5 -193t-205.5 -76q-106 0 -164.5 55t-58.5 146q0 78 37 163t90 150t106 119t90 83zM325 375q-88 0 -140.5 -52.5
t-52.5 -136.5q0 -56 34 -88.5t97 -32.5q88 0 140.5 52.5t52.5 136.5q0 56 -34 88.5t-97 32.5z" />
    <glyph glyph-name="seven.tab" 
d="M200 0h-100l377 645h-335l18 85h460l-2 -10z" />
    <glyph glyph-name="eight.tab" 
d="M309 350q-95 0 -147 -47t-52 -122q0 -52 35.5 -81.5t104.5 -29.5q95 0 146.5 47t51.5 122q0 52 -35 81.5t-104 29.5zM375 660q-74 0 -116 -38.5t-42 -100.5q0 -42 28 -66.5t81 -24.5q74 0 116 38.5t42 100.5q0 42 -28 66.5t-81 24.5zM250 -15q-112 0 -172 54.5t-60 141.5
q0 49 17 89.5t41 62.5t48.5 37t41.5 20l17 5l1 5q-2 1 -6 4t-14 13t-17.5 22.5t-13.5 34.5t-6 47q0 96 68.5 160t179.5 64q96 0 148.5 -49t52.5 -127q0 -39 -13.5 -71.5t-33 -50.5t-39 -30.5t-32.5 -16.5l-14 -5l-1 -5q4 -2 10.5 -5t22.5 -15.5t28.5 -28t23 -43t10.5 -59.5
q0 -110 -78 -182t-210 -72z" />
    <glyph glyph-name="nine.tab" 
d="M225 0h-116q9 6 24 17.5t57.5 46.5t79.5 70t78.5 84t66.5 92h-5q-4 -4 -12.5 -10t-40 -15.5t-67.5 -9.5q-100 0 -156.5 55t-56.5 146q0 117 79.5 193t205.5 76q106 0 164.5 -55t58.5 -146q0 -78 -37 -163t-90 -150t-106 -119t-90 -83zM300 355q88 0 140.5 52.5
t52.5 136.5q0 56 -34 88.5t-97 32.5q-88 0 -140.5 -52.5t-52.5 -136.5q0 -56 34 -88.5t97 -32.5z" />
    <glyph glyph-name="zero.numr" horiz-adv-x="350" 
d="M165 501q0 -76 56 -76q45 0 71.5 45t26.5 129q0 76 -56 76q-45 0 -71.5 -45t-26.5 -129zM390 599q0 -110 -47 -174.5t-122 -64.5q-59 0 -93 37t-34 104q0 110 47 174.5t122 64.5q59 0 93 -37t34 -104z" />
    <glyph glyph-name="one.numr" horiz-adv-x="235" 
d="M109 605l16 75l101 50h45l-77 -360h-70l57 270z" />
    <glyph glyph-name="two.numr" horiz-adv-x="320" 
d="M61 380l189 185q46 46 46 74q0 36 -42 36q-27 0 -57.5 -15t-48.5 -30l-17 -15h-10l14 65q6 7 17 17t45 26.5t67 16.5q48 0 76.5 -25t28.5 -66q0 -57 -60 -114l-101 -100h125l-14 -65h-260z" />
    <glyph glyph-name="three.numr" horiz-adv-x="320" 
d="M221 545q-18 0 -34 -5t-23 -10l-7 -5l-23 35l112 105h-105l14 65h230l-2 -10l-119 -115q37 -8 60 -35.5t23 -72.5q0 -61 -42 -99t-110 -38q-36 0 -68 11t-47 23l-14 11l37 55q3 -4 9.5 -10t30 -15.5t52.5 -9.5q34 0 57 20.5t23 51.5q0 21 -14.5 34.5t-39.5 13.5z" />
    <glyph glyph-name="four.numr" horiz-adv-x="310" 
d="M315 730l-159 -210h60l36 75h50l-16 -75h55l-14 -65h-55l-18 -85h-70l18 85h-165l2 10l201 265h75z" />
    <glyph glyph-name="five.numr" horiz-adv-x="325" 
d="M275 497q0 21 -14.5 34.5t-39.5 13.5q-16 0 -32 -5t-24 -10l-8 -5l-45 25l68 180h195l-14 -65h-140l-22 -60q16 5 36 5q49 0 80 -31t31 -82q0 -61 -41.5 -99t-109.5 -38q-36 0 -68 11t-47 23l-14 11l32 55q32 -35 97 -35q34 0 57 20.5t23 51.5z" />
    <glyph glyph-name="six.numr" horiz-adv-x="340" 
d="M87 472q0 36 19 76t45.5 71t53.5 57t46 40l19 14h95q-80 -50 -139 -115q16 5 31 5q47 0 76 -33t29 -84q0 -61 -43.5 -102t-108.5 -41q-55 0 -89 32t-34 80zM157 477q0 -24 15 -38t38 -14q32 0 56.5 22t24.5 56q0 24 -15 38t-38 14q-32 0 -56.5 -22t-24.5 -56z" />
    <glyph glyph-name="seven.numr" horiz-adv-x="310" 
d="M189 370h-75l173 295h-155l14 65h250l-3 -10z" />
    <glyph glyph-name="eight.numr" horiz-adv-x="340" 
d="M211 425q34 0 55.5 16.5t21.5 44.5q0 44 -55 44q-35 0 -56.5 -17.5t-21.5 -45.5q0 -19 15 -30.5t41 -11.5zM247 595q26 0 42.5 12.5t16.5 34.5q0 33 -42 33q-26 0 -43 -13t-17 -34q0 -33 43 -33zM211 360q-62 0 -95 28.5t-33 78.5q0 33 20.5 56.5t40.5 30.5l20 6
q-31 25 -31 68q0 49 36 80.5t95 31.5q52 0 83 -27.5t31 -70.5q0 -27 -16 -47.5t-32 -27.5l-16 -7q5 -2 12.5 -7.5t19.5 -24.5t12 -42q0 -59 -38.5 -92.5t-108.5 -33.5z" />
    <glyph glyph-name="nine.numr" horiz-adv-x="340" 
d="M386 628q0 -36 -19 -76t-46 -71t-53.5 -57t-45.5 -40l-19 -14h-95q80 50 139 115q-16 -5 -31 -5q-47 0 -76 33t-29 84q0 61 43.5 102t108.5 41q55 0 89 -32t34 -80zM316 623q0 24 -15 38t-38 14q-32 0 -56.5 -22t-24.5 -56q0 -24 15 -38t38 -14q32 0 56.5 22t24.5 56z
" />
    <glyph glyph-name="zero.dnom" horiz-adv-x="350" 
d="M86 131q0 -76 56 -76q45 0 71.5 45t26.5 129q0 76 -56 76q-45 0 -71.5 -45t-26.5 -129zM311 229q0 -110 -47 -174.5t-122 -64.5q-59 0 -93 37t-34 104q0 110 47 174.5t122 64.5q59 0 93 -37t34 -104z" />
    <glyph glyph-name="one.dnom" horiz-adv-x="235" 
d="M30 235l16 75l101 50h45l-77 -360h-70l57 270z" />
    <glyph glyph-name="two.dnom" horiz-adv-x="320" 
d="M-18 10l189 185q46 46 46 74q0 36 -42 36q-27 0 -57.5 -15t-47.5 -30l-18 -15h-10l14 65q6 7 17 17t45 26.5t67 16.5q48 0 76.5 -25t28.5 -66q0 -57 -60 -114l-101 -100h125l-14 -65h-260z" />
    <glyph glyph-name="three.dnom" horiz-adv-x="320" 
d="M142 175q-18 0 -34 -5t-23 -10l-7 -5l-23 35l112 105h-105l14 65h230l-2 -10l-119 -115q37 -8 60 -35.5t23 -72.5q0 -61 -42 -99t-110 -38q-36 0 -68 11t-46 23l-15 11l37 55q3 -4 9.5 -10t30 -15.5t52.5 -9.5q34 0 57 20.5t23 51.5q0 21 -14.5 34.5t-39.5 13.5z" />
    <glyph glyph-name="four.dnom" horiz-adv-x="310" 
d="M236 360l-159 -210h60l36 75h50l-16 -75h55l-14 -65h-55l-18 -85h-70l18 85h-165l2 10l201 265h75z" />
    <glyph glyph-name="five.dnom" horiz-adv-x="325" 
d="M196 127q0 21 -14.5 34.5t-39.5 13.5q-16 0 -32 -5t-24 -10l-8 -5l-45 25l68 180h195l-14 -65h-140l-22 -60q16 5 36 5q49 0 80 -31t31 -82q0 -61 -41.5 -99t-109.5 -38q-36 0 -68 11t-46 23l-15 11l32 55q32 -35 97 -35q34 0 57 20.5t23 51.5z" />
    <glyph glyph-name="six.dnom" horiz-adv-x="340" 
d="M8 102q0 36 19 76t45.5 71t53.5 57t46 40l19 14h95q-80 -50 -139 -115q16 5 31 5q47 0 76 -33t29 -84q0 -61 -43.5 -102t-108.5 -41q-55 0 -89 32t-34 80zM78 107q0 -24 15 -38t38 -14q32 0 56.5 22t24.5 56q0 24 -15 38t-38 14q-32 0 -56.5 -22t-24.5 -56z" />
    <glyph glyph-name="seven.dnom" horiz-adv-x="310" 
d="M110 0h-75l173 295h-155l14 65h250l-3 -10z" />
    <glyph glyph-name="eight.dnom" horiz-adv-x="340" 
d="M132 55q34 0 55.5 16.5t21.5 44.5q0 44 -55 44q-35 0 -56.5 -17.5t-21.5 -45.5q0 -19 15 -30.5t41 -11.5zM168 225q26 0 42.5 12.5t16.5 34.5q0 33 -42 33q-26 0 -43 -13t-17 -34q0 -33 43 -33zM132 -10q-62 0 -95 28.5t-33 78.5q0 21 8.5 38.5t20 27t23.5 16t20 9.5l9 2
q-31 25 -31 68q0 49 36 80.5t95 31.5q52 0 83 -27.5t31 -70.5q0 -27 -16 -47.5t-32 -27.5l-16 -7q5 -2 12.5 -7.5t19.5 -24.5t12 -42q0 -59 -38.5 -92.5t-108.5 -33.5z" />
    <glyph glyph-name="nine.dnom" horiz-adv-x="340" 
d="M308 258q0 -36 -19 -76t-46 -71t-53.5 -57t-45.5 -40l-19 -14h-95q80 50 139 115q-16 -5 -31 -5q-47 0 -76 33t-29 84q0 61 43.5 102t108.5 41q55 0 89 -32t34 -80zM238 253q0 24 -15 38t-38 14q-32 0 -56.5 -22t-24.5 -56q0 -24 15 -38t38 -14q32 0 56.5 22t24.5 56z
" />
    <glyph glyph-name="ordfeminine.salt" horiz-adv-x="385" 
d="M218 415q18 0 35.5 7.5t30 18.5t22 22.5t14.5 18.5l4 8q-4 4 -10.5 11t-28 18t-43.5 11q-37 0 -58 -20.5t-21 -52.5q0 -42 55 -42zM283 740q146 0 146 -110q0 -21 -4 -40l-49 -230h-71l7 50h-5q-5 -7 -14 -17t-37.5 -26.5t-57.5 -16.5q-56 0 -87 28.5t-31 78.5
q0 51 41 84.5t111 33.5q31 0 56.5 -10t35.5 -20l10 -10l9 45q4 26 4 34q0 30 -17.5 43t-56.5 13q-27 0 -59.5 -11t-51.5 -23l-19 -11h-16l14 65q8 6 21 14t50.5 22t70.5 14z" />
    <glyph glyph-name="f_l.salt" horiz-adv-x="635" 
d="M669 770l-164 -770h-85l147 690q-36 0 -87.5 10t-83.5 10q-80 0 -100 -95l-20 -95h165l-17 -80h-165l-94 -440h-85l94 440h-100l17 80h100l20 95q37 175 185 175q38 0 96 -10t92 -10h85z" />
    <glyph glyph-name="f_f_l.salt" horiz-adv-x="975" 
d="M191 520l16 75q37 175 190 175q36 0 65 -12.5t40 -25.5l12 -12l-44 -65l-2 3q-2 2 -4.5 5t-6.5 6.5t-10 7t-13 6.5t-16.5 5t-20.5 2q-85 0 -105 -95l-16 -75h255l20 95q37 175 185 175q38 0 96 -10t92 -10h85l-164 -770h-85l146 690q-36 0 -87 10t-83 10q-80 0 -100 -95
l-20 -95h165l-17 -80h-165l-94 -440h-85l94 440h-255l-94 -440h-85l94 440h-100l17 80h100z" />
    <glyph glyph-name="at.case" horiz-adv-x="990" 
d="M977 453q0 -129 -64 -211t-163 -82q-27 0 -48.5 7t-33.5 17.5t-20 21t-10 17.5l-3 7h-5q-7 -8 -20 -19.5t-51 -31t-74 -19.5q-87 0 -136 49.5t-49 129.5q0 98 69 164.5t169 66.5q40 0 71 -16t43 -32l11 -17l20 55h75l-51 -240q-4 -22 -4 -28q0 -52 57 -52q61 0 93.5 56
t32.5 157q0 114 -76.5 185.5t-209.5 71.5q-174 0 -300.5 -120t-126.5 -291q0 -124 76 -201.5t204 -77.5q67 0 126.5 16t86.5 32l26 17l-21 -100q-8 -6 -23.5 -14t-71.5 -22t-123 -14q-170 0 -271 103.5t-101 260.5q0 132 73 247t193 182t253 67q176 0 276.5 -97.5
t100.5 -244.5zM485 240q62 0 106 43.5t44 107.5q0 45 -26 72t-71 27q-62 0 -106 -43.5t-44 -107.5q0 -45 26 -72t71 -27z" />
    <glyph glyph-name="parenleft.case" horiz-adv-x="345" 
d="M163 196q0 -94 17.5 -180t35.5 -125l17 -39h-70q-3 5 -9 15.5t-20.5 44.5t-25.5 71.5t-20 95.5t-9 117q0 106 30 214t72.5 187.5t85.5 144t73 97.5l30 33h80q-12 -12 -31 -34.5t-68.5 -94.5t-87.5 -146.5t-69 -184.5t-31 -216z" />
    <glyph glyph-name="parenright.case" horiz-adv-x="345" 
d="M236 528q0 94 -17.5 180t-34.5 125l-18 39h70q3 -5 9 -15.5t20.5 -44.5t25.5 -71.5t20 -95.5t9 -117q0 -106 -30 -214t-72.5 -187.5t-85.5 -144t-73 -97.5l-30 -33h-80q12 12 31 34.5t68.5 94.5t87.5 146.5t69 184.5t31 216z" />
    <glyph glyph-name="bracketleft.case" horiz-adv-x="400" 
d="M19 -145l216 1015h260l-18 -85h-170l-180 -845h170l-18 -85h-260z" />
    <glyph glyph-name="bracketright.case" horiz-adv-x="400" 
d="M435 870l-216 -1015h-260l18 85h170l180 845h-170l18 85h260z" />
    <glyph glyph-name="braceleft.case" horiz-adv-x="400" 
d="M193 365l-2 -5q2 -1 5.5 -2.5t13 -8.5t16.5 -16t13 -25t6 -34q0 -12 -3 -29l-48 -225q-3 -15 -3 -28q0 -52 66 -52h40l-18 -85h-22q-71 0 -114 32.5t-43 93.5q0 20 4 39l46 215q4 17 4 34q0 30 -19 43t-61 13l16 75q52 0 77.5 20.5t36.5 69.5l46 215q35 165 187 165h58
l-18 -85h-40q-80 0 -97 -80l-48 -225q-11 -49 -35.5 -77.5t-44.5 -32.5z" />
    <glyph glyph-name="braceright.case" horiz-adv-x="400" 
d="M261 360l2 5q-2 1 -5.5 2.5t-13 8.5t-16.5 16t-13 25t-6 34q0 13 3 29l48 225q3 15 3 28q0 52 -66 52h-40l18 85h22q71 0 114 -32.5t43 -93.5q0 -20 -4 -39l-46 -215q-4 -17 -4 -34q0 -30 19 -43t61 -13l-16 -75q-52 0 -77.5 -20.5t-36.5 -69.5l-46 -215
q-35 -165 -187 -165h-58l18 85h40q80 0 97 80l48 225q11 49 35.5 77.5t44.5 33.5z" />
    <glyph glyph-name="exclamdown.case" horiz-adv-x="280" 
d="M84 185l96 355h50l-56 -355l-54 -255h-90zM179 674q0 30 20 48t48 18q20 0 32.5 -11.5t12.5 -32.5q0 -30 -20 -48t-48 -18q-20 0 -32.5 11.5t-12.5 32.5z" />
    <glyph glyph-name="questiondown.case" horiz-adv-x="485" 
d="M424 160l-21 -100q-3 -3 -8.5 -8t-24.5 -18t-40 -23t-53.5 -18t-66.5 -8q-83 0 -133 47t-50 118q0 46 25.5 88.5t63 76.5t76.5 66t70.5 71t39.5 78h85q-10 -45 -41 -90t-67.5 -80t-72 -68.5t-59.5 -70t-24 -71.5q0 -37 25.5 -58.5t71.5 -21.5q49 0 96 22.5t70 45.5l23 22
h15zM319 674q0 30 20 48t48 18q20 0 32.5 -11.5t12.5 -32.5q0 -30 -20 -48t-48 -18q-20 0 -32.5 11.5t-12.5 32.5z" />
    <glyph glyph-name="guillemotleft.case" horiz-adv-x="540" 
d="M153 350l116 -210h-90l-119 215l4 20l196 215h105l-210 -230zM368 350l116 -210h-90l-119 215l4 20l196 215h105l-210 -230z" />
    <glyph glyph-name="guillemotright.case" horiz-adv-x="540" 
d="M441 380l-116 210h90l119 -215l-4 -20l-196 -215h-105l210 230zM226 380l-116 210h90l119 -215l-4 -20l-196 -215h-105l210 230z" />
    <glyph glyph-name="guilsinglleft.case" horiz-adv-x="355" 
d="M155 354l144 -214h-95l-144 215l4 20l226 215h105l-238 -226z" />
    <glyph glyph-name="guilsinglright.case" horiz-adv-x="355" 
d="M254 376l-144 214h95l144 -215l-4 -20l-226 -215h-105l238 226z" />
    <glyph glyph-name="hyphen.case" horiz-adv-x="390" 
d="M54 325l17 80h320l-17 -80h-320z" />
    <glyph glyph-name="endash.case" horiz-adv-x="530" 
d="M54 325l17 80h460l-17 -80h-460z" />
    <glyph glyph-name="emdash.case" horiz-adv-x="890" 
d="M54 325l17 80h820l-17 -80h-820z" />
    <glyph glyph-name="periodcentered.case" horiz-adv-x="260" 
d="M214 376q0 -30 -20 -48t-48 -18q-20 0 -32.5 11.5t-12.5 32.5q0 30 20 48t48 18q20 0 32.5 -11.5t12.5 -32.5z" />
    <glyph glyph-name="bullet.case" horiz-adv-x="450" 
d="M358 367q0 -48 -29.5 -76.5t-75.5 -28.5t-75.5 28.5t-29.5 76.5t29.5 76.5t75.5 28.5t75.5 -28.5t29.5 -76.5z" />
    </font>
</defs>
</svg>
