<svg width="25" height="24" viewBox="0 0 25 24" fill="none" xmlns="http://www.w3.org/2000/svg">
<g id="Icon / Facebook">
<path id="Vector" d="M16.7773 6H13.7773C13.225 6 12.7773 6.44772 12.7773 7V10H16.7773C16.891 9.99748 16.9989 10.0504 17.0665 10.1419C17.1341 10.2334 17.1531 10.352 17.1173 10.46L16.3773 12.66C16.3091 12.8619 16.1204 12.9984 15.9073 13H12.7773V20.5C12.7773 20.7761 12.5534 21 12.2773 21H9.77734C9.5012 21 9.27734 20.7761 9.27734 20.5V13H7.77734C7.5012 13 7.27734 12.7761 7.27734 12.5V10.5C7.27734 10.2239 7.5012 10 7.77734 10H9.27734V7C9.27734 4.79086 11.0682 3 13.2773 3H16.7773C17.0534 3 17.2773 3.22386 17.2773 3.5V5.5C17.2773 5.77614 17.0534 6 16.7773 6Z" fill="white"/>
</g>
</svg>
