<svg width="25" height="17" viewBox="0 0 25 17" fill="none" xmlns="http://www.w3.org/2000/svg">
<g id="&#240;&#159;&#166;&#134; icon &#34;youtube&#34;">
<path id="Vector" d="M23.7763 2.58682C23.4912 1.57476 22.702 0.781013 21.6854 0.500427C19.8136 2.39237e-05 12.2888 2.40447e-05 12.2888 2.40447e-05C12.2888 2.40447e-05 4.77825 -0.0119798 2.88692 0.500427C1.87561 0.781764 1.08262 1.57476 0.800531 2.58682C0.445672 4.50516 0.269368 6.44675 0.277621 8.39735C0.273869 10.3352 0.449423 12.2738 0.800531 14.1801C1.08262 15.1922 1.87561 15.9859 2.88692 16.271C4.75874 16.7714 12.2888 16.7714 12.2888 16.7714C12.2888 16.7714 19.7949 16.7714 21.6854 16.271C22.702 15.9859 23.4912 15.1929 23.7763 14.1801C24.1207 12.2738 24.2887 10.3352 24.2767 8.39735C24.2887 6.44675 24.1244 4.50516 23.7763 2.58682ZM9.88507 11.9887V4.79024L16.1487 8.39735L9.88507 11.9887Z" fill="white"/>
</g>
</svg>
