<svg width="25" height="24" viewBox="0 0 25 24" fill="none" xmlns="http://www.w3.org/2000/svg">
<g id="Icon / Instagram">
<path id="Vector" fill-rule="evenodd" clip-rule="evenodd" d="M16.2773 3H8.27734C5.51592 3 3.27734 5.23858 3.27734 8V16C3.27734 18.7614 5.51592 21 8.27734 21H16.2773C19.0387 21 21.2773 18.7614 21.2773 16V8C21.2773 5.23858 19.0387 3 16.2773 3ZM19.5273 16C19.5218 17.7926 18.0699 19.2445 16.2773 19.25H8.27734C6.48469 19.2445 5.03283 17.7926 5.02734 16V8C5.03283 6.20735 6.48469 4.75549 8.27734 4.75H16.2773C18.0699 4.75549 19.5218 6.20735 19.5273 8V16ZM17.0273 8.25C17.5796 8.25 18.0273 7.80228 18.0273 7.25C18.0273 6.69772 17.5796 6.25 17.0273 6.25C16.475 6.25 16.0273 6.69772 16.0273 7.25C16.0273 7.80228 16.475 8.25 17.0273 8.25ZM12.2773 7.5C9.79206 7.5 7.77734 9.51472 7.77734 12C7.77734 14.4853 9.79206 16.5 12.2773 16.5C14.7626 16.5 16.7773 14.4853 16.7773 12C16.78 10.8057 16.3067 9.65957 15.4622 8.81508C14.6177 7.97059 13.4716 7.49734 12.2773 7.5ZM9.52734 12C9.52734 13.5188 10.7585 14.75 12.2773 14.75C13.7961 14.75 15.0273 13.5188 15.0273 12C15.0273 10.4812 13.7961 9.25 12.2773 9.25C10.7585 9.25 9.52734 10.4812 9.52734 12Z" fill="white"/>
</g>
</svg>
