<svg width="25" height="24" viewBox="0 0 25 24" fill="none" xmlns="http://www.w3.org/2000/svg">
<g id="Icon / LinkedIn">
<path id="Vector" fill-rule="evenodd" clip-rule="evenodd" d="M5.27734 3H19.2773C20.3819 3 21.2773 3.89543 21.2773 5V19C21.2773 20.1046 20.3819 21 19.2773 21H5.27734C4.17277 21 3.27734 20.1046 3.27734 19V5C3.27734 3.89543 4.17277 3 5.27734 3ZM8.27734 18C8.55348 18 8.77734 17.7761 8.77734 17.5V10.5C8.77734 10.2239 8.55348 10 8.27734 10H6.77734C6.5012 10 6.27734 10.2239 6.27734 10.5V17.5C6.27734 17.7761 6.5012 18 6.77734 18H8.27734ZM7.52734 9C6.69891 9 6.02734 8.32843 6.02734 7.5C6.02734 6.67157 6.69891 6 7.52734 6C8.35577 6 9.02734 6.67157 9.02734 7.5C9.02734 8.32843 8.35577 9 7.52734 9ZM17.7773 18C18.0534 18 18.2773 17.7761 18.2773 17.5V12.9C18.3098 11.3108 17.1349 9.95452 15.5573 9.76C14.4543 9.65925 13.3856 10.1744 12.7773 11.1V10.5C12.7773 10.2239 12.5534 10 12.2773 10H10.7773C10.5012 10 10.2773 10.2239 10.2773 10.5V17.5C10.2773 17.7761 10.5012 18 10.7773 18H12.2773C12.5534 18 12.7773 17.7761 12.7773 17.5V13.75C12.7773 12.9216 13.4489 12.25 14.2773 12.25C15.1057 12.25 15.7773 12.9216 15.7773 13.75V17.5C15.7773 17.7761 16.0012 18 16.2773 18H17.7773Z" fill="white"/>
</g>
</svg>
